<svg width="568" height="549" viewBox="0 0 568 549" fill="none" xmlns="http://www.w3.org/2000/svg">
<g clip-path="url(#clip0)">
<g opacity="0.7">
<g opacity="0.7">
<path opacity="0.7" d="M63.1812 69.6016L227.175 549.005L565.584 142.327L63.1812 69.6016Z" fill="#B0DEED"/>
</g>
</g>
<g opacity="0.7">
<g opacity="0.7">
<path opacity="0.7" d="M353.38 86.2104L169.693 138.132L123.288 324.125L260.558 458.202L444.245 406.281L490.656 220.288L353.38 86.2104Z" fill="#B0DEED"/>
</g>
</g>
<g opacity="0.7">
<g opacity="0.7">
<path opacity="0.7" d="M307.105 155.633L225.566 202.607L225.905 297.128L307.776 344.684L389.314 297.71L388.976 203.184L307.105 155.633Z" fill="#B0DEED"/>
</g>
</g>
<path d="M347.473 64.0835L130.655 133.364L82.8911 356.836L251.957 511.021L468.775 441.74L516.533 218.269L347.473 64.0835ZM315.623 2.07861L2.03418 442.834L566.135 481.319L315.623 2.07861Z" stroke="#C01466" stroke-width="4" stroke-miterlimit="10"/>
</g>
<defs>
<clipPath id="clip0">
<rect width="568" height="549" fill="white"/>
</clipPath>
</defs>
</svg>
