<svg width="559" height="531" viewBox="0 0 559 531" fill="none" xmlns="http://www.w3.org/2000/svg">
<g opacity="0.5" clip-path="url(#clip0)">
<path d="M271.685 351.133H341.212L375.974 290.91L341.212 230.686H271.685L236.924 290.91L271.685 351.133ZM344.417 356.693H268.468L230.51 290.91L268.468 225.13H344.417L382.384 290.91L344.417 356.693Z" fill="#C01466"/>
<path d="M312.269 103.942C206.542 103.942 120.526 189.978 120.526 295.742C120.526 401.506 206.542 487.516 312.269 487.516C417.997 487.516 504.013 401.48 504.013 295.742C504.013 190.003 417.997 103.942 312.269 103.942ZM312.269 489.576C205.402 489.576 118.462 402.6 118.462 295.742C118.462 188.883 205.402 101.877 312.269 101.877C419.137 101.877 506.073 188.841 506.073 295.742C506.073 402.642 419.141 489.576 312.269 489.576Z" fill="#C01466"/>
<path d="M162.583 418.501L477.951 357.783L269.187 120.456L162.583 418.501ZM486.234 360.602L155.943 424.189L267.578 112.044L486.234 360.602Z" fill="#C01466"/>
<path d="M95.2352 380.462L483.433 459.371L356.761 90.608L95.2352 380.462ZM491.546 466.493L84.9434 383.868L358.876 80.2798L491.546 466.493Z" fill="#B0DEED"/>
<path d="M281.288 331.72H331.606L356.761 288.138L331.606 244.556H281.288L256.124 288.138L281.288 331.72ZM332.155 332.674H280.739L255.031 288.138L280.739 243.598H332.155L357.851 288.138L332.155 332.674Z" fill="white"/>
<path d="M238.103 363.292L335.479 385.996L403.819 312.992L374.782 217.297L277.406 194.597L209.071 267.592L238.103 363.292ZM336.62 389.743L235.426 366.153L205.257 266.707L276.274 190.85L377.459 214.427L407.65 313.882L336.62 389.743Z" fill="#B0DEED"/>
<path d="M306.451 59.1381C178.681 59.1381 74.7284 163.11 74.7284 290.91C74.7284 418.71 178.681 522.686 306.451 522.686C434.222 522.686 538.17 418.71 538.17 290.91C538.17 163.11 434.217 59.1381 306.451 59.1381ZM306.451 525.18C177.306 525.18 72.2512 420.085 72.2512 290.91C72.2512 161.735 177.306 56.6433 306.451 56.6433C435.597 56.6433 540.66 161.735 540.66 290.91C540.66 420.085 435.597 525.18 306.451 525.18Z" fill="white"/>
<path d="M106.727 465.016L540.315 381.543L253.302 55.2598L106.727 465.016ZM551.696 385.439L97.5806 472.845L251.089 43.7097L551.696 385.439Z" fill="#B0DEED"/>
<path d="M14.1225 412.724L373.697 14.2407L547.844 521.208L14.1225 412.724ZM376.6 0L0 417.373L558.996 531L376.6 0Z" fill="white"/>
</g>
<defs>
<clipPath id="clip0">
<rect width="559" height="531" fill="white"/>
</clipPath>
</defs>
</svg>
