<svg width="2494" height="1832" viewBox="0 0 2494 1832" fill="none" xmlns="http://www.w3.org/2000/svg">
<path d="M2424.02 952.941C2418.49 958.953 2418.49 969.127 2424.02 975.14C2429.56 981.152 2438.93 981.152 2444.46 975.14C2450 969.127 2450 958.953 2444.46 952.941C2438.93 946.928 2429.98 946.928 2424.02 952.941ZM2381.86 1001.96C2377.18 1007.05 2377.18 1015.84 2381.86 1020.93C2386.55 1026.01 2394.64 1026.01 2399.32 1020.93C2404.01 1015.84 2404.01 1007.05 2399.32 1001.96C2394.64 996.414 2386.97 996.414 2381.86 1001.96ZM2337.58 1048.67C2332.47 1054.22 2332.47 1063.47 2337.58 1069.02C2342.69 1074.57 2351.21 1074.57 2356.32 1069.02C2361.43 1063.47 2361.43 1054.22 2356.32 1048.67C2351.21 1043.12 2343.11 1043.12 2337.58 1048.67ZM2337.58 953.403C2332.04 959.415 2332.04 968.665 2337.58 974.677C2343.11 980.689 2351.63 980.689 2357.17 974.677C2362.7 968.665 2362.7 959.415 2357.17 953.403C2351.63 947.391 2342.69 947.391 2337.58 953.403ZM2294.57 1096.31C2289.46 1101.86 2289.46 1110.65 2294.57 1116.2C2299.68 1121.75 2307.77 1121.75 2312.88 1116.2C2317.99 1110.65 2317.99 1101.86 2312.88 1096.31C2307.77 1090.76 2299.25 1090.76 2294.57 1096.31ZM2294.57 926.117C2299.68 931.666 2307.34 931.666 2312.45 926.117C2317.56 920.567 2317.56 912.242 2312.45 906.693C2307.34 901.143 2299.68 901.143 2294.57 906.693C2289.89 912.242 2289.89 921.029 2294.57 926.117ZM2295 1001.96C2290.31 1007.05 2290.31 1015.84 2295 1020.93C2299.68 1026.01 2307.77 1026.01 2312.45 1020.93C2317.14 1015.84 2317.14 1007.05 2312.45 1001.96C2307.34 996.876 2299.68 996.876 2295 1001.96ZM2206.85 1190.66C2201.74 1196.21 2201.74 1205.45 2206.85 1211.47C2211.96 1217.02 2220.48 1217.02 2226.01 1211.47C2231.12 1205.92 2231.12 1196.67 2226.01 1190.66C2220.48 1184.64 2211.96 1184.64 2206.85 1190.66ZM2206 1095.38C2200.46 1101.4 2200.46 1111.11 2206 1117.58C2211.53 1123.6 2220.48 1123.6 2226.01 1117.58C2231.55 1111.57 2231.55 1101.86 2226.01 1095.38C2220.9 1088.91 2211.96 1088.91 2206 1095.38ZM2226.01 1001.04C2220.9 995.489 2212.39 995.489 2206.85 1001.04C2201.74 1006.59 2201.74 1015.84 2206.85 1021.85C2211.96 1027.4 2220.48 1027.4 2226.01 1021.85C2231.12 1015.84 2231.12 1006.59 2226.01 1001.04ZM2225.16 926.117C2230.27 921.029 2230.27 912.242 2225.16 906.693C2220.05 901.143 2212.39 901.143 2207.28 906.693C2202.59 911.78 2202.59 920.567 2207.28 926.117C2212.39 931.666 2220.05 931.666 2225.16 926.117ZM2119.56 1285.46C2114.45 1291.01 2114.45 1300.26 2119.56 1305.81C2124.67 1311.36 2133.18 1311.36 2138.29 1305.81C2143.4 1300.26 2143.4 1291.01 2138.29 1285.46C2133.18 1279.91 2125.09 1279.91 2119.56 1285.46ZM2119.13 1190.19C2113.59 1196.21 2113.59 1205.92 2119.13 1211.93C2124.67 1217.94 2133.61 1217.94 2139.14 1211.93C2144.68 1205.92 2144.68 1196.21 2139.14 1190.19C2133.61 1184.18 2124.67 1184.18 2119.13 1190.19ZM2119.56 832.233C2124.67 837.783 2133.18 837.783 2138.29 832.233C2143.4 826.683 2143.4 817.434 2138.29 811.884C2133.18 806.334 2124.67 806.334 2119.56 811.884C2114.45 817.434 2114.45 826.221 2119.56 832.233ZM2119.98 907.155C2114.87 912.705 2114.87 921.029 2119.98 926.579C2125.09 932.129 2132.76 932.129 2137.87 926.579C2142.98 921.029 2142.98 912.705 2137.87 907.155C2133.18 901.605 2125.09 901.605 2119.98 907.155ZM2138.72 1000.58C2133.18 994.564 2124.24 994.564 2119.13 1000.58C2113.59 1006.59 2113.59 1016.3 2119.13 1021.85C2124.67 1027.86 2133.61 1027.86 2138.72 1021.85C2144.25 1016.3 2144.25 1006.59 2138.72 1000.58ZM2119.56 1095.85C2114.45 1101.4 2114.45 1110.65 2119.56 1116.66C2124.67 1122.21 2133.18 1122.21 2138.72 1116.66C2143.83 1111.11 2143.83 1101.86 2138.72 1095.85C2133.18 1090.3 2124.67 1090.3 2119.56 1095.85ZM2076.55 1333.1C2071.44 1338.65 2071.44 1347.44 2076.55 1352.99C2081.66 1358.54 2089.75 1358.54 2094.86 1352.99C2099.97 1347.44 2099.97 1338.65 2094.86 1333.1C2089.32 1327.55 2081.23 1327.55 2076.55 1333.1ZM2094.43 1258.18C2099.54 1252.63 2099.54 1243.84 2094.43 1238.75C2089.32 1233.2 2081.23 1233.2 2076.55 1238.75C2071.44 1244.3 2071.44 1253.09 2076.55 1258.18C2081.23 1263.73 2089.32 1263.73 2094.43 1258.18ZM2075.27 1142.09C2069.73 1148.11 2069.73 1158.28 2075.27 1164.76C2080.8 1171.23 2090.17 1170.77 2096.13 1164.76C2102.1 1158.74 2101.67 1148.57 2096.13 1142.09C2090.6 1135.62 2080.8 1136.08 2075.27 1142.09ZM2075.69 785.06C2081.23 791.073 2090.17 791.073 2095.28 785.06C2100.82 779.048 2100.82 769.798 2095.28 763.786C2089.75 757.774 2081.23 757.774 2075.69 763.786C2070.16 769.798 2070.16 779.51 2075.69 785.06ZM2076.55 859.982C2071.86 865.069 2071.86 873.856 2076.55 878.944C2081.23 884.031 2089.32 884.031 2094.01 878.944C2098.69 873.856 2098.69 865.069 2094.01 859.982C2089.32 854.432 2081.66 854.432 2076.55 859.982ZM2075.27 690.714C2080.8 696.727 2089.75 696.727 2095.28 690.714C2100.82 684.702 2100.82 674.99 2095.28 668.978C2089.75 662.965 2080.8 662.965 2075.27 668.978C2069.73 674.99 2069.73 684.702 2075.27 690.714ZM2095.71 952.941C2090.17 946.928 2080.8 946.928 2075.27 952.941C2069.73 958.953 2069.73 969.127 2075.27 975.14C2080.8 981.152 2090.17 981.152 2095.71 975.14C2101.24 969.127 2101.24 958.953 2095.71 952.941ZM2075.69 1048.21C2070.16 1054.22 2070.16 1063.47 2075.69 1069.49C2081.23 1075.5 2089.75 1075.5 2095.28 1069.49C2100.82 1063.47 2100.82 1054.22 2095.28 1048.21C2089.75 1042.2 2081.23 1042.2 2075.69 1048.21ZM2032.69 1380.73C2027.58 1386.28 2027.58 1395.07 2032.69 1400.16C2037.8 1405.71 2045.89 1405.71 2050.57 1400.16C2055.68 1394.61 2055.68 1385.82 2050.57 1380.73C2045.89 1375.18 2037.8 1375.18 2032.69 1380.73ZM2030.98 1284.08C2025.02 1290.55 2025.02 1301.19 2030.98 1307.66C2036.94 1314.14 2046.74 1314.14 2052.7 1307.66C2058.66 1301.19 2058.66 1290.55 2052.7 1284.08C2046.74 1277.6 2036.94 1277.6 2030.98 1284.08ZM2032.69 926.579C2037.8 932.129 2045.89 932.129 2051 926.579C2056.11 921.029 2056.11 912.242 2051 906.693C2045.89 901.143 2037.8 901.143 2032.69 906.693C2027.58 912.242 2027.58 921.029 2032.69 926.579ZM2032.69 1001.5C2027.58 1007.05 2027.58 1015.84 2032.69 1020.93C2037.8 1026.47 2045.89 1026.47 2050.57 1020.93C2055.68 1015.38 2055.68 1006.59 2050.57 1001.5C2045.89 996.414 2037.8 996.414 2032.69 1001.5ZM2051.42 1095.38C2045.89 1089.37 2037.37 1089.37 2031.83 1095.38C2026.3 1101.4 2026.3 1110.65 2031.83 1116.66C2037.37 1122.67 2045.89 1122.67 2051.42 1116.66C2056.96 1110.65 2056.96 1101.4 2051.42 1095.38ZM2032.26 1190.66C2027.15 1196.21 2027.15 1205.45 2032.26 1211.47C2037.37 1217.02 2045.89 1217.02 2051.42 1211.47C2056.53 1205.92 2056.53 1196.67 2051.42 1190.66C2045.89 1184.64 2037.37 1184.64 2032.26 1190.66ZM1987.55 1426.06C1981.59 1432.53 1981.59 1442.71 1987.55 1449.18C1993.51 1455.66 2002.88 1455.66 2008.84 1449.18C2014.8 1442.71 2014.8 1432.53 2008.84 1426.06C2002.88 1419.58 1993.51 1419.58 1987.55 1426.06ZM1944.97 1474.62C1939.86 1480.17 1939.86 1489.88 1944.97 1495.43C1950.08 1500.98 1959.02 1500.98 1964.13 1495.43C1969.24 1489.88 1969.24 1480.17 1964.13 1474.62C1959.02 1469.07 1950.08 1469.07 1944.97 1474.62ZM1944.54 1379.35C1939 1385.36 1939 1395.07 1944.54 1401.08C1950.08 1407.1 1959.02 1407.1 1964.55 1401.08C1970.09 1395.07 1970.09 1385.36 1964.55 1379.35C1959.02 1373.34 1950.08 1373.34 1944.54 1379.35ZM1944.11 1284.08C1938.15 1290.55 1938.15 1300.73 1944.11 1306.74C1950.08 1313.21 1959.44 1313.21 1964.98 1306.74C1970.94 1300.26 1970.94 1290.09 1964.98 1284.08C1959.44 1278.06 1949.65 1278.06 1944.11 1284.08ZM1964.13 1211.47C1969.24 1205.92 1969.24 1196.21 1964.13 1190.66C1959.02 1185.11 1950.08 1185.11 1944.97 1190.66C1939.86 1196.21 1939.86 1205.92 1944.97 1211.47C1950.08 1217.02 1959.02 1217.02 1964.13 1211.47ZM1943.69 1094.46C1937.73 1100.93 1937.73 1111.57 1943.69 1118.05C1949.65 1124.52 1959.44 1124.52 1965.41 1118.05C1971.37 1111.57 1971.37 1100.93 1965.41 1094.46C1959.44 1087.98 1949.65 1087.98 1943.69 1094.46ZM1943.69 928.429C1949.65 934.904 1959.02 934.904 1964.98 928.429C1970.94 921.954 1970.94 911.78 1964.98 905.305C1959.02 898.83 1949.65 898.83 1943.69 905.305C1938.15 911.317 1938.15 921.954 1943.69 928.429ZM1944.54 1000.58C1939 1006.59 1939 1016.3 1944.54 1022.78C1950.08 1028.79 1959.02 1028.79 1964.98 1022.78C1970.52 1016.76 1970.52 1007.05 1964.98 1000.58C1959.02 994.101 1950.08 994.101 1944.54 1000.58ZM1900.68 1521.33C1895.14 1527.34 1895.14 1537.52 1900.68 1543.99C1906.22 1550 1915.58 1550 1921.55 1543.99C1927.08 1537.98 1927.08 1527.8 1921.55 1521.33C1915.58 1514.85 1906.22 1514.85 1900.68 1521.33ZM1919.84 1447.33C1924.53 1442.24 1924.53 1433.46 1919.84 1428.37C1915.16 1423.28 1907.07 1423.28 1902.38 1428.37C1897.7 1433.46 1897.7 1442.24 1902.38 1447.33C1907.07 1452.42 1914.73 1452.42 1919.84 1447.33ZM1900.25 1331.25C1894.29 1337.72 1894.29 1348.36 1900.25 1354.84C1906.22 1361.31 1916.01 1361.31 1921.97 1354.84C1927.93 1348.36 1927.93 1337.72 1921.97 1331.25C1915.58 1324.77 1906.22 1324.77 1900.25 1331.25ZM1900.25 1164.76C1906.22 1171.23 1915.58 1171.23 1921.12 1164.76C1927.08 1158.28 1927.08 1148.11 1921.12 1142.09C1915.16 1135.62 1905.79 1135.62 1900.25 1142.09C1894.72 1148.57 1894.72 1158.74 1900.25 1164.76ZM1901.53 1238.29C1896.42 1243.84 1896.42 1253.09 1901.53 1258.64C1906.64 1264.19 1915.16 1264.19 1920.27 1258.64C1925.38 1253.09 1925.38 1243.84 1920.27 1238.29C1915.16 1232.74 1906.64 1232.74 1901.53 1238.29ZM1858.52 1570.35C1853.84 1575.44 1853.84 1584.23 1858.52 1589.78C1863.21 1594.86 1871.3 1594.86 1876.41 1589.78C1881.09 1584.69 1881.09 1575.9 1876.41 1570.35C1871.3 1564.8 1863.21 1564.8 1858.52 1570.35ZM1858.1 1475.54C1852.99 1481.09 1852.99 1489.88 1858.1 1494.97C1863.21 1500.52 1871.3 1500.52 1875.98 1494.97C1881.09 1489.42 1881.09 1480.63 1875.98 1475.54C1871.3 1469.99 1863.21 1469.99 1858.1 1475.54ZM1769.95 1663.77C1764.42 1669.78 1764.42 1679.5 1769.95 1685.51C1775.49 1691.52 1784.43 1691.52 1789.96 1685.51C1795.5 1679.5 1795.5 1669.78 1789.96 1663.77C1784.43 1657.76 1775.49 1657.76 1769.95 1663.77ZM1726.52 1711.41C1720.98 1717.42 1720.98 1726.67 1726.52 1732.68C1732.05 1738.69 1740.99 1738.69 1746.1 1732.68C1751.64 1726.67 1751.64 1717.42 1746.1 1711.41C1740.99 1705.4 1732.05 1705.4 1726.52 1711.41ZM1726.94 1542.6C1732.05 1548.15 1740.57 1548.15 1745.68 1542.6C1750.79 1537.05 1750.79 1527.8 1745.68 1522.25C1740.57 1516.7 1732.05 1516.7 1726.94 1522.25C1721.83 1527.8 1721.83 1537.05 1726.94 1542.6ZM1727.37 1617.52C1722.26 1623.07 1722.26 1631.86 1727.37 1637.41C1732.48 1642.96 1740.57 1642.96 1745.68 1637.41C1750.79 1631.86 1750.79 1623.07 1745.68 1617.52C1740.57 1611.97 1732.48 1611.97 1727.37 1617.52ZM1727.37 1352.99C1732.48 1358.54 1740.57 1358.54 1745.25 1352.99C1750.36 1347.44 1750.36 1338.65 1745.25 1333.56C1740.14 1328.01 1732.05 1328.01 1727.37 1333.56C1722.26 1338.65 1722.26 1347.44 1727.37 1352.99ZM1727.37 1427.91C1722.26 1433.46 1722.26 1441.78 1727.37 1447.33C1732.48 1452.88 1740.14 1452.88 1745.25 1447.33C1750.36 1441.78 1750.36 1433.46 1745.25 1427.91C1740.57 1422.82 1732.48 1422.82 1727.37 1427.91ZM1727.37 1258.18C1732.48 1263.73 1740.57 1263.73 1745.68 1258.18C1750.79 1252.63 1750.79 1243.84 1745.68 1238.29C1740.57 1232.74 1732.48 1232.74 1727.37 1238.29C1722.26 1243.84 1722.26 1252.63 1727.37 1258.18ZM1745.25 1143.94C1740.14 1138.4 1732.48 1138.4 1727.37 1143.94C1722.26 1149.49 1722.26 1157.82 1727.37 1163.37C1732.48 1168.92 1740.14 1168.92 1745.25 1163.37C1750.36 1157.82 1750.36 1149.03 1745.25 1143.94ZM1745.25 1068.56C1749.94 1063.47 1749.94 1054.69 1745.25 1049.14C1740.57 1044.05 1732.48 1044.05 1727.37 1049.14C1722.68 1054.22 1722.68 1063.01 1727.37 1068.56C1732.48 1073.65 1740.57 1073.65 1745.25 1068.56ZM1727.37 974.215C1732.48 979.764 1740.57 979.764 1745.68 974.215C1750.79 968.665 1750.79 959.878 1745.68 954.328C1740.57 948.778 1732.48 948.778 1727.37 954.328C1722.26 959.415 1722.26 968.665 1727.37 974.215ZM1726.94 879.406C1732.05 884.956 1740.57 884.956 1745.68 879.406C1750.79 873.857 1750.79 864.607 1745.68 859.057C1740.57 853.507 1732.05 853.507 1726.94 859.057C1721.83 864.607 1721.83 873.857 1726.94 879.406ZM1727.37 689.789C1732.48 695.339 1740.57 695.339 1745.68 689.789C1750.79 684.24 1750.79 675.452 1745.68 669.903C1740.57 664.353 1732.48 664.353 1727.37 669.903C1722.26 675.452 1722.26 684.24 1727.37 689.789ZM1727.37 764.711C1722.26 770.261 1722.26 779.048 1727.37 784.598C1732.48 790.148 1740.57 790.148 1745.68 784.598C1750.79 779.048 1750.79 770.261 1745.68 764.711C1740.57 759.161 1732.48 759.161 1727.37 764.711ZM1726.94 595.443C1732.05 600.993 1740.57 600.993 1745.68 595.443C1750.79 589.894 1750.79 580.644 1745.68 575.094C1740.57 569.544 1732.05 569.544 1726.94 575.094C1721.83 580.644 1721.83 589.431 1726.94 595.443ZM1726.52 500.635C1732.05 506.647 1740.57 506.647 1746.1 500.635C1751.64 494.623 1751.64 485.373 1746.1 479.361C1740.57 473.349 1732.05 473.349 1726.52 479.361C1721.41 485.373 1721.41 495.085 1726.52 500.635ZM1683.51 1759.51C1678.4 1765.06 1678.4 1773.84 1683.51 1779.39C1688.62 1784.94 1696.71 1784.94 1701.82 1779.39C1706.93 1773.84 1706.93 1765.06 1701.82 1759.51C1697.13 1753.96 1688.62 1753.96 1683.51 1759.51ZM1681.8 1662.85C1675.84 1669.32 1675.84 1679.96 1681.8 1686.43C1687.77 1692.91 1697.56 1692.91 1703.52 1686.43C1709.48 1679.96 1709.48 1669.32 1703.52 1662.85C1697.56 1656.37 1688.19 1656.37 1681.8 1662.85ZM1639.22 1805.75C1633.69 1811.77 1633.69 1821.48 1639.22 1827.49C1644.76 1833.5 1653.7 1833.5 1659.24 1827.49C1664.77 1821.48 1664.77 1811.77 1659.24 1805.75C1653.7 1799.74 1644.76 1799.74 1639.22 1805.75ZM1658.81 1711.87C1653.7 1706.32 1645.18 1706.32 1639.65 1711.87C1634.54 1717.42 1634.54 1726.67 1639.65 1732.68C1644.76 1738.23 1653.27 1738.23 1658.81 1732.68C1663.92 1726.67 1663.92 1717.42 1658.81 1711.87ZM1657.96 1636.95C1663.07 1631.4 1663.07 1623.07 1657.96 1617.52C1652.85 1612.44 1645.18 1612.44 1640.07 1617.52C1635.39 1623.07 1635.39 1631.4 1640.07 1636.95C1645.18 1642.04 1653.27 1642.04 1657.96 1636.95ZM1596.64 1759.97C1591.96 1765.06 1591.96 1773.84 1596.64 1779.39C1601.75 1784.48 1609.41 1784.48 1614.52 1779.39C1619.21 1773.84 1619.21 1765.52 1614.52 1759.97C1609.41 1754.42 1601.75 1754.42 1596.64 1759.97ZM1595.36 1663.31C1589.83 1669.32 1589.83 1679.5 1595.36 1685.51C1600.9 1691.52 1610.27 1691.52 1615.8 1685.51C1621.34 1679.5 1621.34 1669.32 1615.8 1663.31C1610.27 1657.3 1600.9 1657.3 1595.36 1663.31ZM1614.95 1475.08C1609.84 1469.53 1601.75 1469.53 1596.64 1475.08C1591.53 1480.63 1591.53 1489.42 1596.64 1494.97C1601.75 1500.52 1609.84 1500.52 1614.95 1494.97C1620.06 1489.42 1620.06 1480.63 1614.95 1475.08ZM1614.52 1400.16C1619.63 1394.61 1619.63 1385.82 1614.52 1380.27C1609.41 1374.72 1601.32 1374.72 1596.21 1380.27C1591.1 1385.82 1591.1 1394.61 1596.21 1400.16C1601.32 1405.71 1609.84 1405.71 1614.52 1400.16ZM1615.8 1568.96C1610.27 1562.95 1601.32 1562.95 1595.79 1568.96C1590.25 1574.98 1590.25 1584.69 1595.79 1590.7C1601.32 1596.71 1610.27 1596.71 1615.8 1590.7C1621.34 1584.69 1621.34 1574.98 1615.8 1568.96ZM1595.36 1306.74C1600.9 1312.75 1609.84 1312.75 1615.38 1306.74C1620.91 1300.73 1620.91 1291.01 1615.38 1285C1609.84 1278.99 1600.9 1278.99 1595.36 1285C1589.83 1290.55 1589.83 1300.73 1595.36 1306.74ZM1551.5 1710.48C1545.54 1716.96 1545.54 1727.13 1551.5 1733.61C1557.46 1740.08 1566.83 1740.08 1572.79 1733.61C1578.75 1727.13 1578.75 1716.96 1572.79 1710.48C1566.83 1704.01 1557.04 1704.01 1551.5 1710.48ZM1572.37 1331.71C1566.83 1325.7 1557.46 1325.7 1551.5 1331.71C1545.97 1337.72 1545.97 1347.9 1551.5 1354.37C1557.04 1360.39 1566.41 1360.39 1572.37 1354.37C1578.33 1348.36 1577.9 1338.19 1572.37 1331.71ZM1571.09 1258.18C1576.2 1252.63 1576.2 1243.84 1571.09 1238.29C1565.98 1232.74 1557.89 1232.74 1552.78 1238.29C1547.67 1243.84 1547.67 1252.63 1552.78 1258.18C1557.89 1263.73 1565.98 1263.73 1571.09 1258.18ZM1572.37 1426.52C1566.83 1420.51 1557.46 1420.51 1551.5 1426.52C1545.97 1432.53 1545.97 1442.71 1551.5 1449.18C1557.04 1455.19 1566.41 1455.19 1572.37 1449.18C1577.9 1442.71 1577.9 1432.53 1572.37 1426.52ZM1571.94 1616.14C1566.41 1610.12 1557.04 1610.12 1551.5 1616.14C1545.97 1622.15 1545.97 1632.32 1551.5 1638.34C1557.04 1644.35 1566.41 1644.35 1571.94 1638.34C1577.9 1632.32 1577.9 1622.15 1571.94 1616.14ZM1571.09 1542.6C1576.2 1537.05 1576.2 1528.27 1571.09 1522.72C1565.98 1517.17 1557.89 1517.17 1552.78 1522.72C1547.67 1528.27 1547.67 1537.05 1552.78 1542.6C1557.89 1548.15 1565.98 1548.15 1571.09 1542.6ZM1551.08 1142.09C1545.11 1148.57 1545.11 1158.74 1551.08 1165.22C1557.04 1171.69 1566.41 1171.69 1572.37 1165.22C1578.33 1158.74 1578.33 1148.57 1572.37 1142.09C1566.83 1135.62 1557.04 1135.62 1551.08 1142.09ZM1572.37 1069.95C1577.9 1063.94 1577.9 1053.76 1572.37 1047.29C1566.83 1041.27 1557.46 1041.27 1551.5 1047.29C1545.97 1053.3 1545.97 1063.47 1551.5 1069.95C1557.46 1076.42 1566.41 1076.42 1572.37 1069.95ZM1510.62 1666.09C1506.36 1670.71 1506.36 1678.57 1510.62 1683.2C1514.88 1687.82 1522.12 1687.82 1526.38 1683.2C1530.64 1678.57 1530.64 1670.71 1526.38 1666.09C1521.69 1661.46 1514.88 1661.46 1510.62 1666.09ZM1508.07 1568.96C1502.53 1574.98 1502.53 1585.15 1508.07 1591.16C1513.6 1597.18 1522.97 1597.18 1528.51 1591.16C1534.04 1585.15 1534.04 1574.98 1528.51 1568.96C1522.97 1562.49 1513.6 1562.49 1508.07 1568.96ZM1527.23 1494.97C1532.34 1489.42 1532.34 1480.63 1527.23 1475.54C1522.12 1469.99 1514.03 1469.99 1509.34 1475.54C1504.23 1481.09 1504.23 1489.88 1509.34 1494.97C1514.45 1500.52 1522.55 1500.52 1527.23 1494.97ZM1476.13 1542.6C1481.24 1548.15 1489.76 1548.15 1494.87 1542.6C1499.98 1537.05 1499.98 1527.8 1494.87 1522.25C1489.76 1516.7 1481.24 1516.7 1476.13 1522.25C1471.02 1527.8 1471.02 1537.05 1476.13 1542.6ZM1281.53 1335.41C1298.13 1359.46 1314.74 1383.05 1331.35 1407.1C1311.33 1411.72 1287.06 1417.27 1258.96 1424.21C1261.09 1415.42 1263.22 1407.1 1265.35 1398.31C1266.2 1399.7 1266.62 1400.62 1267.47 1401.55C1273.01 1407.56 1282.38 1407.56 1287.91 1401.55C1293.45 1395.53 1293.45 1385.36 1287.91 1379.35C1283.23 1374.26 1275.99 1373.34 1270.46 1377.03C1274.29 1362.24 1278.12 1348.36 1281.53 1335.41ZM1333.48 1408.02C1341.57 1406.17 1348.81 1404.32 1355.62 1402.93C1359.03 1412.18 1362.01 1420.51 1364.99 1428.83C1364.56 1427.91 1364.14 1427.45 1363.29 1426.98C1358.18 1421.43 1350.94 1420.97 1344.98 1425.13C1341.57 1419.12 1337.74 1413.57 1333.48 1408.02ZM1132.91 1207.77C1127.8 1213.32 1127.8 1222.1 1132.91 1227.65C1138.02 1233.2 1146.11 1233.2 1151.22 1227.65C1152.08 1226.73 1152.5 1225.8 1153.35 1224.88C1164.42 1230.89 1175.5 1236.9 1186.57 1242.92C1184.44 1248 1185.29 1253.55 1189.12 1257.71C1193.81 1262.8 1201.9 1262.8 1206.58 1257.71C1210.84 1253.09 1211.27 1246.62 1208.28 1241.53C1244.05 1215.17 1280.25 1188.81 1316.02 1162.44C1316.44 1162.91 1316.87 1163.37 1317.3 1163.83C1319 1165.68 1320.7 1166.61 1322.41 1167.53C1316.44 1190.19 1302.39 1244.77 1280.25 1331.71C1274.29 1322.92 1267.9 1314.14 1261.94 1305.35C1262.36 1305.35 1262.36 1304.89 1262.79 1304.89C1267.47 1299.8 1267.47 1291.48 1262.79 1286.85C1258.11 1281.76 1250.44 1281.76 1246.18 1286.85C1241.93 1291.48 1241.5 1298.41 1244.91 1303.5C1237.24 1309.98 1225.32 1320.15 1209.14 1334.02L1208.71 1333.56C1203.6 1328.01 1195.51 1328.01 1190.4 1333.56C1185.29 1339.11 1185.29 1347.9 1190.4 1353.45C1195.51 1359 1203.6 1359 1208.71 1353.45C1213.39 1348.36 1213.82 1340.96 1209.99 1335.41C1226.6 1321.07 1238.52 1310.9 1245.76 1304.89L1246.18 1305.35C1250.44 1309.98 1256.4 1310.44 1261.09 1307.2C1267.47 1316.45 1273.86 1325.24 1280.25 1334.49C1276.84 1348.36 1273.01 1363.16 1268.75 1378.88C1268.33 1379.35 1267.9 1379.35 1267.47 1379.81C1263.22 1384.43 1262.36 1390.91 1264.07 1396.46C1261.51 1405.71 1259.38 1414.96 1256.83 1424.67C1243.63 1427.91 1229.58 1431.15 1214.67 1434.38C1214.25 1432.07 1212.97 1430.22 1211.69 1428.37C1206.58 1422.82 1198.92 1422.82 1193.81 1428.37C1188.7 1433.92 1188.7 1442.24 1193.81 1447.79C1198.92 1453.34 1206.58 1453.34 1211.69 1447.79C1214.67 1444.56 1215.95 1440.39 1215.1 1436.23C1229.58 1433 1243.63 1429.76 1256.4 1426.52C1252.57 1440.86 1248.74 1455.66 1244.91 1470.92C1240.65 1469.99 1235.54 1471.38 1232.13 1475.08C1226.6 1481.09 1226.6 1490.34 1232.13 1496.35C1237.67 1502.37 1246.18 1502.37 1251.72 1496.35C1257.25 1490.34 1257.25 1481.09 1251.72 1475.08C1250.02 1473.23 1248.31 1472.31 1246.18 1471.38C1250.02 1455.66 1254.27 1440.39 1257.68 1426.06C1286.64 1419.12 1310.91 1413.57 1331.35 1408.95C1335.61 1414.96 1339.44 1420.51 1343.7 1426.52C1343.27 1426.98 1342.85 1426.98 1342.85 1427.45C1337.31 1433.46 1337.31 1443.17 1342.85 1449.64C1344.12 1451.03 1345.83 1451.96 1347.53 1452.88C1343.27 1465.83 1335.61 1488.03 1325.39 1518.55C1320.7 1517.17 1315.17 1518.09 1311.33 1522.25C1305.8 1528.27 1305.8 1537.98 1311.33 1543.99C1316.87 1550 1325.81 1550 1331.35 1543.99C1336.88 1537.98 1336.88 1528.27 1331.35 1522.25C1330.07 1520.87 1328.37 1519.94 1327.09 1519.02C1337.31 1488.03 1344.98 1466.29 1349.23 1453.34C1353.92 1454.73 1359.45 1453.81 1363.71 1449.64C1367.12 1445.94 1368.4 1441.32 1367.54 1436.69C1390.96 1502.37 1406.29 1546.3 1413.96 1568.04C1412.68 1568.5 1411.4 1569.43 1410.13 1570.81C1405.02 1576.36 1405.02 1585.15 1410.13 1590.24C1415.24 1595.79 1423.33 1595.79 1428.01 1590.24C1433.12 1584.69 1433.12 1575.9 1428.01 1570.81C1425.88 1568.5 1422.9 1567.11 1420.35 1567.11C1421.2 1544.92 1422.05 1523.18 1422.9 1500.98C1426.31 1500.98 1429.71 1499.59 1432.27 1496.82C1436.95 1491.73 1437.38 1484.33 1433.97 1478.32C1441.64 1472.31 1449.3 1466.29 1456.97 1460.74C1459.1 1501.44 1462.08 1552.31 1465.48 1614.29C1462.5 1614.75 1459.95 1616.14 1457.39 1618.45C1452.28 1624 1452.28 1633.25 1457.39 1639.26C1462.5 1644.81 1471.02 1644.81 1476.56 1639.26C1481.67 1633.71 1481.67 1624.46 1476.56 1618.45C1474 1615.67 1470.59 1614.29 1466.76 1614.29C1463.36 1552.31 1460.37 1500.52 1458.25 1459.82C1463.36 1455.66 1468.47 1451.96 1473.58 1447.79C1474 1448.26 1474 1448.72 1474.43 1448.72C1479.11 1453.81 1487.2 1453.81 1491.89 1448.72C1496.57 1443.63 1496.57 1434.84 1491.89 1429.76L1491.46 1429.3C1495.72 1423.28 1501.68 1414.96 1509.77 1404.32C1515.31 1408.48 1522.55 1408.02 1527.23 1402.47C1532.77 1396.46 1532.77 1387.21 1527.23 1381.66C1521.69 1375.65 1513.18 1375.65 1508.07 1381.66C1502.53 1387.67 1502.53 1396.92 1508.07 1402.47C1508.07 1402.47 1508.49 1402.93 1508.92 1402.93C1500.83 1414.03 1494.87 1422.36 1490.61 1427.91C1485.92 1424.21 1479.11 1424.67 1474.85 1429.3C1470.59 1433.92 1470.17 1440.86 1473.15 1445.94C1468.04 1449.64 1463.36 1453.34 1458.25 1457.51C1455.26 1408.02 1453.56 1374.72 1452.71 1357.61C1455.26 1357.15 1458.25 1356.22 1459.95 1353.91C1464.21 1349.29 1464.63 1342.81 1462.08 1337.26C1471.02 1331.25 1485.5 1320.61 1505.51 1306.28C1505.94 1306.74 1506.36 1307.66 1507.22 1308.13C1513.18 1314.6 1522.97 1314.6 1528.51 1308.13C1534.47 1301.65 1534.47 1291.01 1528.51 1285C1522.55 1278.53 1512.75 1278.53 1507.22 1285C1502.11 1290.55 1501.68 1298.41 1505.09 1304.89C1485.07 1319.22 1470.59 1329.4 1461.65 1335.87C1461.23 1335.41 1460.8 1334.95 1460.37 1334.49C1455.26 1328.94 1447.6 1328.94 1442.49 1334.49C1437.38 1340.04 1437.38 1348.36 1442.49 1353.91C1445.04 1356.69 1448.03 1358.07 1451.43 1358.07C1452.28 1375.65 1454.41 1408.95 1456.97 1458.89C1448.88 1464.91 1441.21 1471.38 1433.12 1477.39C1432.7 1476.93 1432.7 1476.47 1432.27 1476.01C1426.73 1469.99 1418.22 1469.99 1413.11 1476.01C1407.57 1482.02 1407.57 1491.27 1413.11 1496.82C1415.24 1499.13 1418.22 1500.52 1421.62 1500.98C1420.77 1523.18 1419.92 1544.92 1419.07 1567.11C1417.79 1567.11 1416.51 1567.58 1415.66 1567.58C1408.42 1547.23 1389.26 1492.65 1357.32 1403.4C1372.23 1399.7 1383.73 1397.38 1391.82 1395.53C1392.24 1397.85 1393.52 1400.16 1395.22 1402.47C1400.76 1408.48 1409.7 1408.48 1415.24 1402.47C1420.77 1396.46 1420.77 1386.75 1415.24 1380.73C1412.68 1377.96 1409.28 1376.57 1405.87 1376.11C1404.59 1322.46 1403.31 1269.28 1402.46 1215.63C1405.44 1215.17 1408.42 1214.24 1410.55 1211.47C1415.66 1205.92 1415.66 1197.13 1410.55 1191.58C1407.57 1188.34 1404.17 1187.42 1400.33 1187.42C1395.22 1149.49 1390.11 1111.57 1385 1073.65C1387.56 1073.19 1390.11 1071.8 1391.82 1069.49C1396.93 1063.94 1396.93 1054.69 1391.82 1048.67C1386.71 1043.12 1378.19 1043.12 1372.65 1048.67C1371.38 1050.06 1370.95 1050.99 1370.1 1052.37C1356.05 1045.9 1330.5 1033.87 1293.02 1016.76C1294.73 1011.21 1293.88 1005.2 1289.62 1000.58C1284.08 994.564 1275.14 994.564 1269.6 1000.58C1264.07 1006.59 1264.07 1016.3 1269.6 1022.31C1275.14 1028.32 1284.08 1028.32 1289.62 1022.31C1290.9 1020.93 1291.75 1019.54 1292.17 1018.15C1329.65 1035.72 1355.62 1047.29 1369.25 1053.76C1367.54 1058.85 1368.4 1064.86 1372.23 1069.02C1375.21 1072.26 1379.04 1073.65 1382.87 1073.19C1387.98 1111.11 1393.09 1149.03 1398.2 1186.96C1395.65 1187.42 1393.52 1188.81 1391.82 1190.66C1386.71 1196.21 1386.71 1204.99 1391.82 1210.54C1394.37 1213.32 1397.35 1214.7 1400.33 1214.7C1401.61 1268.35 1402.89 1321.54 1403.74 1375.18C1400.33 1375.65 1397.35 1377.04 1394.8 1379.35C1391.39 1383.05 1390.11 1387.67 1390.96 1392.3C1382.87 1394.15 1371.38 1396.92 1356.05 1400.62C1350.94 1386.28 1345.4 1371.02 1339.87 1354.37C1341.14 1353.91 1342.42 1352.99 1343.27 1351.6C1347.96 1346.51 1347.96 1338.19 1343.27 1333.1C1338.59 1328.01 1330.92 1328.01 1326.24 1333.1C1321.55 1338.19 1321.55 1346.51 1326.24 1351.6C1329.65 1355.3 1334.33 1356.22 1338.16 1354.84C1343.7 1371.02 1349.23 1386.28 1354.34 1400.62C1347.53 1402.01 1339.87 1403.86 1331.77 1405.71C1314.74 1381.2 1297.71 1357.15 1281.1 1332.64C1302.82 1247.54 1316.87 1192.51 1323.68 1167.07C1327.94 1167.99 1333.05 1166.61 1336.46 1162.91C1341.99 1156.89 1341.99 1147.64 1336.46 1141.63C1330.92 1135.62 1322.41 1135.62 1316.87 1141.63C1312.19 1146.72 1311.76 1154.12 1314.74 1159.67C1278.97 1186.03 1242.78 1212.39 1207.01 1238.75C1206.58 1238.29 1206.58 1237.83 1206.16 1237.37C1201.47 1232.28 1193.38 1232.28 1188.7 1237.37C1187.85 1238.29 1187.42 1239.22 1186.99 1240.14C1175.92 1234.13 1164.85 1228.12 1153.78 1222.1C1155.48 1217.48 1155.06 1212.39 1152.5 1208.23C1162.72 1199.44 1181.03 1184.18 1207.86 1161.52L1208.28 1161.98C1213.39 1167.53 1221.49 1167.53 1226.6 1161.98C1231.71 1156.43 1231.71 1147.64 1226.6 1142.09C1221.49 1136.55 1213.39 1136.55 1208.28 1142.09C1203.6 1147.18 1203.17 1154.58 1207.01 1160.13C1181.03 1182.33 1162.3 1198.06 1151.65 1206.84C1151.65 1206.84 1151.22 1206.38 1151.22 1205.92C1146.54 1202.22 1138.02 1202.22 1132.91 1207.77ZM1282.8 1191.58C1278.12 1196.67 1278.12 1205.45 1282.8 1210.54C1287.49 1215.63 1295.58 1215.63 1300.26 1210.54C1304.95 1205.45 1304.95 1196.67 1300.26 1191.58C1295.15 1186.03 1287.49 1186.03 1282.8 1191.58ZM1528.93 810.497C1522.97 804.022 1513.6 804.022 1508.07 810.497C1502.11 816.971 1502.11 827.146 1508.07 833.158C1514.03 839.633 1523.4 839.633 1528.93 833.158C1534.47 827.146 1534.47 816.971 1528.93 810.497ZM1527.66 737.425C1532.77 731.875 1532.77 722.625 1527.66 717.076C1522.55 711.526 1514.03 711.526 1508.92 717.076C1503.81 722.625 1503.81 731.875 1508.92 737.425C1514.03 742.974 1522.55 742.974 1527.66 737.425ZM1455.69 954.79C1451.01 959.878 1451.01 968.202 1455.69 973.29C1460.37 978.377 1468.04 978.377 1472.72 973.29C1477.41 968.202 1477.41 959.878 1472.72 954.79C1468.04 949.703 1460.37 949.703 1455.69 954.79ZM1451.01 1048.67C1445.9 1054.22 1445.9 1063.01 1451.01 1068.56C1456.12 1074.11 1464.21 1074.11 1469.32 1068.56C1474.43 1063.01 1474.43 1054.22 1469.32 1048.67C1464.21 1043.12 1456.12 1043.12 1451.01 1048.67ZM1460.8 574.632C1455.26 580.644 1455.26 589.894 1460.8 595.906C1466.34 601.918 1474.85 601.918 1480.39 595.906C1485.92 589.894 1485.92 580.644 1480.39 574.632C1474.85 568.619 1466.34 568.619 1460.8 574.632ZM1457.82 765.174C1453.14 770.261 1453.14 778.586 1457.82 783.21C1462.5 788.298 1470.17 788.298 1474.43 783.21C1479.11 778.123 1479.11 769.798 1474.43 765.174C1469.74 760.549 1462.5 760.549 1457.82 765.174ZM1482.09 859.982C1477.41 854.895 1469.74 854.895 1465.06 859.982C1460.37 865.069 1460.37 873.394 1465.06 878.481C1469.74 883.569 1477.41 883.569 1482.09 878.481C1486.78 873.394 1486.78 865.069 1482.09 859.982ZM1484.65 1144.41C1479.96 1149.49 1479.96 1157.36 1484.65 1162.44C1488.48 1166.61 1493.59 1167.07 1498.27 1164.76C1502.53 1172.62 1506.36 1180.02 1510.62 1187.88C1509.77 1188.34 1508.92 1189.27 1508.49 1189.73C1503.38 1195.28 1502.96 1203.6 1506.79 1209.62C1495.29 1219.33 1483.8 1229.04 1471.87 1238.75C1471.87 1238.29 1471.45 1238.29 1471.45 1237.83C1466.34 1232.28 1457.82 1232.28 1452.71 1237.83C1447.6 1243.38 1447.6 1252.17 1452.71 1257.71C1445.47 1266.5 1437.81 1275.29 1430.57 1284.08C1428.44 1282.23 1425.46 1280.84 1422.48 1280.84C1421.62 1258.18 1420.35 1204.53 1417.79 1119.43C1420.77 1118.97 1423.33 1118.05 1425.88 1115.27C1430.99 1109.72 1430.99 1100.93 1425.88 1095.85C1420.77 1090.3 1412.68 1090.3 1408 1095.85C1402.89 1101.4 1402.89 1110.18 1408 1115.27C1410.55 1118.05 1413.53 1119.43 1416.51 1119.43C1419.07 1202.22 1420.35 1255.87 1421.2 1280.84C1418.22 1281.3 1415.24 1282.23 1413.11 1285C1408 1290.55 1408 1299.8 1413.11 1305.35C1418.22 1310.9 1426.73 1310.9 1431.84 1305.35C1436.95 1299.8 1436.95 1291.01 1431.84 1285C1439.08 1276.21 1446.75 1267.43 1453.99 1258.64C1459.1 1263.26 1466.76 1262.8 1471.45 1257.71C1476.13 1252.63 1476.56 1245.23 1473.15 1239.68C1484.65 1229.97 1496.14 1220.25 1508.07 1210.54C1508.49 1211 1508.49 1211 1508.92 1211.47C1514.45 1217.48 1523.4 1217.48 1528.93 1211.47C1534.47 1205.45 1534.47 1195.74 1528.93 1189.73C1524.25 1184.64 1517.86 1184.18 1512.33 1186.96C1508.07 1179.09 1504.23 1171.69 1499.98 1163.83C1500.4 1163.37 1501.25 1162.91 1501.68 1162.44C1506.36 1157.36 1506.36 1149.49 1501.68 1144.41C1501.25 1143.94 1500.4 1143.48 1499.98 1143.02C1502.96 1137.01 1507.64 1129.15 1513.18 1118.51C1517.86 1121.28 1523.82 1120.36 1527.66 1116.2C1532.77 1110.65 1532.77 1102.32 1527.66 1096.77C1522.55 1091.22 1514.88 1091.22 1509.77 1096.77C1504.66 1102.32 1504.66 1110.65 1509.77 1116.2C1510.2 1116.66 1511.05 1117.58 1511.9 1118.05C1506.36 1128.68 1501.68 1136.55 1498.7 1142.56C1493.59 1139.78 1488.48 1140.71 1484.65 1144.41ZM1426.73 1020.93C1431.42 1015.84 1431.42 1007.51 1426.73 1002.43C1422.05 997.339 1414.39 997.339 1409.7 1002.43C1405.02 1007.51 1405.02 1015.84 1409.7 1020.93C1414.39 1026.01 1422.05 1026.01 1426.73 1020.93ZM1527.66 1001.5C1522.55 995.951 1514.45 995.951 1509.34 1001.5C1504.23 1007.05 1504.23 1015.84 1509.34 1021.39C1514.45 1026.94 1522.55 1026.94 1527.66 1021.39C1532.77 1015.84 1532.77 1007.05 1527.66 1001.5ZM1526.38 925.654C1531.06 920.567 1531.06 912.705 1526.38 907.617C1521.69 902.53 1514.45 902.53 1509.77 907.617C1505.09 912.705 1505.09 920.567 1509.77 925.654C1514.45 930.742 1522.12 930.742 1526.38 925.654ZM1374.36 950.628C1371.8 918.255 1370.1 895.593 1369.25 882.644C1371.8 882.181 1374.36 881.256 1376.06 878.944C1380.74 873.856 1380.74 865.069 1376.06 859.982C1371.38 854.895 1363.29 854.895 1358.6 859.982C1357.32 861.37 1356.47 862.757 1356.05 864.144C1323.26 851.195 1290.47 838.708 1257.26 825.759C1258.53 821.134 1257.68 815.584 1253.85 811.884C1248.74 806.334 1240.22 806.334 1235.11 811.884C1230 817.434 1230 826.683 1235.11 832.233C1239.37 836.858 1245.76 837.783 1250.87 834.546C1258.96 848.42 1273.44 872.006 1294.3 906.23C1293.88 906.693 1293.45 907.155 1293.02 907.617C1288.34 912.705 1288.34 921.492 1293.02 926.579C1297.71 931.667 1305.8 931.667 1310.48 926.579C1315.17 921.492 1315.17 912.705 1310.48 907.617C1306.23 902.993 1300.26 902.53 1295.58 905.305C1273.86 869.694 1259.81 845.645 1252.15 833.621C1252.57 833.158 1253 832.696 1253.42 832.233C1254.7 830.846 1255.55 829.458 1256.4 827.608C1289.19 840.558 1321.98 853.045 1355.2 865.532C1353.92 870.157 1355.2 875.244 1358.18 878.481C1360.73 881.256 1363.71 882.644 1367.12 882.181C1367.97 895.131 1369.67 917.792 1372.23 950.166C1369.67 950.628 1367.12 951.553 1365.42 953.866C1360.73 958.953 1360.73 967.74 1365.42 972.827C1370.1 977.915 1378.19 977.915 1382.87 972.827C1387.56 967.74 1387.56 958.953 1382.87 953.866C1380.74 952.016 1377.34 950.628 1374.36 950.628ZM1359.88 1237.37C1354.34 1231.35 1345.4 1231.35 1339.87 1237.37C1334.33 1243.38 1334.33 1253.09 1339.87 1259.1C1345.4 1265.11 1354.34 1265.11 1359.88 1259.1C1365.42 1253.09 1365.42 1243.38 1359.88 1237.37ZM935.33 1261.88C934.904 1262.34 934.904 1263.26 935.33 1263.73C935.755 1264.19 936.607 1264.19 937.033 1263.73C937.459 1263.26 937.459 1262.34 937.033 1261.88C936.607 1261.41 935.755 1261.41 935.33 1261.88ZM886.359 1182.33C883.805 1185.11 883.805 1188.81 886.359 1191.58C888.914 1194.36 892.321 1194.36 894.876 1191.58C897.431 1188.81 897.431 1185.11 894.876 1182.33C892.321 1180.02 888.489 1180.02 886.359 1182.33ZM710.493 1227.65C709.641 1228.58 709.641 1229.97 710.493 1230.43C711.344 1231.35 712.622 1231.35 713.048 1230.43C713.899 1229.5 713.899 1228.12 713.048 1227.65C712.622 1226.73 711.344 1226.73 710.493 1227.65ZM612.127 1294.71C611.701 1295.18 611.701 1296.1 612.127 1296.56C612.553 1297.03 613.404 1297.03 613.83 1296.56C614.256 1296.1 614.256 1295.18 613.83 1294.71C613.404 1294.25 612.553 1294.25 612.127 1294.71ZM613.404 1096.31C614.682 1097.7 617.237 1097.7 618.514 1096.31C619.792 1094.92 619.792 1092.15 618.514 1090.76C617.237 1089.37 614.682 1089.37 613.404 1090.76C612.127 1092.15 612.127 1094.92 613.404 1096.31ZM273.168 1079.66C271.039 1081.97 271.039 1085.67 273.168 1087.98C275.297 1090.3 278.704 1090.3 280.833 1087.98C282.962 1085.67 282.962 1081.97 280.833 1079.66C278.704 1077.35 275.297 1077.35 273.168 1079.66ZM3.61953 918.255C4.47119 917.33 4.47119 915.942 3.61953 915.017C2.76788 914.092 1.4904 914.092 0.638741 915.017C-0.212914 915.942 -0.212914 917.33 0.638741 918.255C1.4904 918.717 3.1937 918.717 3.61953 918.255ZM49.183 962.653C45.3506 966.815 45.3506 973.29 49.183 976.99C53.0155 981.152 58.9771 981.152 62.3837 976.99C66.2161 972.827 66.2161 966.353 62.3837 962.653C58.5513 958.49 52.5897 958.49 49.183 962.653ZM261.245 739.737H262.097V738.812H261.245V739.737ZM414.543 762.861C415.395 761.936 415.395 761.011 414.543 760.086C413.691 759.161 412.84 759.161 411.988 760.086C411.136 761.011 411.136 761.936 411.988 762.861C412.84 763.786 413.691 763.786 414.543 762.861ZM615.107 873.856C612.552 871.082 607.868 871.082 604.888 873.856C602.333 876.631 602.333 881.719 604.888 884.956C607.443 887.731 612.127 887.731 615.107 884.956C617.662 881.719 617.662 877.094 615.107 873.856ZM618.088 795.697C618.94 794.772 618.94 793.385 618.088 792.46C617.237 791.535 615.959 791.535 615.107 792.46C614.256 793.385 614.256 794.772 615.107 795.697C615.533 796.622 617.237 796.622 618.088 795.697ZM618.088 751.299C619.792 749.449 619.792 747.137 618.088 745.287C616.385 743.437 614.256 743.437 612.553 745.287C610.849 747.137 610.849 749.449 612.553 751.299C614.256 752.687 616.811 752.687 618.088 751.299ZM619.366 594.056C621.495 591.744 621.495 588.044 619.366 585.731C617.237 583.419 613.83 583.419 611.701 585.731C609.572 588.044 609.572 591.744 611.701 594.056C613.83 596.368 617.237 596.368 619.366 594.056ZM792.252 754.537C794.381 752.224 794.381 748.062 792.252 745.287C790.122 742.975 786.29 742.975 783.735 745.287C781.606 747.599 781.606 751.762 783.735 754.537C786.29 757.311 790.122 757.311 792.252 754.537ZM996.649 381.777C997.075 381.315 997.075 379.928 996.649 379.465C996.223 379.003 994.945 379.003 994.52 379.465C994.094 379.928 994.094 381.315 994.52 381.777C994.945 382.702 995.797 382.702 996.649 381.777ZM305.531 1000.58C306.383 999.651 306.383 997.801 305.531 996.414C304.679 995.489 302.976 995.489 301.699 996.414C300.847 997.339 300.847 999.189 301.699 1000.58C302.976 1001.5 304.679 1001.5 305.531 1000.58ZM1026.03 1101.86C1022.2 1106.02 1022.2 1112.5 1026.03 1116.66C1029.86 1120.82 1035.82 1120.82 1039.66 1116.66C1043.49 1112.5 1043.49 1106.02 1039.66 1101.86C1035.82 1097.7 1029.44 1097.7 1026.03 1101.86ZM938.736 1104.17C935.755 1107.41 935.755 1112.03 938.736 1115.27C941.717 1118.51 945.975 1118.51 948.956 1115.27C951.937 1112.03 951.937 1107.41 948.956 1104.17C946.401 1100.93 941.717 1100.93 938.736 1104.17ZM959.176 946.003C961.305 943.691 961.305 939.529 959.176 937.216C957.047 934.904 953.214 934.904 951.085 937.216C948.956 939.529 948.956 943.691 951.085 946.003C953.64 948.316 957.047 948.316 959.176 946.003ZM1050.3 869.232C1027.31 907.617 1000.91 952.016 971.099 1002.43C951.937 982.539 933.201 962.653 914.038 942.766C936.607 921.029 959.176 899.755 981.745 878.019C986.855 883.569 994.945 883.569 1000.06 878.019C1002.18 875.706 1003.46 872.469 1003.89 869.232C1019.64 869.232 1034.97 869.232 1050.3 869.232ZM970.673 1003.81C963.434 1016.3 955.769 1029.25 947.679 1042.2C943.846 1039.89 939.162 1040.35 935.755 1044.05C931.923 1048.21 931.923 1055.15 935.755 1059.31C939.588 1063.47 945.975 1063.47 949.808 1059.31C953.64 1055.15 953.64 1048.21 949.808 1044.05C949.382 1043.59 948.956 1043.59 948.53 1043.12C956.195 1030.17 963.86 1017.23 971.099 1004.74C1002.18 1037.57 1033.7 1069.95 1064.78 1102.78C1054.56 1141.63 1044.34 1180.48 1033.7 1219.79C1030.71 1219.33 1027.73 1219.79 1025.6 1222.1C1025.18 1222.57 1024.75 1223.49 1024.33 1224.42C1002.61 1213.32 980.893 1202.22 959.602 1191.58C961.305 1187.42 960.453 1182.33 957.047 1178.63C952.788 1174.01 945.549 1174.01 941.291 1178.63C940.865 1179.09 940.865 1179.56 940.44 1180.02C891.044 1145.33 841.222 1110.18 791.826 1075.5C793.103 1072.26 793.103 1068.56 790.548 1065.79C788.845 1063.94 786.716 1063.47 784.587 1063.47C783.309 1056.07 780.754 1043.59 777.348 1025.55C817.375 1010.75 842.499 1001.04 853.145 997.339C853.571 997.801 853.571 998.726 854.422 999.189C856.977 1001.96 860.81 1001.96 862.939 999.189C865.068 996.876 865.068 993.639 863.791 990.864C880.398 975.14 896.579 959.415 913.187 943.691C932.349 963.578 951.511 983.927 970.673 1003.81ZM912.335 942.766C896.153 958.49 879.546 974.215 863.365 989.939C860.81 987.627 857.403 987.627 854.848 990.401C853.145 992.251 852.719 994.101 853.145 996.414C842.925 1000.11 817.375 1009.83 777.348 1024.62C775.219 1013.99 773.089 1001.96 770.109 987.627C812.691 920.567 836.964 882.644 842.499 873.394C843.351 873.856 844.628 873.857 845.48 872.932C868.049 896.056 890.192 919.642 912.335 942.766ZM776.07 1025.09C764.573 1029.25 751.372 1034.34 737.32 1039.42C748.817 1021.39 759.463 1004.74 769.257 989.477C771.812 1002.89 773.941 1014.91 776.07 1025.09ZM509.928 890.506C509.928 890.968 510.354 891.431 510.354 891.893C489.914 904.843 469.049 917.792 448.609 930.742C453.293 916.867 458.403 902.53 463.087 888.656C479.269 889.581 495.024 890.043 509.928 890.506ZM445.628 934.441C429.021 982.539 412.414 1030.17 395.806 1078.27C394.103 1077.81 391.974 1078.27 390.271 1079.66C390.271 1079.66 390.271 1080.12 389.845 1080.12C374.941 1069.49 314.899 1027.4 208.868 952.941C239.528 937.216 259.542 927.042 269.336 921.954C269.762 922.417 269.762 923.342 270.613 923.804C273.594 927.042 278.704 927.042 281.685 923.804C282.536 922.879 282.962 921.954 283.388 921.029C318.732 933.516 354.075 946.003 389.419 958.49C388.567 962.653 389.419 967.277 392.4 970.977C397.084 976.065 404.323 976.065 409.007 970.977C412.84 966.815 413.265 960.803 411.136 956.178C422.634 948.778 434.131 941.841 445.628 934.441ZM1110.34 1230.43C1107.79 1260.95 1105.23 1291.94 1102.68 1322.46C1099.27 1322.46 1095.87 1323.85 1093.31 1326.62C1088.2 1332.17 1088.2 1340.5 1093.31 1346.05C1060.52 1384.43 1027.73 1423.28 995.371 1461.67C994.945 1461.67 994.945 1461.21 994.52 1461.21C1003.04 1444.09 1041.36 1366.86 1110.34 1230.43ZM1156.33 667.128C1145.69 651.403 1125.25 621.805 1095.01 577.869C1095.44 577.869 1095.44 577.407 1095.87 577.407C1100.12 572.782 1100.12 564.92 1095.87 559.832C1091.61 555.208 1084.37 555.208 1079.69 559.832C1075 564.457 1075.43 572.319 1079.69 577.407C1083.52 581.569 1089.48 582.031 1093.74 578.794C1124.4 623.192 1144.84 653.253 1155.06 668.515C1154.63 668.978 1154.2 668.978 1154.2 669.44C1148.67 675.452 1148.67 685.164 1154.2 691.177C1154.63 691.639 1155.48 692.102 1155.91 692.564C1143.56 713.376 1115.03 761.474 1070.74 835.933C1070.32 835.471 1069.47 835.008 1069.04 835.008C1075.43 817.434 1089.9 779.973 1111.2 722.625C1115.88 724.475 1120.99 723.088 1124.4 719.388C1129.51 713.838 1129.51 705.051 1124.4 699.501C1119.29 693.952 1111.2 693.952 1106.09 699.501C1100.98 705.051 1100.98 713.838 1106.09 719.388C1106.94 720.313 1108.22 721.238 1109.49 722.163C1087.35 781.823 1072.87 819.284 1067.34 834.546C1065.63 834.083 1063.5 834.083 1061.8 834.546C1044.34 777.198 1026.46 719.388 1009 662.041C1010.28 661.578 1011.55 660.653 1012.83 659.266C1017.09 654.641 1017.09 646.779 1012.83 642.154C1008.57 637.529 1001.33 637.529 997.075 642.154C994.52 644.929 993.668 648.629 994.094 651.866C975.357 655.566 956.621 659.266 937.885 662.965C937.459 661.116 936.607 659.266 935.33 657.878C931.497 653.716 925.11 653.716 920.851 657.878C917.019 662.04 917.019 668.978 920.851 673.603C922.981 675.915 925.961 676.84 928.516 676.84C930.646 692.564 935.33 725.4 941.717 774.423C940.44 774.886 938.736 775.348 937.885 776.736C934.478 780.435 934.478 785.985 937.885 789.223C941.291 792.922 946.401 792.922 949.382 789.223C952.363 785.523 952.789 779.973 949.382 776.736C947.679 774.886 945.549 773.961 942.994 774.423C936.181 724.475 931.497 692.102 929.794 676.84C931.497 676.377 933.2 675.452 934.904 674.065C937.033 671.753 937.885 668.515 937.459 665.278C956.195 661.578 974.932 657.878 993.668 654.178C994.094 656.028 994.945 658.341 996.223 659.728C999.204 662.966 1003.04 663.89 1006.87 662.503C1024.33 719.851 1042.21 777.661 1059.67 835.008C1058.39 835.471 1057.54 836.396 1056.26 837.32C1052.43 841.483 1052.43 848.42 1056.26 852.582C1057.12 853.507 1057.97 853.97 1058.82 854.432C1056.26 859.057 1053.28 863.682 1050.3 868.307C1034.55 868.307 1018.79 868.307 1003.04 867.844C1003.04 864.607 1001.76 861.37 999.204 858.595C994.094 853.045 986.003 853.045 980.893 858.595C976.209 863.682 975.783 871.544 980.042 877.094C957.473 898.83 934.904 920.567 912.335 941.841C890.192 918.717 868.049 895.131 845.906 872.007C846.758 870.619 846.758 868.769 845.48 867.382C844.203 865.994 842.073 865.994 840.796 867.382C839.518 868.769 839.518 871.082 840.796 872.469C833.557 883.569 809.711 921.029 769.257 985.314C762.87 951.553 754.353 908.08 744.133 854.895C784.587 803.559 825.04 752.687 865.068 701.351C868.901 704.589 874.862 704.589 878.269 700.426C882.101 696.264 882.101 688.864 878.269 684.702C876.991 683.315 874.862 682.39 873.159 681.927C876.991 652.328 880.824 622.267 884.656 592.669C886.359 592.669 888.063 592.206 889.34 590.819C891.895 588.044 891.895 583.419 889.34 580.644C888.489 579.719 887.637 579.257 886.785 578.794C888.914 566.77 894.024 539.946 902.115 496.935C901.689 496.935 901.689 496.935 901.263 496.935C902.115 496.01 902.115 494.16 901.263 493.235C900.412 492.31 898.708 492.31 897.857 493.235C897.005 494.16 897.005 496.01 897.857 496.935C898.708 497.86 899.56 497.86 900.412 497.398C892.747 539.946 887.637 566.77 885.508 578.794C883.805 578.794 881.675 579.257 880.398 580.644C877.843 583.419 877.843 588.044 880.398 590.819C881.25 591.744 882.527 592.206 883.379 592.669C879.546 622.73 875.714 652.328 871.881 681.927C868.901 681.927 865.92 682.852 863.791 685.165C859.958 689.327 859.958 696.727 863.791 700.889C823.763 751.762 783.735 802.634 743.707 853.045C734.339 804.947 723.693 749.449 711.344 685.627C712.622 685.165 713.474 684.702 714.751 683.777C717.732 680.54 717.732 674.99 714.751 671.753C711.77 668.515 706.66 668.515 703.68 671.753C700.699 674.99 700.699 680.54 703.68 683.777C705.383 685.627 707.938 686.552 710.067 686.089C722.416 750.374 733.487 806.334 742.856 854.895C734.339 865.532 726.248 876.169 717.732 886.806C712.196 882.181 704.531 882.644 699.421 888.193C696.866 890.968 695.589 894.206 695.589 897.443C671.743 896.518 615.107 894.206 525.684 890.506C526.11 887.731 525.258 884.956 523.555 882.644C520.148 878.944 515.038 878.944 511.631 882.644C509.928 884.494 509.076 887.268 509.502 890.043C495.024 889.581 479.694 888.656 463.513 888.193C482.249 834.083 500.986 779.973 519.722 725.4C521.851 725.863 524.406 725.4 526.535 723.55C529.09 720.775 529.09 715.688 526.535 712.913C523.98 710.138 519.296 710.138 516.741 712.913C514.186 715.688 514.186 720.313 516.316 723.55C480.12 767.486 444.351 810.959 408.155 854.895C406.026 853.045 402.62 853.507 400.491 855.357C400.065 855.82 399.639 856.745 399.213 857.207C379.625 850.732 304.254 825.759 172.673 782.285C173.099 779.51 172.673 776.736 170.544 774.886C167.563 771.648 162.879 771.648 159.898 774.886C156.917 778.123 156.917 783.21 159.898 786.448C162.879 789.685 167.563 789.685 170.544 786.448C171.395 785.523 171.821 784.598 172.247 783.673C302.55 826.683 377.922 851.657 398.787 858.595C398.361 860.445 398.787 862.757 400.491 864.144C402.62 866.457 406.452 866.457 409.007 864.144C411.136 861.832 411.136 858.132 409.433 855.357C445.628 811.422 481.398 767.948 517.593 724.013C518.019 724.013 518.019 724.475 518.445 724.475C499.708 779.048 480.972 833.158 462.236 887.731C383.032 884.493 285.091 880.794 168.415 875.706C170.118 873.394 170.118 870.157 167.989 867.844C165.86 865.532 162.453 865.532 160.324 867.844C158.195 870.157 158.195 873.856 160.324 876.169C160.324 876.631 160.324 876.631 160.324 877.094C160.75 877.094 161.176 877.094 161.601 877.094C163.305 878.019 165.008 878.019 166.711 877.094C284.24 881.719 382.606 885.881 461.81 889.118C456.7 903.455 452.016 918.255 446.906 932.591C434.983 939.991 423.059 947.391 411.136 955.253C410.71 954.791 410.285 953.866 409.859 953.403C405.175 948.316 397.936 948.316 393.251 953.403C391.974 954.791 391.122 956.178 390.697 957.565C355.353 945.078 320.009 932.591 284.666 920.104C285.091 917.33 284.666 914.092 282.536 912.242C279.556 909.005 274.446 909.005 271.465 912.242C269.336 914.555 268.484 918.255 269.762 921.492C259.542 926.579 239.528 937.216 208.868 952.941C166.286 923.342 116.464 888.193 59.4029 847.958C60.2546 846.108 59.8287 843.795 58.5513 841.945C56.8479 840.095 53.4413 840.095 51.738 841.945C50.0347 843.795 50.0347 847.495 51.738 849.345C53.4413 851.195 56.8479 851.195 58.5513 849.345C58.5513 849.345 58.5513 849.345 58.5513 848.883C115.186 888.656 164.582 923.342 207.165 952.941C193.538 959.878 177.357 968.202 159.472 977.452C159.046 976.527 158.621 976.065 158.195 975.14C154.788 971.44 148.827 971.44 145.42 975.14C142.013 978.839 142.013 985.314 145.42 989.014C148.827 992.714 154.788 992.714 158.195 989.014C160.75 986.239 161.601 982.077 160.324 978.84C178.635 969.59 194.816 961.265 208.868 953.866C312.77 1026.94 373.238 1069.49 390.697 1081.51C389.845 1083.82 389.845 1086.6 391.974 1088.45C394.103 1090.76 397.936 1090.76 400.065 1088.45C402.194 1086.13 402.194 1081.97 400.065 1079.66C399.639 1079.2 399.213 1078.74 398.787 1078.74C415.395 1030.17 432.428 981.614 449.035 933.054C470.326 919.642 491.192 906.693 512.483 893.281C512.909 893.743 512.909 894.206 513.335 894.668C516.316 897.905 521.426 897.905 524.406 895.131C547.827 920.567 570.821 945.541 594.242 970.977C592.539 973.29 591.687 976.527 592.539 979.302C581.041 984.389 555.066 995.026 514.186 1012.6C514.186 1011.68 513.761 1010.75 513.335 1010.29C511.631 1008.44 509.502 1008.44 507.799 1010.29C506.096 1012.14 506.096 1014.45 507.799 1016.3C507.799 1016.76 507.799 1016.76 508.225 1017.23H508.651C509.928 1018.15 512.057 1018.15 513.335 1016.76C513.761 1016.3 514.186 1015.38 514.186 1014.91C554.214 997.801 580.19 986.702 592.964 981.614C593.39 982.539 593.816 983.464 594.668 983.927C598.074 987.627 603.61 987.627 606.591 983.927C609.998 980.227 609.998 974.215 606.591 970.977C603.61 967.74 598.5 967.277 595.094 970.515C572.099 945.078 548.678 920.104 525.684 894.668C526.11 893.743 526.961 892.818 526.961 891.893C615.959 895.593 672.594 897.905 696.866 898.83C696.866 902.53 698.144 906.23 701.125 909.467C706.66 915.48 715.177 915.48 720.713 909.467C726.248 903.455 726.248 894.206 720.713 888.193C720.713 888.193 720.713 888.193 720.287 888.193C728.378 878.019 736.468 867.844 744.559 857.67C754.779 911.317 763.295 954.791 769.683 988.552C759.463 1004.74 748.391 1022.31 736.042 1041.74C724.545 1045.9 712.196 1050.52 699.421 1055.61C699.421 1055.15 698.995 1054.69 698.57 1054.22C696.866 1052.37 694.737 1052.37 693.034 1054.22C692.182 1055.15 691.756 1057 692.182 1058.39C647.47 1075.04 593.39 1095.38 530.794 1118.97C530.368 1118.05 529.942 1117.12 529.516 1116.66C526.535 1113.42 521.851 1113.42 518.871 1116.66C515.89 1119.9 515.89 1124.98 518.871 1128.22C521.851 1131.46 526.535 1131.46 529.516 1128.22C531.22 1126.37 532.071 1123.13 531.219 1120.82C593.816 1097.23 647.896 1076.89 692.608 1060.24V1060.7C694.311 1062.55 696.44 1062.55 698.144 1060.7C698.995 1059.77 699.421 1058.85 699.421 1057.92C711.77 1053.3 723.693 1048.67 734.339 1044.97C704.531 1092.15 668.336 1148.57 626.605 1215.17C624.05 1213.78 620.643 1213.78 618.088 1216.55C615.108 1219.79 615.108 1224.42 618.088 1227.65C621.069 1230.89 625.327 1230.89 628.308 1227.65C631.289 1224.42 631.289 1219.79 628.308 1216.55C628.308 1216.55 627.882 1216.55 627.882 1216.09C670.465 1149.03 706.66 1091.68 736.894 1044.05C751.798 1038.5 764.999 1033.41 777.348 1028.79C780.754 1046.36 783.309 1058.85 784.587 1066.25C783.309 1066.71 782.458 1067.17 781.606 1068.1C778.625 1071.34 778.625 1076.42 781.606 1079.66C784.587 1082.9 789.271 1082.9 792.252 1079.66C792.252 1079.66 792.677 1079.2 792.677 1078.74C842.073 1113.42 891.895 1148.57 941.291 1183.26C939.162 1187.88 939.588 1193.43 942.994 1197.59C947.253 1202.22 954.492 1202.22 958.75 1197.59C959.602 1196.67 960.028 1195.74 960.453 1194.82C982.171 1205.92 1003.89 1217.02 1025.18 1227.65C1023.9 1230.89 1024.75 1235.05 1027.31 1237.83C1030.71 1241.53 1036.25 1241.53 1040.08 1237.83C1043.49 1234.13 1043.49 1228.12 1040.08 1223.95C1039.23 1223.03 1037.95 1222.1 1037.1 1221.64C1047.32 1182.79 1057.54 1144.41 1067.76 1105.56C1081.39 1119.9 1094.59 1133.77 1108.22 1148.11C1103.53 1153.66 1103.96 1162.44 1108.64 1167.53C1110.77 1169.84 1113.33 1171.23 1116.31 1171.69C1114.6 1190.19 1113.33 1209.15 1111.62 1227.65C1049.03 1352.52 1009.85 1430.22 994.094 1461.67C990.261 1459.82 985.577 1460.28 982.596 1463.98C978.764 1468.14 978.764 1475.54 982.596 1479.71C986.429 1483.87 993.242 1483.87 997.075 1479.71C1000.91 1475.54 1000.91 1468.61 997.075 1464.44C1029.86 1426.06 1062.65 1387.21 1095.01 1348.82C1100.12 1353.45 1107.36 1352.99 1112.05 1347.9C1117.16 1342.35 1117.16 1333.56 1112.05 1328.47C1109.92 1326.16 1107.36 1325.24 1104.81 1324.77C1107.36 1292.86 1109.92 1260.95 1112.47 1228.58C1135.04 1183.72 1161.02 1132.38 1189.97 1074.57C1195.51 1077.35 1201.9 1076.42 1206.16 1071.8C1211.69 1065.79 1211.69 1056.07 1206.16 1049.6C1200.62 1043.59 1191.68 1043.59 1185.72 1049.6C1180.18 1055.61 1180.18 1065.32 1185.72 1071.8C1186.57 1072.72 1187.42 1073.19 1188.27 1074.11C1160.17 1130.07 1135.04 1180.48 1112.47 1224.88C1113.75 1207.3 1115.45 1190.19 1116.73 1172.62C1120.14 1172.62 1123.97 1171.23 1126.53 1168.46C1131.64 1162.91 1131.64 1153.66 1126.53 1148.11C1121.42 1142.56 1113.33 1142.56 1108.22 1147.64C1094.59 1133.31 1080.96 1118.97 1067.34 1104.63C1072.02 1086.6 1076.7 1068.56 1081.81 1050.52C1086.5 1051.45 1091.61 1050.52 1095.01 1046.36C1100.12 1040.81 1100.55 1032.49 1096.29 1026.47C1107.36 1016.76 1126.53 1000.11 1154.2 976.065L1154.63 976.527C1160.17 982.539 1168.68 982.539 1173.79 976.527C1179.33 970.515 1179.33 961.265 1173.79 955.716C1168.26 949.703 1159.74 949.703 1154.63 955.716C1149.95 960.803 1149.52 969.127 1153.35 974.677C1126.1 998.726 1106.51 1015.38 1095.44 1025.09L1095.01 1024.62C1089.48 1018.61 1080.54 1018.61 1075 1024.62C1069.47 1030.64 1069.47 1040.35 1075 1046.36C1076.7 1048.21 1078.41 1049.14 1080.54 1050.06C1075.85 1067.64 1071.17 1085.67 1066.48 1103.25C1035.4 1070.87 1004.31 1038.04 973.228 1005.66C1003.46 954.791 1029.86 910.392 1052.86 871.544C1083.94 871.544 1115.03 872.007 1146.54 872.007C1146.54 875.244 1147.82 878.019 1149.95 880.331C1153.78 884.493 1159.74 885.418 1164.42 882.181C1179.75 907.155 1224.04 978.839 1296.86 1096.31C1296.43 1096.77 1296.01 1097.23 1295.58 1097.7C1290.47 1103.25 1290.47 1112.5 1295.58 1118.51C1300.69 1124.06 1309.21 1124.06 1314.74 1118.51C1319.85 1112.96 1319.85 1103.71 1314.74 1097.7C1310.48 1093.07 1303.67 1092.15 1298.56 1095.38C1226.17 978.377 1181.88 907.155 1166.13 881.256C1166.55 880.794 1166.98 880.794 1167.41 880.331C1172.09 875.244 1172.09 866.919 1167.41 861.832C1162.72 856.745 1155.06 856.745 1150.37 861.832C1148.24 864.144 1146.97 866.919 1146.97 870.157C1116.31 870.157 1085.22 869.694 1054.56 869.694C1057.12 865.069 1060.1 860.907 1062.65 856.282C1066.06 857.67 1069.89 856.745 1072.87 853.507C1076.7 849.345 1076.7 842.87 1073.3 838.708C1117.58 764.711 1146.11 716.613 1158.89 695.339C1164.42 698.576 1171.24 698.114 1175.92 693.027C1181.46 687.014 1181.46 677.302 1175.92 671.29C1169.11 663.428 1161.87 662.965 1156.33 667.128ZM1015.81 736.5C1014.53 737.887 1014.53 739.737 1015.81 740.662C1017.09 742.05 1018.79 742.05 1019.64 740.662C1020.92 739.275 1020.92 737.425 1019.64 736.5C1018.37 735.575 1016.66 735.575 1015.81 736.5ZM899.986 868.769H900.838V867.844H899.986V868.769ZM520.574 767.948C521.426 767.486 521.426 766.099 520.574 765.636C519.722 765.174 518.871 765.174 518.445 765.636C517.593 766.561 517.593 767.486 518.445 767.948C519.296 768.873 520.148 768.873 520.574 767.948ZM276.575 821.596H275.297V822.984H276.575V821.596ZM744.133 903.918C743.281 904.843 743.281 906.23 744.133 907.155C744.985 908.08 746.262 908.08 747.114 907.155C747.966 906.23 747.966 904.843 747.114 903.918C746.262 902.993 744.985 902.993 744.133 903.918ZM1069.89 968.202C1070.74 967.277 1070.74 965.89 1069.89 964.965C1069.04 964.04 1067.76 964.04 1066.91 964.965C1066.06 965.89 1066.06 967.277 1066.91 968.202C1067.34 969.127 1069.04 969.127 1069.89 968.202ZM1226.6 595.906C1232.13 589.894 1232.13 580.644 1226.6 574.632C1223.61 571.394 1220.21 570.007 1216.38 570.469C1215.95 562.607 1215.1 552.433 1213.82 539.946C1216.38 539.483 1218.93 538.558 1220.63 536.246C1225.32 531.159 1225.32 522.371 1220.63 517.284C1215.95 512.197 1207.86 512.197 1203.17 517.284C1198.49 522.371 1198.49 531.159 1203.17 536.246C1205.73 539.021 1208.71 540.408 1212.12 539.946C1212.97 553.358 1213.82 563.532 1214.67 570.469C1213.39 570.469 1212.12 570.932 1210.84 571.857C1200.19 549.195 1189.12 526.534 1178.48 504.335C1179.33 503.872 1180.61 502.947 1181.46 502.022C1186.99 496.01 1186.99 486.298 1181.46 480.286C1179.33 477.973 1176.35 476.586 1173.79 476.123C1175.07 463.174 1177.2 441.437 1180.18 411.376C1184.01 411.376 1187.42 409.989 1190.4 407.214C1195.51 401.664 1195.51 392.415 1190.4 386.402C1185.29 380.853 1176.77 380.853 1171.24 386.402C1166.13 391.952 1166.13 401.202 1171.24 407.214C1173.37 409.526 1175.92 410.914 1178.48 411.376C1175.5 441.437 1173.37 463.174 1172.09 476.123C1168.26 476.123 1164 477.511 1161.02 480.748C1155.48 486.76 1155.48 496.473 1161.02 502.485C1165.28 507.11 1171.66 508.035 1177.2 505.722C1187.84 528.384 1198.92 551.045 1209.56 573.244C1208.71 573.707 1207.43 574.632 1207.01 575.557C1201.47 581.569 1201.47 590.819 1207.01 596.831C1212.54 602.843 1221.06 601.456 1226.6 595.906ZM1308.35 452.537C1313.46 446.987 1313.46 438.663 1308.35 433.113C1304.52 428.95 1298.99 428.025 1294.3 430.338C1287.91 417.388 1276.84 393.802 1260.24 359.116C1261.09 358.653 1261.94 358.191 1262.36 357.266C1267.05 352.179 1267.05 343.854 1262.36 338.767C1257.68 333.68 1250.02 333.68 1245.33 338.767C1240.65 343.854 1240.65 352.179 1245.33 357.266C1249.16 361.428 1254.27 361.891 1258.96 360.041C1275.57 394.264 1286.64 417.851 1293.02 431.263C1292.17 431.725 1291.32 432.65 1290.47 433.113C1285.36 438.663 1285.36 446.987 1290.47 452.537C1293.02 455.312 1296.43 456.699 1300.26 456.699C1302.82 479.361 1304.95 502.022 1307.5 525.146C1305.37 525.609 1302.82 526.996 1301.12 528.846C1296.43 533.933 1296.43 542.258 1301.12 547.345C1302.39 548.733 1304.1 549.658 1305.8 550.583C1300.26 573.244 1286.21 627.355 1264.92 712.913C1260.66 711.988 1255.55 713.376 1252.15 717.076C1246.61 723.088 1246.61 732.338 1252.15 738.35C1257.68 744.362 1266.2 744.362 1271.73 738.35C1277.27 732.338 1277.27 723.088 1271.73 717.076C1270.03 715.226 1268.33 714.301 1266.2 713.376C1287.91 627.817 1301.54 573.707 1307.08 551.045C1310.91 551.97 1315.17 550.583 1318.15 547.345C1322.83 542.258 1322.83 533.933 1318.15 528.846C1315.59 526.071 1312.19 524.684 1309.21 525.146C1306.65 502.485 1304.52 479.823 1301.97 456.699C1304.1 455.774 1306.65 454.849 1308.35 452.537ZM1334.33 405.364C1339.44 399.814 1339.44 391.49 1334.33 385.94C1329.22 380.39 1321.55 380.39 1316.44 385.94C1311.33 391.49 1311.33 399.814 1316.44 405.364C1321.55 410.451 1329.22 410.451 1334.33 405.364ZM1347.53 576.019C1342.85 570.932 1335.61 570.932 1331.35 576.019C1326.66 581.106 1326.66 588.969 1331.35 593.593C1336.03 598.681 1343.27 598.681 1347.53 593.593C1351.79 588.506 1351.79 581.106 1347.53 576.019ZM1370.1 311.48C1375.64 305.468 1375.64 295.756 1370.1 290.206C1364.56 284.194 1355.62 284.194 1350.51 290.206C1344.98 296.219 1344.98 305.931 1350.51 311.48C1356.05 317.493 1364.56 317.493 1370.1 311.48ZM1393.95 478.898C1388.41 472.886 1379.04 472.886 1373.51 478.898C1367.97 484.911 1367.97 495.085 1373.51 501.097C1379.04 507.11 1388.41 507.11 1393.95 501.097C1399.48 495.085 1399.48 485.373 1393.95 478.898ZM1391.82 548.733C1397.35 554.745 1406.72 554.745 1412.26 548.733C1417.79 542.721 1417.79 532.546 1412.26 526.534C1406.72 520.522 1397.35 520.522 1391.82 526.534C1385.85 532.546 1385.85 542.721 1391.82 548.733ZM1393.52 620.88C1387.56 627.354 1387.56 637.529 1393.52 644.004C1399.48 650.479 1408.85 650.479 1414.81 644.004C1420.77 637.529 1420.77 627.354 1414.81 620.88C1409.28 614.405 1399.48 614.405 1393.52 620.88ZM1395.22 432.188C1389.69 438.2 1389.69 447.45 1395.22 453.462C1400.76 459.474 1409.28 459.474 1414.81 453.462C1420.35 447.45 1420.35 438.2 1414.81 432.188C1409.28 426.638 1400.33 426.638 1395.22 432.188ZM1414.39 262.458C1419.07 257.37 1419.07 249.046 1414.39 243.958C1409.7 238.871 1402.04 238.871 1397.35 243.958C1392.67 249.046 1392.67 257.37 1397.35 262.458C1402.04 268.007 1409.7 268.007 1414.39 262.458ZM1425.03 357.266C1429.71 352.179 1429.71 343.854 1425.03 338.767C1420.35 333.68 1412.68 333.68 1408 338.767C1403.31 343.854 1403.31 352.179 1408 357.266C1412.68 362.353 1420.35 362.353 1425.03 357.266ZM1427.59 736.5C1432.27 731.413 1432.27 722.625 1427.59 717.538C1422.9 712.451 1414.81 712.451 1410.13 717.538L1409.7 718.001C1395.22 705.514 1364.56 680.077 1318.15 640.766C1321.98 634.754 1321.55 626.43 1316.44 620.88C1310.91 614.867 1301.97 614.867 1296.43 620.88C1290.9 626.892 1290.9 636.604 1296.43 642.616C1301.97 648.629 1310.91 648.629 1316.44 642.616C1316.87 642.154 1316.87 642.154 1317.3 641.691C1364.14 681.465 1394.8 706.901 1408.85 718.926C1405.87 724.013 1405.87 730.488 1409.7 735.112C1401.18 744.362 1392.24 753.612 1383.73 762.861C1378.62 757.774 1370.53 757.774 1365.42 763.324C1362.86 766.099 1361.58 769.336 1361.58 773.036H1217.23C1217.23 769.798 1215.95 766.561 1213.82 764.249C1209.14 759.161 1201.05 759.161 1196.36 764.249C1193.81 767.024 1192.53 770.261 1192.53 773.961C1186.99 774.423 1179.75 774.886 1170.81 775.811C1170.39 772.573 1169.11 769.798 1166.98 767.486C1161.87 761.936 1153.78 761.936 1148.67 767.486C1143.56 773.036 1143.56 781.823 1148.67 787.373C1153.78 792.922 1161.87 792.922 1166.98 787.373C1169.53 784.598 1170.81 780.898 1170.81 777.198C1179.75 776.273 1186.99 775.811 1192.53 775.348C1192.95 778.123 1193.81 780.898 1195.94 783.21C1200.62 788.298 1208.71 788.298 1213.39 783.21C1215.52 780.898 1216.8 777.661 1216.8 774.423H1361.16C1361.16 777.661 1362.43 781.36 1364.99 784.135C1370.1 789.685 1378.62 789.685 1384.15 784.135C1389.26 778.586 1389.26 769.798 1384.58 764.249C1393.09 754.999 1402.04 745.749 1410.55 736.5C1415.66 741.587 1422.9 741.587 1427.59 736.5ZM1320.28 669.44C1315.17 674.99 1315.17 684.702 1320.28 690.252C1325.39 695.802 1334.33 695.802 1339.44 690.252C1344.55 684.702 1344.55 674.99 1339.44 669.44C1334.33 663.428 1325.81 663.428 1320.28 669.44ZM1442.06 906.23C1436.53 900.218 1428.01 900.218 1422.48 906.23C1416.94 912.242 1416.94 921.492 1422.48 927.504C1428.01 933.516 1436.53 933.516 1442.06 927.504C1447.17 921.492 1447.17 911.78 1442.06 906.23ZM1436.95 812.809C1432.27 817.896 1432.27 825.759 1436.95 830.846C1441.64 835.933 1448.88 835.933 1453.56 830.846C1458.25 825.759 1458.25 817.896 1453.56 812.809C1448.88 807.722 1441.21 807.722 1436.95 812.809ZM1442.92 479.361C1437.38 485.373 1437.38 495.085 1442.92 500.635C1448.45 506.647 1457.39 506.647 1462.5 500.635C1468.04 494.623 1468.04 484.911 1462.5 479.361C1457.39 473.349 1448.45 473.349 1442.92 479.361ZM1464.63 291.131C1459.95 286.044 1451.86 286.044 1446.75 291.131C1442.06 296.219 1442.06 305.006 1446.75 310.556C1451.43 315.643 1459.52 315.643 1464.63 310.556C1469.74 305.006 1469.74 296.219 1464.63 291.131ZM1485.5 217.597C1491.46 211.122 1491.46 200.948 1485.5 194.935C1479.54 188.461 1470.17 188.461 1464.63 194.935C1458.67 201.41 1458.67 211.585 1464.63 217.597C1470.17 223.609 1479.54 223.609 1485.5 217.597ZM1489.33 404.439C1494.01 399.352 1494.01 391.49 1489.33 386.865C1484.65 381.777 1477.41 381.777 1473.15 386.865C1468.47 391.952 1468.47 399.814 1473.15 404.439C1477.41 409.064 1484.65 409.064 1489.33 404.439ZM1502.53 670.365C1497.85 665.278 1490.18 665.278 1485.5 670.365C1480.81 675.452 1480.81 683.777 1485.5 688.864C1490.18 693.952 1497.85 693.952 1502.53 688.864C1507.22 683.777 1507.22 675.452 1502.53 670.365ZM1527.66 169.037C1532.77 163.487 1532.77 154.237 1527.66 148.687C1522.55 143.138 1514.03 143.138 1508.92 148.687C1503.81 154.237 1503.81 163.487 1508.92 169.037C1514.03 174.586 1522.55 174.586 1527.66 169.037ZM1509.34 243.496C1504.23 249.046 1504.23 257.833 1509.34 263.383C1514.45 268.932 1522.55 268.932 1527.66 263.383C1532.77 257.833 1532.77 249.046 1527.66 243.496C1522.55 237.946 1514.45 237.946 1509.34 243.496ZM1528.51 359.116C1534.04 353.104 1534.04 342.929 1528.51 336.917C1522.97 330.905 1513.6 330.905 1508.07 336.917C1502.53 342.929 1502.53 353.104 1508.07 359.116C1513.6 365.128 1522.97 365.128 1528.51 359.116ZM1508.92 453.462C1514.03 459.012 1522.97 459.012 1528.08 453.462C1533.19 447.912 1533.19 438.2 1528.08 432.65C1522.97 427.101 1514.03 427.101 1508.92 432.65C1503.38 438.2 1503.38 447.45 1508.92 453.462ZM1509.34 527.921C1504.23 533.471 1504.23 542.258 1509.34 547.345C1514.45 552.895 1522.55 552.895 1527.23 547.345C1532.34 541.796 1532.34 533.008 1527.23 527.921C1522.55 522.371 1514.45 522.371 1509.34 527.921ZM1529.36 644.004C1535.32 637.529 1535.32 626.892 1529.36 620.417C1523.4 613.943 1513.6 613.943 1507.64 620.417C1501.68 626.892 1501.68 637.529 1507.64 644.004C1513.6 650.479 1522.97 650.479 1529.36 644.004ZM1571.09 120.939C1576.2 115.389 1576.2 106.602 1571.09 101.514C1565.98 95.9646 1557.89 95.9646 1553.2 101.514C1548.09 107.064 1548.09 115.851 1553.2 120.939C1557.89 126.488 1565.98 126.488 1571.09 120.939ZM1571.52 216.21C1576.63 210.66 1576.63 201.41 1571.52 195.86C1566.41 190.311 1557.89 190.311 1552.78 195.86C1547.67 201.41 1547.67 210.66 1552.78 216.21C1557.89 221.759 1565.98 221.759 1571.52 216.21ZM1552.78 405.364C1557.89 410.914 1566.41 410.914 1571.52 405.364C1576.63 399.814 1576.63 390.565 1571.52 385.015C1566.41 379.465 1557.89 379.465 1552.78 385.015C1547.67 391.027 1547.67 399.814 1552.78 405.364ZM1553.2 480.748C1548.52 485.836 1548.52 494.623 1553.2 499.71C1557.89 504.797 1565.98 504.797 1570.66 499.71C1575.35 494.623 1575.35 485.836 1570.66 480.748C1565.98 475.661 1557.89 475.661 1553.2 480.748ZM1571.09 310.556C1576.2 305.006 1576.2 296.219 1571.09 290.669C1565.98 285.119 1557.89 285.119 1552.78 290.669C1547.67 296.219 1547.67 305.006 1552.78 310.556C1557.89 316.105 1565.98 316.105 1571.09 310.556ZM1571.94 595.906C1577.48 589.894 1577.48 580.182 1571.94 574.169C1566.41 568.157 1557.46 568.157 1551.93 574.169C1546.39 580.182 1546.39 589.894 1551.93 595.906C1557.46 601.918 1566.41 601.918 1571.94 595.906ZM1571.94 690.714C1577.48 684.702 1577.48 674.528 1571.94 668.515C1566.41 662.503 1557.04 662.503 1551.5 668.515C1545.97 674.528 1545.97 684.702 1551.5 690.714C1557.46 696.727 1566.41 696.727 1571.94 690.714ZM1553.2 765.174C1548.52 770.261 1548.52 779.048 1553.2 784.135C1557.89 789.223 1565.98 789.223 1570.66 784.135C1575.35 779.048 1575.35 770.261 1570.66 765.174C1565.98 759.624 1557.89 759.624 1553.2 765.174ZM1572.37 880.794C1578.33 874.319 1578.33 864.144 1572.37 857.67C1566.41 851.195 1557.04 851.195 1551.08 857.67C1545.11 864.144 1545.11 874.319 1551.08 880.794C1557.04 887.268 1566.83 887.268 1572.37 880.794ZM1572.79 975.602C1578.75 969.127 1578.75 958.953 1572.79 952.478C1566.83 946.003 1557.46 946.003 1551.5 952.478C1545.54 958.953 1545.54 969.127 1551.5 975.602C1557.04 982.077 1566.83 982.077 1572.79 975.602ZM1614.52 73.7656C1619.63 68.2158 1619.63 59.4287 1614.52 53.879C1609.41 48.3292 1601.32 48.3292 1596.21 53.879C1591.1 59.4287 1591.1 68.2158 1596.21 73.7656C1601.32 79.3154 1609.84 79.3154 1614.52 73.7656ZM1615.38 169.037C1620.91 163.024 1620.91 153.775 1615.38 147.762C1609.84 141.75 1601.32 141.75 1595.79 147.762C1590.25 153.775 1590.25 163.024 1595.79 169.037C1601.32 175.049 1609.84 175.049 1615.38 169.037ZM1596.64 243.496C1591.53 249.046 1591.53 257.833 1596.64 263.383C1601.75 268.932 1609.84 268.932 1614.95 263.383C1620.06 257.833 1620.06 249.046 1614.95 243.496C1609.84 237.946 1601.32 237.946 1596.64 243.496ZM1616.23 359.578C1622.19 353.104 1622.19 342.929 1616.23 336.917C1610.27 330.442 1600.9 330.442 1595.36 336.917C1589.4 343.392 1589.4 353.566 1595.36 359.578C1600.9 365.591 1610.27 365.591 1616.23 359.578ZM1595.79 548.27C1601.32 554.283 1610.27 554.283 1615.38 548.27C1620.91 542.258 1620.91 532.546 1615.38 526.996C1609.84 520.984 1600.9 520.984 1595.79 526.996C1590.25 533.009 1590.25 542.258 1595.79 548.27ZM1596.64 622.267C1591.53 627.817 1591.53 636.604 1596.64 642.154C1601.75 647.704 1609.84 647.704 1614.95 642.154C1620.06 636.604 1620.06 627.817 1614.95 622.267C1609.84 617.18 1601.32 617.18 1596.64 622.267ZM1595.79 453.462C1601.32 459.474 1610.27 459.474 1615.8 453.462C1621.34 447.45 1621.34 437.738 1615.8 431.725C1610.27 425.713 1601.32 425.713 1595.79 431.725C1590.25 438.2 1590.25 447.912 1595.79 453.462ZM1616.23 738.812C1622.19 732.337 1622.19 722.163 1616.23 715.688C1610.27 709.213 1600.9 709.213 1594.94 715.688C1588.97 722.163 1588.97 732.337 1594.94 738.812C1600.9 745.287 1610.27 745.287 1616.23 738.812ZM1595.36 1022.31C1600.9 1028.32 1610.27 1028.32 1615.8 1022.31C1621.34 1016.3 1621.34 1006.13 1615.8 1000.11C1610.27 994.101 1600.9 994.101 1595.36 1000.11C1589.83 1006.59 1589.83 1016.3 1595.36 1022.31ZM1595.36 1094.92C1589.83 1100.93 1589.83 1111.11 1595.36 1117.12C1600.9 1123.13 1610.27 1123.13 1615.8 1117.12C1621.34 1111.11 1621.34 1100.93 1615.8 1094.92C1610.27 1088.91 1600.9 1088.91 1595.36 1094.92ZM1615.38 927.042C1620.91 921.029 1620.91 911.78 1615.38 906.23C1609.84 900.218 1601.32 900.218 1595.79 906.23C1590.25 912.242 1590.25 921.492 1595.79 927.042C1601.32 933.054 1609.84 933.054 1615.38 927.042ZM1595.36 833.158C1600.9 839.17 1610.27 839.17 1615.8 833.158C1621.34 827.146 1621.34 816.971 1615.8 810.959C1610.27 804.947 1600.9 804.947 1595.36 810.959C1589.83 816.971 1589.83 826.683 1595.36 833.158ZM1616.65 1212.85C1622.61 1206.38 1622.61 1195.74 1616.65 1189.27C1610.69 1182.79 1600.9 1182.79 1594.94 1189.27C1588.97 1195.74 1588.97 1206.38 1594.94 1212.85C1600.9 1219.33 1610.27 1219.33 1616.65 1212.85ZM1659.66 27.9801C1665.62 21.5053 1665.62 11.3308 1659.66 4.85604C1653.7 -1.61868 1644.33 -1.61868 1638.37 4.85604C1632.41 11.3308 1632.41 21.5053 1638.37 27.9801C1644.33 34.4548 1654.13 34.4548 1659.66 27.9801ZM1657.96 196.323C1652.85 190.773 1645.18 190.773 1640.07 196.323C1634.96 201.873 1634.96 210.197 1640.07 215.747C1645.18 221.297 1652.85 221.297 1657.96 215.747C1663.07 210.197 1663.07 201.873 1657.96 196.323ZM1657.96 120.939C1662.64 115.389 1662.64 107.064 1657.96 101.514C1653.27 96.4271 1645.18 96.4271 1640.07 101.514C1634.96 106.602 1634.96 115.389 1640.07 120.939C1645.18 126.026 1653.27 126.026 1657.96 120.939ZM1640.5 291.131C1635.82 296.219 1635.82 305.006 1640.5 310.093C1645.18 315.18 1653.27 315.18 1657.96 310.093C1662.64 305.006 1662.64 296.219 1657.96 291.131C1653.27 286.044 1645.18 286.044 1640.5 291.131ZM1659.24 384.552C1653.7 378.54 1644.33 378.54 1638.8 384.552C1633.26 390.565 1633.26 400.739 1638.8 406.751C1644.33 412.764 1653.7 412.764 1659.24 406.751C1665.2 400.277 1665.2 390.565 1659.24 384.552ZM1659.66 478.898C1654.13 472.886 1644.76 472.886 1639.22 478.898C1633.69 484.911 1633.69 495.085 1639.22 501.097C1644.76 507.11 1654.13 507.11 1659.66 501.097C1665.2 495.085 1665.2 485.373 1659.66 478.898ZM1659.66 596.368C1665.62 589.894 1665.62 579.719 1659.66 573.244C1653.7 566.77 1644.33 566.77 1638.37 573.244C1632.41 579.719 1632.41 589.894 1638.37 596.368C1644.33 602.843 1654.13 602.843 1659.66 596.368ZM1638.8 668.515C1632.83 674.99 1632.83 685.164 1638.8 691.177C1644.76 697.651 1654.13 697.651 1659.66 691.177C1665.62 684.702 1665.62 674.528 1659.66 668.515C1653.7 662.041 1644.33 662.041 1638.8 668.515ZM1660.09 785.985C1666.05 779.51 1666.05 769.336 1660.09 762.861C1654.13 756.386 1644.76 756.386 1638.8 762.861C1632.83 769.336 1632.83 779.51 1638.8 785.985C1644.33 792.46 1654.13 792.46 1660.09 785.985ZM1639.22 1164.29C1644.76 1170.31 1653.7 1170.31 1659.24 1164.29C1664.77 1158.28 1664.77 1148.57 1659.24 1142.56C1653.7 1136.55 1644.76 1136.55 1639.22 1142.56C1633.69 1148.57 1633.69 1158.28 1639.22 1164.29ZM1639.65 1237.83C1634.11 1243.84 1634.11 1253.09 1639.65 1258.64C1645.18 1264.65 1653.7 1264.65 1658.81 1258.64C1664.35 1252.63 1664.35 1243.38 1658.81 1237.83C1653.7 1231.82 1644.76 1231.82 1639.65 1237.83ZM1638.37 1070.41C1644.33 1076.89 1653.7 1076.89 1659.66 1070.41C1665.62 1063.94 1665.62 1053.76 1659.66 1047.29C1653.7 1040.81 1644.33 1040.81 1638.37 1047.29C1632.83 1053.76 1632.83 1063.94 1638.37 1070.41ZM1639.65 879.869C1645.18 885.881 1653.7 885.881 1659.24 879.869C1664.77 873.856 1664.77 864.607 1659.24 858.595C1653.7 852.582 1645.18 852.582 1639.65 858.595C1634.11 864.607 1634.11 873.856 1639.65 879.869ZM1639.65 953.403C1634.11 959.415 1634.11 968.665 1639.65 974.215C1645.18 980.227 1653.7 980.227 1658.81 974.215C1664.35 968.202 1664.35 958.953 1658.81 953.403C1653.7 947.853 1644.76 947.853 1639.65 953.403ZM1660.09 1354.84C1666.05 1348.36 1666.05 1338.19 1660.09 1331.71C1654.13 1325.24 1644.76 1325.24 1638.8 1331.71C1632.83 1338.19 1632.83 1348.36 1638.8 1354.84C1644.33 1361.31 1654.13 1361.31 1660.09 1354.84ZM1639.65 1427.45C1634.54 1433 1634.54 1442.71 1639.65 1448.26C1644.76 1453.81 1653.7 1453.81 1658.81 1448.26C1663.92 1442.71 1663.92 1433 1658.81 1427.45C1653.7 1421.43 1644.76 1421.43 1639.65 1427.45ZM1660.09 1543.99C1666.05 1537.52 1666.05 1527.34 1660.09 1520.87C1654.13 1514.39 1644.76 1514.39 1638.8 1520.87C1632.83 1527.34 1632.83 1537.52 1638.8 1543.99C1644.33 1550.46 1654.13 1550.46 1660.09 1543.99ZM1701.82 73.7656C1706.93 68.2158 1706.93 59.4287 1701.82 53.879C1696.71 48.3292 1688.62 48.3292 1683.51 53.879C1678.4 59.4287 1678.4 68.2158 1683.51 73.7656C1688.62 79.3154 1696.71 79.3154 1701.82 73.7656ZM1702.67 169.037C1708.21 163.024 1708.21 153.775 1702.67 147.762C1697.13 141.75 1688.62 141.75 1683.08 147.762C1677.55 153.775 1677.55 163.024 1683.08 169.037C1688.62 175.049 1697.13 175.049 1702.67 169.037ZM1683.08 243.033C1677.97 248.583 1677.97 257.833 1683.08 263.845C1688.19 269.395 1696.71 269.395 1702.24 263.845C1707.35 258.295 1707.35 249.046 1702.24 243.033C1697.13 237.484 1688.62 237.484 1683.08 243.033ZM1703.1 359.116C1708.63 353.104 1708.63 343.392 1703.1 336.917C1697.56 330.905 1688.62 330.905 1682.66 336.917C1677.12 342.929 1677.12 352.641 1682.66 359.116C1688.19 365.128 1697.56 365.128 1703.1 359.116ZM1702.67 526.996C1697.13 520.984 1688.62 520.984 1683.08 526.996C1677.55 533.009 1677.55 542.258 1683.08 548.27C1688.62 554.283 1697.13 554.283 1702.67 548.27C1708.21 542.258 1708.21 533.009 1702.67 526.996ZM1702.24 452.999C1707.35 447.45 1707.35 438.2 1702.24 432.65C1697.13 427.101 1688.62 427.101 1683.51 432.65C1678.4 438.2 1678.4 447.45 1683.51 452.999C1688.62 458.549 1697.13 458.549 1702.24 452.999ZM1702.67 621.342C1697.13 615.33 1688.19 615.33 1682.66 621.342C1677.12 627.355 1677.12 637.067 1682.66 643.079C1688.19 649.091 1697.13 649.091 1702.67 643.079C1708.63 637.067 1708.63 627.355 1702.67 621.342ZM1703.1 738.35C1708.63 732.338 1708.63 722.163 1703.1 716.151C1697.56 710.138 1688.19 710.138 1682.66 716.151C1677.12 722.163 1677.12 732.338 1682.66 738.35C1688.19 744.362 1697.56 744.362 1703.1 738.35ZM1683.93 811.884C1678.82 817.434 1678.82 826.221 1683.93 831.308C1689.04 836.858 1697.13 836.858 1701.82 831.308C1706.93 825.759 1706.93 816.971 1701.82 811.884C1696.71 806.797 1688.62 806.797 1683.93 811.884ZM1703.52 927.967C1709.48 921.492 1709.48 911.317 1703.52 904.843C1697.56 898.368 1688.19 898.368 1682.23 904.843C1676.27 911.317 1676.27 921.492 1682.23 927.967C1688.19 934.441 1697.56 934.441 1703.52 927.967ZM1683.08 1401.08C1688.62 1407.1 1697.13 1407.1 1702.67 1401.08C1708.21 1395.07 1708.21 1385.82 1702.67 1379.81C1697.13 1373.8 1688.62 1373.8 1683.08 1379.81C1677.55 1385.82 1677.55 1395.07 1683.08 1401.08ZM1683.08 1474.62C1677.97 1480.17 1677.97 1489.42 1683.08 1495.43C1688.19 1500.98 1696.71 1500.98 1702.24 1495.43C1707.35 1489.88 1707.35 1480.63 1702.24 1474.62C1697.13 1469.07 1688.62 1469.07 1683.08 1474.62ZM1701.82 1096.31C1696.71 1090.76 1688.62 1090.76 1683.93 1096.31C1678.82 1101.86 1678.82 1110.65 1683.93 1115.73C1689.04 1121.28 1697.13 1121.28 1701.82 1115.73C1706.93 1110.65 1706.93 1101.86 1701.82 1096.31ZM1701.82 1020.93C1706.5 1015.84 1706.5 1007.05 1701.82 1001.96C1697.13 996.876 1689.04 996.876 1684.36 1001.96C1679.68 1007.05 1679.68 1015.84 1684.36 1020.93C1689.04 1026.47 1696.71 1026.47 1701.82 1020.93ZM1701.82 1191.12C1696.71 1185.57 1688.62 1185.57 1683.51 1191.12C1678.4 1196.67 1678.4 1205.45 1683.51 1211C1688.62 1216.55 1696.71 1216.55 1701.82 1211C1706.93 1205.45 1706.93 1196.67 1701.82 1191.12ZM1702.24 1285.46C1697.13 1279.91 1688.62 1279.91 1683.51 1285.46C1678.4 1291.01 1678.4 1300.26 1683.51 1305.81C1688.62 1311.36 1697.13 1311.36 1702.24 1305.81C1707.35 1300.26 1707.35 1291.01 1702.24 1285.46ZM1703.52 1591.63C1709.48 1585.15 1709.48 1574.51 1703.52 1568.04C1697.56 1561.56 1687.77 1561.56 1681.8 1568.04C1675.84 1574.51 1675.84 1585.15 1681.8 1591.63C1687.77 1598.1 1697.56 1598.1 1703.52 1591.63ZM1745.25 120.939C1750.36 115.389 1750.36 107.064 1745.25 101.514C1740.14 95.9646 1732.48 95.9646 1727.37 101.514C1722.26 107.064 1722.26 115.389 1727.37 120.939C1732.48 126.026 1740.57 126.026 1745.25 120.939ZM1746.53 216.672C1752.07 210.66 1752.07 200.948 1746.53 194.935C1740.99 188.923 1732.05 188.923 1726.52 194.935C1720.98 200.948 1720.98 210.66 1726.52 216.672C1732.05 222.684 1740.99 222.684 1746.53 216.672ZM1727.37 290.669C1722.26 296.219 1722.26 305.006 1727.37 310.556C1732.48 316.105 1740.57 316.105 1745.68 310.556C1750.79 305.006 1750.79 296.219 1745.68 290.669C1740.57 285.582 1732.48 285.582 1727.37 290.669ZM1746.96 406.751C1752.92 400.277 1752.92 390.102 1746.96 384.09C1740.99 377.615 1731.63 377.615 1726.09 384.09C1720.13 390.565 1720.13 400.739 1726.09 406.751C1731.63 413.226 1740.99 413.226 1746.96 406.751ZM1790.39 169.499C1795.93 163.487 1795.93 153.312 1790.39 147.3C1784.85 141.288 1775.49 141.288 1769.95 147.3C1764.42 153.312 1764.42 163.487 1769.95 169.499C1775.49 175.974 1784.85 175.974 1790.39 169.499ZM1769.95 264.307C1775.49 270.32 1784.43 270.32 1790.39 264.307C1795.93 258.295 1795.93 248.583 1790.39 242.108C1784.85 236.096 1775.91 236.096 1769.95 242.108C1764.42 248.583 1764.42 258.295 1769.95 264.307ZM1771.23 338.767C1766.54 343.854 1766.54 352.641 1771.23 357.729C1775.91 362.816 1784 362.816 1788.69 357.729C1793.37 352.641 1793.37 343.854 1788.69 338.767C1784 333.217 1776.34 333.217 1771.23 338.767ZM1790.82 454.849C1796.78 448.375 1796.78 437.738 1790.82 431.263C1784.85 424.788 1775.06 424.788 1769.1 431.263C1763.14 437.738 1763.14 448.375 1769.1 454.849C1775.06 461.324 1784.85 461.324 1790.82 454.849ZM1769.95 1401.08C1775.49 1407.1 1784.43 1407.1 1789.96 1401.08C1795.5 1395.07 1795.5 1385.36 1789.96 1379.35C1784.43 1373.34 1775.49 1373.34 1769.95 1379.35C1764.42 1385.36 1764.84 1395.07 1769.95 1401.08ZM1771.23 1475.54C1766.12 1481.09 1766.12 1489.88 1771.23 1494.97C1776.34 1500.52 1784.43 1500.52 1789.11 1494.97C1794.22 1489.42 1794.22 1480.63 1789.11 1475.54C1784 1469.99 1775.91 1469.99 1771.23 1475.54ZM1769.53 1307.2C1775.49 1313.68 1784.85 1313.68 1790.82 1307.2C1796.78 1300.73 1796.78 1290.55 1790.82 1284.08C1784.85 1277.6 1775.49 1277.6 1769.53 1284.08C1763.56 1290.55 1763.56 1300.73 1769.53 1307.2ZM1789.11 717.076C1784 711.526 1775.91 711.526 1770.8 717.076C1765.69 722.625 1765.69 731.413 1770.8 736.962C1775.91 742.512 1784 742.512 1789.11 736.962C1794.22 731.413 1794.22 722.625 1789.11 717.076ZM1789.11 642.154C1794.22 636.604 1794.22 627.817 1789.11 622.267C1784 616.717 1775.91 616.717 1770.8 622.267C1765.69 627.817 1765.69 636.604 1770.8 642.154C1775.91 647.704 1784 647.704 1789.11 642.154ZM1770.8 547.808C1775.91 553.358 1784.43 553.358 1789.54 547.808C1794.65 542.258 1794.65 533.008 1789.54 527.459C1784.43 521.909 1775.91 521.909 1770.8 527.459C1765.69 533.008 1765.69 542.258 1770.8 547.808ZM1789.54 811.422C1784 805.409 1775.49 805.409 1770.38 811.422C1764.84 817.434 1764.84 826.683 1770.38 832.233C1775.91 838.245 1784.43 838.245 1789.54 832.233C1795.07 826.683 1795.07 816.971 1789.54 811.422ZM1771.23 1115.73C1776.34 1121.28 1784.43 1121.28 1789.11 1115.73C1794.22 1110.18 1794.22 1101.4 1789.11 1096.31C1784 1090.76 1775.91 1090.76 1771.23 1096.31C1766.12 1101.86 1766.12 1110.65 1771.23 1115.73ZM1771.23 1191.12C1766.12 1196.67 1766.12 1205.45 1771.23 1210.54C1776.34 1216.09 1784.43 1216.09 1789.11 1210.54C1794.22 1204.99 1794.22 1196.21 1789.11 1191.12C1784 1185.57 1775.91 1185.57 1771.23 1191.12ZM1770.8 1021.39C1775.91 1026.94 1784 1026.94 1789.11 1021.39C1794.22 1015.84 1794.22 1007.05 1789.11 1001.5C1784 995.951 1775.91 995.951 1770.8 1001.5C1765.69 1007.05 1765.69 1015.84 1770.8 1021.39ZM1770.38 927.042C1775.91 933.054 1784.43 933.054 1789.54 927.042C1795.07 921.029 1795.07 911.78 1789.54 906.23C1784 900.218 1775.49 900.218 1770.38 906.23C1765.27 911.78 1765.27 921.492 1770.38 927.042ZM1790.82 1591.63C1796.78 1585.15 1796.78 1574.51 1790.82 1568.04C1784.85 1561.56 1775.06 1561.56 1769.1 1568.04C1763.14 1574.51 1763.14 1585.15 1769.1 1591.63C1775.06 1598.1 1784.85 1598.1 1790.82 1591.63ZM1833.4 216.672C1838.94 210.66 1838.94 201.41 1833.4 195.398C1827.86 189.386 1819.35 189.386 1813.81 195.398C1808.28 201.41 1808.28 210.66 1813.81 216.672C1819.35 222.222 1827.86 222.222 1833.4 216.672ZM1814.66 291.131C1809.55 296.681 1809.55 305.006 1814.66 310.556C1819.77 316.105 1827.44 316.105 1832.55 310.556C1837.66 305.006 1837.66 296.681 1832.55 291.131C1827.86 285.582 1819.77 285.582 1814.66 291.131ZM1833.83 406.751C1839.36 400.739 1839.36 390.565 1833.83 384.552C1828.29 378.54 1818.92 378.54 1813.39 384.552C1807.85 390.565 1807.85 400.739 1813.39 406.751C1818.92 412.764 1828.29 412.764 1833.83 406.751ZM1814.24 1163.83C1819.35 1169.38 1828.29 1169.38 1833.4 1163.83C1838.51 1158.28 1838.51 1148.57 1833.4 1143.02C1828.29 1137.47 1819.35 1137.47 1814.24 1143.02C1808.7 1149.03 1808.7 1158.28 1814.24 1163.83ZM1814.24 1237.83C1809.13 1243.38 1809.13 1252.63 1814.24 1258.18C1819.35 1263.73 1827.86 1263.73 1832.97 1258.18C1838.08 1252.63 1838.08 1243.38 1832.97 1237.83C1827.86 1232.28 1819.35 1232.28 1814.24 1237.83ZM1833.4 1069.02C1838.51 1063.47 1838.51 1053.76 1833.4 1048.21C1828.29 1042.66 1819.35 1042.66 1814.24 1048.21C1809.13 1053.76 1809.13 1063.47 1814.24 1069.02C1819.35 1075.04 1827.86 1075.04 1833.4 1069.02ZM1813.81 974.677C1819.35 980.689 1828.29 980.689 1833.4 974.677C1838.94 968.665 1838.94 958.953 1833.4 953.403C1827.86 947.391 1818.92 947.391 1813.81 953.403C1808.28 959.415 1808.28 968.665 1813.81 974.677ZM1832.97 764.711C1827.86 759.161 1819.77 759.161 1814.66 764.711C1809.55 770.261 1809.55 779.048 1814.66 784.598C1819.77 790.148 1827.86 790.148 1832.97 784.598C1837.66 779.048 1837.66 770.261 1832.97 764.711ZM1832.55 689.327C1837.23 684.24 1837.23 675.452 1832.55 670.365C1827.86 665.278 1819.77 665.278 1815.09 670.365C1810.4 675.452 1810.4 684.24 1815.09 689.327C1819.77 694.414 1827.44 694.414 1832.55 689.327ZM1832.97 859.52C1827.86 853.97 1819.77 853.97 1814.66 859.52C1809.55 865.069 1809.55 873.857 1814.66 879.406C1819.77 884.956 1827.86 884.956 1832.97 879.406C1838.08 873.857 1838.08 864.607 1832.97 859.52ZM1813.81 595.906C1819.35 601.918 1828.29 601.918 1833.83 595.906C1839.36 589.894 1839.36 580.182 1833.83 574.169C1828.29 568.157 1819.35 568.157 1813.81 574.169C1808.28 580.182 1808.28 589.894 1813.81 595.906ZM1833.4 501.097C1838.94 495.085 1838.94 485.836 1833.4 479.823C1827.86 473.811 1819.35 473.811 1813.81 479.823C1808.28 485.836 1808.28 495.085 1813.81 501.097C1819.35 507.11 1828.29 506.647 1833.4 501.097ZM1833.83 1354.37C1839.36 1348.36 1839.36 1338.19 1833.83 1332.17C1828.29 1326.16 1818.92 1326.16 1813.39 1332.17C1807.85 1338.19 1807.85 1348.36 1813.39 1354.37C1818.92 1360.39 1828.29 1360.39 1833.83 1354.37ZM1834.25 1449.18C1840.21 1442.71 1840.21 1432.53 1834.25 1426.52C1828.29 1420.05 1818.92 1420.05 1813.39 1426.52C1807.42 1432.99 1807.42 1443.17 1813.39 1449.18C1818.92 1455.19 1828.29 1455.19 1834.25 1449.18ZM1814.66 1522.72C1809.55 1528.27 1809.55 1536.59 1814.66 1542.14C1819.77 1547.69 1827.44 1547.69 1832.55 1542.14C1837.66 1536.59 1837.66 1528.27 1832.55 1522.72C1827.86 1517.63 1819.77 1517.63 1814.66 1522.72ZM1834.25 1638.8C1840.21 1632.32 1840.21 1622.15 1834.25 1615.67C1828.29 1609.2 1818.92 1609.2 1812.96 1615.67C1807 1622.15 1807 1632.32 1812.96 1638.8C1818.92 1645.27 1828.29 1645.27 1834.25 1638.8ZM1877.69 264.77C1883.65 258.295 1883.65 248.121 1877.69 241.646C1871.72 235.171 1862.36 235.171 1856.39 241.646C1850.43 248.121 1850.43 258.295 1856.39 264.77C1862.78 271.245 1872.15 271.245 1877.69 264.77ZM1878.11 359.578C1884.07 353.104 1884.07 342.929 1878.11 336.454C1872.15 329.98 1862.78 329.98 1856.82 336.454C1850.86 342.929 1850.86 353.104 1856.82 359.578C1862.36 366.053 1872.15 366.053 1878.11 359.578ZM1857.67 432.188C1852.14 438.2 1852.14 447.45 1857.67 453.462C1863.21 459.474 1871.72 459.474 1877.26 453.462C1882.8 447.45 1882.8 438.2 1877.26 432.188C1871.72 426.176 1862.78 426.176 1857.67 432.188ZM1878.11 549.195C1884.07 542.721 1884.07 532.546 1878.11 526.071C1872.15 519.597 1862.78 519.597 1856.82 526.071C1850.86 532.546 1850.86 542.721 1856.82 549.195C1862.36 555.67 1872.15 555.67 1878.11 549.195ZM1877.69 905.768C1872.15 899.755 1862.78 899.755 1857.25 905.768C1851.71 911.78 1851.71 921.954 1857.25 927.967C1862.78 933.979 1872.15 933.979 1877.69 927.967C1883.22 921.492 1883.22 911.78 1877.69 905.768ZM1876.41 831.771C1881.52 826.221 1881.52 816.971 1876.41 811.422C1871.3 805.872 1862.78 805.872 1857.67 811.422C1852.56 816.971 1852.56 826.221 1857.67 831.771C1863.21 837.783 1871.3 837.783 1876.41 831.771ZM1876.83 1095.85C1871.72 1090.3 1863.21 1090.3 1858.1 1095.85C1852.99 1101.4 1852.99 1110.65 1858.1 1116.2C1863.21 1121.75 1871.72 1121.75 1876.83 1116.2C1881.94 1110.65 1881.94 1101.4 1876.83 1095.85ZM1876.41 1020.93C1881.52 1015.38 1881.52 1007.05 1876.41 1001.5C1871.3 995.951 1863.63 995.951 1858.52 1001.5C1853.41 1007.05 1853.41 1015.38 1858.52 1020.93C1863.21 1026.47 1871.3 1026.47 1876.41 1020.93ZM1876.83 1190.66C1871.72 1185.11 1863.21 1185.11 1858.1 1190.66C1852.99 1196.21 1852.99 1205.45 1858.1 1211C1863.21 1216.55 1871.72 1216.55 1876.83 1211C1881.94 1205.45 1881.94 1196.21 1876.83 1190.66ZM1877.69 1284.54C1872.15 1278.53 1862.78 1278.53 1856.82 1284.54C1851.28 1290.55 1851.28 1300.73 1856.82 1307.2C1862.36 1313.68 1871.72 1313.21 1877.69 1307.2C1883.22 1300.73 1883.22 1290.55 1877.69 1284.54ZM1856.82 738.35C1862.78 744.825 1872.15 744.825 1877.69 738.35C1883.65 731.875 1883.65 721.7 1877.69 715.688C1871.72 709.213 1862.36 709.213 1856.82 715.688C1850.86 722.163 1850.86 732.338 1856.82 738.35ZM1876.83 642.616C1881.94 637.067 1881.94 627.817 1876.83 622.267C1871.72 616.717 1863.21 616.717 1858.1 622.267C1852.99 627.817 1852.99 637.067 1858.1 642.616C1863.21 648.166 1871.3 648.166 1876.83 642.616ZM1878.11 1402.01C1884.07 1395.53 1884.07 1384.9 1878.11 1378.42C1872.15 1371.95 1862.36 1371.95 1856.39 1378.42C1850.43 1384.9 1850.43 1395.53 1856.39 1402.01C1862.36 1408.48 1872.15 1408.48 1878.11 1402.01ZM1921.55 311.943C1927.51 305.468 1927.51 295.294 1921.55 289.281C1915.58 282.807 1906.22 282.807 1900.68 289.281C1894.72 295.756 1894.72 305.931 1900.68 311.943C1906.22 318.418 1915.58 318.418 1921.55 311.943ZM1919.84 575.094C1914.73 569.544 1907.07 569.544 1901.96 575.094C1896.85 580.644 1896.85 588.969 1901.96 594.518C1907.07 600.068 1914.73 600.068 1919.84 594.518C1924.95 589.431 1924.95 580.644 1919.84 575.094ZM1919.84 499.71C1924.53 494.623 1924.53 485.836 1919.84 480.748C1915.16 475.661 1907.07 475.661 1902.38 480.748C1897.7 485.836 1897.7 494.623 1902.38 499.71C1907.07 505.26 1914.73 505.26 1919.84 499.71ZM1901.96 405.364C1907.07 410.914 1915.16 410.914 1919.84 405.364C1924.95 399.814 1924.95 391.027 1919.84 385.94C1914.73 380.853 1906.64 380.39 1901.96 385.94C1896.85 391.027 1896.85 399.814 1901.96 405.364ZM1921.12 668.978C1915.58 662.965 1906.64 662.965 1901.11 668.978C1895.57 674.99 1895.57 684.702 1901.11 691.177C1906.64 697.189 1915.58 697.189 1921.12 691.177C1926.66 684.702 1926.66 674.99 1921.12 668.978ZM1901.11 763.786C1895.57 769.798 1895.57 779.048 1901.11 785.06C1906.64 791.073 1915.16 791.073 1920.69 785.06C1926.23 779.048 1926.23 769.798 1920.69 763.786C1915.16 757.774 1906.64 757.774 1901.11 763.786ZM1921.55 858.132C1915.58 851.657 1906.64 851.657 1900.68 858.132C1894.72 864.607 1894.72 874.781 1900.68 880.794C1906.64 887.268 1915.58 887.268 1921.55 880.794C1927.08 874.319 1927.08 864.144 1921.55 858.132ZM1921.55 952.478C1915.58 946.003 1906.22 946.003 1900.68 952.478C1894.72 958.953 1894.72 969.127 1900.68 975.14C1906.64 981.614 1916.01 981.614 1921.55 975.14C1927.08 969.127 1927.08 958.953 1921.55 952.478ZM1921.97 1070.41C1927.93 1063.94 1927.93 1053.3 1921.97 1046.82C1916.01 1040.35 1906.22 1040.35 1900.25 1046.82C1894.29 1053.3 1894.29 1063.94 1900.25 1070.41C1906.22 1076.89 1915.58 1076.89 1921.97 1070.41ZM1965.41 359.578C1971.37 353.104 1971.37 342.929 1965.41 336.454C1959.44 329.98 1950.08 329.98 1944.11 336.454C1938.15 342.929 1938.15 353.104 1944.11 359.578C1949.65 366.053 1959.44 366.053 1965.41 359.578ZM1944.97 642.616C1950.08 648.166 1958.59 648.166 1963.7 642.616C1968.81 637.067 1968.81 627.817 1963.7 622.267C1958.59 616.717 1950.08 616.717 1944.97 622.267C1939.86 627.817 1939.86 637.067 1944.97 642.616ZM1944.97 717.076C1939.86 722.625 1939.86 731.875 1944.97 737.425C1950.08 742.974 1958.59 742.974 1963.7 737.425C1968.81 731.875 1968.81 722.625 1963.7 717.076C1958.59 711.063 1950.5 711.063 1944.97 717.076ZM1944.97 548.27C1950.5 554.283 1959.02 554.283 1964.55 548.27C1970.09 542.258 1970.09 533.009 1964.55 526.996C1959.02 520.984 1950.5 520.984 1944.97 526.996C1939.43 533.009 1939.43 542.258 1944.97 548.27ZM1963.7 452.537C1968.81 446.987 1968.81 438.663 1963.7 433.113C1958.59 427.563 1950.93 427.563 1945.82 433.113C1940.71 438.663 1940.71 446.987 1945.82 452.537C1950.93 458.087 1958.59 458.087 1963.7 452.537ZM1965.41 833.621C1971.37 827.146 1971.37 816.509 1965.41 810.034C1959.44 803.56 1949.65 803.56 1943.69 810.034C1937.73 816.509 1937.73 827.146 1943.69 833.621C1949.65 840.095 1959.44 840.095 1965.41 833.621ZM2008.84 406.751C2014.8 400.277 2014.8 390.102 2008.84 384.09C2002.88 377.615 1993.51 377.615 1987.97 384.09C1982.01 390.565 1982.01 400.739 1987.97 406.751C1993.51 413.226 2002.88 413.226 2008.84 406.751ZM1988.83 500.635C1993.94 506.185 2002.45 506.185 2007.99 500.635C2013.1 495.085 2013.1 485.836 2007.99 479.823C2002.88 474.273 1994.36 474.273 1988.83 479.823C1983.29 485.373 1983.29 495.085 1988.83 500.635ZM1989.25 575.557C1984.57 580.644 1984.57 589.431 1989.25 594.981C1993.94 600.068 2002.03 600.068 2007.14 594.981C2011.82 589.894 2011.82 581.106 2007.14 575.557C2002.03 570.007 1994.36 570.007 1989.25 575.557ZM2008.84 691.177C2014.8 684.702 2014.8 674.527 2008.84 668.053C2002.88 661.578 1993.51 661.578 1987.55 668.053C1981.59 674.527 1981.59 684.702 1987.55 691.177C1993.51 697.651 2002.88 697.651 2008.84 691.177ZM2007.99 953.403C2002.45 947.391 1993.94 947.391 1988.83 953.403C1983.29 959.415 1983.29 968.665 1988.83 974.215C1994.36 980.227 2002.88 980.227 2007.99 974.215C2013.1 968.665 2013.1 959.415 2007.99 953.403ZM2007.14 878.944C2012.25 873.394 2012.25 864.607 2007.14 859.057C2002.03 853.507 1993.94 853.507 1988.83 859.057C1983.72 864.607 1983.72 873.394 1988.83 878.944C1993.94 884.493 2002.03 884.493 2007.14 878.944ZM2007.56 1143.02C2002.45 1137.47 1993.94 1137.47 1988.4 1143.02C1983.29 1148.57 1983.29 1157.82 1988.4 1163.83C1993.51 1169.38 2002.03 1169.38 2007.56 1163.83C2013.1 1158.28 2013.1 1149.03 2007.56 1143.02ZM2007.56 1068.56C2012.67 1063.01 2012.67 1054.22 2007.56 1048.67C2002.45 1043.12 1994.36 1043.12 1989.25 1048.67C1984.14 1054.22 1984.14 1063.01 1989.25 1068.56C1993.94 1074.11 2002.45 1074.11 2007.56 1068.56ZM2008.41 1237.37C2002.88 1231.35 1993.94 1231.35 1987.97 1237.37C1982.44 1243.38 1982.44 1253.09 1987.97 1259.56C1993.51 1265.58 2002.45 1265.58 2008.41 1259.56C2013.95 1253.09 2013.95 1243.38 2008.41 1237.37ZM1987.55 785.985C1993.51 792.46 2002.88 792.46 2008.84 785.985C2014.8 779.51 2014.8 769.336 2008.84 762.861C2002.88 756.386 1993.51 756.386 1987.55 762.861C1981.59 769.336 1981.59 779.51 1987.55 785.985ZM2008.84 1354.84C2014.8 1348.36 2014.8 1337.72 2008.84 1331.71C2002.88 1325.24 1993.08 1325.24 1987.55 1331.71C1981.59 1338.19 1981.59 1348.82 1987.55 1354.84C1993.51 1361.31 2002.88 1361.31 2008.84 1354.84ZM2051.85 453.924C2057.38 447.912 2057.38 438.2 2051.85 432.188C2046.31 426.176 2037.37 426.176 2031.83 432.188C2026.3 438.2 2026.3 447.912 2031.83 453.924C2037.37 459.937 2046.31 459.937 2051.85 453.924ZM2032.69 527.921C2027.58 533.471 2027.58 542.258 2032.69 547.808C2037.8 553.358 2045.89 553.358 2051 547.808C2056.11 542.258 2056.11 533.471 2051 527.921C2045.89 522.371 2037.8 522.371 2032.69 527.921ZM2052.27 643.541C2057.81 637.067 2057.81 627.354 2052.27 620.88C2046.31 614.405 2037.37 614.405 2031.41 620.88C2025.87 626.892 2025.87 637.067 2031.41 643.541C2036.94 650.016 2046.31 650.016 2052.27 643.541ZM2032.26 716.613C2026.72 722.625 2026.72 731.875 2032.26 737.887C2037.8 743.9 2046.31 743.9 2051.85 737.887C2057.38 731.875 2057.38 722.625 2051.85 716.613C2046.31 710.601 2037.37 710.601 2032.26 716.613ZM2052.7 833.621C2058.66 827.146 2058.66 816.509 2052.7 810.034C2046.74 803.56 2036.94 803.56 2030.98 810.034C2025.02 816.509 2025.02 827.146 2030.98 833.621C2036.94 840.095 2046.74 840.095 2052.7 833.621ZM2094.86 500.172C2099.97 494.623 2099.97 485.836 2094.86 480.286C2089.75 474.736 2081.66 474.736 2076.55 480.286C2071.44 485.836 2071.44 494.623 2076.55 500.172C2081.23 505.722 2089.75 505.722 2094.86 500.172ZM2096.13 596.368C2102.1 589.894 2102.1 579.719 2096.13 573.707C2090.17 567.232 2080.8 567.232 2075.27 573.707C2069.31 580.182 2069.31 590.356 2075.27 596.368C2080.8 602.843 2090.17 602.843 2096.13 596.368ZM2138.29 547.345C2143.4 541.796 2143.4 533.008 2138.29 527.459C2133.18 521.909 2125.09 521.909 2119.98 527.459C2114.87 533.008 2114.87 541.796 2119.98 547.345C2125.09 552.895 2133.18 552.895 2138.29 547.345ZM2138.29 642.616C2143.4 637.067 2143.4 627.817 2138.29 622.267C2133.18 616.717 2124.67 616.717 2119.56 622.267C2114.45 627.817 2114.45 637.067 2119.56 642.616C2124.67 648.166 2133.18 648.166 2138.29 642.616ZM2139.99 738.812C2145.96 732.337 2145.96 721.7 2139.99 715.688C2134.03 709.676 2124.24 709.213 2118.7 715.688C2112.74 722.163 2112.74 732.8 2118.7 738.812C2124.24 745.287 2134.03 745.287 2139.99 738.812ZM2182.58 595.906C2188.11 589.894 2188.11 580.182 2182.58 574.169C2177.04 568.157 2168.1 568.157 2162.56 574.169C2157.03 580.182 2157.03 589.894 2162.56 595.906C2168.1 601.918 2177.04 601.918 2182.58 595.906ZM2183.43 691.177C2189.39 684.702 2189.39 674.527 2183.43 668.053C2177.47 661.578 2168.1 661.578 2162.14 668.053C2156.18 674.527 2156.18 684.702 2162.14 691.177C2168.1 697.651 2177.47 697.651 2183.43 691.177ZM2162.99 1069.02C2168.1 1074.57 2176.62 1074.57 2182.15 1069.02C2187.26 1063.47 2187.26 1054.22 2182.15 1048.21C2177.04 1042.66 2168.53 1042.66 2162.99 1048.21C2157.88 1054.22 2157.88 1063.47 2162.99 1069.02ZM2163.42 1143.48C2158.31 1149.03 2158.31 1157.82 2163.42 1163.37C2168.53 1168.92 2176.62 1168.92 2181.73 1163.37C2186.84 1157.82 2186.84 1149.03 2181.73 1143.48C2176.62 1138.4 2168.53 1138.4 2163.42 1143.48ZM2163.42 878.944C2168.53 884.493 2176.62 884.493 2181.73 878.944C2186.84 873.394 2186.84 864.607 2181.73 859.057C2176.62 853.507 2168.53 853.507 2163.42 859.057C2158.73 865.069 2158.73 873.856 2163.42 878.944ZM2163.84 954.328C2158.73 959.878 2158.73 968.202 2163.84 973.752C2168.95 979.302 2176.62 979.302 2181.73 973.752C2186.84 968.202 2186.84 959.878 2181.73 954.328C2176.62 949.241 2168.53 949.241 2163.84 954.328ZM2163.42 784.598C2168.53 790.148 2176.62 790.148 2181.73 784.598C2186.84 779.048 2186.84 770.261 2181.73 764.711C2176.62 759.161 2168.53 759.161 2163.42 764.711C2158.31 769.798 2158.31 779.048 2163.42 784.598ZM2183.43 1260.03C2189.39 1253.55 2189.39 1242.92 2183.43 1236.44C2177.47 1229.97 2167.67 1229.97 2161.71 1236.44C2155.75 1242.92 2155.75 1253.55 2161.71 1260.03C2167.67 1266.5 2177.47 1266.5 2183.43 1260.03ZM2225.59 642.616C2230.7 637.067 2230.7 628.279 2225.59 622.73C2220.48 617.18 2212.39 617.18 2207.28 622.73C2202.17 628.279 2202.17 637.067 2207.28 642.616C2211.96 647.704 2220.48 647.704 2225.59 642.616ZM2225.59 737.425C2230.7 731.875 2230.7 722.625 2225.59 717.076C2220.48 711.526 2211.96 711.526 2206.85 717.076C2201.74 722.625 2201.74 731.875 2206.85 737.425C2211.96 742.974 2220.48 742.974 2225.59 737.425ZM2226.86 833.621C2232.83 827.146 2232.83 816.509 2226.86 810.034C2220.9 803.56 2211.11 803.56 2205.57 810.034C2199.61 816.509 2199.61 827.146 2205.57 833.621C2211.53 840.095 2220.9 840.095 2226.86 833.621ZM2270.3 690.714C2275.83 684.702 2275.83 674.528 2270.3 668.515C2264.76 662.503 2255.39 662.503 2249.86 668.515C2244.32 674.528 2244.32 684.702 2249.86 690.714C2255.39 697.189 2264.34 697.189 2270.3 690.714ZM2270.3 785.985C2275.83 779.973 2275.83 769.798 2270.3 763.324C2264.76 757.311 2255.39 757.311 2249.43 763.324C2243.9 769.336 2243.9 779.51 2249.43 785.985C2255.39 791.997 2264.76 791.997 2270.3 785.985ZM2251.14 859.52C2246.45 864.607 2246.45 873.394 2251.14 878.481C2255.82 883.569 2263.91 883.569 2268.59 878.481C2273.28 873.394 2273.28 864.607 2268.59 859.52C2263.91 854.432 2255.82 854.432 2251.14 859.52ZM2270.72 975.602C2276.69 969.127 2276.69 958.953 2270.72 952.478C2264.76 946.003 2255.39 946.003 2249.43 952.478C2243.47 958.953 2243.47 969.127 2249.43 975.602C2254.97 982.077 2264.76 982.077 2270.72 975.602ZM2251.14 1049.14C2246.45 1054.22 2246.45 1063.01 2251.14 1068.1C2255.82 1073.19 2263.91 1073.19 2268.59 1068.1C2273.28 1063.01 2273.28 1054.22 2268.59 1049.14C2263.91 1044.05 2255.82 1044.05 2251.14 1049.14ZM2270.72 1165.22C2276.69 1158.74 2276.69 1148.11 2270.72 1141.63C2264.76 1135.16 2254.97 1135.16 2249.01 1141.63C2243.04 1148.11 2243.04 1158.74 2249.01 1165.22C2254.97 1171.69 2264.76 1171.69 2270.72 1165.22ZM2312.45 736.962C2317.56 731.413 2317.56 722.625 2312.45 717.076C2307.34 711.526 2299.25 711.526 2294.14 717.076C2289.03 722.625 2289.03 731.413 2294.14 736.962C2299.25 742.512 2307.77 742.512 2312.45 736.962ZM2313.73 833.158C2319.27 827.146 2319.27 816.971 2313.73 810.959C2308.2 804.947 2298.83 804.947 2293.29 810.959C2287.76 816.971 2287.76 827.146 2293.29 833.158C2298.83 839.17 2308.2 839.17 2313.73 833.158ZM2356.74 785.06C2362.28 779.048 2362.28 769.798 2356.74 763.786C2351.21 757.774 2342.69 757.774 2337.15 763.786C2331.62 769.798 2331.62 779.048 2337.15 785.06C2342.69 791.073 2351.63 791.073 2356.74 785.06ZM2358.02 880.794C2363.98 874.319 2363.98 863.682 2358.02 857.207C2352.06 850.732 2342.26 850.732 2336.3 857.207C2330.34 863.682 2330.34 874.319 2336.3 880.794C2342.26 887.268 2352.06 887.268 2358.02 880.794ZM2400.6 832.233C2405.71 826.683 2405.71 816.971 2400.6 811.422C2395.49 805.872 2386.55 805.872 2381.44 811.422C2376.33 816.971 2376.33 826.683 2381.44 832.233C2386.55 838.245 2395.07 838.245 2400.6 832.233ZM2401.45 927.967C2407.41 921.492 2407.41 911.317 2401.45 904.843C2395.49 898.368 2386.12 898.368 2380.16 904.843C2374.2 911.317 2374.2 921.492 2380.16 927.967C2386.12 934.441 2395.49 934.441 2401.45 927.967ZM2445.31 880.794C2451.27 874.319 2451.27 863.682 2445.31 857.207C2439.35 850.732 2429.56 850.732 2423.6 857.207C2417.63 863.682 2417.63 874.319 2423.6 880.794C2429.56 887.268 2439.35 887.268 2445.31 880.794ZM2488.75 905.305C2482.79 898.83 2473.42 898.83 2467.46 905.305C2461.49 911.78 2461.49 921.954 2467.46 928.429C2473.42 934.904 2482.79 934.904 2488.75 928.429C2494.71 921.954 2494.71 911.317 2488.75 905.305Z" fill="#B0DEED"/>
</svg>
