<svg width="4522" height="4522" viewBox="0 0 4522 4522" fill="none" xmlns="http://www.w3.org/2000/svg">
<path d="M2799.95 1502.41C3185.03 1308.81 3655.81 1464.57 3849.43 1849.67C4043.04 2234.77 3887.2 2705.46 3502.13 2899.06C3117.05 3092.66 2646.26 2936.9 2452.69 2551.89C2259.13 2166.88 2414.87 1696.01 2799.95 1502.41ZM3505.9 2906.56C3895.13 2710.87 4052.56 2234.98 3856.94 1845.89C3661.33 1456.8 3185.4 1299.2 2796.17 1494.89C2406.93 1690.58 2249.5 2166.42 2445.19 2555.66C2640.89 2944.9 3116.65 3102.26 3505.9 2906.56Z" fill="#C01466"/>
<path d="M2039.13 1030.98C2684.08 706.725 3472.58 967.602 3796.85 1612.59C4121.13 2257.58 3860.12 3045.91 3215.17 3370.16C2570.22 3694.42 1781.73 3433.54 1457.53 2788.71C1133.34 2143.87 1394.18 1355.23 2039.13 1030.98ZM3221.49 3382.73C3873.4 3054.98 4137.07 2257.92 3809.44 1606.26C3481.82 954.599 2684.71 690.635 2032.8 1018.39C1380.89 1346.14 1117.21 2143.1 1444.97 2795.02C1772.72 3446.95 2569.56 3710.49 3221.49 3382.73Z" fill="#C01466"/>
<path d="M1551.44 733.989C2393.41 342.793 3396.64 709.48 3787.86 1551.49C4179.08 2393.51 3812.24 3396.52 2970.28 3787.72C2128.32 4178.91 1125.08 3812.23 733.957 2970.41C342.831 2128.6 709.483 1125.18 1551.44 733.989ZM2977.9 3804.12C3828.95 3408.7 4199.57 2394.58 3804.3 1543.86C3409.04 693.132 2394.85 322.134 1543.81 717.55C692.761 1112.97 322.127 2126.97 717.552 2978.04C1112.98 3829.1 2126.82 4199.55 2977.9 3804.12Z" fill="#C01466"/>
</svg>
