<svg width="292" height="104" viewBox="0 0 292 104" fill="none" xmlns="http://www.w3.org/2000/svg">
<path d="M15.36 10.672C15.36 12.096 15.136 13.336 14.688 14.392C14.24 15.448 13.608 16.328 12.792 17.032C11.992 17.736 11.032 18.264 9.912 18.616C8.792 18.968 7.56 19.144 6.216 19.144C5.544 19.144 4.84 19.104 4.104 19.024C3.368 18.96 2.72 18.856 2.16 18.712V2.68C2.72 2.52 3.368 2.408 4.104 2.344C4.84 2.264 5.544 2.224 6.216 2.224C7.56 2.224 8.792 2.4 9.912 2.752C11.032 3.104 11.992 3.632 12.792 4.336C13.608 5.04 14.24 5.92 14.688 6.976C15.136 8.032 15.36 9.264 15.36 10.672ZM3.792 17.56C3.888 17.576 4.128 17.608 4.512 17.656C4.912 17.704 5.544 17.728 6.408 17.728C7.608 17.728 8.656 17.568 9.552 17.248C10.448 16.912 11.2 16.44 11.808 15.832C12.416 15.224 12.872 14.488 13.176 13.624C13.48 12.744 13.632 11.76 13.632 10.672C13.632 9.584 13.48 8.608 13.176 7.744C12.872 6.88 12.416 6.144 11.808 5.536C11.2 4.928 10.448 4.464 9.552 4.144C8.656 3.808 7.608 3.64 6.408 3.64C5.544 3.64 4.912 3.664 4.512 3.712C4.128 3.76 3.888 3.792 3.792 3.808V17.56ZM20.4756 19H18.9156V6.592H20.4756V19ZM20.8356 2.848C20.8356 3.216 20.7236 3.512 20.4996 3.736C20.2756 3.944 20.0036 4.048 19.6836 4.048C19.3636 4.048 19.0916 3.944 18.8676 3.736C18.6436 3.512 18.5316 3.216 18.5316 2.848C18.5316 2.48 18.6436 2.192 18.8676 1.984C19.0916 1.76 19.3636 1.648 19.6836 1.648C20.0036 1.648 20.2756 1.76 20.4996 1.984C20.7236 2.192 20.8356 2.48 20.8356 2.848ZM23.8669 12.784C23.8669 11.696 24.0189 10.752 24.3229 9.952C24.6429 9.136 25.0509 8.456 25.5469 7.912C26.0589 7.368 26.6349 6.968 27.2749 6.712C27.9309 6.44 28.6029 6.304 29.2909 6.304C30.8109 6.304 32.0189 6.8 32.9149 7.792C33.8269 8.784 34.2829 10.312 34.2829 12.376C34.2829 12.504 34.2749 12.632 34.2589 12.76C34.2589 12.888 34.2509 13.008 34.2349 13.12H25.5229C25.5709 14.64 25.9469 15.808 26.6509 16.624C27.3549 17.44 28.4749 17.848 30.0109 17.848C30.8589 17.848 31.5309 17.768 32.0269 17.608C32.5229 17.448 32.8829 17.312 33.1069 17.2L33.3949 18.544C33.1709 18.672 32.7469 18.824 32.1229 19C31.5149 19.176 30.7949 19.264 29.9629 19.264C28.8749 19.264 27.9469 19.104 27.1789 18.784C26.4109 18.464 25.7789 18.016 25.2829 17.44C24.7869 16.864 24.4269 16.184 24.2029 15.4C23.9789 14.6 23.8669 13.728 23.8669 12.784ZM32.6749 11.8C32.6429 10.504 32.3389 9.496 31.7629 8.776C31.1869 8.056 30.3709 7.696 29.3149 7.696C28.7549 7.696 28.2509 7.808 27.8029 8.032C27.3709 8.256 26.9869 8.56 26.6509 8.944C26.3309 9.312 26.0749 9.744 25.8829 10.24C25.7069 10.736 25.6029 11.256 25.5709 11.8H32.6749ZM67.3147 18.616C66.8507 18.776 66.2587 18.928 65.5387 19.072C64.8187 19.216 63.9067 19.288 62.8027 19.288C61.8907 19.288 61.0587 19.144 60.3067 18.856C59.5707 18.552 58.9307 18.12 58.3867 17.56C57.8587 17 57.4427 16.32 57.1387 15.52C56.8507 14.72 56.7067 13.816 56.7067 12.808C56.7067 11.864 56.8267 11 57.0667 10.216C57.3227 9.416 57.6907 8.728 58.1707 8.152C58.6507 7.576 59.2347 7.128 59.9227 6.808C60.6267 6.488 61.4267 6.328 62.3227 6.328C63.1387 6.328 63.8427 6.448 64.4347 6.688C65.0427 6.912 65.4827 7.128 65.7547 7.336V0.663999L67.3147 0.375999V18.616ZM65.7547 8.848C65.6107 8.736 65.4267 8.616 65.2027 8.488C64.9947 8.36 64.7467 8.24 64.4587 8.128C64.1707 8.016 63.8587 7.928 63.5227 7.864C63.1867 7.784 62.8347 7.744 62.4667 7.744C61.6987 7.744 61.0507 7.88 60.5227 8.152C60.0107 8.424 59.5947 8.792 59.2747 9.256C58.9547 9.704 58.7227 10.24 58.5787 10.864C58.4347 11.472 58.3627 12.12 58.3627 12.808C58.3627 14.44 58.7707 15.696 59.5867 16.576C60.4027 17.44 61.4827 17.872 62.8267 17.872C63.5947 17.872 64.2107 17.84 64.6747 17.776C65.1547 17.696 65.5147 17.616 65.7547 17.536V8.848ZM73.0029 19H71.4429V6.592H73.0029V19ZM73.3629 2.848C73.3629 3.216 73.2509 3.512 73.0269 3.736C72.8029 3.944 72.5309 4.048 72.2109 4.048C71.8909 4.048 71.6189 3.944 71.3949 3.736C71.1709 3.512 71.0589 3.216 71.0589 2.848C71.0589 2.48 71.1709 2.192 71.3949 1.984C71.6189 1.76 71.8909 1.648 72.2109 1.648C72.5309 1.648 72.8029 1.76 73.0269 1.984C73.2509 2.192 73.3629 2.48 73.3629 2.848ZM85.2262 17.56C85.1302 17.64 84.9862 17.736 84.7942 17.848C84.6022 17.944 84.3622 18.048 84.0742 18.16C83.8022 18.272 83.4822 18.368 83.1142 18.448C82.7622 18.512 82.3622 18.544 81.9142 18.544C81.1942 18.544 80.4982 18.432 79.8262 18.208C79.1542 17.984 78.5622 17.632 78.0502 17.152C77.5542 16.672 77.1542 16.056 76.8502 15.304C76.5462 14.536 76.3942 13.608 76.3942 12.52C76.3942 11.64 76.5302 10.824 76.8022 10.072C77.0742 9.32 77.4582 8.672 77.9542 8.128C78.4662 7.568 79.0822 7.136 79.8022 6.832C80.5382 6.512 81.3622 6.352 82.2742 6.352C83.4262 6.352 84.3462 6.432 85.0342 6.592C85.7382 6.736 86.3142 6.88 86.7622 7.024V18.352C86.7622 20.208 86.2822 21.528 85.3222 22.312C84.3622 23.112 82.9142 23.512 80.9782 23.512C80.1782 23.512 79.4502 23.448 78.7942 23.32C78.1542 23.208 77.6022 23.072 77.1382 22.912L77.4502 21.496C77.8342 21.672 78.3542 21.824 79.0102 21.952C79.6822 22.08 80.3542 22.144 81.0262 22.144C82.4982 22.144 83.5622 21.856 84.2182 21.28C84.8902 20.72 85.2262 19.752 85.2262 18.376V17.56ZM85.2022 8.104C84.9302 8.024 84.5782 7.952 84.1462 7.888C83.7142 7.808 83.0982 7.768 82.2982 7.768C81.6262 7.768 81.0262 7.888 80.4982 8.128C79.9862 8.352 79.5462 8.68 79.1782 9.112C78.8102 9.528 78.5302 10.032 78.3382 10.624C78.1462 11.2 78.0502 11.84 78.0502 12.544C78.0502 13.36 78.1622 14.064 78.3862 14.656C78.6102 15.232 78.8982 15.704 79.2502 16.072C79.6182 16.44 80.0342 16.712 80.4982 16.888C80.9622 17.048 81.4342 17.128 81.9142 17.128C82.6182 17.128 83.2582 17.024 83.8342 16.816C84.4262 16.608 84.8822 16.368 85.2022 16.096V8.104ZM92.456 19H90.896V6.592H92.456V19ZM92.816 2.848C92.816 3.216 92.704 3.512 92.48 3.736C92.256 3.944 91.984 4.048 91.664 4.048C91.344 4.048 91.072 3.944 90.848 3.736C90.624 3.512 90.512 3.216 90.512 2.848C90.512 2.48 90.624 2.192 90.848 1.984C91.072 1.76 91.344 1.648 91.664 1.648C91.984 1.648 92.256 1.76 92.48 1.984C92.704 2.192 92.816 2.48 92.816 2.848ZM98.0553 6.592H102.999V7.912H98.0553V14.512C98.0553 15.216 98.1113 15.792 98.2233 16.24C98.3513 16.672 98.5273 17.008 98.7513 17.248C98.9753 17.488 99.2473 17.648 99.5673 17.728C99.8873 17.808 100.239 17.848 100.623 17.848C101.279 17.848 101.807 17.776 102.207 17.632C102.607 17.472 102.919 17.328 103.143 17.2L103.527 18.496C103.303 18.64 102.911 18.808 102.351 19C101.791 19.176 101.183 19.264 100.527 19.264C99.7593 19.264 99.1113 19.168 98.5833 18.976C98.0713 18.768 97.6553 18.464 97.3353 18.064C97.0313 17.648 96.8153 17.136 96.6873 16.528C96.5593 15.92 96.4953 15.2 96.4953 14.368V2.944L98.0553 2.656V6.592ZM109.785 17.872C110.393 17.872 110.921 17.856 111.369 17.824C111.833 17.776 112.225 17.72 112.545 17.656V13.288C112.369 13.208 112.089 13.128 111.705 13.048C111.321 12.952 110.793 12.904 110.121 12.904C109.737 12.904 109.337 12.936 108.921 13C108.505 13.048 108.121 13.168 107.769 13.36C107.417 13.536 107.129 13.784 106.905 14.104C106.681 14.424 106.569 14.848 106.569 15.376C106.569 15.84 106.641 16.232 106.785 16.552C106.945 16.872 107.161 17.128 107.433 17.32C107.721 17.512 108.057 17.656 108.441 17.752C108.841 17.832 109.289 17.872 109.785 17.872ZM109.641 6.304C110.457 6.304 111.145 6.424 111.705 6.664C112.281 6.888 112.745 7.208 113.097 7.624C113.449 8.024 113.705 8.504 113.865 9.064C114.025 9.624 114.105 10.232 114.105 10.888V18.712C113.945 18.76 113.713 18.816 113.409 18.88C113.105 18.928 112.753 18.984 112.353 19.048C111.953 19.112 111.505 19.16 111.009 19.192C110.529 19.24 110.033 19.264 109.521 19.264C108.865 19.264 108.257 19.192 107.697 19.048C107.153 18.904 106.673 18.68 106.257 18.376C105.857 18.056 105.537 17.656 105.297 17.176C105.073 16.68 104.961 16.08 104.961 15.376C104.961 14.704 105.089 14.128 105.345 13.648C105.601 13.168 105.961 12.776 106.425 12.472C106.889 12.152 107.441 11.92 108.081 11.776C108.721 11.632 109.417 11.56 110.169 11.56C110.393 11.56 110.625 11.576 110.865 11.608C111.121 11.624 111.361 11.656 111.585 11.704C111.825 11.736 112.025 11.776 112.185 11.824C112.361 11.856 112.481 11.888 112.545 11.92V11.152C112.545 10.72 112.513 10.304 112.449 9.904C112.385 9.488 112.241 9.12 112.017 8.8C111.809 8.464 111.505 8.2 111.105 8.008C110.721 7.8 110.209 7.696 109.569 7.696C108.657 7.696 107.977 7.76 107.529 7.888C107.081 8.016 106.753 8.12 106.545 8.2L106.329 6.832C106.601 6.704 107.017 6.584 107.577 6.472C108.153 6.36 108.841 6.304 109.641 6.304ZM121.228 19.216C120.7 19.2 120.236 19.128 119.836 19C119.452 18.888 119.124 18.712 118.852 18.472C118.596 18.216 118.396 17.896 118.252 17.512C118.124 17.112 118.06 16.616 118.06 16.024V0.663999L119.62 0.375999V15.976C119.62 16.36 119.652 16.672 119.716 16.912C119.796 17.136 119.908 17.32 120.052 17.464C120.196 17.592 120.38 17.688 120.604 17.752C120.844 17.816 121.124 17.872 121.444 17.92L121.228 19.216ZM123.457 12.784C123.457 11.696 123.609 10.752 123.913 9.952C124.233 9.136 124.641 8.456 125.137 7.912C125.649 7.368 126.225 6.968 126.865 6.712C127.521 6.44 128.193 6.304 128.881 6.304C130.401 6.304 131.609 6.8 132.505 7.792C133.417 8.784 133.873 10.312 133.873 12.376C133.873 12.504 133.865 12.632 133.849 12.76C133.849 12.888 133.841 13.008 133.825 13.12H125.113C125.161 14.64 125.537 15.808 126.241 16.624C126.945 17.44 128.065 17.848 129.601 17.848C130.449 17.848 131.121 17.768 131.617 17.608C132.113 17.448 132.473 17.312 132.697 17.2L132.985 18.544C132.761 18.672 132.337 18.824 131.713 19C131.105 19.176 130.385 19.264 129.553 19.264C128.465 19.264 127.537 19.104 126.769 18.784C126.001 18.464 125.369 18.016 124.873 17.44C124.377 16.864 124.017 16.184 123.793 15.4C123.569 14.6 123.457 13.728 123.457 12.784ZM132.265 11.8C132.233 10.504 131.929 9.496 131.353 8.776C130.777 8.056 129.961 7.696 128.905 7.696C128.345 7.696 127.841 7.808 127.393 8.032C126.961 8.256 126.577 8.56 126.241 8.944C125.921 9.312 125.665 9.744 125.473 10.24C125.297 10.736 125.193 11.256 125.161 11.8H132.265ZM137.349 7.024C137.813 6.896 138.437 6.752 139.221 6.592C140.005 6.432 140.965 6.352 142.101 6.352C143.045 6.352 143.829 6.488 144.453 6.76C145.093 7.032 145.597 7.424 145.965 7.936C146.349 8.432 146.621 9.032 146.781 9.736C146.941 10.44 147.021 11.216 147.021 12.064V19H145.461V12.568C145.461 11.688 145.397 10.944 145.269 10.336C145.157 9.728 144.957 9.232 144.669 8.848C144.397 8.464 144.029 8.192 143.565 8.032C143.117 7.856 142.549 7.768 141.861 7.768C141.125 7.768 140.485 7.808 139.941 7.888C139.413 7.968 139.069 8.04 138.909 8.104V19H137.349V7.024ZM181.985 19C181.681 18.184 181.393 17.4 181.121 16.648C180.849 15.896 180.585 15.16 180.329 14.44H172.241C171.969 15.16 171.697 15.896 171.425 16.648C171.153 17.4 170.873 18.184 170.585 19H168.881C169.521 17.272 170.121 15.664 170.681 14.176C171.241 12.672 171.785 11.256 172.313 9.928C172.857 8.584 173.393 7.296 173.921 6.064C174.449 4.832 175.009 3.6 175.601 2.368H177.041C177.633 3.6 178.193 4.832 178.721 6.064C179.249 7.296 179.777 8.584 180.305 9.928C180.849 11.256 181.401 12.672 181.961 14.176C182.521 15.664 183.129 17.272 183.785 19H181.985ZM176.273 4.24C175.665 5.616 175.073 7.016 174.497 8.44C173.937 9.864 173.353 11.4 172.745 13.048H179.825C179.217 11.4 178.625 9.864 178.049 8.44C177.473 7.016 176.881 5.616 176.273 4.24ZM188.928 17.896C189.824 17.896 190.56 17.752 191.136 17.464C191.728 17.16 192.024 16.656 192.024 15.952C192.024 15.616 191.968 15.328 191.856 15.088C191.76 14.848 191.592 14.632 191.352 14.44C191.112 14.248 190.792 14.064 190.392 13.888C190.008 13.712 189.528 13.504 188.952 13.264C188.488 13.072 188.048 12.88 187.632 12.688C187.216 12.48 186.848 12.248 186.528 11.992C186.208 11.72 185.952 11.4 185.76 11.032C185.568 10.664 185.472 10.216 185.472 9.688C185.472 8.68 185.848 7.864 186.6 7.24C187.368 6.616 188.416 6.304 189.744 6.304C190.592 6.304 191.288 6.376 191.832 6.52C192.392 6.664 192.784 6.792 193.008 6.904L192.648 8.296C192.456 8.2 192.128 8.072 191.664 7.912C191.216 7.752 190.552 7.672 189.672 7.672C189.32 7.672 188.984 7.712 188.664 7.792C188.36 7.856 188.088 7.968 187.848 8.128C187.608 8.272 187.416 8.464 187.272 8.704C187.128 8.928 187.056 9.208 187.056 9.544C187.056 9.88 187.12 10.168 187.248 10.408C187.376 10.648 187.56 10.864 187.8 11.056C188.056 11.232 188.36 11.4 188.712 11.56C189.08 11.72 189.496 11.896 189.96 12.088C190.44 12.28 190.896 12.48 191.328 12.688C191.776 12.88 192.168 13.12 192.504 13.408C192.84 13.68 193.112 14.016 193.32 14.416C193.528 14.8 193.632 15.288 193.632 15.88C193.632 17 193.208 17.848 192.36 18.424C191.528 19 190.384 19.288 188.928 19.288C187.84 19.288 187.008 19.192 186.432 19C185.856 18.824 185.472 18.688 185.28 18.592L185.688 17.176C185.736 17.208 185.84 17.264 186 17.344C186.16 17.408 186.376 17.488 186.648 17.584C186.92 17.664 187.24 17.736 187.608 17.8C187.992 17.864 188.432 17.896 188.928 17.896ZM199.194 17.896C200.09 17.896 200.826 17.752 201.402 17.464C201.994 17.16 202.29 16.656 202.29 15.952C202.29 15.616 202.234 15.328 202.122 15.088C202.026 14.848 201.858 14.632 201.618 14.44C201.378 14.248 201.058 14.064 200.658 13.888C200.274 13.712 199.794 13.504 199.218 13.264C198.754 13.072 198.314 12.88 197.898 12.688C197.482 12.48 197.114 12.248 196.794 11.992C196.474 11.72 196.218 11.4 196.026 11.032C195.834 10.664 195.738 10.216 195.738 9.688C195.738 8.68 196.114 7.864 196.866 7.24C197.634 6.616 198.682 6.304 200.01 6.304C200.858 6.304 201.554 6.376 202.098 6.52C202.658 6.664 203.05 6.792 203.274 6.904L202.914 8.296C202.722 8.2 202.394 8.072 201.93 7.912C201.482 7.752 200.818 7.672 199.938 7.672C199.586 7.672 199.25 7.712 198.93 7.792C198.626 7.856 198.354 7.968 198.114 8.128C197.874 8.272 197.682 8.464 197.538 8.704C197.394 8.928 197.322 9.208 197.322 9.544C197.322 9.88 197.386 10.168 197.514 10.408C197.642 10.648 197.826 10.864 198.066 11.056C198.322 11.232 198.626 11.4 198.978 11.56C199.346 11.72 199.762 11.896 200.226 12.088C200.706 12.28 201.162 12.48 201.594 12.688C202.042 12.88 202.434 13.12 202.77 13.408C203.106 13.68 203.378 14.016 203.586 14.416C203.794 14.8 203.898 15.288 203.898 15.88C203.898 17 203.474 17.848 202.626 18.424C201.794 19 200.65 19.288 199.194 19.288C198.106 19.288 197.274 19.192 196.698 19C196.122 18.824 195.738 18.688 195.546 18.592L195.954 17.176C196.002 17.208 196.106 17.264 196.266 17.344C196.426 17.408 196.642 17.488 196.914 17.584C197.186 17.664 197.506 17.736 197.874 17.8C198.258 17.864 198.698 17.896 199.194 17.896ZM208.476 19H206.916V6.592H208.476V19ZM208.836 2.848C208.836 3.216 208.724 3.512 208.5 3.736C208.276 3.944 208.004 4.048 207.684 4.048C207.364 4.048 207.092 3.944 206.868 3.736C206.644 3.512 206.532 3.216 206.532 2.848C206.532 2.48 206.644 2.192 206.868 1.984C207.092 1.76 207.364 1.648 207.684 1.648C208.004 1.648 208.276 1.76 208.5 1.984C208.724 2.192 208.836 2.48 208.836 2.848ZM215.155 17.896C216.051 17.896 216.787 17.752 217.363 17.464C217.955 17.16 218.251 16.656 218.251 15.952C218.251 15.616 218.195 15.328 218.083 15.088C217.987 14.848 217.819 14.632 217.579 14.44C217.339 14.248 217.019 14.064 216.619 13.888C216.235 13.712 215.755 13.504 215.179 13.264C214.715 13.072 214.275 12.88 213.859 12.688C213.443 12.48 213.075 12.248 212.755 11.992C212.435 11.72 212.179 11.4 211.987 11.032C211.795 10.664 211.699 10.216 211.699 9.688C211.699 8.68 212.075 7.864 212.827 7.24C213.595 6.616 214.643 6.304 215.971 6.304C216.819 6.304 217.515 6.376 218.059 6.52C218.619 6.664 219.011 6.792 219.235 6.904L218.875 8.296C218.683 8.2 218.355 8.072 217.891 7.912C217.443 7.752 216.779 7.672 215.899 7.672C215.547 7.672 215.211 7.712 214.891 7.792C214.587 7.856 214.315 7.968 214.075 8.128C213.835 8.272 213.643 8.464 213.499 8.704C213.355 8.928 213.283 9.208 213.283 9.544C213.283 9.88 213.347 10.168 213.475 10.408C213.603 10.648 213.787 10.864 214.027 11.056C214.283 11.232 214.587 11.4 214.939 11.56C215.307 11.72 215.723 11.896 216.187 12.088C216.667 12.28 217.123 12.48 217.555 12.688C218.003 12.88 218.395 13.12 218.731 13.408C219.067 13.68 219.339 14.016 219.547 14.416C219.755 14.8 219.859 15.288 219.859 15.88C219.859 17 219.435 17.848 218.587 18.424C217.755 19 216.611 19.288 215.155 19.288C214.067 19.288 213.235 19.192 212.659 19C212.083 18.824 211.699 18.688 211.507 18.592L211.915 17.176C211.963 17.208 212.067 17.264 212.227 17.344C212.387 17.408 212.603 17.488 212.875 17.584C213.147 17.664 213.467 17.736 213.835 17.8C214.219 17.864 214.659 17.896 215.155 17.896ZM224.34 6.592H229.285V7.912H224.34V14.512C224.34 15.216 224.397 15.792 224.509 16.24C224.637 16.672 224.813 17.008 225.037 17.248C225.261 17.488 225.533 17.648 225.853 17.728C226.173 17.808 226.525 17.848 226.909 17.848C227.565 17.848 228.093 17.776 228.493 17.632C228.893 17.472 229.205 17.328 229.429 17.2L229.813 18.496C229.589 18.64 229.197 18.808 228.637 19C228.077 19.176 227.469 19.264 226.812 19.264C226.045 19.264 225.397 19.168 224.869 18.976C224.357 18.768 223.941 18.464 223.621 18.064C223.317 17.648 223.101 17.136 222.973 16.528C222.845 15.92 222.781 15.2 222.781 14.368V2.944L224.34 2.656V6.592ZM231.414 12.784C231.414 11.696 231.566 10.752 231.87 9.952C232.19 9.136 232.598 8.456 233.094 7.912C233.606 7.368 234.182 6.968 234.822 6.712C235.478 6.44 236.15 6.304 236.838 6.304C238.358 6.304 239.566 6.8 240.462 7.792C241.374 8.784 241.83 10.312 241.83 12.376C241.83 12.504 241.822 12.632 241.806 12.76C241.806 12.888 241.798 13.008 241.782 13.12H233.07C233.118 14.64 233.494 15.808 234.198 16.624C234.902 17.44 236.022 17.848 237.558 17.848C238.406 17.848 239.078 17.768 239.574 17.608C240.07 17.448 240.43 17.312 240.654 17.2L240.942 18.544C240.718 18.672 240.294 18.824 239.67 19C239.062 19.176 238.342 19.264 237.51 19.264C236.422 19.264 235.494 19.104 234.726 18.784C233.958 18.464 233.326 18.016 232.83 17.44C232.334 16.864 231.974 16.184 231.75 15.4C231.526 14.6 231.414 13.728 231.414 12.784ZM240.222 11.8C240.19 10.504 239.886 9.496 239.31 8.776C238.734 8.056 237.918 7.696 236.862 7.696C236.302 7.696 235.798 7.808 235.35 8.032C234.918 8.256 234.534 8.56 234.198 8.944C233.878 9.312 233.622 9.744 233.43 10.24C233.254 10.736 233.15 11.256 233.118 11.8H240.222ZM245.306 7.024C245.77 6.896 246.394 6.752 247.178 6.592C247.962 6.432 248.922 6.352 250.058 6.352C251.002 6.352 251.786 6.488 252.41 6.76C253.05 7.032 253.554 7.424 253.922 7.936C254.306 8.432 254.578 9.032 254.738 9.736C254.898 10.44 254.978 11.216 254.978 12.064V19H253.418V12.568C253.418 11.688 253.354 10.944 253.226 10.336C253.114 9.728 252.914 9.232 252.626 8.848C252.354 8.464 251.986 8.192 251.522 8.032C251.074 7.856 250.506 7.768 249.818 7.768C249.082 7.768 248.442 7.808 247.898 7.888C247.37 7.968 247.026 8.04 246.866 8.104V19H245.306V7.024ZM260.434 6.592H265.378V7.912H260.434V14.512C260.434 15.216 260.49 15.792 260.602 16.24C260.73 16.672 260.906 17.008 261.13 17.248C261.354 17.488 261.626 17.648 261.946 17.728C262.266 17.808 262.618 17.848 263.002 17.848C263.658 17.848 264.186 17.776 264.586 17.632C264.986 17.472 265.298 17.328 265.522 17.2L265.906 18.496C265.682 18.64 265.29 18.808 264.73 19C264.17 19.176 263.562 19.264 262.906 19.264C262.138 19.264 261.49 19.168 260.962 18.976C260.45 18.768 260.034 18.464 259.714 18.064C259.41 17.648 259.194 17.136 259.066 16.528C258.938 15.92 258.874 15.2 258.874 14.368V2.944L260.434 2.656V6.592ZM267.508 12.784C267.508 11.696 267.66 10.752 267.964 9.952C268.284 9.136 268.692 8.456 269.188 7.912C269.7 7.368 270.276 6.968 270.916 6.712C271.572 6.44 272.244 6.304 272.932 6.304C274.452 6.304 275.66 6.8 276.556 7.792C277.468 8.784 277.924 10.312 277.924 12.376C277.924 12.504 277.916 12.632 277.9 12.76C277.9 12.888 277.892 13.008 277.876 13.12H269.164C269.212 14.64 269.588 15.808 270.292 16.624C270.996 17.44 272.116 17.848 273.652 17.848C274.5 17.848 275.172 17.768 275.668 17.608C276.164 17.448 276.524 17.312 276.748 17.2L277.036 18.544C276.812 18.672 276.388 18.824 275.764 19C275.156 19.176 274.436 19.264 273.604 19.264C272.516 19.264 271.588 19.104 270.82 18.784C270.052 18.464 269.42 18.016 268.924 17.44C268.428 16.864 268.068 16.184 267.844 15.4C267.62 14.6 267.508 13.728 267.508 12.784ZM276.316 11.8C276.284 10.504 275.98 9.496 275.404 8.776C274.828 8.056 274.012 7.696 272.956 7.696C272.396 7.696 271.892 7.808 271.444 8.032C271.012 8.256 270.628 8.56 270.292 8.944C269.972 9.312 269.716 9.744 269.524 10.24C269.348 10.736 269.244 11.256 269.212 11.8H276.316ZM281.4 7.024C281.864 6.896 282.488 6.752 283.272 6.592C284.056 6.432 285.016 6.352 286.152 6.352C287.096 6.352 287.88 6.488 288.504 6.76C289.144 7.032 289.648 7.424 290.016 7.936C290.4 8.432 290.672 9.032 290.832 9.736C290.992 10.44 291.072 11.216 291.072 12.064V19H289.512V12.568C289.512 11.688 289.448 10.944 289.32 10.336C289.208 9.728 289.008 9.232 288.72 8.848C288.448 8.464 288.08 8.192 287.616 8.032C287.168 7.856 286.6 7.768 285.912 7.768C285.176 7.768 284.536 7.808 283.992 7.888C283.464 7.968 283.12 8.04 282.96 8.104V19H281.4V7.024ZM9.768 35.864C9.4 36.28 8.92 36.856 8.328 37.592C7.736 38.328 7.104 39.152 6.432 40.064C5.76 40.96 5.096 41.904 4.44 42.896C3.784 43.872 3.208 44.8 2.712 45.68H9.984V47H0.912V45.872C1.328 45.088 1.84 44.224 2.448 43.28C3.072 42.336 3.712 41.408 4.368 40.496C5.024 39.568 5.664 38.704 6.288 37.904C6.912 37.088 7.44 36.424 7.872 35.912H1.272V34.592H9.768V35.864ZM12.0544 40.784C12.0544 39.696 12.2064 38.752 12.5104 37.952C12.8304 37.136 13.2384 36.456 13.7344 35.912C14.2464 35.368 14.8224 34.968 15.4624 34.712C16.1184 34.44 16.7904 34.304 17.4784 34.304C18.9984 34.304 20.2064 34.8 21.1024 35.792C22.0144 36.784 22.4704 38.312 22.4704 40.376C22.4704 40.504 22.4624 40.632 22.4464 40.76C22.4464 40.888 22.4384 41.008 22.4224 41.12H13.7104C13.7584 42.64 14.1344 43.808 14.8384 44.624C15.5424 45.44 16.6624 45.848 18.1984 45.848C19.0464 45.848 19.7184 45.768 20.2144 45.608C20.7104 45.448 21.0704 45.312 21.2944 45.2L21.5824 46.544C21.3584 46.672 20.9344 46.824 20.3104 47C19.7024 47.176 18.9824 47.264 18.1504 47.264C17.0624 47.264 16.1344 47.104 15.3664 46.784C14.5984 46.464 13.9664 46.016 13.4704 45.44C12.9744 44.864 12.6144 44.184 12.3904 43.4C12.1664 42.6 12.0544 41.728 12.0544 40.784ZM20.8624 39.8C20.8304 38.504 20.5264 37.496 19.9504 36.776C19.3744 36.056 18.5584 35.696 17.5024 35.696C16.9424 35.696 16.4384 35.808 15.9904 36.032C15.5584 36.256 15.1744 36.56 14.8384 36.944C14.5184 37.312 14.2624 37.744 14.0704 38.24C13.8944 38.736 13.7904 39.256 13.7584 39.8H20.8624ZM27.5068 47H25.9468V34.592H27.5068V47ZM27.8668 30.848C27.8668 31.216 27.7548 31.512 27.5308 31.736C27.3068 31.944 27.0348 32.048 26.7148 32.048C26.3948 32.048 26.1228 31.944 25.8988 31.736C25.6748 31.512 25.5628 31.216 25.5628 30.848C25.5628 30.48 25.6748 30.192 25.8988 29.984C26.1228 29.76 26.3948 29.648 26.7148 29.648C27.0348 29.648 27.3068 29.76 27.5308 29.984C27.7548 30.192 27.8668 30.48 27.8668 30.848ZM36.7781 47.264C35.8181 47.264 34.9701 47.112 34.2341 46.808C33.4981 46.504 32.8821 46.072 32.3861 45.512C31.9061 44.936 31.5381 44.256 31.2821 43.472C31.0261 42.672 30.8981 41.792 30.8981 40.832C30.8981 39.856 31.0261 38.968 31.2821 38.168C31.5541 37.368 31.9381 36.68 32.4341 36.104C32.9301 35.528 33.5301 35.088 34.2341 34.784C34.9381 34.464 35.7301 34.304 36.6101 34.304C37.2821 34.304 37.9061 34.36 38.4821 34.472C39.0741 34.584 39.5301 34.728 39.8501 34.904L39.4421 36.248C39.1221 36.088 38.7621 35.96 38.3621 35.864C37.9621 35.768 37.4261 35.72 36.7541 35.72C35.3781 35.72 34.3301 36.168 33.6101 37.064C32.9061 37.944 32.5541 39.2 32.5541 40.832C32.5541 41.568 32.6341 42.248 32.7941 42.872C32.9541 43.48 33.2101 44.008 33.5621 44.456C33.9301 44.888 34.3941 45.232 34.9541 45.488C35.5301 45.728 36.2261 45.848 37.0421 45.848C37.7141 45.848 38.2741 45.776 38.7221 45.632C39.1861 45.472 39.5221 45.336 39.7301 45.224L40.0661 46.568C39.7781 46.728 39.3221 46.88 38.6981 47.024C38.0901 47.184 37.4501 47.264 36.7781 47.264ZM42.6812 47V28.664L44.2412 28.376V34.952C44.7532 34.76 45.2732 34.616 45.8012 34.52C46.3292 34.408 46.8572 34.352 47.3852 34.352C48.3452 34.352 49.1452 34.488 49.7852 34.76C50.4252 35.032 50.9372 35.424 51.3212 35.936C51.7052 36.432 51.9692 37.032 52.1132 37.736C52.2732 38.44 52.3532 39.216 52.3532 40.064V47H50.7932V40.568C50.7932 39.688 50.7292 38.944 50.6012 38.336C50.4892 37.728 50.2892 37.232 50.0012 36.848C49.7292 36.464 49.3612 36.192 48.8972 36.032C48.4332 35.856 47.8492 35.768 47.1452 35.768C46.8732 35.768 46.5772 35.792 46.2572 35.84C45.9532 35.888 45.6652 35.944 45.3932 36.008C45.1212 36.056 44.8732 36.112 44.6492 36.176C44.4412 36.24 44.3052 36.288 44.2412 36.32V47H42.6812ZM56.3453 35.024C56.8093 34.896 57.4333 34.752 58.2173 34.592C59.0013 34.432 59.9613 34.352 61.0973 34.352C62.0413 34.352 62.8253 34.488 63.4493 34.76C64.0893 35.032 64.5933 35.424 64.9613 35.936C65.3453 36.432 65.6173 37.032 65.7773 37.736C65.9373 38.44 66.0173 39.216 66.0173 40.064V47H64.4573V40.568C64.4573 39.688 64.3933 38.944 64.2653 38.336C64.1533 37.728 63.9533 37.232 63.6653 36.848C63.3933 36.464 63.0253 36.192 62.5613 36.032C62.1133 35.856 61.5453 35.768 60.8573 35.768C60.1213 35.768 59.4813 35.808 58.9373 35.888C58.4093 35.968 58.0653 36.04 57.9053 36.104V47H56.3453V35.024ZM69.2653 40.784C69.2653 39.696 69.4173 38.752 69.7213 37.952C70.0413 37.136 70.4493 36.456 70.9453 35.912C71.4573 35.368 72.0333 34.968 72.6733 34.712C73.3293 34.44 74.0013 34.304 74.6893 34.304C76.2093 34.304 77.4173 34.8 78.3133 35.792C79.2253 36.784 79.6813 38.312 79.6813 40.376C79.6813 40.504 79.6733 40.632 79.6573 40.76C79.6573 40.888 79.6493 41.008 79.6333 41.12H70.9213C70.9693 42.64 71.3453 43.808 72.0493 44.624C72.7533 45.44 73.8733 45.848 75.4093 45.848C76.2573 45.848 76.9293 45.768 77.4253 45.608C77.9213 45.448 78.2813 45.312 78.5053 45.2L78.7933 46.544C78.5693 46.672 78.1453 46.824 77.5213 47C76.9133 47.176 76.1933 47.264 75.3613 47.264C74.2733 47.264 73.3453 47.104 72.5773 46.784C71.8093 46.464 71.1773 46.016 70.6813 45.44C70.1853 44.864 69.8253 44.184 69.6013 43.4C69.3773 42.6 69.2653 41.728 69.2653 40.784ZM78.0733 39.8C78.0413 38.504 77.7373 37.496 77.1613 36.776C76.5853 36.056 75.7693 35.696 74.7133 35.696C74.1533 35.696 73.6493 35.808 73.2013 36.032C72.7693 36.256 72.3853 36.56 72.0493 36.944C71.7293 37.312 71.4733 37.744 71.2813 38.24C71.1053 38.736 71.0013 39.256 70.9693 39.8H78.0733ZM83.1578 35.024C83.6218 34.896 84.2458 34.752 85.0298 34.592C85.8138 34.432 86.7738 34.352 87.9098 34.352C88.8538 34.352 89.6378 34.488 90.2618 34.76C90.9018 35.032 91.4058 35.424 91.7738 35.936C92.1578 36.432 92.4298 37.032 92.5898 37.736C92.7498 38.44 92.8298 39.216 92.8298 40.064V47H91.2698V40.568C91.2698 39.688 91.2058 38.944 91.0778 38.336C90.9658 37.728 90.7658 37.232 90.4778 36.848C90.2058 36.464 89.8378 36.192 89.3738 36.032C88.9258 35.856 88.3578 35.768 87.6698 35.768C86.9338 35.768 86.2938 35.808 85.7498 35.888C85.2218 35.968 84.8778 36.04 84.7178 36.104V47H83.1578V35.024ZM175.175 32.408C175.943 34.984 176.711 37.32 177.479 39.416C178.263 41.496 179.023 43.408 179.759 45.152C180.319 43.264 180.871 41.04 181.415 38.48C181.975 35.92 182.511 33.216 183.023 30.368H184.631C184.343 32.08 184.047 33.688 183.743 35.192C183.455 36.68 183.151 38.104 182.831 39.464C182.511 40.808 182.175 42.104 181.823 43.352C181.471 44.584 181.087 45.8 180.671 47H178.919C178.535 46.088 178.151 45.176 177.767 44.264C177.399 43.352 177.031 42.416 176.663 41.456C176.295 40.48 175.927 39.464 175.559 38.408C175.191 37.352 174.815 36.232 174.431 35.048C174.047 36.232 173.663 37.352 173.279 38.408C172.911 39.464 172.543 40.48 172.175 41.456C171.807 42.416 171.431 43.352 171.047 44.264C170.679 45.176 170.303 46.088 169.919 47H168.191C167.759 45.8 167.359 44.584 166.991 43.352C166.639 42.104 166.303 40.808 165.983 39.464C165.679 38.104 165.383 36.68 165.095 35.192C164.823 33.688 164.543 32.08 164.255 30.368H165.935C166.175 31.776 166.423 33.16 166.679 34.52C166.935 35.864 167.199 37.168 167.471 38.432C167.759 39.696 168.047 40.896 168.335 42.032C168.639 43.152 168.935 44.192 169.223 45.152C169.911 43.376 170.647 41.456 171.431 39.392C172.215 37.312 172.991 34.984 173.759 32.408H175.175ZM186.554 40.784C186.554 39.696 186.706 38.752 187.01 37.952C187.33 37.136 187.738 36.456 188.234 35.912C188.746 35.368 189.322 34.968 189.962 34.712C190.618 34.44 191.29 34.304 191.978 34.304C193.498 34.304 194.706 34.8 195.602 35.792C196.514 36.784 196.97 38.312 196.97 40.376C196.97 40.504 196.962 40.632 196.946 40.76C196.946 40.888 196.938 41.008 196.922 41.12H188.21C188.258 42.64 188.634 43.808 189.338 44.624C190.042 45.44 191.162 45.848 192.698 45.848C193.546 45.848 194.218 45.768 194.714 45.608C195.21 45.448 195.57 45.312 195.794 45.2L196.082 46.544C195.858 46.672 195.434 46.824 194.81 47C194.202 47.176 193.482 47.264 192.65 47.264C191.562 47.264 190.634 47.104 189.866 46.784C189.098 46.464 188.466 46.016 187.97 45.44C187.474 44.864 187.114 44.184 186.89 43.4C186.666 42.6 186.554 41.728 186.554 40.784ZM195.362 39.8C195.33 38.504 195.026 37.496 194.45 36.776C193.874 36.056 193.058 35.696 192.002 35.696C191.442 35.696 190.938 35.808 190.49 36.032C190.058 36.256 189.674 36.56 189.338 36.944C189.018 37.312 188.762 37.744 188.57 38.24C188.394 38.736 188.29 39.256 188.258 39.8H195.362ZM204.671 34.352C205.183 34.352 205.663 34.392 206.111 34.472C206.575 34.552 206.895 34.632 207.071 34.712L206.759 36.056C206.631 35.992 206.367 35.928 205.967 35.864C205.583 35.784 205.071 35.744 204.431 35.744C203.759 35.744 203.215 35.792 202.799 35.888C202.399 35.984 202.135 36.064 202.007 36.128V47H200.447V35.168C200.847 34.992 201.399 34.816 202.103 34.64C202.807 34.448 203.663 34.352 204.671 34.352ZM210.887 34.592H215.831V35.912H210.887V42.512C210.887 43.216 210.943 43.792 211.055 44.24C211.183 44.672 211.359 45.008 211.583 45.248C211.807 45.488 212.079 45.648 212.399 45.728C212.719 45.808 213.071 45.848 213.455 45.848C214.111 45.848 214.639 45.776 215.039 45.632C215.439 45.472 215.751 45.328 215.975 45.2L216.359 46.496C216.135 46.64 215.743 46.808 215.183 47C214.623 47.176 214.015 47.264 213.359 47.264C212.591 47.264 211.943 47.168 211.415 46.976C210.903 46.768 210.487 46.464 210.167 46.064C209.863 45.648 209.647 45.136 209.519 44.528C209.391 43.92 209.327 43.2 209.327 42.368V30.944L210.887 30.656V34.592ZM221.249 45.896C222.145 45.896 222.881 45.752 223.457 45.464C224.049 45.16 224.345 44.656 224.345 43.952C224.345 43.616 224.289 43.328 224.177 43.088C224.081 42.848 223.913 42.632 223.673 42.44C223.433 42.248 223.113 42.064 222.713 41.888C222.329 41.712 221.849 41.504 221.273 41.264C220.809 41.072 220.369 40.88 219.953 40.688C219.537 40.48 219.169 40.248 218.849 39.992C218.529 39.72 218.273 39.4 218.081 39.032C217.889 38.664 217.793 38.216 217.793 37.688C217.793 36.68 218.169 35.864 218.921 35.24C219.689 34.616 220.737 34.304 222.065 34.304C222.913 34.304 223.609 34.376 224.153 34.52C224.713 34.664 225.105 34.792 225.329 34.904L224.969 36.296C224.777 36.2 224.449 36.072 223.985 35.912C223.537 35.752 222.873 35.672 221.993 35.672C221.641 35.672 221.305 35.712 220.985 35.792C220.681 35.856 220.409 35.968 220.169 36.128C219.929 36.272 219.737 36.464 219.593 36.704C219.449 36.928 219.377 37.208 219.377 37.544C219.377 37.88 219.441 38.168 219.569 38.408C219.697 38.648 219.881 38.864 220.121 39.056C220.377 39.232 220.681 39.4 221.033 39.56C221.401 39.72 221.817 39.896 222.281 40.088C222.761 40.28 223.217 40.48 223.649 40.688C224.097 40.88 224.489 41.12 224.825 41.408C225.161 41.68 225.433 42.016 225.641 42.416C225.849 42.8 225.953 43.288 225.953 43.88C225.953 45 225.529 45.848 224.681 46.424C223.849 47 222.705 47.288 221.249 47.288C220.161 47.288 219.329 47.192 218.753 47C218.177 46.824 217.793 46.688 217.601 46.592L218.009 45.176C218.057 45.208 218.161 45.264 218.321 45.344C218.481 45.408 218.697 45.488 218.969 45.584C219.241 45.664 219.561 45.736 219.929 45.8C220.313 45.864 220.753 45.896 221.249 45.896ZM230.434 34.592H235.378V35.912H230.434V42.512C230.434 43.216 230.49 43.792 230.602 44.24C230.73 44.672 230.906 45.008 231.13 45.248C231.354 45.488 231.626 45.648 231.946 45.728C232.266 45.808 232.618 45.848 233.002 45.848C233.658 45.848 234.186 45.776 234.586 45.632C234.986 45.472 235.298 45.328 235.522 45.2L235.906 46.496C235.682 46.64 235.29 46.808 234.73 47C234.17 47.176 233.562 47.264 232.906 47.264C232.138 47.264 231.49 47.168 230.962 46.976C230.45 46.768 230.034 46.464 229.714 46.064C229.41 45.648 229.194 45.136 229.066 44.528C228.938 43.92 228.874 43.2 228.874 42.368V30.944L230.434 30.656V34.592ZM242.476 34.352C242.988 34.352 243.468 34.392 243.916 34.472C244.38 34.552 244.7 34.632 244.876 34.712L244.564 36.056C244.436 35.992 244.172 35.928 243.772 35.864C243.388 35.784 242.876 35.744 242.236 35.744C241.564 35.744 241.02 35.792 240.604 35.888C240.204 35.984 239.94 36.064 239.812 36.128V47H238.252V35.168C238.652 34.992 239.204 34.816 239.908 34.64C240.612 34.448 241.468 34.352 242.476 34.352ZM257.812 40.808C257.812 41.784 257.668 42.672 257.38 43.472C257.108 44.272 256.716 44.952 256.204 45.512C255.708 46.072 255.116 46.512 254.428 46.832C253.74 47.136 252.98 47.288 252.148 47.288C251.316 47.288 250.556 47.136 249.868 46.832C249.18 46.512 248.58 46.072 248.068 45.512C247.572 44.952 247.18 44.272 246.892 43.472C246.62 42.672 246.484 41.784 246.484 40.808C246.484 39.832 246.62 38.944 246.892 38.144C247.18 37.344 247.572 36.664 248.068 36.104C248.58 35.528 249.18 35.088 249.868 34.784C250.556 34.464 251.316 34.304 252.148 34.304C252.98 34.304 253.74 34.464 254.428 34.784C255.116 35.088 255.708 35.528 256.204 36.104C256.716 36.664 257.108 37.344 257.38 38.144C257.668 38.944 257.812 39.832 257.812 40.808ZM256.156 40.808C256.156 39.256 255.796 38.024 255.076 37.112C254.356 36.184 253.38 35.72 252.148 35.72C250.916 35.72 249.94 36.184 249.22 37.112C248.5 38.024 248.14 39.256 248.14 40.808C248.14 42.36 248.5 43.592 249.22 44.504C249.94 45.416 250.916 45.872 252.148 45.872C253.38 45.872 254.356 45.416 255.076 44.504C255.796 43.592 256.156 42.36 256.156 40.808ZM251.188 30.848C251.188 31.2 251.084 31.48 250.876 31.688C250.668 31.896 250.404 32 250.084 32C249.764 32 249.5 31.896 249.292 31.688C249.084 31.48 248.98 31.2 248.98 30.848C248.98 30.496 249.084 30.216 249.292 30.008C249.5 29.8 249.764 29.696 250.084 29.696C250.404 29.696 250.668 29.8 250.876 30.008C251.084 30.216 251.188 30.496 251.188 30.848ZM255.316 30.848C255.316 31.2 255.212 31.48 255.004 31.688C254.796 31.896 254.532 32 254.212 32C253.892 32 253.628 31.896 253.42 31.688C253.212 31.48 253.108 31.2 253.108 30.848C253.108 30.496 253.212 30.216 253.42 30.008C253.628 29.8 253.892 29.696 254.212 29.696C254.532 29.696 254.796 29.8 255.004 30.008C255.212 30.216 255.316 30.496 255.316 30.848ZM261.197 35.024C261.661 34.896 262.261 34.752 262.997 34.592C263.749 34.432 264.717 34.352 265.901 34.352C267.469 34.352 268.605 34.808 269.309 35.72C269.389 35.656 269.541 35.552 269.765 35.408C270.005 35.248 270.301 35.088 270.653 34.928C271.005 34.768 271.413 34.632 271.877 34.52C272.357 34.408 272.885 34.352 273.461 34.352C274.405 34.352 275.165 34.496 275.741 34.784C276.333 35.056 276.789 35.448 277.109 35.96C277.429 36.456 277.645 37.056 277.757 37.76C277.869 38.464 277.925 39.232 277.925 40.064V47H276.365V40.568C276.365 39.752 276.325 39.048 276.245 38.456C276.181 37.848 276.037 37.352 275.813 36.968C275.605 36.568 275.301 36.272 274.901 36.08C274.501 35.872 273.981 35.768 273.341 35.768C272.861 35.768 272.421 35.816 272.021 35.912C271.637 35.992 271.301 36.096 271.013 36.224C270.725 36.352 270.485 36.48 270.293 36.608C270.117 36.736 269.989 36.832 269.909 36.896C270.053 37.312 270.157 37.784 270.221 38.312C270.301 38.824 270.341 39.368 270.341 39.944V47H268.781V40.568C268.781 39.752 268.741 39.048 268.661 38.456C268.597 37.848 268.453 37.352 268.229 36.968C268.005 36.568 267.685 36.272 267.269 36.08C266.869 35.872 266.333 35.768 265.661 35.768C264.909 35.768 264.269 35.808 263.741 35.888C263.229 35.968 262.901 36.04 262.757 36.104V47H261.197V35.024ZM281.172 40.784C281.172 39.696 281.324 38.752 281.628 37.952C281.948 37.136 282.356 36.456 282.852 35.912C283.364 35.368 283.94 34.968 284.58 34.712C285.236 34.44 285.908 34.304 286.596 34.304C288.116 34.304 289.324 34.8 290.22 35.792C291.132 36.784 291.588 38.312 291.588 40.376C291.588 40.504 291.58 40.632 291.564 40.76C291.564 40.888 291.556 41.008 291.54 41.12H282.828C282.876 42.64 283.252 43.808 283.956 44.624C284.66 45.44 285.78 45.848 287.316 45.848C288.164 45.848 288.836 45.768 289.332 45.608C289.828 45.448 290.188 45.312 290.412 45.2L290.7 46.544C290.476 46.672 290.052 46.824 289.428 47C288.82 47.176 288.1 47.264 287.268 47.264C286.18 47.264 285.252 47.104 284.484 46.784C283.716 46.464 283.084 46.016 282.588 45.44C282.092 44.864 281.732 44.184 281.508 43.4C281.284 42.6 281.172 41.728 281.172 40.784ZM289.98 39.8C289.948 38.504 289.644 37.496 289.068 36.776C288.492 36.056 287.676 35.696 286.62 35.696C286.06 35.696 285.556 35.808 285.108 36.032C284.676 36.256 284.292 36.56 283.956 36.944C283.636 37.312 283.38 37.744 283.188 38.24C283.012 38.736 282.908 39.256 282.876 39.8H289.98ZM5.808 73.32C6.144 72.632 6.488 71.848 6.84 70.968C7.192 70.072 7.528 69.152 7.848 68.208C8.184 67.248 8.488 66.288 8.76 65.328C9.048 64.352 9.288 63.44 9.48 62.592H11.04C10.752 63.728 10.432 64.848 10.08 65.952C9.728 67.056 9.352 68.136 8.952 69.192C8.568 70.248 8.16 71.264 7.728 72.24C7.312 73.216 6.904 74.136 6.504 75H5.016C4.6 74.136 4.184 73.216 3.768 72.24C3.352 71.264 2.944 70.248 2.544 69.192C2.16 68.136 1.792 67.056 1.44 65.952C1.088 64.848 0.768 63.728 0.48 62.592H2.136C2.328 63.44 2.56 64.352 2.832 65.328C3.12 66.288 3.424 67.248 3.744 68.208C4.08 69.152 4.424 70.072 4.776 70.968C5.128 71.848 5.472 72.632 5.808 73.32ZM24.1793 68.808C24.1793 69.784 24.0353 70.672 23.7473 71.472C23.4753 72.272 23.0833 72.952 22.5713 73.512C22.0753 74.072 21.4833 74.512 20.7953 74.832C20.1073 75.136 19.3473 75.288 18.5153 75.288C17.6833 75.288 16.9233 75.136 16.2353 74.832C15.5473 74.512 14.9473 74.072 14.4353 73.512C13.9393 72.952 13.5473 72.272 13.2593 71.472C12.9873 70.672 12.8513 69.784 12.8513 68.808C12.8513 67.832 12.9873 66.944 13.2593 66.144C13.5473 65.344 13.9393 64.664 14.4353 64.104C14.9473 63.528 15.5473 63.088 16.2353 62.784C16.9233 62.464 17.6833 62.304 18.5153 62.304C19.3473 62.304 20.1073 62.464 20.7953 62.784C21.4833 63.088 22.0753 63.528 22.5713 64.104C23.0833 64.664 23.4753 65.344 23.7473 66.144C24.0353 66.944 24.1793 67.832 24.1793 68.808ZM22.5233 68.808C22.5233 67.256 22.1633 66.024 21.4433 65.112C20.7233 64.184 19.7473 63.72 18.5153 63.72C17.2833 63.72 16.3073 64.184 15.5873 65.112C14.8673 66.024 14.5073 67.256 14.5073 68.808C14.5073 70.36 14.8673 71.592 15.5873 72.504C16.3073 73.416 17.2833 73.872 18.5153 73.872C19.7473 73.872 20.7233 73.416 21.4433 72.504C22.1633 71.592 22.5233 70.36 22.5233 68.808ZM30.708 75.216C30.18 75.2 29.716 75.128 29.316 75C28.932 74.888 28.604 74.712 28.332 74.472C28.076 74.216 27.876 73.896 27.732 73.512C27.604 73.112 27.54 72.616 27.54 72.024V56.664L29.1 56.376V71.976C29.1 72.36 29.132 72.672 29.196 72.912C29.276 73.136 29.388 73.32 29.532 73.464C29.676 73.592 29.86 73.688 30.084 73.752C30.324 73.816 30.604 73.872 30.924 73.92L30.708 75.216ZM36.8252 75.216C36.2972 75.2 35.8332 75.128 35.4332 75C35.0492 74.888 34.7212 74.712 34.4492 74.472C34.1932 74.216 33.9932 73.896 33.8492 73.512C33.7212 73.112 33.6572 72.616 33.6572 72.024V56.664L35.2172 56.376V71.976C35.2172 72.36 35.2492 72.672 35.3132 72.912C35.3932 73.136 35.5052 73.32 35.6492 73.464C35.7932 73.592 35.9772 73.688 36.2012 73.752C36.4412 73.816 36.7212 73.872 37.0412 73.92L36.8252 75.216ZM43.7104 73.872C44.3184 73.872 44.8464 73.856 45.2944 73.824C45.7584 73.776 46.1504 73.72 46.4704 73.656V69.288C46.2944 69.208 46.0144 69.128 45.6304 69.048C45.2464 68.952 44.7184 68.904 44.0464 68.904C43.6624 68.904 43.2624 68.936 42.8464 69C42.4304 69.048 42.0464 69.168 41.6944 69.36C41.3424 69.536 41.0544 69.784 40.8304 70.104C40.6064 70.424 40.4944 70.848 40.4944 71.376C40.4944 71.84 40.5664 72.232 40.7104 72.552C40.8704 72.872 41.0864 73.128 41.3584 73.32C41.6464 73.512 41.9824 73.656 42.3664 73.752C42.7664 73.832 43.2144 73.872 43.7104 73.872ZM43.5664 62.304C44.3824 62.304 45.0704 62.424 45.6304 62.664C46.2064 62.888 46.6704 63.208 47.0224 63.624C47.3744 64.024 47.6304 64.504 47.7904 65.064C47.9504 65.624 48.0304 66.232 48.0304 66.888V74.712C47.8704 74.76 47.6384 74.816 47.3344 74.88C47.0304 74.928 46.6784 74.984 46.2784 75.048C45.8784 75.112 45.4304 75.16 44.9344 75.192C44.4544 75.24 43.9584 75.264 43.4464 75.264C42.7904 75.264 42.1824 75.192 41.6224 75.048C41.0784 74.904 40.5984 74.68 40.1824 74.376C39.7824 74.056 39.4624 73.656 39.2224 73.176C38.9984 72.68 38.8864 72.08 38.8864 71.376C38.8864 70.704 39.0144 70.128 39.2704 69.648C39.5264 69.168 39.8864 68.776 40.3504 68.472C40.8144 68.152 41.3664 67.92 42.0064 67.776C42.6464 67.632 43.3424 67.56 44.0944 67.56C44.3184 67.56 44.5504 67.576 44.7904 67.608C45.0464 67.624 45.2864 67.656 45.5104 67.704C45.7504 67.736 45.9504 67.776 46.1104 67.824C46.2864 67.856 46.4064 67.888 46.4704 67.92V67.152C46.4704 66.72 46.4384 66.304 46.3744 65.904C46.3104 65.488 46.1664 65.12 45.9424 64.8C45.7344 64.464 45.4304 64.2 45.0304 64.008C44.6464 63.8 44.1344 63.696 43.4944 63.696C42.5824 63.696 41.9024 63.76 41.4544 63.888C41.0064 64.016 40.6784 64.12 40.4704 64.2L40.2544 62.832C40.5264 62.704 40.9424 62.584 41.5024 62.472C42.0784 62.36 42.7664 62.304 43.5664 62.304ZM61.5373 74.568C61.0733 74.696 60.4493 74.84 59.6653 75C58.8813 75.16 57.9213 75.24 56.7853 75.24C55.8573 75.24 55.0813 75.104 54.4573 74.832C53.8333 74.56 53.3293 74.176 52.9453 73.68C52.5613 73.184 52.2813 72.584 52.1053 71.88C51.9453 71.176 51.8653 70.4 51.8653 69.552V62.592H53.4253V69.048C53.4253 69.928 53.4893 70.672 53.6173 71.28C53.7453 71.888 53.9533 72.384 54.2413 72.768C54.5293 73.136 54.8973 73.408 55.3453 73.584C55.8093 73.744 56.3693 73.824 57.0253 73.824C57.7613 73.824 58.4013 73.784 58.9453 73.704C59.4893 73.624 59.8333 73.552 59.9773 73.488V62.592H61.5373V74.568ZM67.1374 62.592H72.0814V63.912H67.1374V70.512C67.1374 71.216 67.1934 71.792 67.3054 72.24C67.4334 72.672 67.6094 73.008 67.8334 73.248C68.0574 73.488 68.3294 73.648 68.6494 73.728C68.9694 73.808 69.3214 73.848 69.7054 73.848C70.3614 73.848 70.8894 73.776 71.2894 73.632C71.6894 73.472 72.0014 73.328 72.2254 73.2L72.6094 74.496C72.3854 74.64 71.9934 74.808 71.4334 75C70.8734 75.176 70.2654 75.264 69.6094 75.264C68.8414 75.264 68.1934 75.168 67.6654 74.976C67.1534 74.768 66.7374 74.464 66.4174 74.064C66.1134 73.648 65.8974 73.136 65.7694 72.528C65.6414 71.92 65.5774 71.2 65.5774 70.368V58.944L67.1374 58.656V62.592ZM85.5386 68.808C85.5386 69.784 85.3946 70.672 85.1066 71.472C84.8346 72.272 84.4426 72.952 83.9306 73.512C83.4346 74.072 82.8426 74.512 82.1546 74.832C81.4666 75.136 80.7066 75.288 79.8746 75.288C79.0426 75.288 78.2826 75.136 77.5946 74.832C76.9066 74.512 76.3066 74.072 75.7946 73.512C75.2986 72.952 74.9066 72.272 74.6186 71.472C74.3466 70.672 74.2106 69.784 74.2106 68.808C74.2106 67.832 74.3466 66.944 74.6186 66.144C74.9066 65.344 75.2986 64.664 75.7946 64.104C76.3066 63.528 76.9066 63.088 77.5946 62.784C78.2826 62.464 79.0426 62.304 79.8746 62.304C80.7066 62.304 81.4666 62.464 82.1546 62.784C82.8426 63.088 83.4346 63.528 83.9306 64.104C84.4426 64.664 84.8346 65.344 85.1066 66.144C85.3946 66.944 85.5386 67.832 85.5386 68.808ZM83.8826 68.808C83.8826 67.256 83.5226 66.024 82.8026 65.112C82.0826 64.184 81.1066 63.72 79.8746 63.72C78.6426 63.72 77.6666 64.184 76.9466 65.112C76.2266 66.024 75.8666 67.256 75.8666 68.808C75.8666 70.36 76.2266 71.592 76.9466 72.504C77.6666 73.416 78.6426 73.872 79.8746 73.872C81.1066 73.872 82.0826 73.416 82.8026 72.504C83.5226 71.592 83.8826 70.36 83.8826 68.808ZM88.9234 63.024C89.3874 62.896 89.9874 62.752 90.7234 62.592C91.4754 62.432 92.4434 62.352 93.6274 62.352C95.1954 62.352 96.3314 62.808 97.0354 63.72C97.1154 63.656 97.2674 63.552 97.4914 63.408C97.7314 63.248 98.0274 63.088 98.3794 62.928C98.7314 62.768 99.1394 62.632 99.6034 62.52C100.083 62.408 100.611 62.352 101.187 62.352C102.131 62.352 102.891 62.496 103.467 62.784C104.059 63.056 104.515 63.448 104.835 63.96C105.155 64.456 105.371 65.056 105.483 65.76C105.595 66.464 105.651 67.232 105.651 68.064V75H104.091V68.568C104.091 67.752 104.051 67.048 103.971 66.456C103.907 65.848 103.763 65.352 103.539 64.968C103.331 64.568 103.027 64.272 102.627 64.08C102.227 63.872 101.707 63.768 101.067 63.768C100.587 63.768 100.147 63.816 99.7474 63.912C99.3634 63.992 99.0274 64.096 98.7394 64.224C98.4514 64.352 98.2114 64.48 98.0194 64.608C97.8434 64.736 97.7154 64.832 97.6354 64.896C97.7794 65.312 97.8834 65.784 97.9474 66.312C98.0274 66.824 98.0674 67.368 98.0674 67.944V75H96.5074V68.568C96.5074 67.752 96.4674 67.048 96.3874 66.456C96.3234 65.848 96.1794 65.352 95.9554 64.968C95.7314 64.568 95.4114 64.272 94.9954 64.08C94.5954 63.872 94.0594 63.768 93.3874 63.768C92.6354 63.768 91.9954 63.808 91.4674 63.888C90.9554 63.968 90.6274 64.04 90.4834 64.104V75H88.9234V63.024ZM113.554 73.872C114.162 73.872 114.69 73.856 115.138 73.824C115.602 73.776 115.994 73.72 116.314 73.656V69.288C116.138 69.208 115.858 69.128 115.474 69.048C115.09 68.952 114.562 68.904 113.89 68.904C113.506 68.904 113.106 68.936 112.69 69C112.274 69.048 111.89 69.168 111.538 69.36C111.186 69.536 110.898 69.784 110.674 70.104C110.45 70.424 110.338 70.848 110.338 71.376C110.338 71.84 110.41 72.232 110.554 72.552C110.714 72.872 110.93 73.128 111.202 73.32C111.49 73.512 111.826 73.656 112.21 73.752C112.61 73.832 113.058 73.872 113.554 73.872ZM113.41 62.304C114.226 62.304 114.914 62.424 115.474 62.664C116.05 62.888 116.514 63.208 116.866 63.624C117.218 64.024 117.474 64.504 117.634 65.064C117.794 65.624 117.874 66.232 117.874 66.888V74.712C117.714 74.76 117.482 74.816 117.178 74.88C116.874 74.928 116.522 74.984 116.122 75.048C115.722 75.112 115.274 75.16 114.778 75.192C114.298 75.24 113.802 75.264 113.29 75.264C112.634 75.264 112.026 75.192 111.466 75.048C110.922 74.904 110.442 74.68 110.026 74.376C109.626 74.056 109.306 73.656 109.066 73.176C108.842 72.68 108.73 72.08 108.73 71.376C108.73 70.704 108.858 70.128 109.114 69.648C109.37 69.168 109.73 68.776 110.194 68.472C110.658 68.152 111.21 67.92 111.85 67.776C112.49 67.632 113.186 67.56 113.938 67.56C114.162 67.56 114.394 67.576 114.634 67.608C114.89 67.624 115.13 67.656 115.354 67.704C115.594 67.736 115.794 67.776 115.954 67.824C116.13 67.856 116.25 67.888 116.314 67.92V67.152C116.314 66.72 116.282 66.304 116.218 65.904C116.154 65.488 116.01 65.12 115.786 64.8C115.578 64.464 115.274 64.2 114.874 64.008C114.49 63.8 113.978 63.696 113.338 63.696C112.426 63.696 111.746 63.76 111.298 63.888C110.85 64.016 110.522 64.12 110.314 64.2L110.098 62.832C110.37 62.704 110.786 62.584 111.346 62.472C111.922 62.36 112.61 62.304 113.41 62.304ZM123.317 62.592H128.261V63.912H123.317V70.512C123.317 71.216 123.373 71.792 123.485 72.24C123.613 72.672 123.789 73.008 124.013 73.248C124.237 73.488 124.509 73.648 124.829 73.728C125.149 73.808 125.501 73.848 125.885 73.848C126.541 73.848 127.069 73.776 127.469 73.632C127.869 73.472 128.181 73.328 128.405 73.2L128.789 74.496C128.565 74.64 128.173 74.808 127.613 75C127.053 75.176 126.445 75.264 125.789 75.264C125.021 75.264 124.373 75.168 123.845 74.976C123.333 74.768 122.917 74.464 122.597 74.064C122.293 73.648 122.077 73.136 121.949 72.528C121.821 71.92 121.757 71.2 121.757 70.368V58.944L123.317 58.656V62.592ZM132.694 75H131.134V62.592H132.694V75ZM133.054 58.848C133.054 59.216 132.942 59.512 132.718 59.736C132.494 59.944 132.222 60.048 131.902 60.048C131.582 60.048 131.31 59.944 131.086 59.736C130.862 59.512 130.75 59.216 130.75 58.848C130.75 58.48 130.862 58.192 131.086 57.984C131.31 57.76 131.582 57.648 131.902 57.648C132.222 57.648 132.494 57.76 132.718 57.984C132.942 58.192 133.054 58.48 133.054 58.848ZM139.374 73.896C140.27 73.896 141.006 73.752 141.582 73.464C142.174 73.16 142.47 72.656 142.47 71.952C142.47 71.616 142.414 71.328 142.302 71.088C142.206 70.848 142.038 70.632 141.798 70.44C141.558 70.248 141.238 70.064 140.838 69.888C140.454 69.712 139.974 69.504 139.398 69.264C138.934 69.072 138.494 68.88 138.078 68.688C137.662 68.48 137.294 68.248 136.974 67.992C136.654 67.72 136.398 67.4 136.206 67.032C136.014 66.664 135.918 66.216 135.918 65.688C135.918 64.68 136.294 63.864 137.046 63.24C137.814 62.616 138.862 62.304 140.19 62.304C141.038 62.304 141.734 62.376 142.278 62.52C142.838 62.664 143.23 62.792 143.454 62.904L143.094 64.296C142.902 64.2 142.574 64.072 142.11 63.912C141.662 63.752 140.998 63.672 140.118 63.672C139.766 63.672 139.43 63.712 139.11 63.792C138.806 63.856 138.534 63.968 138.294 64.128C138.054 64.272 137.862 64.464 137.718 64.704C137.574 64.928 137.502 65.208 137.502 65.544C137.502 65.88 137.566 66.168 137.694 66.408C137.822 66.648 138.006 66.864 138.246 67.056C138.502 67.232 138.806 67.4 139.158 67.56C139.526 67.72 139.942 67.896 140.406 68.088C140.886 68.28 141.342 68.48 141.774 68.688C142.222 68.88 142.614 69.12 142.95 69.408C143.286 69.68 143.558 70.016 143.766 70.416C143.974 70.8 144.078 71.288 144.078 71.88C144.078 73 143.654 73.848 142.806 74.424C141.974 75 140.83 75.288 139.374 75.288C138.286 75.288 137.454 75.192 136.878 75C136.302 74.824 135.918 74.688 135.726 74.592L136.134 73.176C136.182 73.208 136.286 73.264 136.446 73.344C136.606 73.408 136.822 73.488 137.094 73.584C137.366 73.664 137.686 73.736 138.054 73.8C138.438 73.864 138.878 73.896 139.374 73.896ZM152.231 75.264C151.271 75.264 150.423 75.112 149.687 74.808C148.951 74.504 148.335 74.072 147.839 73.512C147.359 72.936 146.991 72.256 146.735 71.472C146.479 70.672 146.351 69.792 146.351 68.832C146.351 67.856 146.479 66.968 146.735 66.168C147.007 65.368 147.391 64.68 147.887 64.104C148.383 63.528 148.983 63.088 149.687 62.784C150.391 62.464 151.183 62.304 152.063 62.304C152.735 62.304 153.359 62.36 153.935 62.472C154.527 62.584 154.983 62.728 155.303 62.904L154.895 64.248C154.575 64.088 154.215 63.96 153.815 63.864C153.415 63.768 152.879 63.72 152.207 63.72C150.831 63.72 149.783 64.168 149.063 65.064C148.359 65.944 148.007 67.2 148.007 68.832C148.007 69.568 148.087 70.248 148.247 70.872C148.407 71.48 148.663 72.008 149.015 72.456C149.383 72.888 149.847 73.232 150.407 73.488C150.983 73.728 151.679 73.848 152.495 73.848C153.167 73.848 153.727 73.776 154.175 73.632C154.639 73.472 154.975 73.336 155.183 73.224L155.519 74.568C155.231 74.728 154.775 74.88 154.151 75.024C153.543 75.184 152.903 75.264 152.231 75.264ZM158.134 75V56.664L159.694 56.376V62.952C160.206 62.76 160.726 62.616 161.254 62.52C161.782 62.408 162.31 62.352 162.838 62.352C163.798 62.352 164.598 62.488 165.238 62.76C165.878 63.032 166.39 63.424 166.774 63.936C167.158 64.432 167.422 65.032 167.566 65.736C167.726 66.44 167.806 67.216 167.806 68.064V75H166.246V68.568C166.246 67.688 166.182 66.944 166.054 66.336C165.942 65.728 165.742 65.232 165.454 64.848C165.182 64.464 164.814 64.192 164.35 64.032C163.886 63.856 163.302 63.768 162.598 63.768C162.326 63.768 162.03 63.792 161.71 63.84C161.406 63.888 161.118 63.944 160.846 64.008C160.574 64.056 160.326 64.112 160.102 64.176C159.894 64.24 159.758 64.288 159.694 64.32V75H158.134ZM263.272 74.568C262.808 74.696 262.184 74.84 261.4 75C260.616 75.16 259.656 75.24 258.52 75.24C257.592 75.24 256.816 75.104 256.192 74.832C255.568 74.56 255.064 74.176 254.68 73.68C254.296 73.184 254.016 72.584 253.84 71.88C253.68 71.176 253.6 70.4 253.6 69.552V62.592H255.16V69.048C255.16 69.928 255.224 70.672 255.352 71.28C255.48 71.888 255.688 72.384 255.976 72.768C256.264 73.136 256.632 73.408 257.08 73.584C257.544 73.744 258.104 73.824 258.76 73.824C259.496 73.824 260.136 73.784 260.68 73.704C261.224 73.624 261.568 73.552 261.712 73.488V62.592H263.272V74.568ZM267.408 63.024C267.872 62.896 268.496 62.752 269.28 62.592C270.064 62.432 271.024 62.352 272.16 62.352C273.104 62.352 273.888 62.488 274.512 62.76C275.152 63.032 275.656 63.424 276.024 63.936C276.408 64.432 276.68 65.032 276.84 65.736C277 66.44 277.08 67.216 277.08 68.064V75H275.52V68.568C275.52 67.688 275.456 66.944 275.328 66.336C275.216 65.728 275.016 65.232 274.728 64.848C274.456 64.464 274.088 64.192 273.624 64.032C273.176 63.856 272.608 63.768 271.92 63.768C271.184 63.768 270.544 63.808 270 63.888C269.472 63.968 269.128 64.04 268.968 64.104V75H267.408V63.024ZM290.936 74.616C290.472 74.776 289.88 74.928 289.16 75.072C288.44 75.216 287.528 75.288 286.424 75.288C285.512 75.288 284.68 75.144 283.928 74.856C283.192 74.552 282.552 74.12 282.008 73.56C281.48 73 281.064 72.32 280.76 71.52C280.472 70.72 280.328 69.816 280.328 68.808C280.328 67.864 280.448 67 280.688 66.216C280.944 65.416 281.312 64.728 281.792 64.152C282.272 63.576 282.856 63.128 283.544 62.808C284.248 62.488 285.048 62.328 285.944 62.328C286.76 62.328 287.464 62.448 288.056 62.688C288.664 62.912 289.104 63.128 289.376 63.336V56.664L290.936 56.376V74.616ZM289.376 64.848C289.232 64.736 289.048 64.616 288.824 64.488C288.616 64.36 288.368 64.24 288.08 64.128C287.792 64.016 287.48 63.928 287.144 63.864C286.808 63.784 286.456 63.744 286.088 63.744C285.32 63.744 284.672 63.88 284.144 64.152C283.632 64.424 283.216 64.792 282.896 65.256C282.576 65.704 282.344 66.24 282.2 66.864C282.056 67.472 281.984 68.12 281.984 68.808C281.984 70.44 282.392 71.696 283.208 72.576C284.024 73.44 285.104 73.872 286.448 73.872C287.216 73.872 287.832 73.84 288.296 73.776C288.776 73.696 289.136 73.616 289.376 73.536V64.848ZM3.624 103H2.064V90.592H3.624V103ZM3.984 86.848C3.984 87.216 3.872 87.512 3.648 87.736C3.424 87.944 3.152 88.048 2.832 88.048C2.512 88.048 2.24 87.944 2.016 87.736C1.792 87.512 1.68 87.216 1.68 86.848C1.68 86.48 1.792 86.192 2.016 85.984C2.24 85.76 2.512 85.648 2.832 85.648C3.152 85.648 3.424 85.76 3.648 85.984C3.872 86.192 3.984 86.48 3.984 86.848ZM7.75931 91.024C8.22331 90.896 8.84731 90.752 9.63131 90.592C10.4153 90.432 11.3753 90.352 12.5113 90.352C13.4553 90.352 14.2393 90.488 14.8633 90.76C15.5033 91.032 16.0073 91.424 16.3753 91.936C16.7593 92.432 17.0313 93.032 17.1913 93.736C17.3513 94.44 17.4313 95.216 17.4313 96.064V103H15.8713V96.568C15.8713 95.688 15.8073 94.944 15.6793 94.336C15.5673 93.728 15.3673 93.232 15.0793 92.848C14.8073 92.464 14.4393 92.192 13.9753 92.032C13.5273 91.856 12.9593 91.768 12.2713 91.768C11.5353 91.768 10.8953 91.808 10.3513 91.888C9.82331 91.968 9.47931 92.04 9.31931 92.104V103H7.75931V91.024ZM21.4234 91.024C21.8874 90.896 22.5114 90.752 23.2954 90.592C24.0794 90.432 25.0394 90.352 26.1754 90.352C27.1194 90.352 27.9034 90.488 28.5274 90.76C29.1674 91.032 29.6714 91.424 30.0394 91.936C30.4234 92.432 30.6954 93.032 30.8554 93.736C31.0154 94.44 31.0954 95.216 31.0954 96.064V103H29.5354V96.568C29.5354 95.688 29.4714 94.944 29.3434 94.336C29.2314 93.728 29.0314 93.232 28.7434 92.848C28.4714 92.464 28.1034 92.192 27.6394 92.032C27.1914 91.856 26.6234 91.768 25.9354 91.768C25.1994 91.768 24.5594 91.808 24.0154 91.888C23.4874 91.968 23.1434 92.04 22.9834 92.104V103H21.4234V91.024ZM34.3434 96.784C34.3434 95.696 34.4954 94.752 34.7994 93.952C35.1194 93.136 35.5274 92.456 36.0234 91.912C36.5354 91.368 37.1114 90.968 37.7514 90.712C38.4074 90.44 39.0794 90.304 39.7674 90.304C41.2874 90.304 42.4954 90.8 43.3914 91.792C44.3034 92.784 44.7594 94.312 44.7594 96.376C44.7594 96.504 44.7514 96.632 44.7354 96.76C44.7354 96.888 44.7274 97.008 44.7114 97.12H35.9994C36.0474 98.64 36.4234 99.808 37.1274 100.624C37.8314 101.44 38.9514 101.848 40.4874 101.848C41.3354 101.848 42.0074 101.768 42.5034 101.608C42.9994 101.448 43.3594 101.312 43.5834 101.2L43.8714 102.544C43.6474 102.672 43.2234 102.824 42.5994 103C41.9914 103.176 41.2714 103.264 40.4394 103.264C39.3514 103.264 38.4234 103.104 37.6554 102.784C36.8874 102.464 36.2554 102.016 35.7594 101.44C35.2634 100.864 34.9034 100.184 34.6794 99.4C34.4554 98.6 34.3434 97.728 34.3434 96.784ZM43.1514 95.8C43.1194 94.504 42.8154 93.496 42.2394 92.776C41.6634 92.056 40.8474 91.696 39.7914 91.696C39.2314 91.696 38.7274 91.808 38.2794 92.032C37.8474 92.256 37.4634 92.56 37.1274 92.944C36.8074 93.312 36.5514 93.744 36.3594 94.24C36.1834 94.736 36.0794 95.256 36.0474 95.8H43.1514ZM52.4599 90.352C52.9719 90.352 53.4519 90.392 53.8999 90.472C54.3639 90.552 54.6839 90.632 54.8599 90.712L54.5479 92.056C54.4199 91.992 54.1559 91.928 53.7559 91.864C53.3719 91.784 52.8599 91.744 52.2199 91.744C51.5479 91.744 51.0039 91.792 50.5879 91.888C50.1879 91.984 49.9239 92.064 49.7959 92.128V103H48.2359V91.168C48.6359 90.992 49.1879 90.816 49.8919 90.64C50.5959 90.448 51.4519 90.352 52.4599 90.352ZM57.2124 103V84.664L58.7724 84.376V90.952C59.2844 90.76 59.8044 90.616 60.3324 90.52C60.8604 90.408 61.3884 90.352 61.9164 90.352C62.8764 90.352 63.6764 90.488 64.3164 90.76C64.9564 91.032 65.4684 91.424 65.8524 91.936C66.2364 92.432 66.5004 93.032 66.6444 93.736C66.8044 94.44 66.8844 95.216 66.8844 96.064V103H65.3244V96.568C65.3244 95.688 65.2604 94.944 65.1324 94.336C65.0204 93.728 64.8204 93.232 64.5324 92.848C64.2604 92.464 63.8924 92.192 63.4284 92.032C62.9644 91.856 62.3804 91.768 61.6764 91.768C61.4044 91.768 61.1084 91.792 60.7884 91.84C60.4844 91.888 60.1964 91.944 59.9244 92.008C59.6524 92.056 59.4044 92.112 59.1804 92.176C58.9724 92.24 58.8364 92.288 58.7724 92.32V103H57.2124ZM74.7885 101.872C75.3965 101.872 75.9245 101.856 76.3725 101.824C76.8365 101.776 77.2285 101.72 77.5485 101.656V97.288C77.3725 97.208 77.0925 97.128 76.7085 97.048C76.3245 96.952 75.7965 96.904 75.1245 96.904C74.7405 96.904 74.3405 96.936 73.9245 97C73.5085 97.048 73.1245 97.168 72.7725 97.36C72.4205 97.536 72.1325 97.784 71.9085 98.104C71.6845 98.424 71.5725 98.848 71.5725 99.376C71.5725 99.84 71.6445 100.232 71.7885 100.552C71.9485 100.872 72.1645 101.128 72.4365 101.32C72.7245 101.512 73.0605 101.656 73.4445 101.752C73.8445 101.832 74.2925 101.872 74.7885 101.872ZM74.6445 90.304C75.4605 90.304 76.1485 90.424 76.7085 90.664C77.2845 90.888 77.7485 91.208 78.1005 91.624C78.4525 92.024 78.7085 92.504 78.8685 93.064C79.0285 93.624 79.1085 94.232 79.1085 94.888V102.712C78.9485 102.76 78.7165 102.816 78.4125 102.88C78.1085 102.928 77.7565 102.984 77.3565 103.048C76.9565 103.112 76.5085 103.16 76.0125 103.192C75.5325 103.24 75.0365 103.264 74.5245 103.264C73.8685 103.264 73.2605 103.192 72.7005 103.048C72.1565 102.904 71.6765 102.68 71.2605 102.376C70.8605 102.056 70.5405 101.656 70.3005 101.176C70.0765 100.68 69.9645 100.08 69.9645 99.376C69.9645 98.704 70.0925 98.128 70.3485 97.648C70.6045 97.168 70.9645 96.776 71.4285 96.472C71.8925 96.152 72.4445 95.92 73.0845 95.776C73.7245 95.632 74.4205 95.56 75.1725 95.56C75.3965 95.56 75.6285 95.576 75.8685 95.608C76.1245 95.624 76.3645 95.656 76.5885 95.704C76.8285 95.736 77.0285 95.776 77.1885 95.824C77.3645 95.856 77.4845 95.888 77.5485 95.92V95.152C77.5485 94.72 77.5165 94.304 77.4525 93.904C77.3885 93.488 77.2445 93.12 77.0205 92.8C76.8125 92.464 76.5085 92.2 76.1085 92.008C75.7245 91.8 75.2125 91.696 74.5725 91.696C73.6605 91.696 72.9805 91.76 72.5325 91.888C72.0845 92.016 71.7565 92.12 71.5485 92.2L71.3325 90.832C71.6045 90.704 72.0205 90.584 72.5805 90.472C73.1565 90.36 73.8445 90.304 74.6445 90.304ZM86.2314 103.216C85.7034 103.2 85.2394 103.128 84.8394 103C84.4554 102.888 84.1274 102.712 83.8554 102.472C83.5994 102.216 83.3994 101.896 83.2554 101.512C83.1274 101.112 83.0634 100.616 83.0634 100.024V84.664L84.6234 84.376V99.976C84.6234 100.36 84.6554 100.672 84.7194 100.912C84.7994 101.136 84.9114 101.32 85.0554 101.464C85.1994 101.592 85.3834 101.688 85.6074 101.752C85.8474 101.816 86.1274 101.872 86.4474 101.92L86.2314 103.216ZM90.7646 91.336C91.0366 91.128 91.4686 90.912 92.0606 90.688C92.6686 90.448 93.3806 90.328 94.1966 90.328C95.0926 90.328 95.8846 90.488 96.5726 90.808C97.2766 91.128 97.8686 91.576 98.3486 92.152C98.8286 92.728 99.1886 93.416 99.4286 94.216C99.6846 95 99.8126 95.864 99.8126 96.808C99.8126 97.816 99.6606 98.72 99.3566 99.52C99.0686 100.32 98.6526 101 98.1086 101.56C97.5806 102.12 96.9406 102.552 96.1886 102.856C95.4526 103.144 94.6286 103.288 93.7166 103.288C92.6126 103.288 91.7006 103.216 90.9806 103.072C90.2606 102.928 89.6686 102.776 89.2046 102.616V84.664L90.7646 84.376V91.336ZM90.7646 101.536C91.0046 101.616 91.3566 101.696 91.8206 101.776C92.3006 101.84 92.9246 101.872 93.6926 101.872C95.0366 101.872 96.1166 101.44 96.9326 100.576C97.7486 99.696 98.1566 98.44 98.1566 96.808C98.1566 96.12 98.0846 95.472 97.9406 94.864C97.7966 94.24 97.5646 93.704 97.2446 93.256C96.9246 92.792 96.5006 92.424 95.9726 92.152C95.4606 91.88 94.8206 91.744 94.0526 91.744C93.6846 91.744 93.3326 91.784 92.9966 91.864C92.6606 91.928 92.3486 92.016 92.0606 92.128C91.7726 92.24 91.5166 92.36 91.2926 92.488C91.0846 92.616 90.9086 92.736 90.7646 92.848V101.536ZM112.402 101.32C112.738 100.632 113.082 99.848 113.434 98.968C113.786 98.072 114.122 97.152 114.442 96.208C114.778 95.248 115.082 94.288 115.354 93.328C115.642 92.352 115.882 91.44 116.074 90.592H117.634C117.346 91.728 117.026 92.848 116.674 93.952C116.322 95.056 115.946 96.136 115.546 97.192C115.162 98.248 114.754 99.264 114.322 100.24C113.906 101.216 113.498 102.136 113.098 103H111.61C111.194 102.136 110.778 101.216 110.362 100.24C109.946 99.264 109.538 98.248 109.138 97.192C108.754 96.136 108.386 95.056 108.034 93.952C107.682 92.848 107.362 91.728 107.074 90.592H108.73C108.922 91.44 109.154 92.352 109.426 93.328C109.714 94.288 110.018 95.248 110.338 96.208C110.674 97.152 111.018 98.072 111.37 98.968C111.722 99.848 112.066 100.632 112.402 101.32ZM130.773 96.808C130.773 97.784 130.629 98.672 130.341 99.472C130.069 100.272 129.677 100.952 129.165 101.512C128.669 102.072 128.077 102.512 127.389 102.832C126.701 103.136 125.941 103.288 125.109 103.288C124.277 103.288 123.517 103.136 122.829 102.832C122.141 102.512 121.541 102.072 121.029 101.512C120.533 100.952 120.141 100.272 119.853 99.472C119.581 98.672 119.445 97.784 119.445 96.808C119.445 95.832 119.581 94.944 119.853 94.144C120.141 93.344 120.533 92.664 121.029 92.104C121.541 91.528 122.141 91.088 122.829 90.784C123.517 90.464 124.277 90.304 125.109 90.304C125.941 90.304 126.701 90.464 127.389 90.784C128.077 91.088 128.669 91.528 129.165 92.104C129.677 92.664 130.069 93.344 130.341 94.144C130.629 94.944 130.773 95.832 130.773 96.808ZM129.117 96.808C129.117 95.256 128.757 94.024 128.037 93.112C127.317 92.184 126.341 91.72 125.109 91.72C123.877 91.72 122.901 92.184 122.181 93.112C121.461 94.024 121.101 95.256 121.101 96.808C121.101 98.36 121.461 99.592 122.181 100.504C122.901 101.416 123.877 101.872 125.109 101.872C126.341 101.872 127.317 101.416 128.037 100.504C128.757 99.592 129.117 98.36 129.117 96.808ZM134.158 91.024C134.622 90.896 135.246 90.752 136.03 90.592C136.814 90.432 137.774 90.352 138.91 90.352C139.854 90.352 140.638 90.488 141.262 90.76C141.902 91.032 142.406 91.424 142.774 91.936C143.158 92.432 143.43 93.032 143.59 93.736C143.75 94.44 143.83 95.216 143.83 96.064V103H142.27V96.568C142.27 95.688 142.206 94.944 142.078 94.336C141.966 93.728 141.766 93.232 141.478 92.848C141.206 92.464 140.838 92.192 140.374 92.032C139.926 91.856 139.358 91.768 138.67 91.768C137.934 91.768 137.294 91.808 136.75 91.888C136.222 91.968 135.878 92.04 135.718 92.104V103H134.158V91.024ZM156.955 101.944C158.251 101.944 159.259 101.712 159.979 101.248C160.699 100.768 161.059 100 161.059 98.944C161.059 98.336 160.939 97.832 160.699 97.432C160.475 97.016 160.171 96.672 159.787 96.4C159.403 96.112 158.963 95.872 158.467 95.68C157.971 95.472 157.451 95.256 156.907 95.032C156.219 94.76 155.603 94.48 155.059 94.192C154.515 93.904 154.051 93.584 153.667 93.232C153.283 92.864 152.987 92.448 152.779 91.984C152.587 91.52 152.491 90.976 152.491 90.352C152.491 88.928 152.963 87.848 153.907 87.112C154.851 86.376 156.163 86.008 157.843 86.008C158.291 86.008 158.731 86.04 159.163 86.104C159.595 86.168 159.995 86.256 160.363 86.368C160.747 86.464 161.091 86.576 161.395 86.704C161.715 86.832 161.979 86.968 162.187 87.112L161.611 88.48C161.147 88.16 160.579 87.904 159.907 87.712C159.251 87.52 158.539 87.424 157.771 87.424C157.243 87.424 156.755 87.48 156.307 87.592C155.875 87.688 155.499 87.856 155.179 88.096C154.859 88.32 154.603 88.608 154.411 88.96C154.235 89.312 154.147 89.736 154.147 90.232C154.147 90.744 154.243 91.176 154.435 91.528C154.627 91.88 154.891 92.184 155.227 92.44C155.579 92.696 155.987 92.928 156.451 93.136C156.915 93.344 157.419 93.56 157.963 93.784C158.619 94.056 159.235 94.328 159.811 94.6C160.403 94.872 160.915 95.192 161.347 95.56C161.779 95.928 162.123 96.376 162.379 96.904C162.635 97.432 162.763 98.08 162.763 98.848C162.763 100.352 162.235 101.48 161.179 102.232C160.139 102.984 158.723 103.36 156.931 103.36C156.291 103.36 155.707 103.32 155.179 103.24C154.651 103.16 154.179 103.064 153.763 102.952C153.347 102.824 152.995 102.696 152.707 102.568C152.419 102.44 152.195 102.328 152.035 102.232L152.563 100.816C152.723 100.912 152.939 101.024 153.211 101.152C153.483 101.28 153.803 101.408 154.171 101.536C154.539 101.648 154.955 101.744 155.419 101.824C155.883 101.904 156.395 101.944 156.955 101.944ZM164.937 96.784C164.937 95.696 165.089 94.752 165.393 93.952C165.713 93.136 166.121 92.456 166.617 91.912C167.129 91.368 167.705 90.968 168.345 90.712C169.001 90.44 169.673 90.304 170.361 90.304C171.881 90.304 173.089 90.8 173.985 91.792C174.897 92.784 175.353 94.312 175.353 96.376C175.353 96.504 175.345 96.632 175.329 96.76C175.329 96.888 175.321 97.008 175.305 97.12H166.593C166.641 98.64 167.017 99.808 167.721 100.624C168.425 101.44 169.545 101.848 171.081 101.848C171.929 101.848 172.601 101.768 173.097 101.608C173.593 101.448 173.953 101.312 174.177 101.2L174.465 102.544C174.241 102.672 173.817 102.824 173.193 103C172.585 103.176 171.865 103.264 171.033 103.264C169.945 103.264 169.017 103.104 168.249 102.784C167.481 102.464 166.849 102.016 166.353 101.44C165.857 100.864 165.497 100.184 165.273 99.4C165.049 98.6 164.937 97.728 164.937 96.784ZM173.745 95.8C173.713 94.504 173.409 93.496 172.833 92.776C172.257 92.056 171.441 91.696 170.385 91.696C169.825 91.696 169.321 91.808 168.873 92.032C168.441 92.256 168.057 92.56 167.721 92.944C167.401 93.312 167.145 93.744 166.953 94.24C166.777 94.736 166.673 95.256 166.641 95.8H173.745ZM182.142 96.256C182.638 96.592 183.166 97.024 183.726 97.552C184.302 98.08 184.862 98.656 185.406 99.28C185.966 99.888 186.486 100.52 186.966 101.176C187.462 101.816 187.878 102.424 188.214 103H186.366C185.982 102.36 185.542 101.736 185.046 101.128C184.566 100.504 184.054 99.92 183.51 99.376C182.982 98.832 182.446 98.336 181.902 97.888C181.374 97.44 180.87 97.064 180.39 96.76V103H178.83V84.664L180.39 84.376V96.184C180.79 95.8 181.238 95.36 181.734 94.864C182.23 94.368 182.726 93.864 183.222 93.352C183.734 92.84 184.214 92.344 184.662 91.864C185.11 91.384 185.494 90.96 185.814 90.592H187.686C187.318 90.976 186.902 91.408 186.438 91.888C185.974 92.368 185.486 92.872 184.974 93.4C184.478 93.912 183.982 94.416 183.486 94.912C182.99 95.408 182.542 95.856 182.142 96.256ZM200.24 102.568C199.776 102.696 199.152 102.84 198.368 103C197.584 103.16 196.624 103.24 195.488 103.24C194.56 103.24 193.784 103.104 193.16 102.832C192.536 102.56 192.032 102.176 191.648 101.68C191.264 101.184 190.984 100.584 190.808 99.88C190.648 99.176 190.568 98.4 190.568 97.552V90.592H192.128V97.048C192.128 97.928 192.192 98.672 192.32 99.28C192.448 99.888 192.656 100.384 192.944 100.768C193.232 101.136 193.6 101.408 194.048 101.584C194.512 101.744 195.072 101.824 195.728 101.824C196.464 101.824 197.104 101.784 197.648 101.704C198.192 101.624 198.536 101.552 198.68 101.488V90.592H200.24V102.568ZM204.377 91.024C204.841 90.896 205.465 90.752 206.249 90.592C207.033 90.432 207.993 90.352 209.129 90.352C210.073 90.352 210.857 90.488 211.481 90.76C212.121 91.032 212.625 91.424 212.993 91.936C213.377 92.432 213.649 93.032 213.809 93.736C213.969 94.44 214.049 95.216 214.049 96.064V103H212.489V96.568C212.489 95.688 212.425 94.944 212.297 94.336C212.185 93.728 211.985 93.232 211.697 92.848C211.425 92.464 211.057 92.192 210.593 92.032C210.145 91.856 209.577 91.768 208.889 91.768C208.153 91.768 207.513 91.808 206.969 91.888C206.441 91.968 206.097 92.04 205.937 92.104V103H204.377V91.024ZM227.905 102.616C227.441 102.776 226.849 102.928 226.129 103.072C225.409 103.216 224.497 103.288 223.393 103.288C222.481 103.288 221.649 103.144 220.897 102.856C220.161 102.552 219.521 102.12 218.977 101.56C218.449 101 218.033 100.32 217.729 99.52C217.441 98.72 217.297 97.816 217.297 96.808C217.297 95.864 217.417 95 217.657 94.216C217.913 93.416 218.281 92.728 218.761 92.152C219.241 91.576 219.825 91.128 220.513 90.808C221.217 90.488 222.017 90.328 222.913 90.328C223.729 90.328 224.433 90.448 225.025 90.688C225.633 90.912 226.073 91.128 226.345 91.336V84.664L227.905 84.376V102.616ZM226.345 92.848C226.201 92.736 226.017 92.616 225.793 92.488C225.585 92.36 225.337 92.24 225.049 92.128C224.761 92.016 224.449 91.928 224.113 91.864C223.777 91.784 223.425 91.744 223.057 91.744C222.289 91.744 221.641 91.88 221.113 92.152C220.601 92.424 220.185 92.792 219.865 93.256C219.545 93.704 219.313 94.24 219.169 94.864C219.025 95.472 218.953 96.12 218.953 96.808C218.953 98.44 219.361 99.696 220.177 100.576C220.993 101.44 222.073 101.872 223.417 101.872C224.185 101.872 224.801 101.84 225.265 101.776C225.745 101.696 226.105 101.616 226.345 101.536V92.848ZM231.289 96.784C231.289 95.696 231.441 94.752 231.745 93.952C232.065 93.136 232.473 92.456 232.969 91.912C233.481 91.368 234.057 90.968 234.697 90.712C235.353 90.44 236.025 90.304 236.713 90.304C238.233 90.304 239.441 90.8 240.337 91.792C241.249 92.784 241.705 94.312 241.705 96.376C241.705 96.504 241.697 96.632 241.681 96.76C241.681 96.888 241.673 97.008 241.657 97.12H232.945C232.993 98.64 233.369 99.808 234.073 100.624C234.777 101.44 235.897 101.848 237.433 101.848C238.281 101.848 238.953 101.768 239.449 101.608C239.945 101.448 240.305 101.312 240.529 101.2L240.817 102.544C240.593 102.672 240.169 102.824 239.545 103C238.937 103.176 238.217 103.264 237.385 103.264C236.297 103.264 235.369 103.104 234.601 102.784C233.833 102.464 233.201 102.016 232.705 101.44C232.209 100.864 231.849 100.184 231.625 99.4C231.401 98.6 231.289 97.728 231.289 96.784ZM240.097 95.8C240.065 94.504 239.761 93.496 239.185 92.776C238.609 92.056 237.793 91.696 236.737 91.696C236.177 91.696 235.673 91.808 235.225 92.032C234.793 92.256 234.409 92.56 234.073 92.944C233.753 93.312 233.497 93.744 233.305 94.24C233.129 94.736 233.025 95.256 232.993 95.8H240.097ZM245.181 91.024C245.645 90.896 246.269 90.752 247.053 90.592C247.837 90.432 248.797 90.352 249.933 90.352C250.877 90.352 251.661 90.488 252.285 90.76C252.925 91.032 253.429 91.424 253.797 91.936C254.181 92.432 254.453 93.032 254.613 93.736C254.773 94.44 254.853 95.216 254.853 96.064V103H253.293V96.568C253.293 95.688 253.229 94.944 253.101 94.336C252.989 93.728 252.789 93.232 252.501 92.848C252.229 92.464 251.861 92.192 251.397 92.032C250.949 91.856 250.381 91.768 249.693 91.768C248.957 91.768 248.317 91.808 247.773 91.888C247.245 91.968 246.901 92.04 246.741 92.104V103H245.181V91.024ZM261.053 101.968C261.053 102.336 260.933 102.648 260.693 102.904C260.469 103.16 260.149 103.288 259.733 103.288C259.317 103.288 258.989 103.16 258.749 102.904C258.525 102.648 258.413 102.336 258.413 101.968C258.413 101.6 258.525 101.288 258.749 101.032C258.989 100.776 259.317 100.648 259.733 100.648C260.149 100.648 260.469 100.776 260.693 101.032C260.933 101.288 261.053 101.6 261.053 101.968Z" fill="black"/>
</svg>
