<svg width="349" height="311" viewBox="0 0 349 311" fill="none" xmlns="http://www.w3.org/2000/svg">
<path d="M64.0435 58.9483L156.977 74.9799" stroke="#B097B8" stroke-width="2.95"/>
<path d="M110.834 246.93C112.626 246.93 114.378 246.367 115.868 245.313C117.357 244.258 118.519 242.76 119.204 241.006C119.89 239.252 120.069 237.323 119.72 235.461C119.37 233.599 118.507 231.889 117.24 230.547C115.973 229.205 114.359 228.291 112.602 227.921C110.844 227.55 109.023 227.74 107.367 228.467C105.712 229.193 104.297 230.423 103.302 232.002C102.306 233.58 101.775 235.435 101.775 237.333C101.775 239.879 102.729 242.32 104.428 244.119C106.127 245.919 108.432 246.93 110.834 246.93V246.93Z" stroke="#C01466" stroke-width="3"/>
<path d="M110.838 228.001V224.277" stroke="#C01466" stroke-width="3"/>
<path d="M110.838 250.362V246.633" stroke="#C01466" stroke-width="3"/>
<path d="M102.042 237.319H98.5259" stroke="#C01466" stroke-width="3"/>
<path d="M123.146 237.319H119.63" stroke="#C01466" stroke-width="3"/>
<path d="M104.617 243.905L102.132 246.542" stroke="#C01466" stroke-width="3"/>
<path d="M119.543 228.097L117.054 230.73" stroke="#C01466" stroke-width="3"/>
<path d="M117.054 243.905L119.543 246.542" stroke="#C01466" stroke-width="3"/>
<path d="M102.132 228.097L104.617 230.73" stroke="#C01466" stroke-width="3"/>
<path d="M117.054 243.905L119.543 246.542" stroke="#C01466" stroke-width="3"/>
<path d="M102.132 228.097L104.617 230.73" stroke="#C01466" stroke-width="3"/>
<path d="M161.563 261.518C162.49 261.16 163.297 260.518 163.881 259.675C164.464 258.831 164.798 257.823 164.841 256.779C164.884 255.734 164.633 254.699 164.121 253.805C163.609 252.911 162.858 252.198 161.963 251.757C161.068 251.315 160.069 251.164 159.094 251.324C158.118 251.483 157.209 251.945 156.481 252.652C155.754 253.359 155.24 254.278 155.006 255.294C154.772 256.31 154.827 257.377 155.165 258.36C155.389 259.012 155.732 259.612 156.175 260.124C156.618 260.636 157.152 261.05 157.746 261.344C158.34 261.637 158.983 261.803 159.638 261.833C160.293 261.863 160.947 261.756 161.563 261.518Z" stroke="#B0DEED" stroke-width="1.65"/>
<path d="M158.203 251.729L157.542 249.8" stroke="#B0DEED" stroke-width="1.65"/>
<path d="M162.176 263.291L161.511 261.367" stroke="#B0DEED" stroke-width="1.65"/>
<path d="M155.307 258.3L153.491 259.004" stroke="#B0DEED" stroke-width="1.65"/>
<path d="M166.227 254.091L164.406 254.795" stroke="#B0DEED" stroke-width="1.65"/>
<path d="M157.814 261.193L156.994 263.053" stroke="#B0DEED" stroke-width="1.65"/>
<path d="M162.723 250.042L161.903 251.898" stroke="#B0DEED" stroke-width="1.65"/>
<path d="M164.246 258.716L165.998 259.58" stroke="#B0DEED" stroke-width="1.65"/>
<path d="M153.715 253.516L155.471 254.379" stroke="#B0DEED" stroke-width="1.65"/>
<path d="M164.246 258.716L165.998 259.58" stroke="#B0DEED" stroke-width="1.65"/>
<path d="M153.715 253.516L155.471 254.379" stroke="#B0DEED" stroke-width="1.65"/>
<path d="M130.977 241.25C132.349 241.25 133.69 240.818 134.831 240.011C135.972 239.203 136.862 238.054 137.386 236.711C137.911 235.368 138.048 233.89 137.78 232.464C137.511 231.038 136.85 229.729 135.879 228.702C134.908 227.674 133.671 226.975 132.325 226.693C130.978 226.41 129.583 226.557 128.316 227.115C127.048 227.672 125.966 228.616 125.204 229.825C124.443 231.035 124.038 232.456 124.04 233.91C124.04 234.875 124.22 235.83 124.569 236.72C124.918 237.611 125.429 238.42 126.073 239.102C126.717 239.783 127.482 240.324 128.323 240.692C129.165 241.061 130.066 241.25 130.977 241.25Z" stroke="#C01466" stroke-width="2.3"/>
<path d="M130.976 226.781V223.93" stroke="#C01466" stroke-width="2.3"/>
<path d="M130.976 243.873V241.021" stroke="#C01466" stroke-width="2.3"/>
<path d="M124.255 233.901H121.567" stroke="#C01466" stroke-width="2.3"/>
<path d="M140.389 233.901H137.697" stroke="#C01466" stroke-width="2.3"/>
<path d="M126.222 238.937L124.324 240.953" stroke="#C01466" stroke-width="2.3"/>
<path d="M137.633 226.85L135.73 228.865" stroke="#C01466" stroke-width="2.3"/>
<path d="M135.73 238.937L137.633 240.953" stroke="#C01466" stroke-width="2.3"/>
<path d="M124.324 226.85L126.222 228.865" stroke="#C01466" stroke-width="2.3"/>
<path d="M135.73 238.937L137.633 240.953" stroke="#C01466" stroke-width="2.3"/>
<path d="M124.324 226.85L126.222 228.865" stroke="#C01466" stroke-width="2.3"/>
<path d="M170.972 254.567C171.682 254.293 172.299 253.803 172.746 253.158C173.193 252.513 173.449 251.742 173.482 250.943C173.515 250.144 173.324 249.352 172.932 248.668C172.54 247.984 171.966 247.439 171.282 247.1C170.597 246.762 169.834 246.647 169.087 246.768C168.341 246.89 167.645 247.243 167.088 247.784C166.532 248.324 166.139 249.027 165.959 249.804C165.78 250.581 165.822 251.397 166.08 252.149C166.251 252.648 166.513 253.107 166.852 253.499C167.19 253.891 167.598 254.208 168.053 254.433C168.507 254.657 168.999 254.785 169.5 254.808C170.001 254.831 170.501 254.749 170.972 254.567V254.567Z" stroke="#B0DEED" stroke-width="1.26"/>
<path d="M168.4 247.081L167.896 245.605" stroke="#B0DEED" stroke-width="1.26"/>
<path d="M171.438 255.919L170.933 254.448" stroke="#B0DEED" stroke-width="1.26"/>
<path d="M166.192 252.103L164.798 252.638" stroke="#B0DEED" stroke-width="1.26"/>
<path d="M174.535 248.886L173.142 249.421" stroke="#B0DEED" stroke-width="1.26"/>
<path d="M168.103 254.315L167.478 255.737" stroke="#B0DEED" stroke-width="1.26"/>
<path d="M171.856 245.792L171.23 247.214" stroke="#B0DEED" stroke-width="1.26"/>
<path d="M173.021 252.419L174.363 253.081" stroke="#B0DEED" stroke-width="1.26"/>
<path d="M164.97 248.443L166.312 249.106" stroke="#B0DEED" stroke-width="1.26"/>
<path d="M173.021 252.419L174.363 253.081" stroke="#B0DEED" stroke-width="1.26"/>
<path d="M164.97 248.443L166.312 249.106" stroke="#B0DEED" stroke-width="1.26"/>
<path d="M113.422 234.418H107.943V240.221H113.422V234.418Z" stroke="#C01466" stroke-width="2.15"/>
<path d="M160.685 254.513L157.852 255.605L158.883 258.607L161.717 257.514L160.685 254.513Z" stroke="#B0DEED" stroke-width="1.18"/>
<path d="M205.259 257.829H195.928V267.714H205.259V257.829Z" stroke="#010A2D" stroke-width="2.9"/>
<path d="M200.968 268.011H191.636V277.896H200.968V268.011Z" stroke="#010A2D" stroke-width="2.9"/>
<path d="M210.234 268.011H200.903V277.896H210.234V268.011Z" stroke="#010A2D" stroke-width="2.9"/>
<path d="M83.7932 257.971H74.4619V267.856H83.7932V257.971Z" stroke="#010A2D" stroke-width="2.9"/>
<path d="M79.5051 268.153H70.1738V278.038H79.5051V268.153Z" stroke="#010A2D" stroke-width="2.9"/>
<path d="M88.7678 268.153H79.4365V278.038H88.7678V268.153Z" stroke="#010A2D" stroke-width="2.9"/>
<path d="M132.957 231.68H128.768V236.118H132.957V231.68Z" stroke="#C01466" stroke-width="1.64"/>
<path d="M170.289 249.231L168.125 250.066L168.912 252.359L171.077 251.525L170.289 249.231Z" stroke="#B0DEED" stroke-width="0.9"/>
<g opacity="0.5">
<g opacity="0.5">
<path opacity="0.5" d="M142.139 304.857C144.756 301.465 144.282 296.467 141.079 293.694C137.877 290.921 133.159 291.423 130.541 294.816C127.924 298.209 128.398 303.207 131.6 305.979C134.803 308.752 139.521 308.25 142.139 304.857Z" stroke="#C01466" stroke-width="2.48"/>
<path opacity="0.5" d="M136.343 292.137V289.061" stroke="#C01466" stroke-width="2.48"/>
<path opacity="0.5" d="M136.343 310.595V307.519" stroke="#C01466" stroke-width="2.48"/>
<path opacity="0.5" d="M129.083 299.828H126.179" stroke="#C01466" stroke-width="2.48"/>
<path opacity="0.5" d="M146.506 299.828H143.603" stroke="#C01466" stroke-width="2.48"/>
<path opacity="0.5" d="M131.209 305.266L129.156 307.442" stroke="#C01466" stroke-width="2.48"/>
<path opacity="0.5" d="M143.53 292.214L141.477 294.39" stroke="#C01466" stroke-width="2.48"/>
<path opacity="0.5" d="M141.477 305.266L143.53 307.442" stroke="#C01466" stroke-width="2.48"/>
<path opacity="0.5" d="M129.156 292.214L131.209 294.39" stroke="#C01466" stroke-width="2.48"/>
<path opacity="0.5" d="M141.477 305.266L143.53 307.442" stroke="#C01466" stroke-width="2.48"/>
<path opacity="0.5" d="M129.156 292.214L131.209 294.39" stroke="#C01466" stroke-width="2.48"/>
</g>
</g>
<g opacity="0.5">
<g opacity="0.5">
<path opacity="0.5" d="M158.049 299.869C159.521 296.905 158.446 293.238 155.648 291.679C152.85 290.119 149.389 291.258 147.917 294.222C146.444 297.186 147.519 300.853 150.317 302.413C153.115 303.972 156.577 302.834 158.049 299.869Z" stroke="#C01466" stroke-width="1.9"/>
<path opacity="0.5" d="M152.969 291.127V288.778" stroke="#C01466" stroke-width="1.9"/>
<path opacity="0.5" d="M152.969 305.239V302.885" stroke="#C01466" stroke-width="1.9"/>
<path opacity="0.5" d="M147.421 297.008H145.2" stroke="#C01466" stroke-width="1.9"/>
<path opacity="0.5" d="M160.738 297.008H158.521" stroke="#C01466" stroke-width="1.9"/>
<path opacity="0.5" d="M149.048 301.163L147.478 302.826" stroke="#C01466" stroke-width="1.9"/>
<path opacity="0.5" d="M158.465 291.186L156.895 292.85" stroke="#C01466" stroke-width="1.9"/>
<path opacity="0.5" d="M156.895 301.163L158.465 302.826" stroke="#C01466" stroke-width="1.9"/>
<path opacity="0.5" d="M147.478 291.186L149.048 292.85" stroke="#C01466" stroke-width="1.9"/>
<path opacity="0.5" d="M156.895 301.163L158.465 302.826" stroke="#C01466" stroke-width="1.9"/>
<path opacity="0.5" d="M147.478 291.186L149.048 292.85" stroke="#C01466" stroke-width="1.9"/>
</g>
</g>
<g opacity="0.5">
<g opacity="0.5">
<path opacity="0.5" d="M138.479 297.433H133.953V302.227H138.479V297.433Z" stroke="#C01466" stroke-width="1.77"/>
</g>
</g>
<g opacity="0.5">
<g opacity="0.5">
<path opacity="0.5" d="M154.604 295.176H151.145V298.841H154.604V295.176Z" stroke="#C01466" stroke-width="1.35"/>
</g>
</g>
<path d="M178.508 66.6669H163.047V83.0823H178.508V66.6669Z" stroke="#010A2D" stroke-width="3.38"/>
<path d="M212.525 136.24H197.063V152.656H212.525V136.24Z" stroke="#010A2D" stroke-width="3.38"/>
<path d="M145.678 135.719H130.217V152.135H145.678V135.719Z" stroke="#010A2D" stroke-width="3.38"/>
<path d="M158.354 70.3411L170.778 57.175L183.207 70.3411" stroke="#1D1D1B" stroke-width="3.38"/>
<path d="M192.37 139.91L204.794 126.748L217.223 139.91" stroke="#010A2D" stroke-width="3.38"/>
<path d="M125.523 139.389L137.948 126.228L150.377 139.389" stroke="#010A2D" stroke-width="3.38"/>
<path d="M318.047 0.781464C317.565 1.34855 317.315 2.09457 317.352 2.85624V9.94429H319.151V4.79849H321.373V3.2127H319.151V2.88366C319.149 2.71422 319.168 2.54522 319.207 2.38096C319.238 2.23693 319.3 2.10243 319.388 1.98794C319.48 1.86723 319.6 1.77551 319.738 1.72288C319.913 1.65433 320.099 1.62177 320.286 1.62691C320.462 1.62761 320.639 1.64752 320.812 1.68633C320.993 1.7207 321.17 1.77904 321.338 1.85998L321.688 0.333607C321.475 0.248389 321.257 0.17816 321.036 0.123385C320.731 0.0470855 320.418 0.0102616 320.104 0.0137094C319.73 -0.0158469 319.354 0.0371136 319 0.169255C318.645 0.301396 318.321 0.509847 318.047 0.781464ZM315.661 3.2127H313.862V8.40878C313.75 8.40878 313.62 8.44077 313.474 8.45448C313.327 8.46819 313.193 8.45448 313.064 8.45448C312.898 8.47733 312.73 8.45097 312.577 8.37835C312.425 8.30572 312.295 8.18968 312.201 8.04318C312.017 7.62837 311.937 7.17043 311.968 6.71331V3.19442H310.169V6.94638C310.165 7.37254 310.21 7.79764 310.303 8.21227C310.377 8.57209 310.524 8.91049 310.734 9.20396C310.964 9.49441 311.262 9.71648 311.597 9.84833C312.028 10.0152 312.485 10.0928 312.943 10.0768C313.453 10.08 313.962 10.0403 314.466 9.958C314.865 9.89556 315.259 9.80704 315.648 9.69294L315.661 3.2127ZM305.221 3.06646C305.014 3.06646 304.82 3.11216 304.634 3.14415C304.449 3.17614 304.28 3.20813 304.121 3.24469L303.728 3.35437L303.961 4.88989C304.211 4.79513 304.47 4.72924 304.733 4.69337C305.033 4.64371 305.336 4.61926 305.639 4.62026C305.986 4.58321 306.332 4.68967 306.606 4.91731C306.699 5.02016 306.772 5.14209 306.819 5.27566C306.867 5.40923 306.888 5.55163 306.882 5.6942V5.87701C306.741 5.83517 306.596 5.80612 306.45 5.79017C306.269 5.79017 306.062 5.75818 305.829 5.75818C305.491 5.75705 305.154 5.79382 304.824 5.86786C304.52 5.93244 304.228 6.05144 303.961 6.21976C303.712 6.38047 303.506 6.60529 303.362 6.87326C303.204 7.17818 303.127 7.52218 303.137 7.86952C303.127 8.22647 303.193 8.58128 303.331 8.9069C303.456 9.18393 303.648 9.42063 303.888 9.5924C304.149 9.77687 304.442 9.90427 304.751 9.96714C305.118 10.0493 305.493 10.0891 305.868 10.086C306.425 10.0933 306.982 10.0521 307.533 9.96258C307.995 9.88032 308.353 9.81176 308.607 9.75235V5.78561C308.611 5.40195 308.568 5.01942 308.478 4.64768C308.402 4.32444 308.254 4.02515 308.047 3.77481C307.805 3.52067 307.509 3.33248 307.184 3.22641C306.754 3.08687 306.305 3.02205 305.855 3.03447C305.648 3.03373 305.44 3.0444 305.234 3.06646H305.221ZM305.234 8.44077C305.136 8.3757 305.058 8.28297 305.008 8.17312C304.957 8.06327 304.937 7.94068 304.949 7.81925C304.946 7.68375 304.98 7.55023 305.048 7.43537C305.115 7.33183 305.205 7.24837 305.312 7.19316C305.436 7.13106 305.568 7.08945 305.704 7.06977C305.863 7.04944 306.023 7.03875 306.183 7.03778C306.316 7.03854 306.448 7.04769 306.58 7.0652C306.727 7.0652 306.834 7.09719 306.908 7.11547V8.56415C306.813 8.56415 306.683 8.59158 306.519 8.60072C306.355 8.60986 306.192 8.60072 306.015 8.60072C305.745 8.6146 305.476 8.5548 305.234 8.42706V8.44077ZM298.513 0L296.714 0.310756V9.90773H298.513V6.95552C298.732 7.14664 298.936 7.35765 299.121 7.58618C299.328 7.83296 299.522 8.09345 299.708 8.36308C299.893 8.63271 300.066 8.90234 300.234 9.1674C300.402 9.43246 300.544 9.6838 300.665 9.90773H302.732C302.594 9.62439 302.425 9.31363 302.227 8.99373C302.029 8.67384 301.796 8.31281 301.563 7.97006C301.33 7.62731 301.071 7.29827 300.812 6.9738C300.579 6.68235 300.328 6.40754 300.061 6.1512C300.544 5.6485 300.993 5.15951 301.399 4.68881C301.804 4.2181 302.223 3.71997 302.65 3.19899H300.493L300.087 3.71083L299.587 4.32778L299.039 4.98129L298.487 5.61651L298.513 0ZM295.747 3.31781C295.635 3.26669 295.518 3.22987 295.398 3.20813C295.26 3.17614 295.126 3.15329 294.988 3.13044C294.85 3.10759 294.712 3.09388 294.557 3.08017C294.401 3.06646 294.302 3.08017 294.207 3.08017C293.713 3.07335 293.219 3.12703 292.736 3.24012C292.351 3.33027 291.971 3.44317 291.597 3.5783V9.94886H293.379V4.79849C293.497 4.76828 293.616 4.74538 293.737 4.72993C293.87 4.70957 294.004 4.69889 294.138 4.69795C294.374 4.69661 294.61 4.71956 294.841 4.7665L295.406 4.9036L295.747 3.31781ZM286.11 5.88614C286.137 5.73087 286.176 5.57809 286.226 5.42914C286.275 5.27647 286.351 5.13525 286.45 5.01328C286.55 4.89059 286.674 4.79234 286.813 4.72537C286.975 4.64778 287.152 4.61027 287.331 4.61568C287.512 4.60983 287.693 4.65059 287.857 4.73451C287.992 4.8046 288.111 4.90431 288.206 5.02699C288.299 5.14938 288.369 5.28883 288.413 5.43828C288.456 5.58698 288.482 5.74031 288.491 5.89528L286.11 5.88614ZM284.462 7.99748C284.588 8.4095 284.799 8.78703 285.079 9.10342C285.373 9.42755 285.731 9.67881 286.127 9.83919C286.604 10.0281 287.11 10.1196 287.62 10.1088C287.844 10.1088 288.073 10.1088 288.297 10.0723C288.521 10.0357 288.728 10.0128 288.931 9.97629C289.134 9.93973 289.306 9.88945 289.47 9.83919C289.602 9.80031 289.73 9.74987 289.854 9.68837L289.613 8.13915C289.362 8.24677 289.102 8.32641 288.836 8.37679C288.515 8.44107 288.188 8.4732 287.861 8.47276C287.427 8.49686 286.997 8.37533 286.632 8.12544C286.487 8.02237 286.366 7.88722 286.276 7.72938C286.185 7.57154 286.129 7.3948 286.11 7.21144H290.195C290.195 7.10633 290.195 6.99208 290.195 6.85955C290.195 6.72702 290.195 6.60363 290.195 6.49395C290.258 5.55953 289.977 4.63562 289.41 3.91648C289.13 3.61653 288.792 3.38317 288.421 3.23188C288.049 3.0806 287.651 3.01487 287.253 3.03904C286.867 3.0398 286.485 3.11892 286.127 3.27211C285.761 3.42406 285.43 3.65432 285.152 3.94847C284.856 4.26973 284.625 4.65043 284.47 5.06812C284.289 5.56779 284.201 6.10025 284.211 6.63562C284.208 7.10092 284.275 7.56382 284.41 8.00662L284.462 7.99748ZM280.877 9.93973C281.207 9.19939 281.534 8.42706 281.856 7.62274C282.18 6.82299 282.486 6.02781 282.775 5.24635C283.064 4.46488 283.331 3.71083 283.577 2.99334L284.224 1.07394H282.218C282.059 1.59035 281.886 2.14332 281.692 2.73285C281.498 3.32238 281.308 3.91648 281.11 4.50601C280.911 5.09554 280.717 5.65765 280.532 6.19234C280.346 6.72703 280.174 7.19773 280.014 7.58618C279.846 7.19316 279.673 6.72702 279.492 6.18776L278.918 4.50143C278.72 3.91191 278.526 3.32238 278.331 2.73285C278.137 2.14332 277.969 1.58578 277.809 1.07394H275.734C275.91 1.63453 276.121 2.27433 276.369 2.99334C276.616 3.71236 276.883 4.46183 277.171 5.24178C277.464 6.02782 277.771 6.81842 278.094 7.62274C278.418 8.42706 278.746 9.19482 279.082 9.93973H280.877Z" fill="#010A2D"/>
<path d="M343.853 210.457C343.787 210.294 343.685 210.15 343.556 210.037C343.403 209.906 343.227 209.81 343.038 209.753C342.795 209.675 342.541 209.638 342.287 209.644C342.018 209.638 341.75 209.686 341.498 209.785C341.286 209.873 341.096 210.011 340.941 210.187C340.793 210.365 340.682 210.574 340.613 210.8C340.542 211.052 340.507 211.314 340.51 211.577V215.813H341.606V211.554C341.591 211.311 341.654 211.07 341.782 210.868C341.847 210.786 341.929 210.722 342.023 210.68C342.116 210.639 342.217 210.622 342.317 210.631C342.471 210.62 342.623 210.665 342.749 210.759C342.803 210.805 342.846 210.864 342.874 210.932C342.901 211 342.913 211.074 342.908 211.147C342.913 211.266 342.889 211.384 342.839 211.49C342.785 211.595 342.72 211.693 342.645 211.782C342.525 211.927 342.412 212.08 342.309 212.239C342.21 212.406 342.16 212.6 342.166 212.797C342.165 212.89 342.172 212.984 342.188 213.076C342.203 213.171 342.233 213.262 342.279 213.345C342.329 213.44 342.397 213.524 342.477 213.592C342.582 213.686 342.699 213.761 342.826 213.816C343.009 213.901 343.183 214.007 343.344 214.131C343.404 214.171 343.454 214.225 343.489 214.29C343.524 214.354 343.544 214.427 343.547 214.501C343.547 214.785 343.379 214.931 343.042 214.931C342.969 214.937 342.895 214.937 342.822 214.931C342.745 214.919 342.669 214.902 342.593 214.881L342.373 214.812L342.197 214.744L342.007 215.699C342.106 215.74 342.24 215.79 342.404 215.84C342.619 215.902 342.841 215.929 343.064 215.923C343.498 215.965 343.931 215.834 344.28 215.557C344.408 215.419 344.506 215.254 344.57 215.073C344.633 214.892 344.659 214.699 344.647 214.506C344.658 214.255 344.586 214.008 344.444 213.807C344.316 213.625 344.156 213.47 343.974 213.35L343.694 213.185C343.614 213.138 343.537 213.085 343.465 213.025C343.404 212.98 343.35 212.925 343.305 212.861C343.265 212.799 343.244 212.726 343.245 212.651C343.244 212.506 343.291 212.365 343.379 212.253L343.672 211.874C343.766 211.761 343.839 211.631 343.888 211.49C343.936 211.318 343.958 211.139 343.952 210.96C343.951 210.786 343.919 210.614 343.857 210.452L343.853 210.457ZM338.305 214.565C338.238 214.665 338.15 214.747 338.047 214.803C337.944 214.859 337.83 214.889 337.714 214.889C337.599 214.889 337.484 214.859 337.382 214.803C337.279 214.747 337.19 214.665 337.123 214.565C336.97 214.306 336.896 214.003 336.912 213.697C336.895 213.393 336.969 213.091 337.123 212.833C337.192 212.736 337.281 212.657 337.384 212.602C337.486 212.548 337.599 212.52 337.714 212.52C337.829 212.52 337.942 212.548 338.045 212.602C338.147 212.657 338.237 212.736 338.305 212.833C338.456 213.092 338.528 213.394 338.512 213.697C338.527 214.002 338.455 214.305 338.305 214.565ZM339.509 212.797C339.421 212.541 339.286 212.307 339.112 212.107C338.939 211.912 338.731 211.756 338.499 211.65C338.25 211.543 337.983 211.49 337.714 211.494C337.448 211.491 337.184 211.544 336.938 211.65C336.706 211.756 336.498 211.912 336.325 212.107C336.145 212.304 336.007 212.539 335.92 212.797C335.817 213.089 335.767 213.399 335.773 213.711C335.768 214.022 335.816 214.332 335.915 214.625C336 214.885 336.136 215.123 336.312 215.324C336.482 215.523 336.691 215.679 336.925 215.781C337.435 215.995 338.002 215.995 338.512 215.781C338.747 215.68 338.956 215.524 339.125 215.324C339.302 215.124 339.436 214.885 339.518 214.625C339.609 214.33 339.654 214.021 339.651 213.711C339.657 213.4 339.608 213.09 339.509 212.797ZM335.432 211.686C335.363 211.655 335.291 211.632 335.216 211.618L334.962 211.568L334.707 211.536H334.487C334.181 211.532 333.876 211.565 333.577 211.636C333.337 211.69 333.101 211.76 332.87 211.846V215.804H333.987V212.605C334.059 212.582 334.132 212.567 334.207 212.559C334.29 212.553 334.374 212.553 334.457 212.559C334.602 212.559 334.746 212.572 334.889 212.6L335.242 212.687L335.432 211.686ZM331.817 211.755C331.718 211.723 331.606 211.695 331.476 211.664C331.347 211.632 331.213 211.609 331.075 211.59C330.937 211.572 330.794 211.549 330.643 211.536C330.493 211.522 330.359 211.536 330.212 211.536C329.919 211.53 329.626 211.58 329.349 211.682C329.112 211.772 328.896 211.916 328.715 212.102C328.543 212.285 328.409 212.505 328.323 212.747C328.23 213.016 328.185 213.301 328.189 213.587C328.159 214.106 328.313 214.618 328.62 215.022C328.781 215.199 328.976 215.336 329.192 215.425C329.408 215.513 329.64 215.551 329.871 215.534C330.016 215.537 330.161 215.522 330.303 215.489C330.431 215.461 330.555 215.418 330.674 215.361V215.511C330.678 215.616 330.663 215.72 330.629 215.818C330.595 215.916 330.543 216.006 330.475 216.083C330.381 216.166 330.273 216.229 330.156 216.268C330.039 216.306 329.916 216.319 329.794 216.307C329.574 216.308 329.354 216.287 329.138 216.243C328.949 216.202 328.765 216.144 328.586 216.069L328.392 217.061C328.61 217.137 328.834 217.197 329.06 217.239C329.298 217.284 329.539 217.307 329.781 217.307C330.329 217.356 330.873 217.177 331.299 216.809C331.476 216.605 331.611 216.365 331.695 216.103C331.78 215.841 331.813 215.563 331.791 215.287L331.817 211.755ZM329.582 212.783C329.659 212.677 329.76 212.593 329.875 212.539C329.99 212.484 330.116 212.462 330.242 212.472H330.505L330.7 212.504V214.392C330.62 214.441 330.534 214.48 330.445 214.506C330.34 214.538 330.231 214.553 330.122 214.552C329.617 214.552 329.362 214.223 329.362 213.56C329.351 213.279 329.429 213.003 329.582 212.774" fill="#010A2D"/>
<path d="M340.984 294.312H342.102V291.086L342.343 291.058H342.598C342.699 291.046 342.801 291.062 342.894 291.104C342.987 291.147 343.068 291.214 343.128 291.3C343.244 291.552 343.295 291.831 343.275 292.109V294.326H344.393V291.949C344.394 291.686 344.366 291.424 344.311 291.168C344.26 290.948 344.164 290.742 344.03 290.565C343.89 290.387 343.709 290.252 343.504 290.172C343.235 290.073 342.951 290.026 342.667 290.035C342.349 290.033 342.032 290.057 341.718 290.108C341.47 290.146 341.225 290.201 340.984 290.272V294.312ZM339.841 288.412C339.711 288.291 339.544 288.224 339.371 288.224C339.198 288.224 339.031 288.291 338.901 288.412C338.773 288.548 338.702 288.732 338.702 288.924C338.702 289.116 338.773 289.3 338.901 289.436C339.031 289.557 339.198 289.624 339.371 289.624C339.544 289.624 339.711 289.557 339.841 289.436C339.969 289.3 340.04 289.116 340.04 288.924C340.04 288.732 339.969 288.548 339.841 288.412ZM339.936 290.131H338.814V294.312H339.936V290.131ZM335.393 291.803C335.41 291.701 335.434 291.6 335.467 291.502C335.496 291.407 335.543 291.32 335.605 291.246C335.667 291.17 335.744 291.11 335.829 291.067C335.931 291.019 336.041 290.996 336.153 290.999C336.266 290.994 336.379 291.02 336.481 291.072C336.565 291.115 336.639 291.177 336.696 291.255C336.754 291.329 336.797 291.415 336.826 291.506C336.852 291.603 336.868 291.702 336.873 291.803H335.393ZM334.371 293.115C334.447 293.371 334.577 293.605 334.751 293.8C334.935 294.001 335.159 294.157 335.406 294.257C335.702 294.377 336.017 294.435 336.334 294.426C336.606 294.42 336.877 294.391 337.145 294.339C337.259 294.319 337.371 294.292 337.481 294.257C337.563 294.232 337.642 294.2 337.719 294.161L337.572 293.202C337.415 293.269 337.252 293.318 337.085 293.348C336.886 293.389 336.683 293.408 336.481 293.407C336.211 293.422 335.944 293.347 335.717 293.192C335.626 293.127 335.55 293.041 335.494 292.941C335.438 292.84 335.404 292.728 335.393 292.612H337.93C337.93 292.548 337.93 292.475 337.93 292.393C337.93 292.31 337.93 292.237 337.93 292.169C337.971 291.587 337.796 291.011 337.443 290.565C337.27 290.38 337.062 290.236 336.833 290.143C336.604 290.049 336.359 290.008 336.114 290.021C335.875 290.02 335.637 290.068 335.415 290.163C335.188 290.257 334.982 290.402 334.811 290.588C334.624 290.785 334.477 291.022 334.38 291.282C334.267 291.593 334.213 291.923 334.22 292.256C334.218 292.547 334.261 292.837 334.345 293.115H334.371ZM333.771 293.416C333.661 293.41 333.551 293.385 333.448 293.343C333.375 293.315 333.311 293.266 333.262 293.202C333.219 293.137 333.19 293.064 333.176 292.987C333.169 292.891 333.169 292.795 333.176 292.699V288.129L332.059 288.316V292.918C332.056 293.121 332.078 293.324 332.123 293.521C332.161 293.694 332.243 293.852 332.361 293.978C332.499 294.113 332.664 294.211 332.844 294.266C333.1 294.345 333.366 294.383 333.633 294.381L333.771 293.416ZM328.81 288.147L327.693 288.335V294.312H328.81V292.484C328.946 292.604 329.073 292.736 329.19 292.877C329.315 293.028 329.436 293.192 329.552 293.357C329.669 293.521 329.777 293.691 329.876 293.86L330.152 294.317H331.446C331.36 294.143 331.256 293.951 331.131 293.736C331.006 293.521 330.868 293.311 330.7 293.101C330.532 292.891 330.393 292.681 330.234 292.484C330.089 292.301 329.934 292.129 329.768 291.968C330.07 291.657 330.346 291.355 330.601 291.054C330.855 290.752 331.11 290.45 331.377 290.14H330.044L329.794 290.46L329.483 290.839C329.375 290.976 329.259 291.113 329.142 291.25L328.802 291.643L328.81 288.147Z" fill="#010A2D"/>
<path d="M197.404 9.94441H199.207V4.74833C199.32 4.74833 199.449 4.71634 199.591 4.70263C199.734 4.68892 199.872 4.70263 200.001 4.70263C200.164 4.6808 200.33 4.70479 200.481 4.77217C200.633 4.83955 200.765 4.94796 200.864 5.08651C201.048 5.49304 201.127 5.94409 201.093 6.39353V9.96269H202.892V6.14218C202.895 5.72083 202.852 5.30048 202.762 4.89C202.687 4.53608 202.54 4.20384 202.331 3.91659C202.101 3.62891 201.803 3.41123 201.468 3.28594C201.036 3.12298 200.58 3.04703 200.122 3.06201C199.612 3.0609 199.103 3.10062 198.599 3.18082C198.199 3.24333 197.803 3.33185 197.413 3.44588L197.404 9.94441ZM193.849 7.9656C193.747 8.13232 193.606 8.26806 193.44 8.35942C193.274 8.45077 193.088 8.4946 192.9 8.48658C192.712 8.49405 192.526 8.45001 192.359 8.35874C192.192 8.26747 192.05 8.13205 191.947 7.9656C191.703 7.54663 191.585 7.05875 191.61 6.56719C191.588 6.08458 191.706 5.60632 191.947 5.19619C192.052 5.0329 192.195 4.90066 192.362 4.81192C192.528 4.72318 192.714 4.68085 192.9 4.68892C193.086 4.68033 193.271 4.72247 193.437 4.81129C193.603 4.90011 193.745 5.03264 193.849 5.19619C194.087 5.60774 194.203 6.08529 194.181 6.56719C194.205 7.05805 194.09 7.54522 193.849 7.9656ZM195.786 5.1185C195.647 4.70638 195.429 4.32858 195.148 4.00799C194.871 3.69828 194.536 3.45381 194.164 3.29051C193.763 3.11688 193.333 3.02987 192.9 3.03459C192.473 3.03071 192.049 3.11773 191.653 3.29051C191.279 3.45365 190.941 3.69806 190.661 4.00799C190.376 4.32781 190.154 4.70557 190.01 5.1185C189.847 5.58163 189.766 6.07288 189.773 6.56719C189.768 7.06055 189.845 7.55091 190.001 8.01587C190.141 8.43427 190.36 8.81826 190.644 9.14466C190.918 9.45818 191.254 9.70458 191.628 9.86672C192.45 10.2079 193.363 10.2079 194.186 9.86672C194.56 9.7035 194.897 9.4573 195.174 9.14466C195.455 8.81963 195.669 8.43486 195.799 8.01587C195.95 7.54981 196.024 7.05984 196.019 6.56719C196.025 6.07334 195.946 5.58251 195.786 5.1185ZM188.232 0.443405C188.026 0.244402 187.756 0.136479 187.477 0.141784C187.199 0.137858 186.929 0.245596 186.723 0.443405C186.518 0.663192 186.403 0.959527 186.403 1.26828C186.403 1.57704 186.518 1.87338 186.723 2.09317C186.929 2.29098 187.199 2.39871 187.477 2.39478C187.756 2.40009 188.026 2.29217 188.232 2.09317C188.335 1.98493 188.416 1.85635 188.471 1.7148C188.527 1.57326 188.555 1.42152 188.555 1.26828C188.555 1.11504 188.527 0.963311 188.471 0.821766C188.416 0.680221 188.335 0.551649 188.232 0.443405ZM188.383 3.21282H186.584V9.94441H188.383V3.21282ZM181.162 7.19327C181.158 7.59272 181.197 7.99132 181.278 8.38147C181.344 8.71562 181.483 9.02872 181.684 9.29547C181.889 9.55857 182.155 9.76151 182.456 9.885C182.846 10.0386 183.261 10.11 183.677 10.0952C184.009 10.0988 184.341 10.0605 184.665 9.98097C184.911 9.91863 185.154 9.83768 185.389 9.73876L185.139 8.25351C184.956 8.32608 184.767 8.37965 184.574 8.41347C184.378 8.45093 184.178 8.47079 183.979 8.47287C183.827 8.49359 183.672 8.47106 183.531 8.40761C183.39 8.34416 183.268 8.24208 183.176 8.11185C183.029 7.81693 182.959 7.4855 182.974 7.15214V4.78489H185.131V3.19911H182.974V1.21573L181.175 1.52649L181.162 7.19327ZM176.127 0.0138245L174.328 0.32458V9.92156H176.127V6.96935C176.345 7.16284 176.548 7.37367 176.735 7.6C176.943 7.84678 177.137 8.10728 177.322 8.37691C177.508 8.64653 177.68 8.91616 177.844 9.18122C178.008 9.44628 178.155 9.69763 178.276 9.92156H180.351C180.213 9.63822 180.044 9.32746 179.842 9.00756C179.639 8.68766 179.41 8.32664 179.177 7.98389C178.944 7.64114 178.685 7.31209 178.431 6.98763C178.198 6.69617 177.947 6.42137 177.68 6.16503C178.163 5.66233 178.608 5.17486 179.013 4.70263C179.445 4.24563 179.837 3.7338 180.264 3.21282H178.107C177.995 3.35906 177.861 3.52814 177.702 3.72465L177.201 4.3416C177.025 4.55639 176.843 4.7986 176.654 4.99511L176.106 5.63034L176.127 0.0138245ZM172.637 3.21282H170.86V8.40889C170.748 8.40889 170.618 8.44088 170.471 8.45459C170.325 8.4683 170.191 8.45459 170.062 8.45459C169.896 8.47588 169.728 8.44881 169.576 8.37632C169.424 8.30383 169.294 8.18866 169.199 8.04329C169.019 7.62716 168.94 7.16999 168.97 6.71343V3.19453H167.171V6.9465C167.167 7.37265 167.212 7.79776 167.305 8.21239C167.379 8.5723 167.526 8.91076 167.736 9.20407C167.968 9.493 168.265 9.71477 168.599 9.84844C169.03 10.0153 169.487 10.0929 169.945 10.0769C170.455 10.0802 170.964 10.0404 171.468 9.95812C171.867 9.89519 172.262 9.80668 172.65 9.69306L172.637 3.21282ZM165.523 0.0138245L163.724 0.32458V3.36819C163.531 3.27551 163.331 3.20207 163.125 3.14884C162.905 3.09487 162.681 3.06879 162.456 3.07115C162.043 3.06324 161.633 3.14731 161.252 3.31792C160.908 3.47343 160.605 3.71491 160.368 4.02171C160.114 4.35195 159.925 4.73261 159.811 5.14135C159.677 5.62017 159.611 6.11786 159.617 6.61746C159.61 7.11215 159.686 7.60427 159.842 8.07072C159.978 8.48262 160.199 8.85727 160.489 9.16751C160.779 9.48069 161.133 9.71979 161.524 9.86672C161.974 10.0339 162.449 10.1159 162.926 10.1089C163.146 10.1089 163.358 10.1089 163.608 10.0769C163.858 10.045 164.078 10.0267 164.311 9.99468C164.544 9.96269 164.742 9.92156 164.967 9.87129C165.191 9.82102 165.364 9.77532 165.523 9.72505V0.0138245ZM162.732 4.68435C162.919 4.68516 163.104 4.71127 163.284 4.76204C163.437 4.80174 163.582 4.86651 163.716 4.95398V8.4226C163.625 8.4226 163.513 8.45459 163.375 8.46373C163.237 8.47287 163.09 8.46373 162.943 8.46373C162.73 8.4781 162.517 8.43637 162.323 8.34228C162.129 8.24819 161.96 8.10466 161.83 7.92447C161.565 7.50574 161.435 7.00701 161.459 6.50321C161.459 5.27845 161.891 4.67521 162.754 4.67521L162.732 4.68435ZM156.386 7.95647C156.279 8.11773 156.136 8.24928 155.97 8.34008C155.805 8.43088 155.621 8.47827 155.435 8.47827C155.248 8.47827 155.065 8.43088 154.899 8.34008C154.734 8.24928 154.591 8.11773 154.484 7.95647C154.236 7.53883 154.117 7.05029 154.143 6.55804C154.12 6.07474 154.239 5.59584 154.484 5.18705C154.594 5.03009 154.738 4.90264 154.903 4.81483C155.068 4.72702 155.25 4.68129 155.435 4.68129C155.62 4.68129 155.802 4.72702 155.967 4.81483C156.132 4.90264 156.276 5.03009 156.386 5.18705C156.624 5.5986 156.739 6.07614 156.718 6.55804C156.742 7.0489 156.627 7.53609 156.386 7.95647ZM158.323 5.10936C158.182 4.6981 157.965 4.32064 157.685 3.99886C157.406 3.68903 157.07 3.44459 156.697 3.28136C155.891 2.9401 154.992 2.9401 154.186 3.28136C153.813 3.44459 153.476 3.68903 153.198 3.99886C152.911 4.3185 152.688 4.69621 152.542 5.10936C152.235 6.04765 152.235 7.06844 152.542 8.00673C152.681 8.42486 152.898 8.80886 153.181 9.13552C153.458 9.44815 153.795 9.69436 154.169 9.85758C154.579 10.0351 155.02 10.1221 155.463 10.1135C155.906 10.1208 156.346 10.0337 156.757 9.85758C157.131 9.69544 157.466 9.44904 157.741 9.13552C158.024 8.81074 158.238 8.42599 158.371 8.00673C158.518 7.53985 158.591 7.05027 158.586 6.55804C158.591 6.06466 158.514 5.57423 158.358 5.10936H158.323ZM151.8 3.31792C151.687 3.27177 151.57 3.23659 151.451 3.21282C151.313 3.18083 151.175 3.15798 151.019 3.13513C150.864 3.11228 150.748 3.094 150.61 3.08486C150.472 3.07572 150.355 3.06201 150.26 3.06201C149.767 3.05769 149.275 3.11134 148.793 3.22196C148.407 3.31564 148.026 3.43004 147.65 3.56471V9.93527H149.449V4.7986C149.567 4.76882 149.687 4.74593 149.807 4.73005C149.942 4.70966 150.077 4.69898 150.213 4.69806C150.447 4.69649 150.681 4.71945 150.912 4.76661C151.132 4.81688 151.317 4.85801 151.481 4.90371L151.8 3.31792ZM143.392 2.72382C143.594 2.75524 143.788 2.82491 143.966 2.92948C144.118 3.02125 144.244 3.15565 144.328 3.31792C144.42 3.50854 144.465 3.72091 144.458 3.93488C144.478 4.14134 144.443 4.34975 144.355 4.53529C144.267 4.72084 144.13 4.87568 143.962 4.9814C143.498 5.19775 142.992 5.29484 142.486 5.26474H141.895V2.70555L142.24 2.67813H142.646C142.896 2.67641 143.145 2.69474 143.392 2.73297V2.72382ZM141.317 1.02836C140.883 1.05762 140.45 1.11716 140.023 1.20659V9.94441H141.904V6.97392H142.495C143.506 7.0407 144.513 6.79458 145.394 6.26557C145.738 6.00802 146.013 5.6595 146.191 5.25464C146.369 4.84978 146.444 4.40267 146.408 3.95773C146.408 2.89749 146.076 2.12973 145.407 1.67273C144.532 1.15232 143.535 0.909576 142.534 0.973518C142.189 0.973518 141.783 0.973523 141.326 1.02836" fill="#010A2D"/>
<path d="M62.4177 0.781464C61.9363 1.34855 61.6866 2.09457 61.7232 2.85624V9.94429H63.5221V4.79849H65.7439V3.2127H63.5221V2.88366C63.52 2.71422 63.5389 2.54522 63.5782 2.38096C63.6092 2.23693 63.6712 2.10243 63.7594 1.98794C63.8506 1.86723 63.9715 1.77551 64.1088 1.72288C64.2839 1.6539 64.47 1.62132 64.6567 1.62691C64.8336 1.62796 65.0099 1.64787 65.183 1.68633C65.3645 1.72134 65.5412 1.77965 65.7093 1.85998L66.0588 0.333607C65.846 0.249054 65.6285 0.178838 65.4074 0.123385C65.102 0.0475238 64.7892 0.0107059 64.4755 0.0137094C64.1011 -0.0158469 63.7249 0.0371136 63.3707 0.169255C63.0165 0.301396 62.6921 0.509847 62.4177 0.781464ZM60.032 3.2127H58.2331V8.40878C58.1209 8.40878 57.9915 8.44077 57.8448 8.45448C57.6982 8.46819 57.5644 8.45448 57.435 8.45448C57.2695 8.47577 57.1016 8.4487 56.9495 8.3762C56.7974 8.30371 56.6669 8.18855 56.5722 8.04318C56.3924 7.62705 56.3138 7.16987 56.3435 6.71331V3.19442H54.5446V6.94638C54.5404 7.37254 54.5853 7.79764 54.6783 8.21227C54.7522 8.57219 54.8994 8.91065 55.1097 9.20396C55.341 9.49289 55.6379 9.71465 55.9725 9.84833C56.4032 10.0152 56.8602 10.0928 57.3185 10.0768C57.8283 10.08 58.3375 10.0403 58.8414 9.958C59.2402 9.89556 59.635 9.80704 60.0234 9.69294L60.032 3.2127ZM49.5921 3.06646C49.385 3.06646 49.1908 3.11216 49.0053 3.14415C48.8198 3.17614 48.6516 3.20813 48.492 3.24469L48.0994 3.35437L48.328 4.88989C48.5782 4.79567 48.837 4.7298 49.1003 4.69337C49.4 4.64405 49.7029 4.6196 50.0062 4.62026C50.3525 4.58273 50.699 4.68924 50.9725 4.91731C51.0665 5.01994 51.1398 5.14172 51.188 5.27527C51.2362 5.40882 51.2583 5.55134 51.253 5.6942V5.87701C51.1117 5.83517 50.9674 5.80612 50.8216 5.79017C50.6404 5.79017 50.4333 5.75818 50.196 5.75818C49.8626 5.75795 49.53 5.79471 49.2038 5.86786C48.8996 5.93295 48.6079 6.05192 48.341 6.21976C48.0931 6.38013 47.8881 6.60512 47.7456 6.87326C47.5883 7.17818 47.5108 7.52218 47.5213 7.86952C47.5106 8.22647 47.577 8.58128 47.7154 8.9069C47.8398 9.18393 48.032 9.42063 48.272 9.5924C48.5332 9.77687 48.8265 9.90427 49.1348 9.96714C49.5021 10.0496 49.8767 10.0894 50.2521 10.086C50.8094 10.0933 51.3664 10.0521 51.9173 9.96258C52.3746 9.88032 52.7327 9.81176 52.9915 9.75235V5.78561C52.9961 5.40162 52.951 5.01877 52.8578 4.64768C52.779 4.32079 52.6231 4.02045 52.4048 3.77481C52.1645 3.51919 51.868 3.33076 51.542 3.22641C51.1118 3.08687 50.6631 3.02205 50.2133 3.03447C50.0058 3.03351 49.7985 3.04418 49.5921 3.06646ZM49.5921 8.44077C49.4945 8.3757 49.4162 8.28297 49.3658 8.17312C49.3155 8.06327 49.2952 7.94068 49.3073 7.81925C49.3041 7.68375 49.3386 7.55023 49.4065 7.43537C49.473 7.33183 49.5637 7.24837 49.6697 7.19316C49.7936 7.13022 49.9261 7.08857 50.0623 7.06977C50.2212 7.04944 50.3811 7.03875 50.5411 7.03778C50.6738 7.03854 50.8064 7.04769 50.938 7.0652C51.0847 7.0652 51.1926 7.09719 51.2659 7.11547V8.56415C51.1667 8.56415 51.0416 8.59158 50.8776 8.60072C50.7137 8.60986 50.5498 8.60072 50.3729 8.60072C50.1029 8.6146 49.834 8.5548 49.5921 8.42706V8.44077ZM42.8708 0L41.0718 0.310756V9.90773H42.8708V6.95552C43.0904 7.14664 43.2939 7.35765 43.479 7.58618C43.6861 7.83296 43.8803 8.09345 44.0658 8.36308C44.2513 8.63271 44.4238 8.90234 44.5878 9.1674C44.7517 9.43246 44.9027 9.6838 45.0192 9.90773H47.0899C46.9518 9.62439 46.7836 9.31363 46.5808 8.99373C46.3781 8.67384 46.1494 8.31281 45.9165 7.97006C45.6835 7.62731 45.429 7.29827 45.1702 6.9738C44.9374 6.68235 44.6866 6.40754 44.4195 6.1512C44.9027 5.6485 45.3485 5.16104 45.7569 4.68881C46.1624 4.23181 46.5765 3.71997 47.0036 3.19899H44.8466L44.4454 3.71083C44.2858 3.90277 44.1218 4.10842 43.945 4.32778C43.7681 4.54714 43.5826 4.78478 43.3928 4.98129L42.8449 5.61651L42.8708 0ZM33.9579 9.93058H35.7569V4.74822L36.1452 4.70252C36.2875 4.70252 36.4256 4.70252 36.555 4.70252C36.7179 4.68116 36.8833 4.70535 37.0347 4.7727C37.186 4.84005 37.3181 4.94819 37.4178 5.08639C37.5998 5.49366 37.6786 5.9441 37.6465 6.39341V9.96258H39.4454V6.14207C39.4501 5.72041 39.4052 5.29977 39.3117 4.88989C39.2368 4.53591 39.0895 4.20364 38.8803 3.91648C38.6493 3.63041 38.3519 3.41305 38.0175 3.28582C37.5859 3.12287 37.1294 3.04691 36.6715 3.06189C36.1632 3.06094 35.6556 3.10066 35.1529 3.18071C34.7527 3.24321 34.3565 3.33173 33.9666 3.44577L33.9579 9.93058ZM32.1158 0.42958C31.9098 0.230577 31.6397 0.122654 31.3609 0.127959C31.0823 0.124033 30.8127 0.231771 30.6059 0.42958C30.4012 0.649368 30.2865 0.945703 30.2865 1.25446C30.2865 1.56322 30.4012 1.85956 30.6059 2.07935C30.8127 2.27715 31.0823 2.38489 31.3609 2.38096C31.6397 2.38627 31.9098 2.27835 32.1158 2.07935C32.3206 1.85956 32.4353 1.56322 32.4353 1.25446C32.4353 0.945703 32.3206 0.649368 32.1158 0.42958ZM32.2668 3.19899H30.4679V9.93058H32.2668V3.19899ZM29.1995 9.93058V8.2534H25.153V6.11922H28.4964V4.49687H25.1486V2.76027H28.9278V1.08309H23.2764V9.94886L29.1995 9.93058Z" fill="#010A2D"/>
<path d="M152.008 117.997C152.973 122.296 155.225 126.148 158.429 128.978C161.632 131.809 165.614 133.464 169.779 133.698C173.944 133.932 178.069 132.732 181.537 130.277C185.005 127.821 187.629 124.243 189.018 120.077" stroke="#010A2D" stroke-width="3.38"/>
<path d="M182.15 121.548L189.622 119.048L192.991 126.543" stroke="#010A2D" stroke-width="3.38"/>
<path d="M189.548 108.56C188.58 104.264 186.326 100.415 183.123 97.5877C179.919 94.7604 175.939 93.1065 171.775 92.8731C167.611 92.6397 163.488 93.8392 160.021 96.2926C156.554 98.746 153.929 102.322 152.538 106.485" stroke="#010A2D" stroke-width="3.38"/>
<path d="M159.411 105.005L151.943 107.504L148.574 100.014" stroke="#010A2D" stroke-width="3.38"/>
<path d="M90.7354 264.584L98.8285 253.995" stroke="#010A2D" stroke-width="2.95"/>
<path d="M51.71 103.753L156.507 82.173" stroke="#C01466" stroke-width="2.95"/>
<path d="M182.119 75.8663L268.443 63.0155" stroke="#DD97B0" stroke-width="2.95"/>
<path d="M212.849 129.066L273.189 78.2202" stroke="#DD97B0" stroke-width="2.95"/>
<path d="M51.7134 108.83L121.053 133.407" stroke="#C01466" stroke-width="2.95"/>
<path d="M65.23 160.658L192.352 152.423" stroke="#B0DEED" stroke-width="2.95"/>
<path d="M65.2905 155.882L125.597 147.469" stroke="#B0DEED" stroke-width="2.95"/>
<path d="M216.221 132.58L292.325 107.93" stroke="#C01466" stroke-width="2.95"/>
<path d="M216.921 144.704L272.831 153.556" stroke="#B0DEED" stroke-width="2.95"/>
<path d="M182.426 79.0698L273.297 141.583" stroke="#B0DEED" stroke-width="2.95"/>
<path d="M63.3101 62.4947L130.35 126.438" stroke="#B097B8" stroke-width="2.95"/>
<path d="M336.036 270.566C334.834 270.569 333.66 270.949 332.662 271.658C331.664 272.367 330.887 273.374 330.429 274.551C329.971 275.727 329.852 277.022 330.088 278.27C330.324 279.518 330.904 280.664 331.755 281.563C332.606 282.462 333.689 283.074 334.867 283.322C336.046 283.569 337.268 283.441 338.378 282.953C339.488 282.465 340.436 281.64 341.103 280.581C341.771 279.523 342.127 278.278 342.127 277.005C342.127 275.297 341.487 273.66 340.347 272.452C339.207 271.245 337.661 270.566 336.048 270.566" fill="#B0DEED"/>
<g opacity="0.5">
<g opacity="0.5">
<path opacity="0.5" d="M336.036 238.558C334.834 238.561 333.66 238.941 332.662 239.65C331.664 240.36 330.887 241.366 330.429 242.544C329.971 243.721 329.852 245.015 330.089 246.263C330.325 247.512 330.905 248.658 331.756 249.557C332.607 250.456 333.691 251.067 334.87 251.314C336.049 251.561 337.271 251.432 338.381 250.943C339.49 250.455 340.439 249.629 341.106 248.57C341.772 247.511 342.128 246.266 342.127 244.993C342.127 244.147 341.97 243.31 341.664 242.529C341.359 241.748 340.911 241.039 340.346 240.441C339.782 239.843 339.112 239.37 338.374 239.047C337.637 238.723 336.847 238.557 336.048 238.558" fill="#C01466"/>
</g>
</g>
<path d="M336.036 222.549C334.835 222.552 333.661 222.932 332.663 223.641C331.665 224.35 330.888 225.357 330.43 226.534C329.972 227.711 329.853 229.005 330.089 230.253C330.325 231.501 330.905 232.647 331.756 233.546C332.606 234.446 333.689 235.057 334.868 235.305C336.047 235.552 337.268 235.424 338.378 234.936C339.488 234.448 340.437 233.623 341.104 232.564C341.772 231.506 342.128 230.261 342.128 228.988C342.128 227.281 341.487 225.643 340.347 224.435C339.207 223.228 337.661 222.549 336.049 222.549" fill="#C01466"/>
<path d="M336.036 254.562C334.834 254.565 333.66 254.945 332.662 255.654C331.664 256.363 330.887 257.37 330.429 258.547C329.971 259.724 329.852 261.018 330.088 262.266C330.324 263.514 330.904 264.66 331.755 265.559C332.606 266.458 333.689 267.07 334.867 267.318C336.046 267.565 337.268 267.437 338.378 266.949C339.488 266.461 340.436 265.636 341.103 264.577C341.771 263.519 342.127 262.274 342.127 261.001C342.127 259.294 341.487 257.656 340.347 256.448C339.207 255.241 337.661 254.562 336.048 254.562" fill="#B097B8"/>
<path d="M133.112 152.528L50.0015 276.621" stroke="#1D1D1B" stroke-width="2.9" stroke-dasharray="12.33 12.33"/>
<path d="M143.104 152.587L231.934 276.672" stroke="#1D1D1B" stroke-width="2.9" stroke-dasharray="11.75 11.75"/>
<path d="M59.9538 53.2449H49.4966V64.35H59.9538V53.2449Z" stroke="#B097B8" stroke-width="3.39"/>
<path d="M49.4748 43.8809H27.21V64.4549H49.4748V43.8809Z" stroke="#B097B8" stroke-width="3.39"/>
<path d="M33.7936 71.4949C35.6093 71.3581 36.9764 69.6879 36.8472 67.7645C36.718 65.8411 35.1414 64.3928 33.3257 64.5296C31.51 64.6665 30.1428 66.3367 30.272 68.2601C30.4012 70.1835 31.9779 71.6318 33.7936 71.4949Z" stroke="#B097B8" stroke-width="3"/>
<path d="M53.8639 71.4893C55.6796 71.3525 57.0467 69.6823 56.9176 67.7589C56.7884 65.8355 55.2117 64.3871 53.396 64.524C51.5803 64.6609 50.2131 66.3311 50.3423 68.2545C50.4715 70.1779 52.0482 71.6262 53.8639 71.4893Z" stroke="#B097B8" stroke-width="3"/>
<path d="M62.0982 154.191H54.6436V162.107H62.0982V154.191Z" stroke="#B0DEED" stroke-width="2.42"/>
<path d="M54.6263 147.515H38.7549V162.184H54.6263V147.515Z" stroke="#B0DEED" stroke-width="2.42"/>
<path d="M43.2711 167.225C43.7363 167.225 44.191 167.079 44.5777 166.805C44.9645 166.531 45.2658 166.142 45.4437 165.687C45.6215 165.231 45.6678 164.73 45.5767 164.247C45.4857 163.764 45.2613 163.32 44.9321 162.972C44.6028 162.624 44.1835 162.387 43.7271 162.291C43.2708 162.196 42.7979 162.246 42.3683 162.435C41.9388 162.624 41.5719 162.944 41.3141 163.354C41.0562 163.764 40.9191 164.246 40.9199 164.739C40.9211 165.399 41.1693 166.031 41.6101 166.497C42.0509 166.963 42.6483 167.225 43.2711 167.225Z" stroke="#B0DEED" stroke-width="2.14"/>
<path d="M57.5807 167.225C58.0459 167.225 58.5006 167.079 58.8874 166.805C59.2741 166.531 59.5755 166.142 59.7533 165.687C59.9311 165.231 59.9774 164.73 59.8863 164.247C59.7953 163.764 59.5709 163.32 59.2417 162.972C58.9124 162.624 58.4931 162.387 58.0367 162.291C57.5803 162.196 57.1075 162.246 56.6779 162.435C56.2484 162.624 55.8815 162.944 55.6236 163.354C55.3658 163.764 55.2286 164.246 55.2295 164.739C55.2306 165.399 55.4789 166.031 55.9197 166.497C56.3605 166.963 56.9578 167.225 57.5807 167.225V167.225Z" stroke="#B0DEED" stroke-width="2.14"/>
<path d="M47.0079 100.238H32.957V115.164H47.0079V100.238Z" stroke="#C01466" stroke-width="4.56"/>
<path d="M32.9222 87.6478H3V115.301H32.9222V87.6478Z" stroke="#C01466" stroke-width="4.56"/>
<path d="M11.5204 124.807C13.9673 124.807 15.9509 122.705 15.9509 120.113C15.9509 117.521 13.9673 115.42 11.5204 115.42C9.07346 115.42 7.08984 117.521 7.08984 120.113C7.08984 122.705 9.07346 124.807 11.5204 124.807Z" stroke="#C01466" stroke-width="4.03"/>
<path d="M38.496 124.807C40.9429 124.807 42.9265 122.705 42.9265 120.113C42.9265 117.521 40.9429 115.42 38.496 115.42C36.049 115.42 34.0654 117.521 34.0654 120.113C34.0654 122.705 36.049 124.807 38.496 124.807Z" stroke="#C01466" stroke-width="4.03"/>
<g opacity="0.5">
<g opacity="0.5">
<path opacity="0.5" d="M281.761 57.6507L288.81 50.1833L295.859 57.6507" stroke="#C01466" stroke-width="3.29"/>
<path opacity="0.5" d="M294.837 57.6507L301.886 50.1833L308.935 57.6507" stroke="#C01466" stroke-width="3.29"/>
<path opacity="0.5" d="M307.952 57.6507L315.001 50.1833" stroke="#C01466" stroke-width="3.29"/>
<path opacity="0.5" d="M275.735 50.1833L282.784 57.6507" stroke="#C01466" stroke-width="3.29"/>
<path opacity="0.5" d="M314.578 50.2745C315.051 50.2745 315.514 50.1258 315.908 49.8471C316.302 49.5684 316.609 49.1723 316.79 48.7088C316.971 48.2453 317.019 47.7354 316.926 47.2434C316.834 46.7514 316.606 46.2994 316.271 45.9447C315.936 45.59 315.509 45.3484 315.045 45.2506C314.581 45.1527 314.099 45.2029 313.662 45.3949C313.224 45.5869 312.85 45.912 312.587 46.3291C312.324 46.7462 312.184 47.2365 312.184 47.7382C312.185 48.4105 312.437 49.0549 312.886 49.5303C313.335 50.0057 313.943 50.2733 314.578 50.2745V50.2745Z" stroke="#C01466" stroke-width="3.29"/>
<path opacity="0.5" d="M301.882 50.2745C302.356 50.2754 302.819 50.1274 303.214 49.8493C303.608 49.5711 303.915 49.1753 304.097 48.712C304.279 48.2486 304.327 47.7385 304.235 47.2462C304.143 46.7539 303.916 46.3015 303.581 45.9463C303.246 45.5911 302.82 45.3491 302.355 45.2509C301.891 45.1527 301.409 45.2026 300.971 45.3945C300.533 45.5863 300.159 45.9114 299.896 46.3286C299.633 46.7458 299.492 47.2363 299.492 47.7382C299.493 48.4097 299.745 49.0534 300.193 49.5287C300.641 50.004 301.248 50.2721 301.882 50.2745Z" fill="white"/>
<path opacity="0.5" d="M301.882 50.2745C302.356 50.2754 302.819 50.1274 303.214 49.8493C303.608 49.5711 303.915 49.1753 304.097 48.712C304.279 48.2486 304.327 47.7385 304.235 47.2462C304.143 46.7539 303.916 46.3015 303.581 45.9463C303.246 45.5911 302.82 45.3491 302.355 45.2509C301.891 45.1527 301.409 45.2026 300.971 45.3945C300.533 45.5863 300.159 45.9114 299.896 46.3286C299.633 46.7458 299.492 47.2363 299.492 47.7382C299.493 48.4097 299.745 49.0534 300.193 49.5287C300.641 50.004 301.248 50.2721 301.882 50.2745V50.2745Z" stroke="#C01466" stroke-width="3.29"/>
<path opacity="0.5" d="M288.806 50.2745C289.279 50.2754 289.743 50.1274 290.137 49.8493C290.531 49.5711 290.839 49.1753 291.021 48.712C291.202 48.2486 291.251 47.7385 291.159 47.2462C291.067 46.7539 290.839 46.3015 290.504 45.9463C290.17 45.5911 289.743 45.3491 289.279 45.2509C288.814 45.1527 288.332 45.2026 287.895 45.3945C287.457 45.5863 287.083 45.9114 286.819 46.3286C286.556 46.7458 286.416 47.2363 286.416 47.7382C286.417 48.4097 286.669 49.0534 287.117 49.5287C287.564 50.004 288.172 50.2721 288.806 50.2745Z" fill="white"/>
<path opacity="0.5" d="M288.806 50.2745C289.279 50.2754 289.743 50.1274 290.137 49.8493C290.531 49.5711 290.839 49.1753 291.021 48.712C291.202 48.2486 291.251 47.7385 291.159 47.2462C291.067 46.7539 290.839 46.3015 290.504 45.9463C290.17 45.5911 289.743 45.3491 289.279 45.2509C288.814 45.1527 288.332 45.2026 287.895 45.3945C287.457 45.5863 287.083 45.9114 286.819 46.3286C286.556 46.7458 286.416 47.2363 286.416 47.7382C286.417 48.4097 286.669 49.0534 287.117 49.5287C287.564 50.004 288.172 50.2721 288.806 50.2745V50.2745Z" stroke="#C01466" stroke-width="3.29"/>
<path opacity="0.5" d="M275.73 50.2745C276.204 50.2745 276.667 50.1257 277.06 49.847C277.454 49.5683 277.761 49.1722 277.942 48.7087C278.124 48.2453 278.171 47.7353 278.079 47.2433C277.986 46.7513 277.758 46.2994 277.423 45.9447C277.088 45.5899 276.662 45.3484 276.197 45.2505C275.733 45.1526 275.251 45.2029 274.814 45.3948C274.376 45.5868 274.003 45.9119 273.739 46.329C273.476 46.7461 273.336 47.2365 273.336 47.7381C273.337 48.4104 273.59 49.0549 274.038 49.5303C274.487 50.0057 275.096 50.2733 275.73 50.2745Z" fill="white"/>
<path opacity="0.5" d="M275.73 50.2745C276.204 50.2745 276.667 50.1257 277.06 49.847C277.454 49.5683 277.761 49.1722 277.942 48.7087C278.124 48.2453 278.171 47.7353 278.079 47.2433C277.986 46.7513 277.758 46.2994 277.423 45.9447C277.088 45.5899 276.662 45.3484 276.197 45.2505C275.733 45.1526 275.251 45.2029 274.814 45.3948C274.376 45.5868 274.003 45.9119 273.739 46.329C273.476 46.7461 273.336 47.2365 273.336 47.7381C273.337 48.4104 273.59 49.0549 274.038 49.5303C274.487 50.0057 275.096 50.2733 275.73 50.2745V50.2745Z" stroke="#C01466" stroke-width="3.29"/>
<path opacity="0.5" d="M275.222 50.7453V71.4748H314.95V50.7453" stroke="#C01466" stroke-width="3.24"/>
</g>
</g>
<path d="M305.907 108.026L314.065 99.3883L322.218 108.026" stroke="#C01466" stroke-width="3.81"/>
<path d="M321.036 108.026L329.194 99.3883L337.348 108.026" stroke="#C01466" stroke-width="3.81"/>
<path d="M336.212 108.026L344.37 99.3883" stroke="#C01466" stroke-width="3.81"/>
<path d="M298.935 99.3883L307.089 108.026" stroke="#C01466" stroke-width="3.81"/>
<path d="M345.33 99.0231C346.631 98.1711 347.034 96.3632 346.23 94.9848C345.426 93.6065 343.719 93.1798 342.418 94.0317C341.117 94.8836 340.714 96.6916 341.518 98.07C342.322 99.4483 344.029 99.875 345.33 99.0231Z" stroke="#C01466" stroke-width="3.81"/>
<path d="M329.186 99.4932C329.733 99.4932 330.269 99.3211 330.724 98.9987C331.18 98.6764 331.535 98.2181 331.744 97.682C331.954 97.1459 332.009 96.556 331.902 95.9869C331.795 95.4177 331.531 94.895 331.144 94.4847C330.757 94.0743 330.263 93.7949 329.726 93.6817C329.189 93.5685 328.632 93.6266 328.126 93.8487C327.62 94.0707 327.187 94.4468 326.883 94.9293C326.578 95.4117 326.416 95.979 326.416 96.5593C326.417 97.337 326.709 98.0826 327.228 98.6325C327.748 99.1825 328.451 99.492 329.186 99.4932Z" fill="white"/>
<path d="M330.644 99.0287C331.945 98.1767 332.348 96.3687 331.543 94.9904C330.739 93.6121 329.033 93.1854 327.731 94.0373C326.43 94.8892 326.027 96.6973 326.832 98.0756C327.636 99.4539 329.343 99.8806 330.644 99.0287Z" stroke="#C01466" stroke-width="3.81"/>
<path d="M314.061 99.4932C314.609 99.4932 315.144 99.3211 315.6 98.9987C316.055 98.6764 316.41 98.2181 316.62 97.682C316.83 97.1459 316.884 96.556 316.778 95.9869C316.671 95.4177 316.407 94.895 316.02 94.4847C315.632 94.0743 315.139 93.7949 314.601 93.6817C314.064 93.5685 313.507 93.6266 313.001 93.8487C312.495 94.0707 312.063 94.4468 311.758 94.9293C311.454 95.4117 311.292 95.979 311.292 96.5593C311.293 97.337 311.585 98.0826 312.104 98.6325C312.623 99.1825 313.327 99.492 314.061 99.4932Z" fill="white"/>
<path d="M315.513 99.028C316.815 98.176 317.217 96.368 316.413 94.9897C315.609 93.6114 313.902 93.1847 312.601 94.0366C311.3 94.8885 310.897 96.6965 311.701 98.0748C312.506 99.4532 314.212 99.8799 315.513 99.028Z" stroke="#C01466" stroke-width="3.81"/>
<path d="M298.931 99.4932C299.479 99.4932 300.015 99.3211 300.47 98.9987C300.925 98.6764 301.28 98.2181 301.49 97.682C301.7 97.1459 301.755 96.556 301.648 95.9869C301.541 95.4177 301.277 94.895 300.89 94.4847C300.502 94.0743 300.009 93.7949 299.472 93.6817C298.934 93.5685 298.377 93.6266 297.871 93.8487C297.365 94.0707 296.933 94.4468 296.628 94.9293C296.324 95.4117 296.162 95.979 296.162 96.5593C296.163 97.337 296.455 98.0826 296.974 98.6325C297.493 99.1825 298.197 99.492 298.931 99.4932Z" fill="white"/>
<path d="M300.383 99.0276C301.685 98.1756 302.087 96.3676 301.283 94.9893C300.479 93.611 298.772 93.1843 297.471 94.0362C296.17 94.8881 295.767 96.6961 296.571 98.0745C297.376 99.4528 299.082 99.8795 300.383 99.0276Z" stroke="#C01466" stroke-width="3.81"/>
<path d="M298.34 100.037V124.02H344.306V100.037" stroke="#C01466" stroke-width="3.75"/>
<path d="M281.946 154.475L286.843 149.292L291.735 154.475" stroke="#B0DEED" stroke-width="2.28"/>
<path d="M291.023 154.475L295.919 149.292L300.812 154.475" stroke="#B0DEED" stroke-width="2.28"/>
<path d="M300.129 154.475L305.021 149.292" stroke="#B0DEED" stroke-width="2.28"/>
<path d="M277.761 149.292L282.658 154.475" stroke="#B0DEED" stroke-width="2.28"/>
<path d="M304.729 149.366C305.058 149.366 305.381 149.264 305.655 149.07C305.93 148.877 306.144 148.602 306.27 148.28C306.397 147.958 306.431 147.603 306.367 147.26C306.303 146.918 306.145 146.603 305.912 146.356C305.679 146.109 305.383 145.94 305.06 145.872C304.736 145.803 304.401 145.838 304.097 145.971C303.792 146.105 303.532 146.331 303.349 146.621C303.166 146.911 303.068 147.252 303.068 147.602C303.068 148.069 303.243 148.517 303.554 148.847C303.865 149.178 304.288 149.364 304.729 149.366V149.366Z" stroke="#B0DEED" stroke-width="2.28"/>
<path d="M295.915 149.366C296.245 149.366 296.567 149.264 296.842 149.07C297.116 148.877 297.33 148.602 297.457 148.28C297.584 147.958 297.617 147.603 297.553 147.26C297.49 146.918 297.331 146.603 297.099 146.356C296.866 146.109 296.569 145.94 296.246 145.872C295.923 145.803 295.588 145.838 295.283 145.971C294.979 146.105 294.719 146.331 294.535 146.621C294.352 146.911 294.254 147.252 294.254 147.602C294.254 147.833 294.296 148.062 294.38 148.276C294.463 148.49 294.585 148.685 294.739 148.849C294.894 149.012 295.077 149.142 295.279 149.231C295.48 149.32 295.697 149.366 295.915 149.366Z" fill="white"/>
<path d="M295.915 149.366C296.245 149.366 296.567 149.264 296.842 149.07C297.116 148.877 297.33 148.602 297.457 148.28C297.584 147.958 297.617 147.603 297.553 147.26C297.49 146.918 297.331 146.603 297.099 146.356C296.866 146.109 296.569 145.94 296.246 145.872C295.923 145.803 295.588 145.838 295.283 145.971C294.979 146.105 294.719 146.331 294.535 146.621C294.352 146.911 294.254 147.252 294.254 147.602C294.254 147.833 294.296 148.062 294.38 148.276C294.463 148.49 294.585 148.685 294.739 148.849C294.894 149.012 295.077 149.142 295.279 149.231C295.48 149.32 295.697 149.366 295.915 149.366Z" stroke="#B0DEED" stroke-width="2.28"/>
<path d="M286.838 149.366C287.168 149.366 287.49 149.264 287.764 149.07C288.039 148.877 288.253 148.602 288.38 148.28C288.506 147.958 288.54 147.603 288.476 147.26C288.413 146.918 288.254 146.603 288.022 146.356C287.789 146.109 287.492 145.94 287.169 145.872C286.846 145.803 286.511 145.838 286.206 145.971C285.902 146.105 285.641 146.331 285.458 146.621C285.275 146.911 285.177 147.252 285.177 147.602C285.177 148.069 285.352 148.517 285.663 148.847C285.975 149.178 286.397 149.364 286.838 149.366Z" fill="white"/>
<path d="M286.838 149.366C287.168 149.366 287.49 149.264 287.764 149.07C288.039 148.877 288.253 148.602 288.38 148.28C288.506 147.958 288.54 147.603 288.476 147.26C288.413 146.918 288.254 146.603 288.022 146.356C287.789 146.109 287.492 145.94 287.169 145.872C286.846 145.803 286.511 145.838 286.206 145.971C285.902 146.105 285.641 146.331 285.458 146.621C285.275 146.911 285.177 147.252 285.177 147.602C285.177 148.069 285.352 148.517 285.663 148.847C285.975 149.178 286.397 149.364 286.838 149.366V149.366Z" stroke="#B0DEED" stroke-width="2.28"/>
<path d="M277.762 149.366C278.091 149.367 278.413 149.264 278.688 149.071C278.962 148.877 279.176 148.602 279.303 148.28C279.43 147.958 279.463 147.603 279.4 147.26C279.336 146.918 279.178 146.603 278.945 146.356C278.712 146.109 278.415 145.94 278.092 145.872C277.769 145.804 277.434 145.838 277.13 145.972C276.825 146.105 276.565 146.331 276.382 146.621C276.198 146.911 276.101 147.253 276.101 147.602C276.101 148.069 276.275 148.517 276.587 148.848C276.898 149.178 277.321 149.365 277.762 149.366Z" fill="white"/>
<path d="M277.762 149.366C278.091 149.367 278.413 149.264 278.688 149.071C278.962 148.877 279.176 148.602 279.303 148.28C279.43 147.958 279.463 147.603 279.4 147.26C279.336 146.918 279.178 146.603 278.945 146.356C278.712 146.109 278.415 145.94 278.092 145.872C277.769 145.804 277.434 145.838 277.13 145.972C276.825 146.105 276.565 146.331 276.382 146.621C276.198 146.911 276.101 147.253 276.101 147.602C276.101 148.069 276.275 148.517 276.587 148.848C276.898 149.178 277.321 149.365 277.762 149.366V149.366Z" stroke="#B0DEED" stroke-width="2.28"/>
<path d="M277.409 149.681V164.072H304.988V149.681" stroke="#B0DEED" stroke-width="2.25"/>
<path d="M154.345 80.3085L159.526 81.5835L155.018 84.5723L154.345 80.3085Z" fill="#C01466"/>
<path d="M266.381 61.0367L271.489 62.5951L266.842 65.3279L266.381 61.0367Z" fill="#DD97B0"/>
<path d="M266.381 61.0367L271.489 62.5951L266.842 65.3279L266.381 61.0367Z" stroke="#DD97B0" stroke-width="1.93" stroke-miterlimit="5"/>
<path d="M270.462 77.6257L275.609 76.2181L272.917 81.076L270.462 77.6257Z" fill="#DD97B0"/>
<path d="M270.462 77.6257L275.609 76.2181L272.917 81.076L270.462 77.6257Z" stroke="#DD97B0" stroke-width="1.93" stroke-miterlimit="5"/>
<path d="M129.462 122.722L131.706 127.827L126.71 125.908L129.462 122.722Z" fill="#B097B8"/>
<path d="M154.401 72.4024L158.858 75.4734L153.659 76.6479L154.401 72.4024Z" fill="#B097B8"/>
<path d="M119.721 130.532L123.669 134.303L118.362 134.604L119.721 130.532Z" fill="#C01466"/>
<path d="M122.159 145.668L127.267 147.222L122.62 149.96L122.159 145.668Z" fill="#B0DEED"/>
<path d="M96.8906 252.834L101.632 250.28L99.9924 255.64L96.8906 252.834Z" fill="#010A2D"/>
<path d="M288.655 106.755L293.935 107.395L289.776 110.904L288.655 106.755Z" fill="#C01466"/>
<path d="M288.655 106.755L293.935 107.395L289.776 110.904L288.655 106.755Z" stroke="#C01466" stroke-width="1.93" stroke-miterlimit="5"/>
<path d="M269.997 150.819L274.505 153.803L269.324 155.078L269.997 150.819Z" fill="#B0DEED"/>
<path d="M271.791 137.844L274.721 142.542L269.509 141.427L271.791 137.844Z" fill="#B0DEED"/>
<path d="M189.026 150.366L194.022 152.295L189.203 154.68L189.026 150.366Z" fill="#B0DEED"/>
<path d="M141.844 237.594L155.235 245.134" stroke="#010A2D" stroke-width="2.95"/>
<path d="M155.937 242.899L159.207 247.342L153.931 246.661L155.937 242.899Z" fill="#010A2D"/>
<path d="M175.027 259.045L182.507 266.179" stroke="#010A2D" stroke-width="2.95"/>
<path d="M161.355 292.064L184.198 281.292" stroke="#010A2D" stroke-width="2.95"/>
<path d="M93.772 279.231L122.456 290.743" stroke="#010A2D" stroke-width="2.95"/>
<path d="M183.707 264.191L185.864 269.337L180.899 267.326L183.707 264.191Z" fill="#010A2D"/>
<path d="M182.97 279.322L188.289 279.331L184.531 283.316L182.97 279.322Z" fill="#010A2D"/>
<path d="M122.892 288.43L126.662 292.397L121.347 292.429L122.892 288.43Z" fill="#010A2D"/>
</svg>
