<svg width="802" height="592" viewBox="0 0 802 592" fill="none" xmlns="http://www.w3.org/2000/svg">
<path d="M777.649 281.446C775.864 279.535 775.841 276.279 777.599 274.342C779.357 272.406 782.355 272.385 784.14 274.296C785.925 276.207 785.948 279.463 784.19 281.4C782.432 283.336 779.571 283.356 777.649 281.446ZM764.049 265.854C762.538 264.237 762.518 261.425 764.006 259.787C765.493 258.148 768.082 258.13 769.592 259.747C771.103 261.365 771.123 264.176 769.635 265.815C768.149 267.601 765.696 267.619 764.049 265.854ZM749.772 251.008C748.124 249.244 748.103 246.284 749.726 244.496C751.348 242.709 754.074 242.69 755.721 244.454C757.369 246.218 757.39 249.178 755.767 250.965C754.145 252.753 751.556 252.771 749.772 251.008ZM749.988 281.494C748.203 279.582 748.182 276.622 749.939 274.686C751.697 272.75 754.422 272.73 756.207 274.642C757.992 276.553 758.013 279.513 756.255 281.449C754.498 283.386 751.636 283.406 749.988 281.494ZM735.902 235.862C734.254 234.098 734.234 231.286 735.857 229.499C737.479 227.712 740.068 227.693 741.716 229.457C743.364 231.222 743.383 234.034 741.761 235.821C740.138 237.608 737.413 237.628 735.902 235.862ZM736.287 290.322C737.91 288.535 740.362 288.517 742.01 290.282C743.658 292.046 743.677 294.71 742.054 296.497C740.431 298.285 737.979 298.302 736.331 296.538C734.82 294.772 734.8 291.961 736.287 290.322ZM736.252 266.051C734.741 264.434 734.721 261.622 736.209 259.984C737.696 258.345 740.285 258.327 741.795 259.944C743.306 261.561 743.326 264.373 741.838 266.012C740.215 267.651 737.762 267.668 736.252 266.051ZM707.619 205.871C705.971 204.107 705.95 201.147 707.572 199.212C709.194 197.424 711.919 197.405 713.703 199.169C715.351 200.933 715.372 203.893 713.75 205.828C711.993 207.764 709.267 207.784 707.619 205.871ZM707.562 236.359C705.777 234.448 705.755 231.34 707.512 229.255C709.269 227.319 712.131 227.299 713.916 229.21C715.701 231.121 715.723 234.229 713.966 236.314C712.346 238.397 709.484 238.417 707.562 236.359ZM714.18 266.503C712.557 268.291 709.832 268.31 708.048 266.547C706.4 264.782 706.379 261.823 708.001 259.887C709.623 258.1 712.349 258.08 714.133 259.844C715.781 261.756 715.802 264.716 714.18 266.503ZM714.077 290.479C715.723 292.096 715.743 294.907 714.121 296.695C712.498 298.482 710.045 298.5 708.398 296.735C706.887 295.118 706.867 292.306 708.354 290.52C709.976 288.732 712.429 288.715 714.077 290.479ZM679.471 175.731C677.823 173.967 677.802 171.007 679.425 169.22C681.047 167.432 683.772 167.413 685.42 169.177C687.068 170.942 687.089 173.902 685.466 175.689C683.844 177.476 681.255 177.495 679.471 175.731ZM679.55 206.218C677.765 204.307 677.743 201.199 679.501 199.262C681.259 197.326 684.12 197.306 685.905 199.217C687.69 201.128 687.712 204.236 685.954 206.173C684.197 208.109 681.335 208.129 679.55 206.218ZM680.497 320.76C682.119 318.973 684.845 318.953 686.492 320.718C688.14 322.482 688.161 325.442 686.538 327.229C684.916 329.017 682.191 329.036 680.543 327.272C678.895 325.507 678.875 322.695 680.497 320.76ZM680.463 296.785C678.816 295.021 678.797 292.357 680.419 290.569C682.042 288.782 684.495 288.765 686.142 290.529C687.79 292.293 687.809 294.957 686.186 296.744C684.7 298.531 682.111 298.549 680.463 296.785ZM686.247 266.849C684.49 268.785 681.628 268.805 679.979 266.893C678.194 264.982 678.172 261.874 679.931 260.086C681.689 258.149 684.551 258.129 686.199 260.041C687.983 261.805 688.005 264.913 686.247 266.849ZM679.9 236.407C678.252 234.642 678.231 231.683 679.853 229.747C681.475 227.96 684.201 227.94 685.985 229.704C687.632 231.468 687.653 234.428 686.032 236.363C684.273 238.152 681.548 238.171 679.9 236.407ZM665.601 160.586C663.953 158.822 663.933 156.01 665.556 154.222C667.178 152.435 669.767 152.417 671.415 154.181C673.063 155.945 673.082 158.757 671.46 160.544C669.701 162.333 667.112 162.351 665.601 160.586ZM671.493 184.52C673.141 186.284 673.161 189.096 671.537 190.735C669.915 192.523 667.326 192.541 665.814 190.776C664.167 189.011 664.147 186.199 665.77 184.56C667.257 182.774 669.846 182.755 671.493 184.52ZM665.624 221.708C663.839 219.797 663.816 216.541 665.573 214.457C667.33 212.372 670.328 212.499 672.25 214.409C674.171 216.32 674.058 219.576 672.301 221.661C670.544 223.745 667.409 223.619 665.624 221.708ZM666.569 335.954C668.327 334.018 671.188 333.998 672.837 335.91C674.622 337.821 674.643 340.781 672.885 342.717C671.127 344.654 668.402 344.673 666.617 342.762C664.832 340.85 664.81 337.743 666.569 335.954ZM666.672 311.978C665.161 310.361 665.141 307.549 666.629 305.911C668.116 304.272 670.705 304.254 672.215 305.871C673.726 307.488 673.746 310.3 672.258 311.939C670.772 313.725 668.319 313.742 666.672 311.978ZM666.646 366.145C668.404 364.208 671.265 364.188 673.05 366.099C674.835 368.011 674.857 371.119 673.1 373.055C671.342 374.991 668.48 375.012 666.695 373.1C664.91 371.189 664.888 368.081 666.646 366.145ZM672.593 282.189C670.835 284.125 667.837 284.147 666.052 282.235C664.268 280.324 664.244 277.068 666.002 275.132C667.76 273.195 670.758 273.174 672.543 275.086C674.328 276.997 674.351 280.253 672.593 282.189ZM665.973 251.749C664.188 249.837 664.167 246.878 665.925 244.941C667.683 243.005 670.408 242.986 672.193 244.897C673.978 246.808 673.999 249.768 672.241 251.704C670.483 253.641 667.758 253.66 665.973 251.749ZM651.458 145.442C649.81 143.678 649.79 140.866 651.414 139.227C653.037 137.439 655.626 137.421 657.137 139.186C658.785 140.951 658.805 143.762 657.181 145.402C655.695 147.188 653.106 147.207 651.458 145.442ZM651.132 176.376C649.21 174.317 649.186 170.914 651.078 168.828C652.971 166.743 656.105 166.721 658.028 168.779C659.95 170.838 659.974 174.241 658.081 176.327C656.188 178.412 653.054 178.434 651.132 176.376ZM652.486 290.767C654.109 288.98 656.698 288.961 658.345 290.726C659.993 292.49 660.013 295.302 658.39 297.089C656.768 298.877 654.179 298.895 652.531 297.131C650.883 295.366 650.864 292.554 652.486 290.767ZM652.317 266.793C650.669 265.029 650.649 262.217 652.273 260.577C653.895 258.79 656.484 258.772 657.996 260.537C659.643 262.301 659.663 265.113 658.04 266.752C656.552 268.391 653.963 268.409 652.317 266.793ZM658.099 236.709C656.342 238.645 653.617 238.665 651.832 236.753C650.047 234.842 650.026 231.882 651.783 229.946C653.541 228.009 656.266 227.99 658.051 229.901C659.836 231.813 659.857 234.772 658.099 236.709ZM651.752 206.267C650.104 204.502 650.083 201.543 651.705 199.607C653.328 197.82 656.053 197.8 657.837 199.564C659.484 201.328 659.505 204.288 657.884 206.223C656.126 208.16 653.401 208.179 651.752 206.267ZM636.912 131.042C634.99 128.983 634.967 125.728 636.86 123.642C638.753 121.557 641.75 121.536 643.673 123.594C645.595 125.652 645.618 128.908 643.725 130.994C641.832 133.079 638.834 133.1 636.912 131.042ZM623.176 115.599C621.528 113.835 621.506 110.727 623.129 108.94C624.751 107.152 627.613 107.132 629.261 108.896C630.908 110.661 630.93 113.768 629.308 115.556C627.685 117.343 624.824 117.364 623.176 115.599ZM623.255 146.086C621.47 144.175 621.448 141.067 623.206 139.13C624.964 137.194 627.825 137.174 629.61 139.085C631.395 140.996 631.417 144.104 629.66 146.041C627.902 147.977 625.04 147.997 623.255 146.086ZM623.335 176.572C621.413 174.514 621.39 171.258 623.284 169.321C625.177 167.236 628.174 167.214 629.96 169.274C631.883 171.332 631.906 174.588 630.012 176.525C628.254 178.462 625.12 178.484 623.335 176.572ZM629.903 199.761C631.551 201.526 631.573 204.633 629.951 206.421C628.328 208.208 625.467 208.229 623.819 206.464C622.171 204.7 622.149 201.592 623.772 199.805C625.394 198.017 628.256 197.997 629.903 199.761ZM623.628 237.249C621.706 235.19 621.681 231.787 623.574 229.701C625.467 227.616 628.601 227.594 630.524 229.652C632.446 231.71 632.47 235.114 630.577 237.2C628.684 239.285 625.55 239.307 623.628 237.249ZM624.004 290.377C625.897 288.291 628.894 288.27 630.817 290.328C632.739 292.387 632.762 295.642 630.869 297.728C628.976 299.813 625.978 299.834 624.056 297.776C622.271 295.865 622.247 292.461 624.004 290.377ZM624.113 267.288C622.328 265.377 622.306 262.269 624.063 260.185C625.82 258.249 628.682 258.228 630.603 260.139C632.388 262.05 632.41 265.158 630.653 267.242C628.76 269.328 625.899 269.348 624.113 267.288ZM608.899 100.753C607.114 98.8414 607.091 95.5857 608.848 93.5013C610.606 91.5649 613.603 91.5437 615.525 93.4541C617.31 95.3654 617.333 98.6211 615.576 100.705C613.683 102.791 610.685 102.812 608.899 100.753ZM615.198 124.387C616.709 126.005 616.729 128.817 615.241 130.455C613.754 132.094 611.165 132.112 609.655 130.495C608.144 128.877 608.124 126.065 609.612 124.427C611.099 122.789 613.552 122.771 615.198 124.387ZM609.193 161.577C607.271 159.519 607.247 156.115 609.14 154.03C611.033 151.944 614.167 151.922 616.089 153.98C618.011 156.039 618.035 159.442 616.143 161.528C614.113 163.614 611.116 163.635 609.193 161.577ZM609.57 214.853C611.463 212.767 614.461 212.746 616.247 214.806C618.169 216.864 618.192 220.12 616.298 222.057C614.405 224.142 611.408 224.164 609.621 222.104C607.835 220.045 607.812 216.789 609.57 214.853ZM609.813 191.32C608.165 189.555 608.144 186.596 609.766 184.808C611.389 183.021 614.114 183.002 615.762 184.766C617.41 186.53 617.43 189.49 615.808 191.277C614.185 193.065 611.46 193.084 609.813 191.32ZM595.299 85.1614C593.788 83.5441 593.768 80.7323 595.255 78.9458C596.742 77.3074 599.331 77.289 600.977 78.9053C602.488 80.5226 602.508 83.3344 601.021 85.1209C599.399 86.9083 596.81 86.9266 595.299 85.1614ZM595.377 115.5C593.729 113.736 593.709 110.924 595.333 109.284C596.955 107.497 599.544 107.479 601.056 109.244C602.704 111.008 602.723 113.82 601.1 115.459C599.614 117.246 597.025 117.264 595.377 115.5ZM566.745 55.4682C564.96 53.5569 564.938 50.4491 566.696 48.5127C568.454 46.5763 571.315 46.5561 573.1 48.4674C574.885 50.3787 574.907 53.4865 573.149 55.4229C571.391 57.3592 568.53 57.3795 566.745 55.4682ZM552.739 40.3237C550.954 38.4123 550.933 35.4526 552.69 33.5162C554.448 31.5798 557.31 31.5596 558.958 33.4719C560.743 35.3832 560.764 38.3429 559.007 40.2793C557.385 42.2147 554.524 42.235 552.739 40.3237ZM553.257 94.3385C554.88 92.5511 557.605 92.5318 559.252 94.2961C560.9 96.0604 560.921 99.0202 559.299 100.808C557.676 102.595 554.951 102.614 553.303 100.85C551.655 99.0857 551.634 96.126 553.257 94.3385ZM553.224 70.3634C551.576 68.5991 551.556 65.7874 553.179 63.9999C554.801 62.2125 557.39 62.1942 559.038 63.9585C560.686 65.7228 560.705 68.5345 559.083 70.3219C557.46 72.1094 554.871 72.1277 553.224 70.3634ZM553.823 155.013C555.445 153.225 558.034 153.207 559.545 154.972C561.193 156.737 561.213 159.548 559.589 161.188C557.967 162.975 555.378 162.994 553.867 161.228C552.22 159.612 552.2 156.8 553.823 155.013ZM553.653 131.039C552.005 129.274 551.986 126.611 553.609 124.823C555.232 123.036 557.684 123.018 559.332 124.783C560.98 126.547 560.998 129.211 559.376 130.998C557.888 132.637 555.3 132.655 553.653 131.039ZM554.037 185.35C555.66 183.563 558.249 183.545 559.896 185.309C561.544 187.073 561.564 189.885 559.941 191.673C558.319 193.46 555.73 193.478 554.082 191.714C552.435 189.95 552.415 187.138 554.037 185.35ZM560.019 221.863C558.396 223.651 555.943 223.668 554.296 221.904C552.648 220.139 552.629 217.476 554.252 215.688C555.874 213.901 558.327 213.883 559.975 215.648C561.622 217.412 561.642 220.224 560.019 221.863ZM560.189 245.985C561.7 247.603 561.72 250.414 560.233 252.201C558.746 253.839 556.157 253.858 554.51 252.241C553 250.624 552.98 247.812 554.466 246.026C556.09 244.386 558.679 244.368 560.189 245.985ZM554.68 276.215C556.303 274.428 558.891 274.41 560.539 276.174C562.187 277.938 562.207 280.75 560.584 282.537C558.962 284.325 556.373 284.343 554.725 282.579C553.078 280.963 553.057 278.003 554.68 276.215ZM554.758 306.554C556.381 304.767 559.106 304.747 560.754 306.512C562.401 308.276 562.422 311.236 560.8 313.023C559.177 314.811 556.452 314.83 554.804 313.066C553.157 311.301 553.136 308.341 554.758 306.554ZM555.324 367.228C556.946 365.441 559.535 365.423 561.183 367.187C562.831 368.951 562.851 371.763 561.228 373.55C559.606 375.338 557.017 375.356 555.369 373.592C553.721 371.828 553.701 369.016 555.324 367.228ZM555.154 343.254C553.507 341.49 553.487 338.678 555.109 336.891C556.732 335.103 559.321 335.085 560.968 336.849C562.616 338.614 562.636 341.425 561.013 343.213C559.391 345 556.802 345.018 555.154 343.254ZM555.401 397.419C557.024 395.632 559.749 395.612 561.397 397.377C563.044 399.141 563.065 402.101 561.443 403.888C559.82 405.675 557.095 405.695 555.447 403.93C553.8 402.166 553.78 399.354 555.401 397.419ZM555.48 427.758C557.237 425.821 559.963 425.802 561.748 427.713C563.532 429.625 563.553 432.584 561.796 434.521C560.038 436.457 557.313 436.476 555.528 434.565C553.879 432.653 553.857 429.545 555.48 427.758ZM538.867 25.0303C537.22 23.266 537.2 20.4542 538.822 18.6667C540.445 16.8793 543.034 16.861 544.682 18.6253C546.329 20.3896 546.349 23.2014 544.727 24.9888C543.24 26.7753 540.515 26.7946 538.867 25.0303ZM538.541 55.9637C536.619 53.9054 536.595 50.5017 538.488 48.4163C540.381 46.331 543.515 46.3088 545.437 48.3671C547.359 50.4255 547.383 53.8292 545.491 55.9146C543.598 57.9998 540.6 58.0211 538.541 55.9637ZM524.592 10.3317C522.807 8.42035 522.785 5.31258 524.543 3.37621C526.3 1.43983 529.162 1.41959 530.947 3.3309C532.732 5.24221 532.754 8.34998 530.996 10.2864C529.238 12.2227 526.377 12.243 524.592 10.3317ZM531.072 40.329C529.45 42.1164 526.725 42.1357 524.941 40.3724C523.293 38.6081 523.272 35.6483 524.893 33.7129C526.516 31.9255 529.241 31.9062 531.025 33.6695C532.674 35.5818 532.695 38.5416 531.072 40.329ZM530.969 64.305C532.617 66.0694 532.636 68.7331 531.013 70.5205C529.39 72.16 526.937 72.1773 525.29 70.561C523.779 68.7958 523.76 66.132 525.246 64.3455C526.87 62.7061 529.459 62.6878 530.969 64.305ZM511.069 25.0789C509.559 23.4616 509.539 20.6499 511.025 18.8634C512.649 17.2239 515.102 17.2066 516.748 18.8229C518.26 20.5882 518.279 23.2519 516.792 25.0384C515.17 26.8258 512.717 26.8432 511.069 25.0789ZM510.879 56.0114C509.094 54.1001 509.071 50.8443 510.829 48.9079C512.587 46.9716 515.585 46.9504 517.37 48.8617C519.155 50.773 519.178 54.0288 517.42 55.9651C515.662 57.9015 512.664 57.9227 510.879 56.0114ZM517.574 116.198C515.951 117.986 513.362 118.004 511.714 116.24C510.067 114.476 510.047 111.664 511.669 109.876C513.292 108.089 515.881 108.071 517.529 109.835C519.176 111.599 519.196 114.411 517.574 116.198ZM517.607 140.173C519.255 141.938 519.274 144.75 517.652 146.537C516.029 148.324 513.44 148.343 511.793 146.578C510.145 144.814 510.125 142.002 511.748 140.215C513.37 138.427 516.095 138.408 517.607 140.173ZM517.634 86.1548C515.876 88.0912 513.014 88.1114 511.229 86.2001C509.444 84.2888 509.422 81.181 511.18 79.2446C512.938 77.3083 515.799 77.288 517.584 79.1993C519.369 81.1107 519.391 84.2184 517.634 86.1548ZM511.687 170.111C513.444 168.174 516.306 168.154 518.091 170.065C519.876 171.977 519.898 175.084 518.14 177.021C516.382 178.957 513.521 178.977 511.736 177.066C509.952 175.303 509.929 172.047 511.687 170.111ZM496.738 41.0159C494.816 38.9575 494.793 35.7018 496.686 33.6164C498.579 31.5311 501.576 31.5099 503.499 33.5683C505.421 35.6266 505.444 38.8823 503.551 40.9677C501.658 43.053 498.524 43.0752 496.738 41.0159ZM504.272 162.171C502.514 164.108 499.517 164.129 497.595 162.218C495.81 160.307 495.787 157.051 497.544 154.967C499.302 153.031 502.3 153.009 504.221 154.92C506.142 156.83 506.029 160.087 504.272 162.171ZM504.03 185.704C505.677 187.469 505.697 190.28 504.075 192.068C502.452 193.855 499.863 193.874 498.216 192.109C496.568 190.345 496.548 187.533 498.171 185.746C499.793 183.958 502.382 183.94 504.03 185.704ZM504.057 131.834C502.3 133.77 499.302 133.791 497.381 131.881C495.596 129.969 495.573 126.714 497.329 124.629C499.087 122.693 502.085 122.672 504.006 124.582C505.792 126.641 505.815 129.897 504.057 131.834ZM503.492 71.1593C501.734 73.0956 498.736 73.1168 496.951 71.2055C495.166 69.2942 495.143 66.0384 496.901 64.102C498.659 62.1656 501.657 62.1444 503.442 64.0557C505.363 65.9661 505.386 69.2219 503.492 71.1593ZM503.386 94.6914C505.034 96.4557 505.053 99.2674 503.431 101.055C501.808 102.842 499.219 102.861 497.572 101.096C495.924 99.332 495.904 96.5202 497.527 94.7328C499.149 92.9454 501.738 92.9271 503.386 94.6914ZM497.888 222.895C495.966 220.836 495.943 217.581 497.836 215.495C499.729 213.41 502.727 213.389 504.649 215.447C506.571 217.505 506.594 220.761 504.701 222.846C502.945 224.931 499.811 224.953 497.888 222.895ZM504.865 245.933C506.65 247.844 506.673 251.1 504.916 253.184C503.158 255.12 500.16 255.142 498.239 253.231C496.454 251.32 496.431 248.064 498.188 245.98C500.081 243.895 502.942 243.874 504.865 245.933ZM483.757 55.3153C482.384 53.8451 482.367 51.3293 483.719 49.8397C485.071 48.3502 487.387 48.3338 488.76 49.8041C490.133 51.2743 490.151 53.7901 488.799 55.2797C487.311 56.7701 485.131 56.7856 483.757 55.3153ZM483.16 86.3987C481.375 84.4874 481.352 81.2316 483.109 79.2952C484.867 77.3588 487.865 77.3376 489.65 79.2489C491.435 81.1603 491.458 84.416 489.7 86.3524C487.944 88.4368 484.946 88.458 483.16 86.3987ZM489.459 110.033C491.107 111.798 491.127 114.61 489.503 116.249C487.88 118.036 485.291 118.055 483.78 116.289C482.132 114.525 482.112 111.713 483.736 110.074C485.359 108.286 487.948 108.268 489.459 110.033ZM473 94.9063C474.622 93.1189 477.348 93.0996 478.995 94.8639C480.643 96.6282 480.664 99.588 479.041 101.375C477.419 103.163 474.694 103.182 473.046 101.418C471.398 99.6535 471.377 96.6938 473 94.9063ZM411.198 161.646C416.458 153.913 421.719 146.328 426.978 138.595C420.564 137.16 412.784 135.439 403.775 133.283C404.477 136.09 405.177 138.749 405.878 141.556C406.147 141.11 406.281 140.813 406.552 140.515C408.31 138.579 411.307 138.558 413.092 140.469C414.877 142.38 414.9 145.636 413.143 147.572C411.655 149.211 409.341 149.523 407.561 148.352C408.821 153.079 410.079 157.51 411.198 161.646ZM427.657 138.294C430.251 138.868 432.571 139.443 434.755 139.872C435.824 136.904 436.759 134.234 437.694 131.563C437.559 131.86 437.424 132.009 437.153 132.159C435.53 133.946 433.215 134.111 431.298 132.792C430.221 134.724 429.008 136.508 427.657 138.294ZM363.932 202.827C362.285 201.063 362.265 198.251 363.887 196.463C365.51 194.676 368.099 194.658 369.747 196.422C370.021 196.716 370.16 197.011 370.434 197.305C373.963 195.356 377.492 193.407 381.022 191.458C380.329 189.835 380.589 188.058 381.806 186.717C383.293 185.078 385.882 185.06 387.392 186.677C388.765 188.148 388.916 190.219 387.974 191.853C399.48 200.208 411.121 208.561 422.627 216.915C422.762 216.766 422.897 216.617 423.032 216.468C423.573 215.873 424.116 215.573 424.659 215.273C422.7 208.035 418.08 190.604 410.798 162.833C408.91 165.658 406.886 168.484 404.998 171.309C405.134 171.308 405.136 171.456 405.272 171.455C406.782 173.073 406.801 175.736 405.313 177.227C403.825 178.865 401.373 178.883 399.999 177.264C398.625 175.794 398.474 173.575 399.552 171.94C397.085 169.885 393.246 166.657 388.037 162.254L387.902 162.403C386.279 164.19 383.69 164.208 382.043 162.444C380.395 160.68 380.375 157.868 381.998 156.08C383.62 154.293 386.209 154.275 387.857 156.039C389.367 157.656 389.52 160.023 388.307 161.808C393.653 166.358 397.491 169.586 399.821 171.494L399.957 171.345C401.309 169.855 403.215 169.694 404.722 170.719C406.745 167.745 408.769 164.919 410.791 161.945C409.67 157.513 408.41 152.786 407.012 147.764C406.875 147.617 406.738 147.618 406.601 147.471C405.228 146 404.941 143.93 405.473 142.151C404.635 139.197 403.933 136.242 403.093 133.14C398.862 132.134 394.358 131.13 389.581 130.127C389.45 130.868 389.046 131.463 388.641 132.058C387.019 133.846 384.566 133.863 382.918 132.099C381.27 130.334 381.252 127.67 382.874 125.883C384.497 124.096 386.949 124.078 388.597 125.843C389.558 126.872 389.976 128.201 389.713 129.535C394.354 130.538 398.857 131.542 402.953 132.549C401.694 127.97 400.434 123.243 399.173 118.368C397.813 118.674 396.174 118.241 395.076 117.065C393.291 115.154 393.27 112.194 395.028 110.258C396.785 108.321 399.511 108.302 401.296 110.213C403.081 112.124 403.102 115.084 401.344 117.021C400.803 117.616 400.26 117.916 399.581 118.217C400.843 123.24 402.24 128.114 403.362 132.694C412.644 134.848 420.423 136.569 426.974 138.003C428.323 136.069 429.537 134.285 430.886 132.351C430.749 132.204 430.612 132.205 430.611 132.057C428.826 130.146 428.804 127.038 430.561 124.954C430.967 124.507 431.51 124.207 432.053 123.907C430.661 119.773 428.158 112.687 424.818 102.943C423.323 103.398 421.549 103.114 420.313 101.791C418.528 99.8795 418.506 96.7718 420.264 94.8354C422.022 92.8991 424.883 92.8788 426.668 94.7901C428.453 96.7014 428.475 99.8092 426.718 101.746C426.312 102.192 425.769 102.492 425.362 102.791C428.703 112.683 431.205 119.621 432.596 123.755C434.092 123.301 435.866 123.584 437.238 124.907C438.336 126.083 438.755 127.56 438.493 129.041C445.839 107.974 450.645 93.8805 453.048 86.9077C452.639 86.7626 452.228 86.4695 451.816 86.0284C450.168 84.2641 450.148 81.4524 451.772 79.8129C453.394 78.0255 455.983 78.0072 457.495 79.7724C459.142 81.5367 459.162 84.3485 457.539 85.9879C456.863 86.7327 455.912 87.1834 455.094 87.1892C455.417 94.2907 455.739 101.244 456.062 108.346C457.152 108.338 458.245 108.774 459.069 109.656C460.579 111.274 460.732 113.641 459.656 115.572C462.122 117.479 464.588 119.385 467.054 121.144C467.643 108.116 468.481 91.8304 469.431 71.9922C468.476 71.851 467.656 71.4128 466.833 70.6786C465.185 68.9143 465.164 65.9546 466.786 64.0191C468.408 62.2317 471.133 62.2124 472.917 63.9757C474.565 65.74 474.586 68.6998 472.965 70.6352C472.153 71.5289 471.066 71.9807 469.84 71.9893C468.89 91.8275 468.054 108.409 467.464 121.437C469.109 122.757 470.752 123.929 472.397 125.25C472.532 125.101 472.531 124.953 472.667 124.952C474.155 123.313 476.744 123.295 478.254 124.912C479.764 126.53 479.784 129.341 478.297 130.98L478.162 131.129C479.538 133.043 481.464 135.693 484.078 139.079C485.839 137.734 488.157 137.866 489.668 139.631C491.453 141.542 491.474 144.502 489.715 146.291C487.958 148.227 485.232 148.246 483.584 146.334C481.799 144.423 481.778 141.463 483.537 139.674C483.537 139.674 483.672 139.526 483.808 139.525C481.194 135.991 479.268 133.341 477.892 131.575C476.402 132.769 474.221 132.637 472.848 131.166C471.475 129.696 471.323 127.477 472.265 125.843C470.621 124.67 469.114 123.497 467.47 122.177C466.628 138.018 466.158 148.677 465.924 154.155C466.743 154.297 467.699 154.586 468.249 155.322C469.622 156.792 469.773 158.863 468.968 160.645C471.843 162.549 476.5 165.92 482.937 170.462C483.072 170.313 483.206 170.016 483.478 169.866C485.371 167.781 488.505 167.759 490.291 169.818C492.213 171.876 492.237 175.28 490.343 177.217C488.45 179.303 485.316 179.325 483.53 177.266C481.882 175.501 481.728 172.986 482.804 170.907C476.367 166.365 471.711 163.142 468.835 161.09C468.7 161.239 468.565 161.388 468.429 161.537C466.807 163.324 464.354 163.342 462.707 161.577C461.059 159.813 461.04 157.149 462.663 155.362C463.474 154.468 464.424 154.017 465.515 154.01C465.747 148.384 466.353 137.724 467.058 121.736C464.455 119.83 461.988 117.776 459.385 115.87C459.25 116.019 459.251 116.167 459.116 116.316C457.358 118.252 454.633 118.272 452.984 116.359C451.199 114.448 451.178 111.488 452.937 109.7C453.613 108.955 454.564 108.504 455.653 108.349C455.33 101.247 455.008 94.2936 454.686 87.1921C454.277 87.195 453.867 87.0499 453.594 87.0518C451.324 93.5797 445.316 111.086 435.299 139.72C440.076 140.87 443.76 141.584 446.353 142.158C446.484 141.417 446.888 140.674 447.428 139.93C449.186 137.994 452.047 137.973 453.832 139.885C455.617 141.796 455.639 144.904 453.881 146.84C453.07 147.734 451.983 148.186 450.894 148.341C450.607 165.511 450.318 182.532 450.167 199.701C451.122 199.842 452.078 200.131 452.765 201.015C454.413 202.779 454.433 205.591 452.811 207.378C451.864 208.421 450.776 208.724 449.55 208.733C448 220.88 446.451 233.026 444.902 245.173C445.721 245.315 446.541 245.753 447.091 246.489C448.739 248.254 448.76 251.213 447.139 253.149C445.516 254.936 442.791 254.956 441.007 253.192C440.595 252.751 440.457 252.456 440.181 252.014C435.699 254.118 427.551 258.023 415.599 263.584C416.156 265.356 415.897 267.282 414.545 268.771C412.787 270.707 409.926 270.728 408.141 268.816C406.356 266.905 406.334 263.797 408.092 261.861C409.849 259.924 412.711 259.904 414.496 261.816C414.908 262.257 415.183 262.699 415.323 263.142C427.274 257.433 435.56 253.675 439.905 251.572C439.349 249.948 439.608 248.022 440.825 246.682C441.771 245.639 442.994 245.186 444.222 245.326C445.771 233.179 447.32 221.033 448.869 208.886C448.051 208.744 447.366 208.305 446.817 207.716C445.169 205.952 445.15 203.14 446.772 201.353C447.583 200.459 448.534 200.008 449.488 200.002C449.775 182.832 450.064 165.811 450.215 148.642C449.124 148.502 448.167 148.065 447.344 147.33C446.245 146.154 445.826 144.677 446.088 143.195C443.495 142.622 439.81 141.76 434.896 140.611C433.293 145.21 431.557 150.106 429.823 155.446C430.233 155.591 430.644 155.884 430.919 156.326C432.43 157.944 432.448 160.607 430.961 162.246C429.474 163.884 427.021 163.902 425.511 162.284C424 160.667 423.982 158.003 425.469 156.365C426.551 155.173 428.047 154.867 429.277 155.302C431.012 150.11 432.748 145.214 434.351 140.614C432.168 140.186 429.711 139.611 427.118 139.038C421.723 146.92 416.327 154.654 411.068 162.535C418.21 189.715 422.831 207.294 425.069 215.418C426.429 215.112 428.068 215.545 429.166 216.721C430.951 218.632 430.972 221.592 429.214 223.528C427.457 225.465 424.731 225.484 422.946 223.573C421.436 221.956 421.283 219.589 422.224 217.806C410.719 209.452 399.077 201.098 387.571 192.744C387.436 192.893 387.437 193.041 387.302 193.19C385.815 194.828 383.226 194.847 381.715 193.229C381.441 192.935 381.303 192.64 381.164 192.345C377.635 194.294 374.106 196.243 370.577 198.192C371.132 199.668 371.007 201.297 370.199 202.635C373.489 205.423 379.383 210.265 388.019 217.456L388.154 217.307C389.777 215.52 392.366 215.501 394.013 217.266C395.661 219.03 395.681 221.842 394.058 223.629C392.436 225.417 389.847 225.435 388.199 223.671C386.689 222.053 386.536 219.687 387.749 217.902C379.387 210.857 373.356 205.868 369.93 203.08C369.93 203.08 369.795 203.229 369.796 203.377C368.305 204.572 365.58 204.591 363.932 202.827ZM411.933 207.667C410.422 206.05 410.402 203.238 411.89 201.6C413.377 199.961 415.966 199.943 417.476 201.56C418.987 203.177 419.007 205.989 417.519 207.628C415.897 209.415 413.444 209.432 411.933 207.667ZM491.553 329.053C489.66 331.138 486.663 331.159 484.877 329.1C482.954 327.041 482.931 323.786 484.825 321.848C486.718 319.763 489.716 319.742 491.502 321.801C493.287 323.712 493.31 326.968 491.553 329.053ZM491.31 352.438C492.958 354.202 492.979 357.162 491.356 358.949C489.734 360.737 487.008 360.756 485.361 358.992C483.713 357.227 483.692 354.267 485.315 352.48C486.937 350.693 489.662 350.673 491.31 352.438ZM467.79 283.046C466.28 281.429 466.261 278.765 467.748 277.126C469.236 275.488 471.688 275.471 473.199 277.088C474.709 278.705 474.728 281.369 473.24 283.007C471.753 284.646 469.301 284.663 467.79 283.046ZM466.079 253.015C464.431 251.251 464.411 248.439 466.034 246.651C467.656 244.864 470.245 244.846 471.893 246.61C473.541 248.374 473.56 251.186 471.938 252.973C470.315 254.761 467.726 254.779 466.079 253.015ZM470.286 404.681C468.501 402.77 468.48 399.81 470.238 397.873C471.995 395.937 474.721 395.918 476.506 397.829C478.291 399.74 478.312 402.7 476.554 404.637C474.796 406.573 472.071 406.592 470.286 404.681ZM468.901 343.716C467.39 342.099 467.371 339.435 468.86 337.945C470.347 336.306 472.8 336.289 474.174 337.907C475.684 339.525 475.703 342.188 474.215 343.679C472.726 345.169 470.41 345.186 468.901 343.716ZM476.453 313.324C474.965 314.962 472.513 314.98 471.002 313.362C469.492 311.745 469.473 309.081 470.961 307.443C472.448 305.804 474.901 305.787 476.411 307.404C477.921 309.022 477.94 311.685 476.453 313.324ZM476.627 222.305C475.116 220.688 475.098 218.172 476.586 216.534C477.803 215.193 479.437 215.033 480.941 215.763C482.286 213.237 483.495 210.861 484.84 208.335C484.566 208.189 484.292 207.895 484.155 207.748C482.507 205.984 482.352 203.321 483.564 201.389C479.863 198.307 476.162 195.225 472.325 192.144C472.326 192.292 472.19 192.293 472.191 192.441C470.568 194.229 467.843 194.248 466.196 192.484C464.548 190.719 464.528 187.908 466.151 186.12C463.814 183.325 461.342 180.53 459.005 177.735C458.328 178.332 457.378 178.783 456.424 178.789C456.203 186.043 455.915 203.212 455.29 230.448C456.245 230.589 457.065 230.879 457.889 231.761C459.536 233.526 459.556 236.338 457.933 237.977C456.31 239.764 453.721 239.783 452.21 238.017C450.562 236.253 450.542 233.441 452.166 231.802C452.977 230.908 453.928 230.457 454.882 230.451C455.512 203.955 455.799 186.785 456.015 178.792C455.06 178.651 454.104 178.362 453.417 177.479C451.769 175.714 451.748 172.755 453.371 170.967C454.993 169.18 457.718 169.16 459.366 170.925C461.014 172.689 461.034 175.501 459.412 177.436C461.748 180.232 464.221 183.026 466.557 185.821C468.182 184.33 470.636 184.461 472.146 186.078C473.656 187.695 473.809 190.062 472.732 191.846C476.433 194.927 480.134 198.009 483.971 201.09C484.106 200.941 484.106 200.941 484.242 200.792C485.999 198.855 488.861 198.835 490.646 200.747C492.431 202.658 492.453 205.766 490.695 207.702C489.208 209.34 487.165 209.503 485.387 208.628C484.042 211.153 482.833 213.529 481.488 216.055C481.625 216.202 481.899 216.348 482.036 216.495C483.546 218.112 483.564 220.628 482.077 222.267C481.942 222.416 481.67 222.565 481.535 222.714C482.502 224.631 484.019 227.137 485.815 230.528C487.307 229.629 489.217 229.912 490.453 231.235C492.1 232.999 492.119 235.663 490.497 237.451C488.874 239.238 486.421 239.255 484.774 237.491C483.126 235.727 483.107 233.063 484.73 231.276C484.865 231.127 485.135 230.829 485.407 230.679C483.611 227.288 482.095 224.782 481.127 222.865C479.498 223.765 477.861 223.48 476.627 222.305ZM458.375 261.949C459.885 263.566 459.904 266.23 458.417 267.869C456.929 269.507 454.477 269.525 452.966 267.907C451.456 266.29 451.437 263.626 452.924 261.988C454.412 260.349 456.864 260.332 458.375 261.949ZM490.712 267.936C489.09 269.724 486.501 269.742 484.853 267.978C483.205 266.213 483.186 263.402 484.808 261.614C486.431 259.827 489.02 259.808 490.667 261.573C492.315 263.337 492.335 266.149 490.712 267.936ZM490.475 292.209C491.986 293.826 492.003 296.342 490.516 297.981C489.029 299.619 486.712 299.636 485.202 298.018C483.692 296.401 483.674 293.885 485.161 292.247C486.648 290.608 489.101 290.591 490.475 292.209ZM441.774 284.562C441.03 294.927 440.536 302.182 440.293 306.328C441.111 306.47 441.931 306.76 442.481 307.496C443.992 309.114 444.011 311.925 442.524 313.564C441.037 315.202 438.448 315.221 436.938 313.603C436.526 313.162 436.25 312.72 436.11 312.277C425.648 316.495 415.184 320.565 404.585 324.784C405.004 326.261 404.744 328.039 403.526 329.231C401.904 331.019 399.179 331.038 397.531 329.274C395.883 327.509 395.862 324.55 397.485 322.762C398.837 321.273 400.879 320.962 402.521 321.987C405.079 317.529 409.658 309.948 416.257 298.95C416.12 298.803 415.983 298.656 415.846 298.509C414.335 296.892 414.315 294.08 415.803 292.441C417.29 290.803 419.879 290.785 421.389 292.402C422.9 294.019 422.92 296.831 421.432 298.469C420.08 299.959 418.174 300.121 416.668 299.243C409.8 310.687 405.358 318.415 402.932 322.28C403.069 322.427 403.207 322.574 403.344 322.721C403.756 323.162 404.032 323.604 404.308 324.194C414.771 319.976 425.235 315.906 435.835 311.835C435.416 310.358 435.813 308.727 436.759 307.685C437.571 306.791 438.521 306.34 439.612 306.481C439.856 302.335 440.349 295.08 441.094 284.715C440.275 284.573 439.455 284.282 438.905 283.546C437.395 281.929 437.375 279.117 438.862 277.479C440.35 275.84 442.938 275.822 444.449 277.439C445.959 279.056 445.979 281.868 444.492 283.507C443.815 284.104 442.728 284.555 441.774 284.562ZM436.492 192.842C434.734 194.778 431.873 194.798 430.088 192.887C428.303 190.976 428.281 187.868 430.039 185.932C431.796 183.995 434.658 183.975 436.443 185.886C438.228 187.798 438.25 190.905 436.492 192.842ZM300.585 185.96C300.448 185.813 300.446 185.517 300.581 185.368C300.716 185.219 300.989 185.217 301.126 185.364C301.263 185.511 301.266 185.807 301.13 185.956C300.995 186.105 300.723 186.107 300.585 185.96ZM285.096 211.524C284.272 210.642 284.263 209.458 285.075 208.565C285.886 207.671 286.976 207.663 287.8 208.545C288.624 209.428 288.632 210.611 287.821 211.505C287.008 212.251 285.782 212.26 285.096 211.524ZM228.718 197.42C228.443 197.126 228.44 196.682 228.711 196.532C228.982 196.234 229.39 196.231 229.529 196.526C229.803 196.82 229.807 197.264 229.535 197.414C229.401 197.711 228.992 197.714 228.718 197.42ZM197.09 176.184C196.952 176.037 196.95 175.741 197.086 175.592C197.221 175.443 197.493 175.441 197.631 175.588C197.768 175.735 197.77 176.031 197.635 176.18C197.5 176.329 197.227 176.331 197.09 176.184ZM197.948 239.668C198.353 239.221 199.171 239.216 199.583 239.657C199.995 240.098 200.001 240.986 199.595 241.432C199.19 241.879 198.372 241.885 197.96 241.444C197.548 241.003 197.542 240.115 197.948 239.668ZM89.1136 245.766C88.4271 245.031 88.4187 243.847 89.0948 243.102C89.7709 242.357 90.8609 242.35 91.5475 243.085C92.234 243.82 92.2424 245.004 91.5663 245.749C90.8902 246.493 89.8002 246.501 89.1136 245.766ZM3.22648 298.024C3.50109 298.318 3.50423 298.762 3.23381 299.06C2.96338 299.358 2.5546 299.361 2.27999 299.067C2.00537 298.773 2.00223 298.329 2.27266 298.031C2.54413 297.881 3.08917 297.877 3.22648 298.024ZM17.7058 283.714C16.47 282.391 16.4554 280.319 17.6733 279.126C18.8902 277.786 20.7979 277.772 21.8974 279.097C23.1332 280.42 23.1478 282.492 21.9298 283.684C20.7129 285.025 18.8053 285.038 17.7058 283.714ZM86.0679 354.565L86.3404 354.563L86.3425 354.859L86.07 354.861L86.0679 354.565ZM135.069 346.818C135.344 347.112 135.346 347.408 135.075 347.706C134.805 348.004 134.532 348.006 134.258 347.712C133.983 347.418 133.981 347.122 134.252 346.824C134.522 346.526 134.794 346.524 135.069 346.818ZM198.996 310.847C198.185 311.741 196.686 311.751 195.726 310.87C194.902 309.988 194.891 308.36 195.701 307.318C196.512 306.425 198.011 306.414 198.971 307.295C199.796 308.325 199.806 309.805 198.996 310.847ZM200.127 335.85C200.402 336.144 200.405 336.588 200.134 336.886C199.864 337.184 199.455 337.187 199.181 336.893C198.906 336.599 198.903 336.155 199.173 335.857C199.307 335.56 199.852 335.556 200.127 335.85ZM200.228 350.057C200.777 350.645 200.782 351.385 200.241 351.981C199.7 352.577 199.019 352.581 198.47 351.993C197.921 351.405 197.915 350.665 198.456 350.07C198.998 349.622 199.816 349.616 200.228 350.057ZM200.992 400.37C201.679 401.105 201.687 402.289 201.011 403.034C200.335 403.779 199.245 403.786 198.558 403.051C197.872 402.316 197.864 401.132 198.54 400.388C199.216 399.643 200.306 399.635 200.992 400.37ZM255.95 348.627C256.637 349.362 256.646 350.694 255.971 351.587C255.295 352.331 254.069 352.34 253.246 351.606C252.56 350.871 252.55 349.539 253.225 348.646C254.037 347.752 255.263 347.744 255.95 348.627ZM322.199 467.443C322.336 467.59 322.34 468.034 322.204 468.183C322.069 468.332 321.66 468.335 321.523 468.188C321.386 468.041 321.383 467.597 321.518 467.448C321.652 467.151 321.924 467.149 322.199 467.443ZM99.6484 270.999C99.923 271.293 99.9272 271.885 99.6578 272.331C99.3874 272.629 98.8424 272.632 98.4315 272.339C98.1569 272.045 98.1527 271.453 98.4221 271.007C98.8288 270.709 99.3738 270.705 99.6484 270.999ZM329.971 236.958C328.735 235.635 328.721 233.563 329.937 232.223C331.154 230.882 333.062 230.869 334.298 232.192C335.534 233.515 335.548 235.587 334.331 236.927C333.114 238.268 331.07 238.282 329.971 236.958ZM302.032 236.416C301.071 235.387 301.061 233.907 302.007 232.864C302.954 231.822 304.316 231.812 305.278 232.841C306.239 233.87 306.249 235.35 305.303 236.393C304.492 237.434 302.994 237.445 302.032 236.416ZM308.931 286.982C309.617 287.717 309.627 289.049 308.951 289.793C308.275 290.538 307.048 290.547 306.362 289.812C305.675 289.077 305.666 287.745 306.342 287C307.154 286.254 308.244 286.247 308.931 286.982ZM338.264 311.342C330.819 299.111 322.271 284.963 312.618 268.9C306.532 275.307 300.581 281.713 294.495 288.12C301.766 295.024 309.036 301.781 316.307 308.685C317.929 306.897 320.518 306.879 322.166 308.643C322.852 309.379 323.268 310.412 323.412 311.447C328.454 311.411 333.359 311.376 338.264 311.342ZM312.479 268.457C310.134 264.478 307.652 260.351 305.034 256.226C303.813 256.975 302.313 256.837 301.215 255.661C299.979 254.338 299.963 252.118 301.18 250.778C302.397 249.437 304.441 249.423 305.677 250.746C306.912 252.069 306.928 254.289 305.711 255.629C305.576 255.778 305.44 255.779 305.305 255.928C307.787 260.055 310.269 264.181 312.613 268.16C322.486 257.583 332.496 247.152 342.368 236.575C339.01 224.167 335.652 211.759 332.157 199.204C331.204 199.359 330.249 199.217 329.562 198.482C329.425 198.335 329.287 198.04 329.148 197.745C322.224 201.346 315.3 204.947 308.511 208.399C309.066 209.727 308.805 211.357 307.723 212.548C306.371 214.038 304.055 214.054 302.681 212.584C302.544 212.437 302.543 212.289 302.406 212.142C286.678 223.353 270.815 234.713 255.088 245.924C255.504 246.957 255.512 248.141 254.701 249.034C254.16 249.63 253.48 249.783 252.798 249.788C252.406 252.159 251.617 256.16 250.568 261.939C263.41 266.584 271.471 269.635 274.886 270.795C275.021 270.646 275.019 270.35 275.291 270.2C276.102 269.306 277.328 269.298 278.016 270.181C278.702 270.916 278.71 271.952 278.307 272.843C283.657 277.837 288.87 282.832 294.22 287.826C300.307 281.419 306.392 274.864 312.479 268.457ZM293.95 288.124C288.736 283.129 283.386 278.135 278.173 273.14C277.361 273.885 276.271 273.893 275.447 273.011C274.898 272.423 274.757 271.832 274.888 271.091C271.609 269.93 263.412 266.88 250.57 262.235C249.913 265.644 249.259 269.496 248.337 274.091C262.115 295.453 269.968 307.533 271.76 310.48C272.032 310.33 272.44 310.327 272.715 310.621C279.884 303.171 286.917 295.573 293.95 288.124ZM250.16 262.09C246.472 260.784 242.236 259.186 237.728 257.59C241.448 263.336 244.892 268.639 248.061 273.501C248.848 269.203 249.502 265.351 250.16 262.09ZM165.302 305.757C165.301 305.609 165.437 305.46 165.435 305.312C158.866 301.215 152.16 297.119 145.59 293.021C147.12 297.45 148.788 302.026 150.318 306.455C155.494 306.123 160.534 305.939 165.302 305.757ZM144.628 291.844C139.205 276.491 133.783 261.286 128.36 245.932C127.816 246.084 127.133 245.941 126.585 245.501C126.585 245.501 126.584 245.353 126.448 245.354C121.703 248.791 102.585 262.394 68.8252 286.46C78.6716 291.423 85.0988 294.633 88.2443 296.239C88.3795 296.09 88.3774 295.794 88.6489 295.644C89.5954 294.601 91.2305 294.59 92.1917 295.619C92.4663 295.913 92.6046 296.208 92.743 296.503C104.024 292.427 115.306 288.352 126.587 284.276C126.305 282.946 126.567 281.464 127.512 280.273C129 278.635 131.316 278.619 132.827 280.236C134.062 281.559 134.212 283.482 133.541 284.967C137.237 287.308 140.932 289.502 144.628 291.844ZM356.659 195.627C355.773 185.865 354.885 175.956 353.998 166.194C352.908 166.202 351.815 165.766 350.991 164.884C349.343 163.119 349.325 160.455 350.947 158.668C340.368 146.459 329.788 134.102 319.346 121.893C319.209 121.894 319.21 122.042 319.074 122.043C321.838 127.499 334.276 152.126 356.659 195.627ZM372.651 375.772C369.28 380.828 362.806 390.346 353.231 404.473C353.367 404.472 353.369 404.62 353.505 404.619C354.878 406.089 354.896 408.605 353.545 410.243C352.192 411.732 349.876 411.749 348.367 410.279C346.857 408.81 346.976 406.293 348.327 404.656C349.544 403.315 351.45 403.154 352.82 404.18C362.531 389.904 369.003 380.238 372.239 375.331C372.101 375.184 371.965 375.185 371.964 375.037C370.179 373.126 370.157 370.018 371.915 368.082C372.05 367.933 372.321 367.783 372.457 367.634C368.458 361.003 359.22 345.676 344.88 321.95C344.745 322.099 344.474 322.249 344.337 322.25C346.421 327.859 351.139 339.814 358.081 358.116C359.576 357.513 361.214 357.946 362.313 359.122C363.96 360.886 363.98 363.698 362.358 365.486C360.735 367.273 358.146 367.291 356.499 365.527C354.851 363.763 354.831 360.951 356.454 359.163C356.724 358.866 357.131 358.567 357.537 358.268C350.317 339.227 345.599 327.273 343.793 322.402C343.249 322.554 342.568 322.559 342.022 322.415C336.565 340.805 330.973 359.344 325.516 377.734C325.926 377.879 326.337 378.172 326.749 378.613C328.122 380.083 328.14 382.599 326.788 384.089C325.435 385.578 323.119 385.595 321.746 384.124C320.922 383.242 320.641 382.06 320.77 381.023C314.766 379.882 308.762 378.74 302.759 377.599C302.627 378.192 302.358 378.786 301.953 379.233C300.736 380.573 298.692 380.588 297.32 379.265C296.084 377.942 296.068 375.722 297.284 374.234C297.96 373.489 298.912 373.186 299.73 373.18C300.375 368.144 301.8 357.626 303.733 341.925C303.323 341.78 302.777 341.636 302.501 341.194C301.403 340.018 301.39 338.242 302.473 337.198C303.555 336.006 305.19 335.995 306.152 337.172C307.114 338.349 307.263 340.124 306.18 341.168C305.639 341.763 304.96 342.064 304.141 341.922C302.074 357.92 300.649 368.29 300.138 373.178C300.684 373.322 301.232 373.614 301.78 374.054C302.466 374.789 302.746 375.823 302.617 376.86C308.621 378.001 314.625 379.143 320.629 380.284C320.761 379.691 321.028 378.95 321.434 378.503C322.38 377.46 323.604 377.155 324.834 377.591C330.291 359.201 335.883 340.662 341.34 322.271C340.93 322.126 340.655 321.832 340.244 321.539C339.008 320.216 338.993 317.996 340.21 316.656C340.48 316.358 340.752 316.208 341.023 316.058C340.195 314.584 339.231 313.111 338.266 311.637C333.225 311.673 328.183 311.709 323.143 311.892C323.15 312.928 322.749 313.967 321.937 314.861C320.315 316.648 317.726 316.667 316.078 314.902C314.568 313.285 314.414 310.77 315.764 308.985C308.493 302.08 301.222 295.176 293.952 288.42C286.919 295.869 279.887 303.467 272.853 310.916C273.129 311.358 273.133 311.95 272.728 312.397C272.322 312.844 271.641 312.849 271.229 312.408C270.817 311.967 270.812 311.227 271.217 310.78C268.876 307.245 261.16 295.311 248.07 274.833C246.103 285.65 243.476 299.58 240.326 316.622C253.387 332.957 266.447 349.145 279.371 365.481C280.59 364.436 282.498 364.423 283.597 365.747C284.833 367.07 284.85 369.438 283.633 370.778C283.227 371.225 282.548 371.526 282.004 371.678C283.298 381.14 284.592 390.751 285.885 400.214C286.43 400.21 286.976 400.354 287.388 400.795C288.212 401.677 288.223 403.157 287.411 404.051C287.141 404.349 286.87 404.499 286.598 404.648C287.307 408.491 289.002 417.063 291.689 430.808C291.552 430.809 291.552 430.809 291.416 430.81C291.691 431.104 291.695 431.696 291.425 431.994C291.154 432.291 290.609 432.295 290.334 432.001C290.06 431.707 290.056 431.115 290.326 430.817C290.597 430.519 290.869 430.518 291.143 430.664C288.594 417.066 286.898 408.494 286.189 404.651C285.644 404.655 284.962 404.512 284.55 404.071C283.726 403.189 283.716 401.709 284.527 400.815C284.797 400.517 285.205 400.366 285.477 400.216C284.182 390.606 282.889 381.143 281.595 371.681C280.642 371.688 279.686 371.398 278.999 370.663C277.763 369.34 277.747 366.972 278.964 365.632C266.04 349.443 253.116 333.255 240.194 317.215C237.305 332.627 234.024 350.41 230.217 370.86C230.627 371.005 230.9 371.151 231.311 371.445C232.273 372.474 232.285 374.25 231.339 375.292C230.392 376.335 228.757 376.346 227.796 375.317C226.835 374.288 226.822 372.512 227.769 371.47C228.309 370.874 229.125 370.572 229.807 370.715C233.613 350.117 237.029 332.185 239.917 316.625C237.168 313.241 234.555 309.855 231.806 306.471C230.045 307.963 227.591 307.833 225.943 306.068C225.119 305.186 224.703 304.153 224.696 303.117C217.068 303.467 198.95 304.335 170.344 305.722C170.487 306.609 170.22 307.498 169.68 308.242C168.599 309.434 166.964 309.445 165.865 308.269C165.316 307.681 165.037 306.795 165.167 305.906C160.535 306.087 155.632 306.418 150.455 306.602C156.573 323.875 162.691 341.147 168.81 358.567C169.49 358.414 170.309 358.556 170.994 359.144C171.818 360.026 171.83 361.654 171.019 362.547C170.207 363.441 168.708 363.452 167.885 362.569C167.061 361.687 167.05 360.207 167.724 359.167C156.043 345.19 144.498 331.36 132.817 317.383C132.14 317.98 131.049 317.839 130.363 317.252C130.226 317.105 130.087 316.81 129.95 316.663C123.697 318.779 99.6354 326.941 57.6295 341.15C57.772 342.037 57.642 342.926 56.9649 343.523C56.0184 344.565 54.5196 344.576 53.5584 343.547C52.5973 342.518 52.5858 340.89 53.5323 339.847C54.4787 338.804 55.9776 338.794 56.9387 339.823C57.2134 340.117 57.3517 340.412 57.4901 340.707C99.0882 326.649 123.15 318.487 129.811 316.22C129.67 315.629 129.801 314.888 130.343 314.44C131.019 313.696 132.246 313.687 133.068 314.421C133.755 315.156 133.763 316.34 133.225 317.232C144.906 331.209 156.45 345.039 168.132 359.016C168.268 359.015 168.267 358.867 168.403 358.866C162.284 341.446 156.166 324.173 150.048 306.753C124.711 307.968 93.3791 309.374 56.0554 311.266C56.6057 312.002 56.613 313.038 55.9369 313.783C55.2609 314.528 54.1708 314.535 53.4842 313.8C52.7977 313.065 52.7893 311.881 53.4654 311.136C53.4644 310.988 53.4644 310.988 53.4633 310.84C53.5996 310.839 53.7358 310.838 53.8721 310.838C54.415 310.538 54.9601 310.534 55.5072 310.826C93.1045 309.08 124.571 307.525 149.908 306.31C148.241 301.734 146.708 297.009 145.041 292.433C141.209 290.092 137.377 287.751 133.543 285.263C133.408 285.412 133.274 285.708 133.139 285.857C131.652 287.496 129.335 287.512 127.825 285.895C127.413 285.454 127.137 285.012 126.998 284.569C115.716 288.645 104.435 292.72 93.1539 296.796C93.2964 297.683 93.1675 298.72 92.4903 299.317C91.5439 300.359 89.9087 300.371 88.9476 299.342C88.2611 298.607 87.9802 297.425 88.3816 296.386C85.0999 294.781 78.6716 291.423 68.8252 286.46C55.2663 296.028 39.4034 307.388 21.2357 320.392C21.5124 320.982 21.3813 321.723 20.9768 322.318C20.4359 322.914 19.3458 322.921 18.7966 322.333C18.2474 321.745 18.239 320.561 18.7798 319.966C19.3207 319.37 20.4108 319.362 20.96 319.95C20.96 319.95 20.96 319.95 20.9611 320.098C38.9936 307.243 54.7212 296.032 68.2802 286.464C63.9042 284.275 58.7075 281.648 52.9636 278.729C52.8294 279.026 52.6942 279.175 52.5601 279.472C51.4784 280.663 49.5707 280.677 48.4723 279.501C47.3738 278.324 47.3591 276.253 48.4408 275.061C49.5226 273.869 51.4302 273.856 52.5287 275.032C53.3525 275.914 53.6344 277.244 53.233 278.283C59.1131 281.201 64.3098 283.828 68.8231 286.164C101.905 262.547 121.158 248.795 126.717 244.908C126.439 244.17 126.433 243.282 127.11 242.685C127.786 241.94 129.013 241.932 129.699 242.667C130.386 243.402 130.395 244.734 129.719 245.479C129.584 245.628 129.449 245.777 129.312 245.778C134.736 261.279 140.297 276.779 145.721 292.28C152.564 296.524 159.27 300.62 166.114 304.864C166.249 304.715 166.248 304.567 166.383 304.418C167.33 303.375 168.965 303.363 169.925 304.245C177.361 296.052 184.663 288.009 192.1 279.816C191.549 279.08 191.27 278.046 191.536 277.157C187.845 275.555 179.509 272.21 166.389 266.679C166.391 266.975 166.256 267.272 166.121 267.421C165.58 268.016 164.899 268.021 164.35 267.433C163.801 266.845 163.795 266.105 164.336 265.509C164.335 265.361 164.335 265.361 164.47 265.212L164.607 265.211C165.013 264.913 165.695 264.908 166.107 265.349C166.244 265.496 166.382 265.791 166.383 265.939C179.23 271.324 187.567 274.817 191.667 276.416C191.801 276.119 191.935 275.822 192.207 275.672C193.288 274.48 195.06 274.468 196.022 275.645C197.12 276.821 197.134 278.745 196.051 279.788C195.105 280.831 193.471 280.991 192.373 279.962C185.073 288.154 177.635 296.198 170.335 304.39C170.473 304.685 170.748 304.979 170.75 305.275C199.22 303.889 217.337 303.021 225.102 302.67C225.093 301.486 225.494 300.3 226.44 299.257C228.198 297.321 230.923 297.301 232.708 299.213C234.493 301.124 234.514 304.084 232.756 306.02C232.756 306.02 232.756 306.02 232.62 306.021C235.232 309.258 237.844 312.496 240.456 315.733C243.605 298.544 246.231 284.613 248.199 273.796C244.892 268.639 241.31 263.041 237.314 256.853C233.626 255.547 229.664 254.095 225.564 252.496C225.565 252.644 225.43 252.793 225.295 252.942C224.754 253.538 224.073 253.543 223.524 252.955C223.249 252.661 223.108 252.07 223.242 251.625C208.897 246.399 191.546 240.01 171.462 232.604C171.328 232.901 171.194 233.198 171.058 233.347C170.112 234.389 168.613 234.4 167.652 233.371C166.691 232.342 166.679 230.714 167.626 229.671C168.572 228.628 170.071 228.618 171.032 229.647C171.581 230.235 171.861 231.269 171.594 232.011C191.678 239.417 209.029 245.806 223.374 251.032L223.373 250.884C223.913 250.288 224.595 250.283 225.144 250.871C225.419 251.166 225.557 251.461 225.559 251.757C229.521 253.208 233.347 254.661 236.762 255.821C227.117 240.794 215.407 222.821 201.903 201.605C201.088 202.055 199.998 202.063 199.174 201.181C198.213 200.151 198.203 198.672 199.149 197.629C200.096 196.586 201.458 196.577 202.419 197.606C203.381 198.635 203.391 200.115 202.445 201.157C202.445 201.157 202.308 201.158 202.309 201.306C216.087 222.668 227.799 240.937 237.581 256.111C242.363 257.853 246.599 259.451 250.561 260.903C251.611 255.272 252.4 251.271 252.792 248.9C252.382 248.755 252.109 248.609 251.834 248.315C250.873 247.286 250.862 245.658 251.808 244.615C252.754 243.572 254.253 243.562 255.214 244.591C255.214 244.591 255.352 244.738 255.353 244.886C271.08 233.675 286.943 222.315 302.671 211.104C301.979 209.629 302.103 207.852 303.184 206.513C304.536 205.023 306.852 205.007 308.225 206.477C308.5 206.771 308.638 207.066 308.776 207.361C315.701 203.76 322.625 200.159 329.414 196.707C328.998 195.674 329.261 194.34 330.072 193.447C331.154 192.255 332.925 192.243 334.16 193.418C335.258 194.594 335.272 196.518 334.191 197.857C333.921 198.155 333.514 198.454 333.243 198.604C336.601 211.012 339.958 223.272 343.316 235.68C347.644 231.061 351.837 226.592 356.164 221.973C354.653 220.208 354.769 217.395 356.257 215.757C356.933 215.012 357.747 214.562 358.7 214.408C358.113 208.492 357.661 202.427 357.074 196.512C336.762 156.696 324.05 131.923 318.937 121.896C317.715 122.496 316.215 122.359 315.253 121.182C314.017 119.858 314 117.491 315.217 116.15C316.434 114.809 318.614 114.794 319.85 116.117C321.086 117.44 321.101 119.66 319.884 121.001C330.463 133.21 341.043 145.566 351.486 157.776C353.111 156.285 355.428 156.416 356.938 158.034C358.586 159.798 358.606 162.61 356.982 164.249C356.306 164.994 355.491 165.296 354.674 165.449C355.564 175.655 356.454 185.86 357.345 196.214C364.668 210.518 373.096 226.885 382.493 245.318C384.258 244.418 386.304 244.699 387.677 246.17C389.462 248.081 389.484 251.189 387.727 253.273C385.969 255.21 383.108 255.23 381.187 253.319C379.402 251.408 379.38 248.3 381.136 246.216C381.407 245.918 381.678 245.768 381.949 245.47C372.829 227.627 364.676 211.553 357.353 197.398C357.802 203.018 358.386 208.49 358.834 214.111C359.924 214.103 361.154 214.538 361.978 215.42C363.625 217.185 363.646 220.144 362.024 221.932C360.401 223.719 357.812 223.738 356.165 222.121C351.838 226.74 347.51 231.358 343.182 235.977C344.722 241.738 346.261 247.499 347.937 253.259C349.434 252.952 351.071 253.237 352.171 254.561C353.818 256.325 353.973 258.988 352.624 260.921C356.189 264.004 362.359 269.288 371.27 276.921L371.405 276.772C373.163 274.836 375.888 274.816 377.537 276.729C379.322 278.64 379.343 281.6 377.584 283.388C375.826 285.324 373.101 285.344 371.452 283.431C369.942 281.814 369.787 279.151 371.001 277.367C362.225 269.733 355.92 264.45 352.355 261.367L352.22 261.516C350.462 263.453 347.601 263.473 345.816 261.561C344.031 259.65 344.009 256.542 345.766 254.606C346.307 254.01 346.85 253.71 347.529 253.41C345.991 247.797 344.451 242.036 342.913 236.423C333.039 246.852 323.166 257.43 313.292 267.859C323.082 284.07 331.631 298.217 339.077 310.596C349.024 310.525 358.97 310.307 369.053 310.236C369.045 309.2 369.448 308.309 370.124 307.564C371.341 306.224 373.247 305.914 374.753 306.94C379.602 298.913 393.61 275.875 416.645 238.121C416.507 237.974 416.37 237.827 416.233 237.68C414.585 235.916 414.564 232.956 416.186 231.02C417.808 229.233 420.534 229.214 422.317 230.977C423.965 232.741 423.986 235.701 422.365 237.637C421.012 239.126 418.834 239.437 417.192 238.413C394.293 276.018 380.283 298.909 375.3 307.232C375.437 307.379 375.573 307.378 375.711 307.525C377.221 309.142 377.24 311.806 375.753 313.444C374.265 315.083 371.813 315.1 370.302 313.483C369.616 312.748 369.201 311.863 369.193 310.827C359.383 310.896 349.437 311.114 339.626 311.184C340.454 312.658 341.417 313.983 342.245 315.457C343.332 315.006 344.561 315.293 345.522 316.322C346.757 317.645 346.772 319.717 345.691 321.057C360.03 344.635 369.268 359.961 373.404 366.739C375.168 365.691 377.35 365.823 378.86 367.441C380.645 369.352 380.667 372.46 378.909 374.396C376.747 376.927 374.431 377.092 372.651 375.772ZM327.528 353.892C327.116 353.451 327.112 352.859 327.518 352.56C327.924 352.114 328.469 352.11 328.745 352.552C329.157 352.993 329.161 353.585 328.754 353.884C328.347 354.182 327.802 354.186 327.528 353.892ZM290.166 311.83L290.438 311.828L290.44 312.124L290.168 312.126L290.166 311.83ZM168.986 344.95C169.26 345.096 169.263 345.54 168.992 345.69C168.72 345.84 168.448 345.842 168.31 345.695C168.036 345.401 168.034 345.105 168.305 344.955C168.575 344.657 168.848 344.655 168.986 344.95ZM90.7879 328.336L90.3791 328.339L90.376 327.895L90.7848 327.892L90.7879 328.336ZM240.215 300.935C239.94 300.641 239.937 300.197 240.208 299.9C240.478 299.602 240.887 299.599 241.161 299.893C241.436 300.187 241.439 300.631 241.169 300.929C240.898 301.227 240.49 301.23 240.215 300.935ZM344.308 279.628C344.583 279.922 344.586 280.366 344.316 280.664C344.045 280.961 343.636 280.964 343.362 280.67C343.087 280.376 343.084 279.932 343.354 279.634C343.489 279.337 344.034 279.334 344.308 279.628ZM395.295 398.404C397.08 400.315 397.101 403.275 395.343 405.211C394.396 406.254 393.309 406.705 392.082 406.566C391.964 409.083 391.714 412.341 391.334 416.339C392.152 416.481 392.972 416.772 393.522 417.508C395.032 419.125 395.052 421.937 393.565 423.575C392.078 425.214 389.489 425.232 387.978 423.615C386.468 421.997 386.448 419.186 387.935 417.547C388.747 416.653 389.697 416.203 390.789 416.343C391.031 412.049 391.28 408.792 391.537 406.57C391.128 406.573 390.718 406.428 390.307 406.135C386.952 413.41 383.461 420.687 380.105 427.814C380.378 427.96 380.789 428.253 381.064 428.547C382.849 430.459 382.871 433.567 381.113 435.503C380.437 436.248 379.486 436.698 378.67 436.852C379.108 440.993 379.838 447.944 380.86 457.556C382.086 457.547 383.18 457.984 384.14 458.865C385.787 460.629 385.808 463.589 384.187 465.524C382.564 467.312 379.839 467.331 378.055 465.568C376.407 463.803 376.387 460.844 378.008 458.908C378.684 458.163 379.499 457.714 380.315 457.56C379.293 447.947 378.563 440.997 378.125 436.856C376.898 436.865 375.533 436.43 374.571 435.401C372.786 433.49 372.764 430.382 374.522 428.446C375.874 426.956 377.916 426.646 379.693 427.373C383.048 420.098 386.539 412.821 389.896 405.694C389.622 405.548 389.211 405.254 389.073 404.959C387.288 403.048 387.267 400.088 389.025 398.152C390.782 396.216 393.511 396.64 395.295 398.404ZM421.781 444.095C423.429 445.859 423.448 448.523 421.825 450.31C420.608 451.651 418.839 451.96 417.335 451.23C415.32 455.388 411.831 462.961 406.595 474.098C406.869 474.244 407.142 474.39 407.281 474.685C408.791 476.302 408.81 478.966 407.323 480.604C405.835 482.243 403.383 482.26 401.872 480.643C400.362 479.026 400.343 476.362 401.83 474.723C403.047 473.383 404.681 473.223 406.184 473.804C411.421 462.816 414.91 455.243 416.924 450.937C416.65 450.791 416.376 450.497 416.102 450.351C414.455 448.587 414.436 445.923 416.058 444.135C416.87 443.242 417.956 442.79 419.183 442.781C419.949 435.524 420.579 428.268 421.344 420.863C420.662 420.72 419.841 420.281 419.292 419.693C417.782 418.076 417.763 415.412 419.25 413.774C419.656 413.327 420.199 413.027 420.742 412.727C418.919 405.488 414.3 388.205 407.293 360.876C405.933 361.181 404.294 360.749 403.196 359.573C401.411 357.661 401.39 354.702 403.148 352.765C404.906 350.829 407.631 350.81 409.416 352.721C411.201 354.632 411.222 357.592 409.464 359.528C408.923 360.124 408.38 360.424 407.701 360.725C414.844 388.054 419.327 405.337 421.149 412.576C422.374 412.272 423.739 412.706 424.701 413.735C426.211 415.352 426.23 418.016 424.742 419.655C423.931 420.548 422.844 421 421.889 420.859C421.123 428.116 420.493 435.372 419.728 442.778C420.411 443.069 421.231 443.359 421.781 444.095ZM430.2 459.131C431.847 460.895 431.866 463.559 430.244 465.347C428.621 467.134 426.169 467.151 424.521 465.387C422.873 463.623 422.854 460.959 424.477 459.171C426.101 457.532 428.553 457.515 430.2 459.131ZM434.038 404.493C432.55 406.132 430.234 406.148 428.86 404.53C427.349 402.913 427.332 400.397 428.82 398.906C430.307 397.268 432.624 397.252 433.998 398.87C435.372 400.488 435.389 402.856 434.038 404.493ZM441.858 489.092C443.643 491.003 443.665 494.111 441.906 495.899C440.149 497.836 437.287 497.856 435.638 495.944C433.853 494.032 433.831 490.924 435.59 489.136C437.348 487.2 440.073 487.18 441.858 489.092ZM449.11 435.466C447.352 437.402 444.354 437.423 442.569 435.512C440.784 433.601 440.761 430.345 442.519 428.409C444.277 426.472 447.274 426.451 449.059 428.362C450.844 430.274 450.866 433.382 449.11 435.466ZM448.27 413.124C450.028 411.188 453.026 411.167 454.811 413.078C456.596 414.989 456.619 418.245 454.861 420.182C453.103 422.118 450.106 422.139 448.321 420.228C446.399 418.318 446.376 415.062 448.27 413.124ZM448.652 390.034C446.73 387.976 446.707 384.72 448.6 382.635C450.493 380.55 453.49 380.528 455.413 382.587C457.335 384.645 457.358 387.901 455.465 389.986C453.708 392.071 450.574 392.093 448.652 390.034ZM449.624 450.41C447.839 448.499 447.818 445.539 449.576 443.602C451.334 441.666 454.059 441.647 455.844 443.558C457.629 445.469 457.65 448.429 455.892 450.365C454.133 452.154 451.272 452.174 449.624 450.41ZM456.14 504.678C457.651 506.296 457.669 508.959 456.182 510.598C454.695 512.236 452.242 512.254 450.732 510.636C449.221 509.019 449.202 506.355 450.69 504.717C452.176 502.93 454.629 502.913 456.14 504.678ZM459.332 474.316C460.842 475.934 460.861 478.598 459.374 480.236C457.887 481.875 455.434 481.892 453.924 480.275C452.413 478.657 452.394 475.994 453.882 474.355C455.369 472.717 457.822 472.699 459.332 474.316ZM459.291 352.96C460.802 354.577 460.821 357.389 459.334 359.028C457.847 360.666 455.258 360.684 453.747 359.067L453.61 358.92C449.006 362.949 439.252 371.157 424.489 383.841C425.729 385.757 425.612 388.421 423.989 390.209C422.231 392.145 419.37 392.165 417.585 390.254C415.8 388.343 415.778 385.235 417.536 383.299C419.293 381.362 422.155 381.342 423.94 383.253C424.077 383.4 424.077 383.4 424.214 383.547C439.113 370.714 448.866 362.506 453.335 358.626C452.37 357.005 452.355 354.933 453.571 353.445C450.825 350.504 447.943 347.565 445.197 344.624C443.573 346.264 440.984 346.282 439.336 344.518C438.513 343.635 438.097 342.602 438.088 341.418L391.896 341.745C391.903 342.781 391.502 343.82 390.826 344.565C389.338 346.203 386.75 346.222 385.239 344.604C384.415 343.722 383.999 342.689 383.991 341.505C382.218 341.37 379.901 341.238 377.037 340.962C376.908 341.999 376.506 342.89 375.83 343.635C374.207 345.422 371.618 345.441 369.971 343.676C368.323 341.912 368.303 339.1 369.926 337.313C371.548 335.525 374.137 335.507 375.785 337.271C376.609 338.154 377.026 339.335 377.034 340.518C379.898 340.794 382.215 340.926 383.988 341.061C384.118 340.172 384.384 339.282 385.06 338.538C386.547 336.899 389.136 336.881 390.647 338.498C391.333 339.233 391.749 340.266 391.757 341.302L437.949 340.975C437.941 339.94 438.342 338.753 439.153 337.859C440.776 336.072 443.501 336.052 445.285 337.816C446.932 339.58 446.952 342.392 445.466 344.178C448.212 347.119 451.095 350.058 453.841 352.999C455.464 351.359 457.781 351.343 459.291 352.96ZM425.105 374.661C423.458 372.897 423.436 369.789 425.058 368.002C426.681 366.214 429.542 366.194 431.19 367.959C432.838 369.723 432.86 372.831 431.237 374.618C429.616 376.553 426.89 376.573 425.105 374.661ZM463.54 298.616C461.782 300.552 459.057 300.571 457.272 298.66C455.487 296.749 455.466 293.789 457.224 291.852C458.981 289.916 461.707 289.897 463.492 291.808C465.14 293.72 465.162 296.828 463.54 298.616ZM462.116 328.521C460.606 326.904 460.588 324.388 462.075 322.749C463.563 321.111 465.879 321.094 467.389 322.712C468.9 324.329 468.918 326.845 467.43 328.483C465.943 330.122 463.49 330.139 462.116 328.521ZM464.779 435.207C462.994 433.296 462.972 430.188 464.73 428.4C466.488 426.463 469.35 426.443 470.998 428.355C472.783 430.267 472.805 433.374 471.047 435.163C469.425 437.098 466.564 437.118 464.779 435.207ZM472.154 495.389C470.667 497.028 468.078 497.046 466.431 495.43C464.921 493.812 464.901 491.001 466.387 489.214C467.874 487.576 470.463 487.557 472.11 489.174C473.758 490.938 473.778 493.75 472.154 495.389ZM478.997 518.872C480.919 520.93 480.942 524.186 479.048 526.124C477.155 528.209 474.158 528.23 472.372 526.171C470.449 524.112 470.426 520.857 472.32 518.919C474.078 516.983 477.076 516.962 478.997 518.872ZM479.801 459.076C481.311 460.693 481.329 463.209 479.84 464.7C478.353 466.338 476.037 466.355 474.662 464.736C473.152 463.119 473.134 460.603 474.623 459.113C475.975 457.623 478.291 457.607 479.801 459.076ZM483.423 373.953C481.935 375.591 479.483 375.609 477.972 373.991C476.462 372.374 476.443 369.71 477.93 368.072C479.418 366.433 481.87 366.416 483.381 368.033C484.891 369.651 484.91 372.314 483.423 373.953ZM492.597 534.315C494.244 536.08 494.265 539.04 492.643 540.827C491.02 542.614 488.295 542.634 486.647 540.869C485 539.105 484.979 536.145 486.601 534.358C488.224 532.57 490.949 532.551 492.597 534.315ZM486.569 510.531C484.921 508.767 484.901 505.955 486.524 504.167C488.147 502.38 490.736 502.362 492.383 504.126C494.031 505.89 494.051 508.702 492.428 510.489C490.806 512.277 488.217 512.295 486.569 510.531ZM492.439 473.49C494.224 475.402 494.247 478.657 492.489 480.594C490.732 482.53 487.734 482.551 485.949 480.64C484.164 478.729 484.141 475.473 485.899 473.537C487.656 471.6 490.654 471.579 492.439 473.49ZM485.957 443.345C487.58 441.558 490.441 441.537 492.089 443.302C493.737 445.066 493.759 448.174 492.136 449.961C490.514 451.749 487.652 451.769 486.005 450.004C484.221 448.241 484.2 445.281 485.957 443.345ZM485.925 419.518C484.277 417.754 484.258 414.942 485.881 413.302C487.504 411.515 490.093 411.497 491.604 413.262C493.252 415.026 493.272 417.838 491.648 419.477C490.162 421.264 487.573 421.282 485.925 419.518ZM492.067 382.327C493.989 384.386 494.013 387.79 492.12 389.875C490.227 391.96 487.093 391.982 485.171 389.924C483.248 387.866 483.224 384.462 485.117 382.377C487.01 380.291 490.008 380.27 492.067 382.327ZM506.604 549.608C508.252 551.372 508.272 554.184 506.648 555.823C505.026 557.611 502.437 557.629 500.925 555.864C499.278 554.1 499.258 551.288 500.881 549.648C502.368 547.862 504.957 547.844 506.604 549.608ZM506.525 519.121C508.172 520.886 508.193 523.845 506.571 525.633C504.948 527.42 502.223 527.44 500.575 525.675C498.928 523.911 498.907 520.951 500.529 519.164C502.152 517.376 504.741 517.358 506.525 519.121ZM500.101 458.636C501.724 456.849 504.449 456.83 506.097 458.594C507.744 460.358 507.765 463.318 506.143 465.106C504.52 466.893 501.795 466.912 500.147 465.148C498.498 463.236 498.479 460.424 500.101 458.636ZM500.067 434.513C498.556 432.896 498.537 430.084 500.024 428.446C501.511 426.807 504.1 426.789 505.61 428.406C507.121 430.024 507.141 432.835 505.653 434.474C504.166 436.112 501.577 436.131 500.067 434.513ZM506.175 488.933C507.823 490.697 507.843 493.509 506.22 495.296C504.597 497.084 502.008 497.102 500.361 495.338C498.713 493.573 498.693 490.762 500.316 488.974C501.938 487.187 504.527 487.168 506.175 488.933ZM505.802 397.622C507.587 399.533 507.609 402.641 505.851 404.577C504.093 406.514 501.231 406.534 499.446 404.623C497.661 402.711 497.64 399.604 499.397 397.667C501.155 395.731 504.017 395.711 505.802 397.622ZM505.587 367.284C507.372 369.196 507.395 372.451 505.637 374.388C503.879 376.324 500.882 376.345 499.097 374.434C497.312 372.523 497.289 369.267 499.046 367.33C500.94 365.393 503.802 365.373 505.587 367.284ZM499.423 343.5C497.913 341.883 497.893 339.071 499.38 337.433C500.867 335.794 503.456 335.776 504.967 337.393C506.477 339.011 506.497 341.822 505.01 343.461C503.523 345.247 500.934 345.266 499.423 343.5ZM505.293 306.46C507.215 308.518 507.238 311.774 505.345 313.859C503.452 315.945 500.455 315.966 498.532 313.908C496.61 311.849 496.587 308.594 498.48 306.508C500.373 304.423 503.507 304.401 505.293 306.46ZM505.214 276.121C507.137 278.18 507.16 281.435 505.267 283.521C503.374 285.606 500.376 285.627 498.454 283.569C496.532 281.511 496.509 278.255 498.401 276.17C500.158 274.085 503.292 274.063 505.214 276.121ZM520.609 564.604C522.257 566.369 522.277 569.181 520.654 570.968C519.032 572.755 516.443 572.774 514.795 571.009C513.148 569.245 513.128 566.433 514.75 564.646C516.373 562.858 519.098 562.839 520.609 564.604ZM520.666 534.117C522.451 536.028 522.472 538.988 520.714 540.924C518.957 542.861 516.232 542.88 514.447 540.969C512.662 539.057 512.641 536.098 514.398 534.161C516.156 532.225 518.881 532.206 520.666 534.117ZM514.502 510.333C512.855 508.569 512.835 505.757 514.457 503.97C516.08 502.182 518.669 502.164 520.317 503.928C521.964 505.693 521.984 508.504 520.362 510.292C518.739 512.079 516.014 512.098 514.502 510.333ZM520.507 473.144C522.43 475.202 522.453 478.458 520.559 480.395C518.666 482.48 515.668 482.502 513.882 480.442C511.96 478.384 511.937 475.128 513.831 473.191C515.589 471.255 518.586 471.233 520.507 473.144ZM513.54 412.811C515.298 410.874 518.159 410.854 519.808 412.766C521.593 414.678 521.615 417.785 519.856 419.574C518.098 421.51 515.237 421.53 513.588 419.618C511.803 417.707 511.782 414.747 513.54 412.811ZM513.645 389.131C511.997 387.366 511.977 384.555 513.6 382.767C515.222 380.98 517.811 380.961 519.459 382.726C521.107 384.49 521.127 387.302 519.504 389.089C517.88 390.729 515.155 390.748 513.645 389.131ZM513.755 443.148C515.512 441.212 518.374 441.192 520.159 443.103C521.944 445.014 521.966 448.122 520.208 450.058C518.45 451.995 515.589 452.015 513.804 450.104C512.018 448.044 511.996 444.937 513.755 443.148ZM519.649 351.793C521.571 353.851 521.594 357.107 519.701 359.193C517.808 361.278 514.811 361.299 512.888 359.241C510.966 357.182 510.943 353.927 512.836 351.841C514.729 349.756 517.727 349.735 519.649 351.793ZM512.331 261.123C514.088 259.187 517.086 259.166 518.871 261.077C520.656 262.988 520.679 266.244 518.921 268.181C517.163 270.117 514.166 270.138 512.381 268.227C510.595 266.168 510.573 263.06 512.331 261.123ZM512.166 237.889C510.381 235.978 510.358 232.722 512.116 230.786C513.874 228.849 516.871 228.828 518.656 230.74C520.441 232.651 520.464 235.907 518.707 237.843C516.949 239.779 513.951 239.801 512.166 237.889ZM518.95 291.564C520.735 293.475 520.756 296.435 518.997 298.223C517.24 300.16 514.515 300.179 512.73 298.268C510.945 296.356 510.924 293.397 512.682 291.608C514.44 289.672 517.165 289.652 518.95 291.564ZM512.759 321.651C514.516 319.714 517.514 319.693 519.299 321.604C521.084 323.516 521.107 326.772 519.349 328.708C517.592 330.644 514.594 330.666 512.809 328.754C511.024 326.843 511.002 323.735 512.759 321.651ZM518.712 200.104C520.635 202.162 520.659 205.566 518.766 207.651C516.873 209.737 513.739 209.759 511.816 207.701C509.894 205.642 509.87 202.239 511.763 200.153C513.656 198.068 516.654 198.047 518.712 200.104ZM535.157 579.153C537.079 581.211 537.102 584.467 535.209 586.553C533.316 588.638 530.318 588.659 528.396 586.601C526.474 584.542 526.451 581.287 528.344 579.201C530.237 577.116 533.371 577.094 535.157 579.153ZM534.231 525.289C532.608 527.077 530.155 527.094 528.508 525.33C526.86 523.565 526.841 520.902 528.464 519.114C530.086 517.327 532.539 517.309 534.187 519.074C535.834 520.838 535.853 523.502 534.231 525.289ZM534.401 549.411C535.913 551.177 535.931 553.84 534.445 555.627C532.958 557.265 530.369 557.284 528.722 555.667C527.076 554.051 527.056 551.239 528.678 549.452C530.302 547.812 532.891 547.794 534.401 549.411ZM528.429 494.991C526.919 493.374 526.899 490.562 528.386 488.924C529.874 487.285 532.463 487.267 533.973 488.884C535.483 490.501 535.503 493.313 534.016 494.952C532.529 496.59 529.94 496.608 528.429 494.991ZM534.213 465.055C532.455 466.991 529.458 467.013 527.673 465.101C525.888 463.19 525.865 459.934 527.623 457.998C529.38 456.061 532.378 456.04 534.163 457.952C536.085 460.01 536.107 463.118 534.213 465.055ZM534.136 434.864C532.378 436.801 529.38 436.822 527.595 434.911C525.81 432.999 525.787 429.744 527.545 427.807C529.303 425.871 532.301 425.85 534.086 427.761C535.871 429.672 535.893 432.78 534.136 434.864ZM533.87 397.275C535.792 399.334 535.815 402.589 533.922 404.675C532.029 406.76 529.032 406.781 527.109 404.723C525.187 402.665 525.164 399.409 527.057 397.323C528.95 395.238 532.084 395.216 533.87 397.275ZM527.03 374.236C525.108 372.178 525.085 368.922 526.979 366.985C528.872 364.9 531.869 364.878 533.655 366.938C535.578 368.996 535.601 372.252 533.707 374.189C531.814 376.274 528.816 376.296 527.03 374.236ZM533.577 336.599C535.499 338.657 535.522 341.913 533.629 343.998C531.736 346.084 528.739 346.105 526.816 344.047C524.894 341.988 524.871 338.733 526.764 336.647C528.521 334.563 531.655 334.541 533.577 336.599ZM526.044 215.592C527.802 213.655 530.663 213.635 532.448 215.546C534.233 217.458 534.255 220.565 532.497 222.502C530.74 224.438 527.878 224.458 526.093 222.547C524.308 220.636 524.286 217.528 526.044 215.592ZM526.014 192.061C524.229 190.149 524.208 187.189 525.967 185.401C527.724 183.465 530.45 183.445 532.098 185.358C533.883 187.269 533.904 190.229 532.145 192.017C530.524 193.953 527.662 193.973 526.014 192.061ZM525.984 245.635C527.877 243.55 530.875 243.529 532.797 245.587C534.719 247.645 534.742 250.901 532.849 252.987C530.956 255.072 527.959 255.093 526.036 253.035C524.25 250.975 524.227 247.72 525.984 245.635ZM526.824 306.604C528.582 304.667 531.307 304.648 533.092 306.559C534.877 308.471 534.898 311.43 533.14 313.367C531.382 315.303 528.657 315.322 526.872 313.411C525.087 311.5 525.066 308.54 526.824 306.604ZM526.658 283.073C524.873 281.162 524.852 278.202 526.61 276.414C528.368 274.478 531.093 274.458 532.742 276.371C534.527 278.282 534.548 281.242 532.789 283.03C531.167 284.818 528.305 284.838 526.658 283.073ZM532.289 154.573C534.212 156.632 534.235 159.887 532.342 161.973C530.449 164.058 527.451 164.079 525.529 162.021C523.606 159.963 523.583 156.707 525.476 154.621C527.233 152.537 530.367 152.515 532.289 154.573ZM525.584 131.385C523.937 129.621 523.915 126.513 525.537 124.726C527.16 122.938 530.021 122.918 531.669 124.682C533.317 126.447 533.339 129.554 531.716 131.342C530.095 133.277 527.233 133.298 525.584 131.385ZM531.861 94.0459C533.783 96.1043 533.806 99.36 531.913 101.445C530.02 103.531 527.023 103.552 525.1 101.494C523.178 99.4352 523.155 96.1795 525.048 94.0941C526.805 92.0098 529.939 91.9876 531.861 94.0459ZM548.543 564.407C550.19 566.171 550.21 568.983 548.588 570.77C546.965 572.558 544.376 572.576 542.729 570.812C541.081 569.048 541.061 566.236 542.684 564.448C544.306 562.661 546.895 562.643 548.543 564.407ZM548.6 533.919C550.385 535.831 550.406 538.79 548.648 540.727C546.89 542.663 544.165 542.682 542.38 540.771C540.595 538.86 540.574 535.9 542.332 533.964C544.089 532.027 546.815 532.008 548.6 533.919ZM542.164 510.285C540.517 508.521 540.496 505.561 542.117 503.626C543.74 501.839 546.465 501.819 548.249 503.583C549.896 505.347 549.917 508.307 548.296 510.242C546.673 512.03 543.948 512.049 542.164 510.285ZM548.306 473.095C550.091 475.006 550.113 478.114 548.356 480.199C546.598 482.135 543.737 482.155 541.815 480.245C540.03 478.333 540.008 475.226 541.765 473.141C543.523 471.205 546.521 471.184 548.306 473.095ZM547.789 419.376C546.031 421.313 543.306 421.332 541.521 419.421C539.736 417.509 539.715 414.549 541.473 412.613C543.231 410.677 545.956 410.657 547.741 412.569C549.526 414.48 549.547 417.44 547.789 419.376ZM547.821 443.055C549.468 444.82 549.489 447.779 547.867 449.567C546.244 451.354 543.519 451.374 541.871 449.609C540.223 447.845 540.203 444.885 541.825 443.098C543.448 441.31 546.173 441.291 547.821 443.055ZM547.576 389.187C545.818 391.123 542.956 391.143 541.171 389.232C539.386 387.321 539.365 384.213 541.122 382.276C542.88 380.34 545.741 380.32 547.526 382.231C549.448 384.141 549.47 387.249 547.576 389.187ZM547.447 351.744C549.232 353.656 549.255 356.912 547.497 358.848C545.74 360.784 542.742 360.806 540.957 358.894C539.172 356.983 539.149 353.727 540.907 351.791C542.664 349.854 545.662 349.833 547.447 351.744ZM541.149 328.258C539.501 326.493 539.481 323.682 541.105 322.042C542.727 320.255 545.316 320.236 546.828 322.002C548.476 323.766 548.495 326.578 546.872 328.217C545.248 329.857 542.659 329.875 541.149 328.258ZM547.154 291.068C549.076 293.127 549.099 296.382 547.206 298.468C545.313 300.553 542.316 300.574 540.393 298.516C538.471 296.458 538.448 293.202 540.341 291.116C542.234 289.031 545.232 289.01 547.154 291.068ZM539.543 139.722C541.3 137.786 544.026 137.767 545.811 139.678C547.596 141.589 547.616 144.549 545.859 146.485C544.101 148.422 541.376 148.441 539.591 146.53C537.806 144.618 537.785 141.659 539.543 139.722ZM539.376 116.192C537.729 114.428 537.708 111.468 539.329 109.533C540.952 107.745 543.677 107.726 545.461 109.489C547.108 111.254 547.129 114.213 545.508 116.149C543.885 117.936 541.16 117.955 539.376 116.192ZM546.228 237.204C544.605 238.992 542.016 239.01 540.505 237.245C538.857 235.48 538.837 232.669 540.461 231.029C542.084 229.242 544.673 229.224 546.184 230.989C547.831 232.605 547.851 235.417 546.228 237.204ZM546.399 261.326C547.909 262.944 547.929 265.755 546.442 267.394C544.954 269.032 542.365 269.051 540.855 267.433C539.345 265.816 539.325 263.004 540.812 261.366C542.298 259.579 544.751 259.562 546.399 261.326ZM546.013 206.867C544.391 208.654 541.802 208.672 540.154 206.908C538.507 205.144 538.487 202.332 540.109 200.545C541.732 198.757 544.321 198.739 545.968 200.503C547.616 202.267 547.636 205.079 546.013 206.867ZM545.936 176.676C544.314 178.463 541.588 178.483 539.941 176.718C538.293 174.954 538.272 171.994 539.895 170.207C541.517 168.42 544.242 168.4 545.89 170.165C547.538 171.929 547.559 174.889 545.936 176.676ZM545.652 78.7048C547.574 80.7631 547.598 84.1669 545.705 86.2522C543.812 88.3375 540.678 88.3597 538.756 86.3014C536.834 84.243 536.81 80.8392 538.702 78.7539C540.595 76.6686 543.729 76.6464 545.652 78.7048ZM562.334 549.214C563.982 550.978 564.001 553.642 562.378 555.429C560.756 557.217 558.303 557.234 556.656 555.47C555.008 553.705 554.989 551.042 556.612 549.254C558.235 547.615 560.824 547.596 562.334 549.214ZM562.527 518.577C564.312 520.489 564.334 523.596 562.576 525.533C560.818 527.469 557.957 527.489 556.172 525.578C554.387 523.667 554.365 520.559 556.122 518.623C557.88 516.686 560.742 516.666 562.527 518.577ZM556.227 494.942C554.58 493.178 554.56 490.366 556.182 488.579C557.805 486.791 560.394 486.773 562.042 488.537C563.689 490.302 563.709 493.114 562.087 494.901C560.463 496.54 557.874 496.559 556.227 494.942ZM562.233 457.753C564.155 459.811 564.178 463.067 562.284 465.004C560.391 467.09 557.393 467.111 555.607 465.052C553.685 462.993 553.662 459.738 555.556 457.8C557.312 455.716 560.31 455.695 562.233 457.753ZM576.668 533.573C578.453 535.484 578.476 538.74 576.718 540.676C574.961 542.613 571.963 542.634 570.178 540.722C568.393 538.811 568.37 535.555 570.128 533.619C571.884 531.535 574.882 531.513 576.668 533.573ZM569.913 503.281C571.671 501.345 574.532 501.325 576.454 503.235C578.239 505.146 578.26 508.254 576.504 510.339C574.746 512.275 571.885 512.295 569.963 510.385C568.177 508.326 568.155 505.218 569.913 503.281ZM570.153 479.452C568.643 477.835 568.623 475.023 570.11 473.385C571.598 471.746 574.187 471.728 575.697 473.345C577.207 474.963 577.227 477.774 575.74 479.413C574.254 481.199 571.801 481.217 570.153 479.452ZM576.158 442.263C578.081 444.321 578.105 447.725 576.212 449.81C574.319 451.896 571.185 451.918 569.263 449.859C567.34 447.801 567.316 444.397 569.209 442.312C571.102 440.227 574.236 440.205 576.158 442.263ZM567.34 139.526C569.097 137.589 571.959 137.569 573.744 139.48C575.529 141.392 575.551 144.499 573.793 146.436C572.035 148.372 569.174 148.392 567.389 146.481C565.604 144.57 565.718 141.461 567.34 139.526ZM567.58 115.697C565.932 113.932 565.912 111.121 567.536 109.481C569.158 107.694 571.747 107.675 573.259 109.441C574.906 111.205 574.926 114.017 573.303 115.656C571.68 117.444 569.091 117.462 567.58 115.697ZM567.416 169.568C569.309 167.483 572.307 167.462 574.229 169.52C576.151 171.578 576.174 174.834 574.281 176.919C572.388 179.005 569.391 179.026 567.468 176.968C565.546 174.909 565.523 171.654 567.416 169.568ZM575.02 358.357C573.397 360.145 570.808 360.163 569.161 358.399C567.513 356.634 567.493 353.823 569.116 352.035C570.738 350.248 573.327 350.229 574.975 351.994C576.622 353.758 576.642 356.57 575.02 358.357ZM575.189 382.331C576.837 384.096 576.857 386.907 575.234 388.695C573.612 390.482 571.023 390.501 569.375 388.736C567.728 386.972 567.708 384.16 569.33 382.373C570.953 380.585 573.542 380.567 575.189 382.331ZM569.544 412.562C571.166 410.775 573.892 410.756 575.539 412.52C577.187 414.284 577.208 417.244 575.585 419.032C573.963 420.819 571.237 420.838 569.59 419.074C567.942 417.31 567.921 414.35 569.544 412.562ZM574.942 328.167C573.185 330.103 570.459 330.122 568.811 328.21C567.026 326.299 567.005 323.339 568.764 321.551C570.521 319.614 573.247 319.595 574.895 321.507C576.679 323.27 576.701 326.378 574.942 328.167ZM568.394 230.832C570.017 229.044 572.606 229.026 574.117 230.791C575.765 232.555 575.785 235.367 574.161 237.007C572.539 238.794 569.95 238.812 568.438 237.047C566.791 235.283 566.771 232.471 568.394 230.832ZM568.224 206.71C566.576 204.945 566.556 202.133 568.18 200.494C569.802 198.707 572.391 198.688 573.903 200.454C575.55 202.218 575.57 205.03 573.947 206.669C572.324 208.456 569.735 208.475 568.224 206.71ZM568.472 261.022C570.094 259.235 572.683 259.217 574.331 260.981C575.979 262.745 575.998 265.557 574.376 267.344C572.753 269.132 570.164 269.15 568.517 267.386C566.869 265.621 566.849 262.81 568.472 261.022ZM568.549 291.213C570.307 289.277 573.032 289.257 574.681 291.17C576.466 293.081 576.487 296.041 574.728 297.829C572.97 299.765 570.245 299.785 568.596 297.872C566.948 296.108 566.926 293 568.549 291.213ZM573.585 78.5072C575.507 80.5655 575.531 83.9693 573.638 86.0546C571.745 88.1399 568.611 88.1621 566.689 86.1038C564.767 84.0454 564.743 80.6416 566.636 78.5563C568.529 76.471 571.663 76.4488 573.585 78.5072ZM590.324 518.381C592.109 520.292 592.13 523.252 590.372 525.188C588.614 527.124 585.889 527.144 584.104 525.232C582.319 523.321 582.298 520.361 584.056 518.425C585.814 516.637 588.54 516.617 590.324 518.381ZM584.16 494.597C582.512 492.833 582.493 490.169 584.116 488.381C585.738 486.594 588.191 486.577 589.839 488.341C591.486 490.105 591.505 492.769 589.883 494.556C588.396 496.343 585.807 496.361 584.16 494.597ZM590.03 457.556C591.815 459.468 591.838 462.723 590.08 464.66C588.322 466.596 585.324 466.617 583.539 464.706C581.754 462.795 581.731 459.539 583.489 457.603C585.247 455.666 588.245 455.645 590.03 457.556ZM582.048 215.343C583.67 213.556 586.532 213.536 588.179 215.3C589.827 217.064 589.849 220.172 588.227 221.96C586.604 223.747 583.743 223.767 582.095 222.003C580.31 220.092 580.289 217.132 582.048 215.343ZM581.88 191.665C580.233 189.901 580.212 186.941 581.834 185.154C583.457 183.366 586.182 183.347 587.83 185.111C589.477 186.876 589.498 189.835 587.876 191.623C586.253 193.41 583.528 193.43 581.88 191.665ZM588.394 245.638C590.042 247.402 590.064 250.51 588.441 252.297C586.819 254.085 583.957 254.105 582.309 252.341C580.662 250.576 580.64 247.469 582.262 245.681C583.884 243.746 586.609 243.726 588.394 245.638ZM582.34 275.872C584.097 273.935 586.959 273.915 588.608 275.827C590.393 277.739 590.415 280.846 588.656 282.635C586.898 284.571 584.037 284.591 582.388 282.679C580.603 280.768 580.582 277.808 582.34 275.872ZM588.947 343.015C587.324 344.803 584.735 344.821 583.088 343.057C581.44 341.292 581.42 338.481 583.043 336.693C584.665 334.906 587.254 334.887 588.902 336.652C590.413 338.417 590.433 341.229 588.947 343.015ZM588.981 367.138C590.491 368.755 590.511 371.567 589.024 373.206C587.537 374.844 584.948 374.863 583.437 373.245C581.927 371.628 581.907 368.816 583.394 367.178C584.882 365.539 587.334 365.522 588.981 367.138ZM588.732 312.677C587.11 314.465 584.521 314.483 582.873 312.719C581.225 310.955 581.205 308.143 582.828 306.355C584.45 304.568 587.039 304.55 588.687 306.314C590.335 308.078 590.356 311.038 588.732 312.677ZM583.197 397.074C584.955 395.138 587.816 395.118 589.601 397.029C591.386 398.94 591.408 402.048 589.651 403.984C587.893 405.921 585.031 405.941 583.246 404.03C581.461 402.118 581.439 399.011 583.197 397.074ZM589.68 427.368C591.465 429.279 591.486 432.239 589.728 434.175C587.97 436.111 585.245 436.131 583.46 434.219C581.675 432.308 581.654 429.348 583.412 427.412C585.17 425.476 588.032 425.603 589.68 427.368ZM587.884 154.328C589.669 156.239 589.692 159.495 587.935 161.431C586.177 163.368 583.179 163.389 581.394 161.478C579.609 159.566 579.586 156.311 581.344 154.374C583.102 152.438 586.099 152.417 587.884 154.328ZM587.806 123.989C589.728 126.048 589.751 129.303 587.857 131.241C585.964 133.326 582.967 133.347 581.181 131.288C579.258 129.23 579.235 125.974 581.129 124.037C582.887 122.1 585.885 122.079 587.806 123.989ZM581.372 100.503C579.724 98.7392 579.705 96.0754 581.328 94.288C582.95 92.5005 585.403 92.4832 587.051 94.2475C588.698 96.0118 588.717 98.6755 587.095 100.463C585.607 102.101 583.018 102.12 581.372 100.503ZM587.377 63.314C589.299 65.3723 589.322 68.6281 587.429 70.7135C585.536 72.7988 582.538 72.82 580.616 70.7617C578.694 68.7033 578.671 65.4475 580.564 63.3622C582.457 61.2768 585.454 61.2556 587.377 63.314ZM604.386 502.889C606.308 504.948 606.331 508.204 604.438 510.289C602.545 512.374 599.547 512.395 597.625 510.337C595.703 508.279 595.68 505.023 597.573 502.938C599.602 500.851 602.6 500.83 604.386 502.889ZM604.307 472.551C606.23 474.609 606.253 477.865 604.36 479.95C602.467 482.036 599.469 482.057 597.547 479.999C595.624 477.94 595.601 474.684 597.494 472.599C599.251 470.515 602.385 470.493 604.307 472.551ZM597.603 449.363C595.818 447.452 595.797 444.492 597.554 442.555C599.312 440.619 602.037 440.6 603.822 442.511C605.607 444.422 605.628 447.382 603.87 449.319C602.113 451.255 599.251 451.275 597.603 449.363ZM603.878 411.876C605.8 413.934 605.823 417.19 603.93 419.275C602.037 421.36 599.04 421.382 597.117 419.323C595.195 417.265 595.172 414.009 597.065 411.924C598.822 409.839 601.956 409.817 603.878 411.876ZM602.935 297.777C601.177 299.714 598.179 299.735 596.394 297.824C594.609 295.912 594.586 292.657 596.344 290.72C598.102 288.784 601.099 288.763 602.884 290.674C604.67 292.733 604.692 295.841 602.935 297.777ZM602.693 321.458C604.341 323.223 604.362 326.183 602.739 327.97C601.117 329.757 598.392 329.777 596.744 328.012C595.096 326.248 595.075 323.288 596.698 321.501C598.456 319.565 601.045 319.546 602.693 321.458ZM602.232 236.956C600.609 238.744 597.884 238.763 596.236 236.999C594.589 235.234 594.568 232.274 596.19 230.487C597.813 228.7 600.538 228.68 602.186 230.445C603.834 232.209 603.854 235.169 602.232 236.956ZM602.265 260.931C603.913 262.695 603.932 265.359 602.309 267.147C600.687 268.934 598.234 268.951 596.586 267.187C594.939 265.423 594.92 262.759 596.542 260.972C598.029 259.185 600.618 259.167 602.265 260.931ZM602.017 206.618C600.395 208.406 597.669 208.425 596.022 206.661C594.374 204.897 594.353 201.937 595.976 200.149C597.598 198.362 600.324 198.343 601.971 200.107C603.619 201.871 603.64 204.831 602.017 206.618ZM602.077 176.575C600.319 178.511 597.322 178.532 595.4 176.622C593.615 174.711 593.592 171.455 595.349 169.371C597.106 167.286 600.105 167.413 602.026 169.323C603.812 171.383 603.835 174.638 602.077 176.575ZM596.637 351.396C598.53 349.311 601.528 349.29 603.314 351.349C605.236 353.408 605.259 356.663 603.365 358.601C601.472 360.686 598.474 360.707 596.688 358.648C594.766 356.59 594.743 353.334 596.637 351.396ZM603.258 381.985C604.906 383.749 604.927 386.709 603.304 388.496C601.681 390.284 598.956 390.303 597.308 388.539C595.661 386.774 595.64 383.815 597.262 382.027C598.885 380.24 601.474 380.221 603.258 381.985ZM601.948 138.985C603.87 141.043 603.894 144.447 602.001 146.532C600.108 148.618 596.974 148.64 595.052 146.581C593.129 144.523 593.105 141.119 594.998 139.034C596.891 136.949 600.025 136.926 601.948 138.985ZM618.314 487.695C620.236 489.754 620.259 493.009 618.365 494.947C616.472 497.032 613.474 497.053 611.688 494.994C609.766 492.936 609.743 489.68 611.637 487.743C613.394 485.658 616.391 485.637 618.314 487.695ZM617.173 403.494C615.55 405.281 613.098 405.299 611.45 403.534C609.802 401.77 609.784 399.106 611.406 397.319C613.029 395.531 615.481 395.514 617.129 397.278C618.776 398.895 618.796 401.706 617.173 403.494ZM617.344 427.616C618.854 429.233 618.874 432.045 617.387 433.683C615.899 435.322 613.31 435.34 611.8 433.723C610.289 432.106 610.27 429.294 611.757 427.655C613.243 425.869 615.696 425.852 617.344 427.616ZM611.834 457.846C613.457 456.059 616.046 456.04 617.557 457.806C619.205 459.57 619.225 462.382 617.601 464.021C615.978 465.661 613.39 465.827 611.878 464.062C610.232 462.445 610.212 459.633 611.834 457.846ZM617.369 373.449C615.612 375.386 612.75 375.406 610.965 373.495C609.18 371.583 609.158 368.475 610.915 366.391C612.673 364.455 615.534 364.434 617.319 366.346C619.105 368.405 619.127 371.513 617.369 373.449ZM610.75 343.157C608.965 341.246 608.944 338.286 610.702 336.349C612.46 334.413 615.185 334.394 616.97 336.305C618.755 338.216 618.776 341.176 617.018 343.113C615.261 345.049 612.535 345.068 610.75 343.157ZM617.077 312.921C615.184 315.006 612.323 315.027 610.401 312.968C608.478 310.91 608.455 307.654 610.349 305.717C612.242 303.631 615.104 303.611 617.026 305.67C618.812 307.729 618.835 310.985 617.077 312.921ZM616.864 282.731C614.971 284.817 611.973 284.838 610.187 282.779C608.265 280.72 608.242 277.464 610.136 275.527C612.029 273.442 615.026 273.421 616.812 275.48C618.597 277.391 618.62 280.647 616.864 282.731ZM616.733 244.993C618.655 247.052 618.679 250.455 616.786 252.541C614.893 254.626 611.759 254.648 609.837 252.59C607.915 250.531 607.891 247.128 609.784 245.042C611.677 242.957 614.674 242.936 616.733 244.993ZM632.241 472.353C634.163 474.412 634.186 477.667 632.293 479.753C630.4 481.838 627.402 481.859 625.48 479.801C623.558 477.743 623.535 474.487 625.428 472.401C627.184 470.317 630.318 470.295 632.241 472.353ZM625.059 381.831C626.682 380.043 629.407 380.024 631.055 381.788C632.703 383.552 632.723 386.512 631.101 388.3C629.478 390.087 626.753 390.106 625.106 388.342C623.458 386.578 623.437 383.618 625.059 381.831ZM624.891 358.004C623.243 356.24 623.222 353.28 624.845 351.493C626.467 349.706 629.193 349.686 630.84 351.451C632.488 353.215 632.509 356.175 630.886 357.962C629.265 359.897 626.676 359.916 624.891 358.004ZM625.273 412.02C627.031 410.084 629.756 410.065 631.541 411.976C633.326 413.887 633.347 416.847 631.589 418.783C629.831 420.72 627.106 420.739 625.321 418.828C623.536 416.916 623.515 413.957 625.273 412.02ZM631.485 442.611C633.133 444.376 633.152 447.04 631.529 448.827C629.907 450.614 627.454 450.632 625.806 448.867C624.159 447.103 624.14 444.439 625.762 442.652C627.385 440.864 629.837 440.847 631.485 442.611ZM631.168 320.665C633.09 322.723 633.114 326.127 631.221 328.212C629.328 330.298 626.194 330.32 624.272 328.262C622.349 326.203 622.325 322.8 624.218 320.714C626.111 318.629 629.245 318.607 631.168 320.665ZM646.032 457.16C647.955 459.218 647.978 462.474 646.084 464.412C644.191 466.497 641.193 466.518 639.407 464.459C637.485 462.4 637.462 459.145 639.356 457.207C641.112 455.123 644.11 455.102 646.032 457.16ZM639.416 427.164C641.038 425.376 643.763 425.357 645.547 427.12C647.195 428.885 647.216 431.844 645.594 433.78C643.972 435.567 641.247 435.587 639.463 433.823C637.679 432.06 637.657 428.952 639.416 427.164ZM639.382 403.189C637.872 401.571 637.852 398.76 639.338 396.973C640.826 395.335 643.415 395.316 645.061 396.933C646.572 398.55 646.592 401.362 645.105 403.148C643.483 404.936 641.03 404.953 639.382 403.189ZM645.389 366.147C647.311 368.206 647.334 371.461 645.441 373.547C643.548 375.632 640.55 375.653 638.628 373.595C636.706 371.536 636.683 368.281 638.576 366.195C640.469 364.11 643.466 364.089 645.389 366.147ZM644.522 282.24C642.765 284.176 640.039 284.195 638.391 282.283C636.606 280.372 636.585 277.412 638.344 275.624C640.101 273.687 642.827 273.668 644.475 275.58C646.123 277.344 646.144 280.304 644.522 282.24ZM644.418 306.068C646.066 307.832 646.086 310.644 644.463 312.431C642.841 314.219 640.252 314.237 638.604 312.473C636.957 310.708 636.937 307.897 638.559 306.109C640.182 304.322 642.771 304.303 644.418 306.068ZM643.957 221.565C642.334 223.353 639.609 223.372 637.825 221.609C636.178 219.844 636.157 216.885 637.778 214.949C639.401 213.162 642.126 213.143 643.91 214.906C645.694 216.669 645.715 219.629 643.957 221.565ZM644.125 245.391C645.773 247.156 645.793 249.968 644.17 251.755C642.548 253.542 639.959 253.561 638.311 251.796C636.664 250.032 636.644 247.22 638.266 245.433C639.753 243.646 642.478 243.627 644.125 245.391ZM644.016 191.374C642.258 193.31 639.397 193.33 637.475 191.42C635.69 189.509 635.668 186.401 637.425 184.317C639.183 182.38 642.044 182.36 643.966 184.27C645.752 186.33 645.774 189.437 644.016 191.374ZM638.361 335.858C640.254 333.772 643.252 333.751 645.174 335.81C647.096 337.868 647.119 341.124 645.226 343.209C643.333 345.294 640.336 345.316 638.413 343.257C636.491 341.199 636.468 337.943 638.361 335.858ZM643.886 153.784C645.808 155.842 645.833 159.246 643.939 161.183C642.045 163.268 638.912 163.291 637.125 161.231C635.203 159.173 635.179 155.769 637.073 153.832C638.966 151.747 641.964 151.725 643.886 153.784ZM659.688 441.968C661.473 443.879 661.495 446.987 659.737 448.923C657.979 450.86 655.118 450.88 653.333 448.969C651.548 447.057 651.526 443.95 653.284 442.013C655.041 440.077 657.903 440.057 659.688 441.968ZM653.389 418.333C651.741 416.569 651.721 413.757 653.344 411.97C654.966 410.182 657.555 410.164 659.203 411.928C660.85 413.692 660.87 416.504 659.248 418.292C657.625 420.079 655.036 420.097 653.389 418.333ZM659.395 381.292C661.181 383.351 661.203 386.459 659.446 388.543C657.553 390.628 654.692 390.649 652.769 388.59C650.984 386.679 650.961 383.423 652.718 381.339C654.475 379.255 657.473 379.233 659.395 381.292ZM652.825 357.955C651.04 356.043 651.019 353.084 652.777 351.147C654.535 349.211 657.26 349.192 659.045 351.103C660.83 353.014 660.851 355.974 659.093 357.91C657.335 359.847 654.474 359.867 652.825 357.955ZM659.101 320.467C661.023 322.526 661.047 325.93 659.154 328.015C657.261 330.1 654.127 330.122 652.205 328.064C650.283 326.006 650.259 322.602 652.152 320.517C654.045 318.431 657.179 318.409 659.101 320.467ZM673.345 427.072C674.993 428.836 675.013 431.648 673.39 433.435C671.768 435.223 669.179 435.241 667.531 433.477C665.884 431.712 665.864 428.901 667.486 427.113C668.973 425.327 671.698 425.307 673.345 427.072ZM673.536 396.287C675.459 398.346 675.482 401.601 673.588 403.539C671.695 405.624 668.697 405.645 666.911 403.586C664.989 401.528 664.966 398.272 666.86 396.334C668.616 394.25 671.614 394.229 673.536 396.287ZM687.137 411.879C688.785 413.643 688.805 416.455 687.182 418.242C685.56 420.03 682.971 420.048 681.323 418.284C679.675 416.519 679.655 413.707 681.278 411.92C682.901 410.133 685.489 410.114 687.137 411.879ZM686.921 381.393C688.569 383.157 688.59 386.117 686.968 387.904C685.345 389.692 682.62 389.711 680.972 387.947C679.324 386.183 679.303 383.223 680.926 381.435C682.549 379.648 685.274 379.629 686.921 381.393ZM687.249 350.607C689.171 352.666 689.195 356.07 687.301 358.007C685.407 359.944 682.274 360.114 680.488 358.055C678.566 355.997 678.542 352.593 680.436 350.656C682.192 348.571 685.326 348.549 687.249 350.607ZM701.198 396.24C702.983 398.151 703.005 401.259 701.247 403.195C699.49 405.131 696.628 405.152 694.843 403.24C693.058 401.329 693.036 398.221 694.794 396.285C696.552 394.348 699.413 394.328 701.198 396.24ZM701.255 365.752C703.177 367.81 703.2 371.066 701.308 373.151C699.414 375.237 696.417 375.258 694.494 373.2C692.572 371.141 692.549 367.886 694.442 365.8C696.335 363.715 699.333 363.694 701.255 365.752ZM693.859 244.892C695.482 243.104 698.207 243.085 699.991 244.848C701.639 246.613 701.66 249.572 700.038 251.508C698.416 253.295 695.69 253.314 693.906 251.551C692.258 249.639 692.237 246.679 693.859 244.892ZM693.827 221.065C692.179 219.3 692.159 216.488 693.782 214.701C695.404 212.914 697.993 212.895 699.641 214.66C701.289 216.424 701.309 219.236 699.686 221.023C698.063 222.663 695.474 222.681 693.827 221.065ZM694.426 305.714C696.048 303.926 698.637 303.908 700.285 305.672C701.933 307.437 701.953 310.249 700.33 312.036C698.707 313.823 696.119 313.842 694.471 312.077C692.958 310.164 692.938 307.352 694.426 305.714ZM694.391 281.591C692.744 279.827 692.725 277.163 694.348 275.375C695.97 273.588 698.423 273.571 700.07 275.335C701.718 277.099 701.737 279.763 700.114 281.55C698.491 283.19 695.902 283.208 694.391 281.591ZM694.639 335.904C696.262 334.116 698.851 334.098 700.499 335.862C702.146 337.626 702.166 340.438 700.544 342.226C698.921 344.013 696.332 344.031 694.684 342.267C693.038 340.651 693.017 337.691 694.639 335.904ZM699.967 183.726C701.89 185.785 701.914 189.188 700.021 191.274C698.128 193.359 694.994 193.381 693.071 191.323C691.149 189.264 691.125 185.861 693.018 183.775C694.911 181.69 698.045 181.668 699.967 183.726ZM714.855 381.195C716.502 382.96 716.522 385.771 714.9 387.559C713.277 389.346 710.688 389.365 709.041 387.6C707.393 385.836 707.373 383.024 708.996 381.237C710.483 379.598 713.208 379.579 714.855 381.195ZM714.64 350.858C716.288 352.622 716.309 355.582 714.686 357.369C713.064 359.157 710.338 359.176 708.691 357.412C707.043 355.647 707.022 352.688 708.645 350.9C710.267 349.113 712.992 349.093 714.64 350.858ZM714.831 320.073C716.753 322.132 716.778 325.535 714.885 327.621C712.992 329.706 709.858 329.728 708.072 327.669C706.149 325.61 706.125 322.207 708.018 320.121C709.911 318.036 712.909 318.015 714.831 320.073ZM729.053 365.703C730.838 367.615 730.861 370.87 729.103 372.807C727.346 374.743 724.348 374.764 722.563 372.853C720.778 370.942 720.755 367.686 722.513 365.75C724.269 363.665 727.131 363.645 729.053 365.703ZM728.838 335.218C730.622 337.129 730.646 340.385 728.889 342.469C727.131 344.405 724.133 344.427 722.212 342.516C720.427 340.605 720.404 337.349 722.161 335.265C724.055 333.328 727.053 333.306 728.838 335.218ZM722.539 311.731C721.029 310.114 721.009 307.302 722.496 305.663C723.984 304.025 726.573 304.007 728.083 305.624C729.593 307.241 729.613 310.053 728.126 311.691C726.639 313.33 724.05 313.348 722.539 311.731ZM728.545 274.541C730.467 276.6 730.49 279.856 728.597 281.941C726.704 284.026 723.706 284.047 721.784 281.989C719.862 279.931 719.839 276.675 721.732 274.59C723.488 272.505 726.622 272.483 728.545 274.541ZM722.11 251.056C720.6 249.438 720.58 246.627 722.067 244.988C723.554 243.35 726.143 243.331 727.654 244.949C729.164 246.566 729.184 249.378 727.697 251.016C726.209 252.655 723.62 252.673 722.11 251.056ZM728.115 213.866C730.038 215.925 730.062 219.328 728.169 221.414C726.276 223.499 723.142 223.521 721.219 221.463C719.297 219.404 719.273 216.001 721.166 213.915C723.059 211.83 726.193 211.808 728.115 213.866ZM742.438 350.809C744.086 352.573 744.106 355.385 742.483 357.173C740.861 358.96 738.272 358.978 736.624 357.214C734.976 355.45 734.956 352.638 736.579 350.85C738.202 349.063 740.927 349.044 742.438 350.809ZM742.629 320.025C744.414 321.936 744.437 325.192 742.679 327.128C740.922 329.064 737.924 329.086 736.139 327.174C734.354 325.263 734.331 322.007 736.089 320.071C737.847 318.134 740.844 318.113 742.629 320.025ZM756.5 335.318C758.285 337.229 758.306 340.189 756.549 342.125C754.791 344.062 752.066 344.081 750.281 342.17C748.496 340.258 748.475 337.299 750.232 335.362C751.99 333.426 754.852 333.406 756.5 335.318ZM756.692 304.681C758.615 306.74 758.639 310.144 756.746 312.229C754.853 314.314 751.719 314.336 749.797 312.278C747.874 310.22 747.85 306.816 749.743 304.731C751.636 302.645 754.77 302.623 756.692 304.681ZM770.428 320.124C772.076 321.888 772.098 324.996 770.475 326.783C768.853 328.571 765.991 328.591 764.344 326.827C762.696 325.062 762.674 321.955 764.297 320.167C765.918 318.232 768.643 318.213 770.428 320.124ZM770.484 289.488C772.407 291.547 772.43 294.802 770.537 296.888C768.644 298.973 765.646 298.994 763.724 296.936C761.801 294.878 761.778 291.622 763.671 289.536C765.564 287.451 768.562 287.43 770.484 289.488ZM784.626 304.484C786.548 306.542 786.572 309.946 784.679 312.031C782.786 314.117 779.652 314.139 777.73 312.08C775.807 310.022 775.783 306.618 777.676 304.533C779.569 302.448 782.703 302.425 784.626 304.484ZM798.469 296.542C796.576 298.627 793.578 298.649 791.656 296.59C789.734 294.532 789.71 291.276 791.603 289.191C793.496 287.106 796.494 287.084 798.416 289.143C800.339 291.201 800.363 294.605 798.469 296.542Z" fill="#BF1466" fill-opacity="0.5"/>
</svg>
