<svg width="700" height="515" viewBox="0 0 700 515" fill="none" xmlns="http://www.w3.org/2000/svg">
<path d="M680.572 267.549C679.018 269.237 679.018 272.094 680.572 273.782C682.126 275.47 684.757 275.47 686.311 273.782C687.865 272.094 687.865 269.237 686.311 267.549C684.757 265.861 682.246 265.861 680.572 267.549ZM668.736 281.313C667.421 282.741 667.421 285.208 668.736 286.637C670.051 288.065 672.323 288.065 673.638 286.637C674.953 285.208 674.953 282.741 673.638 281.313C672.323 279.755 670.171 279.755 668.736 281.313ZM656.302 294.427C654.868 295.986 654.868 298.582 656.302 300.141C657.737 301.699 660.128 301.699 661.563 300.141C662.997 298.582 662.997 295.986 661.563 294.427C660.128 292.869 657.857 292.869 656.302 294.427ZM656.302 267.679C654.748 269.367 654.748 271.964 656.302 273.652C657.857 275.34 660.248 275.34 661.802 273.652C663.356 271.964 663.356 269.367 661.802 267.679C660.248 265.991 657.737 265.991 656.302 267.679ZM644.227 307.802C642.792 309.36 642.792 311.827 644.227 313.385C645.662 314.943 647.933 314.943 649.368 313.385C650.803 311.827 650.803 309.36 649.368 307.802C647.933 306.243 645.542 306.243 644.227 307.802ZM644.227 260.018C645.662 261.576 647.814 261.576 649.249 260.018C650.683 258.46 650.683 256.123 649.249 254.564C647.814 253.006 645.662 253.006 644.227 254.564C642.912 256.123 642.912 258.59 644.227 260.018ZM644.347 281.313C643.032 282.741 643.032 285.208 644.347 286.637C645.662 288.065 647.933 288.065 649.249 286.637C650.564 285.208 650.564 282.741 649.249 281.313C647.814 279.885 645.662 279.885 644.347 281.313ZM619.599 334.29C618.164 335.848 618.164 338.445 619.599 340.133C621.033 341.692 623.424 341.692 624.979 340.133C626.413 338.575 626.413 335.978 624.979 334.29C623.424 332.602 621.033 332.602 619.599 334.29ZM619.359 307.542C617.805 309.23 617.805 311.957 619.359 313.775C620.914 315.463 623.424 315.463 624.979 313.775C626.533 312.087 626.533 309.36 624.979 307.542C623.544 305.724 621.033 305.724 619.359 307.542ZM624.979 281.053C623.544 279.495 621.153 279.495 619.599 281.053C618.164 282.611 618.164 285.208 619.599 286.896C621.033 288.454 623.424 288.454 624.979 286.896C626.413 285.208 626.413 282.611 624.979 281.053ZM624.74 260.018C626.174 258.59 626.174 256.123 624.74 254.564C623.305 253.006 621.153 253.006 619.718 254.564C618.403 255.993 618.403 258.46 619.718 260.018C621.153 261.576 623.305 261.576 624.74 260.018ZM595.09 360.909C593.655 362.467 593.655 365.064 595.09 366.622C596.524 368.18 598.915 368.18 600.35 366.622C601.785 365.064 601.785 362.467 600.35 360.909C598.915 359.351 596.644 359.351 595.09 360.909ZM594.97 334.16C593.416 335.848 593.416 338.575 594.97 340.263C596.524 341.951 599.035 341.951 600.589 340.263C602.143 338.575 602.143 335.848 600.589 334.16C599.035 332.472 596.524 332.472 594.97 334.16ZM595.09 233.659C596.524 235.217 598.915 235.217 600.35 233.659C601.785 232.101 601.785 229.504 600.35 227.946C598.915 226.388 596.524 226.388 595.09 227.946C593.655 229.504 593.655 231.971 595.09 233.659ZM595.209 254.694C593.775 256.252 593.775 258.59 595.209 260.148C596.644 261.706 598.796 261.706 600.231 260.148C601.665 258.59 601.665 256.252 600.231 254.694C598.915 253.136 596.644 253.136 595.209 254.694ZM600.47 280.923C598.915 279.235 596.405 279.235 594.97 280.923C593.416 282.611 593.416 285.338 594.97 286.896C596.524 288.584 599.035 288.584 600.47 286.896C602.024 285.338 602.024 282.611 600.47 280.923ZM595.09 307.672C593.655 309.23 593.655 311.827 595.09 313.515C596.524 315.073 598.915 315.073 600.47 313.515C601.904 311.957 601.904 309.36 600.47 307.672C598.915 306.114 596.524 306.114 595.09 307.672ZM583.015 374.283C581.58 375.841 581.58 378.308 583.015 379.866C584.449 381.425 586.721 381.425 588.155 379.866C589.59 378.308 589.59 375.841 588.155 374.283C586.601 372.725 584.33 372.725 583.015 374.283ZM588.036 353.248C589.471 351.69 589.471 349.223 588.036 347.794C586.601 346.236 584.33 346.236 583.015 347.794C581.58 349.353 581.58 351.82 583.015 353.248C584.33 354.806 586.601 354.806 588.036 353.248ZM582.656 320.656C581.102 322.344 581.102 325.201 582.656 327.019C584.21 328.837 586.84 328.707 588.514 327.019C590.188 325.331 590.068 322.474 588.514 320.656C586.96 318.839 584.21 318.968 582.656 320.656ZM582.775 220.415C584.33 222.103 586.84 222.103 588.275 220.415C589.829 218.727 589.829 216.13 588.275 214.442C586.721 212.754 584.33 212.754 582.775 214.442C581.221 216.13 581.221 218.857 582.775 220.415ZM583.015 241.45C581.699 242.878 581.699 245.345 583.015 246.774C584.33 248.202 586.601 248.202 587.916 246.774C589.231 245.345 589.231 242.878 587.916 241.45C586.601 239.892 584.449 239.892 583.015 241.45ZM582.656 193.926C584.21 195.614 586.721 195.614 588.275 193.926C589.829 192.238 589.829 189.511 588.275 187.823C586.721 186.135 584.21 186.135 582.656 187.823C581.102 189.511 581.102 192.238 582.656 193.926ZM588.395 267.549C586.84 265.861 584.21 265.861 582.656 267.549C581.102 269.237 581.102 272.094 582.656 273.782C584.21 275.47 586.84 275.47 588.395 273.782C589.949 272.094 589.949 269.237 588.395 267.549ZM582.775 294.298C581.221 295.986 581.221 298.582 582.775 300.27C584.33 301.958 586.721 301.958 588.275 300.27C589.829 298.582 589.829 295.986 588.275 294.298C586.721 292.61 584.33 292.61 582.775 294.298ZM570.7 387.657C569.266 389.215 569.266 391.683 570.7 393.111C572.135 394.669 574.406 394.669 575.722 393.111C577.156 391.553 577.156 389.086 575.722 387.657C574.406 386.099 572.135 386.099 570.7 387.657ZM570.222 360.519C568.548 362.337 568.548 365.324 570.222 367.142C571.896 368.959 574.646 368.959 576.319 367.142C577.993 365.324 577.993 362.337 576.319 360.519C574.646 358.701 571.896 358.701 570.222 360.519ZM570.7 260.148C572.135 261.706 574.406 261.706 575.841 260.148C577.276 258.59 577.276 256.123 575.841 254.564C574.406 253.006 572.135 253.006 570.7 254.564C569.266 256.123 569.266 258.59 570.7 260.148ZM570.7 281.183C569.266 282.741 569.266 285.208 570.7 286.637C572.135 288.195 574.406 288.195 575.722 286.637C577.156 285.078 577.156 282.611 575.722 281.183C574.406 279.755 572.135 279.755 570.7 281.183ZM575.961 307.542C574.406 305.854 572.015 305.854 570.461 307.542C568.907 309.23 568.907 311.827 570.461 313.515C572.015 315.203 574.406 315.203 575.961 313.515C577.515 311.827 577.515 309.23 575.961 307.542ZM570.581 334.29C569.146 335.848 569.146 338.445 570.581 340.133C572.015 341.692 574.406 341.692 575.961 340.133C577.395 338.575 577.395 335.978 575.961 334.29C574.406 332.602 572.015 332.602 570.581 334.29ZM558.027 400.382C556.354 402.2 556.354 405.057 558.027 406.875C559.701 408.692 562.331 408.692 564.005 406.875C565.679 405.057 565.679 402.2 564.005 400.382C562.331 398.564 559.701 398.564 558.027 400.382ZM546.072 414.016C544.637 415.574 544.637 418.301 546.072 419.859C547.506 421.417 550.017 421.417 551.452 419.859C552.886 418.301 552.886 415.574 551.452 414.016C550.017 412.458 547.506 412.458 546.072 414.016ZM545.952 387.268C544.398 388.956 544.398 391.683 545.952 393.371C547.506 395.059 550.017 395.059 551.571 393.371C553.126 391.683 553.126 388.956 551.571 387.268C550.017 385.58 547.506 385.58 545.952 387.268ZM545.833 360.519C544.159 362.337 544.159 365.194 545.833 366.882C547.506 368.7 550.137 368.7 551.691 366.882C553.365 365.064 553.365 362.207 551.691 360.519C550.137 358.831 547.387 358.831 545.833 360.519ZM551.452 340.133C552.886 338.575 552.886 335.848 551.452 334.29C550.017 332.732 547.506 332.732 546.072 334.29C544.637 335.848 544.637 338.575 546.072 340.133C547.506 341.692 550.017 341.692 551.452 340.133ZM545.713 307.282C544.039 309.1 544.039 312.087 545.713 313.904C547.387 315.722 550.137 315.722 551.81 313.904C553.484 312.087 553.484 309.1 551.81 307.282C550.137 305.464 547.387 305.464 545.713 307.282ZM545.713 260.667C547.387 262.485 550.017 262.485 551.691 260.667C553.365 258.849 553.365 255.993 551.691 254.175C550.017 252.357 547.387 252.357 545.713 254.175C544.159 255.863 544.159 258.849 545.713 260.667ZM545.952 280.923C544.398 282.611 544.398 285.338 545.952 287.156C547.506 288.844 550.017 288.844 551.691 287.156C553.245 285.468 553.245 282.741 551.691 280.923C550.017 279.105 547.506 279.105 545.952 280.923ZM533.638 427.131C532.084 428.819 532.084 431.675 533.638 433.493C535.192 435.181 537.822 435.181 539.496 433.493C541.05 431.805 541.05 428.949 539.496 427.131C537.822 425.313 535.192 425.313 533.638 427.131ZM539.018 406.355C540.333 404.927 540.333 402.46 539.018 401.031C537.703 399.603 535.431 399.603 534.116 401.031C532.801 402.46 532.801 404.927 534.116 406.355C535.431 407.784 537.583 407.784 539.018 406.355ZM533.518 373.764C531.845 375.582 531.845 378.568 533.518 380.386C535.192 382.204 537.942 382.204 539.616 380.386C541.289 378.568 541.289 375.582 539.616 373.764C537.822 371.946 535.192 371.946 533.518 373.764ZM533.518 327.019C535.192 328.837 537.822 328.837 539.377 327.019C541.05 325.201 541.05 322.344 539.377 320.656C537.703 318.839 535.073 318.839 533.518 320.656C531.964 322.474 531.964 325.331 533.518 327.019ZM533.877 347.665C532.442 349.223 532.442 351.82 533.877 353.378C535.312 354.936 537.703 354.936 539.137 353.378C540.572 351.82 540.572 349.223 539.137 347.665C537.703 346.106 535.312 346.106 533.877 347.665ZM521.802 440.894C520.487 442.323 520.487 444.79 521.802 446.348C523.117 447.776 525.389 447.776 526.823 446.348C528.138 444.92 528.138 442.453 526.823 440.894C525.389 439.336 523.117 439.336 521.802 440.894ZM521.682 414.276C520.248 415.834 520.248 418.301 521.682 419.729C523.117 421.288 525.389 421.288 526.704 419.729C528.138 418.171 528.138 415.704 526.704 414.276C525.389 412.718 523.117 412.718 521.682 414.276ZM496.934 467.123C495.38 468.811 495.38 471.538 496.934 473.226C498.488 474.914 500.999 474.914 502.553 473.226C504.108 471.538 504.108 468.811 502.553 467.123C500.999 465.435 498.488 465.435 496.934 467.123ZM484.74 480.498C483.185 482.186 483.185 484.783 484.74 486.471C486.294 488.159 488.804 488.159 490.239 486.471C491.793 484.783 491.793 482.186 490.239 480.498C488.804 478.81 486.294 478.81 484.74 480.498ZM484.859 433.104C486.294 434.662 488.685 434.662 490.12 433.104C491.554 431.545 491.554 428.949 490.12 427.39C488.685 425.832 486.294 425.832 484.859 427.39C483.424 428.949 483.424 431.545 484.859 433.104ZM484.979 454.139C483.544 455.697 483.544 458.164 484.979 459.722C486.413 461.28 488.685 461.28 490.12 459.722C491.554 458.164 491.554 455.697 490.12 454.139C488.685 452.581 486.413 452.581 484.979 454.139ZM484.979 379.866C486.413 381.425 488.685 381.425 490 379.866C491.435 378.308 491.435 375.841 490 374.413C488.565 372.855 486.294 372.855 484.979 374.413C483.544 375.841 483.544 378.308 484.979 379.866ZM484.979 400.902C483.544 402.46 483.544 404.797 484.979 406.355C486.413 407.913 488.565 407.913 490 406.355C491.435 404.797 491.435 402.46 490 400.902C488.685 399.473 486.413 399.473 484.979 400.902ZM484.979 353.248C486.413 354.806 488.685 354.806 490.12 353.248C491.554 351.69 491.554 349.223 490.12 347.665C488.685 346.106 486.413 346.106 484.979 347.665C483.544 349.223 483.544 351.69 484.979 353.248ZM490 321.176C488.565 319.618 486.413 319.618 484.979 321.176C483.544 322.734 483.544 325.071 484.979 326.629C486.413 328.188 488.565 328.188 490 326.629C491.435 325.071 491.435 322.604 490 321.176ZM490 300.011C491.315 298.582 491.315 296.115 490 294.557C488.685 293.129 486.413 293.129 484.979 294.557C483.664 295.986 483.664 298.453 484.979 300.011C486.413 301.439 488.685 301.439 490 300.011ZM484.979 273.522C486.413 275.08 488.685 275.08 490.12 273.522C491.554 271.964 491.554 269.497 490.12 267.939C488.685 266.38 486.413 266.38 484.979 267.939C483.544 269.367 483.544 271.964 484.979 273.522ZM484.859 246.904C486.294 248.462 488.685 248.462 490.12 246.904C491.554 245.345 491.554 242.748 490.12 241.19C488.685 239.632 486.294 239.632 484.859 241.19C483.424 242.748 483.424 245.345 484.859 246.904ZM484.979 193.666C486.413 195.225 488.685 195.225 490.12 193.666C491.554 192.108 491.554 189.641 490.12 188.083C488.685 186.525 486.413 186.525 484.979 188.083C483.544 189.641 483.544 192.108 484.979 193.666ZM484.979 214.702C483.544 216.26 483.544 218.727 484.979 220.285C486.413 221.843 488.685 221.843 490.12 220.285C491.554 218.727 491.554 216.26 490.12 214.702C488.685 213.143 486.413 213.143 484.979 214.702ZM484.859 167.178C486.294 168.736 488.685 168.736 490.12 167.178C491.554 165.619 491.554 163.023 490.12 161.464C488.685 159.906 486.294 159.906 484.859 161.464C483.424 163.023 483.424 165.49 484.859 167.178ZM484.74 140.559C486.294 142.247 488.685 142.247 490.239 140.559C491.793 138.871 491.793 136.274 490.239 134.586C488.685 132.898 486.294 132.898 484.74 134.586C483.305 136.274 483.305 139.001 484.74 140.559ZM472.664 494.002C471.23 495.56 471.23 498.027 472.664 499.585C474.099 501.143 476.371 501.143 477.805 499.585C479.24 498.027 479.24 495.56 477.805 494.002C476.49 492.444 474.099 492.444 472.664 494.002ZM472.186 466.864C470.512 468.682 470.512 471.668 472.186 473.486C473.86 475.304 476.61 475.304 478.284 473.486C479.957 471.668 479.957 468.682 478.284 466.864C476.61 465.046 473.979 465.046 472.186 466.864ZM460.231 506.986C458.676 508.674 458.676 511.401 460.231 513.089C461.785 514.777 464.295 514.777 465.85 513.089C467.404 511.401 467.404 508.674 465.85 506.986C464.295 505.298 461.785 505.298 460.231 506.986ZM465.73 480.628C464.295 479.069 461.904 479.069 460.35 480.628C458.915 482.186 458.915 484.783 460.35 486.471C461.785 488.029 464.176 488.029 465.73 486.471C467.165 484.783 467.165 482.186 465.73 480.628ZM465.491 459.592C466.926 458.034 466.926 455.697 465.491 454.139C464.056 452.71 461.904 452.71 460.47 454.139C459.155 455.697 459.155 458.034 460.47 459.592C461.904 461.021 464.176 461.021 465.491 459.592ZM448.275 494.132C446.96 495.56 446.96 498.027 448.275 499.585C449.71 501.013 451.862 501.013 453.296 499.585C454.611 498.027 454.611 495.69 453.296 494.132C451.862 492.573 449.71 492.573 448.275 494.132ZM447.916 466.994C446.362 468.682 446.362 471.538 447.916 473.226C449.471 474.914 452.101 474.914 453.655 473.226C455.209 471.538 455.209 468.682 453.655 466.994C452.101 465.306 449.471 465.306 447.916 466.994ZM453.416 414.146C451.981 412.588 449.71 412.588 448.275 414.146C446.84 415.704 446.84 418.171 448.275 419.729C449.71 421.288 451.981 421.288 453.416 419.729C454.851 418.171 454.851 415.704 453.416 414.146ZM453.296 393.111C454.731 391.553 454.731 389.086 453.296 387.527C451.862 385.969 449.59 385.969 448.155 387.527C446.721 389.086 446.721 391.553 448.155 393.111C449.59 394.669 451.981 394.669 453.296 393.111ZM453.655 440.505C452.101 438.817 449.59 438.817 448.036 440.505C446.482 442.193 446.482 444.92 448.036 446.608C449.59 448.296 452.101 448.296 453.655 446.608C455.209 444.92 455.209 442.193 453.655 440.505ZM447.916 366.882C449.471 368.57 451.981 368.57 453.535 366.882C455.09 365.194 455.09 362.467 453.535 360.779C451.981 359.091 449.471 359.091 447.916 360.779C446.362 362.337 446.362 365.194 447.916 366.882ZM435.602 480.238C433.928 482.056 433.928 484.912 435.602 486.73C437.276 488.548 439.906 488.548 441.58 486.73C443.254 484.912 443.254 482.056 441.58 480.238C439.906 478.42 437.156 478.42 435.602 480.238ZM441.46 373.894C439.906 372.206 437.276 372.206 435.602 373.894C434.048 375.582 434.048 378.438 435.602 380.256C437.156 381.944 439.787 381.944 441.46 380.256C443.134 378.568 443.015 375.711 441.46 373.894ZM441.102 353.248C442.536 351.69 442.536 349.223 441.102 347.665C439.667 346.106 437.395 346.106 435.961 347.665C434.526 349.223 434.526 351.69 435.961 353.248C437.395 354.806 439.667 354.806 441.102 353.248ZM441.46 400.512C439.906 398.824 437.276 398.824 435.602 400.512C434.048 402.2 434.048 405.057 435.602 406.875C437.156 408.563 439.787 408.563 441.46 406.875C443.015 405.057 443.015 402.2 441.46 400.512ZM441.341 453.749C439.786 452.061 437.156 452.061 435.602 453.749C434.048 455.437 434.048 458.294 435.602 459.982C437.156 461.67 439.786 461.67 441.341 459.982C443.015 458.294 443.015 455.437 441.341 453.749ZM441.102 433.104C442.536 431.545 442.536 429.078 441.102 427.52C439.667 425.962 437.395 425.962 435.961 427.52C434.526 429.078 434.526 431.545 435.961 433.104C437.395 434.662 439.667 434.662 441.102 433.104ZM435.483 320.656C433.809 322.474 433.809 325.331 435.483 327.149C437.156 328.967 439.787 328.967 441.46 327.149C443.134 325.331 443.134 322.474 441.46 320.656C439.906 318.839 437.156 318.839 435.483 320.656ZM441.46 300.4C443.015 298.712 443.015 295.856 441.46 294.038C439.906 292.35 437.276 292.35 435.602 294.038C434.048 295.726 434.048 298.582 435.602 300.4C437.276 302.218 439.787 302.218 441.46 300.4ZM424.125 467.773C422.929 469.071 422.929 471.279 424.125 472.577C425.32 473.875 427.353 473.875 428.548 472.577C429.744 471.279 429.744 469.071 428.548 467.773C427.233 466.474 425.32 466.474 424.125 467.773ZM423.407 440.505C421.853 442.193 421.853 445.05 423.407 446.738C424.962 448.426 427.592 448.426 429.146 446.738C430.7 445.05 430.7 442.193 429.146 440.505C427.592 438.687 424.962 438.687 423.407 440.505ZM428.787 419.729C430.222 418.171 430.222 415.704 428.787 414.276C427.353 412.718 425.081 412.718 423.766 414.276C422.331 415.834 422.331 418.301 423.766 419.729C425.201 421.288 427.472 421.288 428.787 419.729ZM414.441 433.104C415.875 434.662 418.266 434.662 419.701 433.104C421.136 431.545 421.136 428.949 419.701 427.39C418.266 425.832 415.875 425.832 414.441 427.39C413.006 428.949 413.006 431.545 414.441 433.104ZM359.804 374.932C364.466 381.684 369.129 388.307 373.792 395.059C368.173 396.357 361.358 397.915 353.467 399.863C354.065 397.396 354.663 395.059 355.26 392.591C355.5 392.981 355.619 393.241 355.858 393.5C357.412 395.188 360.043 395.188 361.597 393.5C363.151 391.812 363.151 388.956 361.597 387.268C360.282 385.839 358.249 385.58 356.695 386.619C357.771 382.463 358.847 378.568 359.804 374.932ZM374.389 395.318C376.661 394.799 378.693 394.279 380.606 393.89C381.563 396.487 382.4 398.824 383.237 401.161C383.117 400.902 382.997 400.772 382.758 400.642C381.324 399.084 379.291 398.954 377.617 400.123C376.661 398.435 375.585 396.876 374.389 395.318ZM318.079 339.095C316.644 340.653 316.644 343.12 318.079 344.678C319.513 346.236 321.785 346.236 323.219 344.678C323.459 344.418 323.578 344.159 323.817 343.899C326.926 345.587 330.034 347.275 333.143 348.963C332.545 350.391 332.784 351.949 333.86 353.118C335.175 354.546 337.447 354.546 338.762 353.118C339.957 351.82 340.077 350.002 339.24 348.573C349.283 341.172 359.445 333.771 369.488 326.37C369.607 326.5 369.727 326.629 369.846 326.759C370.324 327.279 370.803 327.538 371.281 327.798C369.607 334.16 365.662 349.482 359.445 373.894C357.771 371.426 355.978 368.959 354.304 366.492C354.424 366.492 354.424 366.362 354.543 366.362C355.858 364.934 355.858 362.597 354.543 361.298C353.228 359.87 351.076 359.87 349.88 361.298C348.685 362.597 348.565 364.545 349.522 365.973C347.37 367.791 344.022 370.647 339.479 374.543L339.359 374.413C337.925 372.855 335.653 372.855 334.219 374.413C332.784 375.971 332.784 378.438 334.219 379.996C335.653 381.555 337.925 381.555 339.359 379.996C340.675 378.568 340.794 376.49 339.718 374.932C344.381 370.907 347.728 368.05 349.761 366.362L349.88 366.492C351.076 367.791 352.75 367.921 354.065 367.012C355.858 369.609 357.652 372.076 359.445 374.673C358.488 378.568 357.412 382.723 356.217 387.138C356.097 387.268 355.978 387.268 355.858 387.398C354.663 388.696 354.424 390.514 354.902 392.072C354.184 394.669 353.587 397.266 352.869 399.993C349.163 400.902 345.218 401.811 341.033 402.72C340.914 402.07 340.555 401.551 340.196 401.031C338.762 399.473 336.61 399.473 335.175 401.031C333.74 402.59 333.74 404.927 335.175 406.485C336.61 408.043 338.762 408.043 340.196 406.485C341.033 405.576 341.392 404.408 341.153 403.239C345.218 402.33 349.163 401.421 352.75 400.512C351.674 404.537 350.598 408.692 349.522 412.977C348.326 412.718 346.892 413.107 345.935 414.146C344.381 415.834 344.381 418.431 345.935 420.119C347.489 421.807 349.88 421.807 351.435 420.119C352.989 418.431 352.989 415.834 351.435 414.146C350.956 413.627 350.478 413.367 349.88 413.107C350.956 408.692 352.152 404.408 353.108 400.382C361.238 398.435 368.053 396.876 373.792 395.578C374.987 397.266 376.063 398.824 377.259 400.512C377.139 400.642 377.02 400.642 377.02 400.772C375.465 402.46 375.465 405.187 377.02 407.004C377.378 407.394 377.857 407.654 378.335 407.913C377.139 411.549 374.987 417.782 372.118 426.352C370.803 425.962 369.249 426.222 368.172 427.39C366.618 429.078 366.618 431.805 368.172 433.493C369.727 435.181 372.237 435.181 373.792 433.493C375.346 431.805 375.346 429.078 373.792 427.39C373.433 427.001 372.955 426.741 372.596 426.481C375.465 417.782 377.617 411.679 378.813 408.043C380.128 408.433 381.682 408.173 382.878 407.004C383.834 405.966 384.193 404.667 383.954 403.369C390.529 421.807 394.833 434.142 396.985 440.245C396.627 440.375 396.268 440.635 395.909 441.024C394.475 442.582 394.475 445.049 395.909 446.478C397.344 448.036 399.616 448.036 400.931 446.478C402.365 444.92 402.365 442.453 400.931 441.024C400.333 440.375 399.496 439.985 398.779 439.985C399.018 433.753 399.257 427.65 399.496 421.417C400.453 421.417 401.409 421.028 402.126 420.249C403.441 418.82 403.561 416.743 402.605 415.055C404.757 413.367 406.909 411.679 409.061 410.121C409.658 421.547 410.495 435.83 411.452 453.23C410.615 453.36 409.898 453.749 409.18 454.398C407.746 455.957 407.746 458.554 409.18 460.242C410.615 461.8 413.006 461.8 414.56 460.242C415.995 458.683 415.995 456.086 414.56 454.398C413.843 453.619 412.886 453.23 411.81 453.23C410.854 435.83 410.017 421.288 409.419 409.861C410.854 408.692 412.289 407.654 413.723 406.485C413.843 406.615 413.843 406.745 413.962 406.745C415.278 408.173 417.549 408.173 418.864 406.745C420.179 405.316 420.179 402.849 418.864 401.421L418.745 401.291C419.94 399.603 421.614 397.266 423.886 394.279C425.44 395.448 427.472 395.318 428.787 393.76C430.342 392.072 430.342 389.475 428.787 387.917C427.233 386.229 424.842 386.229 423.407 387.917C421.853 389.605 421.853 392.202 423.407 393.76C423.407 393.76 423.527 393.89 423.646 393.89C421.375 397.006 419.701 399.344 418.506 400.902C417.19 399.863 415.278 399.993 414.082 401.291C412.886 402.59 412.767 404.537 413.604 405.966C412.169 407.004 410.854 408.043 409.419 409.212C408.582 395.318 408.104 385.969 407.865 381.165C408.582 381.035 409.419 380.775 409.897 380.126C411.093 378.828 411.213 377.01 410.495 375.452C413.006 373.764 417.071 370.777 422.69 366.752C422.81 366.882 422.929 367.141 423.168 367.271C424.842 369.089 427.592 369.089 429.146 367.271C430.82 365.453 430.82 362.467 429.146 360.779C427.472 358.961 424.722 358.961 423.168 360.779C421.734 362.337 421.614 364.545 422.57 366.362C416.951 370.388 412.886 373.244 410.376 375.062C410.256 374.932 410.137 374.802 410.017 374.673C408.582 373.114 406.43 373.114 404.996 374.673C403.561 376.231 403.561 378.568 404.996 380.126C405.713 380.905 406.55 381.295 407.506 381.295C407.745 386.229 408.343 395.578 409.061 409.601C406.789 411.289 404.637 413.107 402.366 414.795C402.246 414.665 402.246 414.536 402.126 414.406C400.572 412.718 398.181 412.718 396.746 414.406C395.192 416.094 395.192 418.691 396.746 420.249C397.344 420.898 398.181 421.288 399.137 421.417C398.898 427.65 398.659 433.753 398.42 439.985C398.061 439.985 397.703 440.115 397.464 440.115C395.431 434.402 390.051 419.08 381.085 394.02C385.269 392.981 388.497 392.332 390.769 391.812C390.888 392.462 391.247 393.111 391.725 393.76C393.279 395.448 395.79 395.448 397.344 393.76C398.898 392.072 398.898 389.345 397.344 387.657C396.627 386.878 395.67 386.489 394.714 386.359C394.355 371.297 393.997 356.364 393.757 341.302C394.594 341.172 395.431 340.912 396.029 340.133C397.464 338.575 397.464 336.108 396.029 334.55C395.192 333.641 394.236 333.381 393.16 333.381C391.725 322.734 390.29 312.087 388.856 301.439C389.573 301.309 390.29 300.92 390.769 300.27C392.203 298.712 392.203 296.115 390.769 294.427C389.334 292.869 386.943 292.869 385.389 294.427C385.03 294.817 384.91 295.077 384.671 295.466C380.726 293.648 373.553 290.272 363.032 285.468C363.51 283.91 363.271 282.222 362.075 280.923C360.521 279.235 358.01 279.235 356.456 280.923C354.902 282.611 354.902 285.338 356.456 287.026C358.01 288.714 360.521 288.714 362.075 287.026C362.434 286.637 362.673 286.247 362.792 285.858C373.313 290.792 380.606 294.038 384.432 295.856C383.954 297.284 384.193 298.972 385.269 300.141C386.106 301.05 387.182 301.439 388.258 301.309C389.693 311.957 391.127 322.604 392.562 333.252C391.845 333.381 391.247 333.771 390.769 334.29C389.334 335.848 389.334 338.316 390.769 339.874C391.486 340.653 392.323 341.042 393.16 341.042C393.518 356.105 393.877 371.037 394.116 386.099C393.16 386.229 392.323 386.619 391.605 387.268C390.649 388.307 390.29 389.605 390.529 390.903C388.258 391.423 385.03 392.202 380.726 393.241C379.291 389.215 377.737 384.93 376.183 380.256C376.541 380.126 376.9 379.866 377.139 379.477C378.454 378.049 378.454 375.711 377.139 374.283C375.824 372.855 373.672 372.855 372.357 374.283C371.042 375.711 371.042 378.049 372.357 379.477C373.313 380.516 374.629 380.775 375.705 380.386C377.259 384.93 378.813 389.215 380.248 393.241C378.335 393.63 376.183 394.15 373.911 394.669C369.129 387.787 364.347 381.035 359.684 374.153C365.781 350.261 369.727 334.81 371.64 327.668C372.835 327.928 374.27 327.538 375.226 326.5C376.781 324.811 376.781 322.215 375.226 320.527C373.672 318.839 371.281 318.839 369.727 320.527C368.412 321.955 368.292 324.032 369.129 325.591C359.086 332.992 348.924 340.393 338.881 347.794C338.762 347.664 338.762 347.535 338.642 347.405C337.327 345.977 335.056 345.977 333.74 347.405C333.501 347.664 333.382 347.924 333.262 348.184C330.154 346.496 327.045 344.808 323.937 343.12C324.415 341.821 324.295 340.393 323.578 339.224C326.447 336.757 331.588 332.472 339.12 326.11L339.24 326.24C340.675 327.798 342.946 327.798 344.381 326.24C345.816 324.682 345.816 322.215 344.381 320.656C342.946 319.098 340.675 319.098 339.24 320.656C337.925 322.085 337.805 324.162 338.881 325.72C331.588 331.953 326.328 336.368 323.339 338.835C323.339 338.835 323.219 338.705 323.219 338.575C321.904 337.536 319.513 337.536 318.079 339.095ZM360.162 334.55C358.847 335.978 358.847 338.445 360.162 339.874C361.477 341.302 363.749 341.302 365.064 339.874C366.379 338.445 366.379 335.978 365.064 334.55C363.629 332.992 361.477 332.992 360.162 334.55ZM429.266 227.556C427.592 225.738 424.962 225.738 423.407 227.556C421.734 229.374 421.734 232.231 423.407 233.919C425.081 235.737 427.711 235.737 429.266 233.919C430.82 232.231 430.82 229.374 429.266 227.556ZM428.907 207.041C430.342 205.482 430.342 202.885 428.907 201.327C427.472 199.769 425.081 199.769 423.646 201.327C422.212 202.885 422.212 205.482 423.646 207.041C425.081 208.599 427.472 208.599 428.907 207.041ZM408.702 268.068C407.387 269.497 407.387 271.834 408.702 273.262C410.017 274.691 412.169 274.691 413.484 273.262C414.799 271.834 414.799 269.497 413.484 268.068C412.169 266.64 410.017 266.64 408.702 268.068ZM407.387 294.427C405.952 295.986 405.952 298.453 407.387 300.011C408.822 301.569 411.093 301.569 412.528 300.011C413.962 298.453 413.962 295.986 412.528 294.427C411.093 292.869 408.822 292.869 407.387 294.427ZM410.137 161.335C408.582 163.023 408.582 165.619 410.137 167.307C411.691 168.995 414.082 168.995 415.636 167.307C417.19 165.619 417.19 163.023 415.636 161.335C414.082 159.647 411.691 159.647 410.137 161.335ZM409.3 214.831C407.985 216.26 407.985 218.597 409.3 219.895C410.615 221.324 412.767 221.324 413.962 219.895C415.278 218.467 415.278 216.13 413.962 214.831C412.647 213.533 410.615 213.533 409.3 214.831ZM416.114 241.45C414.799 240.022 412.647 240.022 411.332 241.45C410.017 242.878 410.017 245.215 411.332 246.644C412.647 248.072 414.799 248.072 416.114 246.644C417.43 245.215 417.43 242.878 416.114 241.45ZM416.832 321.306C415.517 322.734 415.517 324.941 416.832 326.37C417.908 327.538 419.342 327.668 420.658 327.019C421.853 329.226 422.929 331.304 424.125 333.511C423.886 333.641 423.646 333.901 423.527 334.031C422.092 335.589 421.973 337.926 423.049 339.614C419.821 342.341 416.593 345.068 413.245 347.794C413.245 347.664 413.126 347.665 413.126 347.535C411.691 345.977 409.3 345.977 407.865 347.535C406.43 349.093 406.43 351.56 407.865 353.118C405.833 355.585 403.681 358.052 401.648 360.519C401.05 360 400.214 359.61 399.377 359.61C399.137 353.248 398.779 338.186 398.061 314.294C398.898 314.164 399.616 313.904 400.333 313.125C401.768 311.567 401.768 309.1 400.333 307.672C398.898 306.114 396.627 306.114 395.312 307.672C393.877 309.23 393.877 311.697 395.312 313.125C396.029 313.904 396.866 314.294 397.703 314.294C398.42 337.536 398.779 352.599 399.018 359.61C398.181 359.74 397.344 360 396.746 360.779C395.312 362.337 395.312 364.934 396.746 366.492C398.181 368.05 400.572 368.05 402.007 366.492C403.442 364.934 403.442 362.467 402.007 360.779C404.039 358.312 406.191 355.845 408.224 353.378C409.658 354.676 411.81 354.546 413.126 353.118C414.441 351.69 414.56 349.612 413.604 348.054C416.832 345.327 420.06 342.6 423.407 339.874C423.527 340.004 423.527 340.004 423.646 340.133C425.201 341.821 427.711 341.821 429.266 340.133C430.82 338.445 430.82 335.719 429.266 334.031C427.95 332.602 426.157 332.472 424.603 333.252C423.407 331.044 422.331 328.967 421.136 326.759C421.255 326.629 421.494 326.5 421.614 326.37C422.929 324.941 422.929 322.734 421.614 321.306C421.494 321.176 421.255 321.046 421.136 320.916C421.973 319.228 423.288 317.021 424.842 314.034C426.157 314.813 427.831 314.554 428.907 313.385C430.342 311.827 430.342 309.49 428.907 307.931C427.472 306.373 425.32 306.373 423.886 307.931C422.451 309.49 422.451 311.827 423.886 313.385C424.005 313.515 424.244 313.775 424.483 313.904C422.929 316.891 421.614 319.098 420.777 320.786C419.342 320.007 417.908 320.267 416.832 321.306ZM400.572 286.637C401.887 285.208 401.887 282.871 400.572 281.443C399.257 280.014 397.105 280.014 395.79 281.443C394.475 282.871 394.475 285.208 395.79 286.637C397.105 288.065 399.257 288.065 400.572 286.637ZM428.907 281.183C427.472 279.625 425.201 279.625 423.766 281.183C422.331 282.741 422.331 285.208 423.766 286.766C425.201 288.325 427.472 288.325 428.907 286.766C430.342 285.208 430.342 282.741 428.907 281.183ZM428.548 259.888C429.863 258.46 429.863 256.252 428.548 254.824C427.233 253.396 425.201 253.396 423.886 254.824C422.57 256.252 422.57 258.46 423.886 259.888C425.201 261.316 427.353 261.316 428.548 259.888ZM385.867 266.9C385.149 257.811 384.671 251.448 384.432 247.812C385.149 247.683 385.867 247.423 386.345 246.774C387.66 245.345 387.66 242.878 386.345 241.45C385.03 240.022 382.758 240.022 381.443 241.45C381.085 241.839 380.845 242.229 380.726 242.619C371.52 238.983 362.314 235.477 352.989 231.841C353.348 230.543 353.108 228.985 352.032 227.946C350.598 226.388 348.207 226.388 346.772 227.946C345.337 229.504 345.337 232.101 346.772 233.659C347.968 234.958 349.761 235.217 351.196 234.308C353.467 238.204 357.532 244.826 363.39 254.435C363.271 254.564 363.151 254.694 363.032 254.824C361.716 256.252 361.716 258.72 363.032 260.148C364.347 261.576 366.618 261.576 367.933 260.148C369.249 258.72 369.249 256.252 367.933 254.824C366.738 253.526 365.064 253.396 363.749 254.175C357.652 244.177 353.706 237.425 351.554 234.049C351.674 233.919 351.793 233.789 351.913 233.659C352.272 233.27 352.511 232.88 352.75 232.361C361.956 235.996 371.161 239.502 380.487 243.008C380.128 244.307 380.487 245.735 381.324 246.644C382.041 247.423 382.878 247.812 383.834 247.683C384.073 251.318 384.552 257.681 385.269 266.77C384.552 266.9 383.834 267.16 383.356 267.809C382.041 269.237 382.041 271.704 383.356 273.133C384.671 274.561 386.943 274.561 388.258 273.133C389.573 271.704 389.573 269.237 388.258 267.809C387.66 267.289 386.704 266.9 385.867 266.9ZM381.802 347.405C380.248 345.717 377.737 345.717 376.183 347.405C374.629 349.093 374.629 351.82 376.183 353.508C377.737 355.196 380.248 355.196 381.802 353.508C383.356 351.82 383.356 349.093 381.802 347.405ZM262.605 354.287C262.485 354.417 262.485 354.676 262.605 354.806C262.724 354.936 262.963 354.936 263.083 354.806C263.202 354.676 263.202 354.417 263.083 354.287C262.963 354.157 262.724 354.157 262.605 354.287ZM248.856 331.953C248.138 332.732 248.138 333.771 248.856 334.55C249.573 335.329 250.529 335.329 251.247 334.55C251.964 333.771 251.964 332.732 251.247 331.953C250.529 331.304 249.453 331.304 248.856 331.953ZM199.479 344.678C199.24 344.938 199.24 345.327 199.479 345.457C199.718 345.717 200.077 345.717 200.196 345.457C200.436 345.197 200.436 344.808 200.196 344.678C200.077 344.418 199.718 344.418 199.479 344.678ZM171.862 363.506C171.742 363.636 171.742 363.895 171.862 364.025C171.981 364.155 172.22 364.155 172.34 364.025C172.459 363.895 172.459 363.636 172.34 363.506C172.22 363.376 171.981 363.376 171.862 363.506ZM172.22 307.802C172.579 308.191 173.296 308.191 173.655 307.802C174.014 307.412 174.014 306.633 173.655 306.243C173.296 305.854 172.579 305.854 172.22 306.243C171.862 306.633 171.862 307.412 172.22 307.802ZM76.6951 303.127C76.0974 303.776 76.0974 304.815 76.6951 305.464C77.2929 306.114 78.2494 306.114 78.8471 305.464C79.4449 304.815 79.4449 303.776 78.8471 303.127C78.2494 302.478 77.2929 302.478 76.6951 303.127ZM1.01623 257.811C1.25534 257.551 1.25534 257.161 1.01623 256.902C0.777114 256.642 0.418446 256.642 0.179334 256.902C-0.059778 257.161 -0.059778 257.551 0.179334 257.811C0.418446 257.94 0.89667 257.94 1.01623 257.811ZM13.8087 270.276C12.7327 271.445 12.7327 273.262 13.8087 274.301C14.8847 275.47 16.5585 275.47 17.5149 274.301C18.5909 273.133 18.5909 271.315 17.5149 270.276C16.4389 269.107 14.7652 269.107 13.8087 270.276ZM73.3476 207.69H73.5867V207.43H73.3476V207.69ZM116.388 214.182C116.627 213.922 116.627 213.663 116.388 213.403C116.149 213.143 115.909 213.143 115.67 213.403C115.431 213.663 115.431 213.922 115.67 214.182C115.909 214.442 116.149 214.442 116.388 214.182ZM172.699 245.345C171.981 244.566 170.666 244.566 169.829 245.345C169.112 246.124 169.112 247.553 169.829 248.462C170.547 249.241 171.862 249.241 172.699 248.462C173.416 247.553 173.416 246.254 172.699 245.345ZM173.535 223.401C173.775 223.142 173.775 222.752 173.535 222.492C173.296 222.233 172.938 222.233 172.699 222.492C172.459 222.752 172.459 223.142 172.699 223.401C172.818 223.661 173.296 223.661 173.535 223.401ZM173.535 210.936C174.014 210.417 174.014 209.767 173.535 209.248C173.057 208.729 172.459 208.729 171.981 209.248C171.503 209.767 171.503 210.417 171.981 210.936C172.459 211.325 173.177 211.325 173.535 210.936ZM173.894 166.788C174.492 166.139 174.492 165.1 173.894 164.451C173.296 163.802 172.34 163.802 171.742 164.451C171.144 165.1 171.144 166.139 171.742 166.788C172.34 167.437 173.296 167.437 173.894 166.788ZM222.434 211.845C223.032 211.196 223.032 210.027 222.434 209.248C221.836 208.599 220.76 208.599 220.043 209.248C219.445 209.897 219.445 211.066 220.043 211.845C220.76 212.624 221.836 212.624 222.434 211.845ZM279.821 107.188C279.94 107.059 279.94 106.669 279.821 106.539C279.701 106.409 279.342 106.409 279.223 106.539C279.103 106.669 279.103 107.059 279.223 107.188C279.342 107.448 279.582 107.448 279.821 107.188ZM85.7814 280.923C86.0205 280.664 86.0205 280.144 85.7814 279.755C85.5423 279.495 85.0641 279.495 84.7054 279.755C84.4663 280.014 84.4663 280.534 84.7054 280.923C85.0641 281.183 85.5423 281.183 85.7814 280.923ZM288.07 309.36C286.994 310.528 286.994 312.346 288.07 313.515C289.146 314.683 290.82 314.683 291.896 313.515C292.972 312.346 292.972 310.528 291.896 309.36C290.82 308.191 289.026 308.191 288.07 309.36ZM263.561 310.009C262.724 310.918 262.724 312.216 263.561 313.125C264.398 314.034 265.594 314.034 266.43 313.125C267.267 312.216 267.267 310.918 266.43 310.009C265.713 309.1 264.398 309.1 263.561 310.009ZM269.3 265.601C269.898 264.952 269.898 263.784 269.3 263.134C268.702 262.485 267.626 262.485 267.028 263.134C266.43 263.784 266.43 264.952 267.028 265.601C267.746 266.251 268.702 266.251 269.3 265.601ZM294.885 244.047C288.429 254.824 281.016 267.289 272.647 281.443C267.267 275.859 262.007 270.276 256.627 264.693C262.963 258.59 269.3 252.617 275.636 246.514C277.071 248.072 279.342 248.072 280.777 246.514C281.375 245.865 281.734 244.956 281.853 244.047C286.277 244.047 290.581 244.047 294.885 244.047ZM272.528 281.832C270.495 285.338 268.343 288.974 266.072 292.61C264.996 291.96 263.681 292.09 262.724 293.129C261.648 294.298 261.648 296.245 262.724 297.414C263.8 298.582 265.594 298.582 266.67 297.414C267.746 296.245 267.746 294.298 266.67 293.129C266.55 292.999 266.43 292.999 266.311 292.869C268.463 289.234 270.615 285.598 272.647 282.092C281.375 291.311 290.222 300.4 298.95 309.619C296.08 320.527 293.211 331.434 290.222 342.471C289.385 342.341 288.548 342.471 287.95 343.12C287.831 343.25 287.711 343.509 287.592 343.769C281.494 340.653 275.397 337.536 269.419 334.55C269.898 333.381 269.658 331.953 268.702 330.914C267.506 329.616 265.474 329.616 264.278 330.914C264.159 331.044 264.159 331.174 264.039 331.304C250.171 321.565 236.183 311.697 222.314 301.958C222.673 301.05 222.673 300.011 221.956 299.232C221.477 298.712 220.88 298.582 220.282 298.582C219.923 296.505 219.206 292.999 218.249 287.935C229.488 283.78 236.541 281.053 239.53 280.014C239.65 280.144 239.65 280.404 239.889 280.534C240.606 281.313 241.682 281.313 242.28 280.534C242.878 279.885 242.878 278.976 242.519 278.197C247.182 273.782 251.725 269.367 256.388 264.952C261.768 270.536 267.148 276.249 272.528 281.832ZM256.149 264.693C251.605 269.107 246.943 273.522 242.4 277.937C241.682 277.288 240.726 277.288 240.009 278.067C239.53 278.586 239.411 279.105 239.53 279.755C236.661 280.793 229.488 283.52 218.249 287.675C217.652 284.689 217.054 281.313 216.217 277.288C228.173 258.46 234.987 247.812 236.541 245.215C236.781 245.345 237.139 245.345 237.378 245.086C243.715 251.578 249.932 258.2 256.149 264.693ZM217.891 287.805C214.663 288.974 210.956 290.402 207.011 291.83C210.239 286.766 213.228 282.092 215.978 277.807C216.695 281.573 217.293 284.949 217.891 287.805ZM143.168 250.02C143.168 250.15 143.288 250.28 143.288 250.409C137.549 254.045 131.691 257.681 125.952 261.316C127.267 257.421 128.702 253.396 130.017 249.5C134.56 249.76 138.984 249.89 143.168 250.02ZM125.115 262.355C120.453 275.859 115.79 289.234 111.127 302.738C110.649 302.608 110.051 302.738 109.573 303.127C109.573 303.127 109.573 303.257 109.453 303.257C105.269 300.27 88.4116 288.454 58.6422 267.549C67.2502 263.134 72.8693 260.278 75.6191 258.849C75.7387 258.979 75.7387 259.239 75.9778 259.369C76.8147 260.278 78.2494 260.278 79.0863 259.369C79.3254 259.109 79.4449 258.849 79.5645 258.59C89.4876 262.096 99.4108 265.601 109.334 269.107C109.095 270.276 109.334 271.574 110.171 272.613C111.486 274.041 113.518 274.041 114.833 272.613C115.909 271.445 116.029 269.757 115.431 268.458C118.659 266.38 121.887 264.433 125.115 262.355ZM311.742 345.457C311.025 354.027 310.307 362.727 309.59 371.297C308.634 371.297 307.677 371.686 306.96 372.465C305.525 374.023 305.525 376.361 306.96 377.919C297.754 388.696 288.548 399.603 279.462 410.38C279.342 410.38 279.342 410.251 279.223 410.251C281.614 405.446 292.374 383.762 311.742 345.457ZM324.654 187.304C321.665 182.889 315.927 174.579 307.438 162.243C307.558 162.243 307.558 162.114 307.677 162.114C308.873 160.815 308.873 158.608 307.677 157.179C306.482 155.881 304.449 155.881 303.134 157.179C301.819 158.478 301.939 160.685 303.134 162.114C304.21 163.282 305.884 163.412 307.079 162.503C315.687 174.968 321.426 183.408 324.295 187.693C324.176 187.823 324.056 187.823 324.056 187.953C322.502 189.641 322.502 192.368 324.056 194.056C324.176 194.186 324.415 194.316 324.535 194.445C321.067 200.289 313.057 213.793 300.623 234.698C300.504 234.568 300.265 234.438 300.145 234.438C301.939 229.504 306.003 218.986 311.981 202.885C313.296 203.405 314.731 203.015 315.687 201.977C317.122 200.418 317.122 197.951 315.687 196.393C314.253 194.835 311.981 194.835 310.547 196.393C309.112 197.951 309.112 200.418 310.547 201.977C310.786 202.236 311.144 202.496 311.503 202.756C305.286 219.506 301.221 230.023 299.667 234.308C299.189 234.179 298.591 234.179 298.113 234.308C293.211 218.207 288.19 201.977 283.288 185.876C283.646 185.746 284.005 185.486 284.364 185.096C285.559 183.798 285.559 181.591 284.364 180.292C283.168 178.994 281.136 178.994 279.94 180.292C279.223 181.071 278.984 182.11 279.103 183.019C273.843 184.058 268.582 185.096 263.322 186.135C263.202 185.616 262.963 185.096 262.605 184.707C261.529 183.538 259.735 183.538 258.54 184.707C257.464 185.876 257.464 187.823 258.54 189.122C259.137 189.771 259.974 190.031 260.692 190.031C261.29 194.445 262.605 203.665 264.398 217.428C264.039 217.558 263.561 217.688 263.322 218.078C262.366 219.116 262.366 220.674 263.322 221.583C264.278 222.622 265.713 222.622 266.55 221.583C267.387 220.545 267.506 218.986 266.55 218.078C266.072 217.558 265.474 217.298 264.757 217.428C262.844 203.405 261.529 194.316 261.05 190.031C261.529 189.901 262.007 189.641 262.485 189.252C263.083 188.602 263.322 187.693 263.202 186.784C268.463 185.746 273.723 184.707 278.984 183.668C279.103 184.188 279.342 184.837 279.701 185.226C280.538 186.135 281.614 186.395 282.69 186.005C287.592 202.106 292.613 218.337 297.515 234.438C297.156 234.568 296.917 234.828 296.559 235.087C295.483 236.256 295.483 238.204 296.559 239.372C296.798 239.632 297.037 239.762 297.276 239.892C296.559 241.19 295.722 242.489 294.885 243.787C290.461 243.787 286.038 243.787 281.614 243.657C281.614 242.748 281.255 241.839 280.538 241.06C279.103 239.502 276.832 239.502 275.397 241.06C274.082 242.489 273.962 244.696 275.158 246.254C268.822 252.357 262.485 258.46 256.149 264.433C249.932 257.94 243.715 251.318 237.498 244.826C237.737 244.436 237.737 243.917 237.378 243.527C237.02 243.138 236.422 243.138 236.063 243.527C235.705 243.917 235.705 244.566 236.063 244.956C234.031 248.072 227.336 258.59 215.978 276.638C214.184 267.16 211.793 254.954 208.924 240.022C220.282 225.609 231.64 211.326 242.878 196.913C243.954 197.821 245.628 197.821 246.584 196.653C247.66 195.484 247.66 193.407 246.584 192.238C246.225 191.848 245.628 191.589 245.149 191.459C246.225 183.149 247.301 174.709 248.377 166.399C248.856 166.399 249.334 166.269 249.693 165.879C250.41 165.1 250.41 163.802 249.693 163.023C249.453 162.763 249.214 162.633 248.975 162.503C249.573 159.127 251.008 151.596 253.279 139.52C253.16 139.52 253.16 139.52 253.04 139.52C253.279 139.261 253.279 138.741 253.04 138.482C252.801 138.222 252.323 138.222 252.084 138.482C251.845 138.741 251.845 139.261 252.084 139.52C252.323 139.78 252.562 139.78 252.801 139.65C250.649 151.596 249.214 159.127 248.617 162.503C248.138 162.503 247.541 162.633 247.182 163.023C246.465 163.802 246.465 165.1 247.182 165.879C247.421 166.139 247.78 166.269 248.019 166.399C246.943 174.839 245.867 183.149 244.791 191.459C243.954 191.459 243.117 191.719 242.519 192.368C241.443 193.536 241.443 195.614 242.519 196.783C231.281 211.066 220.043 225.349 208.804 239.502C206.174 225.998 203.185 210.417 199.718 192.498C200.077 192.368 200.316 192.238 200.675 191.978C201.512 191.069 201.512 189.511 200.675 188.602C199.838 187.693 198.403 187.693 197.566 188.602C196.729 189.511 196.729 191.069 197.566 191.978C198.044 192.498 198.762 192.757 199.36 192.628C202.827 210.676 205.935 226.388 208.565 240.022C206.174 243.008 203.903 245.995 201.512 248.981C199.957 247.683 197.805 247.812 196.371 249.371C195.653 250.15 195.295 251.059 195.295 251.968C188.6 251.708 172.699 251.059 147.592 250.02C147.711 249.241 147.472 248.462 146.994 247.812C146.038 246.774 144.603 246.774 143.646 247.812C143.168 248.332 142.929 249.111 143.049 249.89C138.984 249.76 134.68 249.5 130.137 249.371C135.397 234.179 140.658 218.986 145.918 203.665C146.516 203.794 147.233 203.665 147.831 203.145C148.548 202.366 148.548 200.938 147.831 200.159C147.114 199.38 145.798 199.38 145.081 200.159C144.364 200.938 144.364 202.236 144.962 203.145C134.799 215.481 124.757 227.686 114.594 240.022C113.997 239.502 113.04 239.632 112.442 240.151C112.323 240.281 112.203 240.541 112.084 240.671C106.584 238.853 85.4227 231.841 48.4799 219.636C48.5995 218.857 48.4799 218.078 47.8822 217.558C47.0453 216.649 45.7301 216.649 44.8933 217.558C44.0564 218.467 44.0564 219.895 44.8933 220.804C45.7301 221.713 47.0453 221.713 47.8822 220.804C48.1213 220.545 48.2408 220.285 48.3604 220.025C84.9445 232.101 106.106 239.113 111.964 241.06C111.845 241.58 111.964 242.229 112.442 242.619C113.04 243.268 114.116 243.268 114.833 242.619C115.431 241.969 115.431 240.931 114.953 240.151C125.115 227.816 135.158 215.61 145.32 203.275C145.44 203.275 145.44 203.405 145.559 203.405C140.299 218.727 135.038 233.919 129.778 249.241C107.541 248.332 80.0427 247.293 47.2844 245.865C47.7626 245.215 47.7626 244.307 47.1648 243.657C46.567 243.008 45.6106 243.008 45.0128 243.657C44.415 244.307 44.415 245.345 45.0128 245.995C45.0128 246.124 45.0128 246.124 45.0128 246.254C45.1324 246.254 45.2519 246.254 45.3715 246.254C45.8497 246.514 46.3279 246.514 46.8061 246.254C79.8036 247.553 107.421 248.721 129.658 249.63C128.224 253.656 126.909 257.811 125.474 261.836C122.126 263.913 118.779 265.991 115.431 268.198C115.312 268.069 115.192 267.809 115.073 267.679C113.757 266.251 111.725 266.251 110.41 267.679C110.051 268.069 109.812 268.458 109.693 268.848C99.7694 265.342 89.8463 261.836 79.9231 258.33C80.0427 257.551 79.9231 256.642 79.3254 256.123C78.4885 255.214 77.0538 255.214 76.2169 256.123C75.6191 256.772 75.38 257.811 75.7387 258.72C72.8693 260.148 67.2502 263.134 58.6422 267.549C46.6866 259.239 32.6985 249.371 16.6781 238.074C16.9172 237.555 16.7976 236.905 16.4389 236.386C15.9607 235.867 15.0043 235.867 14.526 236.386C14.0478 236.905 14.0478 237.944 14.526 238.463C15.0043 238.983 15.9607 238.983 16.4389 238.463C16.4389 238.463 16.4389 238.463 16.4389 238.334C32.3399 249.5 46.2084 259.239 58.164 267.549C54.3382 269.497 49.795 271.834 44.7737 274.431C44.6541 274.171 44.5346 274.041 44.415 273.782C43.4586 272.743 41.7848 272.743 40.8284 273.782C39.8719 274.821 39.8719 276.638 40.8284 277.677C41.7848 278.716 43.4586 278.716 44.415 277.677C45.1324 276.898 45.3715 275.729 45.0128 274.821C50.1537 272.224 54.6968 269.886 58.6422 267.809C87.8138 288.325 104.791 300.27 109.693 303.646C109.453 304.296 109.453 305.075 110.051 305.594C110.649 306.243 111.725 306.243 112.323 305.594C112.921 304.945 112.921 303.776 112.323 303.127C112.203 302.997 112.084 302.867 111.964 302.867C116.627 289.234 121.409 275.6 126.072 261.966C132.05 258.2 137.908 254.564 143.886 250.799C144.005 250.929 144.005 251.059 144.125 251.188C144.962 252.097 146.396 252.097 147.233 251.318C153.809 258.46 160.265 265.472 166.84 272.613C166.362 273.262 166.123 274.171 166.362 274.95C163.134 276.379 155.841 279.365 144.364 284.299C144.364 284.04 144.244 283.78 144.125 283.65C143.646 283.131 143.049 283.131 142.57 283.65C142.092 284.169 142.092 284.819 142.57 285.338C142.57 285.468 142.57 285.468 142.69 285.598H142.81C143.168 285.857 143.766 285.858 144.125 285.468C144.244 285.338 144.364 285.078 144.364 284.949C155.602 280.144 162.895 277.028 166.482 275.6C166.601 275.859 166.721 276.119 166.96 276.249C167.916 277.288 169.471 277.288 170.307 276.249C171.264 275.21 171.264 273.522 170.307 272.613C169.471 271.704 168.036 271.574 167.079 272.483C160.623 265.342 154.048 258.33 147.592 251.188C147.711 250.929 147.95 250.669 147.95 250.409C172.938 251.448 188.839 252.097 195.653 252.357C195.653 253.396 196.012 254.435 196.849 255.344C198.403 257.032 200.794 257.032 202.348 255.344C203.903 253.656 203.903 251.059 202.348 249.371C202.348 249.371 202.348 249.371 202.229 249.371C204.5 246.514 206.772 243.657 209.044 240.801C211.913 255.863 214.304 268.068 216.097 277.547C213.228 282.092 210.12 287.026 206.652 292.48C203.424 293.648 199.957 294.947 196.371 296.375C196.371 296.245 196.251 296.115 196.132 295.986C195.653 295.466 195.056 295.466 194.577 295.986C194.338 296.245 194.219 296.765 194.338 297.154C181.785 301.829 166.601 307.542 149.026 314.164C148.907 313.904 148.787 313.645 148.668 313.515C147.831 312.606 146.516 312.606 145.679 313.515C144.842 314.424 144.842 315.852 145.679 316.761C146.516 317.67 147.831 317.67 148.668 316.761C149.146 316.242 149.385 315.333 149.146 314.683C166.721 308.061 181.904 302.348 194.458 297.674V297.803C194.936 298.323 195.534 298.323 196.012 297.803C196.251 297.544 196.371 297.284 196.371 297.024C199.838 295.726 203.185 294.427 206.174 293.389C197.805 306.633 187.643 322.474 175.927 341.172C175.209 340.783 174.253 340.783 173.535 341.562C172.699 342.471 172.699 343.769 173.535 344.678C174.372 345.587 175.568 345.587 176.405 344.678C177.242 343.769 177.242 342.471 176.405 341.562C176.405 341.562 176.285 341.562 176.285 341.432C188.241 322.604 198.403 306.503 206.892 293.129C211.076 291.571 214.782 290.142 218.249 288.844C219.206 293.778 219.923 297.284 220.282 299.362C219.923 299.491 219.684 299.621 219.445 299.881C218.608 300.79 218.608 302.218 219.445 303.127C220.282 304.036 221.597 304.036 222.434 303.127C222.434 303.127 222.553 302.997 222.553 302.867C236.422 312.606 250.41 322.474 264.278 332.213C263.681 333.511 263.8 335.069 264.757 336.238C265.952 337.536 267.985 337.536 269.18 336.238C269.419 335.978 269.539 335.719 269.658 335.459C275.756 338.575 281.853 341.692 287.831 344.678C287.472 345.587 287.711 346.756 288.429 347.535C289.385 348.573 290.939 348.573 292.015 347.535C292.972 346.496 292.972 344.808 292.015 343.639C291.776 343.38 291.418 343.12 291.178 342.99C294.048 332.083 296.917 321.306 299.787 310.399C303.612 314.424 307.319 318.319 311.144 322.344C309.829 323.903 309.949 326.37 311.264 327.798C311.862 328.447 312.579 328.837 313.416 328.967C312.938 334.16 312.579 339.484 312.101 344.678C294.526 379.737 283.527 401.551 279.103 410.38C278.027 409.861 276.712 409.991 275.875 411.03C274.799 412.198 274.799 414.276 275.875 415.444C276.951 416.613 278.864 416.613 279.94 415.444C281.016 414.276 281.016 412.328 279.94 411.16C289.146 400.382 298.352 389.475 307.438 378.698C308.873 379.996 310.905 379.866 312.22 378.438C313.655 376.88 313.655 374.413 312.22 372.985C311.623 372.335 310.905 372.076 310.188 371.946C310.905 362.986 311.623 354.027 312.34 344.938C318.676 332.343 325.969 317.93 334.099 301.699C335.653 302.478 337.447 302.218 338.642 300.92C340.196 299.232 340.196 296.505 338.642 294.687C337.088 292.999 334.577 292.999 332.903 294.687C331.349 296.375 331.349 299.102 332.903 300.92C333.143 301.179 333.382 301.309 333.621 301.569C325.73 317.28 318.676 331.434 312.34 343.899C312.699 338.965 313.177 334.16 313.535 329.226C314.492 329.226 315.568 328.837 316.285 328.058C317.72 326.5 317.72 323.903 316.285 322.344C314.851 320.786 312.579 320.786 311.144 322.215C307.319 318.189 303.493 314.164 299.667 310.139C300.982 305.075 302.297 300.011 303.732 294.947C305.047 295.206 306.482 294.947 307.438 293.778C308.873 292.22 308.992 289.883 307.797 288.195C310.905 285.468 316.285 280.793 324.056 274.041L324.176 274.171C325.73 275.859 328.121 275.859 329.556 274.171C331.11 272.483 331.11 269.886 329.556 268.328C328.002 266.64 325.611 266.64 324.176 268.328C322.861 269.757 322.741 272.094 323.817 273.652C316.166 280.404 310.666 285.078 307.558 287.805L307.438 287.675C305.884 285.987 303.373 285.987 301.819 287.675C300.265 289.363 300.265 292.09 301.819 293.778C302.297 294.298 302.775 294.557 303.373 294.817C302.058 299.751 300.743 304.815 299.428 309.749C290.7 300.66 281.973 291.441 273.245 282.352C281.734 268.068 289.146 255.603 295.602 244.696C304.33 244.696 313.057 244.826 321.904 244.826C321.904 245.735 322.263 246.514 322.861 247.163C323.937 248.332 325.611 248.591 326.926 247.683C331.23 254.694 343.664 274.821 364.108 307.802C363.988 307.931 363.868 308.061 363.749 308.191C362.314 309.749 362.314 312.346 363.749 314.034C365.184 315.592 367.575 315.592 369.129 314.034C370.564 312.476 370.564 309.879 369.129 308.191C367.933 306.893 366.02 306.633 364.586 307.542C344.261 274.691 331.827 254.694 327.404 247.423C327.523 247.293 327.643 247.293 327.763 247.163C329.078 245.735 329.078 243.398 327.763 241.969C326.447 240.541 324.295 240.541 322.98 241.969C322.383 242.619 322.024 243.398 322.024 244.307C313.416 244.307 304.688 244.177 296.08 244.177C296.798 242.878 297.635 241.71 298.352 240.411C299.308 240.801 300.384 240.541 301.221 239.632C302.297 238.463 302.297 236.646 301.341 235.477C313.775 214.702 321.785 201.197 325.371 195.225C326.926 196.133 328.839 196.004 330.154 194.575C331.708 192.887 331.708 190.16 330.154 188.472C328.241 186.265 326.208 186.135 324.654 187.304ZM285.201 206.781C284.842 207.17 284.842 207.69 285.201 207.949C285.559 208.339 286.038 208.339 286.277 207.949C286.635 207.56 286.635 207.041 286.277 206.781C285.918 206.521 285.44 206.521 285.201 206.781ZM252.681 243.917H252.921V243.657H252.681V243.917ZM146.157 215.61C146.396 215.481 146.396 215.091 146.157 214.961C145.918 214.831 145.679 214.831 145.559 214.961C145.32 215.221 145.32 215.481 145.559 215.61C145.798 215.87 146.038 215.87 146.157 215.61ZM77.6516 230.673H77.2929V231.062H77.6516V230.673ZM208.924 253.785C208.685 254.045 208.685 254.435 208.924 254.694C209.163 254.954 209.522 254.954 209.761 254.694C210 254.435 210 254.045 209.761 253.785C209.522 253.526 209.163 253.526 208.924 253.785ZM300.384 271.834C300.623 271.574 300.623 271.185 300.384 270.925C300.145 270.665 299.787 270.665 299.547 270.925C299.308 271.185 299.308 271.574 299.547 271.834C299.667 272.094 300.145 272.094 300.384 271.834ZM344.381 167.307C345.935 165.619 345.935 163.023 344.381 161.335C343.544 160.426 342.588 160.036 341.512 160.166C341.392 157.959 341.153 155.102 340.794 151.596C341.512 151.466 342.229 151.206 342.707 150.557C344.022 149.129 344.022 146.662 342.707 145.234C341.392 143.805 339.12 143.805 337.805 145.234C336.49 146.662 336.49 149.129 337.805 150.557C338.523 151.336 339.36 151.726 340.316 151.596C340.555 155.362 340.794 158.218 341.033 160.166C340.675 160.166 340.316 160.296 339.957 160.555C336.968 154.193 333.86 147.83 330.871 141.598C331.11 141.468 331.469 141.208 331.708 140.949C333.262 139.261 333.262 136.534 331.708 134.846C331.11 134.197 330.273 133.807 329.556 133.677C329.915 130.041 330.512 123.939 331.349 115.499C332.425 115.499 333.382 115.109 334.219 114.33C335.653 112.772 335.653 110.175 334.219 108.487C332.784 106.929 330.393 106.929 328.839 108.487C327.404 110.045 327.404 112.642 328.839 114.33C329.436 114.979 330.154 115.369 330.871 115.499C330.034 123.939 329.436 130.041 329.078 133.677C328.002 133.677 326.806 134.067 325.969 134.976C324.415 136.664 324.415 139.39 325.969 141.078C327.165 142.377 328.958 142.637 330.512 141.987C333.501 148.35 336.61 154.712 339.599 160.945C339.36 161.075 339.001 161.335 338.881 161.594C337.327 163.282 337.327 165.879 338.881 167.567C340.436 169.255 342.827 168.866 344.381 167.307ZM367.336 127.055C368.77 125.497 368.77 123.16 367.336 121.601C366.26 120.433 364.705 120.173 363.39 120.822C361.597 117.187 358.488 110.564 353.826 100.826C354.065 100.696 354.304 100.566 354.424 100.307C355.739 98.8783 355.739 96.541 354.424 95.1127C353.108 93.6844 350.956 93.6844 349.641 95.1127C348.326 96.541 348.326 98.8783 349.641 100.307C350.717 101.475 352.152 101.605 353.467 101.086C358.13 110.694 361.238 117.316 363.032 121.082C362.792 121.212 362.553 121.472 362.314 121.601C360.88 123.16 360.88 125.497 362.314 127.055C363.032 127.834 363.988 128.224 365.064 128.224C365.781 134.586 366.379 140.949 367.096 147.441C366.499 147.571 365.781 147.96 365.303 148.48C363.988 149.908 363.988 152.245 365.303 153.674C365.662 154.063 366.14 154.323 366.618 154.582C365.064 160.945 361.119 176.137 355.141 200.159C353.945 199.899 352.511 200.289 351.554 201.327C350 203.015 350 205.612 351.554 207.3C353.108 208.988 355.5 208.988 357.054 207.3C358.608 205.612 358.608 203.015 357.054 201.327C356.576 200.808 356.097 200.548 355.5 200.289C361.597 176.267 365.423 161.075 366.977 154.712C368.053 154.972 369.249 154.582 370.085 153.674C371.401 152.245 371.401 149.908 370.085 148.48C369.368 147.701 368.412 147.311 367.575 147.441C366.857 141.078 366.26 134.716 365.542 128.224C366.14 127.964 366.857 127.704 367.336 127.055ZM374.629 113.811C376.063 112.252 376.063 109.915 374.629 108.357C373.194 106.799 371.042 106.799 369.607 108.357C368.173 109.915 368.173 112.252 369.607 113.811C371.042 115.239 373.194 115.239 374.629 113.811ZM378.335 161.724C377.02 160.296 374.987 160.296 373.792 161.724C372.477 163.152 372.477 165.36 373.792 166.658C375.107 168.087 377.139 168.087 378.335 166.658C379.53 165.23 379.53 163.152 378.335 161.724ZM384.671 87.4518C386.225 85.7637 386.225 83.037 384.671 81.4788C383.117 79.7908 380.606 79.7908 379.172 81.4788C377.617 83.1668 377.617 85.8936 379.172 87.4518C380.726 89.1398 383.117 89.1398 384.671 87.4518ZM391.366 134.456C389.812 132.768 387.182 132.768 385.628 134.456C384.073 136.144 384.073 139.001 385.628 140.689C387.182 142.377 389.812 142.377 391.366 140.689C392.921 139.001 392.921 136.274 391.366 134.456ZM390.769 154.063C392.323 155.751 394.953 155.751 396.507 154.063C398.061 152.375 398.061 149.518 396.507 147.83C394.953 146.142 392.323 146.142 390.769 147.83C389.095 149.518 389.095 152.375 390.769 154.063ZM391.247 174.319C389.573 176.137 389.573 178.994 391.247 180.812C392.921 182.629 395.551 182.629 397.225 180.812C398.898 178.994 398.898 176.137 397.225 174.319C395.67 172.501 392.921 172.501 391.247 174.319ZM391.725 121.342C390.171 123.03 390.171 125.627 391.725 127.315C393.279 129.003 395.67 129.003 397.225 127.315C398.779 125.627 398.779 123.03 397.225 121.342C395.67 119.784 393.16 119.784 391.725 121.342ZM397.105 73.688C398.42 72.2597 398.42 69.9224 397.105 68.4941C395.79 67.0658 393.638 67.0658 392.323 68.4941C391.008 69.9224 391.008 72.2597 392.323 73.688C393.638 75.2462 395.79 75.2462 397.105 73.688ZM400.094 100.307C401.409 98.8783 401.409 96.541 400.094 95.1127C398.779 93.6844 396.627 93.6844 395.312 95.1127C393.997 96.541 393.997 98.8783 395.312 100.307C396.627 101.735 398.779 101.735 400.094 100.307ZM400.811 206.781C402.126 205.353 402.126 202.885 400.811 201.457C399.496 200.029 397.225 200.029 395.909 201.457L395.79 201.587C391.725 198.081 383.117 190.94 370.085 179.903C371.161 178.215 371.042 175.877 369.607 174.319C368.053 172.631 365.542 172.631 363.988 174.319C362.434 176.007 362.434 178.734 363.988 180.422C365.542 182.11 368.053 182.11 369.607 180.422C369.727 180.292 369.727 180.292 369.846 180.162C382.997 191.329 391.605 198.471 395.551 201.847C394.714 203.275 394.714 205.093 395.79 206.391C393.399 208.988 390.888 211.585 388.497 214.182C387.062 212.754 384.791 212.754 383.356 214.312C382.639 215.091 382.28 216 382.28 217.039H341.751C341.751 216.13 341.392 215.221 340.794 214.572C339.479 213.143 337.207 213.143 335.892 214.572C335.175 215.351 334.816 216.26 334.816 217.298C333.262 217.428 331.23 217.558 328.719 217.818C328.599 216.909 328.241 216.13 327.643 215.481C326.208 213.922 323.937 213.922 322.502 215.481C321.067 217.039 321.067 219.506 322.502 221.064C323.937 222.622 326.208 222.622 327.643 221.064C328.36 220.285 328.719 219.246 328.719 218.207C331.23 217.948 333.262 217.818 334.816 217.688C334.936 218.467 335.175 219.246 335.773 219.895C337.088 221.324 339.359 221.324 340.675 219.895C341.272 219.246 341.631 218.337 341.631 217.428H382.161C382.161 218.337 382.519 219.376 383.237 220.155C384.671 221.713 387.062 221.713 388.617 220.155C390.051 218.597 390.051 216.13 388.736 214.572C391.127 211.975 393.638 209.378 396.029 206.781C397.464 208.209 399.496 208.209 400.811 206.781ZM370.683 187.953C369.249 189.511 369.249 192.238 370.683 193.796C372.118 195.354 374.629 195.354 376.063 193.796C377.498 192.238 377.498 189.511 376.063 187.953C374.629 186.265 372.237 186.265 370.683 187.953ZM404.876 254.435C403.322 252.747 400.931 252.747 399.377 254.435C397.822 256.123 397.822 258.72 399.377 260.408C400.931 262.096 403.322 262.096 404.876 260.408C406.311 258.72 406.311 255.993 404.876 254.435ZM403.441 228.206C402.126 229.634 402.126 231.841 403.441 233.27C404.757 234.698 406.789 234.698 408.104 233.27C409.419 231.841 409.419 229.634 408.104 228.206C406.789 226.777 404.637 226.777 403.441 228.206ZM405.115 134.586C403.561 136.274 403.561 139.001 405.115 140.559C406.669 142.247 409.18 142.247 410.615 140.559C412.169 138.871 412.169 136.144 410.615 134.586C409.18 132.898 406.669 132.898 405.115 134.586ZM411.213 81.7385C409.898 80.3102 407.626 80.3102 406.191 81.7385C404.876 83.1668 404.876 85.6339 406.191 87.1921C407.506 88.6204 409.778 88.6204 411.213 87.1921C412.647 85.6339 412.647 83.1668 411.213 81.7385ZM417.071 61.0929C418.745 59.275 418.745 56.4184 417.071 54.7304C415.397 52.9125 412.767 52.9125 411.213 54.7304C409.539 56.5482 409.539 59.4049 411.213 61.0929C412.767 62.7809 415.397 62.7809 417.071 61.0929ZM418.147 113.551C419.462 112.123 419.462 109.915 418.147 108.617C416.832 107.188 414.799 107.188 413.604 108.617C412.289 110.045 412.289 112.252 413.604 113.551C414.799 114.849 416.832 114.849 418.147 113.551ZM421.853 188.213C420.538 186.784 418.386 186.784 417.071 188.213C415.756 189.641 415.756 191.978 417.071 193.407C418.386 194.835 420.538 194.835 421.853 193.407C423.168 191.978 423.168 189.641 421.853 188.213ZM428.907 47.459C430.342 45.9008 430.342 43.3039 428.907 41.7457C427.472 40.1875 425.081 40.1875 423.646 41.7457C422.212 43.3039 422.212 45.9008 423.646 47.459C425.081 49.0171 427.472 49.0171 428.907 47.459ZM423.766 68.3643C422.331 69.9224 422.331 72.3895 423.766 73.9477C425.201 75.5059 427.472 75.5059 428.907 73.9477C430.342 72.3895 430.342 69.9224 428.907 68.3643C427.472 66.8061 425.201 66.8061 423.766 68.3643ZM429.146 100.826C430.7 99.138 430.7 96.2813 429.146 94.5933C427.592 92.9053 424.962 92.9053 423.407 94.5933C421.853 96.2813 421.853 99.138 423.407 100.826C424.962 102.514 427.592 102.514 429.146 100.826ZM423.646 127.315C425.081 128.873 427.592 128.873 429.026 127.315C430.461 125.757 430.461 123.03 429.026 121.472C427.592 119.913 425.081 119.913 423.646 121.472C422.092 123.03 422.092 125.627 423.646 127.315ZM423.766 148.22C422.331 149.778 422.331 152.245 423.766 153.674C425.201 155.232 427.472 155.232 428.787 153.674C430.222 152.115 430.222 149.648 428.787 148.22C427.472 146.662 425.201 146.662 423.766 148.22ZM429.385 180.812C431.059 178.994 431.059 176.007 429.385 174.189C427.711 172.371 424.962 172.371 423.288 174.189C421.614 176.007 421.614 178.994 423.288 180.812C424.962 182.629 427.592 182.629 429.385 180.812ZM441.102 33.9549C442.536 32.3967 442.536 29.9297 441.102 28.5013C439.667 26.9432 437.395 26.9432 436.08 28.5013C434.646 30.0595 434.646 32.5266 436.08 33.9549C437.395 35.5131 439.667 35.5131 441.102 33.9549ZM441.221 60.7033C442.656 59.1452 442.656 56.5482 441.221 54.9901C439.786 53.4319 437.395 53.4319 435.961 54.9901C434.526 56.5482 434.526 59.1452 435.961 60.7033C437.395 62.2615 439.667 62.2615 441.221 60.7033ZM435.961 113.811C437.395 115.369 439.786 115.369 441.221 113.811C442.656 112.252 442.656 109.656 441.221 108.097C439.786 106.539 437.395 106.539 435.961 108.097C434.526 109.785 434.526 112.252 435.961 113.811ZM436.08 134.976C434.765 136.404 434.765 138.871 436.08 140.299C437.395 141.728 439.667 141.728 440.982 140.299C442.297 138.871 442.297 136.404 440.982 134.976C439.667 133.547 437.395 133.547 436.08 134.976ZM441.102 87.1921C442.536 85.6339 442.536 83.1668 441.102 81.6086C439.667 80.0505 437.395 80.0505 435.961 81.6086C434.526 83.1668 434.526 85.6339 435.961 87.1921C437.395 88.7502 439.667 88.7502 441.102 87.1921ZM441.341 167.307C442.895 165.619 442.895 162.893 441.341 161.205C439.786 159.517 437.276 159.517 435.722 161.205C434.167 162.893 434.167 165.619 435.722 167.307C437.276 168.995 439.786 168.995 441.341 167.307ZM441.341 193.926C442.895 192.238 442.895 189.381 441.341 187.693C439.786 186.005 437.156 186.005 435.602 187.693C434.048 189.381 434.048 192.238 435.602 193.926C437.276 195.614 439.786 195.614 441.341 193.926ZM436.08 214.831C434.765 216.26 434.765 218.727 436.08 220.155C437.395 221.583 439.667 221.583 440.982 220.155C442.297 218.727 442.297 216.26 440.982 214.831C439.667 213.273 437.395 213.273 436.08 214.831ZM441.46 247.293C443.134 245.475 443.134 242.619 441.46 240.801C439.787 238.983 437.156 238.983 435.483 240.801C433.809 242.619 433.809 245.475 435.483 247.293C437.156 249.111 439.906 249.111 441.46 247.293ZM441.58 273.912C443.254 272.094 443.254 269.237 441.58 267.419C439.906 265.601 437.276 265.601 435.602 267.419C433.928 269.237 433.928 272.094 435.602 273.912C437.156 275.729 439.906 275.729 441.58 273.912ZM453.296 20.7105C454.731 19.1524 454.731 16.6853 453.296 15.1271C451.862 13.569 449.59 13.569 448.155 15.1271C446.721 16.6853 446.721 19.1524 448.155 20.7105C449.59 22.2687 451.981 22.2687 453.296 20.7105ZM453.535 47.459C455.09 45.771 455.09 43.174 453.535 41.486C451.981 39.798 449.59 39.798 448.036 41.486C446.482 43.174 446.482 45.771 448.036 47.459C449.59 49.147 451.981 49.147 453.535 47.459ZM448.275 68.3643C446.84 69.9224 446.84 72.3895 448.275 73.9477C449.71 75.5059 451.981 75.5059 453.416 73.9477C454.851 72.3895 454.851 69.9224 453.416 68.3643C451.981 66.8061 449.59 66.8061 448.275 68.3643ZM453.775 100.956C455.448 99.1379 455.448 96.2813 453.775 94.5933C452.101 92.7755 449.471 92.7755 447.916 94.5933C446.243 96.4112 446.243 99.2678 447.916 100.956C449.471 102.644 452.101 102.644 453.775 100.956ZM448.036 153.933C449.59 155.621 452.101 155.621 453.535 153.933C455.09 152.245 455.09 149.518 453.535 147.96C451.981 146.272 449.471 146.272 448.036 147.96C446.482 149.648 446.482 152.245 448.036 153.933ZM448.275 174.709C446.84 176.267 446.84 178.734 448.275 180.292C449.71 181.85 451.981 181.85 453.416 180.292C454.851 178.734 454.851 176.267 453.416 174.709C451.981 173.28 449.59 173.28 448.275 174.709ZM448.036 127.315C449.59 129.003 452.101 129.003 453.655 127.315C455.209 125.627 455.209 122.9 453.655 121.212C452.101 119.524 449.59 119.524 448.036 121.212C446.482 123.03 446.482 125.757 448.036 127.315ZM453.775 207.43C455.448 205.612 455.448 202.756 453.775 200.938C452.101 199.12 449.471 199.12 447.797 200.938C446.123 202.756 446.123 205.612 447.797 207.43C449.471 209.248 452.101 209.248 453.775 207.43ZM447.916 287.026C449.471 288.714 452.101 288.714 453.655 287.026C455.209 285.338 455.209 282.481 453.655 280.793C452.101 279.105 449.471 279.105 447.916 280.793C446.362 282.611 446.362 285.338 447.916 287.026ZM447.916 307.412C446.362 309.1 446.362 311.957 447.916 313.645C449.471 315.333 452.101 315.333 453.655 313.645C455.209 311.957 455.209 309.1 453.655 307.412C452.101 305.724 449.471 305.724 447.916 307.412ZM453.535 260.278C455.09 258.59 455.09 255.993 453.535 254.435C451.981 252.747 449.59 252.747 448.036 254.435C446.482 256.123 446.482 258.72 448.036 260.278C449.59 261.966 451.981 261.966 453.535 260.278ZM447.916 233.919C449.471 235.607 452.101 235.607 453.655 233.919C455.209 232.231 455.209 229.374 453.655 227.686C452.101 225.998 449.471 225.998 447.916 227.686C446.362 229.374 446.362 232.101 447.916 233.919ZM453.894 340.523C455.568 338.705 455.568 335.719 453.894 333.901C452.22 332.083 449.471 332.083 447.797 333.901C446.123 335.719 446.123 338.705 447.797 340.523C449.471 342.341 452.101 342.341 453.894 340.523ZM465.969 7.85573C467.643 6.03787 467.643 3.18124 465.969 1.36339C464.295 -0.454463 461.665 -0.454463 459.991 1.36339C458.318 3.18124 458.318 6.03787 459.991 7.85573C461.665 9.67358 464.415 9.67358 465.969 7.85573ZM465.491 55.1199C464.056 53.5618 461.904 53.5618 460.47 55.1199C459.035 56.6781 459.035 59.0153 460.47 60.5735C461.904 62.1316 464.056 62.1316 465.491 60.5735C466.926 59.0153 466.926 56.6781 465.491 55.1199ZM465.491 33.9549C466.806 32.3967 466.806 30.0595 465.491 28.5013C464.176 27.073 461.904 27.073 460.47 28.5013C459.035 29.9297 459.035 32.3967 460.47 33.9549C461.904 35.3832 464.176 35.3832 465.491 33.9549ZM460.589 81.7385C459.274 83.1668 459.274 85.6339 460.589 87.0622C461.904 88.4905 464.176 88.4905 465.491 87.0622C466.806 85.6339 466.806 83.1668 465.491 81.7385C464.176 80.3102 461.904 80.3102 460.589 81.7385ZM465.85 107.968C464.295 106.28 461.665 106.28 460.111 107.968C458.557 109.656 458.557 112.512 460.111 114.2C461.665 115.888 464.295 115.888 465.85 114.2C467.523 112.382 467.523 109.656 465.85 107.968ZM465.969 134.456C464.415 132.768 461.785 132.768 460.231 134.456C458.676 136.144 458.676 139.001 460.231 140.689C461.785 142.377 464.415 142.377 465.969 140.689C467.523 139.001 467.523 136.274 465.969 134.456ZM465.969 167.437C467.643 165.619 467.643 162.763 465.969 160.945C464.295 159.127 461.665 159.127 459.991 160.945C458.318 162.763 458.318 165.619 459.991 167.437C461.665 169.255 464.415 169.255 465.969 167.437ZM460.111 187.693C458.437 189.511 458.437 192.368 460.111 194.056C461.785 195.874 464.415 195.874 465.969 194.056C467.643 192.238 467.643 189.381 465.969 187.693C464.295 185.876 461.665 185.876 460.111 187.693ZM466.089 220.674C467.763 218.857 467.763 216 466.089 214.182C464.415 212.364 461.785 212.364 460.111 214.182C458.437 216 458.437 218.857 460.111 220.674C461.665 222.492 464.415 222.492 466.089 220.674ZM460.231 326.889C461.785 328.577 464.295 328.577 465.85 326.889C467.404 325.201 467.404 322.474 465.85 320.786C464.295 319.098 461.785 319.098 460.231 320.786C458.676 322.474 458.676 325.201 460.231 326.889ZM460.35 347.535C458.796 349.223 458.796 351.82 460.35 353.378C461.904 355.066 464.295 355.066 465.73 353.378C467.284 351.69 467.284 349.093 465.73 347.535C464.295 345.847 461.785 345.847 460.35 347.535ZM459.991 300.53C461.665 302.348 464.295 302.348 465.969 300.53C467.643 298.712 467.643 295.856 465.969 294.038C464.295 292.22 461.665 292.22 459.991 294.038C458.437 295.856 458.437 298.712 459.991 300.53ZM460.35 247.033C461.904 248.721 464.295 248.721 465.85 247.033C467.404 245.345 467.404 242.748 465.85 241.06C464.295 239.372 461.904 239.372 460.35 241.06C458.796 242.748 458.796 245.345 460.35 247.033ZM460.35 267.679C458.796 269.367 458.796 271.964 460.35 273.522C461.904 275.21 464.295 275.21 465.73 273.522C467.284 271.834 467.284 269.237 465.73 267.679C464.295 266.121 461.785 266.121 460.35 267.679ZM466.089 380.386C467.763 378.568 467.763 375.711 466.089 373.894C464.415 372.076 461.785 372.076 460.111 373.894C458.437 375.711 458.437 378.568 460.111 380.386C461.665 382.204 464.415 382.204 466.089 380.386ZM460.35 400.772C458.915 402.33 458.915 405.057 460.35 406.615C461.785 408.173 464.295 408.173 465.73 406.615C467.165 405.057 467.165 402.33 465.73 400.772C464.295 399.084 461.785 399.084 460.35 400.772ZM466.089 433.493C467.763 431.675 467.763 428.819 466.089 427.001C464.415 425.183 461.785 425.183 460.111 427.001C458.437 428.819 458.437 431.675 460.111 433.493C461.665 435.311 464.415 435.311 466.089 433.493ZM477.805 20.7105C479.24 19.1524 479.24 16.6853 477.805 15.1271C476.371 13.569 474.099 13.569 472.664 15.1271C471.23 16.6853 471.23 19.1524 472.664 20.7105C474.099 22.2687 476.371 22.2687 477.805 20.7105ZM478.044 47.459C479.599 45.771 479.599 43.174 478.044 41.486C476.49 39.798 474.099 39.798 472.545 41.486C470.991 43.174 470.991 45.771 472.545 47.459C474.099 49.147 476.49 49.147 478.044 47.459ZM472.545 68.2344C471.11 69.7926 471.11 72.3895 472.545 74.0775C473.98 75.6357 476.371 75.6357 477.925 74.0775C479.36 72.5194 479.36 69.9224 477.925 68.2344C476.49 66.6763 474.099 66.6763 472.545 68.2344ZM478.164 100.826C479.718 99.138 479.718 96.4112 478.164 94.5933C476.61 92.9053 474.099 92.9053 472.425 94.5933C470.871 96.2813 470.871 99.0081 472.425 100.826C473.98 102.514 476.61 102.514 478.164 100.826ZM478.044 147.96C476.49 146.272 474.099 146.272 472.545 147.96C470.991 149.648 470.991 152.245 472.545 153.933C474.099 155.621 476.49 155.621 478.044 153.933C479.599 152.245 479.599 149.648 478.044 147.96ZM477.925 127.185C479.36 125.627 479.36 123.03 477.925 121.472C476.49 119.913 474.099 119.913 472.664 121.472C471.23 123.03 471.23 125.627 472.664 127.185C474.099 128.743 476.49 128.743 477.925 127.185ZM478.044 174.449C476.49 172.761 473.98 172.761 472.425 174.449C470.871 176.137 470.871 178.864 472.425 180.552C473.98 182.24 476.49 182.24 478.044 180.552C479.718 178.864 479.718 176.137 478.044 174.449ZM478.164 207.3C479.718 205.612 479.718 202.756 478.164 201.068C476.61 199.38 473.98 199.38 472.425 201.068C470.871 202.756 470.871 205.612 472.425 207.3C473.98 208.988 476.61 208.988 478.164 207.3ZM472.784 227.946C471.349 229.504 471.349 231.971 472.784 233.399C474.219 234.958 476.49 234.958 477.805 233.399C479.24 231.841 479.24 229.374 477.805 227.946C476.371 226.518 474.099 226.518 472.784 227.946ZM478.284 260.537C479.957 258.72 479.957 255.863 478.284 254.045C476.61 252.227 473.979 252.227 472.306 254.045C470.632 255.863 470.632 258.72 472.306 260.537C473.979 262.355 476.61 262.355 478.284 260.537ZM472.545 393.371C474.099 395.059 476.49 395.059 478.044 393.371C479.599 391.683 479.599 389.086 478.044 387.398C476.49 385.71 474.099 385.71 472.545 387.398C470.991 389.086 470.991 391.683 472.545 393.371ZM472.545 414.016C471.11 415.574 471.11 418.171 472.545 419.859C473.98 421.417 476.371 421.417 477.925 419.859C479.36 418.301 479.36 415.704 477.925 414.016C476.49 412.458 474.099 412.458 472.545 414.016ZM477.805 307.802C476.371 306.243 474.099 306.243 472.784 307.802C471.349 309.36 471.349 311.827 472.784 313.255C474.219 314.813 476.49 314.813 477.805 313.255C479.24 311.827 479.24 309.36 477.805 307.802ZM477.805 286.637C479.12 285.208 479.12 282.741 477.805 281.313C476.49 279.885 474.219 279.885 472.904 281.313C471.588 282.741 471.588 285.208 472.904 286.637C474.219 288.195 476.371 288.195 477.805 286.637ZM477.805 334.42C476.371 332.862 474.099 332.862 472.664 334.42C471.23 335.978 471.23 338.445 472.664 340.004C474.099 341.562 476.371 341.562 477.805 340.004C479.24 338.445 479.24 335.978 477.805 334.42ZM477.925 360.909C476.49 359.351 474.099 359.351 472.664 360.909C471.23 362.467 471.23 365.064 472.664 366.622C474.099 368.18 476.49 368.18 477.925 366.622C479.36 365.064 479.36 362.467 477.925 360.909ZM478.284 446.867C479.957 445.05 479.957 442.063 478.284 440.245C476.61 438.427 473.86 438.427 472.186 440.245C470.512 442.063 470.512 445.05 472.186 446.867C473.86 448.685 476.61 448.685 478.284 446.867ZM490 33.9549C491.435 32.3967 491.435 30.0595 490 28.5013C488.565 26.9432 486.413 26.9432 484.979 28.5013C483.544 30.0595 483.544 32.3967 484.979 33.9549C486.413 35.3832 488.685 35.3832 490 33.9549ZM490.359 60.8332C491.913 59.1452 491.913 56.4184 490.359 54.7304C488.804 53.0424 486.294 53.0424 484.74 54.7304C483.185 56.4184 483.185 59.1452 484.74 60.8332C486.294 62.5212 488.804 62.5212 490.359 60.8332ZM484.979 81.6086C483.544 83.1668 483.544 85.6339 484.979 87.1921C486.413 88.7502 488.685 88.7502 490.12 87.1921C491.554 85.6339 491.554 83.1668 490.12 81.6086C488.685 80.1803 486.413 80.1803 484.979 81.6086ZM490.478 114.2C492.152 112.382 492.152 109.526 490.478 107.838C488.804 106.02 486.174 106.02 484.62 107.838C482.946 109.656 482.946 112.512 484.62 114.2C486.174 116.018 488.804 116.018 490.478 114.2ZM502.673 47.5888C504.227 45.9008 504.227 43.0442 502.673 41.3562C501.119 39.6682 498.488 39.6682 496.934 41.3562C495.38 43.0442 495.38 45.9008 496.934 47.5888C498.488 49.4067 501.119 49.4067 502.673 47.5888ZM496.934 74.2074C498.488 75.8954 500.999 75.8954 502.673 74.2074C504.227 72.5194 504.227 69.7926 502.673 67.9747C501.119 66.2867 498.608 66.2867 496.934 67.9747C495.38 69.7926 495.38 72.5194 496.934 74.2074ZM497.293 95.1127C495.978 96.541 495.978 99.0081 497.293 100.436C498.608 101.865 500.88 101.865 502.195 100.436C503.51 99.0081 503.51 96.541 502.195 95.1127C500.88 93.5545 498.728 93.5545 497.293 95.1127ZM502.792 127.704C504.466 125.886 504.466 122.9 502.792 121.082C501.119 119.264 498.369 119.264 496.695 121.082C495.021 122.9 495.021 125.886 496.695 127.704C498.369 129.522 501.119 129.522 502.792 127.704ZM496.934 393.371C498.488 395.059 500.999 395.059 502.553 393.371C504.108 391.683 504.108 388.956 502.553 387.268C500.999 385.58 498.488 385.58 496.934 387.268C495.38 388.956 495.5 391.683 496.934 393.371ZM497.293 414.276C495.858 415.834 495.858 418.301 497.293 419.729C498.728 421.288 500.999 421.288 502.314 419.729C503.749 418.171 503.749 415.704 502.314 414.276C500.88 412.718 498.608 412.718 497.293 414.276ZM496.815 367.012C498.488 368.83 501.119 368.83 502.792 367.012C504.466 365.194 504.466 362.337 502.792 360.519C501.119 358.701 498.488 358.701 496.815 360.519C495.141 362.337 495.141 365.194 496.815 367.012ZM502.314 201.327C500.88 199.769 498.608 199.769 497.173 201.327C495.739 202.885 495.739 205.353 497.173 206.911C498.608 208.469 500.88 208.469 502.314 206.911C503.749 205.353 503.749 202.885 502.314 201.327ZM502.314 180.292C503.749 178.734 503.749 176.267 502.314 174.709C500.88 173.151 498.608 173.151 497.173 174.709C495.739 176.267 495.739 178.734 497.173 180.292C498.608 181.85 500.88 181.85 502.314 180.292ZM497.173 153.803C498.608 155.362 500.999 155.362 502.434 153.803C503.868 152.245 503.868 149.648 502.434 148.09C500.999 146.532 498.608 146.532 497.173 148.09C495.739 149.648 495.739 152.245 497.173 153.803ZM502.434 227.816C500.88 226.128 498.488 226.128 497.054 227.816C495.5 229.504 495.5 232.101 497.054 233.659C498.608 235.347 500.999 235.347 502.434 233.659C503.988 232.101 503.988 229.374 502.434 227.816ZM497.293 313.255C498.728 314.813 500.999 314.813 502.314 313.255C503.749 311.697 503.749 309.23 502.314 307.802C500.88 306.243 498.608 306.243 497.293 307.802C495.858 309.36 495.858 311.827 497.293 313.255ZM497.293 334.42C495.858 335.978 495.858 338.445 497.293 339.874C498.728 341.432 500.999 341.432 502.314 339.874C503.749 338.316 503.749 335.848 502.314 334.42C500.88 332.862 498.608 332.862 497.293 334.42ZM497.173 286.766C498.608 288.325 500.88 288.325 502.314 286.766C503.749 285.208 503.749 282.741 502.314 281.183C500.88 279.625 498.608 279.625 497.173 281.183C495.739 282.741 495.739 285.208 497.173 286.766ZM497.054 260.278C498.608 261.966 500.999 261.966 502.434 260.278C503.988 258.59 503.988 255.993 502.434 254.435C500.88 252.747 498.488 252.747 497.054 254.435C495.619 255.993 495.619 258.72 497.054 260.278ZM502.792 446.867C504.466 445.05 504.466 442.063 502.792 440.245C501.119 438.427 498.369 438.427 496.695 440.245C495.021 442.063 495.021 445.05 496.695 446.867C498.369 448.685 501.119 448.685 502.792 446.867ZM514.748 60.8332C516.302 59.1452 516.302 56.5482 514.748 54.8602C513.194 53.1722 510.803 53.1722 509.249 54.8602C507.694 56.5482 507.694 59.1452 509.249 60.8332C510.803 62.3913 513.194 62.3913 514.748 60.8332ZM509.488 81.7385C508.053 83.2967 508.053 85.6339 509.488 87.1921C510.922 88.7502 513.074 88.7502 514.509 87.1921C515.944 85.6339 515.944 83.2967 514.509 81.7385C513.194 80.1803 510.922 80.1803 509.488 81.7385ZM514.868 114.2C516.422 112.512 516.422 109.656 514.868 107.968C513.313 106.28 510.683 106.28 509.129 107.968C507.575 109.656 507.575 112.512 509.129 114.2C510.683 115.888 513.313 115.888 514.868 114.2ZM509.368 326.759C510.803 328.317 513.313 328.317 514.748 326.759C516.183 325.201 516.183 322.474 514.748 320.916C513.313 319.358 510.803 319.358 509.368 320.916C507.814 322.604 507.814 325.201 509.368 326.759ZM509.368 347.535C507.933 349.093 507.933 351.69 509.368 353.248C510.803 354.806 513.194 354.806 514.629 353.248C516.063 351.69 516.063 349.093 514.629 347.535C513.194 345.977 510.803 345.977 509.368 347.535ZM514.748 300.141C516.183 298.582 516.183 295.856 514.748 294.298C513.313 292.739 510.803 292.739 509.368 294.298C507.933 295.856 507.933 298.582 509.368 300.141C510.803 301.829 513.194 301.829 514.748 300.141ZM509.249 273.652C510.803 275.34 513.313 275.34 514.748 273.652C516.302 271.964 516.302 269.237 514.748 267.679C513.194 265.991 510.683 265.991 509.249 267.679C507.694 269.367 507.694 271.964 509.249 273.652ZM514.629 214.702C513.194 213.143 510.922 213.143 509.488 214.702C508.053 216.26 508.053 218.727 509.488 220.285C510.922 221.843 513.194 221.843 514.629 220.285C515.944 218.727 515.944 216.26 514.629 214.702ZM514.509 193.536C515.824 192.108 515.824 189.641 514.509 188.213C513.194 186.784 510.922 186.784 509.607 188.213C508.292 189.641 508.292 192.108 509.607 193.536C510.922 194.965 513.074 194.965 514.509 193.536ZM514.629 241.32C513.194 239.762 510.922 239.762 509.488 241.32C508.053 242.878 508.053 245.345 509.488 246.904C510.922 248.462 513.194 248.462 514.629 246.904C516.063 245.345 516.063 242.748 514.629 241.32ZM509.249 167.307C510.803 168.995 513.313 168.995 514.868 167.307C516.422 165.619 516.422 162.893 514.868 161.205C513.313 159.517 510.803 159.517 509.249 161.205C507.694 162.893 507.694 165.619 509.249 167.307ZM514.748 140.689C516.302 139.001 516.302 136.404 514.748 134.716C513.194 133.028 510.803 133.028 509.249 134.716C507.694 136.404 507.694 139.001 509.249 140.689C510.803 142.377 513.313 142.247 514.748 140.689ZM514.868 380.256C516.422 378.568 516.422 375.711 514.868 374.023C513.313 372.335 510.683 372.335 509.129 374.023C507.575 375.711 507.575 378.568 509.129 380.256C510.683 381.944 513.313 381.944 514.868 380.256ZM514.987 406.875C516.661 405.057 516.661 402.2 514.987 400.512C513.313 398.694 510.683 398.694 509.129 400.512C507.455 402.33 507.455 405.187 509.129 406.875C510.683 408.563 513.313 408.563 514.987 406.875ZM509.488 427.52C508.053 429.078 508.053 431.416 509.488 432.974C510.922 434.532 513.074 434.532 514.509 432.974C515.944 431.416 515.944 429.078 514.509 427.52C513.194 426.092 510.922 426.092 509.488 427.52ZM514.987 460.112C516.661 458.294 516.661 455.437 514.987 453.619C513.313 451.802 510.683 451.802 509.009 453.619C507.336 455.437 507.336 458.294 509.009 460.112C510.683 461.93 513.313 461.93 514.987 460.112ZM527.182 74.3372C528.856 72.5194 528.856 69.6628 527.182 67.8449C525.508 66.027 522.878 66.027 521.204 67.8449C519.53 69.6628 519.53 72.5194 521.204 74.3372C522.997 76.1551 525.628 76.1551 527.182 74.3372ZM527.301 100.956C528.975 99.1379 528.975 96.2813 527.301 94.4635C525.628 92.6456 522.997 92.6456 521.324 94.4635C519.65 96.2813 519.65 99.1379 521.324 100.956C522.878 102.774 525.628 102.774 527.301 100.956ZM521.563 121.342C520.009 123.03 520.009 125.627 521.563 127.315C523.117 129.003 525.508 129.003 527.062 127.315C528.617 125.627 528.617 123.03 527.062 121.342C525.508 119.654 522.997 119.654 521.563 121.342ZM527.301 154.193C528.975 152.375 528.975 149.518 527.301 147.701C525.628 145.883 522.997 145.883 521.324 147.701C519.65 149.518 519.65 152.375 521.324 154.193C522.878 156.011 525.628 156.011 527.301 154.193ZM527.182 254.305C525.628 252.617 522.997 252.617 521.443 254.305C519.889 255.993 519.889 258.849 521.443 260.537C522.997 262.225 525.628 262.225 527.182 260.537C528.736 258.72 528.736 255.993 527.182 254.305ZM526.823 233.529C528.258 231.971 528.258 229.374 526.823 227.816C525.389 226.258 522.997 226.258 521.563 227.816C520.128 229.374 520.128 231.971 521.563 233.529C523.117 235.217 525.389 235.217 526.823 233.529ZM526.943 307.672C525.508 306.114 523.117 306.114 521.682 307.672C520.248 309.23 520.248 311.827 521.682 313.385C523.117 314.943 525.508 314.943 526.943 313.385C528.377 311.827 528.377 309.23 526.943 307.672ZM526.823 286.637C528.258 285.078 528.258 282.741 526.823 281.183C525.389 279.625 523.237 279.625 521.802 281.183C520.367 282.741 520.367 285.078 521.802 286.637C523.117 288.195 525.389 288.195 526.823 286.637ZM526.943 334.29C525.508 332.732 523.117 332.732 521.682 334.29C520.248 335.848 520.248 338.445 521.682 340.004C523.117 341.562 525.508 341.562 526.943 340.004C528.377 338.445 528.377 335.848 526.943 334.29ZM527.182 360.649C525.628 358.961 522.997 358.961 521.324 360.649C519.769 362.337 519.769 365.194 521.324 367.012C522.878 368.83 525.508 368.7 527.182 367.012C528.736 365.194 528.736 362.337 527.182 360.649ZM521.324 207.3C522.997 209.118 525.628 209.118 527.182 207.3C528.856 205.482 528.856 202.626 527.182 200.938C525.508 199.12 522.878 199.12 521.324 200.938C519.65 202.756 519.65 205.612 521.324 207.3ZM526.943 180.422C528.377 178.864 528.377 176.267 526.943 174.709C525.508 173.151 523.117 173.151 521.682 174.709C520.248 176.267 520.248 178.864 521.682 180.422C523.117 181.98 525.389 181.98 526.943 180.422ZM527.301 393.63C528.975 391.812 528.975 388.826 527.301 387.008C525.628 385.19 522.878 385.19 521.204 387.008C519.53 388.826 519.53 391.812 521.204 393.63C522.878 395.448 525.628 395.448 527.301 393.63ZM539.496 87.5816C541.17 85.7637 541.17 82.9071 539.496 81.2191C537.822 79.4013 535.192 79.4013 533.638 81.2191C531.964 83.037 531.964 85.8936 533.638 87.5816C535.192 89.3995 537.822 89.3995 539.496 87.5816ZM539.018 161.464C537.583 159.906 535.431 159.906 533.997 161.464C532.562 163.023 532.562 165.36 533.997 166.918C535.431 168.476 537.583 168.476 539.018 166.918C540.453 165.49 540.453 163.023 539.018 161.464ZM539.018 140.299C540.333 138.871 540.333 136.404 539.018 134.976C537.703 133.547 535.431 133.547 534.116 134.976C532.801 136.404 532.801 138.871 534.116 140.299C535.431 141.858 537.583 141.858 539.018 140.299ZM533.997 113.811C535.431 115.369 537.703 115.369 539.018 113.811C540.453 112.252 540.453 109.785 539.018 108.357C537.583 106.929 535.312 106.799 533.997 108.357C532.562 109.785 532.562 112.252 533.997 113.811ZM539.377 187.823C537.822 186.135 535.312 186.135 533.757 187.823C532.203 189.511 532.203 192.238 533.757 194.056C535.312 195.744 537.822 195.744 539.377 194.056C540.931 192.238 540.931 189.511 539.377 187.823ZM533.757 214.442C532.203 216.13 532.203 218.727 533.757 220.415C535.312 222.103 537.703 222.103 539.257 220.415C540.811 218.727 540.811 216.13 539.257 214.442C537.703 212.754 535.312 212.754 533.757 214.442ZM539.496 240.931C537.822 239.113 535.312 239.113 533.638 240.931C531.964 242.748 531.964 245.605 533.638 247.293C535.312 249.111 537.822 249.111 539.496 247.293C541.05 245.475 541.05 242.619 539.496 240.931ZM539.496 267.419C537.822 265.601 535.192 265.601 533.638 267.419C531.964 269.237 531.964 272.094 533.638 273.782C535.312 275.6 537.942 275.6 539.496 273.782C541.05 272.094 541.05 269.237 539.496 267.419ZM539.616 300.53C541.289 298.712 541.289 295.726 539.616 293.908C537.942 292.09 535.192 292.09 533.518 293.908C531.845 295.726 531.845 298.712 533.518 300.53C535.192 302.348 537.822 302.348 539.616 300.53ZM551.81 100.956C553.484 99.1379 553.484 96.2813 551.81 94.4635C550.137 92.6456 547.506 92.6456 545.833 94.4635C544.159 96.2813 544.159 99.1379 545.833 100.956C547.387 102.774 550.137 102.774 551.81 100.956ZM546.072 180.422C547.506 181.98 549.898 181.98 551.332 180.422C552.767 178.864 552.767 176.267 551.332 174.709C549.898 173.151 547.506 173.151 546.072 174.709C544.637 176.267 544.637 178.864 546.072 180.422ZM546.072 201.327C544.637 202.885 544.637 205.482 546.072 207.041C547.506 208.599 549.898 208.599 551.332 207.041C552.767 205.482 552.767 202.885 551.332 201.327C549.898 199.639 547.626 199.639 546.072 201.327ZM546.072 153.933C547.626 155.621 550.017 155.621 551.571 153.933C553.126 152.245 553.126 149.648 551.571 147.96C550.017 146.272 547.626 146.272 546.072 147.96C544.518 149.648 544.518 152.245 546.072 153.933ZM551.332 127.055C552.767 125.497 552.767 123.16 551.332 121.601C549.898 120.043 547.745 120.043 546.311 121.601C544.876 123.16 544.876 125.497 546.311 127.055C547.745 128.613 549.898 128.613 551.332 127.055ZM551.81 234.049C553.484 232.231 553.484 229.244 551.81 227.426C550.137 225.609 547.387 225.609 545.713 227.426C544.039 229.244 544.039 232.231 545.713 234.049C547.387 235.867 550.137 235.867 551.81 234.049ZM564.005 114.2C565.679 112.382 565.679 109.526 564.005 107.838C562.331 106.02 559.701 106.02 558.147 107.838C556.473 109.656 556.473 112.512 558.147 114.2C559.701 116.018 562.331 116.018 564.005 114.2ZM558.386 140.559C559.821 142.117 562.212 142.117 563.766 140.559C565.201 139.001 565.201 136.404 563.766 134.716C562.331 133.158 559.94 133.158 558.386 134.716C556.832 136.274 556.832 139.001 558.386 140.559ZM558.506 161.594C557.19 163.023 557.19 165.49 558.506 167.048C559.821 168.476 562.092 168.476 563.527 167.048C564.842 165.619 564.842 163.152 563.527 161.594C562.092 160.036 559.94 160.036 558.506 161.594ZM564.005 194.056C565.679 192.238 565.679 189.381 564.005 187.564C562.331 185.746 559.701 185.746 558.027 187.564C556.354 189.381 556.354 192.238 558.027 194.056C559.701 195.874 562.331 195.874 564.005 194.056ZM563.766 267.679C562.212 265.991 559.821 265.991 558.386 267.679C556.832 269.367 556.832 271.964 558.386 273.522C559.94 275.21 562.331 275.21 563.766 273.522C565.201 271.964 565.201 269.367 563.766 267.679ZM563.527 246.774C564.962 245.215 564.962 242.748 563.527 241.19C562.092 239.632 559.821 239.632 558.386 241.19C556.951 242.748 556.951 245.215 558.386 246.774C559.821 248.332 562.092 248.332 563.527 246.774ZM563.646 320.916C562.212 319.358 559.821 319.358 558.266 320.916C556.832 322.474 556.832 325.071 558.266 326.759C559.701 328.317 562.092 328.317 563.646 326.759C565.201 325.201 565.201 322.604 563.646 320.916ZM563.646 300.011C565.081 298.453 565.081 295.986 563.646 294.427C562.212 292.869 559.94 292.869 558.506 294.427C557.071 295.986 557.071 298.453 558.506 300.011C559.821 301.569 562.212 301.569 563.646 300.011ZM563.886 347.405C562.331 345.717 559.821 345.717 558.147 347.405C556.593 349.093 556.593 351.82 558.147 353.637C559.701 355.325 562.212 355.325 563.886 353.637C565.44 351.82 565.44 349.093 563.886 347.405ZM558.027 220.674C559.701 222.492 562.331 222.492 564.005 220.674C565.679 218.857 565.679 216 564.005 214.182C562.331 212.364 559.701 212.364 558.027 214.182C556.354 216 556.354 218.857 558.027 220.674ZM564.005 380.386C565.679 378.568 565.679 375.582 564.005 373.894C562.331 372.076 559.582 372.076 558.027 373.894C556.354 375.711 556.354 378.698 558.027 380.386C559.701 382.204 562.331 382.204 564.005 380.386ZM576.08 127.445C577.634 125.757 577.634 123.03 576.08 121.342C574.526 119.654 572.015 119.654 570.461 121.342C568.907 123.03 568.907 125.757 570.461 127.445C572.015 129.133 574.526 129.133 576.08 127.445ZM570.7 148.22C569.266 149.778 569.266 152.245 570.7 153.803C572.135 155.362 574.406 155.362 575.841 153.803C577.276 152.245 577.276 149.778 575.841 148.22C574.406 146.662 572.135 146.662 570.7 148.22ZM576.2 180.682C577.754 178.864 577.754 176.137 576.2 174.319C574.526 172.501 572.015 172.501 570.342 174.319C568.787 176.007 568.787 178.864 570.342 180.682C571.896 182.5 574.526 182.5 576.2 180.682ZM570.581 201.197C569.026 202.885 569.026 205.482 570.581 207.17C572.135 208.858 574.526 208.858 576.08 207.17C577.634 205.482 577.634 202.885 576.08 201.197C574.526 199.509 572.015 199.509 570.581 201.197ZM576.319 234.049C577.993 232.231 577.993 229.244 576.319 227.426C574.646 225.609 571.896 225.609 570.222 227.426C568.548 229.244 568.548 232.231 570.222 234.049C571.896 235.867 574.646 235.867 576.319 234.049ZM588.155 140.429C589.59 138.871 589.59 136.404 588.155 134.846C586.721 133.288 584.449 133.288 583.015 134.846C581.58 136.404 581.58 138.871 583.015 140.429C584.33 141.987 586.721 141.987 588.155 140.429ZM588.514 167.437C590.188 165.619 590.188 162.763 588.514 161.075C586.84 159.257 584.21 159.257 582.656 161.075C580.982 162.893 580.982 165.749 582.656 167.437C584.21 169.255 586.84 169.255 588.514 167.437ZM600.35 153.674C601.785 152.115 601.785 149.648 600.35 148.09C598.915 146.532 596.644 146.532 595.209 148.09C593.775 149.648 593.775 152.115 595.209 153.674C596.644 155.232 598.915 155.232 600.35 153.674ZM600.35 180.422C601.785 178.864 601.785 176.267 600.35 174.709C598.915 173.151 596.524 173.151 595.09 174.709C593.655 176.267 593.655 178.864 595.09 180.422C596.524 181.98 598.915 181.98 600.35 180.422ZM600.828 207.43C602.502 205.612 602.502 202.626 600.828 200.938C599.155 199.25 596.405 199.12 594.851 200.938C593.177 202.756 593.177 205.742 594.851 207.43C596.405 209.248 599.155 209.248 600.828 207.43ZM612.784 167.307C614.338 165.619 614.338 162.893 612.784 161.205C611.23 159.517 608.719 159.517 607.165 161.205C605.611 162.893 605.611 165.619 607.165 167.307C608.719 168.995 611.23 168.995 612.784 167.307ZM613.023 194.056C614.697 192.238 614.697 189.381 613.023 187.564C611.349 185.746 608.719 185.746 607.045 187.564C605.372 189.381 605.372 192.238 607.045 194.056C608.719 195.874 611.349 195.874 613.023 194.056ZM607.284 300.141C608.719 301.699 611.11 301.699 612.664 300.141C614.099 298.582 614.099 295.986 612.664 294.298C611.23 292.739 608.839 292.739 607.284 294.298C605.85 295.986 605.85 298.582 607.284 300.141ZM607.404 321.046C605.969 322.604 605.969 325.071 607.404 326.629C608.839 328.188 611.11 328.188 612.545 326.629C613.979 325.071 613.979 322.604 612.545 321.046C611.11 319.618 608.839 319.618 607.404 321.046ZM607.404 246.774C608.839 248.332 611.11 248.332 612.545 246.774C613.979 245.215 613.979 242.748 612.545 241.19C611.11 239.632 608.839 239.632 607.404 241.19C606.089 242.878 606.089 245.345 607.404 246.774ZM607.523 267.939C606.089 269.497 606.089 271.834 607.523 273.392C608.958 274.95 611.11 274.95 612.545 273.392C613.979 271.834 613.979 269.497 612.545 267.939C611.11 266.51 608.839 266.51 607.523 267.939ZM607.404 220.285C608.839 221.843 611.11 221.843 612.545 220.285C613.979 218.727 613.979 216.26 612.545 214.702C611.11 213.143 608.839 213.143 607.404 214.702C605.969 216.13 605.969 218.727 607.404 220.285ZM613.023 353.767C614.697 351.949 614.697 348.963 613.023 347.145C611.349 345.327 608.599 345.327 606.926 347.145C605.252 348.963 605.252 351.949 606.926 353.767C608.599 355.585 611.349 355.585 613.023 353.767ZM624.859 180.422C626.294 178.864 626.294 176.397 624.859 174.839C623.424 173.28 621.153 173.28 619.718 174.839C618.284 176.397 618.284 178.864 619.718 180.422C621.033 181.85 623.424 181.85 624.859 180.422ZM624.859 207.041C626.294 205.482 626.294 202.885 624.859 201.327C623.424 199.769 621.033 199.769 619.599 201.327C618.164 202.885 618.164 205.482 619.599 207.041C621.033 208.599 623.424 208.599 624.859 207.041ZM625.218 234.049C626.892 232.231 626.892 229.244 625.218 227.426C623.544 225.609 620.794 225.609 619.24 227.426C617.566 229.244 617.566 232.231 619.24 234.049C620.914 235.867 623.544 235.867 625.218 234.049ZM637.412 193.926C638.967 192.238 638.967 189.381 637.412 187.693C635.858 186.005 633.228 186.005 631.674 187.693C630.12 189.381 630.12 192.238 631.674 193.926C633.228 195.744 635.739 195.744 637.412 193.926ZM637.412 220.674C638.967 218.986 638.967 216.13 637.412 214.312C635.858 212.624 633.228 212.624 631.554 214.312C630 216 630 218.857 631.554 220.674C633.228 222.362 635.858 222.362 637.412 220.674ZM632.032 241.32C630.717 242.748 630.717 245.215 632.032 246.644C633.348 248.072 635.619 248.072 636.934 246.644C638.249 245.215 638.249 242.748 636.934 241.32C635.619 239.892 633.348 239.892 632.032 241.32ZM637.532 273.912C639.206 272.094 639.206 269.237 637.532 267.419C635.858 265.601 633.228 265.601 631.554 267.419C629.88 269.237 629.88 272.094 631.554 273.912C633.108 275.729 635.858 275.729 637.532 273.912ZM632.032 294.557C630.717 295.986 630.717 298.453 632.032 299.881C633.348 301.309 635.619 301.309 636.934 299.881C638.249 298.453 638.249 295.986 636.934 294.557C635.619 293.129 633.348 293.129 632.032 294.557ZM637.532 327.149C639.206 325.331 639.206 322.344 637.532 320.527C635.858 318.709 633.108 318.709 631.435 320.527C629.761 322.344 629.761 325.331 631.435 327.149C633.108 328.967 635.858 328.967 637.532 327.149ZM649.249 206.911C650.683 205.353 650.683 202.885 649.249 201.327C647.814 199.769 645.542 199.769 644.108 201.327C642.673 202.885 642.673 205.353 644.108 206.911C645.542 208.469 647.933 208.469 649.249 206.911ZM649.607 233.919C651.161 232.231 651.161 229.374 649.607 227.686C648.053 225.998 645.423 225.998 643.868 227.686C642.314 229.374 642.314 232.231 643.868 233.919C645.423 235.607 648.053 235.607 649.607 233.919ZM661.682 220.415C663.237 218.727 663.237 216.13 661.682 214.442C660.128 212.754 657.737 212.754 656.183 214.442C654.629 216.13 654.629 218.727 656.183 220.415C657.737 222.103 660.248 222.103 661.682 220.415ZM662.041 247.293C663.715 245.475 663.715 242.489 662.041 240.671C660.367 238.853 657.617 238.853 655.944 240.671C654.27 242.489 654.27 245.475 655.944 247.293C657.617 249.111 660.367 249.111 662.041 247.293ZM673.997 233.659C675.431 232.101 675.431 229.374 673.997 227.816C672.562 226.258 670.051 226.258 668.617 227.816C667.182 229.374 667.182 232.101 668.617 233.659C670.051 235.347 672.442 235.347 673.997 233.659ZM674.236 260.537C675.909 258.72 675.909 255.863 674.236 254.045C672.562 252.227 669.932 252.227 668.258 254.045C666.584 255.863 666.584 258.72 668.258 260.537C669.932 262.355 672.562 262.355 674.236 260.537ZM686.55 247.293C688.224 245.475 688.224 242.489 686.55 240.671C684.876 238.853 682.126 238.853 680.453 240.671C678.779 242.489 678.779 245.475 680.453 247.293C682.126 249.111 684.876 249.111 686.55 247.293ZM698.745 254.175C697.071 252.357 694.441 252.357 692.767 254.175C691.093 255.993 691.093 258.849 692.767 260.667C694.441 262.485 697.071 262.485 698.745 260.667C700.418 258.849 700.418 255.863 698.745 254.175Z" fill="#BF1466"/>
</svg>
