<svg width="800" height="588" viewBox="0 0 800 588" fill="none" xmlns="http://www.w3.org/2000/svg">
<g opacity="0.8">
<path d="M22.2032 282.064C23.9796 280.135 23.9796 276.87 22.2032 274.941C20.427 273.012 17.421 273.012 15.6448 274.941C13.8685 276.87 13.8685 280.135 15.6448 282.064C17.421 283.993 20.2903 283.993 22.2032 282.064ZM35.7302 266.334C37.2332 264.702 37.2332 261.882 35.7302 260.25C34.2272 258.617 31.6311 258.617 30.1281 260.25C28.6251 261.882 28.6251 264.702 30.1281 266.334C31.6311 268.115 34.0906 268.115 35.7302 266.334ZM49.9402 251.346C51.5798 249.565 51.5798 246.597 49.9402 244.817C48.3006 243.036 45.5679 243.036 43.9283 244.817C42.2887 246.597 42.2887 249.565 43.9283 251.346C45.5679 253.127 48.1639 253.127 49.9402 251.346ZM49.9402 281.916C51.7165 279.987 51.7165 277.019 49.9402 275.089C48.1639 273.16 45.4313 273.16 43.655 275.089C41.8788 277.019 41.8788 279.987 43.655 281.916C45.4313 283.845 48.3006 283.845 49.9402 281.916ZM63.7404 236.061C65.3801 234.28 65.3801 231.461 63.7404 229.68C62.1008 227.899 59.5048 227.899 57.8651 229.68C56.2255 231.461 56.2255 234.28 57.8651 236.061C59.5048 237.842 62.2374 237.842 63.7404 236.061ZM63.7404 290.671C62.1008 288.89 59.6414 288.89 58.0018 290.671C56.3621 292.452 56.3621 295.123 58.0018 296.904C59.6414 298.684 62.1008 298.684 63.7404 296.904C65.2434 295.123 65.2434 292.303 63.7404 290.671ZM63.6038 266.334C65.1068 264.702 65.1068 261.882 63.6038 260.25C62.1008 258.617 59.5048 258.617 58.0018 260.25C56.4988 261.882 56.4988 264.702 58.0018 266.334C59.6414 267.966 62.1008 267.966 63.6038 266.334ZM91.8873 205.788C93.5269 204.008 93.5269 201.04 91.8873 199.111C90.2477 197.33 87.515 197.33 85.7387 199.111C84.0991 200.891 84.0991 203.859 85.7387 205.788C87.515 207.718 90.2477 207.718 91.8873 205.788ZM92.1606 236.358C93.9368 234.429 93.9368 231.313 92.1606 229.235C90.3843 227.306 87.515 227.306 85.7387 229.235C83.9625 231.164 83.9625 234.28 85.7387 236.358C87.3783 238.436 90.2477 238.436 92.1606 236.358ZM85.7387 266.631C87.3783 268.412 90.111 268.412 91.8873 266.631C93.5269 264.85 93.5269 261.882 91.8873 259.953C90.2477 258.172 87.515 258.172 85.7387 259.953C84.0991 261.882 84.0991 264.85 85.7387 266.631ZM86.012 290.671C84.3724 292.303 84.3724 295.123 86.012 296.904C87.6516 298.684 90.1111 298.684 91.7507 296.904C93.2537 295.271 93.2537 292.452 91.7507 290.671C90.1111 288.89 87.6516 288.89 86.012 290.671ZM119.898 175.367C121.537 173.586 121.537 170.619 119.898 168.838C118.258 167.057 115.525 167.057 113.886 168.838C112.246 170.619 112.246 173.586 113.886 175.367C115.525 177.148 118.121 177.148 119.898 175.367ZM120.034 205.937C121.81 204.008 121.81 200.891 120.034 198.962C118.258 197.033 115.389 197.033 113.612 198.962C111.836 200.891 111.836 204.008 113.612 205.937C115.389 207.866 118.258 207.866 120.034 205.937ZM119.898 320.795C118.258 319.015 115.525 319.015 113.886 320.795C112.246 322.576 112.246 325.544 113.886 327.325C115.525 329.106 118.258 329.106 119.898 327.325C121.537 325.544 121.537 322.725 119.898 320.795ZM119.761 296.755C121.401 294.975 121.401 292.303 119.761 290.523C118.121 288.742 115.662 288.742 114.022 290.523C112.383 292.303 112.383 294.975 114.022 296.755C115.525 298.536 118.121 298.536 119.761 296.755ZM113.749 266.779C115.525 268.708 118.395 268.708 120.034 266.779C121.81 264.85 121.81 261.734 120.034 259.953C118.258 258.024 115.389 258.024 113.749 259.953C111.973 261.734 111.973 264.85 113.749 266.779ZM119.898 236.21C121.537 234.429 121.537 231.461 119.898 229.532C118.258 227.751 115.525 227.751 113.749 229.532C112.109 231.313 112.109 234.28 113.749 236.21C115.525 237.99 118.258 237.99 119.898 236.21ZM133.698 160.082C135.337 158.302 135.337 155.482 133.698 153.701C132.058 151.921 129.462 151.921 127.822 153.701C126.183 155.482 126.183 158.302 127.822 160.082C129.599 161.863 132.195 161.863 133.698 160.082ZM127.959 184.123C126.319 185.903 126.319 188.723 127.959 190.355C129.599 192.136 132.195 192.136 133.698 190.355C135.337 188.574 135.337 185.755 133.698 184.123C132.195 182.342 129.599 182.342 127.959 184.123ZM134.108 221.37C135.884 219.441 135.884 216.176 134.108 214.099C132.331 212.021 129.325 212.169 127.412 214.099C125.5 216.028 125.636 219.292 127.412 221.37C129.189 223.448 132.331 223.299 134.108 221.37ZM133.971 335.932C132.195 334.003 129.325 334.003 127.686 335.932C125.909 337.861 125.909 340.829 127.686 342.758C129.462 344.687 132.195 344.687 133.971 342.758C135.747 340.829 135.747 337.713 133.971 335.932ZM133.698 311.892C135.201 310.259 135.201 307.44 133.698 305.807C132.195 304.175 129.599 304.175 128.096 305.807C126.593 307.44 126.593 310.259 128.096 311.892C129.599 313.672 132.058 313.672 133.698 311.892ZM134.108 366.205C132.331 364.276 129.462 364.276 127.686 366.205C125.909 368.134 125.909 371.25 127.686 373.179C129.462 375.108 132.331 375.108 134.108 373.179C135.884 371.25 135.884 368.134 134.108 366.205ZM127.549 282.064C129.325 283.993 132.331 283.993 134.108 282.064C135.884 280.135 135.884 276.87 134.108 274.941C132.331 273.012 129.325 273.012 127.549 274.941C125.773 276.87 125.773 280.135 127.549 282.064ZM133.971 251.494C135.747 249.565 135.747 246.597 133.971 244.668C132.195 242.739 129.462 242.739 127.686 244.668C125.909 246.597 125.909 249.565 127.686 251.494C129.462 253.424 132.195 253.424 133.971 251.494ZM147.771 144.798C149.411 143.017 149.411 140.197 147.771 138.565C146.132 136.784 143.535 136.784 142.032 138.565C140.393 140.346 140.393 143.165 142.032 144.798C143.535 146.578 146.132 146.578 147.771 144.798ZM148.318 175.812C150.231 173.735 150.231 170.322 148.318 168.244C146.405 166.167 143.262 166.167 141.349 168.244C139.436 170.322 139.436 173.735 141.349 175.812C143.262 177.89 146.405 177.89 148.318 175.812ZM147.771 290.523C146.132 288.742 143.535 288.742 141.896 290.523C140.256 292.303 140.256 295.123 141.896 296.904C143.535 298.684 146.132 298.684 147.771 296.904C149.411 295.123 149.411 292.303 147.771 290.523ZM147.771 266.482C149.411 264.702 149.411 261.882 147.771 260.25C146.132 258.469 143.535 258.469 142.032 260.25C140.393 262.031 140.393 264.85 142.032 266.482C143.535 268.115 146.132 268.115 147.771 266.482ZM141.759 236.358C143.535 238.287 146.268 238.287 148.044 236.358C149.821 234.429 149.821 231.461 148.044 229.532C146.268 227.603 143.535 227.603 141.759 229.532C139.983 231.461 139.983 234.429 141.759 236.358ZM147.908 205.788C149.547 204.008 149.547 201.04 147.908 199.111C146.268 197.33 143.535 197.33 141.759 199.111C140.12 200.891 140.12 203.859 141.759 205.788C143.535 207.718 146.268 207.718 147.908 205.788ZM162.255 130.255C164.167 128.177 164.167 124.913 162.255 122.835C160.342 120.757 157.336 120.757 155.423 122.835C153.51 124.913 153.51 128.177 155.423 130.255C157.336 132.332 160.342 132.332 162.255 130.255ZM175.918 114.673C177.558 112.892 177.558 109.776 175.918 107.995C174.278 106.215 171.409 106.215 169.769 107.995C168.13 109.776 168.13 112.892 169.769 114.673C171.409 116.454 174.278 116.454 175.918 114.673ZM176.055 145.243C177.831 143.314 177.831 140.197 176.055 138.268C174.278 136.339 171.409 136.339 169.633 138.268C167.857 140.197 167.857 143.314 169.633 145.243C171.409 147.172 174.278 147.172 176.055 145.243ZM176.191 175.812C178.104 173.735 178.104 170.47 176.191 168.541C174.278 166.463 171.272 166.463 169.496 168.541C167.583 170.619 167.583 173.883 169.496 175.812C171.272 177.742 174.415 177.742 176.191 175.812ZM169.769 199.111C168.13 200.891 168.13 204.008 169.769 205.788C171.409 207.569 174.278 207.569 175.918 205.788C177.558 204.008 177.558 200.891 175.918 199.111C174.278 197.33 171.409 197.33 169.769 199.111ZM176.328 236.655C178.241 234.577 178.241 231.164 176.328 229.087C174.415 227.009 171.272 227.009 169.36 229.087C167.447 231.164 167.447 234.577 169.36 236.655C171.272 238.732 174.415 238.732 176.328 236.655ZM176.328 289.929C174.415 287.852 171.409 287.852 169.496 289.929C167.583 292.007 167.583 295.271 169.496 297.349C171.409 299.426 174.415 299.426 176.328 297.349C178.104 295.42 178.104 292.007 176.328 289.929ZM176.055 266.779C177.831 264.85 177.831 261.734 176.055 259.656C174.278 257.727 171.409 257.727 169.496 259.656C167.72 261.585 167.72 264.702 169.496 266.779C171.409 268.857 174.278 268.857 176.055 266.779ZM190.128 99.6852C191.904 97.756 191.904 94.4913 190.128 92.4137C188.352 90.4846 185.346 90.4846 183.433 92.4137C181.657 94.3429 181.657 97.6076 183.433 99.6852C185.346 101.763 188.352 101.763 190.128 99.6852ZM183.98 123.429C182.477 125.061 182.477 127.88 183.98 129.513C185.483 131.145 188.079 131.145 189.582 129.513C191.085 127.88 191.085 125.061 189.582 123.429C188.079 121.796 185.619 121.796 183.98 123.429ZM190.265 160.676C192.178 158.598 192.178 155.185 190.265 153.108C188.352 151.03 185.209 151.03 183.296 153.108C181.383 155.185 181.383 158.598 183.296 160.676C185.346 162.754 188.352 162.754 190.265 160.676ZM190.265 214.099C188.352 212.021 185.346 212.021 183.57 214.099C181.657 216.176 181.657 219.441 183.57 221.37C185.483 223.448 188.488 223.448 190.265 221.37C192.041 219.292 192.041 216.028 190.265 214.099ZM189.855 190.504C191.495 188.723 191.495 185.755 189.855 183.974C188.215 182.193 185.483 182.193 183.843 183.974C182.203 185.755 182.203 188.723 183.843 190.504C185.483 192.284 188.215 192.284 189.855 190.504ZM203.655 83.9551C205.158 82.3228 205.158 79.5032 203.655 77.7225C202.152 76.0901 199.556 76.0901 197.916 77.7225C196.413 79.3548 196.413 82.1744 197.916 83.9551C199.556 85.7359 202.152 85.7359 203.655 83.9551ZM203.792 114.376C205.431 112.596 205.431 109.776 203.792 108.144C202.152 106.363 199.556 106.363 198.053 108.144C196.413 109.924 196.413 112.744 198.053 114.376C199.556 116.157 202.152 116.157 203.792 114.376ZM232.075 53.9791C233.851 52.0499 233.851 48.9337 232.075 47.0045C230.299 45.0753 227.43 45.0753 225.653 47.0045C223.877 48.9337 223.877 52.0499 225.653 53.9791C227.43 55.9082 230.299 55.9082 232.075 53.9791ZM246.012 38.6943C247.788 36.7651 247.788 33.7972 246.012 31.868C244.236 29.9389 241.366 29.9389 239.727 31.868C237.951 33.7972 237.951 36.7651 239.727 38.6943C241.366 40.6234 244.236 40.6234 246.012 38.6943ZM245.875 92.8589C244.236 91.0782 241.503 91.0782 239.863 92.8589C238.224 94.6396 238.224 97.6076 239.863 99.3883C241.503 101.169 244.236 101.169 245.875 99.3883C247.515 97.6076 247.515 94.6396 245.875 92.8589ZM245.739 68.8187C247.378 67.038 247.378 64.2184 245.739 62.4377C244.099 60.6569 241.503 60.6569 239.863 62.4377C238.224 64.2184 238.224 67.038 239.863 68.8187C241.503 70.5994 244.099 70.5994 245.739 68.8187ZM245.739 153.701C244.099 151.921 241.503 151.921 240 153.701C238.36 155.482 238.36 158.302 240 159.934C241.64 161.715 244.236 161.715 245.739 159.934C247.378 158.302 247.378 155.482 245.739 153.701ZM245.739 129.661C247.378 127.88 247.378 125.209 245.739 123.429C244.099 121.648 241.64 121.648 240 123.429C238.36 125.209 238.36 127.88 240 129.661C241.503 131.294 244.099 131.294 245.739 129.661ZM245.739 184.123C244.099 182.342 241.503 182.342 239.863 184.123C238.224 185.903 238.224 188.723 239.863 190.504C241.503 192.284 244.099 192.284 245.739 190.504C247.378 188.723 247.378 185.903 245.739 184.123ZM240 220.776C241.64 222.557 244.099 222.557 245.739 220.776C247.378 218.996 247.378 216.325 245.739 214.544C244.099 212.763 241.64 212.763 240 214.544C238.36 216.325 238.36 219.144 240 220.776ZM240 244.965C238.497 246.597 238.497 249.417 240 251.198C241.503 252.83 244.099 252.83 245.739 251.198C247.242 249.565 247.242 246.746 245.739 244.965C244.099 243.333 241.503 243.333 240 244.965ZM245.739 275.238C244.099 273.457 241.503 273.457 239.863 275.238C238.224 277.019 238.224 279.838 239.863 281.619C241.503 283.4 244.099 283.4 245.739 281.619C247.378 279.987 247.378 277.019 245.739 275.238ZM245.875 305.659C244.236 303.878 241.503 303.878 239.863 305.659C238.224 307.44 238.224 310.408 239.863 312.189C241.503 313.969 244.236 313.969 245.875 312.189C247.515 310.408 247.515 307.44 245.875 305.659ZM245.739 366.501C244.099 364.721 241.503 364.721 239.863 366.501C238.224 368.282 238.224 371.102 239.863 372.883C241.503 374.663 244.099 374.663 245.739 372.883C247.378 371.102 247.378 368.282 245.739 366.501ZM245.739 342.461C247.378 340.681 247.378 337.861 245.739 336.08C244.099 334.3 241.503 334.3 239.863 336.08C238.224 337.861 238.224 340.681 239.863 342.461C241.503 344.242 244.099 344.242 245.739 342.461ZM245.875 396.774C244.236 394.994 241.503 394.994 239.863 396.774C238.224 398.555 238.224 401.523 239.863 403.304C241.503 405.085 244.236 405.085 245.875 403.304C247.515 401.523 247.515 398.703 245.875 396.774ZM246.012 427.196C244.236 425.266 241.503 425.266 239.727 427.196C237.951 429.125 237.951 432.093 239.727 434.022C241.503 435.951 244.236 435.951 246.012 434.022C247.652 432.093 247.652 428.976 246.012 427.196ZM259.812 23.2611C261.452 21.4803 261.452 18.6608 259.812 16.88C258.173 15.0992 255.576 15.0992 253.937 16.88C252.297 18.6608 252.297 21.4803 253.937 23.2611C255.44 25.0419 258.173 25.0419 259.812 23.2611ZM260.359 54.2759C262.272 52.1984 262.272 48.7852 260.359 46.7077C258.446 44.6301 255.303 44.6301 253.39 46.7077C251.477 48.7852 251.477 52.1984 253.39 54.2759C255.303 56.3535 258.309 56.3535 260.359 54.2759ZM274.022 8.42145C275.799 6.49231 275.799 3.37598 274.022 1.44684C272.246 -0.4823 269.377 -0.4823 267.6 1.44684C265.824 3.37598 265.824 6.49231 267.6 8.42145C269.377 10.3506 272.246 10.3506 274.022 8.42145ZM267.737 38.5459C269.377 40.3267 272.109 40.3267 273.886 38.5459C275.525 36.7651 275.525 33.7972 273.886 31.868C272.246 30.0873 269.513 30.0873 267.737 31.868C266.097 33.7972 266.097 36.7651 267.737 38.5459ZM268.01 62.5861C266.371 64.3668 266.371 67.038 268.01 68.8187C269.65 70.451 272.109 70.451 273.749 68.8187C275.252 67.038 275.252 64.3668 273.749 62.5861C272.109 60.9537 269.513 60.9537 268.01 62.5861ZM287.686 23.1127C289.189 21.4803 289.189 18.6608 287.686 16.88C286.046 15.2477 283.587 15.2477 281.947 16.88C280.444 18.6608 280.444 21.3319 281.947 23.1127C283.587 24.8934 286.046 24.8934 287.686 23.1127ZM288.096 54.1275C289.872 52.1983 289.872 48.9337 288.096 47.0045C286.319 45.0753 283.313 45.0753 281.537 47.0045C279.761 48.9337 279.761 52.1983 281.537 54.1275C283.313 56.0566 286.319 56.0566 288.096 54.1275ZM281.81 114.525C283.45 116.306 286.046 116.306 287.686 114.525C289.325 112.744 289.325 109.924 287.686 108.144C286.046 106.363 283.45 106.363 281.81 108.144C280.171 109.924 280.171 112.744 281.81 114.525ZM281.947 138.565C280.307 140.346 280.307 143.165 281.947 144.946C283.587 146.727 286.183 146.727 287.822 144.946C289.462 143.165 289.462 140.346 287.822 138.565C286.183 136.784 283.45 136.784 281.947 138.565ZM281.537 84.4003C283.313 86.3295 286.183 86.3295 287.959 84.4003C289.735 82.4712 289.735 79.3549 287.959 77.4257C286.183 75.4966 283.313 75.4966 281.537 77.4257C279.761 79.3549 279.761 82.4712 281.537 84.4003ZM288.096 168.541C286.319 166.612 283.45 166.612 281.674 168.541C279.898 170.47 279.898 173.586 281.674 175.516C283.45 177.445 286.319 177.445 288.096 175.516C289.872 173.735 289.872 170.47 288.096 168.541ZM302.169 38.9911C304.082 36.9136 304.082 33.6488 302.169 31.5713C300.256 29.4937 297.25 29.4937 295.337 31.5713C293.424 33.6488 293.424 36.9136 295.337 38.9911C297.25 41.0687 300.393 41.0687 302.169 38.9911ZM295.474 160.528C297.25 162.457 300.256 162.457 302.169 160.528C303.945 158.598 303.945 155.334 302.169 153.256C300.393 151.327 297.387 151.327 295.474 153.256C293.561 155.185 293.698 158.45 295.474 160.528ZM295.884 184.123C294.244 185.903 294.244 188.723 295.884 190.504C297.524 192.284 300.12 192.284 301.759 190.504C303.399 188.723 303.399 185.903 301.759 184.123C300.12 182.342 297.524 182.342 295.884 184.123ZM295.474 130.106C297.25 132.036 300.256 132.036 302.169 130.106C303.945 128.177 303.945 124.913 302.169 122.835C300.393 120.906 297.387 120.906 295.474 122.835C293.698 124.913 293.698 128.177 295.474 130.106ZM295.611 69.2639C297.387 71.1931 300.393 71.1931 302.169 69.2639C303.945 67.3348 303.945 64.07 302.169 62.1409C300.393 60.2117 297.387 60.2117 295.611 62.1409C293.698 64.07 293.698 67.3348 295.611 69.2639ZM295.884 92.8589C294.244 94.6396 294.244 97.4592 295.884 99.2399C297.524 101.021 300.12 101.021 301.759 99.2399C303.399 97.4592 303.399 94.6396 301.759 92.8589C300.12 91.0782 297.524 91.0782 295.884 92.8589ZM302.306 221.37C304.219 219.292 304.219 216.028 302.306 213.95C300.393 211.873 297.387 211.873 295.474 213.95C293.561 216.028 293.561 219.292 295.474 221.37C297.25 223.448 300.393 223.448 302.306 221.37ZM295.474 244.52C293.698 246.449 293.698 249.714 295.474 251.791C297.25 253.72 300.256 253.72 302.169 251.791C303.945 249.862 303.945 246.597 302.169 244.52C300.256 242.442 297.387 242.442 295.474 244.52ZM315.286 53.2371C316.652 51.7531 316.652 49.2304 315.286 47.7465C313.92 46.2625 311.597 46.2625 310.231 47.7465C308.864 49.2304 308.864 51.7531 310.231 53.2371C311.734 54.7211 313.92 54.7211 315.286 53.2371ZM316.106 84.4003C317.882 82.4712 317.882 79.2065 316.106 77.2773C314.33 75.3481 311.324 75.3481 309.547 77.2773C307.771 79.2065 307.771 82.4712 309.547 84.4003C311.324 86.4778 314.33 86.4778 316.106 84.4003ZM309.957 108.144C308.318 109.924 308.318 112.744 309.957 114.376C311.597 116.157 314.193 116.157 315.696 114.376C317.336 112.596 317.336 109.776 315.696 108.144C314.056 106.363 311.46 106.363 309.957 108.144ZM326.354 92.8589C324.714 91.0782 321.981 91.0782 320.342 92.8589C318.702 94.6396 318.702 97.6076 320.342 99.3883C321.981 101.169 324.714 101.169 326.354 99.3883C327.993 97.6076 327.993 94.6396 326.354 92.8589ZM388.796 159.34C383.467 151.624 378.138 144.056 372.81 136.339C379.231 134.855 387.02 133.074 396.038 130.848C395.354 133.668 394.671 136.339 393.988 139.159C393.715 138.713 393.578 138.417 393.305 138.12C391.529 136.191 388.523 136.191 386.746 138.12C384.97 140.049 384.97 143.314 386.746 145.243C388.249 146.875 390.572 147.172 392.348 145.985C391.119 150.733 389.889 155.185 388.796 159.34ZM372.126 136.042C369.53 136.636 367.208 137.229 365.021 137.675C363.928 134.707 362.972 132.036 362.015 129.364C362.152 129.661 362.289 129.81 362.562 129.958C364.202 131.739 366.524 131.887 368.437 130.552C369.53 132.481 370.76 134.261 372.126 136.042ZM436.482 200.298C438.121 198.517 438.121 195.697 436.482 193.917C434.842 192.136 432.246 192.136 430.606 193.917C430.333 194.214 430.196 194.51 429.923 194.807C426.371 192.878 422.818 190.949 419.266 189.02C419.949 187.387 419.676 185.607 418.446 184.271C416.943 182.639 414.347 182.639 412.844 184.271C411.477 185.755 411.341 187.832 412.297 189.465C400.82 197.923 389.206 206.382 377.728 214.841C377.592 214.692 377.455 214.544 377.319 214.395C376.772 213.802 376.225 213.505 375.679 213.208C377.592 205.937 382.101 188.426 389.206 160.528C391.119 163.347 393.168 166.167 395.081 168.986C394.945 168.986 394.945 169.135 394.808 169.135C393.305 170.767 393.305 173.438 394.808 174.922C396.311 176.554 398.77 176.554 400.137 174.922C401.503 173.438 401.64 171.212 400.547 169.58C403.006 167.502 406.832 164.237 412.024 159.786L412.161 159.934C413.8 161.715 416.396 161.715 418.036 159.934C419.676 158.153 419.676 155.334 418.036 153.553C416.396 151.772 413.8 151.772 412.161 153.553C410.658 155.185 410.521 157.56 411.751 159.34C406.422 163.941 402.596 167.205 400.273 169.135L400.137 168.986C398.77 167.502 396.857 167.354 395.354 168.393C393.305 165.425 391.255 162.605 389.206 159.637C390.299 155.185 391.529 150.437 392.895 145.391C393.032 145.243 393.168 145.243 393.305 145.094C394.671 143.61 394.945 141.533 394.398 139.752C395.218 136.784 395.901 133.816 396.721 130.7C400.956 129.661 405.465 128.622 410.248 127.584C410.384 128.326 410.794 128.919 411.204 129.513C412.844 131.294 415.303 131.294 416.943 129.513C418.582 127.732 418.582 125.061 416.943 123.28C415.303 121.499 412.844 121.499 411.204 123.28C410.248 124.319 409.838 125.654 410.111 126.99C405.465 128.029 400.956 129.068 396.857 130.106C398.087 125.506 399.317 120.757 400.547 115.86C401.913 116.157 403.553 115.712 404.646 114.525C406.422 112.596 406.422 109.628 404.646 107.699C402.869 105.769 400.137 105.769 398.36 107.699C396.584 109.628 396.584 112.596 398.36 114.525C398.907 115.118 399.453 115.415 400.137 115.712C398.907 120.757 397.541 125.654 396.448 130.255C387.156 132.481 379.368 134.261 372.81 135.745C371.443 133.816 370.214 132.036 368.847 130.106C368.984 129.958 369.12 129.958 369.12 129.81C370.897 127.88 370.897 124.764 369.12 122.687C368.711 122.241 368.164 121.945 367.617 121.648C368.984 117.493 371.443 110.37 374.722 100.576C376.225 101.021 378.002 100.724 379.231 99.3883C381.008 97.4592 381.008 94.3429 379.231 92.4137C377.455 90.4846 374.586 90.4846 372.81 92.4137C371.033 94.3429 371.033 97.4592 372.81 99.3883C373.219 99.8335 373.766 100.13 374.176 100.427C370.897 110.37 368.437 117.344 367.071 121.499C365.568 121.054 363.792 121.351 362.425 122.687C361.332 123.874 360.922 125.358 361.196 126.842C353.681 105.769 348.762 91.6717 346.302 84.6971C346.712 84.5487 347.122 84.2519 347.532 83.8067C349.172 82.026 349.172 79.2065 347.532 77.5741C345.892 75.7933 343.296 75.7933 341.793 77.5741C340.154 79.3549 340.154 82.1744 341.793 83.8067C342.477 84.5487 343.433 84.9939 344.253 84.9939C343.98 92.1169 343.706 99.0916 343.433 106.215C342.34 106.215 341.247 106.66 340.427 107.55C338.924 109.182 338.787 111.557 339.88 113.486C337.421 115.415 334.962 117.344 332.502 119.125C331.819 106.066 330.863 89.7426 329.769 69.8575C330.726 69.7091 331.546 69.2639 332.366 68.5219C334.005 66.7412 334.005 63.7733 332.366 61.8441C330.726 60.0634 327.993 60.0634 326.217 61.8441C324.577 63.6249 324.577 66.5928 326.217 68.5219C327.037 69.4123 328.13 69.8575 329.36 69.8575C330.453 89.7426 331.409 106.363 332.092 119.422C330.453 120.757 328.813 121.945 327.173 123.28C327.037 123.132 327.037 122.983 326.9 122.983C325.397 121.351 322.801 121.351 321.298 122.983C319.795 124.616 319.795 127.435 321.298 129.068L321.435 129.216C320.068 131.145 318.155 133.816 315.559 137.229C313.783 135.894 311.46 136.042 309.957 137.823C308.181 139.752 308.181 142.72 309.957 144.501C311.734 146.43 314.466 146.43 316.106 144.501C317.882 142.572 317.882 139.604 316.106 137.823C316.106 137.823 315.969 137.675 315.833 137.675C318.429 134.113 320.342 131.442 321.708 129.661C323.211 130.848 325.397 130.7 326.763 129.216C328.13 127.732 328.266 125.506 327.31 123.874C328.95 122.687 330.453 121.499 332.092 120.164C333.049 136.042 333.595 146.727 333.868 152.217C333.049 152.366 332.092 152.663 331.546 153.405C330.179 154.889 330.043 156.966 330.863 158.747C327.993 160.676 323.348 164.089 316.926 168.689C316.789 168.541 316.652 168.244 316.379 168.096C314.466 166.018 311.324 166.018 309.547 168.096C307.635 170.173 307.635 173.586 309.547 175.516C311.46 177.593 314.603 177.593 316.379 175.516C318.019 173.735 318.155 171.212 317.062 169.135C323.484 164.534 328.13 161.27 330.999 159.192C331.136 159.34 331.272 159.489 331.409 159.637C333.049 161.418 335.508 161.418 337.148 159.637C338.787 157.856 338.787 155.185 337.148 153.405C336.328 152.514 335.372 152.069 334.278 152.069C334.005 146.43 333.322 135.745 332.502 119.719C335.098 117.789 337.558 115.712 340.154 113.783C340.29 113.931 340.29 114.08 340.427 114.228C342.203 116.157 344.936 116.157 346.576 114.228C348.352 112.299 348.352 109.331 346.576 107.55C345.892 106.808 344.936 106.363 343.843 106.215C344.116 99.0916 344.389 92.1169 344.663 84.9939C345.073 84.9939 345.483 84.8455 345.756 84.8455C348.079 91.3749 354.227 108.886 364.475 137.526C359.693 138.713 356.003 139.455 353.407 140.049C353.271 139.307 352.861 138.565 352.314 137.823C350.538 135.894 347.669 135.894 345.892 137.823C344.116 139.752 344.116 142.868 345.892 144.798C346.712 145.688 347.805 146.133 348.898 146.282C349.308 163.496 349.718 180.561 349.992 197.775C349.035 197.923 348.079 198.22 347.395 199.111C345.756 200.891 345.756 203.711 347.395 205.492C348.352 206.53 349.445 206.827 350.675 206.827C352.314 218.996 353.954 231.164 355.594 243.333C354.774 243.481 353.954 243.926 353.407 244.668C351.768 246.449 351.768 249.417 353.407 251.346C355.047 253.127 357.78 253.127 359.556 251.346C359.966 250.901 360.102 250.604 360.376 250.159C364.885 252.236 373.083 256.095 385.107 261.585C384.56 263.366 384.834 265.295 386.2 266.779C387.976 268.708 390.845 268.708 392.622 266.779C394.398 264.85 394.398 261.734 392.622 259.805C390.845 257.875 387.976 257.875 386.2 259.805C385.79 260.25 385.517 260.695 385.38 261.14C373.356 255.501 365.021 251.791 360.649 249.714C361.196 248.081 360.922 246.152 359.693 244.817C358.736 243.778 357.506 243.333 356.277 243.481C354.637 231.313 352.997 219.144 351.358 206.976C352.178 206.827 352.861 206.382 353.407 205.788C355.047 204.008 355.047 201.188 353.407 199.407C352.588 198.517 351.631 198.072 350.675 198.072C350.265 180.858 349.855 163.792 349.582 146.578C350.675 146.43 351.631 145.985 352.451 145.243C353.544 144.056 353.954 142.572 353.681 141.088C356.277 140.494 359.966 139.604 364.885 138.417C366.524 143.017 368.301 147.914 370.077 153.256C369.667 153.405 369.257 153.701 368.984 154.147C367.481 155.779 367.481 158.45 368.984 160.082C370.487 161.715 372.946 161.715 374.449 160.082C375.952 158.45 375.952 155.779 374.449 154.147C373.356 152.959 371.853 152.663 370.623 153.108C368.847 147.914 367.071 143.017 365.431 138.417C367.617 137.971 370.077 137.378 372.673 136.784C378.138 144.649 383.604 152.366 388.933 160.231C381.964 187.536 377.455 205.195 375.269 213.357C373.903 213.06 372.263 213.505 371.17 214.692C369.394 216.621 369.394 219.589 371.17 221.518C372.946 223.448 375.679 223.448 377.455 221.518C378.958 219.886 379.095 217.512 378.138 215.731C389.616 207.272 401.23 198.814 412.707 190.355C412.844 190.504 412.844 190.652 412.98 190.8C414.483 192.433 417.079 192.433 418.582 190.8C418.856 190.504 418.992 190.207 419.129 189.91C422.681 191.839 426.234 193.768 429.787 195.697C429.24 197.181 429.377 198.814 430.196 200.149C426.917 202.969 421.042 207.866 412.434 215.137L412.297 214.989C410.658 213.208 408.062 213.208 406.422 214.989C404.782 216.77 404.782 219.589 406.422 221.37C408.062 223.151 410.658 223.151 412.297 221.37C413.8 219.738 413.937 217.363 412.707 215.583C421.042 208.46 427.054 203.414 430.47 200.595C430.47 200.595 430.606 200.743 430.606 200.891C432.109 202.078 434.842 202.079 436.482 200.298ZM388.386 205.492C389.889 203.859 389.889 201.04 388.386 199.407C386.883 197.775 384.287 197.775 382.784 199.407C381.281 201.04 381.281 203.859 382.784 205.492C384.424 207.272 386.883 207.272 388.386 205.492ZM309.411 327.77C311.324 329.848 314.33 329.848 316.106 327.77C318.019 325.693 318.019 322.428 316.106 320.499C314.193 318.421 311.187 318.421 309.411 320.499C307.635 322.428 307.635 325.693 309.411 327.77ZM309.821 351.217C308.181 352.997 308.181 355.965 309.821 357.746C311.46 359.527 314.193 359.527 315.833 357.746C317.472 355.965 317.472 352.997 315.833 351.217C314.193 349.436 311.46 349.436 309.821 351.217ZM332.912 281.47C334.415 279.838 334.415 277.167 332.912 275.535C331.409 273.902 328.95 273.902 327.447 275.535C325.944 277.167 325.944 279.838 327.447 281.47C328.95 283.103 331.409 283.103 332.912 281.47ZM334.415 251.346C336.055 249.565 336.055 246.746 334.415 244.965C332.775 243.184 330.179 243.184 328.54 244.965C326.9 246.746 326.9 249.565 328.54 251.346C330.179 253.127 332.775 253.127 334.415 251.346ZM331.272 403.452C333.049 401.523 333.049 398.555 331.272 396.626C329.496 394.697 326.763 394.697 324.987 396.626C323.211 398.555 323.211 401.523 324.987 403.452C326.763 405.381 329.496 405.381 331.272 403.452ZM332.229 342.313C333.732 340.681 333.732 338.009 332.229 336.525C330.726 334.893 328.266 334.893 326.9 336.525C325.397 338.158 325.397 340.829 326.9 342.313C328.403 343.797 330.726 343.797 332.229 342.313ZM324.441 311.892C325.944 313.524 328.403 313.524 329.906 311.892C331.409 310.259 331.409 307.588 329.906 305.956C328.403 304.324 325.944 304.324 324.441 305.956C322.938 307.588 322.938 310.259 324.441 311.892ZM323.621 220.628C325.124 218.996 325.124 216.473 323.621 214.841C322.391 213.505 320.752 213.357 319.249 214.099C317.882 211.576 316.652 209.202 315.286 206.679C315.559 206.53 315.833 206.234 315.969 206.085C317.609 204.304 317.746 201.633 316.516 199.704C320.205 196.588 323.894 193.472 327.72 190.355C327.72 190.504 327.857 190.504 327.857 190.652C329.496 192.433 332.229 192.433 333.868 190.652C335.508 188.871 335.508 186.052 333.868 184.271C336.191 181.451 338.651 178.632 340.974 175.812C341.657 176.406 342.613 176.851 343.57 176.851C343.843 184.123 344.253 201.337 345.073 228.641C344.116 228.79 343.296 229.087 342.477 229.977C340.837 231.758 340.837 234.577 342.477 236.21C344.116 237.99 346.712 237.99 348.215 236.21C349.855 234.429 349.855 231.609 348.215 229.977C347.395 229.087 346.439 228.641 345.483 228.641C344.663 202.078 344.253 184.865 343.98 176.851C344.936 176.703 345.892 176.406 346.576 175.516C348.215 173.735 348.215 170.767 346.576 168.986C344.936 167.205 342.203 167.205 340.564 168.986C338.924 170.767 338.924 173.586 340.564 175.516C338.241 178.335 335.781 181.155 333.459 183.974C331.819 182.49 329.36 182.639 327.857 184.271C326.354 185.903 326.217 188.278 327.31 190.058C323.621 193.175 319.932 196.291 316.106 199.407C315.969 199.259 315.969 199.259 315.833 199.111C314.056 197.181 311.187 197.181 309.411 199.111C307.635 201.04 307.635 204.156 309.411 206.085C310.914 207.718 312.963 207.866 314.74 206.976C316.106 209.498 317.336 211.873 318.702 214.395C318.565 214.544 318.292 214.692 318.155 214.841C316.652 216.473 316.652 218.996 318.155 220.628C318.292 220.776 318.565 220.925 318.702 221.073C317.746 223.002 316.243 225.525 314.466 228.938C312.963 228.048 311.05 228.345 309.821 229.68C308.181 231.461 308.181 234.132 309.821 235.913C311.46 237.694 313.92 237.694 315.559 235.913C317.199 234.132 317.199 231.461 315.559 229.68C315.423 229.532 315.149 229.235 314.876 229.087C316.652 225.673 318.155 223.151 319.112 221.222C320.752 222.112 322.391 221.815 323.621 220.628ZM342.203 260.25C340.7 261.882 340.7 264.553 342.203 266.186C343.706 267.818 346.166 267.818 347.669 266.186C349.172 264.553 349.172 261.882 347.669 260.25C346.166 258.617 343.706 258.617 342.203 260.25ZM309.821 266.482C311.46 268.263 314.056 268.263 315.696 266.482C317.336 264.702 317.336 261.882 315.696 260.101C314.056 258.321 311.46 258.321 309.821 260.101C308.181 261.882 308.181 264.702 309.821 266.482ZM310.231 290.819C308.728 292.452 308.728 294.975 310.231 296.607C311.734 298.239 314.056 298.239 315.559 296.607C317.062 294.975 317.062 292.452 315.559 290.819C314.056 289.187 311.597 289.187 310.231 290.819ZM359.009 282.806C359.829 293.194 360.376 300.465 360.649 304.62C359.829 304.769 359.009 305.065 358.463 305.807C356.96 307.44 356.96 310.259 358.463 311.892C359.966 313.524 362.562 313.524 364.065 311.892C364.475 311.447 364.748 311.001 364.885 310.556C375.406 314.711 385.927 318.718 396.584 322.873C396.174 324.357 396.448 326.138 397.677 327.325C399.317 329.106 402.05 329.106 403.689 327.325C405.329 325.544 405.329 322.576 403.689 320.795C402.323 319.312 400.273 319.015 398.634 320.053C396.038 315.602 391.392 308.033 384.697 297.052C384.833 296.904 384.97 296.755 385.107 296.607C386.61 294.975 386.61 292.155 385.107 290.523C383.604 288.89 381.008 288.89 379.505 290.523C378.002 292.155 378.002 294.975 379.505 296.607C380.871 298.091 382.784 298.239 384.287 297.349C391.255 308.775 395.764 316.492 398.224 320.35C398.087 320.499 397.951 320.647 397.814 320.795C397.404 321.241 397.131 321.686 396.857 322.279C386.336 318.124 375.816 314.118 365.158 310.111C365.568 308.627 365.158 306.995 364.202 305.956C363.382 305.065 362.425 304.62 361.332 304.769C361.059 300.614 360.512 293.342 359.693 282.954C360.512 282.806 361.332 282.509 361.879 281.767C363.382 280.135 363.382 277.315 361.879 275.683C360.376 274.051 357.78 274.051 356.277 275.683C354.774 277.315 354.774 280.135 356.277 281.767C356.96 282.361 358.053 282.806 359.009 282.806ZM363.655 190.8C365.431 192.73 368.301 192.73 370.077 190.8C371.853 188.871 371.853 185.755 370.077 183.826C368.301 181.897 365.431 181.897 363.655 183.826C361.879 185.755 361.879 188.871 363.655 190.8ZM499.88 182.935C500.017 182.787 500.017 182.49 499.88 182.342C499.744 182.193 499.471 182.193 499.334 182.342C499.197 182.49 499.197 182.787 499.334 182.935C499.471 183.084 499.744 183.084 499.88 182.935ZM515.594 208.46C516.413 207.569 516.413 206.382 515.594 205.492C514.774 204.601 513.681 204.601 512.861 205.492C512.041 206.382 512.041 207.569 512.861 208.46C513.681 209.202 514.91 209.202 515.594 208.46ZM572.024 193.917C572.297 193.62 572.297 193.175 572.024 193.026C571.751 192.73 571.341 192.73 571.204 193.026C570.931 193.323 570.931 193.768 571.204 193.917C571.341 194.214 571.751 194.214 572.024 193.917ZM603.587 172.399C603.723 172.251 603.723 171.954 603.587 171.806C603.45 171.657 603.177 171.657 603.04 171.806C602.903 171.954 602.903 172.251 603.04 172.399C603.177 172.548 603.45 172.548 603.587 172.399ZM603.177 236.061C602.767 235.616 601.947 235.616 601.537 236.061C601.127 236.506 601.127 237.397 601.537 237.842C601.947 238.287 602.767 238.287 603.177 237.842C603.587 237.397 603.587 236.506 603.177 236.061ZM712.348 241.404C713.032 240.662 713.032 239.474 712.348 238.732C711.665 237.99 710.572 237.99 709.889 238.732C709.206 239.474 709.206 240.662 709.889 241.404C710.572 242.145 711.665 242.145 712.348 241.404ZM798.839 293.194C798.565 293.491 798.565 293.936 798.839 294.233C799.112 294.529 799.522 294.529 799.795 294.233C800.068 293.936 800.068 293.491 799.795 293.194C799.522 293.045 798.975 293.045 798.839 293.194ZM784.219 278.948C785.448 277.612 785.448 275.535 784.219 274.347C782.989 273.012 781.076 273.012 779.983 274.347C778.753 275.683 778.753 277.761 779.983 278.948C781.213 280.283 783.126 280.283 784.219 278.948ZM716.174 350.475H715.901V350.772H716.174V350.475ZM666.985 343.055C666.712 343.352 666.712 343.648 666.985 343.945C667.259 344.242 667.532 344.242 667.805 343.945C668.079 343.648 668.079 343.352 667.805 343.055C667.532 342.758 667.259 342.758 666.985 343.055ZM602.63 307.44C603.45 308.33 604.953 308.33 605.909 307.44C606.729 306.549 606.729 304.917 605.909 303.878C605.09 302.988 603.587 302.988 602.63 303.878C601.81 304.917 601.81 306.401 602.63 307.44ZM601.674 332.519C601.4 332.816 601.4 333.261 601.674 333.558C601.947 333.854 602.357 333.854 602.63 333.558C602.904 333.261 602.904 332.816 602.63 332.519C602.494 332.222 601.947 332.222 601.674 332.519ZM601.674 346.765C601.127 347.358 601.127 348.1 601.674 348.694C602.22 349.288 602.904 349.288 603.45 348.694C603.997 348.1 603.997 347.358 603.45 346.765C602.904 346.32 602.084 346.32 601.674 346.765ZM601.264 397.22C600.581 397.962 600.581 399.149 601.264 399.891C601.947 400.633 603.04 400.633 603.723 399.891C604.406 399.149 604.406 397.962 603.723 397.22C603.04 396.478 601.947 396.478 601.264 397.22ZM545.79 345.726C545.107 346.468 545.107 347.804 545.79 348.694C546.473 349.436 547.703 349.436 548.523 348.694C549.206 347.952 549.206 346.616 548.523 345.726C547.703 344.836 546.473 344.836 545.79 345.726ZM480.205 465.333C480.068 465.482 480.068 465.927 480.205 466.075C480.342 466.224 480.751 466.224 480.888 466.075C481.025 465.927 481.025 465.482 480.888 465.333C480.751 465.037 480.478 465.037 480.205 465.333ZM701.964 266.779C701.691 267.076 701.691 267.67 701.964 268.115C702.237 268.412 702.784 268.412 703.194 268.115C703.467 267.818 703.467 267.224 703.194 266.779C702.784 266.482 702.237 266.482 701.964 266.779ZM470.777 234.28C472.007 232.945 472.007 230.867 470.777 229.532C469.547 228.196 467.634 228.196 466.405 229.532C465.175 230.867 465.175 232.945 466.405 234.28C467.634 235.616 469.684 235.616 470.777 234.28ZM498.787 233.539C499.744 232.5 499.744 231.016 498.787 229.977C497.831 228.938 496.465 228.938 495.508 229.977C494.552 231.016 494.552 232.5 495.508 233.539C496.328 234.577 497.831 234.577 498.787 233.539ZM492.229 284.29C491.546 285.032 491.546 286.368 492.229 287.11C492.912 287.852 494.142 287.852 494.825 287.11C495.508 286.368 495.508 285.032 494.825 284.29C494.005 283.548 492.912 283.548 492.229 284.29ZM462.989 308.924C470.367 296.607 478.839 282.361 488.403 266.186C494.552 272.567 500.564 278.948 506.712 285.329C499.471 292.303 492.229 299.13 484.987 306.104C483.348 304.323 480.751 304.323 479.112 306.104C478.429 306.846 478.019 307.885 477.882 308.924C472.827 308.924 467.908 308.924 462.989 308.924ZM488.54 265.74C490.863 261.734 493.322 257.579 495.918 253.424C497.148 254.166 498.651 254.017 499.744 252.83C500.974 251.494 500.974 249.268 499.744 247.933C498.514 246.597 496.465 246.597 495.235 247.933C494.005 249.268 494.005 251.494 495.235 252.83C495.371 252.978 495.508 252.978 495.645 253.127C493.185 257.282 490.726 261.437 488.403 265.444C478.429 254.908 468.318 244.52 458.343 233.984C461.623 221.518 464.902 209.053 468.318 196.439C469.274 196.588 470.231 196.439 470.914 195.697C471.05 195.549 471.187 195.252 471.324 194.955C478.292 198.517 485.26 202.079 492.092 205.492C491.546 206.827 491.819 208.46 492.912 209.647C494.278 211.131 496.601 211.131 497.968 209.647C498.104 209.498 498.104 209.35 498.241 209.202C514.091 220.331 530.077 231.609 545.927 242.739C545.517 243.778 545.517 244.965 546.336 245.855C546.883 246.449 547.566 246.597 548.249 246.597C548.659 248.972 549.479 252.978 550.572 258.766C537.728 263.515 529.667 266.631 526.251 267.818C526.114 267.67 526.114 267.373 525.841 267.224C525.021 266.334 523.792 266.334 523.108 267.224C522.425 267.966 522.425 269.005 522.835 269.896C517.506 274.941 512.314 279.987 506.986 285.032C500.837 278.651 494.688 272.122 488.54 265.74ZM507.259 285.329C512.451 280.283 517.78 275.238 522.972 270.192C523.792 270.934 524.885 270.934 525.705 270.044C526.251 269.45 526.388 268.857 526.251 268.115C529.53 266.928 537.728 263.811 550.572 259.063C551.255 262.476 551.939 266.334 552.895 270.934C539.231 292.452 531.443 304.62 529.667 307.588C529.394 307.44 528.984 307.44 528.711 307.737C521.469 300.317 514.364 292.749 507.259 285.329ZM550.982 258.914C554.671 257.579 558.907 255.946 563.416 254.314C559.727 260.101 556.311 265.444 553.168 270.341C552.348 266.037 551.665 262.179 550.982 258.914ZM636.379 302.098C636.379 301.949 636.243 301.801 636.243 301.652C642.801 297.497 649.496 293.342 656.055 289.187C654.552 293.639 652.912 298.239 651.409 302.691C646.217 302.394 641.161 302.246 636.379 302.098ZM657.011 288C662.34 272.567 667.669 257.282 672.997 241.849C673.544 241.997 674.227 241.849 674.774 241.404C674.774 241.404 674.774 241.255 674.91 241.255C679.693 244.668 698.958 258.172 732.98 282.064C723.143 287.11 716.721 290.374 713.578 292.007C713.442 291.858 713.442 291.561 713.168 291.413C712.212 290.374 710.572 290.374 709.616 291.413C709.342 291.71 709.206 292.007 709.069 292.303C697.728 288.297 686.388 284.29 675.047 280.283C675.32 278.948 675.047 277.464 674.091 276.277C672.588 274.644 670.265 274.644 668.762 276.277C667.532 277.612 667.395 279.541 668.079 281.025C664.389 283.4 660.7 285.626 657.011 288ZM443.723 193.026C444.543 183.232 445.363 173.29 446.183 163.496C447.276 163.496 448.369 163.05 449.189 162.16C450.828 160.379 450.828 157.708 449.189 155.927C459.71 143.61 470.231 131.145 480.615 118.828C480.751 118.828 480.751 118.977 480.888 118.977C478.155 124.467 465.858 149.249 443.723 193.026ZM428.967 373.773C432.383 378.818 438.941 388.316 448.642 402.413C448.506 402.413 448.506 402.562 448.369 402.562C447.003 404.046 447.003 406.568 448.369 408.201C449.735 409.685 452.058 409.685 453.561 408.201C455.064 406.717 454.927 404.194 453.561 402.562C452.331 401.226 450.418 401.078 449.052 402.117C439.214 387.871 432.656 378.225 429.377 373.328C429.513 373.179 429.65 373.179 429.65 373.031C431.426 371.102 431.426 367.985 429.65 366.056C429.513 365.908 429.24 365.76 429.103 365.611C433.066 358.933 442.22 343.5 456.43 319.608C456.567 319.757 456.84 319.905 456.977 319.905C454.927 325.544 450.282 337.564 443.45 355.965C441.947 355.372 440.307 355.817 439.214 357.004C437.575 358.785 437.575 361.604 439.214 363.385C440.854 365.166 443.45 365.166 445.09 363.385C446.729 361.604 446.729 358.785 445.09 357.004C444.816 356.707 444.407 356.411 443.997 356.114C451.102 336.971 455.747 324.951 457.523 320.053C458.07 320.202 458.753 320.202 459.3 320.053C464.902 338.455 470.641 357.004 476.243 375.405C475.833 375.554 475.423 375.85 475.013 376.296C473.646 377.78 473.646 380.302 475.013 381.786C476.379 383.27 478.702 383.27 480.068 381.786C480.888 380.896 481.161 379.709 481.025 378.67C487.037 377.483 493.049 376.296 499.061 375.108C499.197 375.702 499.471 376.296 499.88 376.741C501.11 378.076 503.16 378.076 504.526 376.741C505.756 375.405 505.756 373.179 504.526 371.695C503.843 370.953 502.886 370.657 502.067 370.657C501.383 365.611 499.88 355.075 497.831 339.345C498.241 339.197 498.787 339.048 499.061 338.603C500.154 337.416 500.154 335.635 499.061 334.596C497.968 333.409 496.328 333.409 495.371 334.596C494.415 335.783 494.278 337.564 495.371 338.603C495.918 339.197 496.601 339.493 497.421 339.345C499.607 355.372 501.11 365.76 501.657 370.657C501.11 370.805 500.564 371.102 500.017 371.547C499.334 372.289 499.061 373.328 499.197 374.367C493.185 375.554 487.173 376.741 481.161 377.928C481.025 377.334 480.751 376.592 480.342 376.147C479.385 375.108 478.155 374.812 476.926 375.257C471.324 356.856 465.585 338.306 459.983 319.905C460.393 319.757 460.666 319.46 461.076 319.163C462.306 317.828 462.306 315.602 461.076 314.266C460.803 313.969 460.529 313.821 460.256 313.672C461.076 312.189 462.032 310.705 462.989 309.221C468.044 309.221 473.1 309.221 478.155 309.369C478.155 310.408 478.565 311.447 479.385 312.337C481.025 314.118 483.621 314.118 485.26 312.337C486.763 310.705 486.9 308.182 485.534 306.401C492.775 299.426 500.017 292.452 507.259 285.626C514.364 293.045 521.469 300.614 528.574 308.033C528.301 308.479 528.301 309.072 528.711 309.517C529.12 309.963 529.804 309.963 530.214 309.517C530.623 309.072 530.623 308.33 530.214 307.885C532.536 304.323 540.188 292.303 553.168 271.676C555.218 282.509 557.95 296.458 561.23 313.524C548.249 329.996 535.269 346.32 522.425 362.792C521.196 361.753 519.283 361.753 518.19 363.088C516.96 364.424 516.96 366.798 518.19 368.134C518.599 368.579 519.283 368.876 519.829 369.024C518.599 378.522 517.37 388.167 516.14 397.665C515.594 397.665 515.047 397.813 514.637 398.258C513.817 399.149 513.817 400.633 514.637 401.523C514.91 401.82 515.184 401.968 515.457 402.117C514.774 405.975 513.134 414.582 510.538 428.383C510.675 428.383 510.675 428.383 510.811 428.383C510.538 428.68 510.538 429.273 510.811 429.57C511.085 429.867 511.631 429.867 511.904 429.57C512.178 429.273 512.178 428.68 511.904 428.383C511.631 428.086 511.358 428.086 511.085 428.234C513.544 414.582 515.184 405.975 515.867 402.117C516.413 402.117 517.096 401.968 517.506 401.523C518.326 400.633 518.326 399.149 517.506 398.258C517.233 397.962 516.823 397.813 516.55 397.665C517.78 388.019 519.009 378.522 520.239 369.024C521.196 369.024 522.152 368.727 522.835 367.985C524.065 366.65 524.065 364.276 522.835 362.94C535.679 346.616 548.523 330.293 561.366 314.118C564.372 329.551 567.788 347.358 571.751 367.837C571.341 367.985 571.067 368.134 570.658 368.431C569.701 369.469 569.701 371.25 570.658 372.289C571.614 373.328 573.254 373.328 574.21 372.289C575.167 371.25 575.167 369.469 574.21 368.431C573.664 367.837 572.844 367.54 572.161 367.689C568.198 347.062 564.646 329.106 561.64 313.524C564.372 310.111 566.968 306.698 569.701 303.285C571.477 304.769 573.937 304.62 575.576 302.84C576.396 301.949 576.806 300.91 576.806 299.872C584.458 300.168 602.63 300.91 631.324 302.098C631.187 302.988 631.46 303.878 632.007 304.62C633.1 305.807 634.74 305.807 635.833 304.62C636.379 304.027 636.652 303.136 636.516 302.246C641.161 302.394 646.08 302.691 651.272 302.84C645.26 320.202 639.249 337.564 633.237 355.075C632.553 354.927 631.734 355.075 631.05 355.669C630.231 356.559 630.231 358.191 631.05 359.082C631.87 359.972 633.373 359.972 634.193 359.082C635.013 358.191 635.013 356.707 634.33 355.669C645.944 341.571 657.421 327.622 669.035 313.524C669.718 314.118 670.811 313.969 671.494 313.376C671.631 313.227 671.768 312.93 671.904 312.782C678.19 314.86 702.374 322.873 744.594 336.822C744.458 337.713 744.594 338.603 745.278 339.197C746.234 340.235 747.737 340.235 748.693 339.197C749.65 338.158 749.65 336.525 748.693 335.487C747.737 334.448 746.234 334.448 745.278 335.487C745.004 335.783 744.868 336.08 744.731 336.377C702.921 322.576 678.736 314.563 672.041 312.337C672.178 311.743 672.041 311.001 671.494 310.556C670.811 309.814 669.582 309.814 668.762 310.556C668.079 311.298 668.079 312.485 668.625 313.376C657.011 327.473 645.534 341.423 633.92 355.52C633.783 355.52 633.783 355.372 633.646 355.372C639.658 337.861 645.67 320.499 651.682 302.988C677.096 304.027 708.523 305.214 745.961 306.846C745.414 307.588 745.414 308.627 746.097 309.369C746.781 310.111 747.874 310.111 748.557 309.369C749.24 308.627 749.24 307.44 748.557 306.698C748.557 306.549 748.557 306.549 748.557 306.401C748.42 306.401 748.284 306.401 748.147 306.401C747.6 306.104 747.054 306.104 746.507 306.401C708.796 304.917 677.233 303.582 651.819 302.543C653.459 297.942 654.962 293.194 656.601 288.593C660.427 286.219 664.253 283.845 668.079 281.322C668.215 281.47 668.352 281.767 668.488 281.916C669.991 283.548 672.314 283.548 673.817 281.916C674.227 281.47 674.5 281.025 674.637 280.58C685.978 284.587 697.319 288.594 708.659 292.6C708.523 293.491 708.659 294.529 709.342 295.123C710.299 296.162 711.939 296.162 712.895 295.123C713.578 294.381 713.851 293.194 713.442 292.155C716.721 290.523 723.143 287.11 732.98 282.064C746.644 291.561 762.63 302.84 780.939 315.75C780.666 316.344 780.803 317.086 781.213 317.679C781.759 318.273 782.852 318.273 783.399 317.679C783.945 317.086 783.945 315.898 783.399 315.305C782.852 314.711 781.759 314.711 781.213 315.305C781.213 315.305 781.213 315.305 781.213 315.453C763.04 302.691 747.19 291.561 733.527 282.064C737.899 279.838 743.091 277.167 748.83 274.199C748.967 274.496 749.103 274.644 749.24 274.941C750.333 276.128 752.246 276.128 753.339 274.941C754.432 273.754 754.432 271.676 753.339 270.489C752.246 269.302 750.333 269.302 749.24 270.489C748.42 271.38 748.147 272.715 748.557 273.754C742.681 276.722 737.489 279.393 732.98 281.767C699.641 258.321 680.239 244.668 674.637 240.81C674.91 240.068 674.91 239.178 674.227 238.584C673.544 237.842 672.314 237.842 671.631 238.584C670.948 239.326 670.948 240.662 671.631 241.404C671.768 241.552 671.904 241.7 672.041 241.7C666.712 257.282 661.247 272.863 655.918 288.445C649.086 292.749 642.391 296.904 635.559 301.207C635.423 301.059 635.423 300.91 635.286 300.762C634.33 299.723 632.69 299.723 631.734 300.614C624.219 292.452 616.84 284.438 609.325 276.277C609.872 275.535 610.145 274.496 609.872 273.605C613.561 271.973 621.896 268.56 635.013 262.921C635.013 263.218 635.149 263.515 635.286 263.663C635.833 264.257 636.516 264.257 637.062 263.663C637.609 263.069 637.609 262.327 637.062 261.734C637.062 261.585 637.062 261.585 636.926 261.437H636.789C636.379 261.14 635.696 261.14 635.286 261.585C635.149 261.734 635.013 262.031 635.013 262.179C622.169 267.67 613.834 271.231 609.735 272.863C609.599 272.567 609.462 272.27 609.189 272.122C608.096 270.934 606.319 270.934 605.363 272.122C604.27 273.309 604.27 275.238 605.363 276.277C606.319 277.315 607.959 277.464 609.052 276.425C616.43 284.587 623.945 292.6 631.324 300.762C631.187 301.059 630.914 301.356 630.914 301.652C602.357 300.465 584.184 299.723 576.396 299.426C576.396 298.239 575.986 297.052 575.03 296.013C573.254 294.084 570.521 294.084 568.745 296.013C566.968 297.942 566.968 300.91 568.745 302.84C568.745 302.84 568.745 302.84 568.881 302.84C566.285 306.104 563.689 309.369 561.093 312.634C557.814 295.42 555.081 281.47 553.032 270.638C556.311 265.444 559.863 259.805 563.826 253.572C567.515 252.236 571.477 250.752 575.576 249.12C575.576 249.268 575.713 249.417 575.85 249.565C576.396 250.159 577.079 250.159 577.626 249.565C577.899 249.268 578.036 248.675 577.899 248.23C592.246 242.887 609.599 236.358 629.684 228.79C629.821 229.087 629.957 229.383 630.094 229.532C631.05 230.571 632.553 230.571 633.51 229.532C634.466 228.493 634.466 226.861 633.51 225.822C632.553 224.783 631.05 224.783 630.094 225.822C629.547 226.415 629.274 227.454 629.547 228.196C609.462 235.764 592.109 242.294 577.763 247.636V247.488C577.216 246.894 576.533 246.894 575.986 247.488C575.713 247.785 575.576 248.081 575.576 248.378C571.614 249.862 567.788 251.346 564.372 252.533C573.937 237.397 585.551 219.292 598.941 197.923C599.761 198.369 600.854 198.369 601.674 197.478C602.63 196.439 602.63 194.956 601.674 193.917C600.717 192.878 599.351 192.878 598.395 193.917C597.438 194.956 597.438 196.439 598.395 197.478C598.395 197.478 598.531 197.478 598.531 197.627C584.868 219.144 573.254 237.545 563.553 252.83C558.77 254.611 554.535 256.243 550.572 257.727C549.479 252.088 548.659 248.081 548.249 245.707C548.659 245.559 548.933 245.41 549.206 245.113C550.162 244.075 550.162 242.442 549.206 241.404C548.249 240.365 546.746 240.365 545.79 241.404C545.79 241.404 545.653 241.552 545.653 241.7C529.804 230.571 513.817 219.292 497.968 208.163C498.651 206.679 498.514 204.898 497.421 203.562C496.055 202.079 493.732 202.079 492.366 203.562C492.092 203.859 491.956 204.156 491.819 204.453C484.851 200.891 477.882 197.33 471.05 193.917C471.46 192.878 471.187 191.542 470.367 190.652C469.274 189.465 467.498 189.465 466.268 190.652C465.175 191.839 465.175 193.768 466.268 195.104C466.541 195.401 466.951 195.697 467.225 195.846C463.945 208.311 460.666 220.628 457.387 233.093C453.015 228.493 448.779 224.041 444.406 219.441C445.909 217.66 445.773 214.841 444.27 213.208C443.587 212.466 442.767 212.021 441.81 211.873C442.357 205.937 442.767 199.853 443.313 193.917C463.399 153.85 475.969 128.919 481.025 118.828C482.254 119.422 483.757 119.273 484.714 118.086C485.944 116.751 485.944 114.376 484.714 113.041C483.484 111.705 481.298 111.705 480.068 113.041C478.839 114.376 478.839 116.602 480.068 117.938C469.547 130.255 459.026 142.72 448.642 155.037C447.003 153.553 444.68 153.701 443.177 155.334C441.537 157.114 441.537 159.934 443.177 161.566C443.86 162.308 444.68 162.605 445.5 162.754C444.68 172.993 443.86 183.232 443.04 193.62C435.798 208.014 427.464 224.486 418.173 243.036C416.396 242.145 414.347 242.442 412.98 243.926C411.204 245.855 411.204 248.972 412.98 251.049C414.757 252.978 417.626 252.978 419.539 251.049C421.315 249.12 421.315 246.004 419.539 243.926C419.266 243.629 418.992 243.481 418.719 243.184C427.737 225.228 435.798 209.053 443.04 194.807C442.63 200.446 442.084 205.937 441.674 211.576C440.581 211.576 439.351 212.021 438.531 212.911C436.892 214.692 436.892 217.66 438.531 219.441C440.171 221.222 442.767 221.222 444.406 219.589C448.779 224.19 453.151 228.79 457.523 233.39C456.02 239.178 454.518 244.965 452.878 250.752C451.375 250.456 449.735 250.752 448.642 252.088C447.003 253.869 446.866 256.54 448.232 258.469C444.68 261.585 438.531 266.928 429.65 274.644L429.513 274.496C427.737 272.567 425.004 272.567 423.365 274.496C421.588 276.425 421.588 279.393 423.365 281.174C425.141 283.103 427.874 283.103 429.513 281.174C431.016 279.541 431.153 276.87 429.923 275.089C438.668 267.373 444.953 262.031 448.506 258.914L448.642 259.063C450.418 260.992 453.288 260.992 455.064 259.063C456.84 257.133 456.84 254.017 455.064 252.088C454.518 251.494 453.971 251.198 453.288 250.901C454.791 245.262 456.294 239.474 457.797 233.835C467.771 244.223 477.746 254.759 487.72 265.147C478.019 281.47 469.547 295.717 462.169 308.182C452.195 308.182 442.22 308.033 432.109 308.033C432.109 306.995 431.699 306.104 431.016 305.362C429.787 304.027 427.874 303.73 426.371 304.769C421.452 296.755 407.242 273.754 383.877 236.061C384.014 235.913 384.15 235.764 384.287 235.616C385.927 233.835 385.927 230.867 384.287 228.938C382.647 227.157 379.915 227.157 378.138 228.938C376.499 230.719 376.499 233.687 378.138 235.616C379.505 237.1 381.691 237.397 383.331 236.358C406.559 273.902 420.769 296.755 425.824 305.065C425.688 305.214 425.551 305.214 425.414 305.362C423.911 306.995 423.911 309.666 425.414 311.298C426.917 312.93 429.377 312.93 430.88 311.298C431.563 310.556 431.973 309.666 431.973 308.627C441.81 308.627 451.785 308.775 461.623 308.775C460.803 310.259 459.846 311.595 459.026 313.079C457.933 312.634 456.704 312.93 455.747 313.969C454.518 315.305 454.518 317.382 455.611 318.718C441.401 342.461 432.246 357.895 428.147 364.721C426.371 363.682 424.184 363.83 422.681 365.463C420.905 367.392 420.905 370.508 422.681 372.437C424.868 374.96 427.19 375.108 428.967 373.773ZM474.056 351.513C474.466 351.068 474.466 350.475 474.056 350.178C473.646 349.733 473.1 349.733 472.827 350.178C472.417 350.623 472.417 351.217 472.827 351.513C473.237 351.81 473.783 351.81 474.056 351.513ZM511.221 309.072H510.948V309.369H511.221V309.072ZM632.963 341.423C632.69 341.571 632.69 342.016 632.963 342.165C633.237 342.313 633.51 342.313 633.646 342.165C633.92 341.868 633.92 341.571 633.646 341.423C633.373 341.126 633.1 341.126 632.963 341.423ZM711.255 324.209H711.665V323.763H711.255V324.209ZM561.23 297.794C561.503 297.497 561.503 297.052 561.23 296.755C560.956 296.458 560.547 296.458 560.273 296.755C560 297.052 560 297.497 560.273 297.794C560.547 298.091 560.956 298.091 561.23 297.794ZM456.704 277.167C456.43 277.464 456.43 277.909 456.704 278.206C456.977 278.503 457.387 278.503 457.66 278.206C457.933 277.909 457.933 277.464 457.66 277.167C457.523 276.87 456.977 276.87 456.704 277.167ZM406.422 396.626C404.646 398.555 404.646 401.523 406.422 403.452C407.378 404.491 408.471 404.936 409.701 404.788C409.838 407.31 410.111 410.575 410.521 414.582C409.701 414.73 408.881 415.027 408.335 415.769C406.832 417.401 406.832 420.221 408.335 421.853C409.838 423.486 412.434 423.486 413.937 421.853C415.44 420.221 415.44 417.401 413.937 415.769C413.117 414.879 412.161 414.433 411.067 414.582C410.794 410.278 410.521 407.014 410.248 404.788C410.658 404.788 411.068 404.639 411.477 404.343C414.893 411.614 418.446 418.885 421.862 426.008C421.588 426.157 421.179 426.454 420.905 426.75C419.129 428.68 419.129 431.796 420.905 433.725C421.588 434.467 422.545 434.912 423.365 435.061C422.955 439.216 422.272 446.19 421.315 455.836C420.085 455.836 418.992 456.281 418.036 457.172C416.396 458.952 416.396 461.92 418.036 463.849C419.676 465.63 422.408 465.63 424.184 463.849C425.824 462.069 425.824 459.101 424.184 457.172C423.501 456.43 422.681 455.984 421.862 455.836C422.818 446.19 423.501 439.216 423.911 435.061C425.141 435.061 426.507 434.615 427.464 433.577C429.24 431.647 429.24 428.531 427.464 426.602C426.097 425.118 424.048 424.821 422.272 425.563C418.856 418.292 415.303 411.02 411.887 403.897C412.161 403.749 412.57 403.452 412.707 403.155C414.483 401.226 414.483 398.258 412.707 396.329C410.931 394.4 408.198 394.845 406.422 396.626ZM380.188 442.629C378.548 444.41 378.548 447.081 380.188 448.861C381.418 450.197 383.194 450.494 384.697 449.752C386.746 453.907 390.299 461.475 395.628 472.605C395.354 472.753 395.081 472.902 394.945 473.198C393.442 474.831 393.442 477.502 394.945 479.134C396.448 480.767 398.907 480.767 400.41 479.134C401.913 477.502 401.913 474.831 400.41 473.198C399.18 471.863 397.541 471.714 396.038 472.308C390.709 461.327 387.156 453.758 385.107 449.455C385.38 449.307 385.653 449.01 385.927 448.861C387.566 447.081 387.566 444.41 385.927 442.629C385.107 441.738 384.014 441.293 382.784 441.293C381.964 434.022 381.281 426.75 380.461 419.331C381.144 419.182 381.964 418.737 382.511 418.143C384.014 416.511 384.014 413.84 382.511 412.208C382.101 411.762 381.554 411.466 381.008 411.169C382.784 403.897 387.293 386.535 394.125 359.082C395.491 359.378 397.131 358.933 398.224 357.746C400 355.817 400 352.849 398.224 350.92C396.448 348.991 393.715 348.991 391.939 350.92C390.162 352.849 390.162 355.817 391.939 357.746C392.485 358.34 393.032 358.637 393.715 358.933C386.746 386.387 382.374 403.749 380.598 411.02C379.368 410.724 378.002 411.169 377.045 412.208C375.542 413.84 375.542 416.511 377.045 418.143C377.865 419.034 378.958 419.479 379.915 419.331C380.734 426.602 381.418 433.873 382.237 441.293C381.554 441.59 380.734 441.887 380.188 442.629ZM371.853 457.765C370.214 459.546 370.214 462.217 371.853 463.998C373.493 465.779 375.952 465.779 377.592 463.998C379.231 462.217 379.231 459.546 377.592 457.765C375.952 456.133 373.493 456.133 371.853 457.765ZM367.617 403.007C369.12 404.639 371.443 404.639 372.81 403.007C374.313 401.375 374.313 398.852 372.81 397.368C371.307 395.736 368.984 395.736 367.617 397.368C366.251 399 366.251 401.375 367.617 403.007ZM360.376 487.89C358.599 489.819 358.599 492.935 360.376 494.716C362.152 496.645 365.021 496.645 366.661 494.716C368.437 492.787 368.437 489.67 366.661 487.89C364.885 485.96 362.152 485.96 360.376 487.89ZM352.724 434.17C354.5 436.099 357.506 436.099 359.283 434.17C361.059 432.241 361.059 428.976 359.283 427.047C357.506 425.118 354.5 425.118 352.724 427.047C350.948 428.976 350.948 432.093 352.724 434.17ZM353.407 411.762C351.631 409.833 348.625 409.833 346.849 411.762C345.073 413.692 345.073 416.956 346.849 418.885C348.625 420.815 351.631 420.815 353.407 418.885C355.32 416.956 355.32 413.692 353.407 411.762ZM352.861 388.613C354.774 386.535 354.774 383.27 352.861 381.193C350.948 379.115 347.942 379.115 346.029 381.193C344.116 383.27 344.116 386.535 346.029 388.613C347.805 390.69 350.948 390.69 352.861 388.613ZM352.314 449.158C354.091 447.229 354.091 444.261 352.314 442.332C350.538 440.403 347.805 440.403 346.029 442.332C344.253 444.261 344.253 447.229 346.029 449.158C347.805 450.939 350.675 450.939 352.314 449.158ZM346.166 503.62C344.663 505.252 344.663 507.923 346.166 509.555C347.669 511.188 350.128 511.188 351.631 509.555C353.134 507.923 353.134 505.252 351.631 503.62C350.128 501.839 347.669 501.839 346.166 503.62ZM342.75 473.198C341.247 474.831 341.247 477.502 342.75 479.134C344.253 480.767 346.712 480.767 348.215 479.134C349.718 477.502 349.718 474.831 348.215 473.198C346.712 471.566 344.253 471.566 342.75 473.198ZM341.93 351.513C340.427 353.146 340.427 355.965 341.93 357.598C343.433 359.23 346.029 359.23 347.532 357.598L347.669 357.449C352.314 361.456 362.152 369.618 377.045 382.232C375.816 384.161 375.952 386.832 377.592 388.613C379.368 390.542 382.237 390.542 384.014 388.613C385.79 386.683 385.79 383.567 384.014 381.638C382.237 379.709 379.368 379.709 377.592 381.638C377.455 381.786 377.455 381.786 377.319 381.935C362.289 369.173 352.451 361.011 347.942 357.153C348.898 355.52 348.898 353.443 347.669 351.959C350.401 348.991 353.271 346.023 356.003 343.055C357.643 344.687 360.239 344.687 361.879 342.907C362.699 342.016 363.108 340.977 363.108 339.79H409.428C409.428 340.829 409.838 341.868 410.521 342.61C412.024 344.242 414.62 344.242 416.123 342.61C416.943 341.719 417.353 340.681 417.353 339.493C419.129 339.345 421.452 339.197 424.321 338.9C424.458 339.939 424.868 340.829 425.551 341.571C427.19 343.352 429.787 343.352 431.426 341.571C433.066 339.79 433.066 336.971 431.426 335.19C429.787 333.409 427.19 333.409 425.551 335.19C424.731 336.08 424.321 337.267 424.321 338.455C421.452 338.751 419.129 338.9 417.353 339.048C417.216 338.158 416.943 337.267 416.26 336.525C414.757 334.893 412.161 334.893 410.658 336.525C409.974 337.267 409.564 338.306 409.564 339.345H363.245C363.245 338.306 362.835 337.119 362.015 336.229C360.376 334.448 357.643 334.448 355.867 336.229C354.227 338.009 354.227 340.829 355.73 342.61C352.997 345.578 350.128 348.546 347.395 351.513C345.756 349.881 343.433 349.881 341.93 351.513ZM376.362 373.031C378.002 371.25 378.002 368.134 376.362 366.353C374.722 364.572 371.853 364.572 370.214 366.353C368.574 368.134 368.574 371.25 370.214 373.031C371.853 374.96 374.586 374.96 376.362 373.031ZM337.284 297.052C339.061 298.981 341.793 298.981 343.57 297.052C345.346 295.123 345.346 292.155 343.57 290.226C341.793 288.297 339.061 288.297 337.284 290.226C335.645 292.155 335.645 295.271 337.284 297.052ZM338.924 327.028C340.427 325.396 340.427 322.873 338.924 321.241C337.421 319.608 335.098 319.608 333.595 321.241C332.092 322.873 332.092 325.396 333.595 327.028C335.098 328.66 337.558 328.66 338.924 327.028ZM337.011 434.022C338.787 432.093 338.787 428.976 337.011 427.196C335.235 425.266 332.366 425.266 330.726 427.196C328.95 429.125 328.95 432.241 330.726 434.022C332.366 435.951 335.235 435.951 337.011 434.022ZM330.043 494.419C331.546 496.051 334.142 496.051 335.781 494.419C337.284 492.787 337.284 489.967 335.781 488.186C334.278 486.554 331.682 486.554 330.043 488.186C328.403 489.967 328.403 492.787 330.043 494.419ZM323.348 518.014C321.435 520.092 321.435 523.356 323.348 525.285C325.26 527.363 328.266 527.363 330.043 525.285C331.956 523.208 331.956 519.943 330.043 518.014C328.266 516.085 325.26 516.085 323.348 518.014ZM322.118 458.062C320.615 459.694 320.615 462.217 322.118 463.701C323.621 465.333 325.944 465.333 327.31 463.701C328.813 462.069 328.813 459.546 327.31 458.062C325.944 456.578 323.621 456.578 322.118 458.062ZM317.882 372.734C319.385 374.367 321.845 374.367 323.348 372.734C324.851 371.102 324.851 368.431 323.348 366.798C321.845 365.166 319.385 365.166 317.882 366.798C316.379 368.431 316.379 371.102 317.882 372.734ZM309.821 533.596C308.181 535.376 308.181 538.344 309.821 540.125C311.46 541.906 314.193 541.906 315.833 540.125C317.472 538.344 317.472 535.376 315.833 533.596C314.193 531.815 311.46 531.815 309.821 533.596ZM315.696 509.704C317.336 507.923 317.336 505.104 315.696 503.323C314.056 501.542 311.46 501.542 309.821 503.323C308.181 505.104 308.181 507.923 309.821 509.704C311.46 511.485 314.056 511.485 315.696 509.704ZM309.547 472.605C307.771 474.534 307.771 477.799 309.547 479.728C311.324 481.657 314.33 481.657 316.106 479.728C317.882 477.799 317.882 474.534 316.106 472.605C314.33 470.676 311.324 470.676 309.547 472.605ZM315.833 442.332C314.193 440.551 311.324 440.551 309.684 442.332C308.044 444.113 308.044 447.229 309.684 449.01C311.324 450.791 314.193 450.791 315.833 449.01C317.609 447.229 317.609 444.261 315.833 442.332ZM315.696 418.44C317.336 416.659 317.336 413.84 315.696 412.208C314.056 410.427 311.46 410.427 309.957 412.208C308.318 413.988 308.318 416.808 309.957 418.44C311.46 420.221 314.056 420.221 315.696 418.44ZM309.274 381.193C307.361 383.27 307.361 386.683 309.274 388.761C311.187 390.838 314.33 390.838 316.243 388.761C318.155 386.683 318.155 383.27 316.243 381.193C314.33 379.115 311.324 379.115 309.274 381.193ZM295.884 549.029C294.244 550.81 294.244 553.629 295.884 555.262C297.524 557.042 300.12 557.042 301.623 555.262C303.262 553.481 303.262 550.661 301.623 549.029C300.12 547.248 297.524 547.248 295.884 549.029ZM295.747 518.459C294.108 520.24 294.108 523.208 295.747 524.989C297.387 526.769 300.12 526.769 301.759 524.989C303.399 523.208 303.399 520.24 301.759 518.459C300.12 516.678 297.523 516.678 295.747 518.459ZM301.759 457.765C300.12 455.984 297.387 455.984 295.747 457.765C294.108 459.546 294.108 462.514 295.747 464.295C297.387 466.075 300.12 466.075 301.759 464.295C303.399 462.365 303.399 459.546 301.759 457.765ZM301.623 433.577C303.126 431.944 303.126 429.125 301.623 427.492C300.12 425.86 297.524 425.86 296.021 427.492C294.518 429.125 294.518 431.944 296.021 433.577C297.524 435.209 300.12 435.209 301.623 433.577ZM295.884 488.186C294.244 489.967 294.244 492.787 295.884 494.567C297.524 496.348 300.12 496.348 301.759 494.567C303.399 492.787 303.399 489.967 301.759 488.186C300.12 486.406 297.524 486.406 295.884 488.186ZM295.611 396.626C293.834 398.555 293.834 401.671 295.611 403.601C297.387 405.53 300.256 405.53 302.033 403.601C303.809 401.671 303.809 398.555 302.033 396.626C300.256 394.697 297.387 394.697 295.611 396.626ZM295.611 366.205C293.834 368.134 293.834 371.399 295.611 373.328C297.387 375.257 300.393 375.257 302.169 373.328C303.945 371.399 303.945 368.134 302.169 366.205C300.256 364.276 297.387 364.276 295.611 366.205ZM301.623 342.313C303.126 340.681 303.126 337.861 301.623 336.229C300.12 334.596 297.524 334.596 296.021 336.229C294.518 337.861 294.518 340.681 296.021 342.313C297.524 344.094 300.12 344.094 301.623 342.313ZM295.474 305.214C293.561 307.291 293.561 310.556 295.474 312.634C297.387 314.711 300.393 314.711 302.306 312.634C304.219 310.556 304.219 307.291 302.306 305.214C300.393 303.136 297.25 303.136 295.474 305.214ZM295.337 274.793C293.424 276.87 293.424 280.135 295.337 282.212C297.25 284.29 300.256 284.29 302.169 282.212C304.082 280.135 304.082 276.87 302.169 274.793C300.393 272.715 297.25 272.715 295.337 274.793ZM281.947 564.165C280.307 565.946 280.307 568.766 281.947 570.546C283.587 572.327 286.183 572.327 287.822 570.546C289.462 568.766 289.462 565.946 287.822 564.165C286.183 562.385 283.45 562.385 281.947 564.165ZM281.674 533.596C279.898 535.525 279.898 538.493 281.674 540.422C283.45 542.351 286.183 542.351 287.959 540.422C289.735 538.493 289.735 535.525 287.959 533.596C286.183 531.667 283.45 531.667 281.674 533.596ZM287.686 509.704C289.325 507.923 289.325 505.104 287.686 503.323C286.046 501.542 283.45 501.542 281.81 503.323C280.171 505.104 280.171 507.923 281.81 509.704C283.45 511.485 286.183 511.485 287.686 509.704ZM281.401 472.456C279.488 474.534 279.488 477.799 281.401 479.728C283.313 481.805 286.319 481.805 288.096 479.728C290.009 477.65 290.009 474.386 288.096 472.456C286.319 470.527 283.313 470.527 281.401 472.456ZM287.959 411.911C286.183 409.982 283.313 409.982 281.674 411.911C279.898 413.84 279.898 416.956 281.674 418.737C283.45 420.666 286.319 420.666 287.959 418.737C289.735 416.808 289.735 413.84 287.959 411.911ZM287.686 388.167C289.325 386.387 289.325 383.567 287.686 381.786C286.046 380.006 283.45 380.006 281.81 381.786C280.171 383.567 280.171 386.387 281.81 388.167C283.45 389.8 286.183 389.8 287.686 388.167ZM287.959 442.332C286.183 440.403 283.313 440.403 281.537 442.332C279.761 444.261 279.761 447.377 281.537 449.307C283.313 451.236 286.183 451.236 287.959 449.307C289.735 447.229 289.735 444.113 287.959 442.332ZM281.401 350.772C279.488 352.849 279.488 356.114 281.401 358.191C283.313 360.269 286.319 360.269 288.232 358.191C290.145 356.114 290.145 352.849 288.232 350.772C286.319 348.694 283.313 348.694 281.401 350.772ZM288.096 259.805C286.319 257.875 283.313 257.875 281.537 259.805C279.761 261.734 279.761 264.999 281.537 266.928C283.313 268.857 286.319 268.857 288.096 266.928C289.872 264.85 289.872 261.734 288.096 259.805ZM288.096 236.506C289.872 234.577 289.872 231.313 288.096 229.383C286.319 227.454 283.313 227.454 281.537 229.383C279.761 231.313 279.761 234.577 281.537 236.506C283.313 238.436 286.319 238.436 288.096 236.506ZM281.674 290.374C279.898 292.303 279.898 295.271 281.674 297.052C283.45 298.981 286.183 298.981 287.959 297.052C289.735 295.123 289.735 292.155 287.959 290.374C286.183 288.445 283.45 288.445 281.674 290.374ZM288.096 320.499C286.319 318.57 283.313 318.57 281.537 320.499C279.761 322.428 279.761 325.693 281.537 327.622C283.313 329.551 286.319 329.551 288.096 327.622C289.872 325.693 289.872 322.576 288.096 320.499ZM281.264 198.665C279.351 200.743 279.351 204.156 281.264 206.234C283.177 208.311 286.319 208.311 288.232 206.234C290.145 204.156 290.145 200.743 288.232 198.665C286.319 196.588 283.313 196.588 281.264 198.665ZM267.464 578.857C265.551 580.934 265.551 584.199 267.464 586.276C269.377 588.354 272.383 588.354 274.295 586.276C276.208 584.199 276.208 580.934 274.295 578.857C272.383 576.779 269.24 576.779 267.464 578.857ZM268.01 524.84C269.65 526.621 272.109 526.621 273.749 524.84C275.389 523.06 275.389 520.388 273.749 518.608C272.109 516.827 269.65 516.827 268.01 518.608C266.371 520.388 266.371 523.06 268.01 524.84ZM268.01 549.029C266.507 550.81 266.507 553.481 268.01 555.262C269.513 556.894 272.109 556.894 273.749 555.262C275.389 553.629 275.389 550.81 273.749 549.029C272.109 547.397 269.513 547.397 268.01 549.029ZM273.612 494.419C275.115 492.787 275.115 489.967 273.612 488.335C272.109 486.702 269.513 486.702 268.01 488.335C266.507 489.967 266.507 492.787 268.01 494.419C269.513 496.051 272.109 496.051 273.612 494.419ZM267.6 464.443C269.377 466.372 272.383 466.372 274.159 464.443C275.935 462.514 275.935 459.249 274.159 457.32C272.383 455.391 269.377 455.391 267.6 457.32C265.687 459.398 265.687 462.514 267.6 464.443ZM267.464 434.17C269.24 436.099 272.246 436.099 274.022 434.17C275.799 432.241 275.799 428.976 274.022 427.047C272.246 425.118 269.24 425.118 267.464 427.047C265.687 428.976 265.687 432.093 267.464 434.17ZM267.464 396.478C265.551 398.555 265.551 401.82 267.464 403.897C269.377 405.975 272.383 405.975 274.295 403.897C276.208 401.82 276.208 398.555 274.295 396.478C272.383 394.4 269.24 394.4 267.464 396.478ZM274.159 373.328C276.072 371.25 276.072 367.985 274.159 366.056C272.246 363.979 269.24 363.979 267.464 366.056C265.551 368.134 265.551 371.399 267.464 373.328C269.377 375.405 272.383 375.405 274.159 373.328ZM267.327 335.635C265.414 337.713 265.414 340.977 267.327 343.055C269.24 345.132 272.246 345.132 274.159 343.055C276.072 340.977 276.072 337.713 274.159 335.635C272.383 333.558 269.24 333.558 267.327 335.635ZM274.022 214.247C272.246 212.318 269.377 212.318 267.6 214.247C265.824 216.176 265.824 219.292 267.6 221.222C269.377 223.151 272.246 223.151 274.022 221.222C275.799 219.292 275.799 216.176 274.022 214.247ZM273.886 190.652C275.662 188.723 275.662 185.755 273.886 183.974C272.109 182.045 269.377 182.045 267.737 183.974C265.961 185.903 265.961 188.871 267.737 190.652C269.377 192.581 272.246 192.581 273.886 190.652ZM274.295 244.371C272.383 242.294 269.377 242.294 267.464 244.371C265.551 246.449 265.551 249.714 267.464 251.791C269.377 253.869 272.383 253.869 274.295 251.791C276.072 249.714 276.072 246.449 274.295 244.371ZM273.886 305.511C272.109 303.582 269.377 303.582 267.6 305.511C265.824 307.44 265.824 310.408 267.6 312.337C269.377 314.266 272.109 314.266 273.886 312.337C275.662 310.408 275.662 307.44 273.886 305.511ZM273.886 281.916C275.662 279.987 275.662 277.019 273.886 275.238C272.109 273.309 269.377 273.309 267.737 275.238C265.961 277.167 265.961 280.135 267.737 281.916C269.377 283.696 272.246 283.696 273.886 281.916ZM267.327 153.108C265.414 155.185 265.414 158.45 267.327 160.528C269.24 162.605 272.246 162.605 274.159 160.528C276.072 158.45 276.072 155.185 274.159 153.108C272.383 151.03 269.24 151.03 267.327 153.108ZM273.886 129.81C275.525 128.029 275.525 124.912 273.886 123.132C272.246 121.351 269.377 121.351 267.737 123.132C266.097 124.912 266.097 128.029 267.737 129.81C269.377 131.739 272.246 131.739 273.886 129.81ZM267.327 92.4137C265.414 94.4913 265.414 97.756 267.327 99.8336C269.24 101.911 272.246 101.911 274.159 99.8336C276.072 97.756 276.072 94.4913 274.159 92.4137C272.383 90.3362 269.24 90.3362 267.327 92.4137ZM253.937 564.165C252.297 565.946 252.297 568.766 253.937 570.546C255.576 572.327 258.173 572.327 259.812 570.546C261.452 568.766 261.452 565.946 259.812 564.165C258.173 562.385 255.576 562.385 253.937 564.165ZM253.664 533.596C251.887 535.525 251.887 538.493 253.664 540.422C255.44 542.351 258.172 542.351 259.949 540.422C261.725 538.493 261.725 535.525 259.949 533.596C258.172 531.667 255.44 531.667 253.664 533.596ZM259.949 509.852C261.588 508.072 261.588 505.104 259.949 503.174C258.309 501.394 255.576 501.394 253.8 503.174C252.161 504.955 252.161 507.923 253.8 509.852C255.44 511.633 258.172 511.633 259.949 509.852ZM253.527 472.605C251.751 474.534 251.751 477.65 253.527 479.728C255.303 481.657 258.173 481.657 260.085 479.728C261.862 477.799 261.862 474.682 260.085 472.605C258.309 470.676 255.303 470.676 253.527 472.605ZM253.664 418.737C255.44 420.666 258.172 420.666 259.949 418.737C261.725 416.808 261.725 413.84 259.949 411.911C258.172 409.982 255.44 409.982 253.664 411.911C251.887 413.84 251.887 416.808 253.664 418.737ZM253.8 442.48C252.161 444.261 252.161 447.229 253.8 449.01C255.44 450.791 258.173 450.791 259.812 449.01C261.452 447.229 261.452 444.261 259.812 442.48C258.173 440.7 255.44 440.7 253.8 442.48ZM253.664 388.464C255.44 390.393 258.309 390.393 260.085 388.464C261.862 386.535 261.862 383.419 260.085 381.49C258.309 379.56 255.44 379.56 253.664 381.49C251.751 383.419 251.751 386.535 253.664 388.464ZM253.527 350.92C251.751 352.849 251.751 356.114 253.527 358.043C255.303 359.972 258.309 359.972 260.085 358.043C261.862 356.114 261.862 352.849 260.085 350.92C258.309 348.991 255.303 348.991 253.527 350.92ZM259.676 327.325C261.315 325.544 261.315 322.725 259.676 321.092C258.036 319.312 255.44 319.312 253.937 321.092C252.297 322.873 252.297 325.693 253.937 327.325C255.576 328.957 258.173 328.957 259.676 327.325ZM253.39 290.077C251.477 292.155 251.477 295.42 253.39 297.497C255.303 299.575 258.309 299.575 260.222 297.497C262.135 295.42 262.135 292.155 260.222 290.077C258.309 288 255.303 288 253.39 290.077ZM259.949 138.268C258.172 136.339 255.44 136.339 253.664 138.268C251.887 140.197 251.887 143.165 253.664 145.094C255.44 147.024 258.172 147.024 259.949 145.094C261.725 143.165 261.725 140.197 259.949 138.268ZM259.949 114.673C261.588 112.892 261.588 109.924 259.949 107.995C258.309 106.215 255.576 106.215 253.8 107.995C252.161 109.776 252.161 112.744 253.8 114.673C255.44 116.454 258.172 116.454 259.949 114.673ZM253.937 236.061C255.576 237.842 258.173 237.842 259.676 236.061C261.315 234.28 261.315 231.461 259.676 229.829C258.036 228.048 255.44 228.048 253.937 229.829C252.297 231.461 252.297 234.28 253.937 236.061ZM253.937 260.25C252.434 261.882 252.434 264.702 253.937 266.334C255.44 267.966 258.036 267.966 259.539 266.334C261.042 264.702 261.042 261.882 259.539 260.25C258.036 258.469 255.576 258.469 253.937 260.25ZM253.937 205.64C255.576 207.421 258.173 207.421 259.812 205.64C261.452 203.859 261.452 201.04 259.812 199.259C258.173 197.478 255.576 197.478 253.937 199.259C252.297 201.04 252.297 203.859 253.937 205.64ZM253.8 175.367C255.44 177.148 258.173 177.148 259.812 175.367C261.452 173.586 261.452 170.619 259.812 168.838C258.173 167.057 255.44 167.057 253.8 168.838C252.161 170.619 252.161 173.586 253.8 175.367ZM253.39 77.1289C251.477 79.2065 251.477 82.6196 253.39 84.6971C255.303 86.7747 258.446 86.7747 260.359 84.6971C262.272 82.6196 262.272 79.2065 260.359 77.1289C258.446 75.0513 255.303 75.0513 253.39 77.1289ZM240 549.029C238.36 550.81 238.36 553.481 240 555.262C241.64 557.042 244.099 557.042 245.739 555.262C247.378 553.481 247.378 550.81 245.739 549.029C244.099 547.397 241.503 547.397 240 549.029ZM239.59 518.311C237.814 520.24 237.814 523.356 239.59 525.285C241.366 527.215 244.236 527.215 246.012 525.285C247.788 523.356 247.788 520.24 246.012 518.311C244.236 516.382 241.366 516.382 239.59 518.311ZM245.739 494.567C247.378 492.787 247.378 489.967 245.739 488.186C244.099 486.406 241.503 486.406 239.863 488.186C238.224 489.967 238.224 492.787 239.863 494.567C241.503 496.2 244.099 496.2 245.739 494.567ZM239.453 457.32C237.541 459.398 237.541 462.662 239.453 464.591C241.366 466.669 244.372 466.669 246.149 464.591C248.062 462.514 248.062 459.249 246.149 457.32C244.372 455.242 241.366 455.242 239.453 457.32ZM225.517 533.447C223.74 535.376 223.74 538.641 225.517 540.57C227.293 542.499 230.299 542.499 232.075 540.57C233.851 538.641 233.851 535.376 232.075 533.447C230.299 531.37 227.293 531.37 225.517 533.447ZM232.075 503.026C230.299 501.097 227.43 501.097 225.517 503.026C223.74 504.955 223.74 508.072 225.517 510.149C227.293 512.078 230.162 512.078 232.075 510.149C233.851 508.072 233.851 504.955 232.075 503.026ZM231.665 479.134C233.168 477.502 233.168 474.682 231.665 473.05C230.162 471.418 227.566 471.418 226.063 473.05C224.56 474.682 224.56 477.502 226.063 479.134C227.566 480.915 230.026 480.915 231.665 479.134ZM225.38 441.887C223.467 443.964 223.467 447.377 225.38 449.455C227.293 451.533 230.436 451.533 232.348 449.455C234.261 447.377 234.261 443.964 232.348 441.887C230.436 439.809 227.293 439.809 225.38 441.887ZM232.075 138.268C230.299 136.339 227.43 136.339 225.653 138.268C223.877 140.197 223.877 143.314 225.653 145.243C227.43 147.172 230.299 147.172 232.075 145.243C233.851 143.314 233.715 140.197 232.075 138.268ZM231.665 114.376C233.305 112.596 233.305 109.776 231.665 108.144C230.026 106.363 227.43 106.363 225.927 108.144C224.287 109.924 224.287 112.744 225.927 114.376C227.566 116.157 230.162 116.157 231.665 114.376ZM232.212 168.393C230.299 166.315 227.293 166.315 225.38 168.393C223.467 170.47 223.467 173.735 225.38 175.812C227.293 177.89 230.299 177.89 232.212 175.812C234.125 173.735 234.125 170.47 232.212 168.393ZM225.927 357.746C227.566 359.527 230.162 359.527 231.802 357.746C233.442 355.965 233.442 353.146 231.802 351.365C230.162 349.584 227.566 349.584 225.927 351.365C224.287 353.146 224.287 355.965 225.927 357.746ZM225.927 381.786C224.287 383.567 224.287 386.387 225.927 388.167C227.566 389.948 230.162 389.948 231.802 388.167C233.442 386.387 233.442 383.567 231.802 381.786C230.162 380.006 227.566 380.006 225.927 381.786ZM231.802 412.059C230.162 410.278 227.43 410.278 225.79 412.059C224.15 413.84 224.15 416.808 225.79 418.589C227.43 420.369 230.162 420.369 231.802 418.589C233.442 416.808 233.442 413.84 231.802 412.059ZM225.79 327.473C227.566 329.402 230.299 329.402 231.939 327.473C233.715 325.544 233.715 322.576 231.939 320.795C230.162 318.866 227.43 318.866 225.79 320.795C224.014 322.576 224.014 325.693 225.79 327.473ZM231.665 229.829C230.026 228.048 227.43 228.048 225.927 229.829C224.287 231.609 224.287 234.429 225.927 236.061C227.566 237.842 230.162 237.842 231.665 236.061C233.305 234.28 233.305 231.461 231.665 229.829ZM231.665 205.64C233.305 203.859 233.305 201.04 231.665 199.407C230.026 197.627 227.43 197.627 225.927 199.407C224.287 201.188 224.287 204.008 225.927 205.64C227.566 207.421 230.162 207.421 231.665 205.64ZM231.802 260.101C230.162 258.321 227.566 258.321 225.927 260.101C224.287 261.882 224.287 264.702 225.927 266.482C227.566 268.263 230.162 268.263 231.802 266.482C233.442 264.702 233.442 261.882 231.802 260.101ZM231.939 290.374C230.162 288.445 227.43 288.445 225.79 290.374C224.014 292.303 224.014 295.271 225.79 297.052C227.566 298.981 230.299 298.981 231.939 297.052C233.578 295.271 233.578 292.155 231.939 290.374ZM225.38 77.1289C223.467 79.2065 223.467 82.6196 225.38 84.6971C227.293 86.7747 230.436 86.7747 232.348 84.6971C234.261 82.6196 234.261 79.2065 232.348 77.1289C230.436 75.0513 227.293 75.0513 225.38 77.1289ZM211.716 518.311C209.94 520.24 209.94 523.208 211.716 525.137C213.493 527.066 216.225 527.066 218.002 525.137C219.778 523.208 219.778 520.24 218.002 518.311C216.225 516.53 213.493 516.53 211.716 518.311ZM217.728 494.419C219.368 492.638 219.368 489.967 217.728 488.186C216.089 486.406 213.629 486.406 211.99 488.186C210.35 489.967 210.35 492.638 211.99 494.419C213.493 496.2 216.089 496.2 217.728 494.419ZM211.58 457.32C209.804 459.249 209.804 462.514 211.58 464.443C213.356 466.372 216.362 466.372 218.138 464.443C219.915 462.514 219.915 459.249 218.138 457.32C216.362 455.391 213.356 455.391 211.58 457.32ZM217.865 214.395C216.225 212.615 213.356 212.615 211.716 214.395C210.077 216.176 210.077 219.292 211.716 221.073C213.356 222.854 216.225 222.854 217.865 221.073C219.641 219.144 219.641 216.176 217.865 214.395ZM217.865 190.652C219.505 188.871 219.505 185.903 217.865 184.123C216.225 182.342 213.493 182.342 211.853 184.123C210.214 185.903 210.214 188.871 211.853 190.652C213.493 192.433 216.225 192.433 217.865 190.652ZM211.716 244.817C210.077 246.597 210.077 249.714 211.716 251.494C213.356 253.275 216.225 253.275 217.865 251.494C219.505 249.714 219.505 246.597 217.865 244.817C216.225 242.887 213.493 242.887 211.716 244.817ZM218.002 275.089C216.225 273.16 213.356 273.16 211.716 275.089C209.94 277.019 209.94 280.135 211.716 281.916C213.493 283.845 216.362 283.845 218.002 281.916C219.778 279.987 219.778 277.019 218.002 275.089ZM211.853 342.461C213.493 344.242 216.089 344.242 217.728 342.461C219.368 340.681 219.368 337.861 217.728 336.08C216.089 334.3 213.493 334.3 211.853 336.08C210.35 337.861 210.35 340.681 211.853 342.461ZM211.99 366.65C210.487 368.282 210.487 371.102 211.99 372.734C213.493 374.367 216.089 374.367 217.592 372.734C219.095 371.102 219.095 368.282 217.592 366.65C216.089 365.018 213.629 365.018 211.99 366.65ZM211.853 312.04C213.493 313.821 216.089 313.821 217.728 312.04C219.368 310.259 219.368 307.44 217.728 305.659C216.089 303.878 213.493 303.878 211.853 305.659C210.214 307.44 210.214 310.408 211.853 312.04ZM218.002 396.626C216.225 394.697 213.356 394.697 211.58 396.626C209.804 398.555 209.804 401.671 211.58 403.601C213.356 405.53 216.225 405.53 218.002 403.601C219.778 401.671 219.778 398.555 218.002 396.626ZM211.716 427.047C209.94 428.976 209.94 431.944 211.716 433.873C213.493 435.803 216.225 435.803 218.002 433.873C219.778 431.944 219.778 428.976 218.002 427.047C216.225 425.118 213.356 425.266 211.716 427.047ZM211.58 153.256C209.804 155.185 209.804 158.45 211.58 160.379C213.356 162.308 216.362 162.308 218.138 160.379C219.915 158.45 219.915 155.185 218.138 153.256C216.362 151.327 213.356 151.327 211.58 153.256ZM211.443 122.835C209.53 124.913 209.53 128.177 211.443 130.106C213.356 132.184 216.362 132.184 218.138 130.106C220.051 128.029 220.051 124.764 218.138 122.835C216.362 120.906 213.356 120.906 211.443 122.835ZM217.728 99.2399C219.368 97.4592 219.368 94.7881 217.728 93.0073C216.089 91.2266 213.629 91.2266 211.99 93.0073C210.35 94.7881 210.35 97.4592 211.99 99.2399C213.493 100.872 216.089 100.872 217.728 99.2399ZM211.443 61.9925C209.53 64.0701 209.53 67.3348 211.443 69.4123C213.356 71.4899 216.362 71.4899 218.275 69.4123C220.188 67.3348 220.188 64.0701 218.275 61.9925C216.362 59.915 213.356 59.915 211.443 61.9925ZM197.506 502.878C195.594 504.955 195.594 508.22 197.506 510.297C199.419 512.375 202.425 512.375 204.338 510.297C206.251 508.22 206.251 504.955 204.338 502.878C202.289 500.8 199.283 500.8 197.506 502.878ZM197.37 472.456C195.457 474.534 195.457 477.799 197.37 479.876C199.283 481.954 202.289 481.954 204.202 479.876C206.114 477.799 206.114 474.534 204.202 472.456C202.425 470.379 199.283 470.379 197.37 472.456ZM203.928 449.158C205.705 447.229 205.705 444.261 203.928 442.332C202.152 440.403 199.419 440.403 197.643 442.332C195.867 444.261 195.867 447.229 197.643 449.158C199.419 451.087 202.289 451.087 203.928 449.158ZM197.37 411.614C195.457 413.692 195.457 416.956 197.37 419.034C199.283 421.111 202.289 421.111 204.202 419.034C206.114 416.956 206.114 413.692 204.202 411.614C202.425 409.536 199.283 409.536 197.37 411.614ZM197.506 297.2C199.283 299.13 202.289 299.13 204.065 297.2C205.841 295.271 205.841 292.007 204.065 290.077C202.289 288.148 199.283 288.148 197.506 290.077C195.73 292.155 195.73 295.271 197.506 297.2ZM197.916 320.944C196.277 322.725 196.277 325.693 197.916 327.473C199.556 329.254 202.289 329.254 203.928 327.473C205.568 325.693 205.568 322.725 203.928 320.944C202.152 319.015 199.556 319.015 197.916 320.944ZM197.78 236.21C199.419 237.99 202.152 237.99 203.792 236.21C205.431 234.429 205.431 231.461 203.792 229.68C202.152 227.899 199.419 227.899 197.78 229.68C196.14 231.461 196.14 234.429 197.78 236.21ZM197.916 260.25C196.277 262.031 196.277 264.702 197.916 266.482C199.556 268.263 202.015 268.263 203.655 266.482C205.295 264.702 205.295 262.031 203.655 260.25C202.152 258.469 199.556 258.469 197.916 260.25ZM197.78 205.788C199.419 207.569 202.152 207.569 203.792 205.788C205.431 204.008 205.431 201.04 203.792 199.259C202.152 197.478 199.419 197.478 197.78 199.259C196.14 201.04 196.14 204.008 197.78 205.788ZM197.506 175.664C199.283 177.593 202.289 177.593 204.202 175.664C205.978 173.735 205.978 170.47 204.202 168.393C202.425 166.315 199.419 166.463 197.506 168.393C195.73 170.47 195.73 173.735 197.506 175.664ZM204.202 350.92C202.289 348.842 199.283 348.842 197.506 350.92C195.594 352.997 195.594 356.262 197.506 358.191C199.419 360.269 202.425 360.269 204.202 358.191C206.114 356.114 206.114 352.849 204.202 350.92ZM197.78 381.638C196.14 383.419 196.14 386.387 197.78 388.167C199.419 389.948 202.152 389.948 203.792 388.167C205.431 386.387 205.431 383.419 203.792 381.638C202.152 379.857 199.556 379.857 197.78 381.638ZM197.37 137.971C195.457 140.049 195.457 143.462 197.37 145.54C199.283 147.617 202.425 147.617 204.338 145.54C206.251 143.462 206.251 140.049 204.338 137.971C202.425 135.894 199.283 135.894 197.37 137.971ZM183.433 487.741C181.52 489.819 181.52 493.083 183.433 495.013C185.346 497.09 188.352 497.09 190.128 495.013C192.041 492.935 192.041 489.67 190.128 487.741C188.352 485.664 185.346 485.664 183.433 487.741ZM183.98 403.304C185.619 405.085 188.079 405.085 189.718 403.304C191.358 401.523 191.358 398.852 189.718 397.071C188.079 395.29 185.619 395.29 183.98 397.071C182.34 398.703 182.34 401.523 183.98 403.304ZM183.98 427.492C182.477 429.125 182.477 431.944 183.98 433.577C185.483 435.209 188.079 435.209 189.582 433.577C191.085 431.944 191.085 429.125 189.582 427.492C188.079 425.712 185.619 425.712 183.98 427.492ZM189.718 457.765C188.079 455.984 185.483 455.984 183.98 457.765C182.34 459.546 182.34 462.365 183.98 463.998C185.619 465.63 188.215 465.779 189.718 463.998C191.358 462.365 191.358 459.546 189.718 457.765ZM183.57 373.179C185.346 375.108 188.215 375.108 189.992 373.179C191.768 371.25 191.768 368.134 189.992 366.056C188.215 364.127 185.346 364.127 183.57 366.056C181.793 368.134 181.793 371.25 183.57 373.179ZM189.992 342.758C191.768 340.829 191.768 337.861 189.992 335.932C188.215 334.003 185.483 334.003 183.706 335.932C181.93 337.861 181.93 340.829 183.706 342.758C185.483 344.687 188.215 344.687 189.992 342.758ZM183.433 312.485C185.346 314.563 188.215 314.563 190.128 312.485C192.041 310.408 192.041 307.143 190.128 305.214C188.215 303.136 185.346 303.136 183.433 305.214C181.657 307.291 181.657 310.556 183.433 312.485ZM183.433 282.212C185.346 284.29 188.352 284.29 190.128 282.212C192.041 280.135 192.041 276.87 190.128 274.941C188.215 272.863 185.209 272.863 183.433 274.941C181.657 276.87 181.657 280.135 183.433 282.212ZM183.296 244.371C181.383 246.449 181.383 249.862 183.296 251.94C185.209 254.017 188.352 254.017 190.265 251.94C192.178 249.862 192.178 246.449 190.265 244.371C188.352 242.294 185.346 242.294 183.296 244.371ZM169.36 472.456C167.447 474.534 167.447 477.799 169.36 479.876C171.272 481.954 174.278 481.954 176.191 479.876C178.104 477.799 178.104 474.534 176.191 472.456C174.415 470.379 171.272 470.379 169.36 472.456ZM175.918 381.638C174.278 379.857 171.546 379.857 169.906 381.638C168.266 383.419 168.266 386.387 169.906 388.167C171.546 389.948 174.278 389.948 175.918 388.167C177.558 386.387 177.558 383.419 175.918 381.638ZM175.918 357.746C177.558 355.965 177.558 352.997 175.918 351.217C174.278 349.436 171.546 349.436 169.906 351.217C168.266 352.997 168.266 355.965 169.906 357.746C171.546 359.675 174.142 359.675 175.918 357.746ZM175.918 411.911C174.142 409.982 171.409 409.982 169.633 411.911C167.857 413.84 167.857 416.808 169.633 418.737C171.409 420.666 174.142 420.666 175.918 418.737C177.694 416.808 177.694 413.84 175.918 411.911ZM169.906 442.629C168.266 444.41 168.266 447.081 169.906 448.861C171.546 450.642 174.005 450.642 175.645 448.861C177.284 447.081 177.284 444.41 175.645 442.629C174.005 440.848 171.546 440.848 169.906 442.629ZM169.36 320.35C167.447 322.428 167.447 325.841 169.36 327.918C171.272 329.996 174.415 329.996 176.328 327.918C178.241 325.841 178.241 322.428 176.328 320.35C174.415 318.273 171.272 318.273 169.36 320.35ZM155.423 457.32C153.51 459.398 153.51 462.662 155.423 464.591C157.336 466.669 160.342 466.669 162.118 464.591C164.031 462.514 164.031 459.249 162.118 457.32C160.342 455.242 157.336 455.242 155.423 457.32ZM161.845 427.196C160.205 425.415 157.472 425.415 155.696 427.196C154.056 428.976 154.056 431.944 155.696 433.873C157.336 435.654 160.068 435.654 161.845 433.873C163.621 432.093 163.621 428.976 161.845 427.196ZM161.708 403.155C163.211 401.523 163.211 398.703 161.708 396.923C160.205 395.29 157.609 395.29 155.969 396.923C154.466 398.555 154.466 401.375 155.969 403.155C157.609 404.936 160.068 404.936 161.708 403.155ZM155.423 366.056C153.51 368.134 153.51 371.399 155.423 373.476C157.336 375.554 160.342 375.554 162.255 373.476C164.167 371.399 164.167 368.134 162.255 366.056C160.342 363.979 157.336 363.979 155.423 366.056ZM155.696 281.916C157.472 283.845 160.205 283.845 161.845 281.916C163.621 279.987 163.621 277.019 161.845 275.238C160.068 273.309 157.336 273.309 155.696 275.238C154.056 277.019 154.056 279.987 155.696 281.916ZM155.969 305.807C154.33 307.588 154.33 310.408 155.969 312.189C157.609 313.969 160.205 313.969 161.845 312.189C163.484 310.408 163.484 307.588 161.845 305.807C160.205 304.027 157.609 304.027 155.969 305.807ZM155.833 221.073C157.472 222.854 160.205 222.854 161.981 221.073C163.621 219.292 163.621 216.325 161.981 214.395C160.342 212.615 157.609 212.615 155.833 214.395C154.056 216.176 154.056 219.144 155.833 221.073ZM155.833 244.965C154.193 246.746 154.193 249.565 155.833 251.346C157.472 253.127 160.068 253.127 161.708 251.346C163.348 249.565 163.348 246.746 161.708 244.965C160.205 243.184 157.472 243.184 155.833 244.965ZM155.559 190.8C157.336 192.73 160.205 192.73 162.118 190.8C163.894 188.871 163.894 185.755 162.118 183.677C160.342 181.748 157.472 181.748 155.559 183.677C153.783 185.755 153.783 188.871 155.559 190.8ZM162.255 335.635C160.342 333.558 157.336 333.558 155.423 335.635C153.51 337.713 153.51 340.977 155.423 343.055C157.336 345.132 160.342 345.132 162.255 343.055C164.167 340.977 164.167 337.713 162.255 335.635ZM155.423 153.108C153.51 155.185 153.51 158.598 155.423 160.528C157.336 162.605 160.478 162.605 162.255 160.528C164.167 158.45 164.167 155.037 162.255 153.108C160.342 151.03 157.336 151.03 155.423 153.108ZM141.623 442.184C139.846 444.113 139.846 447.229 141.623 449.158C143.399 451.087 146.268 451.087 148.044 449.158C149.821 447.229 149.821 444.113 148.044 442.184C146.268 440.254 143.399 440.254 141.623 442.184ZM147.771 418.44C149.411 416.659 149.411 413.84 147.771 412.059C146.132 410.278 143.535 410.278 141.896 412.059C140.256 413.84 140.256 416.659 141.896 418.44C143.535 420.221 146.132 420.221 147.771 418.44ZM141.486 381.341C139.71 383.419 139.71 386.535 141.486 388.613C143.399 390.69 146.268 390.69 148.181 388.613C149.957 386.683 149.957 383.419 148.181 381.341C146.405 379.264 143.399 379.264 141.486 381.341ZM147.908 357.895C149.684 355.965 149.684 352.997 147.908 351.068C146.132 349.139 143.399 349.139 141.623 351.068C139.846 352.997 139.846 355.965 141.623 357.895C143.399 359.824 146.268 359.824 147.908 357.895ZM141.349 320.35C139.436 322.428 139.436 325.841 141.349 327.918C143.262 329.996 146.405 329.996 148.318 327.918C150.231 325.841 150.231 322.428 148.318 320.35C146.405 318.273 143.262 318.273 141.349 320.35ZM127.822 427.344C126.183 429.125 126.183 431.944 127.822 433.725C129.462 435.506 132.058 435.506 133.698 433.725C135.337 431.944 135.337 429.125 133.698 427.344C132.195 425.563 129.462 425.563 127.822 427.344ZM127.412 396.478C125.5 398.555 125.5 401.82 127.412 403.749C129.325 405.827 132.331 405.827 134.108 403.749C136.021 401.671 136.021 398.407 134.108 396.478C132.331 394.4 129.325 394.4 127.412 396.478ZM113.886 412.208C112.246 413.988 112.246 416.808 113.886 418.589C115.525 420.369 118.121 420.369 119.761 418.589C121.401 416.808 121.401 413.988 119.761 412.208C118.121 410.427 115.525 410.427 113.886 412.208ZM113.886 381.638C112.246 383.419 112.246 386.387 113.886 388.167C115.525 389.948 118.258 389.948 119.898 388.167C121.537 386.387 121.537 383.419 119.898 381.638C118.258 379.857 115.525 379.857 113.886 381.638ZM113.339 350.772C111.426 352.849 111.426 356.262 113.339 358.191C115.252 360.12 118.395 360.269 120.171 358.191C122.084 356.114 122.084 352.701 120.171 350.772C118.395 348.694 115.252 348.694 113.339 350.772ZM99.6755 396.626C97.8993 398.555 97.8993 401.671 99.6755 403.601C101.452 405.53 104.321 405.53 106.097 403.601C107.874 401.671 107.874 398.555 106.097 396.626C104.321 394.697 101.452 394.697 99.6755 396.626ZM99.4022 366.056C97.4893 368.134 97.4893 371.399 99.4022 373.476C101.315 375.554 104.321 375.554 106.234 373.476C108.147 371.399 108.147 368.134 106.234 366.056C104.321 363.979 101.315 363.979 99.4022 366.056ZM105.961 244.817C104.321 243.036 101.588 243.036 99.8121 244.817C98.1725 246.597 98.1725 249.565 99.8121 251.494C101.452 253.275 104.185 253.275 105.961 251.494C107.6 249.565 107.6 246.597 105.961 244.817ZM105.824 220.925C107.464 219.144 107.464 216.325 105.824 214.544C104.185 212.763 101.588 212.763 99.9488 214.544C98.3092 216.325 98.3092 219.144 99.9488 220.925C101.588 222.557 104.185 222.557 105.824 220.925ZM105.824 305.807C104.185 304.027 101.588 304.027 99.9488 305.807C98.3092 307.588 98.3092 310.408 99.9488 312.189C101.588 313.969 104.185 313.969 105.824 312.189C107.327 310.259 107.327 307.44 105.824 305.807ZM105.688 281.619C107.327 279.838 107.327 277.167 105.688 275.386C104.048 273.605 101.588 273.605 99.9488 275.386C98.3092 277.167 98.3092 279.838 99.9488 281.619C101.588 283.251 104.185 283.251 105.688 281.619ZM105.824 336.08C104.185 334.3 101.588 334.3 99.9488 336.08C98.3092 337.861 98.3092 340.681 99.9488 342.461C101.588 344.242 104.185 344.242 105.824 342.461C107.464 340.829 107.464 337.861 105.824 336.08ZM99.4022 183.529C97.4893 185.607 97.4893 189.02 99.4022 191.097C101.315 193.175 104.458 193.175 106.371 191.097C108.284 189.02 108.284 185.607 106.371 183.529C104.458 181.451 101.315 181.451 99.4022 183.529ZM85.8754 381.638C84.2358 383.419 84.2358 386.238 85.8754 388.019C87.515 389.8 90.1111 389.8 91.7507 388.019C93.3903 386.238 93.3903 383.419 91.7507 381.638C90.2477 380.006 87.515 380.006 85.8754 381.638ZM85.8754 351.217C84.2358 352.997 84.2358 355.965 85.8754 357.746C87.515 359.527 90.2477 359.527 91.8873 357.746C93.5269 355.965 93.5269 352.997 91.8873 351.217C90.2477 349.436 87.515 349.436 85.8754 351.217ZM85.4654 320.35C83.5525 322.428 83.5525 325.841 85.4654 327.918C87.3783 329.996 90.5209 329.996 92.2972 327.918C94.2101 325.841 94.2101 322.428 92.2972 320.35C90.3843 318.273 87.3783 318.273 85.4654 320.35ZM71.5287 366.205C69.7524 368.134 69.7524 371.399 71.5287 373.328C73.3049 375.257 76.3109 375.257 78.0872 373.328C79.8634 371.399 79.8634 368.134 78.0872 366.205C76.3109 364.127 73.4416 364.127 71.5287 366.205ZM71.5287 335.635C69.7524 337.564 69.7524 340.829 71.5287 342.907C73.3049 344.836 76.3109 344.836 78.2238 342.907C80 340.977 80 337.713 78.2238 335.635C76.3109 333.706 73.3049 333.706 71.5287 335.635ZM77.6772 312.04C79.1802 310.408 79.1802 307.588 77.6772 305.956C76.1743 304.324 73.5781 304.324 72.0752 305.956C70.5722 307.588 70.5722 310.408 72.0752 312.04C73.5781 313.672 76.1743 313.672 77.6772 312.04ZM71.392 274.793C69.4791 276.87 69.4791 280.135 71.392 282.212C73.3049 284.29 76.3109 284.29 78.2238 282.212C80.1367 280.135 80.1367 276.87 78.2238 274.793C76.4475 272.715 73.3049 272.715 71.392 274.793ZM77.6772 251.198C79.1802 249.565 79.1802 246.746 77.6772 245.113C76.1743 243.481 73.5781 243.481 72.0752 245.113C70.5722 246.746 70.5722 249.565 72.0752 251.198C73.5781 252.83 76.1743 252.83 77.6772 251.198ZM71.392 213.95C69.4791 216.028 69.4791 219.441 71.392 221.518C73.3049 223.596 76.4476 223.596 78.3604 221.518C80.2733 219.441 80.2733 216.028 78.3604 213.95C76.4476 211.873 73.3049 211.873 71.392 213.95ZM58.0018 351.365C56.3621 353.146 56.3621 355.965 58.0018 357.746C59.6414 359.527 62.2374 359.527 63.8771 357.746C65.5167 355.965 65.5167 353.146 63.8771 351.365C62.2374 349.584 59.5048 349.584 58.0018 351.365ZM57.5919 320.499C55.8156 322.428 55.8156 325.693 57.5919 327.622C59.3681 329.551 62.3741 329.551 64.1503 327.622C65.9266 325.693 65.9266 322.428 64.1503 320.499C62.3741 318.57 59.3681 318.57 57.5919 320.499ZM43.7916 335.932C42.0154 337.861 42.0154 340.829 43.7916 342.758C45.5679 344.687 48.3007 344.687 50.0769 342.758C51.8531 340.829 51.8531 337.861 50.0769 335.932C48.3007 334.003 45.4313 334.003 43.7916 335.932ZM43.3817 305.214C41.4689 307.291 41.4689 310.705 43.3817 312.782C45.2946 314.86 48.4373 314.86 50.3502 312.782C52.2631 310.705 52.2631 307.291 50.3502 305.214C48.4373 303.136 45.2946 303.136 43.3817 305.214ZM29.7182 320.795C28.0786 322.576 28.0786 325.693 29.7182 327.473C31.3578 329.254 34.2272 329.254 35.8668 327.473C37.5064 325.693 37.5064 322.576 35.8668 320.795C34.2272 318.866 31.4944 318.866 29.7182 320.795ZM29.4449 290.077C27.532 292.155 27.532 295.42 29.4449 297.497C31.3578 299.575 34.3638 299.575 36.2767 297.497C38.1896 295.42 38.1896 292.155 36.2767 290.077C34.3638 288 31.3578 288 29.4449 290.077ZM15.3715 305.214C13.4586 307.291 13.4586 310.705 15.3715 312.782C17.2844 314.86 20.4271 314.86 22.34 312.782C24.2529 310.705 24.2529 307.291 22.34 305.214C20.4271 303.136 17.2844 303.136 15.3715 305.214ZM1.43469 297.349C3.3476 299.426 6.35352 299.426 8.26642 297.349C10.1793 295.271 10.1793 292.007 8.26642 289.929C6.35352 287.852 3.3476 287.852 1.43469 289.929C-0.47821 292.007 -0.47821 295.42 1.43469 297.349Z" fill="#C4C4C4"/>
</g>
</svg>
