<svg width="800" height="588" viewBox="0 0 800 588" fill="none" xmlns="http://www.w3.org/2000/svg">
<path d="M777.797 305.77C776.02 307.7 776.02 310.964 777.797 312.893C779.573 314.823 782.579 314.823 784.355 312.893C786.131 310.964 786.131 307.7 784.355 305.77C782.579 303.841 779.71 303.841 777.797 305.77ZM764.27 321.5C762.767 323.133 762.767 325.952 764.27 327.585C765.773 329.217 768.369 329.217 769.872 327.585C771.375 325.952 771.375 323.133 769.872 321.5C768.369 319.72 765.909 319.72 764.27 321.5ZM750.06 336.488C748.42 338.269 748.42 341.237 750.06 343.018C751.699 344.799 754.432 344.799 756.072 343.018C757.711 341.237 757.711 338.269 756.072 336.488C754.432 334.708 751.836 334.708 750.06 336.488ZM750.06 305.919C748.284 307.848 748.284 310.816 750.06 312.745C751.836 314.674 754.569 314.674 756.345 312.745C758.121 310.816 758.121 307.848 756.345 305.919C754.569 303.99 751.699 303.99 750.06 305.919ZM736.26 351.773C734.62 353.554 734.62 356.374 736.26 358.154C737.899 359.935 740.495 359.935 742.135 358.154C743.774 356.374 743.774 353.554 742.135 351.773C740.495 349.992 737.763 349.992 736.26 351.773ZM736.26 297.163C737.899 298.944 740.359 298.944 741.998 297.163C743.638 295.383 743.638 292.712 741.998 290.931C740.359 289.15 737.899 289.15 736.26 290.931C734.757 292.712 734.757 295.531 736.26 297.163ZM736.396 321.5C734.893 323.133 734.893 325.952 736.396 327.585C737.899 329.217 740.495 329.217 741.998 327.585C743.501 325.952 743.501 323.133 741.998 321.5C740.359 319.868 737.899 319.868 736.396 321.5ZM708.113 382.046C706.473 383.827 706.473 386.795 708.113 388.724C709.752 390.505 712.485 390.505 714.261 388.724C715.901 386.943 715.901 383.975 714.261 382.046C712.485 380.117 709.752 380.117 708.113 382.046ZM707.839 351.476C706.063 353.406 706.063 356.522 707.839 358.599C709.616 360.529 712.485 360.529 714.261 358.599C716.038 356.67 716.038 353.554 714.261 351.476C712.622 349.399 709.752 349.399 707.839 351.476ZM714.261 321.204C712.622 319.423 709.889 319.423 708.113 321.204C706.473 322.984 706.473 325.952 708.113 327.881C709.752 329.662 712.485 329.662 714.261 327.881C715.901 325.952 715.901 322.984 714.261 321.204ZM713.988 297.163C715.628 295.531 715.628 292.712 713.988 290.931C712.348 289.15 709.889 289.15 708.249 290.931C706.746 292.563 706.746 295.383 708.249 297.163C709.889 298.944 712.348 298.944 713.988 297.163ZM680.102 412.467C678.463 414.248 678.463 417.216 680.102 418.997C681.742 420.777 684.475 420.777 686.114 418.997C687.754 417.216 687.754 414.248 686.114 412.467C684.475 410.686 681.879 410.686 680.102 412.467ZM679.966 381.898C678.19 383.827 678.19 386.943 679.966 388.872C681.742 390.801 684.611 390.801 686.388 388.872C688.164 386.943 688.164 383.827 686.388 381.898C684.611 379.968 681.742 379.968 679.966 381.898ZM680.102 267.039C681.742 268.82 684.475 268.82 686.114 267.039C687.754 265.258 687.754 262.29 686.114 260.51C684.475 258.729 681.742 258.729 680.102 260.51C678.463 262.29 678.463 265.11 680.102 267.039ZM680.239 291.079C678.599 292.86 678.599 295.531 680.239 297.312C681.879 299.093 684.338 299.093 685.978 297.312C687.617 295.531 687.617 292.86 685.978 291.079C684.475 289.298 681.879 289.298 680.239 291.079ZM686.251 321.055C684.475 319.126 681.605 319.126 679.966 321.055C678.19 322.984 678.19 326.101 679.966 327.881C681.742 329.811 684.611 329.811 686.251 327.881C688.027 326.101 688.027 322.984 686.251 321.055ZM680.102 351.625C678.463 353.406 678.463 356.374 680.102 358.303C681.742 360.083 684.475 360.083 686.251 358.303C687.891 356.522 687.891 353.554 686.251 351.625C684.475 349.844 681.742 349.844 680.102 351.625ZM666.302 427.752C664.663 429.533 664.663 432.352 666.302 434.133C667.942 435.914 670.538 435.914 672.178 434.133C673.817 432.352 673.817 429.533 672.178 427.752C670.401 425.971 667.805 425.971 666.302 427.752ZM672.041 403.712C673.681 401.931 673.681 399.112 672.041 397.479C670.401 395.698 667.805 395.698 666.302 397.479C664.663 399.26 664.663 402.08 666.302 403.712C667.805 405.493 670.401 405.493 672.041 403.712ZM665.892 366.464C664.116 368.394 664.116 371.658 665.892 373.736C667.669 375.813 670.675 375.665 672.588 373.736C674.5 371.807 674.364 368.542 672.588 366.464C670.811 364.387 667.669 364.535 665.892 366.464ZM666.029 251.903C667.805 253.832 670.675 253.832 672.314 251.903C674.091 249.973 674.091 247.006 672.314 245.076C670.538 243.147 667.805 243.147 666.029 245.076C664.253 247.006 664.253 250.122 666.029 251.903ZM666.302 275.943C664.799 277.575 664.799 280.395 666.302 282.027C667.805 283.659 670.401 283.659 671.904 282.027C673.407 280.395 673.407 277.575 671.904 275.943C670.401 274.162 667.942 274.162 666.302 275.943ZM665.892 221.63C667.669 223.559 670.538 223.559 672.314 221.63C674.091 219.701 674.091 216.584 672.314 214.655C670.538 212.726 667.669 212.726 665.892 214.655C664.116 216.584 664.116 219.701 665.892 221.63ZM672.451 305.77C670.675 303.841 667.669 303.841 665.892 305.77C664.116 307.7 664.116 310.964 665.892 312.893C667.669 314.823 670.675 314.823 672.451 312.893C674.227 310.964 674.227 307.7 672.451 305.77ZM666.029 336.34C664.253 338.269 664.253 341.237 666.029 343.166C667.805 345.095 670.538 345.095 672.314 343.166C674.091 341.237 674.091 338.269 672.314 336.34C670.538 334.411 667.805 334.411 666.029 336.34ZM652.229 443.037C650.589 444.818 650.589 447.637 652.229 449.27C653.868 451.05 656.465 451.05 657.968 449.27C659.607 447.489 659.607 444.669 657.968 443.037C656.465 441.256 653.868 441.256 652.229 443.037ZM651.682 412.022C649.769 414.1 649.769 417.513 651.682 419.59C653.595 421.668 656.738 421.668 658.651 419.59C660.564 417.513 660.564 414.1 658.651 412.022C656.738 409.945 653.595 409.945 651.682 412.022ZM652.229 297.312C653.868 299.093 656.465 299.093 658.104 297.312C659.744 295.531 659.744 292.712 658.104 290.931C656.465 289.15 653.868 289.15 652.229 290.931C650.589 292.712 650.589 295.531 652.229 297.312ZM652.229 321.352C650.589 323.133 650.589 325.952 652.229 327.585C653.868 329.365 656.465 329.365 657.968 327.585C659.607 325.804 659.607 322.984 657.968 321.352C656.465 319.72 653.868 319.72 652.229 321.352ZM658.241 351.476C656.465 349.547 653.732 349.547 651.956 351.476C650.179 353.406 650.179 356.374 651.956 358.303C653.732 360.232 656.465 360.232 658.241 358.303C660.017 356.374 660.017 353.406 658.241 351.476ZM652.092 382.046C650.453 383.827 650.453 386.795 652.092 388.724C653.732 390.505 656.465 390.505 658.241 388.724C659.88 386.943 659.88 383.975 658.241 382.046C656.465 380.117 653.732 380.117 652.092 382.046ZM637.745 457.58C635.833 459.657 635.833 462.922 637.745 465C639.658 467.077 642.664 467.077 644.577 465C646.49 462.922 646.49 459.657 644.577 457.58C642.664 455.502 639.658 455.502 637.745 457.58ZM624.082 473.161C622.442 474.942 622.442 478.058 624.082 479.839C625.722 481.62 628.591 481.62 630.231 479.839C631.87 478.058 631.87 474.942 630.231 473.161C628.591 471.381 625.722 471.381 624.082 473.161ZM623.945 442.592C622.169 444.521 622.169 447.637 623.945 449.566C625.722 451.495 628.591 451.495 630.367 449.566C632.143 447.637 632.143 444.521 630.367 442.592C628.591 440.663 625.722 440.663 623.945 442.592ZM623.809 412.022C621.896 414.1 621.896 417.364 623.809 419.293C625.722 421.371 628.728 421.371 630.504 419.293C632.417 417.216 632.417 413.951 630.504 412.022C628.728 410.093 625.585 410.093 623.809 412.022ZM630.231 388.724C631.87 386.943 631.87 383.827 630.231 382.046C628.591 380.265 625.722 380.265 624.082 382.046C622.442 383.827 622.442 386.943 624.082 388.724C625.722 390.505 628.591 390.505 630.231 388.724ZM623.672 351.18C621.759 353.257 621.759 356.67 623.672 358.748C625.585 360.825 628.728 360.825 630.64 358.748C632.553 356.67 632.553 353.257 630.64 351.18C628.728 349.102 625.585 349.102 623.672 351.18ZM623.672 297.905C625.585 299.983 628.591 299.983 630.504 297.905C632.417 295.828 632.417 292.563 630.504 290.486C628.591 288.408 625.585 288.408 623.672 290.486C621.896 292.415 621.896 295.828 623.672 297.905ZM623.945 321.055C622.169 322.984 622.169 326.101 623.945 328.178C625.722 330.107 628.591 330.107 630.504 328.178C632.28 326.249 632.28 323.133 630.504 321.055C628.591 318.978 625.722 318.978 623.945 321.055ZM609.872 488.149C608.096 490.078 608.096 493.343 609.872 495.421C611.648 497.35 614.654 497.35 616.567 495.421C618.343 493.492 618.343 490.227 616.567 488.149C614.654 486.072 611.648 486.072 609.872 488.149ZM616.02 464.406C617.523 462.774 617.523 459.954 616.02 458.322C614.517 456.689 611.921 456.689 610.418 458.322C608.915 459.954 608.915 462.774 610.418 464.406C611.921 466.038 614.381 466.038 616.02 464.406ZM609.735 427.158C607.822 429.236 607.822 432.649 609.735 434.727C611.648 436.804 614.791 436.804 616.704 434.727C618.617 432.649 618.617 429.236 616.704 427.158C614.654 425.081 611.648 425.081 609.735 427.158ZM609.735 373.736C611.648 375.813 614.654 375.813 616.43 373.736C618.343 371.658 618.343 368.394 616.43 366.464C614.517 364.387 611.512 364.387 609.735 366.464C607.959 368.542 607.959 371.807 609.735 373.736ZM610.145 397.331C608.505 399.112 608.505 402.08 610.145 403.86C611.785 405.641 614.517 405.641 616.157 403.86C617.797 402.08 617.797 399.112 616.157 397.331C614.517 395.55 611.785 395.55 610.145 397.331ZM596.345 503.879C594.842 505.512 594.842 508.331 596.345 510.112C597.848 511.744 600.444 511.744 602.084 510.112C603.587 508.48 603.587 505.66 602.084 503.879C600.444 502.099 597.848 502.099 596.345 503.879ZM596.208 473.458C594.569 475.239 594.569 478.058 596.208 479.691C597.848 481.472 600.444 481.472 601.947 479.691C603.587 477.91 603.587 475.09 601.947 473.458C600.444 471.677 597.848 471.677 596.208 473.458ZM567.925 533.855C566.149 535.785 566.149 538.901 567.925 540.83C569.701 542.759 572.57 542.759 574.347 540.83C576.123 538.901 576.123 535.785 574.347 533.855C572.57 531.926 569.701 531.926 567.925 533.855ZM553.988 549.14C552.212 551.069 552.212 554.037 553.988 555.966C555.764 557.896 558.634 557.896 560.273 555.966C562.049 554.037 562.049 551.069 560.273 549.14C558.634 547.211 555.764 547.211 553.988 549.14ZM554.125 494.976C555.764 496.756 558.497 496.756 560.137 494.976C561.776 493.195 561.776 490.227 560.137 488.446C558.497 486.665 555.764 486.665 554.125 488.446C552.485 490.227 552.485 493.195 554.125 494.976ZM554.261 519.016C552.622 520.797 552.622 523.616 554.261 525.397C555.901 527.178 558.497 527.178 560.137 525.397C561.776 523.616 561.776 520.797 560.137 519.016C558.497 517.235 555.901 517.235 554.261 519.016ZM554.261 434.133C555.901 435.914 558.497 435.914 560 434.133C561.64 432.352 561.64 429.533 560 427.9C558.36 426.12 555.764 426.12 554.261 427.9C552.622 429.533 552.622 432.352 554.261 434.133ZM554.261 458.173C552.622 459.954 552.622 462.625 554.261 464.406C555.901 466.187 558.36 466.187 560 464.406C561.64 462.625 561.64 459.954 560 458.173C558.497 456.541 555.901 456.541 554.261 458.173ZM554.261 403.712C555.901 405.493 558.497 405.493 560.137 403.712C561.776 401.931 561.776 399.112 560.137 397.331C558.497 395.55 555.901 395.55 554.261 397.331C552.622 399.112 552.622 401.931 554.261 403.712ZM560 367.058C558.36 365.277 555.901 365.277 554.261 367.058C552.622 368.839 552.622 371.51 554.261 373.291C555.901 375.071 558.36 375.071 560 373.291C561.64 371.51 561.64 368.69 560 367.058ZM560 342.869C561.503 341.237 561.503 338.418 560 336.637C558.497 335.004 555.901 335.004 554.261 336.637C552.758 338.269 552.758 341.089 554.261 342.869C555.901 344.502 558.497 344.502 560 342.869ZM554.261 312.597C555.901 314.377 558.497 314.377 560.137 312.597C561.776 310.816 561.776 307.996 560.137 306.216C558.497 304.435 555.901 304.435 554.261 306.216C552.622 307.848 552.622 310.816 554.261 312.597ZM554.125 282.175C555.764 283.956 558.497 283.956 560.137 282.175C561.776 280.395 561.776 277.427 560.137 275.646C558.497 273.865 555.764 273.865 554.125 275.646C552.485 277.427 552.485 280.395 554.125 282.175ZM554.261 221.333C555.901 223.114 558.497 223.114 560.137 221.333C561.776 219.552 561.776 216.733 560.137 214.952C558.497 213.171 555.901 213.171 554.261 214.952C552.622 216.733 552.622 219.552 554.261 221.333ZM554.261 245.373C552.622 247.154 552.622 249.973 554.261 251.754C555.901 253.535 558.497 253.535 560.137 251.754C561.776 249.973 561.776 247.154 560.137 245.373C558.497 243.592 555.901 243.592 554.261 245.373ZM554.125 191.06C555.764 192.841 558.497 192.841 560.137 191.06C561.776 189.279 561.776 186.311 560.137 184.531C558.497 182.75 555.764 182.75 554.125 184.531C552.485 186.311 552.485 189.131 554.125 191.06ZM553.988 160.639C555.764 162.568 558.497 162.568 560.273 160.639C562.049 158.71 562.049 155.742 560.273 153.813C558.497 151.884 555.764 151.884 553.988 153.813C552.348 155.742 552.348 158.858 553.988 160.639ZM540.188 564.573C538.548 566.354 538.548 569.174 540.188 570.954C541.827 572.735 544.424 572.735 546.063 570.954C547.703 569.174 547.703 566.354 546.063 564.573C544.56 562.793 541.827 562.793 540.188 564.573ZM539.641 533.559C537.728 535.636 537.728 539.049 539.641 541.127C541.554 543.204 544.697 543.204 546.61 541.127C548.523 539.049 548.523 535.636 546.61 533.559C544.697 531.481 541.691 531.481 539.641 533.559ZM525.978 579.413C524.201 581.342 524.201 584.458 525.978 586.388C527.754 588.317 530.623 588.317 532.4 586.388C534.176 584.458 534.176 581.342 532.4 579.413C530.623 577.484 527.754 577.484 525.978 579.413ZM532.263 549.289C530.623 547.508 527.891 547.508 526.114 549.289C524.475 551.069 524.475 554.037 526.114 555.966C527.754 557.747 530.487 557.747 532.263 555.966C533.903 554.037 533.903 551.069 532.263 549.289ZM531.99 525.248C533.629 523.468 533.629 520.797 531.99 519.016C530.35 517.383 527.891 517.383 526.251 519.016C524.748 520.797 524.748 523.468 526.251 525.248C527.891 526.881 530.487 526.881 531.99 525.248ZM512.314 564.722C510.811 566.354 510.811 569.174 512.314 570.954C513.954 572.587 516.413 572.587 518.053 570.954C519.556 569.174 519.556 566.503 518.053 564.722C516.413 562.941 513.954 562.941 512.314 564.722ZM511.904 533.707C510.128 535.636 510.128 538.901 511.904 540.83C513.681 542.759 516.687 542.759 518.463 540.83C520.239 538.901 520.239 535.636 518.463 533.707C516.687 531.778 513.681 531.778 511.904 533.707ZM518.19 473.31C516.55 471.529 513.954 471.529 512.314 473.31C510.675 475.09 510.675 477.91 512.314 479.691C513.954 481.472 516.55 481.472 518.19 479.691C519.829 477.91 519.829 475.09 518.19 473.31ZM518.053 449.27C519.693 447.489 519.693 444.669 518.053 442.888C516.413 441.108 513.817 441.108 512.178 442.888C510.538 444.669 510.538 447.489 512.178 449.27C513.817 451.05 516.55 451.05 518.053 449.27ZM518.463 503.434C516.687 501.505 513.817 501.505 512.041 503.434C510.265 505.363 510.265 508.48 512.041 510.409C513.817 512.338 516.687 512.338 518.463 510.409C520.239 508.48 520.239 505.363 518.463 503.434ZM511.904 419.293C513.681 421.223 516.55 421.223 518.326 419.293C520.102 417.364 520.102 414.248 518.326 412.319C516.55 410.39 513.681 410.39 511.904 412.319C510.128 414.1 510.128 417.364 511.904 419.293ZM497.831 548.843C495.918 550.921 495.918 554.186 497.831 556.263C499.744 558.341 502.75 558.341 504.663 556.263C506.576 554.186 506.576 550.921 504.663 548.843C502.75 546.766 499.607 546.766 497.831 548.843ZM504.526 427.307C502.75 425.378 499.744 425.378 497.831 427.307C496.055 429.236 496.055 432.501 497.831 434.578C499.607 436.507 502.613 436.507 504.526 434.578C506.439 432.649 506.302 429.384 504.526 427.307ZM504.116 403.712C505.756 401.931 505.756 399.112 504.116 397.331C502.476 395.55 499.88 395.55 498.241 397.331C496.601 399.112 496.601 401.931 498.241 403.712C499.88 405.493 502.476 405.493 504.116 403.712ZM504.526 457.728C502.75 455.799 499.744 455.799 497.831 457.728C496.055 459.657 496.055 462.922 497.831 465C499.607 466.929 502.613 466.929 504.526 465C506.302 462.922 506.302 459.657 504.526 457.728ZM504.389 518.571C502.613 516.641 499.607 516.641 497.831 518.571C496.055 520.5 496.055 523.764 497.831 525.694C499.607 527.623 502.613 527.623 504.389 525.694C506.302 523.764 506.302 520.5 504.389 518.571ZM504.116 494.976C505.756 493.195 505.756 490.375 504.116 488.595C502.476 486.814 499.88 486.814 498.241 488.595C496.601 490.375 496.601 493.195 498.241 494.976C499.88 496.756 502.476 496.756 504.116 494.976ZM497.694 366.464C495.781 368.542 495.781 371.807 497.694 373.884C499.607 375.962 502.613 375.962 504.526 373.884C506.439 371.807 506.439 368.542 504.526 366.464C502.75 364.387 499.607 364.387 497.694 366.464ZM504.526 343.315C506.302 341.385 506.302 338.121 504.526 336.043C502.75 334.114 499.744 334.114 497.831 336.043C496.055 337.972 496.055 341.237 497.831 343.315C499.744 345.392 502.613 345.392 504.526 343.315ZM484.714 534.597C483.348 536.081 483.348 538.604 484.714 540.088C486.08 541.572 488.403 541.572 489.769 540.088C491.136 538.604 491.136 536.081 489.769 534.597C488.266 533.113 486.08 533.113 484.714 534.597ZM483.894 503.434C482.118 505.363 482.118 508.628 483.894 510.557C485.67 512.486 488.676 512.486 490.453 510.557C492.229 508.628 492.229 505.363 490.453 503.434C488.676 501.357 485.67 501.357 483.894 503.434ZM490.043 479.691C491.682 477.91 491.682 475.09 490.043 473.458C488.403 471.677 485.807 471.677 484.304 473.458C482.664 475.239 482.664 478.058 484.304 479.691C485.944 481.472 488.54 481.472 490.043 479.691ZM473.646 494.976C475.286 496.756 478.019 496.756 479.658 494.976C481.298 493.195 481.298 490.227 479.658 488.446C478.019 486.665 475.286 486.665 473.646 488.446C472.007 490.227 472.007 493.195 473.646 494.976ZM411.204 428.494C416.533 436.211 421.862 443.779 427.19 451.495C420.769 452.979 412.98 454.76 403.962 456.986C404.646 454.167 405.329 451.495 406.012 448.676C406.285 449.121 406.422 449.418 406.695 449.715C408.471 451.644 411.477 451.644 413.254 449.715C415.03 447.786 415.03 444.521 413.254 442.592C411.751 440.959 409.428 440.663 407.652 441.85C408.881 437.101 410.111 432.649 411.204 428.494ZM427.874 451.792C430.47 451.199 432.792 450.605 434.979 450.16C436.072 453.128 437.028 455.799 437.985 458.47C437.848 458.173 437.711 458.025 437.438 457.877C435.798 456.096 433.476 455.947 431.563 457.283C430.47 455.354 429.24 453.573 427.874 451.792ZM363.518 387.537C361.879 389.317 361.879 392.137 363.518 393.918C365.158 395.698 367.754 395.698 369.394 393.918C369.667 393.621 369.804 393.324 370.077 393.027C373.629 394.957 377.182 396.886 380.734 398.815C380.051 400.447 380.324 402.228 381.554 403.563C383.057 405.196 385.653 405.196 387.156 403.563C388.523 402.08 388.659 400.002 387.703 398.37C399.18 389.911 410.794 381.452 422.272 372.994C422.408 373.142 422.545 373.291 422.681 373.439C423.228 374.033 423.775 374.329 424.321 374.626C422.408 381.898 417.899 399.408 410.794 427.307C408.881 424.487 406.832 421.668 404.919 418.848C405.055 418.848 405.055 418.7 405.192 418.7C406.695 417.068 406.695 414.396 405.192 412.912C403.689 411.28 401.23 411.28 399.863 412.912C398.497 414.396 398.36 416.622 399.453 418.255C396.994 420.332 393.168 423.597 387.976 428.049L387.839 427.9C386.2 426.12 383.604 426.12 381.964 427.9C380.324 429.681 380.324 432.501 381.964 434.282C383.604 436.062 386.2 436.062 387.839 434.282C389.342 432.649 389.479 430.275 388.249 428.494C393.578 423.894 397.404 420.629 399.727 418.7L399.863 418.848C401.23 420.332 403.143 420.481 404.646 419.442C406.695 422.41 408.745 425.229 410.794 428.197C409.701 432.649 408.471 437.398 407.105 442.443C406.968 442.592 406.832 442.592 406.695 442.74C405.329 444.224 405.055 446.302 405.602 448.082C404.782 451.05 404.099 454.018 403.279 457.135C399.044 458.173 394.535 459.212 389.752 460.251C389.616 459.509 389.206 458.915 388.796 458.322C387.156 456.541 384.697 456.541 383.057 458.322C381.418 460.102 381.418 462.774 383.057 464.554C384.697 466.335 387.156 466.335 388.796 464.554C389.752 463.516 390.162 462.18 389.889 460.844C394.535 459.806 399.044 458.767 403.143 457.728C401.913 462.328 400.683 467.077 399.453 471.974C398.087 471.677 396.447 472.123 395.354 473.31C393.578 475.239 393.578 478.207 395.354 480.136C397.131 482.065 399.863 482.065 401.64 480.136C403.416 478.207 403.416 475.239 401.64 473.31C401.093 472.716 400.547 472.419 399.863 472.123C401.093 467.077 402.459 462.18 403.552 457.58C412.844 455.354 420.632 453.573 427.19 452.089C428.557 454.018 429.786 455.799 431.153 457.728C431.016 457.876 430.88 457.877 430.88 458.025C429.103 459.954 429.103 463.07 430.88 465.148C431.289 465.593 431.836 465.89 432.383 466.187C431.016 470.342 428.557 477.465 425.278 487.259C423.775 486.814 421.998 487.111 420.769 488.446C418.992 490.375 418.992 493.492 420.769 495.421C422.545 497.35 425.414 497.35 427.19 495.421C428.967 493.492 428.967 490.375 427.19 488.446C426.781 488.001 426.234 487.704 425.824 487.407C429.103 477.465 431.563 470.49 432.929 466.335C434.432 466.78 436.208 466.483 437.575 465.148C438.668 463.961 439.078 462.477 438.804 460.993C446.319 482.065 451.238 496.163 453.698 503.137C453.288 503.286 452.878 503.583 452.468 504.028C450.828 505.809 450.828 508.628 452.468 510.26C454.108 512.041 456.704 512.041 458.207 510.26C459.846 508.48 459.846 505.66 458.207 504.028C457.523 503.286 456.567 502.841 455.747 502.841C456.02 495.718 456.294 488.743 456.567 481.62C457.66 481.62 458.753 481.175 459.573 480.284C461.076 478.652 461.213 476.278 460.12 474.349C462.579 472.419 465.038 470.49 467.498 468.709C468.181 481.768 469.137 498.092 470.231 517.977C469.274 518.125 468.454 518.571 467.634 519.313C465.995 521.093 465.995 524.061 467.634 525.99C469.274 527.771 472.007 527.771 473.783 525.99C475.423 524.21 475.423 521.242 473.783 519.313C472.963 518.422 471.87 517.977 470.64 517.977C469.547 498.092 468.591 481.472 467.908 468.413C469.547 467.077 471.187 465.89 472.827 464.554C472.963 464.703 472.963 464.851 473.1 464.851C474.603 466.484 477.199 466.484 478.702 464.851C480.205 463.219 480.205 460.399 478.702 458.767L478.565 458.618C479.932 456.689 481.845 454.018 484.441 450.605C486.217 451.941 488.54 451.792 490.043 450.012C491.819 448.082 491.819 445.114 490.043 443.334C488.266 441.405 485.534 441.405 483.894 443.334C482.118 445.263 482.118 448.231 483.894 450.012C483.894 450.012 484.031 450.16 484.167 450.16C481.571 453.721 479.658 456.393 478.292 458.173C476.789 456.986 474.603 457.135 473.237 458.618C471.87 460.102 471.734 462.328 472.69 463.961C471.05 465.148 469.547 466.335 467.908 467.671C466.951 451.792 466.405 441.108 466.132 435.617C466.951 435.469 467.908 435.172 468.454 434.43C469.821 432.946 469.957 430.868 469.137 429.088C472.007 427.159 476.652 423.745 483.074 419.145C483.211 419.293 483.348 419.59 483.621 419.739C485.534 421.816 488.676 421.816 490.453 419.739C492.365 417.661 492.365 414.248 490.453 412.319C488.54 410.241 485.397 410.241 483.621 412.319C481.981 414.1 481.845 416.622 482.938 418.7C476.516 423.3 471.87 426.565 469.001 428.642C468.864 428.494 468.728 428.346 468.591 428.197C466.951 426.417 464.492 426.417 462.852 428.197C461.213 429.978 461.213 432.649 462.852 434.43C463.672 435.32 464.628 435.765 465.722 435.765C465.995 441.405 466.678 452.089 467.498 468.116C464.902 470.045 462.442 472.123 459.846 474.052C459.71 473.903 459.71 473.755 459.573 473.607C457.797 471.677 455.064 471.677 453.424 473.607C451.648 475.536 451.648 478.504 453.424 480.284C454.108 481.026 455.064 481.471 456.157 481.62C455.884 488.743 455.611 495.718 455.337 502.841C454.927 502.841 454.517 502.989 454.244 502.989C451.921 496.46 445.773 478.949 435.525 450.308C440.307 449.121 443.997 448.379 446.593 447.786C446.729 448.528 447.139 449.27 447.686 450.012C449.462 451.941 452.331 451.941 454.108 450.012C455.884 448.082 455.884 444.966 454.108 443.037C453.288 442.147 452.195 441.701 451.102 441.553C450.692 424.339 450.282 407.273 450.008 390.059C450.965 389.911 451.921 389.614 452.605 388.724C454.244 386.943 454.244 384.124 452.605 382.343C451.648 381.304 450.555 381.007 449.325 381.007C447.686 368.839 446.046 356.67 444.406 344.502C445.226 344.353 446.046 343.908 446.593 343.166C448.232 341.385 448.232 338.418 446.593 336.488C444.953 334.708 442.22 334.708 440.444 336.488C440.034 336.934 439.898 337.23 439.624 337.676C435.115 335.598 426.917 331.74 414.893 326.249C415.44 324.468 415.166 322.539 413.8 321.055C412.024 319.126 409.155 319.126 407.378 321.055C405.602 322.984 405.602 326.101 407.378 328.03C409.155 329.959 412.024 329.959 413.8 328.03C414.21 327.585 414.483 327.139 414.62 326.694C426.644 332.333 434.979 336.043 439.351 338.121C438.804 339.753 439.078 341.682 440.307 343.018C441.264 344.057 442.494 344.502 443.723 344.353C445.363 356.522 447.003 368.69 448.642 380.859C447.822 381.007 447.139 381.452 446.593 382.046C444.953 383.827 444.953 386.646 446.593 388.427C447.412 389.317 448.369 389.763 449.325 389.763C449.735 406.977 450.145 424.042 450.418 441.256C449.325 441.405 448.369 441.85 447.549 442.592C446.456 443.779 446.046 445.263 446.319 446.747C443.723 447.34 440.034 448.231 435.115 449.418C433.476 444.818 431.699 439.921 429.923 434.578C430.333 434.43 430.743 434.133 431.016 433.688C432.519 432.056 432.519 429.384 431.016 427.752C429.513 426.12 427.054 426.12 425.551 427.752C424.048 429.384 424.048 432.056 425.551 433.688C426.644 434.875 428.147 435.172 429.377 434.727C431.153 439.921 432.929 444.818 434.569 449.418C432.383 449.863 429.923 450.457 427.327 451.05C421.862 443.185 416.396 435.469 411.067 427.604C418.036 400.299 422.545 382.64 424.731 374.478C426.097 374.775 427.737 374.329 428.83 373.142C430.606 371.213 430.606 368.245 428.83 366.316C427.054 364.387 424.321 364.387 422.545 366.316C421.042 367.948 420.905 370.323 421.862 372.104C410.384 380.562 398.77 389.021 387.293 397.479C387.156 397.331 387.156 397.182 387.02 397.034C385.517 395.402 382.921 395.402 381.418 397.034C381.144 397.331 381.008 397.628 380.871 397.924C377.319 395.995 373.766 394.066 370.213 392.137C370.76 390.653 370.623 389.021 369.804 387.685C373.083 384.866 378.958 379.969 387.566 372.697L387.703 372.845C389.342 374.626 391.938 374.626 393.578 372.845C395.218 371.065 395.218 368.245 393.578 366.464C391.938 364.684 389.342 364.684 387.703 366.464C386.2 368.097 386.063 370.471 387.293 372.252C378.958 379.375 372.946 384.42 369.53 387.24C369.53 387.24 369.394 387.092 369.394 386.943C367.891 385.756 365.158 385.756 363.518 387.537ZM411.614 382.343C410.111 383.975 410.111 386.795 411.614 388.427C413.117 390.059 415.713 390.059 417.216 388.427C418.719 386.795 418.719 383.975 417.216 382.343C415.576 380.562 413.117 380.562 411.614 382.343ZM490.589 260.064C488.676 257.987 485.67 257.987 483.894 260.064C481.981 262.142 481.981 265.407 483.894 267.336C485.807 269.413 488.813 269.413 490.589 267.336C492.365 265.407 492.365 262.142 490.589 260.064ZM490.179 236.618C491.819 234.837 491.819 231.869 490.179 230.088C488.54 228.308 485.807 228.308 484.167 230.088C482.528 231.869 482.528 234.837 484.167 236.618C485.807 238.399 488.54 238.399 490.179 236.618ZM467.088 306.364C465.585 307.996 465.585 310.667 467.088 312.3C468.591 313.932 471.05 313.932 472.553 312.3C474.056 310.667 474.056 307.996 472.553 306.364C471.05 304.732 468.591 304.732 467.088 306.364ZM465.585 336.488C463.945 338.269 463.945 341.089 465.585 342.869C467.225 344.65 469.821 344.65 471.46 342.869C473.1 341.089 473.1 338.269 471.46 336.488C469.821 334.708 467.225 334.708 465.585 336.488ZM468.728 184.382C466.951 186.311 466.951 189.279 468.728 191.209C470.504 193.138 473.237 193.138 475.013 191.209C476.789 189.279 476.789 186.311 475.013 184.382C473.237 182.453 470.504 182.453 468.728 184.382ZM467.771 245.522C466.268 247.154 466.268 249.825 467.771 251.309C469.274 252.941 471.734 252.941 473.1 251.309C474.603 249.677 474.603 247.005 473.1 245.522C471.597 244.038 469.274 244.038 467.771 245.522ZM475.559 275.943C474.056 274.31 471.597 274.31 470.094 275.943C468.591 277.575 468.591 280.246 470.094 281.879C471.597 283.511 474.056 283.511 475.559 281.879C477.062 280.246 477.062 277.575 475.559 275.943ZM476.379 367.206C474.876 368.839 474.876 371.362 476.379 372.994C477.609 374.329 479.248 374.478 480.751 373.736C482.118 376.259 483.348 378.633 484.714 381.156C484.441 381.304 484.167 381.601 484.031 381.749C482.391 383.53 482.254 386.201 483.484 388.13C479.795 391.247 476.106 394.363 472.28 397.479C472.28 397.331 472.143 397.331 472.143 397.182C470.504 395.402 467.771 395.402 466.132 397.182C464.492 398.963 464.492 401.783 466.132 403.563C463.809 406.383 461.349 409.203 459.026 412.022C458.343 411.428 457.387 410.983 456.43 410.983C456.157 403.712 455.747 386.498 454.927 359.193C455.884 359.045 456.704 358.748 457.523 357.857C459.163 356.077 459.163 353.257 457.523 351.625C455.884 349.844 453.288 349.844 451.785 351.625C450.145 353.406 450.145 356.225 451.785 357.857C452.605 358.748 453.561 359.193 454.517 359.193C455.337 385.756 455.747 402.97 456.02 410.983C455.064 411.132 454.108 411.428 453.424 412.319C451.785 414.1 451.785 417.068 453.424 418.848C455.064 420.629 457.797 420.629 459.436 418.848C461.076 417.068 461.076 414.248 459.436 412.319C461.759 409.499 464.219 406.68 466.541 403.86C468.181 405.344 470.64 405.196 472.143 403.563C473.646 401.931 473.783 399.557 472.69 397.776C476.379 394.66 480.068 391.543 483.894 388.427C484.031 388.576 484.031 388.575 484.167 388.724C485.944 390.653 488.813 390.653 490.589 388.724C492.365 386.795 492.365 383.678 490.589 381.749C489.086 380.117 487.037 379.969 485.26 380.859C483.894 378.336 482.664 375.962 481.298 373.439C481.435 373.291 481.708 373.142 481.845 372.994C483.348 371.362 483.348 368.839 481.845 367.206C481.708 367.058 481.435 366.91 481.298 366.761C482.254 364.832 483.757 362.309 485.534 358.896C487.037 359.787 488.95 359.49 490.179 358.154C491.819 356.374 491.819 353.702 490.179 351.922C488.54 350.141 486.08 350.141 484.441 351.922C482.801 353.702 482.801 356.374 484.441 358.154C484.577 358.303 484.851 358.599 485.124 358.748C483.348 362.161 481.845 364.684 480.888 366.613C479.248 365.722 477.609 366.019 476.379 367.206ZM457.797 327.585C459.3 325.952 459.3 323.281 457.797 321.649C456.294 320.016 453.834 320.016 452.331 321.649C450.828 323.281 450.828 325.952 452.331 327.585C453.834 329.217 456.294 329.217 457.797 327.585ZM490.179 321.352C488.54 319.571 485.944 319.571 484.304 321.352C482.664 323.133 482.664 325.952 484.304 327.733C485.944 329.514 488.54 329.514 490.179 327.733C491.819 325.952 491.819 323.133 490.179 321.352ZM489.769 297.015C491.272 295.383 491.272 292.86 489.769 291.228C488.266 289.595 485.944 289.595 484.441 291.228C482.938 292.86 482.938 295.383 484.441 297.015C485.944 298.647 488.403 298.647 489.769 297.015ZM440.991 305.028C440.171 294.641 439.624 287.369 439.351 283.214C440.171 283.066 440.991 282.769 441.537 282.027C443.04 280.395 443.04 277.575 441.537 275.943C440.034 274.31 437.438 274.31 435.935 275.943C435.525 276.388 435.252 276.833 435.115 277.278C424.594 273.123 414.073 269.117 403.416 264.961C403.826 263.477 403.552 261.697 402.323 260.51C400.683 258.729 397.95 258.729 396.311 260.51C394.671 262.29 394.671 265.258 396.311 267.039C397.677 268.523 399.727 268.82 401.366 267.781C403.962 272.233 408.608 279.801 415.303 290.782C415.167 290.931 415.03 291.079 414.893 291.228C413.39 292.86 413.39 295.679 414.893 297.312C416.396 298.944 418.992 298.944 420.495 297.312C421.998 295.679 421.998 292.86 420.495 291.228C419.129 289.744 417.216 289.595 415.713 290.486C408.745 279.059 404.236 271.342 401.776 267.484C401.913 267.336 402.049 267.187 402.186 267.039C402.596 266.594 402.869 266.149 403.143 265.555C413.664 269.71 424.184 273.717 434.842 277.724C434.432 279.207 434.842 280.84 435.798 281.879C436.618 282.769 437.575 283.214 438.668 283.066C438.941 287.221 439.488 294.492 440.307 304.88C439.488 305.028 438.668 305.325 438.121 306.067C436.618 307.7 436.618 310.519 438.121 312.151C439.624 313.784 442.22 313.784 443.723 312.151C445.226 310.519 445.226 307.7 443.723 306.067C443.04 305.474 441.947 305.028 440.991 305.028ZM436.345 397.034C434.569 395.105 431.699 395.105 429.923 397.034C428.147 398.963 428.147 402.08 429.923 404.009C431.699 405.938 434.569 405.938 436.345 404.009C438.121 402.08 438.121 398.963 436.345 397.034ZM300.12 404.899C299.983 405.047 299.983 405.344 300.12 405.493C300.256 405.641 300.529 405.641 300.666 405.493C300.803 405.344 300.803 405.047 300.666 404.899C300.529 404.751 300.256 404.751 300.12 404.899ZM284.406 379.375C283.587 380.265 283.587 381.452 284.406 382.343C285.226 383.233 286.319 383.233 287.139 382.343C287.959 381.452 287.959 380.265 287.139 379.375C286.319 378.633 285.09 378.633 284.406 379.375ZM227.976 393.918C227.703 394.215 227.703 394.66 227.976 394.808C228.249 395.105 228.659 395.105 228.796 394.808C229.069 394.511 229.069 394.066 228.796 393.918C228.659 393.621 228.249 393.621 227.976 393.918ZM196.413 415.435C196.277 415.584 196.277 415.88 196.413 416.029C196.55 416.177 196.823 416.177 196.96 416.029C197.097 415.88 197.097 415.584 196.96 415.435C196.823 415.287 196.55 415.287 196.413 415.435ZM196.823 351.773C197.233 352.218 198.053 352.218 198.463 351.773C198.873 351.328 198.873 350.438 198.463 349.992C198.053 349.547 197.233 349.547 196.823 349.992C196.413 350.438 196.413 351.328 196.823 351.773ZM87.6516 346.431C86.9684 347.173 86.9684 348.36 87.6516 349.102C88.3348 349.844 89.4278 349.844 90.111 349.102C90.7942 348.36 90.7942 347.173 90.111 346.431C89.4278 345.689 88.3348 345.689 87.6516 346.431ZM1.1614 294.641C1.43467 294.344 1.43467 293.899 1.1614 293.602C0.88813 293.305 0.478224 293.305 0.204953 293.602C-0.0683177 293.899 -0.0683177 294.344 0.204953 294.641C0.478224 294.789 1.02477 294.789 1.1614 294.641ZM15.7814 308.887C14.5517 310.222 14.5517 312.3 15.7814 313.487C17.0111 314.823 18.924 314.823 20.0171 313.487C21.2468 312.151 21.2468 310.074 20.0171 308.887C18.7874 307.551 16.8745 307.551 15.7814 308.887ZM83.8258 237.36H84.0991V237.063H83.8258V237.36ZM133.015 244.78C133.288 244.483 133.288 244.186 133.015 243.889C132.741 243.592 132.468 243.592 132.195 243.889C131.921 244.186 131.921 244.483 132.195 244.78C132.468 245.076 132.741 245.076 133.015 244.78ZM197.37 280.395C196.55 279.504 195.047 279.504 194.091 280.395C193.271 281.285 193.271 282.917 194.091 283.956C194.91 284.847 196.413 284.847 197.37 283.956C198.19 282.917 198.19 281.433 197.37 280.395ZM198.326 255.316C198.6 255.019 198.6 254.574 198.326 254.277C198.053 253.98 197.643 253.98 197.37 254.277C197.096 254.574 197.096 255.019 197.37 255.316C197.506 255.612 198.053 255.612 198.326 255.316ZM198.326 241.07C198.873 240.476 198.873 239.734 198.326 239.141C197.78 238.547 197.096 238.547 196.55 239.141C196.003 239.734 196.003 240.476 196.55 241.07C197.096 241.515 197.916 241.515 198.326 241.07ZM198.736 190.615C199.419 189.873 199.419 188.686 198.736 187.944C198.053 187.202 196.96 187.202 196.277 187.944C195.594 188.686 195.594 189.873 196.277 190.615C196.96 191.357 198.053 191.357 198.736 190.615ZM254.21 242.108C254.893 241.366 254.893 240.031 254.21 239.141C253.527 238.399 252.297 238.399 251.477 239.141C250.794 239.883 250.794 241.218 251.477 242.108C252.297 242.999 253.527 242.999 254.21 242.108ZM319.795 122.501C319.932 122.353 319.932 121.908 319.795 121.759C319.658 121.611 319.249 121.611 319.112 121.759C318.975 121.908 318.975 122.353 319.112 122.501C319.249 122.798 319.522 122.798 319.795 122.501ZM98.0359 321.055C98.3091 320.758 98.3091 320.165 98.0359 319.72C97.7626 319.423 97.2161 319.423 96.8062 319.72C96.5329 320.016 96.5329 320.61 96.8062 321.055C97.2161 321.352 97.7626 321.352 98.0359 321.055ZM329.223 353.554C327.993 354.89 327.993 356.967 329.223 358.303C330.453 359.638 332.366 359.638 333.595 358.303C334.825 356.967 334.825 354.89 333.595 353.554C332.366 352.218 330.316 352.218 329.223 353.554ZM301.213 354.296C300.256 355.335 300.256 356.819 301.213 357.857C302.169 358.896 303.535 358.896 304.492 357.857C305.448 356.819 305.448 355.335 304.492 354.296C303.672 353.257 302.169 353.257 301.213 354.296ZM307.771 303.544C308.454 302.802 308.454 301.467 307.771 300.725C307.088 299.983 305.858 299.983 305.175 300.725C304.492 301.467 304.492 302.802 305.175 303.544C305.995 304.286 307.088 304.286 307.771 303.544ZM337.011 278.911C329.633 291.228 321.161 305.474 311.597 321.649C305.448 315.268 299.436 308.887 293.288 302.506C300.529 295.531 307.771 288.705 315.013 281.73C316.652 283.511 319.249 283.511 320.888 281.73C321.571 280.988 321.981 279.949 322.118 278.911C327.173 278.911 332.092 278.911 337.011 278.911ZM311.46 322.094C309.137 326.101 306.678 330.256 304.082 334.411C302.852 333.669 301.349 333.817 300.256 335.004C299.026 336.34 299.026 338.566 300.256 339.902C301.486 341.237 303.535 341.237 304.765 339.902C305.995 338.566 305.995 336.34 304.765 335.004C304.629 334.856 304.492 334.856 304.355 334.708C306.815 330.553 309.274 326.397 311.597 322.391C321.571 332.927 331.682 343.315 341.657 353.851C338.377 366.316 335.098 378.781 331.682 391.395C330.726 391.247 329.769 391.395 329.086 392.137C328.95 392.285 328.813 392.582 328.676 392.879C321.708 389.317 314.74 385.756 307.908 382.343C308.454 381.007 308.181 379.375 307.088 378.188C305.722 376.704 303.399 376.704 302.032 378.188C301.896 378.336 301.896 378.485 301.759 378.633C285.909 367.503 269.923 356.225 254.073 345.095C254.483 344.057 254.483 342.869 253.664 341.979C253.117 341.385 252.434 341.237 251.751 341.237C251.341 338.863 250.521 334.856 249.428 329.069C262.272 324.32 270.333 321.204 273.749 320.016C273.886 320.165 273.886 320.462 274.159 320.61C274.979 321.5 276.208 321.5 276.892 320.61C277.575 319.868 277.575 318.829 277.165 317.939C282.494 312.893 287.686 307.848 293.014 302.802C299.163 309.184 305.312 315.713 311.46 322.094ZM292.741 302.506C287.549 307.551 282.22 312.597 277.028 317.642C276.208 316.9 275.115 316.9 274.295 317.791C273.749 318.384 273.612 318.978 273.749 319.72C270.47 320.907 262.272 324.023 249.428 328.772C248.745 325.359 248.061 321.5 247.105 316.9C260.769 295.383 268.557 283.214 270.333 280.246C270.606 280.395 271.016 280.395 271.289 280.098C278.531 287.518 285.636 295.086 292.741 302.506ZM249.018 328.92C245.329 330.256 241.093 331.888 236.584 333.521C240.273 327.733 243.689 322.391 246.832 317.494C247.652 321.797 248.335 325.656 249.018 328.92ZM163.621 285.737C163.621 285.885 163.757 286.034 163.757 286.182C157.199 290.337 150.504 294.492 143.945 298.647C145.448 294.195 147.088 289.595 148.591 285.143C153.783 285.44 158.839 285.589 163.621 285.737ZM142.989 299.835C137.66 315.268 132.331 330.553 127.003 345.986C126.456 345.837 125.773 345.986 125.226 346.431C125.226 346.431 125.226 346.579 125.09 346.579C120.307 343.166 101.042 329.662 67.0196 305.77C76.8574 300.725 83.2792 297.46 86.4219 295.828C86.5585 295.976 86.5585 296.273 86.8318 296.421C87.7882 297.46 89.4278 297.46 90.3843 296.421C90.6576 296.125 90.7942 295.828 90.9308 295.531C102.272 299.538 113.612 303.544 124.953 307.551C124.68 308.887 124.953 310.371 125.909 311.558C127.412 313.19 129.735 313.19 131.238 311.558C132.468 310.222 132.605 308.293 131.921 306.809C135.611 304.435 139.3 302.209 142.989 299.835ZM356.277 394.808C355.457 404.602 354.637 414.545 353.817 424.339C352.724 424.339 351.631 424.784 350.811 425.674C349.172 427.455 349.172 430.126 350.811 431.907C340.29 444.224 329.769 456.689 319.385 469.006C319.249 469.006 319.249 468.858 319.112 468.858C321.845 463.367 334.142 438.585 356.277 394.808ZM371.033 214.062C367.617 209.016 361.059 199.519 351.358 185.421C351.494 185.421 351.494 185.273 351.631 185.273C352.997 183.789 352.997 181.266 351.631 179.634C350.265 178.15 347.942 178.15 346.439 179.634C344.936 181.118 345.073 183.64 346.439 185.273C347.669 186.608 349.582 186.757 350.948 185.718C360.786 199.964 367.344 209.61 370.623 214.507C370.487 214.655 370.35 214.655 370.35 214.804C368.574 216.733 368.574 219.849 370.35 221.778C370.487 221.927 370.76 222.075 370.897 222.223C366.934 228.901 357.78 244.334 343.57 268.226C343.433 268.078 343.16 267.929 343.023 267.929C345.073 262.29 349.718 250.27 356.55 231.869C358.053 232.463 359.693 232.017 360.786 230.83C362.425 229.05 362.425 226.23 360.786 224.449C359.146 222.669 356.55 222.669 354.91 224.449C353.271 226.23 353.271 229.05 354.91 230.83C355.184 231.127 355.593 231.424 356.003 231.721C348.898 250.864 344.253 262.884 342.477 267.781C341.93 267.633 341.247 267.633 340.7 267.781C335.098 249.38 329.359 230.83 323.757 212.429C324.167 212.281 324.577 211.984 324.987 211.539C326.354 210.055 326.354 207.532 324.987 206.048C323.621 204.564 321.298 204.564 319.932 206.048C319.112 206.939 318.839 208.126 318.975 209.164C312.963 210.352 306.951 211.539 300.939 212.726C300.803 212.132 300.529 211.539 300.12 211.094C298.89 209.758 296.84 209.758 295.474 211.094C294.244 212.429 294.244 214.655 295.474 216.139C296.157 216.881 297.114 217.178 297.933 217.178C298.617 222.223 300.12 232.759 302.169 248.489C301.759 248.638 301.213 248.786 300.939 249.231C299.846 250.419 299.846 252.199 300.939 253.238C302.032 254.425 303.672 254.425 304.629 253.238C305.585 252.051 305.722 250.27 304.629 249.231C304.082 248.638 303.399 248.341 302.579 248.489C300.393 232.463 298.89 222.075 298.343 217.178C298.89 217.029 299.436 216.733 299.983 216.287C300.666 215.546 300.939 214.507 300.803 213.468C306.815 212.281 312.827 211.094 318.839 209.906C318.975 210.5 319.249 211.242 319.658 211.687C320.615 212.726 321.845 213.023 323.074 212.578C328.676 230.979 334.415 249.528 340.017 267.929C339.607 268.078 339.334 268.375 338.924 268.671C337.694 270.007 337.694 272.233 338.924 273.568C339.197 273.865 339.471 274.014 339.744 274.162C338.924 275.646 337.968 277.13 337.011 278.614C331.956 278.614 326.9 278.614 321.845 278.466C321.845 277.427 321.435 276.388 320.615 275.498C318.975 273.717 316.379 273.717 314.74 275.498C313.237 277.13 313.1 279.653 314.466 281.433C307.225 288.408 299.983 295.383 292.741 302.209C285.636 294.789 278.531 287.221 271.426 279.801C271.699 279.356 271.699 278.762 271.289 278.317C270.88 277.872 270.196 277.872 269.786 278.317C269.377 278.762 269.377 279.504 269.786 279.949C267.464 283.511 259.812 295.531 246.832 316.158C244.782 305.325 242.05 291.376 238.77 274.31C251.751 257.838 264.731 241.515 277.575 225.043C278.804 226.082 280.717 226.082 281.81 224.746C283.04 223.411 283.04 221.036 281.81 219.701C281.401 219.255 280.717 218.959 280.171 218.81C281.401 209.313 282.63 199.667 283.86 190.17C284.406 190.17 284.953 190.021 285.363 189.576C286.183 188.686 286.183 187.202 285.363 186.311C285.09 186.015 284.816 185.866 284.543 185.718C285.226 181.86 286.866 173.253 289.462 159.452C289.325 159.452 289.325 159.452 289.189 159.452C289.462 159.155 289.462 158.561 289.189 158.265C288.915 157.968 288.369 157.968 288.096 158.265C287.822 158.561 287.822 159.155 288.096 159.452C288.369 159.749 288.642 159.749 288.915 159.6C286.456 173.253 284.816 181.86 284.133 185.718C283.587 185.718 282.904 185.866 282.494 186.311C281.674 187.202 281.674 188.686 282.494 189.576C282.767 189.873 283.177 190.021 283.45 190.17C282.22 199.816 280.991 209.313 279.761 218.81C278.804 218.81 277.848 219.107 277.165 219.849C275.935 221.185 275.935 223.559 277.165 224.894C264.321 241.218 251.477 257.542 238.634 273.717C235.628 258.284 232.212 240.476 228.249 219.997C228.659 219.849 228.933 219.701 229.342 219.404C230.299 218.365 230.299 216.584 229.342 215.546C228.386 214.507 226.746 214.507 225.79 215.546C224.833 216.584 224.833 218.365 225.79 219.404C226.336 219.997 227.156 220.294 227.839 220.146C231.802 240.773 235.354 258.729 238.36 274.31C235.628 277.724 233.032 281.137 230.299 284.55C228.523 283.066 226.063 283.214 224.424 284.995C223.604 285.885 223.194 286.924 223.194 287.963C215.542 287.666 197.37 286.924 168.676 285.737C168.813 284.847 168.54 283.956 167.993 283.214C166.9 282.027 165.26 282.027 164.167 283.214C163.621 283.808 163.348 284.698 163.484 285.589C158.839 285.44 153.92 285.143 148.728 284.995C154.74 267.633 160.751 250.27 166.763 232.759C167.447 232.908 168.266 232.759 168.95 232.166C169.769 231.275 169.769 229.643 168.95 228.753C168.13 227.862 166.627 227.862 165.807 228.753C164.987 229.643 164.987 231.127 165.67 232.166C154.056 246.264 142.579 260.213 130.965 274.31C130.282 273.717 129.189 273.865 128.506 274.459C128.369 274.607 128.232 274.904 128.096 275.052C121.81 272.975 97.626 264.961 55.4056 251.012C55.5423 250.122 55.4056 249.231 54.7225 248.638C53.766 247.599 52.263 247.599 51.3066 248.638C50.3501 249.677 50.3501 251.309 51.3066 252.348C52.263 253.387 53.766 253.387 54.7225 252.348C54.9957 252.051 55.1324 251.754 55.269 251.457C97.0794 265.258 121.264 273.272 127.959 275.498C127.822 276.091 127.959 276.833 128.506 277.278C129.189 278.02 130.418 278.02 131.238 277.278C131.921 276.536 131.921 275.349 131.375 274.459C142.989 260.361 154.466 246.412 166.08 232.314C166.217 232.314 166.217 232.463 166.354 232.463C160.342 249.973 154.33 267.336 148.318 284.847C122.904 283.808 91.4774 282.621 54.0393 280.988C54.5858 280.246 54.5858 279.207 53.9026 278.466C53.2195 277.724 52.1264 277.724 51.4432 278.466C50.76 279.207 50.76 280.395 51.4432 281.137C51.4432 281.285 51.4432 281.285 51.4432 281.433C51.5798 281.433 51.7165 281.433 51.8531 281.433C52.3997 281.73 52.9462 281.73 53.4927 281.433C91.2041 282.917 122.767 284.253 148.181 285.292C146.541 289.892 145.038 294.641 143.399 299.241C139.573 301.615 135.747 303.99 131.921 306.512C131.785 306.364 131.648 306.067 131.512 305.919C130.009 304.286 127.686 304.286 126.183 305.919C125.773 306.364 125.5 306.809 125.363 307.254C114.022 303.248 102.681 299.241 91.3407 295.234C91.4774 294.344 91.3407 293.305 90.6576 292.712C89.7011 291.673 88.0615 291.673 87.105 292.712C86.4219 293.454 86.1486 294.641 86.5585 295.679C83.2792 297.312 76.8574 300.725 67.0196 305.77C53.3561 296.273 37.3698 284.995 19.0606 272.084C19.3339 271.491 19.1973 270.749 18.7874 270.155C18.2408 269.562 17.1477 269.562 16.6012 270.155C16.0547 270.749 16.0547 271.936 16.6012 272.53C17.1477 273.123 18.2408 273.123 18.7874 272.53C18.7874 272.53 18.7874 272.53 18.7874 272.381C36.9599 285.143 52.8096 296.273 66.4731 305.77C62.1008 307.996 56.9086 310.667 51.1699 313.635C51.0333 313.339 50.8967 313.19 50.76 312.893C49.6669 311.706 47.7541 311.706 46.661 312.893C45.5679 314.081 45.5679 316.158 46.661 317.345C47.7541 318.533 49.6669 318.533 50.76 317.345C51.5798 316.455 51.8531 315.119 51.4432 314.081C57.3185 311.113 62.5107 308.442 67.0196 306.067C100.359 329.514 119.761 343.166 125.363 347.025C125.09 347.767 125.09 348.657 125.773 349.251C126.456 349.992 127.686 349.992 128.369 349.251C129.052 348.509 129.052 347.173 128.369 346.431C128.232 346.283 128.096 346.134 127.959 346.134C133.288 330.553 138.753 314.971 144.082 299.389C150.914 295.086 157.609 290.931 164.441 286.627C164.577 286.776 164.577 286.924 164.714 287.072C165.67 288.111 167.31 288.111 168.266 287.221C175.781 295.383 183.16 303.396 190.675 311.558C190.128 312.3 189.855 313.339 190.128 314.229C186.439 315.861 178.104 319.274 164.987 324.914C164.987 324.617 164.851 324.32 164.714 324.172C164.167 323.578 163.484 323.578 162.938 324.172C162.391 324.765 162.391 325.507 162.938 326.101C162.938 326.249 162.938 326.249 163.074 326.397H163.211C163.621 326.694 164.304 326.694 164.714 326.249C164.851 326.101 164.987 325.804 164.987 325.655C177.831 320.165 186.166 316.603 190.265 314.971C190.401 315.268 190.538 315.565 190.811 315.713C191.904 316.9 193.681 316.9 194.637 315.713C195.73 314.526 195.73 312.597 194.637 311.558C193.681 310.519 192.041 310.371 190.948 311.409C183.57 303.248 176.055 295.234 168.676 287.072C168.813 286.776 169.086 286.479 169.086 286.182C197.643 287.369 215.816 288.111 223.604 288.408C223.604 289.595 224.014 290.782 224.97 291.821C226.746 293.75 229.479 293.75 231.255 291.821C233.032 289.892 233.032 286.924 231.255 284.995C231.255 284.995 231.255 284.995 231.119 284.995C233.715 281.73 236.311 278.465 238.907 275.201C242.186 292.415 244.919 306.364 246.968 317.197C243.689 322.391 240.137 328.03 236.174 334.262C232.485 335.598 228.523 337.082 224.424 338.714C224.424 338.566 224.287 338.418 224.15 338.269C223.604 337.676 222.921 337.676 222.374 338.269C222.101 338.566 221.964 339.16 222.101 339.605C207.754 344.947 190.401 351.476 170.316 359.045C170.179 358.748 170.043 358.451 169.906 358.303C168.95 357.264 167.447 357.264 166.49 358.303C165.534 359.341 165.534 360.974 166.49 362.013C167.447 363.051 168.95 363.051 169.906 362.013C170.453 361.419 170.726 360.38 170.453 359.638C190.538 352.07 207.891 345.541 222.237 340.198V340.347C222.784 340.94 223.467 340.94 224.014 340.347C224.287 340.05 224.424 339.753 224.424 339.456C228.386 337.972 232.212 336.488 235.628 335.301C226.063 350.438 214.449 368.542 201.059 389.911C200.239 389.466 199.146 389.466 198.326 390.356C197.37 391.395 197.37 392.879 198.326 393.918C199.283 394.957 200.649 394.957 201.605 393.918C202.562 392.879 202.562 391.395 201.605 390.356C201.605 390.356 201.469 390.356 201.469 390.208C215.132 368.69 226.746 350.289 236.447 335.004C241.23 333.224 245.465 331.591 249.428 330.107C250.521 335.746 251.341 339.753 251.751 342.127C251.341 342.276 251.067 342.424 250.794 342.721C249.838 343.76 249.838 345.392 250.794 346.431C251.751 347.47 253.254 347.47 254.21 346.431C254.21 346.431 254.347 346.283 254.347 346.134C270.196 357.264 286.183 368.542 302.032 379.672C301.349 381.156 301.486 382.936 302.579 384.272C303.945 385.756 306.268 385.756 307.634 384.272C307.908 383.975 308.044 383.678 308.181 383.382C315.149 386.943 322.118 390.505 328.95 393.918C328.54 394.957 328.813 396.292 329.633 397.182C330.726 398.37 332.502 398.37 333.732 397.182C334.825 395.995 334.825 394.066 333.732 392.731C333.459 392.434 333.049 392.137 332.775 391.989C336.055 379.523 339.334 367.206 342.613 354.741C346.985 359.341 351.221 363.793 355.594 368.394C354.091 370.174 354.227 372.994 355.73 374.626C356.413 375.368 357.233 375.813 358.19 375.962C357.643 381.898 357.233 387.982 356.687 393.918C336.601 433.985 324.031 458.915 318.975 469.006C317.746 468.413 316.243 468.561 315.286 469.748C314.056 471.084 314.056 473.458 315.286 474.794C316.516 476.129 318.702 476.129 319.932 474.794C321.161 473.458 321.161 471.232 319.932 469.897C330.453 457.58 340.974 445.114 351.358 432.798C352.997 434.282 355.32 434.133 356.823 432.501C358.463 430.72 358.463 427.9 356.823 426.268C356.14 425.526 355.32 425.229 354.5 425.081C355.32 414.842 356.14 404.602 356.96 394.215C364.202 379.82 372.536 363.348 381.827 344.799C383.604 345.689 385.653 345.392 387.02 343.908C388.796 341.979 388.796 338.863 387.02 336.785C385.243 334.856 382.374 334.856 380.461 336.785C378.685 338.714 378.685 341.831 380.461 343.908C380.734 344.205 381.008 344.353 381.281 344.65C372.263 362.606 364.202 378.781 356.96 393.027C357.37 387.388 357.916 381.898 358.326 376.259C359.419 376.259 360.649 375.813 361.469 374.923C363.108 373.142 363.108 370.174 361.469 368.394C359.829 366.613 357.233 366.613 355.594 368.245C351.221 363.645 346.849 359.045 342.477 354.444C343.98 348.657 345.482 342.869 347.122 337.082C348.625 337.379 350.265 337.082 351.358 335.746C352.997 333.966 353.134 331.295 351.768 329.365C355.32 326.249 361.469 320.907 370.35 313.19L370.487 313.339C372.263 315.268 374.996 315.268 376.635 313.339C378.412 311.409 378.412 308.442 376.635 306.661C374.859 304.732 372.126 304.732 370.487 306.661C368.984 308.293 368.847 310.964 370.077 312.745C361.332 320.462 355.047 325.804 351.494 328.92L351.358 328.772C349.582 326.843 346.712 326.843 344.936 328.772C343.16 330.701 343.16 333.817 344.936 335.746C345.482 336.34 346.029 336.637 346.712 336.934C345.209 342.573 343.706 348.36 342.203 353.999C332.229 343.611 322.254 333.075 312.28 322.688C321.981 306.364 330.453 292.118 337.831 279.653C347.805 279.653 357.78 279.801 367.891 279.801C367.891 280.84 368.301 281.73 368.984 282.472C370.213 283.808 372.126 284.105 373.629 283.066C378.548 291.079 392.758 314.081 416.123 351.773C415.986 351.922 415.85 352.07 415.713 352.218C414.073 353.999 414.073 356.967 415.713 358.896C417.353 360.677 420.085 360.677 421.862 358.896C423.501 357.116 423.501 354.148 421.862 352.218C420.495 350.734 418.309 350.438 416.669 351.476C393.441 313.932 379.231 291.079 374.176 282.769C374.312 282.621 374.449 282.621 374.586 282.472C376.089 280.84 376.089 278.169 374.586 276.536C373.083 274.904 370.623 274.904 369.12 276.536C368.437 277.278 368.027 278.169 368.027 279.207C358.19 279.207 348.215 279.059 338.377 279.059C339.197 277.575 340.154 276.24 340.974 274.756C342.067 275.201 343.296 274.904 344.253 273.865C345.482 272.53 345.482 270.452 344.389 269.117C358.599 245.373 367.754 229.94 371.853 223.114C373.629 224.152 375.816 224.004 377.319 222.372C379.095 220.443 379.095 217.326 377.319 215.397C375.132 212.874 372.81 212.726 371.033 214.062ZM325.944 236.321C325.534 236.766 325.534 237.36 325.944 237.657C326.354 238.102 326.9 238.102 327.173 237.657C327.583 237.211 327.583 236.618 327.173 236.321C326.763 236.024 326.217 236.024 325.944 236.321ZM288.779 278.762H289.052V278.466H288.779V278.762ZM167.037 246.412C167.31 246.264 167.31 245.818 167.037 245.67C166.763 245.522 166.49 245.522 166.354 245.67C166.08 245.967 166.08 246.264 166.354 246.412C166.627 246.709 166.9 246.709 167.037 246.412ZM88.7447 263.626H88.3348V264.071H88.7447V263.626ZM238.77 290.04C238.497 290.337 238.497 290.782 238.77 291.079C239.044 291.376 239.453 291.376 239.727 291.079C240 290.782 240 290.337 239.727 290.04C239.453 289.744 239.044 289.744 238.77 290.04ZM343.296 310.667C343.57 310.371 343.57 309.926 343.296 309.629C343.023 309.332 342.613 309.332 342.34 309.629C342.067 309.926 342.067 310.371 342.34 310.667C342.477 310.964 343.023 310.964 343.296 310.667ZM393.578 191.209C395.354 189.279 395.354 186.311 393.578 184.382C392.622 183.344 391.529 182.898 390.299 183.047C390.162 180.524 389.889 177.259 389.479 173.253C390.299 173.104 391.119 172.807 391.665 172.065C393.168 170.433 393.168 167.614 391.665 165.981C390.162 164.349 387.566 164.349 386.063 165.981C384.56 167.614 384.56 170.433 386.063 172.065C386.883 172.956 387.839 173.401 388.933 173.253C389.206 177.556 389.479 180.821 389.752 183.047C389.342 183.047 388.932 183.195 388.523 183.492C385.107 176.221 381.554 168.949 378.138 161.826C378.412 161.678 378.821 161.381 379.095 161.084C380.871 159.155 380.871 156.039 379.095 154.109C378.412 153.367 377.455 152.922 376.635 152.774C377.045 148.619 377.728 141.644 378.685 131.998C379.915 131.998 381.008 131.553 381.964 130.663C383.604 128.882 383.604 125.914 381.964 123.985C380.324 122.204 377.592 122.204 375.816 123.985C374.176 125.766 374.176 128.734 375.816 130.663C376.499 131.405 377.319 131.85 378.138 131.998C377.182 141.644 376.499 148.619 376.089 152.774C374.859 152.774 373.493 153.219 372.536 154.258C370.76 156.187 370.76 159.303 372.536 161.232C373.903 162.716 375.952 163.013 377.728 162.271C381.144 169.543 384.697 176.814 388.113 183.937C387.839 184.086 387.43 184.382 387.293 184.679C385.517 186.608 385.517 189.576 387.293 191.505C389.069 193.434 391.802 192.989 393.578 191.209ZM419.812 145.206C421.452 143.425 421.452 140.754 419.812 138.973C418.582 137.637 416.806 137.341 415.303 138.083C413.254 133.928 409.701 126.359 404.372 115.23C404.646 115.081 404.919 114.933 405.055 114.636C406.558 113.004 406.558 110.333 405.055 108.7C403.552 107.068 401.093 107.068 399.59 108.7C398.087 110.333 398.087 113.004 399.59 114.636C400.82 115.972 402.459 116.12 403.962 115.526C409.291 126.508 412.844 134.076 414.893 138.379C414.62 138.528 414.347 138.825 414.073 138.973C412.434 140.754 412.434 143.425 414.073 145.206C414.893 146.096 415.986 146.541 417.216 146.541C418.036 153.813 418.719 161.084 419.539 168.504C418.856 168.652 418.036 169.098 417.489 169.691C415.986 171.323 415.986 173.995 417.489 175.627C417.899 176.072 418.446 176.369 418.992 176.666C417.216 183.937 412.707 201.299 405.875 228.753C404.509 228.456 402.869 228.901 401.776 230.088C400 232.017 400 234.985 401.776 236.915C403.552 238.844 406.285 238.844 408.061 236.915C409.838 234.985 409.838 232.017 408.061 230.088C407.515 229.495 406.968 229.198 406.285 228.901C413.254 201.448 417.626 184.086 419.402 176.814C420.632 177.111 421.998 176.666 422.955 175.627C424.458 173.995 424.458 171.323 422.955 169.691C422.135 168.801 421.042 168.356 420.085 168.504C419.266 161.232 418.582 153.961 417.763 146.541C418.446 146.244 419.266 145.948 419.812 145.206ZM428.147 130.069C429.786 128.289 429.786 125.617 428.147 123.837C426.507 122.056 424.048 122.056 422.408 123.837C420.769 125.617 420.769 128.289 422.408 130.069C424.048 131.702 426.507 131.702 428.147 130.069ZM432.383 184.827C430.88 183.195 428.557 183.195 427.19 184.827C425.687 186.46 425.687 188.983 427.19 190.467C428.693 192.099 431.016 192.099 432.383 190.467C433.749 188.834 433.749 186.46 432.383 184.827ZM439.624 99.9449C441.401 98.0157 441.401 94.8994 439.624 93.1186C437.848 91.1895 434.979 91.1895 433.339 93.1186C431.563 95.0478 431.563 98.1641 433.339 99.9449C435.115 101.874 437.848 101.874 439.624 99.9449ZM447.276 153.664C445.5 151.735 442.494 151.735 440.717 153.664C438.941 155.593 438.941 158.858 440.717 160.787C442.494 162.716 445.5 162.716 447.276 160.787C449.052 158.858 449.052 155.742 447.276 153.664ZM446.593 176.072C448.369 178.001 451.375 178.001 453.151 176.072C454.927 174.143 454.927 170.878 453.151 168.949C451.375 167.02 448.369 167.02 446.593 168.949C444.68 170.878 444.68 174.143 446.593 176.072ZM447.139 199.222C445.226 201.299 445.226 204.564 447.139 206.642C449.052 208.719 452.058 208.719 453.971 206.642C455.884 204.564 455.884 201.299 453.971 199.222C452.195 197.144 449.052 197.144 447.139 199.222ZM447.686 138.676C445.909 140.605 445.909 143.573 447.686 145.503C449.462 147.432 452.195 147.432 453.971 145.503C455.747 143.573 455.747 140.605 453.971 138.676C452.195 136.896 449.325 136.896 447.686 138.676ZM453.834 84.2149C455.337 82.5825 455.337 79.9114 453.834 78.279C452.331 76.6466 449.872 76.6466 448.369 78.279C446.866 79.9114 446.866 82.5825 448.369 84.2149C449.872 85.9956 452.331 85.9956 453.834 84.2149ZM457.25 114.636C458.753 113.004 458.753 110.333 457.25 108.7C455.747 107.068 453.288 107.068 451.785 108.7C450.282 110.333 450.282 113.004 451.785 114.636C453.288 116.268 455.747 116.268 457.25 114.636ZM458.07 236.321C459.573 234.689 459.573 231.869 458.07 230.237C456.567 228.604 453.971 228.604 452.468 230.237L452.331 230.385C447.686 226.378 437.848 218.217 422.955 205.603C424.184 203.674 424.048 201.003 422.408 199.222C420.632 197.293 417.763 197.293 415.986 199.222C414.21 201.151 414.21 204.267 415.986 206.197C417.763 208.126 420.632 208.126 422.408 206.197C422.545 206.048 422.545 206.048 422.681 205.9C437.711 218.662 447.549 226.824 452.058 230.682C451.102 232.314 451.102 234.392 452.331 235.876C449.599 238.844 446.729 241.812 443.997 244.78C442.357 243.147 439.761 243.147 438.121 244.928C437.301 245.818 436.892 246.857 436.892 248.044H390.572C390.572 247.006 390.162 245.967 389.479 245.225C387.976 243.592 385.38 243.592 383.877 245.225C383.057 246.115 382.647 247.154 382.647 248.341C380.871 248.489 378.548 248.638 375.679 248.935C375.542 247.896 375.132 247.005 374.449 246.264C372.81 244.483 370.213 244.483 368.574 246.264C366.934 248.044 366.934 250.864 368.574 252.645C370.213 254.425 372.81 254.425 374.449 252.645C375.269 251.754 375.679 250.567 375.679 249.38C378.548 249.083 380.871 248.935 382.647 248.786C382.784 249.677 383.057 250.567 383.74 251.309C385.243 252.941 387.839 252.941 389.342 251.309C390.026 250.567 390.436 249.528 390.436 248.489H436.755C436.755 249.528 437.165 250.715 437.985 251.606C439.624 253.387 442.357 253.387 444.133 251.606C445.773 249.825 445.773 247.006 444.27 245.225C447.003 242.257 449.872 239.289 452.605 236.321C454.244 237.953 456.567 237.953 458.07 236.321ZM423.638 214.804C421.998 216.584 421.998 219.701 423.638 221.481C425.278 223.262 428.147 223.262 429.786 221.481C431.426 219.701 431.426 216.584 429.786 214.804C428.147 212.874 425.414 212.874 423.638 214.804ZM462.716 290.782C460.939 288.853 458.207 288.853 456.43 290.782C454.654 292.712 454.654 295.679 456.43 297.609C458.207 299.538 460.939 299.538 462.716 297.609C464.355 295.679 464.355 292.563 462.716 290.782ZM461.076 260.806C459.573 262.439 459.573 264.961 461.076 266.594C462.579 268.226 464.902 268.226 466.405 266.594C467.908 264.961 467.908 262.439 466.405 260.806C464.902 259.174 462.442 259.174 461.076 260.806ZM462.989 153.813C461.213 155.742 461.213 158.858 462.989 160.639C464.765 162.568 467.634 162.568 469.274 160.639C471.05 158.71 471.05 155.593 469.274 153.813C467.634 151.884 464.765 151.884 462.989 153.813ZM469.957 93.4154C468.454 91.7831 465.858 91.7831 464.219 93.4154C462.716 95.0478 462.716 97.8673 464.219 99.6481C465.722 101.28 468.318 101.28 469.957 99.6481C471.597 97.8673 471.597 95.0478 469.957 93.4154ZM476.652 69.8204C478.565 67.7429 478.565 64.4781 476.652 62.549C474.74 60.4715 471.734 60.4715 469.957 62.549C468.044 64.6265 468.044 67.8913 469.957 69.8204C471.734 71.7496 474.74 71.7496 476.652 69.8204ZM477.882 129.773C479.385 128.14 479.385 125.617 477.882 124.133C476.379 122.501 474.056 122.501 472.69 124.133C471.187 125.766 471.187 128.289 472.69 129.773C474.056 131.256 476.379 131.256 477.882 129.773ZM482.118 215.1C480.615 213.468 478.155 213.468 476.652 215.1C475.149 216.733 475.149 219.404 476.652 221.036C478.155 222.669 480.615 222.669 482.118 221.036C483.621 219.404 483.621 216.733 482.118 215.1ZM490.179 54.2388C491.819 52.4581 491.819 49.4901 490.179 47.7094C488.54 45.9286 485.807 45.9286 484.167 47.7094C482.528 49.4901 482.528 52.4581 484.167 54.2388C485.807 56.0196 488.54 56.0196 490.179 54.2388ZM484.304 78.1306C482.664 79.9114 482.664 82.7309 484.304 84.5117C485.944 86.2924 488.54 86.2924 490.179 84.5117C491.819 82.7309 491.819 79.9114 490.179 78.1306C488.54 76.3499 485.944 76.3499 484.304 78.1306ZM490.453 115.23C492.229 113.301 492.229 110.036 490.453 108.107C488.676 106.178 485.67 106.178 483.894 108.107C482.118 110.036 482.118 113.301 483.894 115.23C485.67 117.159 488.676 117.159 490.453 115.23ZM484.167 145.503C485.807 147.283 488.676 147.283 490.316 145.503C491.956 143.722 491.956 140.605 490.316 138.825C488.676 137.044 485.807 137.044 484.167 138.825C482.391 140.605 482.391 143.573 484.167 145.503ZM484.304 169.394C482.664 171.175 482.664 173.995 484.304 175.627C485.944 177.408 488.54 177.408 490.043 175.627C491.682 173.846 491.682 171.027 490.043 169.394C488.54 167.614 485.944 167.614 484.304 169.394ZM490.726 206.642C492.639 204.564 492.639 201.151 490.726 199.074C488.813 196.996 485.67 196.996 483.757 199.074C481.845 201.151 481.845 204.564 483.757 206.642C485.67 208.719 488.676 208.719 490.726 206.642ZM504.116 38.8056C505.756 37.0249 505.756 34.2053 504.116 32.573C502.476 30.7922 499.88 30.7922 498.377 32.573C496.738 34.3537 496.738 37.1733 498.377 38.8056C499.88 40.5864 502.476 40.5864 504.116 38.8056ZM504.253 69.3752C505.892 67.5945 505.892 64.6265 504.253 62.8458C502.613 61.065 499.88 61.065 498.241 62.8458C496.601 64.6265 496.601 67.5945 498.241 69.3752C499.88 71.156 502.477 71.156 504.253 69.3752ZM498.241 130.069C499.88 131.85 502.613 131.85 504.253 130.069C505.892 128.289 505.892 125.321 504.253 123.54C502.613 121.759 499.88 121.759 498.241 123.54C496.601 125.469 496.601 128.289 498.241 130.069ZM498.377 154.258C496.874 155.89 496.874 158.71 498.377 160.342C499.88 161.974 502.476 161.974 503.979 160.342C505.482 158.71 505.482 155.89 503.979 154.258C502.476 152.626 499.88 152.626 498.377 154.258ZM504.116 99.6481C505.756 97.8673 505.756 95.0478 504.116 93.267C502.476 91.4863 499.88 91.4863 498.241 93.267C496.601 95.0478 496.601 97.8673 498.241 99.6481C499.88 101.429 502.476 101.429 504.116 99.6481ZM504.389 191.209C506.166 189.279 506.166 186.163 504.389 184.234C502.613 182.305 499.744 182.305 497.967 184.234C496.191 186.163 496.191 189.279 497.967 191.209C499.744 193.138 502.613 193.138 504.389 191.209ZM504.389 221.63C506.166 219.701 506.166 216.436 504.389 214.507C502.613 212.578 499.607 212.578 497.831 214.507C496.055 216.436 496.055 219.701 497.831 221.63C499.744 223.559 502.613 223.559 504.389 221.63ZM498.377 245.522C496.874 247.154 496.874 249.973 498.377 251.606C499.88 253.238 502.476 253.238 503.979 251.606C505.482 249.973 505.482 247.154 503.979 245.522C502.476 243.741 499.88 243.741 498.377 245.522ZM504.526 282.621C506.439 280.543 506.439 277.278 504.526 275.201C502.613 273.123 499.607 273.123 497.694 275.201C495.781 277.278 495.781 280.543 497.694 282.621C499.607 284.698 502.75 284.698 504.526 282.621ZM504.663 313.042C506.576 310.964 506.576 307.7 504.663 305.622C502.75 303.544 499.744 303.544 497.831 305.622C495.918 307.7 495.918 310.964 497.831 313.042C499.607 315.119 502.75 315.119 504.663 313.042ZM518.053 23.6692C519.693 21.8884 519.693 19.0689 518.053 17.2882C516.413 15.5074 513.817 15.5074 512.178 17.2882C510.538 19.0689 510.538 21.8884 512.178 23.6692C513.817 25.45 516.55 25.45 518.053 23.6692ZM518.326 54.2388C520.102 52.3097 520.102 49.3417 518.326 47.4126C516.55 45.4834 513.817 45.4834 512.041 47.4126C510.265 49.3417 510.265 52.3097 512.041 54.2388C513.817 56.168 516.55 56.168 518.326 54.2388ZM512.314 78.1306C510.675 79.9114 510.675 82.7309 512.314 84.5117C513.954 86.2924 516.55 86.2924 518.19 84.5117C519.829 82.7309 519.829 79.9114 518.19 78.1306C516.55 76.3499 513.817 76.3499 512.314 78.1306ZM518.599 115.378C520.512 113.301 520.512 110.036 518.599 108.107C516.687 106.029 513.681 106.029 511.904 108.107C509.991 110.184 509.991 113.449 511.904 115.378C513.681 117.307 516.687 117.307 518.599 115.378ZM512.041 175.924C513.817 177.853 516.687 177.853 518.326 175.924C520.102 173.995 520.102 170.878 518.326 169.098C516.55 167.168 513.681 167.168 512.041 169.098C510.265 171.027 510.265 173.995 512.041 175.924ZM512.314 199.667C510.675 201.448 510.675 204.267 512.314 206.048C513.954 207.829 516.55 207.829 518.19 206.048C519.829 204.267 519.829 201.448 518.19 199.667C516.55 198.035 513.817 198.035 512.314 199.667ZM512.041 145.503C513.817 147.432 516.687 147.432 518.463 145.503C520.239 143.573 520.239 140.457 518.463 138.528C516.687 136.599 513.817 136.599 512.041 138.528C510.265 140.605 510.265 143.722 512.041 145.503ZM518.599 237.063C520.512 234.985 520.512 231.721 518.599 229.643C516.687 227.566 513.681 227.566 511.768 229.643C509.855 231.721 509.855 234.985 511.768 237.063C513.681 239.141 516.687 239.141 518.599 237.063ZM511.904 328.03C513.681 329.959 516.687 329.959 518.463 328.03C520.239 326.101 520.239 322.836 518.463 320.907C516.687 318.978 513.681 318.978 511.904 320.907C510.128 322.984 510.128 326.101 511.904 328.03ZM511.904 351.328C510.128 353.257 510.128 356.522 511.904 358.451C513.681 360.38 516.687 360.38 518.463 358.451C520.239 356.522 520.239 353.257 518.463 351.328C516.687 349.399 513.681 349.399 511.904 351.328ZM518.326 297.46C520.102 295.531 520.102 292.563 518.326 290.782C516.55 288.853 513.817 288.853 512.041 290.782C510.265 292.712 510.265 295.679 512.041 297.46C513.817 299.389 516.55 299.389 518.326 297.46ZM511.904 267.336C513.681 269.265 516.687 269.265 518.463 267.336C520.239 265.407 520.239 262.142 518.463 260.213C516.687 258.284 513.681 258.284 511.904 260.213C510.128 262.142 510.128 265.258 511.904 267.336ZM518.736 389.169C520.649 387.092 520.649 383.678 518.736 381.601C516.823 379.523 513.681 379.523 511.768 381.601C509.855 383.678 509.855 387.092 511.768 389.169C513.681 391.247 516.687 391.247 518.736 389.169ZM532.536 8.97797C534.449 6.90042 534.449 3.63571 532.536 1.55816C530.623 -0.519387 527.617 -0.519387 525.705 1.55816C523.792 3.63571 523.792 6.90042 525.705 8.97797C527.617 11.0555 530.76 11.0555 532.536 8.97797ZM531.99 62.9942C530.35 61.2134 527.891 61.2134 526.251 62.9942C524.611 64.7749 524.611 67.4461 526.251 69.2268C527.891 71.0076 530.35 71.0076 531.99 69.2268C533.629 67.4461 533.629 64.7749 531.99 62.9942ZM531.99 38.8056C533.493 37.0249 533.493 34.3537 531.99 32.573C530.487 30.9406 527.891 30.9406 526.251 32.573C524.611 34.2053 524.611 37.0249 526.251 38.8056C527.891 40.438 530.487 40.438 531.99 38.8056ZM526.388 93.4154C524.885 95.0478 524.885 97.8673 526.388 99.4997C527.891 101.132 530.487 101.132 531.99 99.4997C533.493 97.8673 533.493 95.0478 531.99 93.4154C530.487 91.7831 527.891 91.7831 526.388 93.4154ZM532.4 123.391C530.623 121.462 527.617 121.462 525.841 123.391C524.065 125.321 524.065 128.585 525.841 130.514C527.617 132.444 530.623 132.444 532.4 130.514C534.313 128.437 534.313 125.321 532.4 123.391ZM532.536 153.664C530.76 151.735 527.754 151.735 525.978 153.664C524.201 155.593 524.201 158.858 525.978 160.787C527.754 162.716 530.76 162.716 532.536 160.787C534.313 158.858 534.313 155.742 532.536 153.664ZM532.536 191.357C534.449 189.279 534.449 186.015 532.536 183.937C530.623 181.86 527.617 181.86 525.705 183.937C523.792 186.015 523.792 189.279 525.705 191.357C527.617 193.434 530.76 193.434 532.536 191.357ZM525.841 214.507C523.928 216.584 523.928 219.849 525.841 221.778C527.754 223.856 530.76 223.856 532.536 221.778C534.449 219.701 534.449 216.436 532.536 214.507C530.623 212.429 527.617 212.429 525.841 214.507ZM532.673 252.199C534.586 250.122 534.586 246.857 532.673 244.78C530.76 242.702 527.754 242.702 525.841 244.78C523.928 246.857 523.928 250.122 525.841 252.199C527.617 254.277 530.76 254.277 532.673 252.199ZM525.978 373.587C527.754 375.517 530.623 375.517 532.4 373.587C534.176 371.658 534.176 368.542 532.4 366.613C530.623 364.684 527.754 364.684 525.978 366.613C524.201 368.542 524.201 371.658 525.978 373.587ZM526.114 397.182C524.338 399.112 524.338 402.08 526.114 403.86C527.891 405.789 530.623 405.789 532.263 403.86C534.039 401.931 534.039 398.963 532.263 397.182C530.623 395.253 527.754 395.253 526.114 397.182ZM525.705 343.463C527.617 345.541 530.623 345.541 532.536 343.463C534.449 341.385 534.449 338.121 532.536 336.043C530.623 333.966 527.617 333.966 525.705 336.043C523.928 338.121 523.928 341.385 525.705 343.463ZM526.114 282.324C527.891 284.253 530.623 284.253 532.4 282.324C534.176 280.395 534.176 277.427 532.4 275.498C530.623 273.568 527.891 273.568 526.114 275.498C524.338 277.427 524.338 280.395 526.114 282.324ZM526.114 305.919C524.338 307.848 524.338 310.816 526.114 312.597C527.891 314.526 530.623 314.526 532.263 312.597C534.039 310.667 534.039 307.7 532.263 305.919C530.623 304.138 527.754 304.138 526.114 305.919ZM532.673 434.727C534.586 432.649 534.586 429.384 532.673 427.307C530.76 425.229 527.754 425.229 525.841 427.307C523.928 429.384 523.928 432.649 525.841 434.727C527.617 436.804 530.76 436.804 532.673 434.727ZM526.114 458.025C524.475 459.806 524.475 462.922 526.114 464.703C527.754 466.483 530.623 466.483 532.263 464.703C533.903 462.922 533.903 459.806 532.263 458.025C530.623 456.096 527.754 456.096 526.114 458.025ZM532.673 495.421C534.586 493.343 534.586 490.078 532.673 488.001C530.76 485.923 527.754 485.923 525.841 488.001C523.928 490.078 523.928 493.343 525.841 495.421C527.617 497.498 530.76 497.498 532.673 495.421ZM546.063 23.6692C547.703 21.8884 547.703 19.0689 546.063 17.2882C544.424 15.5074 541.827 15.5074 540.188 17.2882C538.548 19.0689 538.548 21.8884 540.188 23.6692C541.827 25.45 544.424 25.45 546.063 23.6692ZM546.336 54.2388C548.113 52.3097 548.113 49.3417 546.336 47.4126C544.56 45.4834 541.828 45.4834 540.051 47.4126C538.275 49.3417 538.275 52.3097 540.051 54.2388C541.828 56.168 544.56 56.168 546.336 54.2388ZM540.051 77.9822C538.412 79.763 538.412 82.7309 540.051 84.66C541.691 86.4408 544.424 86.4408 546.2 84.66C547.839 82.8793 547.839 79.9114 546.2 77.9822C544.56 76.2015 541.828 76.2015 540.051 77.9822ZM546.473 115.23C548.249 113.301 548.249 110.184 546.473 108.107C544.697 106.178 541.827 106.178 539.915 108.107C538.138 110.036 538.138 113.152 539.915 115.23C541.691 117.159 544.697 117.159 546.473 115.23ZM546.336 169.098C544.56 167.168 541.828 167.168 540.051 169.098C538.275 171.027 538.275 173.995 540.051 175.924C541.828 177.853 544.56 177.853 546.336 175.924C548.113 173.995 548.113 171.027 546.336 169.098ZM546.2 145.354C547.839 143.573 547.839 140.605 546.2 138.825C544.56 137.044 541.827 137.044 540.188 138.825C538.548 140.605 538.548 143.573 540.188 145.354C541.827 147.135 544.56 147.135 546.2 145.354ZM546.336 199.37C544.56 197.441 541.691 197.441 539.915 199.37C538.138 201.299 538.138 204.416 539.915 206.345C541.691 208.274 544.56 208.274 546.336 206.345C548.249 204.416 548.249 201.299 546.336 199.37ZM546.473 236.915C548.249 234.985 548.249 231.721 546.473 229.792C544.697 227.862 541.691 227.862 539.915 229.792C538.138 231.721 538.138 234.985 539.915 236.915C541.691 238.844 544.697 238.844 546.473 236.915ZM540.324 260.51C538.685 262.29 538.685 265.11 540.324 266.742C541.964 268.523 544.56 268.523 546.063 266.742C547.703 264.961 547.703 262.142 546.063 260.51C544.424 258.877 541.827 258.877 540.324 260.51ZM546.61 297.757C548.523 295.679 548.523 292.415 546.61 290.337C544.697 288.26 541.691 288.26 539.778 290.337C537.865 292.415 537.865 295.679 539.778 297.757C541.691 299.835 544.697 299.835 546.61 297.757ZM540.051 449.566C541.828 451.495 544.56 451.495 546.336 449.566C548.113 447.637 548.113 444.669 546.336 442.74C544.56 440.811 541.828 440.811 540.051 442.74C538.275 444.669 538.275 447.637 540.051 449.566ZM540.051 473.161C538.412 474.942 538.412 477.91 540.051 479.839C541.691 481.62 544.424 481.62 546.2 479.839C547.839 478.058 547.839 475.09 546.2 473.161C544.56 471.381 541.828 471.381 540.051 473.161ZM546.063 351.773C544.424 349.992 541.827 349.992 540.324 351.773C538.685 353.554 538.685 356.374 540.324 358.006C541.964 359.787 544.56 359.787 546.063 358.006C547.703 356.374 547.703 353.554 546.063 351.773ZM546.063 327.585C547.566 325.952 547.566 323.133 546.063 321.5C544.56 319.868 541.964 319.868 540.461 321.5C538.958 323.133 538.958 325.952 540.461 327.585C541.964 329.365 544.424 329.365 546.063 327.585ZM546.063 382.194C544.424 380.414 541.827 380.414 540.188 382.194C538.548 383.975 538.548 386.795 540.188 388.575C541.827 390.356 544.424 390.356 546.063 388.575C547.703 386.795 547.703 383.975 546.063 382.194ZM546.2 412.467C544.56 410.686 541.827 410.686 540.188 412.467C538.548 414.248 538.548 417.216 540.188 418.997C541.827 420.777 544.56 420.777 546.2 418.997C547.839 417.216 547.839 414.248 546.2 412.467ZM546.61 510.706C548.523 508.628 548.523 505.215 546.61 503.137C544.697 501.06 541.554 501.06 539.641 503.137C537.728 505.215 537.728 508.628 539.641 510.706C541.554 512.783 544.697 512.783 546.61 510.706ZM560 38.8056C561.64 37.0249 561.64 34.3537 560 32.573C558.36 30.7922 555.901 30.7922 554.261 32.573C552.622 34.3537 552.622 37.0249 554.261 38.8056C555.901 40.438 558.497 40.438 560 38.8056ZM560.41 69.5236C562.186 67.5945 562.186 64.4781 560.41 62.549C558.634 60.6199 555.764 60.6199 553.988 62.549C552.212 64.4781 552.212 67.5945 553.988 69.5236C555.764 71.4528 558.634 71.4528 560.41 69.5236ZM554.261 93.267C552.622 95.0478 552.622 97.8673 554.261 99.6481C555.901 101.429 558.497 101.429 560.137 99.6481C561.776 97.8673 561.776 95.0478 560.137 93.267C558.497 91.6347 555.901 91.6347 554.261 93.267ZM560.547 130.514C562.459 128.437 562.459 125.172 560.547 123.243C558.634 121.166 555.628 121.166 553.851 123.243C551.938 125.321 551.938 128.585 553.851 130.514C555.628 132.592 558.634 132.592 560.547 130.514ZM574.483 54.3872C576.26 52.4581 576.26 49.1933 574.483 47.2642C572.707 45.335 569.701 45.335 567.925 47.2642C566.149 49.1933 566.149 52.4581 567.925 54.3872C569.701 56.4648 572.707 56.4648 574.483 54.3872ZM567.925 84.8084C569.701 86.7376 572.57 86.7376 574.483 84.8084C576.26 82.8793 576.26 79.763 574.483 77.6854C572.707 75.7563 569.838 75.7563 567.925 77.6854C566.149 79.763 566.149 82.8793 567.925 84.8084ZM568.335 108.7C566.832 110.333 566.832 113.152 568.335 114.784C569.838 116.417 572.434 116.417 573.937 114.784C575.44 113.152 575.44 110.333 573.937 108.7C572.434 106.919 569.974 106.919 568.335 108.7ZM574.62 145.948C576.533 143.87 576.533 140.457 574.62 138.379C572.707 136.302 569.564 136.302 567.652 138.379C565.739 140.457 565.739 143.87 567.652 145.948C569.564 148.025 572.707 148.025 574.62 145.948ZM567.925 449.566C569.701 451.495 572.57 451.495 574.347 449.566C576.123 447.637 576.123 444.521 574.347 442.592C572.57 440.663 569.701 440.663 567.925 442.592C566.149 444.521 566.285 447.637 567.925 449.566ZM568.335 473.458C566.695 475.239 566.695 478.058 568.335 479.691C569.974 481.472 572.57 481.472 574.073 479.691C575.713 477.91 575.713 475.09 574.073 473.458C572.434 471.677 569.838 471.677 568.335 473.458ZM567.788 419.442C569.701 421.519 572.707 421.519 574.62 419.442C576.533 417.364 576.533 414.1 574.62 412.022C572.707 409.945 569.701 409.945 567.788 412.022C565.875 414.1 565.875 417.364 567.788 419.442ZM574.073 230.088C572.434 228.308 569.838 228.308 568.198 230.088C566.558 231.869 566.558 234.689 568.198 236.469C569.838 238.25 572.434 238.25 574.073 236.469C575.713 234.689 575.713 231.869 574.073 230.088ZM574.073 206.048C575.713 204.267 575.713 201.448 574.073 199.667C572.434 197.886 569.838 197.886 568.198 199.667C566.558 201.448 566.558 204.267 568.198 206.048C569.838 207.829 572.434 207.829 574.073 206.048ZM568.198 175.775C569.838 177.556 572.57 177.556 574.21 175.775C575.85 173.995 575.85 171.027 574.21 169.246C572.57 167.465 569.838 167.465 568.198 169.246C566.558 171.027 566.558 173.995 568.198 175.775ZM574.21 260.361C572.434 258.432 569.701 258.432 568.061 260.361C566.285 262.29 566.285 265.258 568.061 267.039C569.838 268.968 572.57 268.968 574.21 267.039C575.986 265.258 575.986 262.142 574.21 260.361ZM568.335 358.006C569.974 359.787 572.57 359.787 574.073 358.006C575.713 356.225 575.713 353.406 574.073 351.773C572.434 349.992 569.838 349.992 568.335 351.773C566.695 353.554 566.695 356.374 568.335 358.006ZM568.335 382.194C566.695 383.975 566.695 386.795 568.335 388.427C569.974 390.208 572.57 390.208 574.073 388.427C575.713 386.646 575.713 383.827 574.073 382.194C572.434 380.414 569.838 380.414 568.335 382.194ZM568.198 327.733C569.838 329.514 572.434 329.514 574.073 327.733C575.713 325.952 575.713 323.133 574.073 321.352C572.434 319.571 569.838 319.571 568.198 321.352C566.558 323.133 566.558 325.952 568.198 327.733ZM568.061 297.46C569.838 299.389 572.57 299.389 574.21 297.46C575.986 295.531 575.986 292.563 574.21 290.782C572.434 288.853 569.701 288.853 568.061 290.782C566.422 292.563 566.422 295.679 568.061 297.46ZM574.62 510.706C576.533 508.628 576.533 505.215 574.62 503.137C572.707 501.06 569.564 501.06 567.652 503.137C565.739 505.215 565.739 508.628 567.652 510.706C569.564 512.783 572.707 512.783 574.62 510.706ZM588.284 69.5236C590.06 67.5945 590.06 64.6266 588.284 62.6974C586.507 60.7682 583.775 60.7682 581.998 62.6974C580.222 64.6266 580.222 67.5945 581.998 69.5236C583.775 71.3044 586.507 71.3044 588.284 69.5236ZM582.272 93.4154C580.632 95.1962 580.632 97.8673 582.272 99.6481C583.911 101.429 586.371 101.429 588.01 99.6481C589.65 97.8673 589.65 95.1962 588.01 93.4154C586.507 91.6347 583.911 91.6347 582.272 93.4154ZM588.42 130.514C590.196 128.585 590.196 125.321 588.42 123.391C586.644 121.462 583.638 121.462 581.862 123.391C580.085 125.321 580.085 128.585 581.862 130.514C583.638 132.444 586.644 132.444 588.42 130.514ZM582.135 373.439C583.775 375.22 586.644 375.22 588.284 373.439C589.923 371.658 589.923 368.542 588.284 366.761C586.644 364.98 583.775 364.98 582.135 366.761C580.359 368.69 580.359 371.658 582.135 373.439ZM582.135 397.182C580.495 398.963 580.495 401.931 582.135 403.712C583.775 405.493 586.507 405.493 588.147 403.712C589.786 401.931 589.786 398.963 588.147 397.182C586.507 395.402 583.775 395.402 582.135 397.182ZM588.284 343.018C589.923 341.237 589.923 338.121 588.284 336.34C586.644 334.559 583.775 334.559 582.135 336.34C580.495 338.121 580.495 341.237 582.135 343.018C583.775 344.947 586.507 344.947 588.284 343.018ZM581.998 312.745C583.775 314.674 586.644 314.674 588.284 312.745C590.06 310.816 590.06 307.7 588.284 305.919C586.507 303.99 583.638 303.99 581.998 305.919C580.222 307.848 580.222 310.816 581.998 312.745ZM588.147 245.373C586.507 243.592 583.911 243.592 582.272 245.373C580.632 247.154 580.632 249.973 582.272 251.754C583.911 253.535 586.507 253.535 588.147 251.754C589.65 249.973 589.65 247.154 588.147 245.373ZM588.01 221.185C589.513 219.552 589.513 216.733 588.01 215.1C586.507 213.468 583.911 213.468 582.408 215.1C580.905 216.733 580.905 219.552 582.408 221.185C583.911 222.817 586.371 222.817 588.01 221.185ZM588.147 275.794C586.507 274.014 583.911 274.014 582.272 275.794C580.632 277.575 580.632 280.395 582.272 282.175C583.911 283.956 586.507 283.956 588.147 282.175C589.786 280.395 589.786 277.427 588.147 275.794ZM581.998 191.209C583.775 193.138 586.644 193.138 588.42 191.209C590.196 189.279 590.196 186.163 588.42 184.234C586.644 182.305 583.775 182.305 581.998 184.234C580.222 186.163 580.222 189.279 581.998 191.209ZM588.284 160.787C590.06 158.858 590.06 155.89 588.284 153.961C586.507 152.032 583.775 152.032 581.998 153.961C580.222 155.89 580.222 158.858 581.998 160.787C583.775 162.716 586.644 162.568 588.284 160.787ZM588.42 434.578C590.196 432.649 590.196 429.384 588.42 427.455C586.644 425.526 583.638 425.526 581.862 427.455C580.085 429.384 580.085 432.649 581.862 434.578C583.638 436.507 586.644 436.507 588.42 434.578ZM588.557 465C590.47 462.922 590.47 459.657 588.557 457.728C586.644 455.651 583.638 455.651 581.862 457.728C579.949 459.806 579.949 463.07 581.862 465C583.638 466.929 586.644 466.929 588.557 465ZM582.272 488.595C580.632 490.375 580.632 493.046 582.272 494.827C583.911 496.608 586.371 496.608 588.01 494.827C589.65 493.046 589.65 490.375 588.01 488.595C586.507 486.962 583.911 486.962 582.272 488.595ZM588.557 525.842C590.47 523.764 590.47 520.5 588.557 518.422C586.644 516.345 583.638 516.345 581.725 518.422C579.812 520.5 579.812 523.764 581.725 525.842C583.638 527.919 586.644 527.919 588.557 525.842ZM602.494 84.9568C604.406 82.8793 604.406 79.6146 602.494 77.537C600.581 75.4595 597.575 75.4595 595.662 77.537C593.749 79.6146 593.749 82.8793 595.662 84.9568C597.711 87.0344 600.717 87.0344 602.494 84.9568ZM602.63 115.378C604.543 113.301 604.543 110.036 602.63 107.958C600.717 105.881 597.711 105.881 595.798 107.958C593.886 110.036 593.886 113.301 595.798 115.378C597.575 117.456 600.717 117.456 602.63 115.378ZM596.072 138.676C594.295 140.605 594.295 143.573 596.072 145.503C597.848 147.432 600.581 147.432 602.357 145.503C604.133 143.573 604.133 140.605 602.357 138.676C600.581 136.747 597.711 136.747 596.072 138.676ZM602.63 176.221C604.543 174.143 604.543 170.878 602.63 168.801C600.717 166.723 597.711 166.723 595.798 168.801C593.886 170.878 593.886 174.143 595.798 176.221C597.575 178.298 600.717 178.298 602.63 176.221ZM602.494 290.634C600.717 288.705 597.711 288.705 595.935 290.634C594.159 292.563 594.159 295.828 595.935 297.757C597.711 299.686 600.717 299.686 602.494 297.757C604.27 295.679 604.27 292.563 602.494 290.634ZM602.084 266.891C603.723 265.11 603.723 262.142 602.084 260.361C600.444 258.58 597.711 258.58 596.072 260.361C594.432 262.142 594.432 265.11 596.072 266.891C597.848 268.82 600.444 268.82 602.084 266.891ZM602.22 351.625C600.581 349.844 597.848 349.844 596.208 351.625C594.569 353.406 594.569 356.374 596.208 358.154C597.848 359.935 600.581 359.935 602.22 358.154C603.86 356.374 603.86 353.406 602.22 351.625ZM602.084 327.585C603.723 325.804 603.723 323.133 602.084 321.352C600.444 319.571 597.985 319.571 596.345 321.352C594.705 323.133 594.705 325.804 596.345 327.585C597.848 329.365 600.444 329.365 602.084 327.585ZM602.22 382.046C600.581 380.265 597.848 380.265 596.208 382.046C594.569 383.827 594.569 386.795 596.208 388.575C597.848 390.356 600.581 390.356 602.22 388.575C603.86 386.795 603.86 383.827 602.22 382.046ZM602.494 412.171C600.717 410.241 597.711 410.241 595.798 412.171C594.022 414.1 594.022 417.364 595.798 419.442C597.575 421.519 600.581 421.371 602.494 419.442C604.27 417.364 604.27 414.1 602.494 412.171ZM595.798 236.915C597.711 238.992 600.717 238.992 602.494 236.915C604.406 234.837 604.406 231.572 602.494 229.643C600.581 227.566 597.575 227.566 595.798 229.643C593.886 231.721 593.886 234.985 595.798 236.915ZM602.22 206.197C603.86 204.416 603.86 201.448 602.22 199.667C600.581 197.886 597.848 197.886 596.208 199.667C594.569 201.448 594.569 204.416 596.208 206.197C597.848 207.977 600.444 207.977 602.22 206.197ZM602.63 449.863C604.543 447.786 604.543 444.372 602.63 442.295C600.717 440.217 597.575 440.217 595.662 442.295C593.749 444.372 593.749 447.786 595.662 449.863C597.575 451.941 600.717 451.941 602.63 449.863ZM616.567 100.093C618.48 98.0157 618.48 94.751 616.567 92.8218C614.654 90.7443 611.648 90.7443 609.872 92.8218C607.959 94.8994 607.959 98.1641 609.872 100.093C611.648 102.171 614.654 102.171 616.567 100.093ZM616.02 184.531C614.381 182.75 611.921 182.75 610.282 184.531C608.642 186.311 608.642 188.983 610.282 190.763C611.921 192.544 614.381 192.544 616.02 190.763C617.66 189.131 617.66 186.311 616.02 184.531ZM616.02 160.342C617.523 158.71 617.523 155.89 616.02 154.258C614.517 152.626 611.921 152.626 610.418 154.258C608.915 155.89 608.915 158.71 610.418 160.342C611.921 162.123 614.381 162.123 616.02 160.342ZM610.282 130.069C611.921 131.85 614.517 131.85 616.02 130.069C617.66 128.289 617.66 125.469 616.02 123.837C614.381 122.204 611.785 122.056 610.282 123.837C608.642 125.469 608.642 128.289 610.282 130.069ZM616.43 214.655C614.654 212.726 611.785 212.726 610.008 214.655C608.232 216.584 608.232 219.701 610.008 221.778C611.785 223.707 614.654 223.707 616.43 221.778C618.207 219.701 618.207 216.584 616.43 214.655ZM610.008 245.076C608.232 247.006 608.232 249.973 610.008 251.903C611.785 253.832 614.517 253.832 616.294 251.903C618.07 249.973 618.07 247.006 616.294 245.076C614.517 243.147 611.785 243.147 610.008 245.076ZM616.567 275.349C614.654 273.272 611.785 273.272 609.872 275.349C607.959 277.427 607.959 280.691 609.872 282.621C611.785 284.698 614.654 284.698 616.567 282.621C618.343 280.543 618.343 277.278 616.567 275.349ZM616.567 305.622C614.654 303.544 611.648 303.544 609.872 305.622C607.959 307.7 607.959 310.964 609.872 312.893C611.785 314.971 614.791 314.971 616.567 312.893C618.343 310.964 618.343 307.7 616.567 305.622ZM616.704 343.463C618.617 341.385 618.617 337.972 616.704 335.895C614.791 333.817 611.648 333.817 609.735 335.895C607.822 337.972 607.822 341.385 609.735 343.463C611.648 345.541 614.654 345.541 616.704 343.463ZM630.64 115.378C632.553 113.301 632.553 110.036 630.64 107.958C628.728 105.881 625.722 105.881 623.809 107.958C621.896 110.036 621.896 113.301 623.809 115.378C625.585 117.456 628.728 117.456 630.64 115.378ZM624.082 206.197C625.722 207.977 628.454 207.977 630.094 206.197C631.734 204.416 631.734 201.448 630.094 199.667C628.454 197.886 625.722 197.886 624.082 199.667C622.442 201.448 622.442 204.416 624.082 206.197ZM624.082 230.088C622.442 231.869 622.442 234.837 624.082 236.618C625.722 238.399 628.454 238.399 630.094 236.618C631.734 234.837 631.734 231.869 630.094 230.088C628.454 228.159 625.858 228.159 624.082 230.088ZM624.082 175.924C625.858 177.853 628.591 177.853 630.367 175.924C632.143 173.995 632.143 171.027 630.367 169.098C628.591 167.168 625.858 167.168 624.082 169.098C622.306 171.027 622.306 173.995 624.082 175.924ZM630.094 145.206C631.734 143.425 631.734 140.754 630.094 138.973C628.454 137.192 625.995 137.192 624.355 138.973C622.716 140.754 622.716 143.425 624.355 145.206C625.995 146.986 628.454 146.986 630.094 145.206ZM630.64 267.484C632.553 265.407 632.553 261.994 630.64 259.916C628.728 257.838 625.585 257.838 623.672 259.916C621.759 261.994 621.759 265.407 623.672 267.484C625.585 269.562 628.728 269.562 630.64 267.484ZM644.577 130.514C646.49 128.437 646.49 125.172 644.577 123.243C642.664 121.166 639.658 121.166 637.882 123.243C635.969 125.321 635.969 128.585 637.882 130.514C639.658 132.592 642.664 132.592 644.577 130.514ZM638.155 160.639C639.795 162.42 642.528 162.42 644.304 160.639C645.944 158.858 645.944 155.89 644.304 153.961C642.664 152.18 639.932 152.18 638.155 153.961C636.379 155.742 636.379 158.858 638.155 160.639ZM638.292 184.679C636.789 186.311 636.789 189.131 638.292 190.912C639.795 192.544 642.391 192.544 644.031 190.912C645.534 189.279 645.534 186.46 644.031 184.679C642.391 182.898 639.932 182.898 638.292 184.679ZM644.577 221.778C646.49 219.701 646.49 216.436 644.577 214.358C642.664 212.281 639.658 212.281 637.745 214.358C635.833 216.436 635.833 219.701 637.745 221.778C639.658 223.856 642.664 223.856 644.577 221.778ZM644.304 305.919C642.528 303.99 639.795 303.99 638.155 305.919C636.379 307.848 636.379 310.816 638.155 312.597C639.932 314.526 642.664 314.526 644.304 312.597C645.944 310.816 645.944 307.848 644.304 305.919ZM644.031 282.027C645.67 280.246 645.67 277.427 644.031 275.646C642.391 273.865 639.795 273.865 638.155 275.646C636.516 277.427 636.516 280.246 638.155 282.027C639.795 283.808 642.391 283.808 644.031 282.027ZM644.167 366.761C642.528 364.98 639.795 364.98 638.019 366.761C636.379 368.542 636.379 371.51 638.019 373.439C639.658 375.22 642.391 375.22 644.167 373.439C645.944 371.658 645.944 368.69 644.167 366.761ZM644.167 342.869C645.807 341.089 645.807 338.269 644.167 336.488C642.528 334.708 639.932 334.708 638.292 336.488C636.652 338.269 636.652 341.089 638.292 342.869C639.795 344.65 642.528 344.65 644.167 342.869ZM644.441 397.034C642.664 395.105 639.795 395.105 637.882 397.034C636.106 398.963 636.106 402.08 637.882 404.157C639.658 406.086 642.528 406.086 644.441 404.157C646.217 402.08 646.217 398.963 644.441 397.034ZM637.745 252.199C639.658 254.277 642.664 254.277 644.577 252.199C646.49 250.122 646.49 246.857 644.577 244.78C642.664 242.702 639.658 242.702 637.745 244.78C635.833 246.857 635.833 250.122 637.745 252.199ZM644.577 434.727C646.49 432.649 646.49 429.236 644.577 427.307C642.664 425.229 639.522 425.229 637.745 427.307C635.833 429.384 635.833 432.798 637.745 434.727C639.658 436.804 642.664 436.804 644.577 434.727ZM658.377 145.651C660.154 143.722 660.154 140.605 658.377 138.676C656.601 136.747 653.732 136.747 651.956 138.676C650.179 140.605 650.179 143.722 651.956 145.651C653.732 147.58 656.601 147.58 658.377 145.651ZM652.229 169.394C650.589 171.175 650.589 173.995 652.229 175.775C653.868 177.556 656.465 177.556 658.104 175.775C659.744 173.995 659.744 171.175 658.104 169.394C656.465 167.614 653.868 167.614 652.229 169.394ZM658.514 206.493C660.29 204.416 660.29 201.299 658.514 199.222C656.601 197.144 653.732 197.144 651.819 199.222C650.043 201.151 650.043 204.416 651.819 206.493C653.595 208.571 656.601 208.571 658.514 206.493ZM652.092 229.94C650.316 231.869 650.316 234.837 652.092 236.766C653.868 238.695 656.601 238.695 658.377 236.766C660.154 234.837 660.154 231.869 658.377 229.94C656.601 228.011 653.732 228.011 652.092 229.94ZM658.651 267.484C660.564 265.407 660.564 261.994 658.651 259.916C656.738 257.838 653.595 257.838 651.682 259.916C649.769 261.994 649.769 265.407 651.682 267.484C653.595 269.562 656.738 269.562 658.651 267.484ZM672.178 160.491C673.817 158.71 673.817 155.89 672.178 154.109C670.538 152.329 667.942 152.329 666.302 154.109C664.663 155.89 664.663 158.71 666.302 160.491C667.805 162.271 670.538 162.271 672.178 160.491ZM672.588 191.357C674.5 189.279 674.5 186.015 672.588 184.086C670.675 182.008 667.669 182.008 665.892 184.086C663.979 186.163 663.979 189.428 665.892 191.357C667.669 193.434 670.675 193.434 672.588 191.357ZM686.114 175.627C687.754 173.846 687.754 171.027 686.114 169.246C684.475 167.465 681.879 167.465 680.239 169.246C678.599 171.027 678.599 173.846 680.239 175.627C681.879 177.408 684.475 177.408 686.114 175.627ZM686.114 206.197C687.754 204.416 687.754 201.448 686.114 199.667C684.475 197.886 681.742 197.886 680.102 199.667C678.463 201.448 678.463 204.416 680.102 206.197C681.742 207.977 684.475 207.977 686.114 206.197ZM686.661 237.063C688.574 234.985 688.574 231.572 686.661 229.643C684.748 227.714 681.605 227.566 679.829 229.643C677.916 231.721 677.916 235.134 679.829 237.063C681.605 239.141 684.748 239.141 686.661 237.063ZM700.324 191.209C702.101 189.279 702.101 186.163 700.324 184.234C698.548 182.305 695.679 182.305 693.903 184.234C692.126 186.163 692.126 189.279 693.903 191.209C695.679 193.138 698.548 193.138 700.324 191.209ZM700.598 221.778C702.511 219.701 702.511 216.436 700.598 214.358C698.685 212.281 695.679 212.281 693.766 214.358C691.853 216.436 691.853 219.701 693.766 221.778C695.679 223.856 698.685 223.856 700.598 221.778ZM694.039 343.018C695.679 344.799 698.412 344.799 700.188 343.018C701.828 341.237 701.828 338.269 700.188 336.34C698.548 334.559 695.815 334.559 694.039 336.34C692.4 338.269 692.4 341.237 694.039 343.018ZM694.176 366.91C692.536 368.69 692.536 371.51 694.176 373.291C695.815 375.071 698.412 375.071 700.051 373.291C701.691 371.51 701.691 368.69 700.051 366.91C698.412 365.277 695.815 365.277 694.176 366.91ZM694.176 282.027C695.815 283.808 698.412 283.808 700.051 282.027C701.691 280.246 701.691 277.427 700.051 275.646C698.412 273.865 695.815 273.865 694.176 275.646C692.673 277.575 692.673 280.395 694.176 282.027ZM694.312 306.216C692.673 307.996 692.673 310.667 694.312 312.448C695.952 314.229 698.412 314.229 700.051 312.448C701.691 310.667 701.691 307.996 700.051 306.216C698.412 304.583 695.815 304.583 694.312 306.216ZM694.176 251.754C695.815 253.535 698.412 253.535 700.051 251.754C701.691 249.973 701.691 247.154 700.051 245.373C698.412 243.592 695.815 243.592 694.176 245.373C692.536 247.006 692.536 249.973 694.176 251.754ZM700.598 404.305C702.511 402.228 702.511 398.815 700.598 396.737C698.685 394.66 695.542 394.66 693.629 396.737C691.716 398.815 691.716 402.228 693.629 404.305C695.542 406.383 698.685 406.383 700.598 404.305ZM714.125 206.197C715.764 204.416 715.764 201.596 714.125 199.816C712.485 198.035 709.889 198.035 708.249 199.816C706.61 201.596 706.61 204.416 708.249 206.197C709.752 207.829 712.485 207.829 714.125 206.197ZM714.125 236.618C715.764 234.837 715.764 231.869 714.125 230.088C712.485 228.308 709.752 228.308 708.113 230.088C706.473 231.869 706.473 234.837 708.113 236.618C709.752 238.399 712.485 238.399 714.125 236.618ZM714.535 267.484C716.448 265.407 716.448 261.994 714.535 259.916C712.622 257.838 709.479 257.838 707.703 259.916C705.79 261.994 705.79 265.407 707.703 267.484C709.616 269.562 712.622 269.562 714.535 267.484ZM728.471 221.63C730.248 219.701 730.248 216.436 728.471 214.507C726.695 212.578 723.689 212.578 721.913 214.507C720.137 216.436 720.137 219.701 721.913 221.63C723.689 223.707 726.558 223.707 728.471 221.63ZM728.471 252.199C730.248 250.27 730.248 247.006 728.471 244.928C726.695 242.999 723.689 242.999 721.776 244.928C720 246.857 720 250.122 721.776 252.199C723.689 254.129 726.695 254.129 728.471 252.199ZM722.323 275.794C720.82 277.427 720.82 280.246 722.323 281.879C723.826 283.511 726.422 283.511 727.925 281.879C729.428 280.246 729.428 277.427 727.925 275.794C726.422 274.162 723.826 274.162 722.323 275.794ZM728.608 313.042C730.521 310.964 730.521 307.7 728.608 305.622C726.695 303.544 723.689 303.544 721.776 305.622C719.863 307.7 719.863 310.964 721.776 313.042C723.552 315.119 726.695 315.119 728.608 313.042ZM722.323 336.637C720.82 338.269 720.82 341.089 722.323 342.721C723.826 344.353 726.422 344.353 727.925 342.721C729.428 341.089 729.428 338.269 727.925 336.637C726.422 335.004 723.826 335.004 722.323 336.637ZM728.608 373.884C730.521 371.807 730.521 368.394 728.608 366.316C726.695 364.239 723.552 364.239 721.64 366.316C719.727 368.394 719.727 371.807 721.64 373.884C723.552 375.962 726.695 375.962 728.608 373.884ZM741.998 236.469C743.638 234.689 743.638 231.869 741.998 230.088C740.359 228.308 737.763 228.308 736.123 230.088C734.483 231.869 734.483 234.689 736.123 236.469C737.763 238.25 740.495 238.25 741.998 236.469ZM742.408 267.336C744.184 265.407 744.184 262.142 742.408 260.213C740.632 258.284 737.626 258.284 735.85 260.213C734.073 262.142 734.073 265.407 735.85 267.336C737.626 269.265 740.632 269.265 742.408 267.336ZM756.208 251.903C757.985 249.973 757.985 247.006 756.208 245.076C754.432 243.147 751.699 243.147 749.923 245.076C748.147 247.006 748.147 249.973 749.923 251.903C751.699 253.832 754.569 253.832 756.208 251.903ZM756.618 282.621C758.531 280.543 758.531 277.13 756.618 275.052C754.705 272.975 751.563 272.975 749.65 275.052C747.737 277.13 747.737 280.543 749.65 282.621C751.563 284.698 754.705 284.698 756.618 282.621ZM770.282 267.039C771.921 265.258 771.921 262.142 770.282 260.361C768.642 258.58 765.773 258.58 764.133 260.361C762.494 262.142 762.494 265.258 764.133 267.039C765.773 268.968 768.506 268.968 770.282 267.039ZM770.555 297.757C772.468 295.679 772.468 292.415 770.555 290.337C768.642 288.26 765.636 288.26 763.723 290.337C761.81 292.415 761.81 295.679 763.723 297.757C765.636 299.835 768.642 299.835 770.555 297.757ZM784.628 282.621C786.541 280.543 786.541 277.13 784.628 275.052C782.716 272.975 779.573 272.975 777.66 275.052C775.747 277.13 775.747 280.543 777.66 282.621C779.573 284.698 782.716 284.698 784.628 282.621ZM798.565 290.486C796.652 288.408 793.646 288.408 791.734 290.486C789.821 292.563 789.821 295.828 791.734 297.905C793.646 299.983 796.652 299.983 798.565 297.905C800.478 295.828 800.478 292.415 798.565 290.486Z" fill="#BF1466"/>
</svg>
