<svg width="534" height="488" viewBox="0 0 534 488" fill="none" xmlns="http://www.w3.org/2000/svg">
<g clip-path="url(#clip0)">
<path d="M135.118 373.173L137.032 373.852L234.47 96.6242L429.912 317.614L132.36 375.841L132.75 377.831L134.608 378.695C134.608 378.695 135.174 377.478 135.759 376.269C136.056 375.665 136.354 375.06 136.577 374.623C136.679 374.409 136.772 374.233 136.827 374.14L136.66 374.038L136.818 374.14L136.651 374.038L136.809 374.14L135.546 373.331L136.707 374.261L136.809 374.112L135.546 373.303L136.707 374.233L135.221 372.996L136.456 374.475L136.707 374.233L135.221 372.996L136.456 374.475L135.23 372.959L136.159 374.744C136.289 374.675 136.41 374.591 136.521 374.493L135.23 372.959L136.159 374.744L135.23 372.95V374.967C135.552 374.963 135.87 374.887 136.159 374.744L135.23 372.95L134.022 374.577C134.372 374.836 134.795 374.977 135.23 374.977V372.95L134.022 374.577L135.221 372.95L133.27 373.47C133.388 373.914 133.653 374.304 134.022 374.577L135.221 372.95L133.27 373.47L135.202 372.959H133.205C133.203 373.132 133.225 373.304 133.27 373.47L135.202 372.959H135.091L133.233 372.578C133.218 372.705 133.218 372.833 133.233 372.959H135.091L133.233 372.578L134.394 372.82L133.261 372.466V372.578L134.422 372.82L133.289 372.466V372.513L137.115 373.861L135.202 373.182L137.115 373.852L137.199 373.591L137.255 373.405C137.279 373.258 137.295 373.109 137.301 372.959C137.295 372.672 137.235 372.388 137.125 372.122C136.977 371.804 136.754 371.526 136.474 371.314C136.115 371.042 135.68 370.893 135.23 370.886C134.928 370.883 134.629 370.95 134.357 371.081C134.143 371.174 133.95 371.31 133.79 371.481L133.53 371.788C133.407 371.965 133.299 372.151 133.205 372.346C132.861 372.987 132.276 374.112 131.84 375.135L130.967 376.994L129.258 380.62L437.686 320.189L232.984 88.6938L133.205 372.504L137.032 373.842L135.118 373.173Z" fill="#1D1D1B"/>
<path d="M224.132 413.745L224.875 413.615L175.994 121.614L457.896 222.022L223.844 418.375L224.337 418.96L225.098 418.905C225.098 418.905 225.033 417.91 224.968 416.776C224.903 415.641 224.838 414.34 224.838 413.81V413.652H224.495L224.829 413.726V413.652H224.485L224.82 413.726L224.132 413.568L224.755 413.894L224.82 413.726L224.132 413.568L224.755 413.894L224.095 413.55L224.587 414.107L224.755 413.894L224.095 413.55L224.587 414.107L224.086 413.54V414.293C224.271 414.297 224.45 414.23 224.587 414.107L224.086 413.54L223.51 414.024C223.578 414.111 223.665 414.181 223.765 414.228C223.866 414.275 223.975 414.297 224.086 414.293V413.54L223.51 414.024L224.039 413.587L223.389 413.81L223.51 414.024L224.039 413.587L223.389 413.81L223.714 413.698L223.38 413.782L223.705 413.67L223.371 413.754V413.875L224.866 413.615L224.123 413.745L224.866 413.615V413.373L224.81 413.206L224.699 413.029C224.627 412.941 224.536 412.87 224.433 412.822C224.33 412.774 224.218 412.749 224.104 412.75C223.915 412.746 223.732 412.816 223.594 412.945L223.38 413.271C223.348 413.37 223.329 413.473 223.324 413.577V413.819C223.324 415.037 223.575 419.007 223.575 419.016L223.677 420.513L460.905 221.492L174.062 119.309L223.38 413.866L224.875 413.615L224.132 413.745Z" fill="#1D1D1B"/>
<path d="M227.913 392.325H228.163L184.576 131.953L436.609 221.734L227.903 396.778L228.071 396.973H228.321C228.321 396.973 228.089 393.403 228.098 392.409V392.223L227.903 392.176L228.08 392.269V392.223L227.885 392.176L228.061 392.269L227.838 392.158V392.399L228.108 392.269L227.885 392.158L227.699 392.316L227.885 392.409V392.158L227.699 392.316L227.848 392.195L227.662 392.26V392.316L227.81 392.195L227.625 392.26V392.409L228.126 392.325H227.875H228.126V392.139V392.065V391.999L227.922 391.897L227.699 392.046L227.653 392.232V392.427C227.653 393.468 227.875 397.02 227.875 397.02V397.522L437.612 221.539L183.935 131.172L227.662 392.418L228.163 392.334L227.913 392.325Z" fill="#1D1D1B"/>
<path d="M102.323 293.72L102.834 294.288L323.771 97.4792L388.832 389.833L98.1994 295.933L97.9672 296.658L98.4037 297.281C98.4037 297.281 99.4811 296.5 100.577 295.729L102.091 294.669L102.602 294.334L102.732 294.26L102.555 293.888L102.695 294.278L102.518 293.906L102.658 294.297L102.416 293.637V294.334H102.658L102.416 293.674V293.618L101.97 294.232C102.099 294.328 102.256 294.377 102.416 294.371V293.618L101.97 294.232L102.416 293.618H101.654C101.657 293.738 101.687 293.855 101.742 293.961C101.797 294.068 101.875 294.16 101.97 294.232L102.416 293.618L101.757 293.283C101.705 293.388 101.677 293.502 101.673 293.618H102.416L101.757 293.283L102.323 293.572L101.84 293.153L101.757 293.283L102.323 293.572L101.84 293.153L101.766 293.218L102.778 294.353L102.267 293.786L102.778 294.353L102.945 294.195L103.038 294.083L103.113 293.962C103.168 293.853 103.196 293.732 103.196 293.609C103.196 293.489 103.167 293.371 103.112 293.264C103.057 293.158 102.978 293.066 102.88 292.995C102.754 292.895 102.596 292.842 102.435 292.847C102.32 292.842 102.205 292.864 102.1 292.912L101.673 293.163C100.577 293.869 97.5028 296.082 97.5028 296.091L96.2861 296.965L390.931 392.092L324.7 94.6157L101.794 293.163L102.806 294.297L102.323 293.72Z" fill="#1D1D1B"/>
<path d="M82.2901 330.22L82.4758 330.388L314.298 70.7223L429.857 404.643L77.6647 333.986L77.609 334.237L77.7855 334.423L80.1167 332.312C80.7018 331.792 81.2963 331.262 81.7606 330.871L82.3179 330.397L82.4851 330.276L82.3922 330.109V330.295H82.4851L82.3922 330.127V329.979L82.2157 330.155L82.3922 330.23V329.979L82.2157 330.155L82.3922 329.979H82.1414L82.2157 330.155L82.3922 329.979H82.3458L82.1693 329.876V329.979H82.3736L82.1972 329.876L82.0671 330.034L82.4387 330.369L82.2529 330.202L82.4387 330.369L82.5873 330.202V330.137L82.6337 329.979L82.5501 329.793L82.3736 329.718L82.2157 329.765C81.8892 330.008 81.5789 330.272 81.287 330.555C79.8752 331.773 77.4326 334.004 77.4326 334.004L77.061 334.339L430.628 405.284L314.484 69.7461L82.095 330.062L82.4665 330.397L82.2901 330.22Z" fill="#1D1D1B"/>
<path d="M68.9897 339.666L69.2219 339.387L69.3891 339.136L69.5284 338.857C69.6368 338.612 69.6906 338.345 69.6863 338.077C69.6875 337.849 69.6498 337.622 69.5748 337.407C69.4064 336.94 69.0771 336.547 68.6461 336.301C68.3406 336.127 67.9945 336.037 67.643 336.04C67.3854 336.036 67.1295 336.083 66.8907 336.18C66.7523 336.237 66.6187 336.306 66.4913 336.384C66.2405 336.552 66.1198 336.663 65.8969 336.831C65.2096 337.407 64.0393 338.448 62.9991 339.378L61.1415 341.089L58.1416 343.794L444.03 421.238L317.391 55.3359L65.9619 336.961L68.9897 339.666L67.4758 338.346L68.9804 339.694L315.812 63.1547L437.9 415.865L62.8784 340.605L62.479 342.595L63.8443 344.092L66.3334 341.842L68.0702 340.317L68.6275 339.852L68.6925 339.796L68.0424 338.867L68.5996 339.843L68.6925 339.787L68.0424 338.857L68.5996 339.834L67.6708 338.262L68.3674 339.936L68.5718 339.834L67.643 338.262L68.3396 339.936L67.578 338.077V340.057C67.8395 340.061 68.099 340.011 68.3396 339.908L67.578 338.049L66.9743 339.982C67.17 340.041 67.3736 340.07 67.578 340.066V338.049L66.9743 339.982L67.578 338.049L65.869 339.127C66.1244 339.534 66.5161 339.838 66.9743 339.982L67.578 338.049L65.869 339.127L67.578 338.049H65.5532C65.5533 338.431 65.6629 338.805 65.869 339.127L67.578 338.049L65.7204 337.286C65.6206 337.528 65.5701 337.787 65.5718 338.049H67.5687L65.7111 337.286L67.4294 337.993L65.8876 336.952C65.8225 337.06 65.7636 337.172 65.7111 337.286L67.4294 337.993L65.8876 336.952L66.6956 337.5L65.9433 336.877L65.8876 336.952L66.6956 337.5L65.9433 336.877L65.8969 336.942L68.9154 339.638" fill="#1D1D1B"/>
<path d="M83.8407 328.119L83.4785 328.519L83.7479 328.984L84.1008 328.584L83.8407 328.119ZM87.8252 336.04L88.1596 336.626L88.819 336.765L88.4846 336.18L87.8252 336.04ZM426.829 394.435L426.494 395.02L426.708 395.653L427.042 395.067L426.829 394.435ZM421.841 403.081L421.572 403.546L422.101 403.648L422.361 403.183L421.841 403.081Z" fill="#1D1D1B"/>
<path d="M62.0698 340.205L61.689 340.549L64.2524 345.002L64.9118 345.132L62.0698 340.205ZM442.58 416.97L440.537 420.513L441.057 420.624L442.794 417.612L442.58 416.97Z" fill="#1D1D1B"/>
<path d="M80.7567 422.14L83.4223 423.069L219.024 37.3273L490.923 344.779L76.9673 425.84L77.506 428.629L80.0601 429.828C80.0601 429.828 80.8589 428.136 81.6762 426.454C82.0756 425.617 82.4935 424.771 82.8 424.167C82.9486 423.869 83.0786 423.618 83.1529 423.497V423.432L82.9207 423.293L83.1436 423.441L82.9115 423.302L83.1344 423.451L81.3604 422.307L82.9672 423.637L83.1158 423.432L81.3604 422.307L82.9672 423.637L80.896 421.926L82.6235 423.981L82.9672 423.637L80.896 421.926L82.6235 423.981L80.831 421.852L82.122 424.325C82.3005 424.227 82.4686 424.112 82.6235 423.981L80.831 421.852L82.122 424.325L80.8217 421.824V424.613C81.2738 424.61 81.719 424.502 82.122 424.297L80.8217 421.796L79.1499 424.064C79.6346 424.422 80.2197 424.617 80.8217 424.622V421.833L79.1499 424.101L80.8217 421.842L78.1004 422.567C78.2647 423.184 78.6351 423.725 79.1499 424.101L80.8217 421.842L78.1004 422.567L80.7938 421.852H78.0075C78.0142 422.093 78.0454 422.333 78.1004 422.567L80.7938 421.852H80.636L78.0632 421.312C78.0301 421.49 78.0115 421.671 78.0075 421.852H80.636L78.0632 421.312L79.6793 421.647L78.1004 421.164V421.312L79.7165 421.647L78.1375 421.164V421.229L83.4594 423.088L80.7938 422.158L83.4594 423.088L83.5802 422.716L83.6452 422.456C83.6844 422.254 83.7061 422.048 83.7102 421.842C83.711 421.441 83.6255 421.045 83.4594 420.68C83.3105 420.331 83.0921 420.016 82.8174 419.755C82.5428 419.493 82.2177 419.291 81.8621 419.159C81.5065 419.028 81.1279 418.97 80.7494 418.991C80.3709 419.011 80.0004 419.108 79.6607 419.276C79.3723 419.415 79.1087 419.6 78.8806 419.825L78.509 420.262C78.3462 420.51 78.1974 420.768 78.0632 421.033C77.5803 421.963 76.828 423.488 76.2057 424.873C75.5834 426.258 74.9983 427.42 74.9983 427.42L72.6206 432.469L501.715 348.442L216.841 26.4033L78.1004 421.201L83.4223 423.06L80.7567 422.14Z" fill="#1D1D1B"/>
<path d="M204.591 478.582L205.631 478.406L137.617 72.1263L529.811 211.907L204.145 485.034L204.823 485.843L205.882 485.778C205.882 485.778 205.798 484.393 205.705 482.812C205.613 481.232 205.529 479.428 205.529 478.685V478.443H205.046L205.51 478.554V478.48H205.027L205.492 478.592L204.563 478.378L205.427 478.824L205.51 478.592L204.582 478.378L205.445 478.824L204.517 478.341L205.204 479.121L205.436 478.824L204.507 478.341L205.195 479.121L204.498 478.331V479.391C204.755 479.387 205.002 479.292 205.195 479.121L204.498 478.331L203.69 479.001C203.788 479.12 203.912 479.216 204.051 479.282C204.191 479.347 204.344 479.382 204.498 479.382V478.266L203.69 478.936L204.424 478.322L203.495 478.638L203.662 478.936L204.396 478.322L203.467 478.638L203.922 478.48L203.448 478.601L203.904 478.443L203.43 478.564V478.722L205.51 478.368L204.47 478.545L205.51 478.368L205.445 478.024L205.362 477.801L205.204 477.55C205.106 477.428 204.981 477.329 204.84 477.261C204.698 477.194 204.543 477.159 204.387 477.16C204.124 477.161 203.87 477.257 203.671 477.429L203.374 477.894C203.329 478.033 203.304 478.177 203.3 478.322V478.731C203.3 480.423 203.662 485.946 203.662 485.964L203.792 488.047L534 211.117L134.933 68.9561L203.551 478.731L205.631 478.378L204.591 478.582Z" fill="#1D1D1B"/>
<path d="M209.857 448.785L210.201 448.729L149.561 86.5271L500.239 211.432L209.885 455.014L210.117 455.284H210.47C210.47 455.284 210.154 450.31 210.154 448.925V448.655L209.876 448.59L210.127 448.72V448.655L209.848 448.59L210.099 448.72L209.792 448.562V448.906L210.099 448.72L209.792 448.562L209.523 448.776L209.792 448.906V448.562L209.523 448.776L209.727 448.608L209.476 448.701L209.523 448.776L209.727 448.608L209.476 448.701L209.523 448.906L210.21 448.785L209.866 448.841L210.21 448.785L210.164 448.534V448.423L210.108 448.33L209.829 448.199L209.504 448.395L209.449 448.655V448.925C209.449 450.375 209.764 455.321 209.764 455.321L209.811 456.018L501.632 211.237L148.669 85.4673L209.532 448.85L210.219 448.729L209.857 448.785Z" fill="#1D1D1B"/>
<path d="M35.1353 311.617L35.8412 312.407L343.275 38.5826L433.803 445.317L29.4419 314.676L29.1169 315.68L29.7391 316.535L32.7484 314.388C33.51 313.848 34.2809 313.309 34.866 312.919C35.1539 312.714 35.4047 312.556 35.5719 312.445L35.7483 312.342L35.4883 311.831L35.6926 312.361H35.7483L35.4883 311.85L35.6926 312.38L35.349 311.45V312.426L35.6926 312.361L35.349 311.431V311.385L34.736 312.231C34.9143 312.361 35.1284 312.432 35.349 312.435V311.385L34.736 312.231L35.349 311.385H34.2994C34.3026 311.55 34.3437 311.712 34.4194 311.859C34.495 312.005 34.6034 312.133 34.736 312.231L35.349 311.385L34.4202 310.911C34.3474 311.058 34.3093 311.22 34.3087 311.385H35.3397L34.4109 310.911L35.2003 311.31L34.5223 310.734L34.4109 310.911L35.2003 311.31L34.5223 310.734L34.4202 310.827L35.8319 312.407L35.126 311.617L35.8319 312.407L36.0641 312.184L36.1941 312.026L36.2963 311.868C36.3745 311.716 36.4158 311.547 36.417 311.375C36.416 311.207 36.376 311.042 36.3003 310.892C36.2245 310.742 36.1151 310.611 35.9805 310.511C35.798 310.375 35.5761 310.304 35.349 310.306C35.1925 310.306 35.0377 310.338 34.8938 310.399L34.2994 310.743C32.767 311.729 28.4946 314.815 28.4853 314.825L26.8042 316.033L436.655 448.469L344.539 34.6128L34.4295 310.818L35.8505 312.407L35.1353 311.617Z" fill="#1D1D1B"/>
<path d="M7.21651 362.388L7.48586 362.621L329.994 1.36666L490.803 465.92L0.826525 367.585L0.752236 367.929L0.993712 368.189L4.27229 365.307C5.08961 364.573 5.91623 363.848 6.55709 363.299C6.87287 363.02 7.14221 362.797 7.33726 362.639L7.56945 362.472H7.61589L7.48586 362.249V362.5H7.61589L7.48586 362.277V362.184L7.25367 362.435L7.48586 362.528V362.184L7.25367 362.435L7.48586 362.184H7.14221L7.25367 362.435L7.48586 362.184H7.42084L7.17937 362.044V362.184H7.45799L7.21651 362.044L7.03076 362.258L7.56015 362.732L7.29081 362.5L7.56015 362.732L7.7552 362.5L7.82022 362.397L7.88523 362.184L7.77378 361.923L7.52301 361.821L7.30939 361.886C6.83452 362.226 6.37873 362.593 5.94409 362.983C3.98437 364.684 0.594331 367.78 0.594331 367.78L0.0742188 368.245L491.88 466.859L330.273 0L6.95645 362.146L7.48586 362.621L7.21651 362.388Z" fill="#1D1D1B"/>
<path d="M15.4179 371.23L16.3467 371.416L15.873 370.607L14.9443 370.421L15.4179 371.23ZM8.9165 359.952L9.28801 360.594L9.78026 360.045L9.41804 359.404L8.9165 359.952Z" fill="#1D1D1B"/>
</g>
<defs>
<clipPath id="clip0">
<rect width="534" height="488" fill="white"/>
</clipPath>
</defs>
</svg>
