<svg width="382" height="488" viewBox="0 0 382 488" fill="none" xmlns="http://www.w3.org/2000/svg">
<g clip-path="url(#clip0)">
<path d="M135.118 373.172L137.032 373.851L234.469 96.6237L429.912 317.614L132.36 375.841L132.75 377.83L134.607 378.695C134.607 378.695 135.174 377.477 135.759 376.268C136.056 375.664 136.354 375.06 136.576 374.623C136.679 374.409 136.771 374.232 136.827 374.139L136.66 374.037L136.818 374.139L136.651 374.037L136.809 374.139L135.545 373.331L136.706 374.26L136.809 374.112L135.545 373.303L136.706 374.232L135.22 372.996L136.456 374.474L136.706 374.232L135.22 372.996L136.456 374.474L135.23 372.959L136.158 374.744C136.289 374.675 136.41 374.59 136.521 374.493L135.23 372.959L136.158 374.744L135.23 372.949V374.967C135.552 374.963 135.869 374.887 136.158 374.744L135.23 372.949L134.022 374.576C134.371 374.836 134.795 374.976 135.23 374.976V372.949L134.022 374.576L135.22 372.949L133.27 373.47C133.388 373.914 133.653 374.304 134.022 374.576L135.22 372.949L133.27 373.47L135.202 372.959H133.205C133.203 373.131 133.225 373.303 133.27 373.47L135.202 372.959H135.09L133.233 372.578C133.218 372.704 133.218 372.832 133.233 372.959H135.09L133.233 372.578L134.394 372.819L133.261 372.466V372.578L134.422 372.819L133.289 372.466V372.512L137.115 373.861L135.202 373.182L137.115 373.851L137.199 373.591L137.254 373.405C137.279 373.257 137.295 373.108 137.301 372.959C137.295 372.671 137.235 372.387 137.124 372.122C136.977 371.803 136.754 371.525 136.474 371.313C136.115 371.042 135.679 370.892 135.23 370.885C134.928 370.883 134.629 370.95 134.357 371.081C134.143 371.174 133.95 371.31 133.79 371.48L133.53 371.787C133.407 371.964 133.298 372.151 133.205 372.345C132.861 372.987 132.276 374.112 131.84 375.134L130.967 376.994L129.258 380.619L437.686 320.189L232.983 88.6934L133.205 372.503L137.032 373.842L135.118 373.172Z" fill="#1D1D1B"/>
<path d="M224.132 413.745L224.875 413.614L175.994 121.614L457.896 222.022L223.845 418.374L224.337 418.96L225.098 418.904C225.098 418.904 225.033 417.91 224.968 416.775C224.903 415.641 224.838 414.34 224.838 413.81V413.652H224.495L224.829 413.726V413.652H224.485L224.82 413.726L224.132 413.568L224.755 413.893L224.82 413.726L224.132 413.568L224.755 413.893L224.095 413.549L224.588 414.107L224.755 413.893L224.095 413.549L224.588 414.107L224.086 413.54V414.293C224.271 414.296 224.45 414.23 224.588 414.107L224.086 413.54L223.51 414.023C223.578 414.111 223.665 414.181 223.766 414.228C223.866 414.275 223.976 414.297 224.086 414.293V413.54L223.51 414.023L224.04 413.587L223.389 413.81L223.51 414.023L224.04 413.587L223.389 413.81L223.715 413.698L223.38 413.782L223.705 413.67L223.371 413.754V413.875L224.866 413.614L224.123 413.745L224.866 413.614V413.373L224.81 413.205L224.699 413.029C224.627 412.941 224.536 412.87 224.433 412.822C224.331 412.774 224.218 412.749 224.105 412.75C223.915 412.746 223.732 412.816 223.594 412.945L223.38 413.27C223.348 413.37 223.329 413.473 223.324 413.577V413.819C223.324 415.037 223.575 419.007 223.575 419.016L223.677 420.513L460.905 221.492L174.062 119.308L223.38 413.865L224.875 413.614L224.132 413.745Z" fill="#1D1D1B"/>
<path d="M227.912 392.324H228.163L184.576 131.952L436.608 221.734L227.903 396.778L228.07 396.973H228.321C228.321 396.973 228.089 393.403 228.098 392.408V392.222L227.903 392.176L228.08 392.269V392.222L227.885 392.176L228.061 392.269L227.838 392.157V392.399L228.107 392.269L227.885 392.157L227.699 392.315L227.885 392.408V392.157L227.699 392.315L227.847 392.194L227.662 392.259V392.315L227.81 392.194L227.624 392.259V392.408L228.126 392.324H227.875H228.126V392.138V392.064V391.999L227.922 391.897L227.699 392.046L227.652 392.231V392.427C227.652 393.468 227.875 397.019 227.875 397.019V397.521L437.612 221.538L183.935 131.171L227.662 392.417L228.163 392.334L227.912 392.324Z" fill="#1D1D1B"/>
<path d="M102.323 293.72L102.834 294.287L323.771 97.479L388.832 389.833L98.1995 295.933L97.9673 296.658L98.4039 297.281C98.4039 297.281 99.4812 296.5 100.577 295.728L102.091 294.669L102.602 294.334L102.732 294.259L102.555 293.888L102.695 294.278L102.518 293.906L102.658 294.297L102.416 293.637V294.334H102.658L102.416 293.674V293.618L101.97 294.232C102.099 294.327 102.256 294.377 102.416 294.371V293.618L101.97 294.232L102.416 293.618H101.655C101.657 293.737 101.687 293.855 101.742 293.961C101.797 294.067 101.875 294.16 101.97 294.232L102.416 293.618L101.757 293.283C101.705 293.387 101.677 293.502 101.673 293.618H102.416L101.757 293.283L102.323 293.571L101.84 293.153L101.757 293.283L102.323 293.571L101.84 293.153L101.766 293.218L102.778 294.352L102.268 293.785L102.778 294.352L102.946 294.194L103.038 294.083L103.113 293.962C103.168 293.852 103.197 293.731 103.196 293.609C103.196 293.489 103.167 293.371 103.112 293.264C103.057 293.157 102.978 293.065 102.881 292.995C102.754 292.895 102.596 292.842 102.435 292.846C102.32 292.842 102.205 292.864 102.1 292.911L101.673 293.162C100.577 293.869 97.5029 296.082 97.5029 296.091L96.2863 296.965L390.931 392.092L324.7 94.6155L101.794 293.162L102.806 294.297L102.323 293.72Z" fill="#1D1D1B"/>
<path d="M82.2897 330.22L82.4754 330.388L314.298 70.7223L429.856 404.643L77.6644 333.986L77.6087 334.237L77.7851 334.423L80.1164 332.312C80.7015 331.792 81.2959 331.262 81.7603 330.871L82.3175 330.397L82.4847 330.276L82.3919 330.109V330.295H82.4847L82.3919 330.127V329.979L82.2154 330.155L82.3919 330.23V329.979L82.2154 330.155L82.3919 329.979H82.1411L82.2154 330.155L82.3919 329.979H82.3454L82.1689 329.876V329.979H82.3733L82.1968 329.876L82.0668 330.034L82.4383 330.369L82.2525 330.202L82.4383 330.369L82.5869 330.202V330.137L82.6333 329.979L82.5497 329.793L82.3733 329.718L82.2154 329.765C81.8888 330.008 81.5786 330.272 81.2866 330.555C79.8749 331.773 77.4322 334.004 77.4322 334.004L77.0607 334.339L430.627 405.284L314.484 69.7461L82.0946 330.062L82.4662 330.397L82.2897 330.22Z" fill="#1D1D1B"/>
<path d="M68.9896 339.666L69.2218 339.387L69.389 339.136L69.5283 338.857C69.6367 338.611 69.6905 338.345 69.6862 338.076C69.6874 337.848 69.6497 337.622 69.5747 337.407C69.4062 336.939 69.077 336.547 68.6459 336.301C68.3405 336.127 67.9943 336.037 67.6429 336.04C67.3853 336.036 67.1294 336.083 66.8906 336.18C66.7522 336.237 66.6186 336.305 66.4912 336.384C66.2404 336.552 66.1197 336.663 65.8968 336.831C65.2095 337.407 64.0392 338.448 62.999 339.378L61.1414 341.089L58.1415 343.794L444.029 421.238L317.391 55.3357L65.9618 336.961L68.9896 339.666L67.4757 338.346L68.9803 339.694L315.812 63.1545L437.9 415.864L62.8782 340.605L62.4789 342.595L63.8442 344.091L66.3333 341.842L68.0701 340.317L68.6274 339.852L68.6924 339.796L68.0422 338.867L68.5995 339.843L68.6924 339.787L68.0422 338.857L68.5995 339.833L67.6707 338.262L68.3673 339.936L68.5716 339.833L67.6429 338.262L68.3394 339.936L67.5779 338.076V340.057C67.8393 340.061 68.0989 340.01 68.3394 339.908L67.5779 338.048L66.9741 339.982C67.1698 340.041 67.3735 340.069 67.5779 340.066V338.048L66.9741 339.982L67.5779 338.048L65.8689 339.127C66.1243 339.534 66.516 339.837 66.9741 339.982L67.5779 338.048L65.8689 339.127L67.5779 338.048H65.5531C65.5532 338.431 65.6628 338.805 65.8689 339.127L67.5779 338.048L65.7203 337.286C65.6205 337.528 65.57 337.787 65.5717 338.048H67.5686L65.711 337.286L67.4292 337.993L65.8875 336.951C65.8224 337.06 65.7635 337.171 65.711 337.286L67.4292 337.993L65.8875 336.951L66.6955 337.5L65.9432 336.877L65.8875 336.951L66.6955 337.5L65.9432 336.877L65.8968 336.942L68.9153 339.638" fill="#1D1D1B"/>
<path d="M83.8405 328.119L83.4783 328.519L83.7476 328.984L84.1005 328.584L83.8405 328.119ZM87.825 336.04L88.1593 336.626L88.8187 336.765L88.4844 336.18L87.825 336.04ZM426.828 394.435L426.494 395.02L426.708 395.653L427.042 395.067L426.828 394.435ZM421.841 403.081L421.571 403.546L422.101 403.648L422.361 403.183L421.841 403.081Z" fill="#1D1D1B"/>
<path d="M62.0699 340.205L61.6891 340.549L64.2525 345.003L64.9119 345.133L62.0699 340.205ZM442.58 416.971L440.537 420.513L441.057 420.624L442.794 417.612L442.58 416.971Z" fill="#1D1D1B"/>
<path d="M80.7569 422.14L83.4225 423.07L219.024 37.3275L490.923 344.78L76.9675 425.84L77.5062 428.629L80.0604 429.829C80.0604 429.829 80.8591 428.137 81.6764 426.454C82.0758 425.617 82.4938 424.771 82.8002 424.167C82.9489 423.869 83.0789 423.618 83.1532 423.497V423.432L82.921 423.293L83.1439 423.442L82.9117 423.302L83.1346 423.451L81.3606 422.307L82.9674 423.637L83.116 423.432L81.3606 422.307L82.9674 423.637L80.8963 421.926L82.6238 423.981L82.9674 423.637L80.8963 421.926L82.6238 423.981L80.8312 421.852L82.1222 424.325C82.3008 424.228 82.4688 424.112 82.6238 423.981L80.8312 421.852L82.1222 424.325L80.8219 421.824V424.613C81.274 424.61 81.7193 424.502 82.1222 424.297L80.8219 421.796L79.1501 424.064C79.6349 424.422 80.2199 424.617 80.8219 424.622V421.833L79.1501 424.102L80.8219 421.842L78.1006 422.568C78.2649 423.184 78.6353 423.726 79.1501 424.102L80.8219 421.842L78.1006 422.568L80.7941 421.852H78.0078C78.0145 422.093 78.0456 422.333 78.1006 422.568L80.7941 421.852H80.6362L78.0635 421.313C78.0304 421.491 78.0117 421.671 78.0078 421.852H80.6362L78.0635 421.313L79.6796 421.647L78.1006 421.164V421.313L79.7167 421.647L78.1378 421.164V421.229L83.4597 423.088L80.7941 422.159L83.4597 423.088L83.5804 422.716L83.6454 422.456C83.6846 422.254 83.7064 422.049 83.7104 421.842C83.7113 421.442 83.6257 421.045 83.4597 420.68C83.3108 420.331 83.0923 420.017 82.8177 419.755C82.543 419.494 82.2179 419.291 81.8624 419.16C81.5068 419.028 81.1281 418.971 80.7496 418.991C80.3711 419.011 80.0007 419.108 79.661 419.277C79.3725 419.415 79.1089 419.6 78.8808 419.825L78.5093 420.262C78.3464 420.511 78.1976 420.768 78.0635 421.034C77.5805 421.963 76.8282 423.488 76.2059 424.873C75.5836 426.259 74.9985 427.421 74.9985 427.421L72.6208 432.469L501.716 348.443L216.841 26.4036L78.1006 421.201L83.4225 423.06L80.7569 422.14Z" fill="#1D1D1B"/>
<path d="M204.591 478.582L205.631 478.406L137.617 72.1263L529.811 211.907L204.145 485.034L204.823 485.843L205.882 485.778C205.882 485.778 205.798 484.393 205.706 482.812C205.613 481.232 205.529 479.428 205.529 478.685V478.443H205.046L205.51 478.554V478.48H205.027L205.492 478.592L204.563 478.378L205.427 478.824L205.51 478.592L204.582 478.378L205.445 478.824L204.517 478.341L205.204 479.121L205.436 478.824L204.507 478.341L205.195 479.121L204.498 478.331V479.391C204.755 479.387 205.002 479.292 205.195 479.121L204.498 478.331L203.69 479.001C203.788 479.12 203.912 479.216 204.052 479.282C204.191 479.347 204.344 479.382 204.498 479.382V478.266L203.69 478.936L204.424 478.322L203.495 478.638L203.662 478.936L204.396 478.322L203.467 478.638L203.922 478.48L203.449 478.601L203.904 478.443L203.43 478.564V478.722L205.51 478.368L204.47 478.545L205.51 478.368L205.445 478.024L205.362 477.801L205.204 477.55C205.106 477.428 204.982 477.329 204.84 477.261C204.698 477.194 204.543 477.159 204.387 477.16C204.124 477.161 203.87 477.257 203.671 477.429L203.374 477.894C203.329 478.033 203.304 478.177 203.3 478.322V478.731C203.3 480.423 203.662 485.946 203.662 485.964L203.792 488.047L534 211.117L134.933 68.9561L203.551 478.731L205.631 478.378L204.591 478.582Z" fill="#1D1D1B"/>
<path d="M209.857 448.785L210.201 448.729L149.561 86.5271L500.239 211.432L209.885 455.014L210.117 455.284H210.47C210.47 455.284 210.154 450.31 210.154 448.925V448.655L209.876 448.59L210.126 448.72V448.655L209.848 448.59L210.099 448.72L209.792 448.562V448.906L210.099 448.72L209.792 448.562L209.523 448.776L209.792 448.906V448.562L209.523 448.776L209.727 448.608L209.476 448.701L209.523 448.776L209.727 448.608L209.476 448.701L209.523 448.906L210.21 448.785L209.866 448.841L210.21 448.785L210.164 448.534V448.423L210.108 448.33L209.829 448.199L209.504 448.395L209.448 448.655V448.925C209.448 450.375 209.764 455.321 209.764 455.321L209.811 456.018L501.632 211.237L148.669 85.4673L209.532 448.85L210.219 448.729L209.857 448.785Z" fill="#1D1D1B"/>
<path d="M35.1353 311.617L35.8412 312.407L343.275 38.5826L433.803 445.317L29.4419 314.676L29.1169 315.68L29.7391 316.535L32.7484 314.388C33.51 313.848 34.2809 313.309 34.866 312.919C35.1539 312.714 35.4047 312.556 35.5719 312.445L35.7483 312.342L35.4883 311.831L35.6926 312.361H35.7483L35.4883 311.85L35.6926 312.38L35.349 311.45V312.426L35.6926 312.361L35.349 311.431V311.385L34.736 312.231C34.9143 312.361 35.1284 312.432 35.349 312.435V311.385L34.736 312.231L35.349 311.385H34.2994C34.3026 311.55 34.3437 311.712 34.4194 311.859C34.495 312.005 34.6034 312.133 34.736 312.231L35.349 311.385L34.4202 310.911C34.3474 311.058 34.3093 311.22 34.3087 311.385H35.3397L34.4109 310.911L35.2003 311.31L34.5223 310.734L34.4109 310.911L35.2003 311.31L34.5223 310.734L34.4202 310.827L35.8319 312.407L35.126 311.617L35.8319 312.407L36.0641 312.184L36.1941 312.026L36.2963 311.868C36.3745 311.716 36.4158 311.547 36.417 311.375C36.416 311.207 36.376 311.042 36.3003 310.892C36.2245 310.742 36.1151 310.611 35.9805 310.511C35.798 310.375 35.5761 310.304 35.349 310.306C35.1925 310.306 35.0377 310.338 34.8938 310.399L34.2994 310.743C32.767 311.729 28.4946 314.815 28.4853 314.825L26.8042 316.033L436.655 448.469L344.539 34.6128L34.4295 310.818L35.8505 312.407L35.1353 311.617Z" fill="#1D1D1B"/>
<path d="M7.21651 362.388L7.48586 362.621L329.994 1.36666L490.803 465.92L0.826525 367.585L0.752236 367.929L0.993712 368.189L4.27229 365.307C5.08961 364.573 5.91623 363.848 6.55709 363.299C6.87287 363.02 7.14221 362.797 7.33726 362.639L7.56945 362.472H7.61589L7.48586 362.249V362.5H7.61589L7.48586 362.277V362.184L7.25367 362.435L7.48586 362.528V362.184L7.25367 362.435L7.48586 362.184H7.14221L7.25367 362.435L7.48586 362.184H7.42084L7.17937 362.044V362.184H7.45799L7.21651 362.044L7.03076 362.258L7.56015 362.732L7.29081 362.5L7.56015 362.732L7.7552 362.5L7.82022 362.397L7.88523 362.184L7.77378 361.923L7.52301 361.821L7.30939 361.886C6.83452 362.226 6.37873 362.593 5.94409 362.983C3.98437 364.684 0.594331 367.78 0.594331 367.78L0.0742188 368.245L491.88 466.859L330.273 0L6.95645 362.146L7.48586 362.621L7.21651 362.388Z" fill="#1D1D1B"/>
<path d="M15.4178 371.229L16.3466 371.415L15.8729 370.606L14.9441 370.421L15.4178 371.229ZM8.91638 359.952L9.28789 360.594L9.78014 360.045L9.41791 359.404L8.91638 359.952Z" fill="#1D1D1B"/>
</g>
<defs>
<clipPath id="clip0">
<rect width="534" height="488" fill="white"/>
</clipPath>
</defs>
</svg>
