<svg width="778" height="778" viewBox="0 0 778 778" fill="none" xmlns="http://www.w3.org/2000/svg">
<path d="M281.594 443.486C251.913 384.451 275.793 312.276 334.832 282.594C393.871 252.912 466.03 276.802 495.711 335.837C525.391 394.873 501.512 467.047 442.487 496.722C383.462 526.397 311.274 502.521 281.594 443.486ZM496.861 335.259C466.86 275.587 393.902 251.452 334.252 281.441C274.602 311.431 250.44 384.393 280.441 444.065C310.442 503.737 383.392 527.874 443.065 497.873C502.739 467.871 526.863 394.934 496.861 335.259Z" fill="#C01466"/>
<path d="M261.76 453.879C226.503 383.752 254.869 298.017 325 262.759C395.131 227.5 480.848 255.879 516.105 326.005C551.361 396.132 522.996 481.867 452.881 517.117C382.767 552.367 297.017 524.005 261.76 453.879ZM517.471 325.318C481.834 254.435 395.168 225.766 324.311 261.389C253.455 297.013 224.753 383.684 260.391 454.567C296.028 525.45 382.683 554.121 453.568 518.483C524.453 482.845 553.11 396.204 517.471 325.318Z" fill="#C01466" fill-opacity="0.25"/>
<path d="M126.234 511.09C58.9135 366.198 122.022 193.549 266.931 126.221C411.839 58.8935 584.453 122.02 651.774 266.913C719.095 411.805 655.986 584.454 511.113 651.765C366.239 719.077 193.555 655.983 126.234 511.09ZM654.597 265.601C586.55 119.145 412.024 55.3679 265.616 123.392C119.209 191.417 55.3582 365.949 123.405 512.405C191.453 658.86 365.958 722.64 512.424 654.589C658.891 586.537 722.647 412.063 654.597 265.601Z" fill="#C01466"/>
<path d="M188.642 481.739C137.548 371.772 185.445 240.739 295.424 189.641C405.403 138.542 536.409 186.452 587.502 296.419C638.596 406.386 590.699 537.418 480.747 588.505C370.794 639.591 239.735 591.705 188.642 481.739ZM589.645 295.423C538 184.27 405.543 135.866 294.426 187.493C183.309 239.121 134.85 371.583 186.495 482.736C238.139 593.889 370.581 642.295 481.742 590.647C592.903 538.999 641.292 406.581 589.645 295.423Z" fill="#C01466"/>
<path d="M154.838 498.688C94.8647 369.61 151.081 215.807 280.168 155.83C409.254 95.8534 563.024 152.093 622.997 281.171C682.97 410.249 626.754 564.052 497.699 624.014C368.643 683.976 214.811 627.766 154.838 498.688ZM625.512 280.002C564.892 149.531 409.419 92.7127 278.997 153.31C148.574 213.907 91.6975 369.388 152.318 499.859C212.938 630.33 368.393 687.151 498.867 626.529C629.341 565.908 686.135 410.478 625.512 280.002Z" fill="#C01466" fill-opacity="0.25"/>
<line x1="389.717" y1="57.0004" x2="388.715" y2="709.052" stroke="#010A2D" stroke-opacity="0.25"/>
<line x1="722.049" y1="392.111" x2="69.9987" y2="390.5" stroke="#010A2D" stroke-opacity="0.25"/>
</svg>
