<svg width="299" height="273" viewBox="0 0 299 273" fill="none" xmlns="http://www.w3.org/2000/svg">
<g clip-path="url(#clip0)">
<path d="M159.728 200.299L159.824 200.167L82.4987 143.624L138.996 66.5L216.189 122.948L159.596 200.204L159.728 200.299L159.824 200.167L159.728 200.299L159.861 200.394L216.644 122.879L138.928 66.0503L82.0486 143.698L159.76 200.527L159.861 200.394L159.728 200.299Z" fill="#1D1D1B"/>
<path d="M159.892 201.379L159.993 201.252L81.4183 143.793L138.827 65.4208L217.274 122.778L159.765 201.283L159.892 201.379L159.993 201.252L159.892 201.379L160.025 201.474L217.725 122.71L138.758 64.9658L80.9629 143.862L159.929 201.606L160.025 201.474L159.892 201.379Z" fill="#1D1D1B"/>
<path d="M160.205 203.384L160.252 203.32L79.3001 144.122L138.499 63.3047L219.393 122.451L160.141 203.336L160.205 203.384L160.252 203.32L160.205 203.384L160.268 203.432L219.615 122.419L138.467 63.0771L79.0724 144.153L160.221 203.495L160.268 203.432L160.205 203.384Z" fill="#1D1D1B"/>
<path d="M172.792 196.924L172.824 196.85L85.7607 156.677L125.938 69.7594L212.927 109.901L172.718 196.887L172.792 196.924L172.824 196.85L172.792 196.924L172.866 196.956L213.144 109.821L125.858 69.5425L85.5436 156.751L172.829 197.03L172.866 196.956L172.792 196.924Z" fill="#1D1D1B"/>
<path d="M172.416 195.897L172.448 195.829L86.7827 156.296L126.314 70.7805L211.905 110.276L172.342 195.866L172.416 195.897L172.448 195.829L172.416 195.897L172.49 195.934L212.117 110.197L126.234 70.5688L86.5709 156.375L172.453 196.008L172.49 195.934L172.416 195.897Z" fill="#1D1D1B"/>
<path d="M172.056 194.924L172.157 194.707L87.9742 155.862L126.748 71.9707L210.719 110.71L171.839 194.823L172.056 194.924L172.157 194.707L172.056 194.924L172.273 195.024L211.359 110.477L126.515 71.3252L87.3281 156.094L172.173 195.246L172.273 195.024L172.056 194.924Z" fill="#1D1D1B"/>
<path d="M103.501 183.289L103.58 183.284L99.3808 87.5574L195.113 83.3671L199.307 179.014L103.495 183.21L103.501 183.289L103.58 183.284L103.501 183.289V183.368L199.476 179.168L195.266 83.1978L99.2113 87.4039L103.421 183.374L103.501 183.368V183.289Z" fill="#1D1D1B"/>
<path d="M157.907 118.869V118.223H140.622L131.794 133.498L140.622 148.772H158.277L167.105 133.498L158.277 118.223H157.907V118.869L157.345 119.191L165.612 133.498L157.531 147.487H141.369L133.288 133.498L141.369 119.514H157.907V118.869L157.345 119.191L157.907 118.869Z" fill="#1D1D1B"/>
<path d="M154.814 124.218V124.138H144.043L138.636 133.498L144.043 142.857H154.856L160.268 133.498L154.856 124.138H154.814V124.218L154.74 124.26L160.083 133.498L154.766 142.698H144.133L138.822 133.498L144.133 124.302H154.814V124.218L154.74 124.26L154.814 124.218Z" fill="#1D1D1B"/>
<path d="M155.587 122.879V122.799H143.265L137.085 133.497L143.265 144.201H155.635L161.815 133.497L155.635 122.799H155.587V122.879L155.518 122.921L161.629 133.497L155.54 144.037H143.36L137.27 133.497L143.36 122.958H155.587V122.879L155.518 122.921L155.587 122.879Z" fill="#1D1D1B"/>
<path d="M156.059 122.059V121.979H142.793L136.137 133.498L142.793 145.021H156.106L162.763 133.498L156.106 121.979H156.059V122.059L155.99 122.101L162.577 133.498L156.016 144.857H142.889L136.322 133.498L142.883 122.138H156.059V122.059L155.99 122.101L156.059 122.059Z" fill="#1D1D1B"/>
<path d="M156.419 121.445V121.366H142.438L135.427 133.498L142.438 145.635H156.461L163.477 133.498L156.461 121.366H156.419V121.445L156.344 121.482L163.292 133.498L156.371 145.471H142.529L135.613 133.498L142.529 121.524H156.419V121.445L156.344 121.482L156.419 121.445Z" fill="#1D1D1B"/>
<path d="M160.417 114.525V114.445H138.44L127.431 133.497L138.44 152.555H160.459L171.474 133.497L160.459 114.445H160.417V114.525L160.343 114.567L171.283 133.497L160.369 152.391H138.53L127.616 133.497L138.53 114.604H160.417V114.525L160.343 114.567L160.417 114.525Z" fill="#1D1D1B"/>
<path d="M162 111.784V111.705H136.857L124.259 133.497L136.857 155.295H162.048L174.64 133.497L162.048 111.705H162V111.784L161.931 111.821L174.455 133.497L161.952 155.131H136.947L124.444 133.497L136.947 111.863H162V111.784L161.931 111.821L162 111.784Z" fill="#1D1D1B"/>
<path d="M162.424 111.049V110.969H136.428L123.406 133.497L136.428 156.031H162.471L175.493 133.497L162.471 110.969H162.424V111.049L162.355 111.086L175.308 133.497L162.376 155.872H136.523L123.597 133.497L136.523 111.128H162.424V111.049L162.355 111.086L162.424 111.049Z" fill="#1D1D1B"/>
<path d="M161.899 109.175L161.894 109.096L134.538 110.488L122.051 134.894L136.958 157.904L164.362 156.512L176.849 132.106L161.942 109.091L161.894 109.096L161.899 109.175L161.831 109.218L176.663 132.111L164.261 156.354L137.042 157.74L122.236 134.883L134.643 110.646L161.905 109.255L161.899 109.175L161.831 109.218L161.899 109.175Z" fill="#1D1D1B"/>
<path d="M153.75 126.059V125.974H145.102L140.754 133.498L145.102 141.021H153.797L158.145 133.498L153.797 125.974H153.75V126.059L153.681 126.096L157.959 133.498L153.702 140.862H145.197L140.94 133.498L145.197 126.138H153.75V126.059L153.681 126.096L153.75 126.059Z" fill="#1D1D1B"/>
<path d="M162.715 119.345L162.789 119.033L143.709 114.588L130.19 129.011L135.93 147.92L155.195 152.407L168.709 137.984L162.969 119.075L162.789 119.033L162.715 119.345L162.408 119.44L167.984 137.815L154.978 151.693L136.439 147.381L130.915 129.18L143.921 115.303L162.641 119.662L162.715 119.345L162.408 119.44L162.715 119.345Z" fill="#1D1D1B"/>
<path d="M163.382 114.249L163.393 114.17L139.695 111.736L125.71 131.058L135.464 152.819L159.204 155.264L173.189 135.942L163.435 114.175L163.393 114.17L163.382 114.249L163.308 114.286L173.004 135.921L159.13 155.089L135.575 152.671L125.895 131.079L139.77 111.906L163.372 114.334L163.382 114.249L163.308 114.286L163.382 114.249Z" fill="#1D1D1B"/>
<path d="M164.298 107.805V107.721H134.553L119.662 133.497L134.553 159.274H164.346L179.242 133.497L164.346 107.721H164.298V107.805L164.229 107.842L179.052 133.497L164.251 159.116H134.649L119.848 133.497L134.649 107.885H164.298V107.805L164.229 107.842L164.298 107.805Z" fill="#1D1D1B"/>
<path d="M164.801 106.932V106.853H134.05L118.651 133.497L134.05 160.147H164.849L180.248 133.497L164.849 106.853H164.801V106.932L164.732 106.975L180.058 133.497L164.754 159.983H134.146L118.842 133.497L134.146 107.012H164.801V106.932L164.732 106.975L164.801 106.932Z" fill="#1D1D1B"/>
<path d="M165.627 105.504V105.424H133.23L117.004 133.497L133.23 161.576H165.675L181.895 133.497L165.675 105.424H165.627V105.504L165.559 105.546L181.71 133.497L165.58 161.412H133.32L117.189 133.497L133.32 105.583H165.627V105.504L165.559 105.546L165.627 105.504Z" fill="#1D1D1B"/>
<path d="M163.515 109.16V109.081H135.337L121.23 133.498L135.337 157.92H163.562L177.675 133.498L163.562 109.081H163.515V109.16L163.446 109.202L177.484 133.498L163.467 157.756H135.433L121.415 133.498L135.433 109.239H163.515V109.16L163.446 109.202L163.515 109.16Z" fill="#1D1D1B"/>
<path d="M169.71 98.4406V98.356H129.141L108.839 133.497L129.141 168.639H169.758L190.066 133.497L169.758 98.356H169.71V98.4406L169.641 98.4777L189.876 133.497L169.663 168.48H129.237L109.024 133.497L129.237 98.52H169.71V98.4406L169.641 98.4777L169.71 98.4406Z" fill="#1D1D1B"/>
<path d="M171.177 95.8958V95.8164H127.675L105.9 133.497L127.675 171.179H171.225L193 133.497L171.225 95.8164H171.177V95.8958L171.108 95.9381L192.815 133.497L171.135 171.02H127.77L106.085 133.497L127.77 95.9804H171.177V95.8958L171.108 95.9381L171.177 95.8958Z" fill="#1D1D1B"/>
<path d="M105.068 171.729L105.677 171.946L136.709 83.7955L198.963 154.052L104.173 172.57L104.295 173.205L104.877 173.48L105.248 172.707C105.343 172.517 105.433 172.326 105.508 172.178C105.582 172.03 105.571 172.051 105.587 172.025L105.534 171.993L105.587 172.025L105.534 171.993L105.587 172.025L105.185 171.766L105.555 172.073L105.587 172.025L105.185 171.766L105.555 172.073L105.079 171.681L105.476 172.152L105.555 172.073L105.079 171.681L105.476 172.152L105.068 171.665L105.359 172.226C105.401 172.207 105.441 172.182 105.476 172.152L105.068 171.665L105.359 172.226L105.063 171.66V172.3C105.166 172.302 105.269 172.277 105.359 172.226L105.063 171.66L104.681 172.189C104.791 172.271 104.925 172.316 105.063 172.316V171.67L104.681 172.199L105.063 171.67L104.443 171.834C104.48 171.975 104.564 172.098 104.681 172.184L105.063 171.655L104.443 171.819L105.057 171.655H104.417C104.422 171.71 104.431 171.765 104.443 171.819L105.057 171.655H105.026L104.438 171.533C104.434 171.573 104.434 171.614 104.438 171.655H105.026L104.438 171.533L104.809 171.607L104.443 171.496V171.533L104.814 171.607L104.448 171.496L105.672 171.924L105.063 171.707L105.672 171.924V171.84V171.776C105.677 171.731 105.677 171.684 105.672 171.639C105.675 171.548 105.656 171.457 105.619 171.374C105.573 171.272 105.502 171.182 105.412 171.115C105.299 171.035 105.164 170.99 105.026 170.988C104.93 170.987 104.836 171.009 104.75 171.051C104.684 171.083 104.623 171.126 104.57 171.178L104.486 171.279C104.447 171.335 104.411 171.393 104.38 171.453C104.274 171.66 104.099 172.014 103.945 172.332L103.67 172.914L103.141 174.067L201.404 154.893L136.222 81.293L104.448 171.517L105.666 171.946L105.068 171.729Z" fill="#1D1D1B"/>
<path d="M133.415 184.628L133.653 184.591L118.084 91.753L207.875 123.678L133.314 186.109L133.473 186.294H133.712C133.712 186.294 133.712 185.977 133.674 185.617C133.637 185.257 133.632 184.845 133.632 184.675V184.617H133.526H133.632H133.526H133.632L133.415 184.57L133.611 184.67V184.617L133.394 184.57L133.59 184.67L133.378 184.564L133.537 184.739L133.59 184.67L133.378 184.564L133.537 184.739L133.378 184.559V184.802C133.437 184.8 133.493 184.777 133.537 184.739L133.378 184.559L133.193 184.712C133.214 184.742 133.242 184.765 133.274 184.781C133.306 184.796 133.342 184.804 133.378 184.802V184.559L133.193 184.712L133.362 184.575L133.15 184.649L133.193 184.712L133.362 184.575L133.15 184.649L133.256 184.612H133.15L133.256 184.575H133.15V184.612L133.627 184.532L133.388 184.57L133.627 184.527V184.453V184.4L133.59 184.342C133.567 184.315 133.539 184.293 133.507 184.277C133.475 184.262 133.44 184.253 133.404 184.252C133.344 184.253 133.286 184.276 133.24 184.316L133.171 184.421C133.164 184.453 133.164 184.485 133.171 184.517V184.596C133.171 184.982 133.251 186.241 133.251 186.247L133.283 186.723L208.818 123.508L117.47 91.0176L133.177 184.665L133.653 184.58L133.415 184.628Z" fill="#1D1D1B"/>
<path d="M134.622 177.819H134.702L120.817 95.0334L201.097 123.577L134.617 179.231L134.67 179.289H134.749C134.749 179.289 134.681 178.173 134.681 177.84V177.782H134.617L134.675 177.813H134.612L134.67 177.845L134.601 177.808V177.887L134.67 177.845L134.601 177.808L134.538 177.861L134.601 177.887V177.808L134.538 177.861L134.585 177.819H134.527L134.575 177.776H134.516V177.824L134.675 177.797H134.596H134.675V177.739V177.713L134.612 177.681L134.538 177.729V177.787V177.85C134.538 178.178 134.612 179.311 134.612 179.311V179.469L201.404 123.519L120.616 94.79L134.543 177.856L134.702 177.829L134.622 177.819Z" fill="#1D1D1B"/>
<path d="M94.6201 146.471L94.779 146.656L165.167 84.0814L185.893 177.025L93.3174 147.174L93.2433 147.402L93.381 147.597L94.0747 147.105L94.5566 146.772L94.7207 146.666L94.7578 146.64L94.6996 146.523L94.7419 146.645L94.6837 146.529L94.726 146.65L94.6519 146.439V146.661H94.726L94.6519 146.449L94.5089 146.645C94.5507 146.674 94.6009 146.689 94.6519 146.687V146.428L94.5089 146.624L94.6519 146.428H94.4348C94.4354 146.466 94.4448 146.504 94.4622 146.538C94.4797 146.572 94.5047 146.601 94.5354 146.624L94.6784 146.428L94.4666 146.322C94.4516 146.356 94.4426 146.392 94.4401 146.428H94.6784L94.4666 146.322L94.6466 146.412L94.493 146.28V146.322L94.6731 146.412L94.5195 146.28L94.8425 146.645L94.6837 146.46L94.8425 146.645L94.8955 146.592L94.9273 146.555V146.518C94.9482 146.485 94.9593 146.446 94.959 146.407C94.9593 146.369 94.9502 146.331 94.9327 146.297C94.9152 146.263 94.8897 146.233 94.8584 146.211C94.8176 146.18 94.7671 146.163 94.7154 146.164C94.6805 146.156 94.6445 146.156 94.6095 146.164L94.4719 146.243C94.1224 146.465 93.1427 147.174 93.1427 147.174L92.7561 147.455L186.577 177.744L165.458 83.1714L94.4348 146.291L94.7578 146.656L94.6201 146.471Z" fill="#1D1D1B"/>
<path d="M88.2284 158.068L88.2867 158.121L162.127 75.5845L198.947 181.744L86.7616 159.264V159.343L86.8198 159.401L87.5612 158.735C87.7465 158.565 87.9372 158.396 88.0907 158.274L88.2708 158.121L88.3185 158.084L88.292 158.031V158.068H88.3185L88.292 158.015L88.239 158.073H88.292V157.994L88.239 158.052L88.292 157.994H88.2125V158.052L88.2655 157.994L88.2125 157.962V157.994H88.2761L88.2231 157.962L88.1808 158.01L88.2973 158.116L88.239 158.063L88.2973 158.116L88.3449 158.063V158.015L88.3185 157.957H88.2602H88.2125C88.1596 157.989 88.0537 158.079 87.9001 158.206C87.45 158.597 86.6716 159.306 86.6716 159.306L86.5551 159.412L199.169 181.972L162.217 75.2617L88.1702 158.02L88.2867 158.126L88.2284 158.068Z" fill="#1D1D1B"/>
<path d="M83.5154 160.65L83.9973 161.078L162.62 73.1769L201.51 185.305L82.0538 161.375L81.9268 162.009L82.361 162.486L83.1553 161.771C83.3566 161.591 83.5578 161.412 83.7113 161.285L83.8861 161.136L83.6796 160.845L83.8596 161.158H83.8861L83.6796 160.867L83.8596 161.179L83.5684 160.676L83.7908 161.205L83.8596 161.174L83.5684 160.671L83.7908 161.2L83.5472 160.613V161.242C83.6307 161.243 83.7135 161.226 83.7908 161.195L83.5472 160.607L83.3565 161.221C83.4179 161.242 83.4823 161.253 83.5472 161.253V160.607L83.3565 161.221L83.5472 160.607L83.0176 160.951C83.1008 161.08 83.2263 161.175 83.3724 161.221L83.5631 160.607L83.0335 160.951L83.5631 160.607H82.9223C82.9208 160.729 82.9539 160.848 83.0176 160.951L83.5472 160.607L82.9594 160.364C82.9263 160.441 82.9101 160.524 82.9117 160.607H83.5472L82.9594 160.364L83.4889 160.592L83.0017 160.258C82.9806 160.292 82.9629 160.327 82.9488 160.364L83.4783 160.592L82.9912 160.258L83.2506 160.433L83.0123 160.237L83.2718 160.412L83.0335 160.216L83.9973 161.073L83.5154 160.644L84.0026 161.073L84.0767 160.983L84.1297 160.904L84.172 160.814C84.2062 160.735 84.2225 160.65 84.2197 160.565C84.22 160.493 84.2093 160.422 84.1879 160.353C84.1343 160.205 84.029 160.081 83.8914 160.004C83.7948 159.948 83.6852 159.919 83.5737 159.92C83.4925 159.921 83.4121 159.936 83.3354 159.962C83.2903 159.979 83.2475 160.003 83.2083 160.031C83.1416 160.074 83.0779 160.122 83.0176 160.174C82.8005 160.353 82.4245 160.703 82.0962 160.983C81.7679 161.263 81.4925 161.512 81.4925 161.512L80.5499 162.369L203.464 186.993L163.123 70.6797L83.0388 160.216L84.0026 161.078L83.5154 160.65Z" fill="#1D1D1B"/>
<path d="M178.114 95.8853L178.125 95.8059L131.143 89.8062L102.42 127.493L120.732 171.189L167.762 177.194L196.479 139.503L178.167 95.8112L178.125 95.8059L178.114 95.8853L178.04 95.917L196.294 139.481L167.687 177.02L120.843 171.041L102.606 127.519L131.212 89.9755L178.104 95.9646L178.114 95.8853L178.04 95.917L178.114 95.8853Z" fill="#1D1D1B"/>
<path d="M189.335 64.4787V64.2354H109.426L69.4028 133.497L109.426 202.759H189.473L229.496 133.497L189.473 64.2354H189.335V64.4787L189.124 64.6004L228.94 133.497L189.192 202.278H109.707L69.9589 133.497L109.707 64.7221H189.335V64.4787L189.124 64.6004L189.335 64.4787Z" fill="#1D1D1B"/>
<path d="M186.804 68.8545H146.362L146.585 69.0185H186.714L194.922 83.219H195.102L186.804 68.8545ZM186.688 68.9762L186.762 68.9339L186.688 68.9762ZM146.092 68.8545H144.075L144.292 69.0185H146.331L146.092 68.8545ZM143.524 68.8545H142.761L142.984 69.0185H143.746L143.524 68.8545ZM142.216 68.8545H137.27L137.154 69.0185H142.449L142.216 68.8545ZM136.873 68.8545H136.312L136.195 69.0185H136.756L136.873 68.8545ZM135.914 68.8545H134.437L134.315 69.0185H135.793L135.914 68.8545ZM134.236 68.8545H112.095L101.43 87.3088H101.621L112.185 69.0238H134.119L134.236 68.8545Z" fill="#1D1D1B"/>
<path d="M136.873 68.8545L136.756 69.0185H137.154L137.275 68.8545H136.873ZM142.216 68.8545L142.433 69.0185H142.963L142.74 68.8545H142.216Z" fill="#1D1D1B"/>
<path d="M135.914 68.8545L135.793 69.0185H136.195L136.312 68.8545H135.914ZM143.524 68.8545L143.746 69.0185H144.276L144.054 68.8545H143.524Z" fill="#1D1D1B"/>
<path d="M134.236 68.8545L134.114 69.0185H134.315L134.437 68.8545H134.236ZM146.092 68.8545L146.309 69.0185H146.585L146.362 68.8545H146.092Z" fill="#1D1D1B"/>
<path d="M195.113 83.3726H195.012L195.123 83.563L195.113 83.3726ZM195.282 83.5207V83.8699L209.241 108.028L209.495 108.149L195.282 83.5207ZM209.4 108.271L209.93 109.186L210.179 109.303L209.649 108.387L209.4 108.271ZM210.067 109.43L210.422 110.049L210.676 110.165L210.322 109.546L210.067 109.43ZM211.126 110.959L211.042 111.139L211.296 111.573L211.381 111.393L211.126 110.959ZM211.476 111.567L211.397 111.747L211.767 112.393L211.852 112.213L211.476 111.567ZM211.947 112.382L211.868 112.562L216.067 119.831L216.39 120.07L211.947 112.382ZM216.268 120.181L218.387 123.826L218.492 123.683L216.602 120.413L216.268 120.181ZM218.567 123.837L218.466 123.979L223.968 133.503L199.55 175.75L199.619 175.956L224.175 133.503L218.567 123.837Z" fill="#1D1D1B"/>
<path d="M216.078 119.832L216.279 120.181L216.602 120.414L216.401 120.07L216.078 119.832ZM218.492 123.683L218.386 123.826L218.476 123.98L218.577 123.837L218.492 123.683Z" fill="#1D1D1B"/>
<path d="M209.257 108.027L209.4 108.271L209.649 108.387L209.511 108.149L209.257 108.027ZM211.862 112.212L211.778 112.392L211.878 112.562L211.958 112.382L211.862 112.212Z" fill="#1D1D1B"/>
<path d="M209.93 109.186L210.067 109.429L210.322 109.546L210.179 109.302L209.93 109.186ZM211.391 111.392L211.307 111.572L211.407 111.747L211.487 111.567L211.391 111.392Z" fill="#1D1D1B"/>
<path d="M210.422 110.043L211.052 111.139L211.137 110.959L210.676 110.16L210.422 110.043Z" fill="#1D1D1B"/>
<path d="M101.525 87.4673H101.335L99.5184 90.61V90.9116L101.525 87.4673ZM99.3649 90.8746L74.7355 133.503L80.0945 142.767L80.1951 142.624L74.9261 133.503L99.3807 91.1761L99.3649 90.8746ZM80.3011 142.772L80.1951 142.915L82.0486 146.116L82.3663 146.349L80.3011 142.772ZM82.2445 146.476L86.7298 154.237L86.8145 154.057L82.5781 146.714L82.2445 146.476ZM86.9098 154.232L86.8304 154.406L87.2011 155.057L87.2858 154.877L86.9098 154.232ZM87.3864 155.047L87.3017 155.227L87.3917 155.38L87.5029 155.253L87.3864 155.047Z" fill="#1D1D1B"/>
<path d="M80.1951 142.624L80.0892 142.767L80.1792 142.92L80.2852 142.777L80.1951 142.624ZM82.0274 146.121L82.2286 146.465L82.5516 146.703L82.3504 146.354L82.0274 146.121Z" fill="#1D1D1B"/>
<path d="M86.7139 154.227L86.8145 154.396L86.8939 154.216L86.7986 154.047L86.7139 154.227Z" fill="#1D1D1B"/>
<path d="M87.1852 155.042L87.2858 155.211L87.3705 155.031L87.2699 154.862L87.1852 155.042Z" fill="#1D1D1B"/>
<path d="M88.1224 156.48L88.0536 156.56L88.3236 157.025L88.5778 157.142L88.2177 156.523L88.1224 156.48ZM88.4613 157.269L88.6149 157.533L88.7314 157.406L88.4613 157.269Z" fill="#1D1D1B"/>
<path d="M88.4614 157.248L88.7156 157.37L88.5779 157.126L88.3237 157.01L88.4614 157.248Z" fill="#1D1D1B"/>
<path d="M88.1224 156.465L88.2178 156.507L88.1648 156.417L88.1224 156.465Z" fill="#1D1D1B"/>
<path d="M88.8162 157.539L88.6997 157.666L88.991 158.169L89.2451 158.285L88.8162 157.539ZM89.1339 158.412L89.9971 159.909L90.2089 159.952L89.3881 158.528L89.1339 158.412Z" fill="#1D1D1B"/>
<path d="M89.1286 158.406L89.3828 158.523L89.2452 158.285L88.991 158.163L89.1286 158.406Z" fill="#1D1D1B"/>
<path d="M90.1083 160.1L91.9935 163.369L92.2053 163.412L90.3148 160.142L90.1083 160.1ZM92.8566 164.861L103.437 183.12V182.771L93.1108 164.898L92.8566 164.861ZM198.708 177.237L197.988 178.48L198.057 178.681L198.756 177.432L198.708 177.237ZM197.882 178.665L197.633 179.094H197.824L197.951 178.871L197.882 178.665ZM197.729 179.252H197.538L196.4 181.22L196.564 181.252L197.729 179.252ZM196.315 181.369L194.816 183.956L194.986 183.993L196.479 181.4L196.315 181.369ZM103.569 183.067V183.205H103.638L103.569 183.067ZM103.739 183.358H103.554L112.095 198.135H152.908L152.685 197.976H112.185L103.739 183.358ZM194.133 185.136L186.719 197.982H164.267L164.15 198.14H186.809L194.308 185.173L194.133 185.136ZM164.06 197.982H162.583L162.466 198.14H163.943L164.06 197.982ZM162.185 197.982H161.624L161.508 198.14H162.037L162.185 197.982ZM161.227 197.982H156.832L157.054 198.14H161.105L161.227 197.982ZM156.286 197.982H155.524L155.741 198.14H156.509L156.286 197.982ZM154.978 197.982H152.955L153.178 198.14H155.195L154.978 197.982Z" fill="#1D1D1B"/>
<path d="M156.286 197.987L156.509 198.146H157.038L156.821 197.987H156.286ZM161.227 197.987L161.105 198.146H161.507L161.624 197.987H161.227Z" fill="#1D1D1B"/>
<path d="M154.978 197.987L155.195 198.146H155.725L155.508 197.987H154.978ZM162.185 197.987L162.064 198.146H162.466L162.583 197.987H162.185Z" fill="#1D1D1B"/>
<path d="M152.685 197.987L152.908 198.146H153.178L152.961 197.987H152.685ZM164.06 197.987L163.944 198.146H164.145L164.261 197.987H164.06Z" fill="#1D1D1B"/>
<path d="M195.102 83.2085H194.922L195.012 83.3672H195.113V83.563L195.288 83.8646V83.5154L195.102 83.2085ZM101.621 87.3036H101.43L101.335 87.4729H101.525L101.621 87.3036ZM99.5025 90.6209L99.3489 90.8802V91.1817L99.4972 90.9225L99.5025 90.6209ZM197.808 179.083H197.618L197.522 179.252H197.713L197.808 179.083ZM103.379 182.787V183.136L103.522 183.384H103.707L103.612 183.226H103.543V183.093L103.379 182.787Z" fill="#1D1D1B"/>
<path d="M88.7314 157.391L88.6096 157.539L88.6943 157.687L88.8109 157.56L88.7314 157.391ZM89.997 159.909L90.1082 160.1L90.3148 160.142L90.2089 159.951L89.997 159.909ZM197.988 178.474L197.882 178.66L197.951 178.861L198.057 178.676L197.988 178.474ZM196.4 181.226L196.315 181.374L196.479 181.406L196.564 181.257L196.4 181.226Z" fill="#1D1D1B"/>
<path d="M87.4871 155.243L87.3759 155.37L88.0537 156.544L88.1225 156.465L88.1649 156.417L87.4871 155.243ZM91.9988 163.359L92.8567 164.845L93.0685 164.888L92.2054 163.401L91.9988 163.359ZM199.561 175.739L198.709 177.221L198.777 177.422L199.63 175.946L199.561 175.739ZM194.795 183.951L194.112 185.13L194.281 185.167L194.965 183.988L194.795 183.951Z" fill="#1D1D1B"/>
<path d="M190.707 62.1087V62.0293H108.15L66.8505 133.497L108.15 204.971H190.749L232.049 133.497L190.749 62.0293H190.707V62.1087L190.633 62.151L231.864 133.497L190.659 204.807H108.24L67.0358 133.497L108.24 62.188H190.707V62.1087L190.633 62.151L190.707 62.1087Z" fill="#1D1D1B"/>
<path d="M191.39 60.9287H107.515L65.5742 133.503L81.6778 161.364L81.7996 161.253L65.7596 133.503L107.594 61.0874H191.263L233.097 133.503L202.993 185.659L203.061 185.866L233.32 133.487L191.39 60.9287ZM191.274 61.0451L191.342 61.0081L191.274 61.0451ZM82.4934 162.777L107.515 206.077H191.39L202.511 186.823L202.341 186.786L191.289 205.913H107.621L82.7316 162.819L82.4934 162.777Z" fill="#1D1D1B"/>
<path d="M81.7997 161.242L81.6779 161.353L82.4934 162.766L82.7052 162.808L81.7997 161.242ZM202.993 185.659L202.341 186.786L202.511 186.823L203.04 185.866L202.993 185.659Z" fill="#1D1D1B"/>
<path d="M192.825 58.437H106.085L62.6987 133.503L106.085 208.563H192.825L236.206 133.503L192.825 58.437ZM192.709 58.5587L192.783 58.5164L192.709 58.5587ZM106.164 208.405L62.8841 133.503L106.164 58.601H192.735L236.015 133.503L192.735 208.405H106.164Z" fill="#1D1D1B"/>
<path d="M197.358 50.5959V50.5112H101.494L53.5428 133.497L101.494 216.484H197.406L245.362 133.497L197.406 50.5112H197.358V50.5959L197.289 50.6329L245.171 133.497L197.31 216.325H101.589L53.7282 133.497L101.589 50.6752H197.358V50.5959L197.289 50.6329L197.358 50.5959Z" fill="#1D1D1B"/>
<path d="M198.147 49.2363H100.758L52.0707 133.503L100.789 217.769H198.147L246.839 133.503L198.147 49.2363ZM198.031 49.358L198.099 49.3157L198.031 49.358ZM100.848 217.605L52.2454 133.482L100.848 49.358H198.052L246.654 133.482L198.052 217.605H100.848Z" fill="#1D1D1B"/>
<path d="M199.815 46.3423H99.0842L48.7186 133.503L99.0842 220.658H199.815L250.181 133.503L199.815 46.3423ZM199.699 46.464L199.768 46.4216L199.699 46.464ZM99.2007 220.5L48.8934 133.503L99.2007 46.5063H199.725L249.995 133.503L199.725 220.5H99.2007Z" fill="#1D1D1B"/>
<path d="M200.562 45.051V44.9717H98.2898L47.1353 133.497L98.2898 222.028H200.61L251.764 133.497L200.61 44.9717H200.562V45.051L200.493 45.0881L251.579 133.497L200.514 221.864H98.3851L47.3206 133.497L98.3851 45.1304H200.562V45.051L200.493 45.0881L200.562 45.051Z" fill="#1D1D1B"/>
<path d="M201.404 43.6069H97.5008L45.5573 133.503L97.5008 223.399H201.404L253.353 133.503L201.404 43.6069ZM201.287 43.7286L201.356 43.6863L201.287 43.7286ZM97.612 223.235L45.7585 133.503L97.612 43.7868H201.303L253.157 133.524L201.303 223.256L97.612 223.235Z" fill="#1D1D1B"/>
<path d="M203.178 40.5225H95.7216L42.0093 133.503L95.7216 226.484H203.178L256.911 133.503L203.178 40.5225ZM203.061 40.6441L203.136 40.6018L203.061 40.6441ZM95.8169 226.319L42.1787 133.503L95.8169 40.6812H203.088L256.721 133.503L203.088 226.319H95.8169Z" fill="#1D1D1B"/>
<path d="M88.652 132.968H88.9697C88.9673 119.085 93.7833 105.63 102.597 94.8961C111.411 84.1625 123.677 76.8144 137.306 74.1041C150.935 71.3937 165.082 73.4887 177.338 80.032C189.594 86.5754 199.2 97.1622 204.519 109.989C209.838 122.815 210.541 137.087 206.508 150.373C202.475 163.659 193.956 175.137 182.402 182.851C170.848 190.565 156.975 194.038 143.146 192.677C129.316 191.317 116.387 185.207 106.561 175.39C100.978 169.824 96.55 163.212 93.5312 155.932C90.5123 148.652 88.9622 140.848 88.9697 132.968H88.329C88.329 144.963 91.8889 156.688 98.5587 166.66C105.228 176.633 114.708 184.406 125.799 188.996C136.891 193.586 149.095 194.786 160.869 192.446C172.644 190.105 183.459 184.329 191.947 175.848C200.436 167.366 206.216 156.56 208.557 144.796C210.899 133.032 209.696 120.839 205.101 109.758C200.506 98.6766 192.726 89.2058 182.744 82.5428C172.761 75.8799 161.026 72.3241 149.021 72.3252C132.924 72.3266 117.487 78.7164 106.105 90.089C94.7231 101.462 88.329 116.886 88.329 132.968H88.652Z" fill="#1D1D1B"/>
<path d="M89.9494 132.968H90.0289C90.0279 119.331 94.7599 106.115 103.418 95.5727C112.077 85.0304 124.126 77.8138 137.514 75.1526C150.901 72.4915 164.797 74.5504 176.835 80.9786C188.873 87.4068 198.308 97.8065 203.532 110.406C208.756 123.005 209.445 137.024 205.483 150.074C201.521 163.124 193.153 174.398 181.803 181.975C170.454 189.552 156.827 192.962 143.243 191.625C129.659 190.288 116.96 184.287 107.308 174.644C101.822 169.177 97.4715 162.681 94.5062 155.529C91.5408 148.377 90.0193 140.71 90.0289 132.968H89.87C89.87 144.658 93.3396 156.085 99.84 165.805C106.34 175.525 115.58 183.1 126.389 187.573C137.199 192.047 149.093 193.217 160.569 190.936C172.044 188.655 182.585 183.025 190.858 174.759C199.131 166.493 204.764 155.961 207.046 144.496C209.328 133.03 208.156 121.146 203.678 110.347C199.199 99.547 191.616 90.3167 181.888 83.8229C172.159 77.3292 160.721 73.8637 149.021 73.8647C133.333 73.8661 118.287 80.0937 107.195 91.1776C96.1018 102.262 89.87 117.294 89.87 132.968H89.9494Z" fill="#1D1D1B"/>
<path d="M69.62 132.969H69.6995C69.6961 114.629 76.0577 96.8559 87.7002 82.6775C99.3427 68.4991 115.546 58.7927 133.548 55.2125C151.551 51.6322 170.239 54.3995 186.428 63.0429C202.618 71.6863 215.306 85.6709 222.332 102.614C229.358 119.557 230.286 138.409 224.959 155.959C219.632 173.509 208.378 188.671 193.117 198.86C177.855 209.05 159.529 213.637 141.261 211.839C122.994 210.042 105.915 201.972 92.9361 189.003C85.559 181.654 79.7084 172.919 75.7206 163.303C71.7329 153.687 69.6866 143.378 69.6995 132.969H69.5459C69.5459 148.676 74.2078 164.03 82.942 177.09C91.6762 190.15 104.09 200.328 118.615 206.339C133.139 212.349 149.121 213.922 164.54 210.857C179.959 207.793 194.122 200.228 205.238 189.122C216.354 178.015 223.924 163.864 226.99 148.458C230.057 133.053 228.482 117.085 222.465 102.574C216.448 88.0631 206.259 75.6605 193.187 66.935C180.115 58.2094 164.747 53.5527 149.026 53.5537C138.588 53.5537 128.252 55.6079 118.609 59.5989C108.966 63.5899 100.204 69.4397 92.8232 76.8141C85.4428 84.1885 79.5884 92.9432 75.5945 102.578C71.6005 112.213 69.5452 122.54 69.5459 132.969H69.62Z" fill="#1D1D1B"/>
<path d="M52.8332 135.222H52.9127C52.9112 112.559 60.7752 90.5958 75.1647 73.0758C89.5541 55.5558 109.579 43.5628 131.826 39.1402C154.074 34.7177 177.168 38.1393 197.174 48.822C217.18 59.5047 232.859 76.7876 241.541 97.7257C250.222 118.664 251.368 141.962 244.784 163.65C238.2 185.338 224.293 204.074 205.432 216.665C186.572 229.257 163.925 234.925 141.35 232.704C118.775 230.483 97.6701 220.51 81.6302 204.484C72.512 195.399 65.2809 184.603 60.3526 172.717C55.4243 160.831 52.8958 148.088 52.9127 135.222H52.7538C52.7531 148.107 55.2926 160.865 60.2274 172.769C65.1621 184.673 72.3955 195.489 81.5143 204.6C90.6331 213.711 101.459 220.938 113.373 225.868C125.288 230.798 138.058 233.336 150.954 233.335C205.19 233.335 249.159 189.421 249.159 135.222C249.159 81.0234 205.206 37.1045 150.954 37.1045C96.7012 37.1045 52.7538 81.0181 52.7538 135.222H52.8332Z" fill="#1D1D1B"/>
<path d="M163.795 227.044L163.928 226.864L56.3548 148.2L134.956 40.903L242.349 119.429L163.615 226.912L163.795 227.044L163.928 226.864L163.795 227.044L163.981 227.176L242.979 119.334L134.861 40.2734L55.7246 148.296L163.848 227.356L163.981 227.176L163.795 227.044Z" fill="#1D1D1B"/>
<path d="M164.028 228.547L164.161 228.367L54.8509 148.433L134.723 39.3953L243.858 119.196L163.848 228.414L164.028 228.547L164.161 228.367L164.028 228.547L164.214 228.679L244.483 119.101L134.622 38.771L54.2207 148.529L164.081 228.864L164.214 228.679L164.028 228.547Z" fill="#1D1D1B"/>
<path d="M164.462 231.335L164.531 231.245L51.9012 148.888L134.267 36.4537L246.802 118.741L164.372 231.272L164.462 231.335L164.531 231.245L164.462 231.335L164.552 231.404L247.115 118.694L134.22 36.1362L51.5887 148.936L164.489 231.494L164.552 231.404L164.462 231.335Z" fill="#1D1D1B"/>
<path d="M181.975 222.346L182.022 222.245L60.893 166.353L116.787 45.432L237.81 101.276L181.869 222.298L181.975 222.346L182.022 222.245L181.975 222.346L182.075 222.393L238.112 101.171L116.676 45.1357L60.5964 166.464L182.028 222.494L182.075 222.393L181.975 222.346Z" fill="#1D1D1B"/>
<path d="M181.45 220.923L181.498 220.822L62.3175 165.83L117.311 46.8554L236.386 101.8L181.345 220.875L181.45 220.923L181.498 220.822L181.45 220.923L181.551 220.97L236.683 101.695L117.2 46.5591L62.021 165.935L181.503 221.071L181.551 220.97L181.45 220.923Z" fill="#1D1D1B"/>
<path d="M180.947 219.568L181.09 219.261L63.9696 165.221L117.92 48.5113L234.734 102.409L180.645 219.425L180.947 219.568L181.09 219.261L180.947 219.568L181.254 219.706L235.629 102.081L117.592 47.6172L63.0747 165.549L181.111 220.013L181.254 219.706L180.947 219.568Z" fill="#1D1D1B"/>
<path d="M85.57 203.379L85.6812 203.373L79.8456 70.1985L213.027 64.3681L218.863 197.432L85.5647 203.267L85.57 203.379L85.6812 203.373L85.57 203.379L85.5753 203.49L219.096 197.649L213.239 64.1353L79.6073 69.9869L85.4641 203.495L85.5753 203.49L85.57 203.379Z" fill="#1D1D1B"/>
<path d="M161.264 113.757V112.858H137.217L124.937 134.111L137.217 155.364H161.778L174.058 134.111L161.778 112.858H161.264V113.757L160.486 114.202L171.987 134.111L160.745 153.565H138.255L127.013 134.111L138.255 114.651H161.264V113.757L160.486 114.202L161.264 113.757Z" fill="#1D1D1B"/>
<path d="M156.959 121.201V121.09H141.972L134.453 134.111L141.972 147.132H157.022L164.547 134.111L157.022 121.09H156.959V121.201L156.863 121.26L164.288 134.111L156.895 146.909H142.105L134.712 134.111L142.105 121.313H156.959V121.201L156.863 121.26L156.959 121.201Z" fill="#1D1D1B"/>
<path d="M158.039 119.334V119.223H140.897L132.292 134.111L140.897 149H158.103L166.702 134.111L158.103 119.223H158.039V119.334L157.938 119.392L166.443 134.111L157.97 148.772H141.025L132.552 134.111L141.025 119.445H158.039V119.334L157.938 119.392L158.039 119.334Z" fill="#1D1D1B"/>
<path d="M158.696 118.197V118.085H140.235L130.974 134.111L140.235 150.137H158.759L168.021 134.111L158.759 118.085H158.696V118.197L158.6 118.249L167.761 134.111L158.632 149.915H140.368L131.233 134.111L140.368 118.308H158.696V118.197L158.6 118.249L158.696 118.197Z" fill="#1D1D1B"/>
<path d="M159.188 117.339V117.228H139.743L129.989 134.111L139.743 150.994H159.257L169.011 134.111L159.257 117.228H159.188V117.339L159.093 117.397L168.752 134.111L159.125 150.766H139.87L130.248 134.111L139.87 117.45H159.188V117.339L159.093 117.397L159.188 117.339Z" fill="#1D1D1B"/>
<path d="M164.754 107.716V107.604H134.183L118.863 134.111L134.183 160.618H164.817L180.137 134.111L164.817 107.604H164.754V107.716L164.653 107.769L179.878 134.111L164.685 160.396H134.31L119.122 134.111L134.31 107.827H164.754V107.716L164.653 107.769L164.754 107.716Z" fill="#1D1D1B"/>
<path d="M166.957 103.901V103.784H131.974L114.452 134.111L131.974 164.433H167.02L184.543 134.111L167.02 103.784H166.957V103.901L166.861 103.953L184.283 134.111L166.893 164.21H132.107L114.711 134.111L132.107 104.012H166.957V103.901L166.861 103.953L166.957 103.901Z" fill="#1D1D1B"/>
<path d="M167.55 102.874V102.763H131.387L113.271 134.111L131.387 165.459H167.613L185.729 134.111L167.613 102.763H167.55V102.874L167.449 102.932L185.47 134.111L167.486 165.232H131.514L113.53 134.111L131.514 102.985H167.55V102.874L167.449 102.932L167.55 102.874Z" fill="#1D1D1B"/>
<path d="M166.819 100.271L166.814 100.16L128.755 102.097L111.375 136.053L132.123 168.068L170.245 166.126L187.62 132.169L166.877 100.155L166.814 100.16L166.819 100.271L166.724 100.329L187.36 132.18L170.102 165.909L132.239 167.835L111.634 136.037L128.898 102.313L166.824 100.382L166.819 100.271L166.724 100.329L166.819 100.271Z" fill="#1D1D1B"/>
<path d="M155.481 123.757V123.646H143.45L137.402 134.111L143.45 144.576H155.55L161.598 134.111L155.55 123.646H155.481V123.757L155.386 123.81L161.338 134.111L155.418 144.354H143.582L137.662 134.111L143.582 123.868H155.481V123.757L155.386 123.81L155.481 123.757Z" fill="#1D1D1B"/>
<path d="M167.952 114.424L168.053 113.985L141.506 107.805L122.702 127.873L130.693 154.179L157.488 160.417L176.298 140.349L168.307 114.043L168.053 113.985L167.952 114.424L167.523 114.551L175.287 140.116L157.186 159.422L131.403 153.422L123.714 128.106L141.808 108.795L167.852 114.858L167.952 114.424L167.523 114.551L167.952 114.424Z" fill="#1D1D1B"/>
<path d="M168.879 107.335L168.895 107.223L135.925 103.832L116.469 130.715L130.042 160.994L163.07 164.385L182.531 137.508L168.958 107.229L168.895 107.223L168.879 107.335L168.778 107.382L182.271 137.482L162.964 164.152L130.195 160.782L116.729 130.741L136.031 104.07L168.868 107.446L168.879 107.335L168.778 107.382L168.879 107.335Z" fill="#1D1D1B"/>
<path d="M170.155 98.3611V98.25H128.776L108.055 134.111L128.776 169.967H170.219L190.945 134.111L170.219 98.25H170.155V98.3611L170.06 98.4193L190.686 134.111L170.092 169.745H128.908L108.314 134.111L128.908 98.4775H170.155V98.3611L170.06 98.4193L170.155 98.3611Z" fill="#1D1D1B"/>
<path d="M170.854 97.1497V97.0386H128.077L106.657 134.111L128.077 171.184H170.923L192.343 134.111L170.923 97.0386H170.854V97.1497L170.759 97.2079L192.084 134.111L170.791 170.956H128.204L106.916 134.111L128.204 97.2661H170.854V97.1497L170.759 97.2079L170.854 97.1497Z" fill="#1D1D1B"/>
<path d="M172.003 95.1658V95.0547H126.928L104.358 134.111L126.928 173.168H172.072L194.641 134.111L172.072 95.0547H172.003V95.1658L171.908 95.2187L194.382 134.111L171.94 172.946H127.06L104.618 134.111L127.06 95.2769H172.003V95.1658L171.908 95.2187L172.003 95.1658Z" fill="#1D1D1B"/>
<path d="M169.064 100.25V100.139H129.867L110.236 134.111L129.867 168.084H169.133L188.763 134.111L169.133 100.139H169.064V100.25L168.969 100.308L188.504 134.111L169.001 167.861H129.999L110.496 134.111L129.999 100.361H169.064V100.25L168.969 100.308L169.064 100.25Z" fill="#1D1D1B"/>
<path d="M177.685 85.3351V85.2188H121.246L92.9996 134.111L121.246 182.998H177.749L206 134.111L177.749 85.2188H177.685V85.3351L177.59 85.3881L205.741 134.111L177.622 182.776H121.378L93.2538 134.111L121.378 85.4463H177.685V85.3351L177.59 85.3881L177.685 85.3351Z" fill="#1D1D1B"/>
<path d="M179.729 81.8011V81.6899H119.207L88.9115 134.111L119.207 186.532H179.793L210.089 134.111L179.793 81.6899H179.729V81.8011L179.629 81.854L209.829 134.111L179.661 186.31H119.334L89.171 134.111L119.334 81.9122H179.729V81.8011L179.629 81.854L179.729 81.8011Z" fill="#1D1D1B"/>
<path d="M87.7518 187.3L88.599 187.596L131.773 64.9499L218.381 162.708L86.5232 188.479L86.6927 189.358L87.5082 189.739C87.5082 189.739 87.7624 189.21 88.0377 188.681C88.1648 188.411 88.2972 188.151 88.3978 187.95L88.509 187.739L88.4349 187.696L88.509 187.744L88.4349 187.702L88.509 187.749L87.9477 187.39L88.4772 187.813L88.5249 187.749L87.9636 187.39L88.4931 187.813L87.8312 187.284L88.3607 187.935L88.4719 187.829L87.81 187.3L88.3396 187.95L87.7676 187.273L88.1807 188.062C88.2389 188.033 88.2924 187.995 88.3396 187.95L87.7676 187.273L88.1807 188.062L87.7676 187.268V188.162C87.911 188.159 88.052 188.125 88.1807 188.062L87.7676 187.268L87.2381 187.993C87.3918 188.105 87.5771 188.166 87.7676 188.167V187.268L87.2381 187.993L87.7676 187.273L86.8992 187.501C86.9521 187.697 87.0696 187.871 87.2328 187.993L87.7623 187.273L86.8939 187.501L87.7518 187.273H86.8621C86.8667 187.35 86.8773 187.426 86.8939 187.501L87.7518 187.273H87.6988L86.8833 187.104C86.8778 187.16 86.8778 187.217 86.8833 187.273H87.72L86.9045 187.104L87.434 187.21L86.9309 187.056V187.104L87.4605 187.21L86.9574 187.056L88.652 187.649L87.8047 187.353L88.652 187.649L88.6891 187.532V187.448C88.6937 187.383 88.6937 187.317 88.6891 187.252C88.689 187.124 88.662 186.998 88.6096 186.882C88.548 186.74 88.4492 186.617 88.3237 186.527C88.1706 186.413 87.9849 186.352 87.7941 186.353C87.6605 186.351 87.5282 186.38 87.4076 186.437C87.3148 186.483 87.2291 186.542 87.1534 186.612L87.0369 186.755C86.9837 186.832 86.9359 186.914 86.8939 186.998C86.7403 187.284 86.502 187.776 86.2902 188.215C86.0784 188.654 85.9036 189.024 85.9036 189.03L85.1464 190.617L221.807 163.888L131.095 61.4844L86.9045 187.003L88.599 187.596L87.7518 187.3Z" fill="#1D1D1B"/>
<path d="M127.193 205.241L127.526 205.188L105.862 76.0289L230.783 120.472L127.055 207.272L127.267 207.532H127.606C127.606 207.532 127.579 207.093 127.547 206.585C127.516 206.077 127.494 205.526 127.494 205.273V205.198H127.341L127.489 205.23H127.336L127.484 205.262L127.182 205.198L127.457 205.336L127.484 205.262L127.182 205.198L127.457 205.336L127.161 205.188L127.383 205.431L127.457 205.336L127.161 205.188L127.383 205.431L127.161 205.183V205.516C127.202 205.517 127.242 205.511 127.281 205.496C127.319 205.481 127.354 205.459 127.383 205.431L127.161 205.183L126.901 205.4C126.935 205.435 126.975 205.464 127.019 205.484C127.064 205.504 127.112 205.515 127.161 205.516V205.156L126.901 205.373L127.14 205.177L126.848 205.278L126.901 205.373L127.14 205.177L126.848 205.278L126.997 205.225L126.848 205.267L126.997 205.214L126.848 205.257V205.304L127.516 205.193L127.182 205.246L127.516 205.193V205.082L127.489 205.013L127.441 204.929C127.408 204.891 127.368 204.86 127.322 204.839C127.277 204.818 127.227 204.807 127.177 204.807C127.094 204.809 127.013 204.839 126.949 204.892L126.854 205.04C126.846 205.085 126.846 205.132 126.854 205.177V205.278C126.854 205.807 126.97 207.574 126.97 207.579L127.013 208.241L232.118 120.207L105.026 75.0024L126.88 205.288L127.547 205.177L127.193 205.241Z" fill="#1D1D1B"/>
<path d="M128.855 195.77H128.967L109.665 80.6003L221.347 120.281L128.855 197.749L128.93 197.834H129.041C129.041 197.834 128.94 196.247 128.94 195.813V195.733H128.855L128.935 195.776H128.85L128.93 195.818L128.829 195.765V195.876L128.93 195.818L128.829 195.765L128.744 195.834L128.829 195.876V195.765L128.744 195.834L128.813 195.781L128.734 195.807V195.834L128.803 195.781L128.723 195.807V195.871L128.946 195.834H128.834H128.946V195.755V195.723V195.691L128.855 195.649L128.755 195.712V195.797V195.882C128.755 196.342 128.855 197.913 128.855 197.913V198.135L221.792 120.228L109.384 80.2563L128.76 195.786L128.983 195.749L128.855 195.77Z" fill="#1D1D1B"/>
<path d="M73.2156 152.158L73.4433 152.412L171.362 65.3573L200.196 194.664L71.4045 153.132L71.2986 153.454L71.4998 153.724C71.4998 153.724 71.9711 153.38 72.4583 153.042L73.1309 152.571L73.3586 152.423L73.4115 152.391L73.3268 152.227L73.3956 152.396L73.3109 152.232L73.3797 152.402L73.2685 152.111V152.423H73.3797L73.2685 152.132L73.0726 152.402C73.1301 152.442 73.1983 152.464 73.2685 152.465V152.132L73.0726 152.402L73.2685 152.132H72.9349C72.9361 152.184 72.9491 152.236 72.973 152.282C72.9968 152.329 73.0309 152.37 73.0726 152.402L73.2685 152.132L72.9773 151.978C72.951 152.025 72.9382 152.078 72.9402 152.132H73.2685L72.9773 151.978L73.2262 152.111L73.0091 151.925L72.9773 151.978L73.2262 152.111L73.0091 151.925L72.9773 151.957L73.4274 152.46L73.1997 152.206L73.4274 152.46L73.5015 152.386L73.5439 152.338L73.5757 152.285C73.5985 152.237 73.6111 152.185 73.6128 152.132C73.6116 152.079 73.5986 152.026 73.5748 151.979C73.551 151.931 73.517 151.889 73.4751 151.857C73.417 151.813 73.3461 151.791 73.2738 151.793C73.2232 151.793 73.173 151.802 73.1256 151.82L72.9402 151.931C72.453 152.243 71.0921 153.227 71.0868 153.227L70.5573 153.618L201.107 195.717L171.749 64.0928L72.972 151.92L73.4221 152.423L73.2156 152.158Z" fill="#1D1D1B"/>
<path d="M64.3245 168.3L64.4092 168.374L167.142 53.5216L218.349 201.22L62.291 169.956L62.2645 170.062L62.344 170.147C62.344 170.147 62.8735 169.681 63.3766 169.216L64.1021 168.575L64.351 168.369L64.4251 168.311L64.3827 168.237V168.316H64.4251L64.3827 168.242V168.21L64.3086 168.29L64.3827 168.321V168.21L64.3086 168.29L64.3827 168.21H64.2768L64.3086 168.29L64.3827 168.21L64.3086 168.168V168.21H64.3933L64.3192 168.168L64.2556 168.237L64.4251 168.385L64.3404 168.311L64.4251 168.385L64.4886 168.311V168.279V168.21L64.4516 168.131L64.3721 168.099H64.3033C64.1521 168.209 64.0071 168.328 63.8691 168.454C63.2442 168.983 62.1639 169.977 62.1639 169.977L61.9998 170.126L218.673 201.511L167.2 53.0825L64.2503 168.226L64.4145 168.374L64.3245 168.3Z" fill="#1D1D1B"/>
<path d="M57.7739 171.882L58.4411 172.48L167.825 50.1885L221.924 206.183L55.7404 172.882L55.5604 173.76L56.1641 174.427L57.2708 173.432C57.5462 173.184 57.8269 172.935 58.0387 172.755L58.2823 172.549H58.314L58.0228 172.136L58.2717 172.57H58.314L58.0228 172.157L58.2717 172.591L57.8692 171.898L58.1817 172.639L58.2717 172.591L57.8692 171.898L58.1817 172.639L57.8427 171.824V172.708C57.9589 172.705 58.0737 172.682 58.1817 172.639L57.8427 171.824L57.5727 172.676C57.6603 172.702 57.7512 172.717 57.8427 172.718V171.824L57.5727 172.676L57.8427 171.824L57.0855 172.3C57.1993 172.478 57.3716 172.611 57.5727 172.676L57.8427 171.824L57.0855 172.3L57.8427 171.824H56.9478C56.9458 171.993 56.9937 172.159 57.0855 172.3L57.8427 171.824L57.0219 171.485C56.9757 171.592 56.954 171.708 56.9584 171.824H57.8427L57.0219 171.485L57.7792 171.798L57.1014 171.295C57.0678 171.34 57.041 171.39 57.0219 171.443L57.7792 171.755L57.1014 171.295L57.4615 171.538L57.1279 171.263L57.1014 171.295L57.4615 171.538L57.1279 171.263L57.1014 171.29L58.4411 172.485L57.7739 171.888L58.4464 172.48L58.547 172.358L58.6212 172.253L58.6847 172.126C58.7294 172.016 58.7528 171.9 58.7536 171.782C58.7536 171.681 58.7356 171.58 58.7006 171.485C58.63 171.278 58.4871 171.104 58.2982 170.993C58.1612 170.92 58.0088 170.88 57.8533 170.877C57.7392 170.878 57.6262 170.899 57.5197 170.94C57.4595 170.967 57.4012 170.997 57.345 171.03C57.2517 171.091 57.1632 171.158 57.0802 171.231C56.7731 171.485 56.2541 171.946 55.7987 172.353L54.9567 173.115L53.6593 174.305L224.662 208.558L168.529 46.7178L57.1014 171.295L58.4464 172.485L57.7739 171.882Z" fill="#1D1D1B"/>
<path d="M189.378 81.7799L189.388 81.6688L124.026 73.3252L84.0714 125.757L109.543 186.543L174.969 194.897L214.923 142.465L189.452 81.6794L189.388 81.6688L189.378 81.7799L189.272 81.8222L214.669 142.434L174.873 194.659L109.702 186.337L84.3309 125.789L124.127 73.5633L189.362 81.891L189.378 81.7799L189.272 81.8222L189.378 81.7799Z" fill="#1D1D1B"/>
<path d="M204.989 38.0886V37.75H93.8152L38.1329 134.111L93.8152 230.473H205.18L260.867 134.111L205.18 37.75H204.989V38.0886L204.698 38.2579L260.089 134.111L204.793 229.795H94.207L38.9114 134.111L94.207 38.4272H204.989V38.0886L204.698 38.2579L204.989 38.0886Z" fill="#1D1D1B"/>
<path d="M201.473 44.1782H145.208L145.515 44.4004H201.34L212.757 64.1563H213.012L201.473 44.1782ZM201.309 44.3422L201.404 44.2893L201.309 44.3422ZM144.827 44.1782H142.015L142.322 44.4004H145.134L144.827 44.1782ZM141.258 44.1782H140.198L140.506 44.4004H141.565L141.258 44.1782ZM139.431 44.1782H132.562L132.398 44.4004H139.743L139.431 44.1782ZM132.017 44.1782H131.238L131.074 44.4004H131.853L132.017 44.1782ZM130.682 44.1782H128.628L128.464 44.4004H130.518L130.682 44.1782ZM128.347 44.1782H97.5272L82.6998 69.8492H82.9699L97.6702 44.411H128.167L128.347 44.1782Z" fill="#1D1D1B"/>
<path d="M132.001 44.1782L131.837 44.4004H132.393L132.557 44.1782H132.001ZM139.415 44.1782L139.722 44.4004H140.506L140.199 44.1782H139.415Z" fill="#1D1D1B"/>
<path d="M130.667 44.1782L130.502 44.4004H131.058L131.223 44.1782H130.667ZM141.258 44.1782L141.565 44.4004H142.322L142.015 44.1782H141.258Z" fill="#1D1D1B"/>
<path d="M128.326 44.1782L128.162 44.4004H128.442L128.607 44.1782H128.326ZM144.821 44.1782L145.129 44.4004H145.51L145.203 44.1782H144.821Z" fill="#1D1D1B"/>
<path d="M213.054 64.3677H212.911L213.065 64.6322L213.054 64.3677ZM213.287 64.5793V65.0608L232.711 98.6785L233.066 98.8372L213.287 64.5793ZM232.928 99.0118L233.664 100.287L234.014 100.451L233.278 99.1759L232.928 99.0118ZM233.855 100.626L234.352 101.483L234.707 101.647L234.21 100.79L233.855 100.626ZM235.348 102.742L235.232 102.991L235.581 103.594L235.698 103.345L235.348 102.742ZM235.825 103.573L235.708 103.821L236.238 104.721L236.354 104.472L235.825 103.573ZM236.481 104.71L236.365 104.959L242.19 115.075L242.64 115.403L236.481 104.71ZM242.486 115.556L245.42 120.63L245.563 120.434L242.915 115.884L242.486 115.556ZM245.69 120.646L245.542 120.842L253.199 134.069L219.229 192.849L219.329 193.13L253.459 134.069L245.69 120.646Z" fill="#1D1D1B"/>
<path d="M242.179 115.096L242.455 115.578L242.905 115.906L242.629 115.424L242.179 115.096ZM245.531 120.456L245.388 120.652L245.51 120.863L245.658 120.667L245.531 120.456Z" fill="#1D1D1B"/>
<path d="M232.706 98.6787L232.901 99.012L233.251 99.176L233.06 98.8374L232.706 98.6787ZM236.328 104.499L236.211 104.747L236.349 104.985L236.465 104.737L236.328 104.499Z" fill="#1D1D1B"/>
<path d="M233.638 100.287L233.828 100.626L234.183 100.79L233.987 100.451L233.638 100.287ZM235.671 103.356L235.555 103.604L235.692 103.843L235.825 103.573L235.671 103.356Z" fill="#1D1D1B"/>
<path d="M234.326 101.483L235.205 103.001L235.322 102.753L234.681 101.647L234.326 101.483Z" fill="#1D1D1B"/>
<path d="M82.827 70.0713H82.5569L80.031 74.4732V74.8912L82.827 70.0713ZM79.8192 74.833L45.5573 134.111L53.008 147.005L53.151 146.804L45.8167 134.106L79.8403 75.2298L79.8192 74.833ZM53.2728 147.015L53.1298 147.216L55.7034 151.666L56.1536 151.999L53.2728 147.015ZM55.9788 152.147L62.2222 162.946L62.3334 162.697L56.4289 152.481L55.9788 152.147ZM62.4711 162.935L62.3599 163.184L62.8894 164.084L63.0006 163.835L62.4711 162.935ZM63.1277 164.073L63.0165 164.322L63.1383 164.533L63.2972 164.359L63.1277 164.073Z" fill="#1D1D1B"/>
<path d="M53.1298 146.804L52.9868 147.005L53.1086 147.216L53.2516 147.015L53.1298 146.804ZM55.6822 151.666L55.9576 152.147L56.4077 152.481L56.1323 151.999L55.6822 151.666Z" fill="#1D1D1B"/>
<path d="M62.2222 162.946L62.3546 163.184L62.4711 162.935L62.3334 162.697L62.2222 162.946Z" fill="#1D1D1B"/>
<path d="M62.8788 164.084L63.0165 164.322L63.1277 164.073L62.99 163.83L62.8788 164.084Z" fill="#1D1D1B"/>
<path d="M64.1815 166.062L64.0862 166.174L64.4569 166.819L64.8117 166.983L64.3139 166.121L64.1815 166.062ZM64.6528 167.158L64.8699 167.528L65.0235 167.353V167.316L64.6528 167.158Z" fill="#1D1D1B"/>
<path d="M64.6528 167.152L65.0076 167.316L64.8117 166.978L64.4569 166.819L64.6528 167.152Z" fill="#1D1D1B"/>
<path d="M64.1815 166.057L64.3139 166.121L64.2398 165.994L64.1815 166.057Z" fill="#1D1D1B"/>
<path d="M65.1453 167.554L64.9865 167.734L65.3889 168.427L65.7437 168.591L65.1453 167.554ZM65.5848 168.766L66.7922 170.856L67.0835 170.914L65.9343 168.93L65.5848 168.766Z" fill="#1D1D1B"/>
<path d="M65.5848 168.766L65.9344 168.93L65.7437 168.591L65.3889 168.427L65.5848 168.766Z" fill="#1D1D1B"/>
<path d="M66.9404 171.115L69.5882 175.665L69.8847 175.724L67.237 171.173L66.9404 171.115ZM70.7638 177.734L85.4482 203.13V202.643L71.0815 177.776L70.7638 177.734ZM218.026 194.95L217.026 196.691L217.121 196.971L218.122 195.236L218.026 194.95ZM216.877 196.94L216.533 197.537H216.798L216.973 197.231L216.877 196.94ZM216.665 197.754H216.401L214.812 200.495L215.04 200.543L216.665 197.754ZM214.696 200.712L212.614 204.315L212.847 204.363L214.929 200.76L214.696 200.712ZM85.6706 203.082V203.267H85.7713L85.6706 203.082ZM85.9036 203.479H85.6494L97.5273 224.039H154.306L153.999 223.817H97.6596L85.9036 203.479ZM211.667 205.96L201.34 223.827H170.097L169.933 224.05H201.462L211.889 206.003L211.667 205.96ZM169.832 223.827H167.777L167.613 224.05H169.668L169.832 223.827ZM167.221 223.827H166.454L166.289 224.05H167.068L167.221 223.827ZM165.887 223.827H159.771L160.078 224.05H165.717L165.887 223.827ZM159.003 223.827H157.944L158.251 224.05H159.31L159.003 223.827ZM157.176 223.827H154.369L154.676 224.05H157.483L157.176 223.827Z" fill="#1D1D1B"/>
<path d="M159.04 223.822L159.347 224.049H160.099L159.792 223.822H159.04ZM165.924 223.822L165.76 224.049H166.316L166.48 223.822H165.924Z" fill="#1D1D1B"/>
<path d="M157.186 223.822L157.494 224.049H158.256L157.949 223.822H157.186ZM167.216 223.822L167.052 224.049H167.608L167.772 223.822H167.216Z" fill="#1D1D1B"/>
<path d="M153.999 223.822L154.306 224.049H154.687L154.38 223.822H153.999ZM169.827 223.822L169.663 224.049H169.943L170.107 223.822H169.827Z" fill="#1D1D1B"/>
<path d="M213.012 64.1455H212.757L212.884 64.3677H213.027V64.6428L213.271 65.0608V64.5794L213.012 64.1455ZM82.9593 69.8384H82.6893L82.5569 70.0712H82.8269L82.9593 69.8384ZM80.0309 74.4732L79.8191 74.8329V75.2509L80.0256 74.8911L80.0309 74.4732ZM216.798 197.527H216.533L216.401 197.754H216.665L216.798 197.527ZM85.4323 202.659V203.145L85.6336 203.489H85.8877L85.7606 203.272H85.66V203.082L85.4323 202.659Z" fill="#1D1D1B"/>
<path d="M65.0234 167.354L64.8699 167.528L64.9864 167.734L65.1452 167.555L65.0234 167.354ZM66.7921 170.856L66.9404 171.115L67.2317 171.173L67.0834 170.914L66.7921 170.856ZM217.026 196.691L216.877 196.945L216.973 197.225L217.121 196.971L217.026 196.691ZM214.817 200.511L214.696 200.717L214.929 200.765L215.05 200.559L214.817 200.511Z" fill="#1D1D1B"/>
<path d="M63.2972 164.359L63.1383 164.533L64.0809 166.174L64.1815 166.063L64.2504 166.004L63.2972 164.359ZM69.5459 175.665L70.7427 177.734L71.0392 177.792L69.8424 175.724L69.5459 175.665ZM219.191 192.892L218.005 194.95L218.101 195.231L219.292 193.173L219.191 192.892ZM212.593 204.315L211.645 205.955L211.878 206.003L212.826 204.363L212.593 204.315Z" fill="#1D1D1B"/>
<path d="M206.89 34.7922V34.6758H92.0411L34.5796 134.111L92.0411 233.546H206.959L264.415 134.111L206.959 34.6758H206.89V34.7922L206.795 34.8451L264.156 134.111L206.826 233.319H92.1682L34.8391 134.111L92.1682 34.9033H206.89V34.7922L206.795 34.8451L206.89 34.7922Z" fill="#1D1D1B"/>
<path d="M207.843 33.147H91.1568L32.8109 134.111L55.2109 172.882C55.2638 172.84 55.3168 172.787 55.3803 172.729L33.0704 134.106L91.2838 33.3692H207.716L265.93 134.111L223.994 206.68L224.095 206.96L266.189 134.111L207.843 33.147ZM207.684 33.3163L207.78 33.2581L207.684 33.3163ZM56.3494 174.845L91.1568 235.081H207.843L223.322 208.294L223.089 208.246L207.732 234.853H91.2838L56.6407 174.903L56.3494 174.845Z" fill="#1D1D1B"/>
<path d="M55.3803 172.724C55.3167 172.782 55.2638 172.835 55.2108 172.877L56.3494 174.845L56.6406 174.903L55.3803 172.724ZM223.994 206.68L223.089 208.267L223.322 208.315L224.095 206.982L223.994 206.68Z" fill="#1D1D1B"/>
<path d="M209.845 29.6816H89.1393L28.7705 134.111L89.1393 238.541H209.845L270.214 134.111L209.845 29.6816ZM209.686 29.851L209.781 29.7928L209.686 29.851ZM89.2822 238.308L29.0671 134.08L89.2822 29.851H209.718L269.933 134.08L209.718 238.308H89.2822Z" fill="#1D1D1B"/>
<path d="M216.152 18.7718V18.6606H82.7846L16.0665 134.111L82.7846 249.562H216.215L282.928 134.111L216.215 18.6606H216.152V18.7718L216.051 18.8247L282.669 134.111L216.083 249.34H82.9117L16.326 134.111L82.9117 18.8829H216.152V18.7718L216.051 18.8247L216.152 18.7718Z" fill="#1D1D1B"/>
<path d="M217.243 16.8774H81.752L14.012 134.111L81.752 251.345H217.243L284.988 134.111L217.243 16.8774ZM217.084 17.0467L217.179 16.9885L217.084 17.0467ZM81.8844 251.122L14.2714 134.111L81.8844 17.1049H217.116L284.729 134.111L217.116 251.122H81.8844Z" fill="#1D1D1B"/>
<path d="M219.567 12.8564H79.4325L9.36243 134.111L79.4325 255.371H219.567L289.638 134.111L219.567 12.8564ZM219.409 13.0258L219.504 12.9676L219.409 13.0258ZM79.5596 255.143L9.6219 134.111L79.5596 13.0998H219.44L289.378 134.111L219.44 255.143H79.5596Z" fill="#1D1D1B"/>
<path d="M220.605 11.0579V10.9468H78.3258L7.15417 134.111L78.3258 257.276H220.669L291.84 134.111L220.669 10.9468H220.605V11.0579L220.51 11.1161L291.581 134.111L220.542 257.048H78.4581L7.41365 134.111L78.4581 11.169H220.605V11.0579L220.51 11.1161L220.605 11.0579Z" fill="#1D1D1B"/>
<path d="M221.77 9.04736H77.2031L4.94067 134.111L77.2296 259.175H221.797L294.038 134.111L221.77 9.04736ZM221.606 9.21667L221.707 9.16376L221.606 9.21667ZM77.3567 258.942L5.22133 134.08L77.3567 9.21667H221.638L293.779 134.08L221.638 258.942H77.3567Z" fill="#1D1D1B"/>
<path d="M224.249 4.75635H74.7513L0 134.111L74.7513 263.466H224.249L299 134.111L224.249 4.75635ZM74.8784 263.244L0.259483 134.111L74.8784 4.98385H224.122L298.741 134.111L224.122 263.244H74.8784Z" fill="#1D1D1B"/>
<path d="M64.9123 133.371H65.3624C65.3611 114.058 72.0621 95.3433 84.3236 80.4141C96.5852 65.4849 113.648 55.2653 132.606 51.4968C151.564 47.7282 171.243 50.6438 188.29 59.7467C205.338 68.8497 218.698 83.5768 226.096 101.419C233.494 119.26 234.47 139.113 228.86 157.594C223.249 176.075 211.399 192.04 195.327 202.769C179.256 213.499 159.958 218.329 140.721 216.436C121.485 214.543 103.501 206.045 89.8329 192.389C82.0633 184.648 75.9016 175.449 71.7021 165.32C67.5026 155.192 65.3481 144.334 65.3624 133.371H64.4622C64.4622 150.057 69.4146 166.368 78.6932 180.242C87.9718 194.116 101.16 204.93 116.59 211.316C132.019 217.701 148.998 219.372 165.378 216.117C181.758 212.861 196.804 204.826 208.614 193.027C220.423 181.228 228.466 166.195 231.724 149.83C234.982 133.464 233.31 116.501 226.919 101.085C220.527 85.6686 209.704 72.4922 195.818 63.2218C181.931 53.9515 165.605 49.0034 148.904 49.0034C126.509 49.0034 105.031 57.8921 89.1947 73.714C73.3587 89.5359 64.4622 110.995 64.4622 133.371H64.9123Z" fill="#1D1D1B"/>
<path d="M66.718 133.37H66.8292C66.8276 114.397 73.4107 96.0106 85.4566 81.3432C97.5026 66.6759 114.266 56.6355 132.891 52.9328C151.516 49.2301 170.85 52.0942 187.598 61.0371C204.346 69.98 217.472 84.4483 224.74 101.977C232.008 119.505 232.968 139.009 227.456 157.166C221.945 175.322 210.302 191.007 194.513 201.549C178.724 212.09 159.765 216.835 140.866 214.976C121.968 213.117 104.299 204.768 90.8708 191.352C83.2371 183.747 77.1832 174.709 73.0573 164.759C68.9314 154.808 66.8148 144.141 66.8292 133.37H66.6068C66.6068 149.633 71.4335 165.53 80.4764 179.052C89.5194 192.573 102.372 203.112 117.41 209.336C132.448 215.559 148.996 217.187 164.96 214.015C180.924 210.842 195.588 203.011 207.097 191.512C218.607 180.012 226.445 165.361 229.62 149.411C232.796 133.462 231.166 116.929 224.937 101.904C218.708 86.8799 208.16 74.0382 194.626 65.0033C181.092 55.9684 165.181 51.146 148.904 51.146C127.078 51.146 106.145 59.8089 90.7112 75.2289C75.2774 90.649 66.6068 111.563 66.6068 133.37H66.718Z" fill="#1D1D1B"/>
<path d="M38.4399 133.371H38.5511C38.5546 107.861 47.4112 83.1413 63.6118 63.4243C79.8125 43.7073 102.355 30.2128 127.398 25.2402C152.44 20.2676 178.434 24.1247 200.95 36.1541C223.465 48.1835 241.109 67.6409 250.876 91.2109C260.642 114.781 261.926 141.005 254.509 165.415C247.092 189.825 231.433 210.91 210.2 225.078C188.967 239.245 163.474 245.619 138.065 243.112C112.656 240.605 88.9032 229.374 70.8537 211.331C60.5947 201.103 52.4597 188.95 46.9161 175.571C41.3726 162.192 38.5298 147.851 38.5511 133.371H38.3022C38.3022 194.384 87.8152 243.848 148.883 243.848C209.951 243.848 259.458 194.384 259.458 133.371C259.458 72.3572 209.972 22.8882 148.904 22.8882C87.8364 22.8882 38.3022 72.3572 38.3022 133.371H38.4399Z" fill="#1D1D1B"/>
<path d="M15.0815 136.503H15.1927C15.1901 104.971 26.1308 74.413 46.1505 50.0369C66.1703 25.6608 94.0304 8.97435 124.984 2.82078C155.937 -3.33279 188.068 1.42729 215.903 16.2899C243.737 31.1526 265.552 55.1982 277.631 84.3295C289.71 113.461 291.305 145.875 282.145 176.05C272.984 206.225 253.635 232.292 227.394 249.811C201.153 267.33 169.644 275.216 138.236 272.126C106.828 269.036 77.4638 255.16 55.1473 232.864C42.4611 220.225 32.4004 205.205 25.5436 188.668C18.6868 172.131 15.1691 154.403 15.1927 136.503H14.9703C14.9703 211.891 76.1387 273.005 151.594 273.005C227.05 273.005 288.218 211.891 288.218 136.503C288.218 61.114 227.055 0 151.594 0C76.1334 0 14.9703 61.114 14.9703 136.503H15.0815Z" fill="#1D1D1B"/>
</g>
<defs>
<clipPath id="clip0">
<rect width="299" height="273" fill="white"/>
</clipPath>
</defs>
</svg>
