<svg width="200" height="200" viewBox="0 0 200 200" fill="none" xmlns="http://www.w3.org/2000/svg">
<path fill-rule="evenodd" clip-rule="evenodd" d="M89.869 94.8393C87.7375 93.4258 85.3051 92.4999 82.7644 92.1423C79.3969 91.6743 75.9836 92.2254 72.993 93.6741C69.9815 95.1389 67.528 97.4554 65.9288 100.233C63.6749 104.168 63.2983 108.765 64.5918 112.7C65.931 116.744 68.9472 119.835 72.3886 121.298C69.5944 118.866 67.8802 115.422 67.5925 112.064C67.3019 108.796 68.3397 105.451 70.2566 103.061C71.6223 101.343 73.4811 99.9999 75.4758 99.254C77.4548 98.5081 79.6762 98.3054 81.7228 98.669C82.6884 98.8377 83.6409 99.1364 84.5416 99.5454C85.5507 100.001 86.4989 100.596 87.3301 101.307C88.9086 102.649 90.1555 104.484 90.8246 106.477C91.5036 108.482 91.6302 110.76 91.1513 112.896C90.6714 115.059 89.5428 117.178 87.9237 118.858C86.28 120.57 84.0683 121.883 81.6252 122.527C79.1285 123.188 76.3401 123.16 73.6957 122.371C75.9806 123.923 78.8627 124.838 81.9071 124.805C84.8902 124.771 87.9465 123.828 90.5612 121.998C93.1347 120.192 95.1904 117.589 96.348 114.511C97.4893 111.463 97.707 108.073 96.906 104.816C96.104 101.578 94.3311 98.6111 91.8076 96.3403C91.1972 95.793 90.549 95.2917 89.869 94.8393Z" fill="#C01466"/>
<path fill-rule="evenodd" clip-rule="evenodd" d="M72.536 128.341C75.2776 129.928 78.3565 130.895 81.5214 131.154C85.7057 131.489 89.8907 130.573 93.4899 128.583C97.1147 126.572 100.016 123.541 101.834 119.991C104.391 114.974 104.623 109.201 102.804 104.316C100.925 99.2953 96.9879 95.4767 92.5245 93.6956C96.4006 96.4805 99.0613 100.73 99.8501 105.129C100.628 109.411 99.66 113.977 97.3419 117.433C95.6902 119.913 93.3209 121.936 90.6658 123.166C88.0312 124.393 85.0135 124.889 82.154 124.576C80.8009 124.431 79.4578 124.102 78.1781 123.613C76.755 123.072 75.4062 122.331 74.2062 121.418C71.9202 119.685 70.0824 117.26 69.0314 114.568C67.9678 111.86 67.6633 108.773 68.1959 105.848C68.7299 102.888 70.1423 99.9959 72.2262 97.6796C74.3422 95.3223 77.2064 93.5051 80.3784 92.5655C83.62 91.6034 87.2282 91.5458 90.6452 92.4622C87.5379 90.7611 83.7802 89.9398 79.9526 90.3092C76.2023 90.6734 72.472 92.1731 69.3948 94.7094C66.366 97.2106 64.0592 100.644 62.9065 104.558C61.7703 108.434 61.8015 112.651 63.0652 116.602C64.3272 120.529 66.7612 124.051 70.0479 126.651C70.8372 127.273 71.6691 127.838 72.536 128.341Z" fill="#C01466"/>
<path fill-rule="evenodd" clip-rule="evenodd" d="M50.8044 89.0032C52.4022 87.2401 53.9274 85.4052 55.3016 83.5709C55.7704 81.7883 55.7228 80.0905 55.2899 78.6294C54.7206 77.2503 53.9221 76.1872 53.0625 75.3469C50.9922 73.3053 48.6539 72.0755 46.3129 70.9247C47.3752 73.2844 48.7021 75.5711 49.4938 77.7043C49.809 78.5847 50.0419 79.3732 50.029 80.0121C50.1017 80.3618 50.1072 80.6166 50.0237 80.6526C48.9525 81.6863 47.9722 82.7345 47.0442 83.8315C46.0512 85.016 45.1183 86.257 44.1978 87.5957C41.9943 88.1758 39.8242 88.8073 37.3869 89.1577C35.6081 89.4833 33.6136 89.5438 31.6128 89.5969C33.1856 90.8153 34.9376 91.8987 37.0504 92.5742C40.2241 93.4203 43.8089 93.3207 47.2133 92.7025C48.4257 91.5294 49.633 90.2868 50.804 89.0032H50.8044Z" fill="#C01466"/>
<path fill-rule="evenodd" clip-rule="evenodd" d="M42.7883 113.467C42.4445 111.172 42.0027 108.895 41.4755 106.704C40.3093 105.052 38.759 103.787 37.035 103.047C35.4574 102.555 33.9841 102.507 32.6622 102.671C29.8474 102.997 27.482 104.053 25 104.578C27.3855 105.679 30.1531 106.013 32.3476 106.694C33.3536 107.022 34.2302 107.369 34.7937 107.843C35.2653 108.084 35.6103 108.461 35.7975 108.83C35.8837 110.436 36.0313 112.001 36.2458 113.553C36.5657 115.799 37.0258 118.015 37.6414 120.287C37.6261 121.324 37.1149 122.596 36.1261 123.639C34.7912 125.225 32.5281 126.471 30.2014 127.536C32.7048 128.083 35.5065 128.202 38.3761 126.959C40.7271 125.735 42.6421 123.438 43.4984 120.51C43.3744 118.199 43.1335 115.827 42.7883 113.467Z" fill="#C01466"/>
<path fill-rule="evenodd" clip-rule="evenodd" d="M57.9239 137.214C55.8361 135.8 53.6866 134.478 51.5868 133.324C48.4326 133.7 45.6121 134.783 43.4592 136.366C41.7044 137.837 40.4422 139.509 39.1235 141.158C41.2299 140.733 43.2301 140.033 45.1343 139.615C46.966 139.115 48.6267 138.837 50.0995 138.831C51.3196 139.851 52.5256 140.765 53.773 141.611C55.3917 142.7 57.0802 143.676 58.9574 144.622C59.5154 146.075 59.9949 147.68 60.1384 149.557C60.3652 151.224 60.2343 153.155 60.2251 155.055C61.4626 153.62 62.6685 152.101 63.4777 150.102C64.3213 147.463 64.2624 144.364 63.4976 141.368C61.7606 139.949 59.8726 138.544 57.9241 137.214H57.9239Z" fill="#C01466"/>
<path fill-rule="evenodd" clip-rule="evenodd" d="M87.8067 143.682C85.0978 144.062 82.4083 144.565 79.8831 145.175C77.6694 147.529 76.3105 150.233 75.815 152.848C75.5188 155.137 75.7326 157.242 75.7285 159.379C77.0906 157.685 78.1101 155.708 79.2207 154.077C80.2214 152.459 81.2771 151.14 82.3966 150.271C84.2133 150.19 85.9406 150.027 87.6518 149.774C89.8711 149.437 92.063 148.949 94.3856 148.296C97.1428 149.523 100.065 151.769 102.822 154.947C102.643 150.658 99.9889 146.115 95.4914 142.973C93.0072 143.086 90.4028 143.327 87.8067 143.682Z" fill="#C01466"/>
<path fill-rule="evenodd" clip-rule="evenodd" d="M112.701 130.467C111.035 132.341 109.449 134.289 108.044 136.181C108.452 139.353 109.718 141.928 111.38 143.716C113.15 145.295 115.081 146.297 117.034 147.244C116.223 145.25 115.217 143.324 114.563 141.519C113.877 140.062 113.364 138.821 113.328 137.912C114.438 136.971 115.436 136.05 116.374 135.081C117.308 134.106 118.183 133.081 119.051 131.938C125.26 130.307 123.611 131.504 130.963 129.562C126.882 127.501 121.897 126.165 116.231 126.759C115.041 127.929 113.854 129.179 112.701 130.467Z" fill="#C01466"/>
<path fill-rule="evenodd" clip-rule="evenodd" d="M119.101 104.554C119.524 106.913 120.032 109.26 120.617 111.48C123.285 113.757 126.174 114.79 128.768 115.135C131.467 115.358 133.983 115.083 136.524 114.926C134.413 113.471 132.046 112.371 129.943 111.218C128.134 110.313 126.57 109.568 125.841 108.646C125.655 107.282 125.414 105.985 125.116 104.699C124.729 103.067 124.249 101.453 123.67 99.7437C124.481 98.6425 125.83 97.5284 127.417 96.2823C129.094 94.7793 131.028 93.3346 132.725 91.6438C130.379 91.9089 128.018 92.1272 125.567 92.8658C122.98 93.9004 120.385 95.7564 118.214 98.4415C118.44 100.432 118.737 102.495 119.101 104.554Z" fill="#C01466"/>
<path fill-rule="evenodd" clip-rule="evenodd" d="M104.665 81.6818C106.839 83.1867 109.089 84.5919 111.284 85.8014C114.36 85.6221 117.146 84.6813 119.266 83.1856C120.989 81.8062 122.191 80.2169 123.488 78.6715C121.458 79.0126 119.533 79.6546 117.723 79.9768C115.965 80.3763 114.369 80.5062 112.988 80.3705C111.731 79.2914 110.49 78.3373 109.196 77.4575C107.953 76.6205 106.66 75.8513 105.258 75.1049C104.758 73.8609 104.528 72.2194 104.38 70.3224C104.108 68.1855 104.055 65.7956 103.854 63.4572C102.467 65.3544 101.19 67.3762 100.347 69.7985C99.6535 72.3819 99.6152 75.4184 100.471 78.5557C101.805 79.6201 103.216 80.672 104.665 81.6818Z" fill="#C01466"/>
<path fill-rule="evenodd" clip-rule="evenodd" d="M74.589 75.6018C77.853 74.9957 81.1012 74.22 84.0991 73.2787C86.3884 71.2226 87.6146 68.7096 87.9765 66.319C88.2211 63.9965 87.8845 61.9035 87.6112 59.8081C86.5556 61.6317 85.691 63.6533 84.6679 65.2276C83.79 66.6692 82.7955 67.8013 81.7823 68.2565C79.504 68.5171 77.3684 68.9123 75.2448 69.4389C73.3663 69.9124 71.4974 70.488 69.5505 71.1617C66.6568 69.2964 63.7477 65.9465 60.3125 62.568C60.9995 67.3734 63.477 72.5028 68.3105 76.5438C70.3593 76.3023 72.4742 75.9881 74.589 75.6018Z" fill="#C01466"/>
<path fill-rule="evenodd" clip-rule="evenodd" d="M54.3494 68.7657C54.867 68.5113 55.3585 68.214 55.8132 67.8739C56.7186 67.1911 57.4328 66.3685 57.9843 65.4983C58.5261 64.6432 58.9227 63.7489 59.2836 62.8831C58.6489 63.5734 57.9612 64.3942 57.3075 65.0743C56.6195 65.7893 55.8703 66.4588 55.0437 67.006C54.7323 67.214 54.4077 67.4069 54.0722 67.5862C53.3547 67.9714 52.5833 68.2971 51.7909 68.5732C50.136 69.15 48.3392 69.5366 46.6143 69.8796C48.3843 70.0557 50.2783 70.019 52.1513 69.5571C52.9077 69.3705 53.649 69.1087 54.3494 68.7657Z" fill="#C01466"/>
<path fill-rule="evenodd" clip-rule="evenodd" d="M29.5414 96.1874C30.2397 93.7569 30.7445 91.2998 31.0306 88.9384C30.0775 91.0145 29.2497 93.2519 28.5846 95.5508C27.886 97.9813 27.3813 100.438 27.0952 102.8C28.0486 100.724 28.8761 98.4864 29.5414 96.1874Z" fill="#C01466"/>
<path fill-rule="evenodd" clip-rule="evenodd" d="M35.049 134.957C33.631 133.213 32.0249 131.592 30.3101 130.175C31.2144 131.918 32.3609 133.654 33.6981 135.307C35.1158 137.051 36.7221 138.671 38.437 140.088C37.5324 138.346 36.3863 136.609 35.049 134.957Z" fill="#C01466"/>
<path fill-rule="evenodd" clip-rule="evenodd" d="M68.1473 157.908C65.7952 157.272 63.41 156.817 61.1094 156.565C63.1044 157.44 65.2621 158.198 67.4865 158.803C69.8382 159.439 72.2235 159.895 74.5241 160.147C72.5292 159.271 70.3713 158.513 68.1473 157.908Z" fill="#C01466"/>
<path fill-rule="evenodd" clip-rule="evenodd" d="M110.052 151.396C107.955 152.669 105.981 154.085 104.229 155.573C106.28 154.712 108.345 153.657 110.332 152.455C112.429 151.182 114.403 149.766 116.154 148.279C114.103 149.139 112.038 150.194 110.052 151.396Z" fill="#C01466"/>
<path fill-rule="evenodd" clip-rule="evenodd" d="M132.563 122.41C131.806 124.658 131.305 126.937 131.084 129.131C132.199 127.22 133.139 125.155 133.861 123.028C134.618 120.78 135.119 118.502 135.34 116.307C134.225 118.219 133.285 120.284 132.563 122.41Z" fill="#C01466"/>
<path fill-rule="evenodd" clip-rule="evenodd" d="M128.168 84.838C129.394 87.0534 130.769 89.1431 132.227 91.0035C131.421 88.8457 130.417 86.669 129.26 84.5704C128.034 82.355 126.658 80.2652 125.201 78.4049C126.007 80.5626 127.011 82.7392 128.168 84.838Z" fill="#C01466"/>
<path fill-rule="evenodd" clip-rule="evenodd" d="M95.964 61.3706C98.6438 62.0008 101.339 62.3816 103.917 62.4938C101.605 61.5013 99.1252 60.6861 96.5903 60.0843C93.9105 59.4541 91.2148 59.0734 88.6372 58.9611C90.9501 59.9536 93.4292 60.7689 95.964 61.3706Z" fill="#C01466"/>
<path fill-rule="evenodd" clip-rule="evenodd" d="M130.869 34.7658C128.355 35.8362 126.207 37.6017 124.686 39.8376C123.043 42.2661 122.23 45.1157 122.311 47.9535C122.4 50.8174 123.399 53.519 125.068 55.6779C127.136 58.3417 130.1 59.9972 133.139 60.4525C136.259 60.9141 139.284 60.0849 141.48 58.4751C138.851 59.1248 136.111 58.812 133.927 57.771C131.794 56.7615 130.073 55.0162 129.153 53.0895C128.395 51.5197 128.096 49.7327 128.276 48.0983C128.448 46.4771 129.097 44.8764 130.065 43.6254C130.69 42.811 131.483 42.0978 132.362 41.5424C132.835 41.2413 133.336 40.9849 133.851 40.7831C135.317 40.2015 137.029 40.0177 138.624 40.2863C140.231 40.5503 141.854 41.302 143.143 42.4174C144.451 43.5418 145.503 45.1245 146.047 46.8846C146.603 48.6737 146.653 50.7397 146.111 52.705C145.559 54.7157 144.366 56.6774 142.65 58.2074C144.825 57.4189 146.855 55.87 148.265 53.7134C149.644 51.5997 150.381 48.9792 150.221 46.2505C150.06 43.5634 149.04 40.892 147.224 38.6844C145.423 36.5027 142.937 34.8849 140.098 34.1221C137.272 33.3697 134.252 33.5024 131.474 34.5257C131.27 34.6013 131.069 34.6813 130.869 34.7658Z" fill="#C01466"/>
<path fill-rule="evenodd" clip-rule="evenodd" d="M145.185 67.0748C148.101 65.6208 150.555 63.3792 152.247 60.6293C154.105 57.597 154.953 54.0864 154.721 50.6346C154.482 47.1517 153.15 43.8818 151.023 41.2922C148.358 38.0586 144.59 36.0766 140.75 35.5996C136.808 35.116 132.98 36.2383 130.188 38.3492C133.474 37.1802 137.077 37.2268 140.1 38.3402C143.051 39.4194 145.567 41.5485 147.037 44.0823C148.23 46.1204 148.823 48.5067 148.74 50.7749C148.663 53.0248 147.921 55.283 146.678 57.1101C145.894 58.27 144.882 59.3006 143.733 60.1273C143.073 60.6051 142.366 61.0165 141.629 61.3465C139.615 62.2556 137.263 62.6053 135.035 62.3123C132.791 62.0237 130.544 61.0625 128.742 59.5868C126.915 58.0982 125.458 56.0053 124.681 53.6715C123.888 51.2995 123.775 48.591 124.429 46.0226C125.097 43.3955 126.582 40.8615 128.712 38.8826C126.079 40.152 123.735 42.3253 122.224 45.1467C120.745 47.9113 120.108 51.2158 120.559 54.5434C121.008 57.8201 122.495 60.9969 124.884 63.5345C127.254 66.0428 130.406 67.8194 133.901 68.54C137.378 69.2503 141.035 68.8848 144.331 67.4711C144.619 67.3466 144.904 67.2145 145.185 67.0751V67.0748Z" fill="#C01466"/>
<path fill-rule="evenodd" clip-rule="evenodd" d="M113.393 58.7646C112.825 57.3571 112.186 55.9758 111.495 54.69C108.93 52.8778 106.514 52.686 104.722 53.203C102.604 53.8874 101.009 55.0498 99.4487 56.3298C101.609 56.9326 103.119 57.0971 104.927 57.6267C106.092 57.9891 106.758 58.0942 106.45 58.2595C106.693 58.9868 106.974 59.6616 107.301 60.317C107.775 61.2494 108.342 62.1439 109.025 63.0949C108.764 64.1898 108.563 65.525 108.153 66.8757C107.88 68.0334 107.322 69.2898 106.75 70.598C108.144 70.3203 109.524 69.8619 110.841 68.932C112.62 67.4341 113.95 65.1773 114.795 62.8217C114.406 61.4906 113.933 60.1175 113.393 58.7646Z" fill="#C01466"/>
<path fill-rule="evenodd" clip-rule="evenodd" d="M126.493 71.1127C124.855 70.5413 123.183 70.076 121.54 69.7368C119.985 69.8709 118.492 70.3983 117.261 71.2619C116.328 72.094 115.755 73.0131 115.414 73.9167C114.683 75.8164 114.767 77.4368 114.368 79.1855C115.964 78.4217 117.403 76.9573 118.559 76.215C119.13 75.8654 119.627 75.623 120.014 75.6143C120.213 75.5559 120.439 75.6066 120.625 75.655C121.675 76.2 122.719 76.6615 123.785 77.0484C125.339 77.6013 126.939 77.9962 128.674 78.2623C129.188 78.4198 129.877 78.7791 130.282 79.4618C130.989 80.451 131.215 82.1369 131.259 83.8842C132.61 82.7763 133.806 81.2541 134.083 78.9872C134.107 76.9295 133.156 74.8101 131.459 73.2656C129.896 72.4486 128.216 71.7227 126.493 71.1125V71.1127Z" fill="#C01466"/>
<path fill-rule="evenodd" clip-rule="evenodd" d="M147.407 70.5327C145.494 71.352 143.636 72.3027 141.998 73.3074C141.055 75.4987 140.795 77.6853 141.188 79.5179C141.682 81.0429 142.479 82.1893 143.271 83.4276C144.372 80.8768 143.679 81.8732 144.687 79.5509C145.048 78.5248 145.419 77.7791 145.778 77.3117C146.989 77.0512 148.064 76.739 149.093 76.3314C150.149 75.9048 151.159 75.3764 152.223 74.6994C153.233 74.7773 154.384 74.8401 155.68 75.1538C156.881 75.3781 158.194 75.9035 159.591 76.3405C159.181 74.9753 158.683 73.638 157.677 72.3521C156.2 70.7666 154.036 69.6123 151.715 68.9725C150.299 69.3956 148.84 69.9263 147.407 70.5327Z" fill="#C01466"/>
<path fill-rule="evenodd" clip-rule="evenodd" d="M160.919 56.8446C160.164 58.6733 159.517 60.5461 159.036 62.326C159.989 64.7297 161.459 66.5166 163.103 67.5878C164.657 68.4004 166.152 68.7221 167.717 69.2138C167.2 67.7016 166.31 66.2294 165.742 64.9907C165.173 63.9284 164.783 63.1028 164.71 62.5206C165.284 61.5656 165.747 60.6567 166.13 59.7198C166.59 58.5718 166.932 57.3802 167.215 56.0111C168.668 54.9454 170.958 53.838 174.012 52.7934C171.282 50.9318 167.206 50.6374 163.152 52.2132C162.353 53.6528 161.595 55.2283 160.919 56.8446Z" fill="#C01466"/>
<path fill-rule="evenodd" clip-rule="evenodd" d="M160.803 40.3273C161.433 41.8234 162.136 43.2884 162.869 44.6228C165.308 45.5106 167.611 45.6322 169.477 45.1516C171.173 44.4888 172.48 43.4993 173.774 42.4084C172.515 42.0005 170.218 41.455 169.217 41.1379C168.135 40.9051 167.34 40.7572 166.934 40.5555C166.768 39.8478 166.577 39.2148 166.337 38.6067C166.011 37.7999 165.6 37.0347 165.051 36.1933C165.285 34.8902 166.415 31.6808 166.852 28.9022C163.897 30.1362 161.146 32.4276 159.323 36.2446C159.731 37.5767 160.236 38.9626 160.803 40.3273Z" fill="#C01466"/>
<path fill-rule="evenodd" clip-rule="evenodd" d="M146.316 28.3593C147.988 28.9135 149.691 29.382 151.329 29.7223C153.893 28.8787 155.697 27.4554 156.85 25.9094C157.894 24.3007 158.448 22.682 159.119 20.9921C157.376 21.4523 155.676 22.2768 154.216 22.8614C152.989 23.3968 152.077 23.8153 151.492 23.7781C150.633 23.4173 149.805 23.1392 148.958 22.9215C147.78 22.6268 146.564 22.4475 145.188 22.3234C144.852 21.8603 144.537 20.9965 144.156 19.8286C143.63 18.548 143.159 16.8799 142.479 15.4453C141.696 16.8455 140.907 18.1795 140.437 19.8779C140.146 21.8354 140.498 24.1525 141.611 26.5153C143.085 27.1827 144.683 27.8109 146.316 28.3593Z" fill="#C01466"/>
<path fill-rule="evenodd" clip-rule="evenodd" d="M125.968 28.9108C127.982 28.0756 129.945 27.0885 131.657 26.0354C132.711 23.9713 133.06 21.8425 132.715 20.0417C132.275 18.5513 131.517 17.4668 130.793 16.2631C130.137 17.6413 129.887 18.7745 129.322 19.9036C128.922 20.8486 128.475 21.5003 128.07 21.8814C126.809 22.1294 125.706 22.44 124.647 22.8631C123.865 23.1819 123.107 23.5625 122.324 24.0249C120.388 24.058 117.754 22.9178 114.109 22.1093C115.407 25.4404 118.084 28.6086 122.87 30.043C123.896 29.7138 124.937 29.3327 125.968 28.9108Z" fill="#C01466"/>
<path fill-rule="evenodd" clip-rule="evenodd" d="M112.644 42.9907C113.477 40.7229 114.164 38.3835 114.587 36.1856C113.844 33.7641 112.442 32.1461 110.911 31.2421C109.315 30.4425 107.769 30.1709 106.176 29.868C106.939 31.3421 107.823 32.5569 108.429 33.8191C108.928 34.7826 109.212 35.5139 109.028 35.847C108.404 37.1377 107.967 38.3548 107.643 39.6238C107.391 40.6371 107.209 41.6841 107.061 42.8265C105.242 43.6806 102.037 44.4699 98.709 45.8463C101.984 47.6633 106.352 48.1931 111.104 46.7148C111.647 45.5267 112.168 44.2721 112.644 42.9907Z" fill="#C01466"/>
<path fill-rule="evenodd" clip-rule="evenodd" d="M100.765 51.1294C100.773 50.7599 100.747 50.3905 100.677 50.0274C100.536 49.3024 100.237 48.6367 99.8526 48.0451C99.4744 47.4637 99.0208 46.9494 98.5737 46.4642C98.812 47.0426 99.1179 47.693 99.3431 48.2784C99.5793 48.8939 99.7648 49.5285 99.8434 50.1653C99.8743 50.4057 99.8912 50.6486 99.8952 50.893C99.9024 51.416 99.8556 51.9492 99.7679 52.4776C99.5838 53.581 99.2263 54.7001 98.8645 55.7649C99.5833 54.8466 100.204 53.7896 100.538 52.6037C100.673 52.1247 100.753 51.6292 100.766 51.1294H100.765Z" fill="#C01466"/>
<path fill-rule="evenodd" clip-rule="evenodd" d="M110.366 73.8729C109.004 72.6848 107.558 71.5948 106.102 70.6571C107.143 71.8688 108.334 73.0643 109.621 74.1904C110.983 75.3786 112.428 76.4685 113.885 77.4063C112.843 76.1946 111.653 74.9991 110.366 73.8729Z" fill="#C01466"/>
<path fill-rule="evenodd" clip-rule="evenodd" d="M137.761 83.638C136.13 83.8442 134.516 84.1952 133 84.6737C134.454 84.75 135.988 84.6909 137.531 84.4989C139.162 84.2927 140.776 83.9418 142.293 83.4634C140.838 83.387 139.304 83.4461 137.761 83.638Z" fill="#C01466"/>
<path fill-rule="evenodd" clip-rule="evenodd" d="M164.141 72.9563C162.921 74.0438 161.809 75.2096 160.86 76.3956C162.116 75.5841 163.349 74.6439 164.505 73.6167C165.725 72.5292 166.837 71.3633 167.787 70.1772C166.531 70.9887 165.297 71.929 164.141 72.9563Z" fill="#C01466"/>
<path fill-rule="evenodd" clip-rule="evenodd" d="M174.128 47.6857C174.252 49.2633 174.511 50.8196 174.894 52.2773C175.026 50.8615 175.035 49.3738 174.921 47.8807C174.797 46.3032 174.537 44.7468 174.154 43.2892C174.022 44.705 174.013 46.1926 174.128 47.6857H174.128Z" fill="#C01466"/>
<path fill-rule="evenodd" clip-rule="evenodd" d="M162.715 25.6928C163.937 26.8531 165.266 27.8819 166.636 28.7282C165.757 27.4819 164.718 26.2817 163.564 25.181C162.342 24.0207 161.014 22.9918 159.644 22.1456C160.522 23.3919 161.562 24.5922 162.715 25.6928Z" fill="#C01466"/>
<path fill-rule="evenodd" clip-rule="evenodd" d="M136.487 15.7096C138.363 15.7654 140.207 15.6958 141.928 15.5063C140.233 15.2383 138.459 15.0733 136.683 15.0184C134.808 14.9633 132.963 15.0322 131.243 15.2218C132.937 15.4897 134.712 15.6548 136.487 15.7096Z" fill="#C01466"/>
<path fill-rule="evenodd" clip-rule="evenodd" d="M110.072 25.7271C111.399 24.4567 112.568 23.0951 113.52 21.7101C112.079 22.6583 110.698 23.7568 109.439 24.9567C108.111 26.2271 106.942 27.5886 105.99 28.9736C107.431 28.0256 108.812 26.927 110.072 25.7271Z" fill="#C01466"/>
</svg>
