<svg width="150" height="150" viewBox="0 0 150 150" fill="none" xmlns="http://www.w3.org/2000/svg">
<path fill-rule="evenodd" clip-rule="evenodd" d="M77.6254 118.866C60.8161 118.739 43.9943 119.553 26.8377 122.245C28.9426 110.079 28.1213 98.1258 25.7202 86.3216C22.5765 73.645 18.2537 60.9317 14.5439 48.9615C15.3982 62.1342 17.0568 73.8897 18.2192 87.2943C20.0295 100.243 21.8551 113.89 21.7001 127.137C37.3022 125.33 53.4441 124.716 69.8724 124.663C89.4139 124.592 109.566 125.324 128.628 125.751C127.279 100.354 132.992 73.0175 136.644 49.5142C127.374 72.1546 120.498 95.7347 122.918 120.775C107.752 119.869 92.7465 118.988 77.6254 118.866Z" fill="#010A2D"/>
<path fill-rule="evenodd" clip-rule="evenodd" d="M120.381 69.9716C125.527 63.0758 129.505 55.5024 132.723 48.1755C127.7 54.0412 123.092 60.3971 118.335 66.8542C118.062 67.2268 117.788 67.599 117.514 67.971C112.701 74.4995 108.196 80.4855 102.785 86.011C109.557 82.2948 115.399 76.618 120.312 70.0643C120.335 70.0334 120.358 70.0025 120.381 69.9716Z" fill="#010A2D"/>
<path fill-rule="evenodd" clip-rule="evenodd" d="M85.3289 69.9133C85.6133 70.3764 85.9065 70.8339 86.2083 71.2855C90.4262 77.5786 95.9733 82.5822 101.418 86.8634C97.92 81.6139 92.611 74.7717 89.1303 69.3766C89.0628 69.2723 88.9955 69.1678 88.9285 69.0632C84.7758 62.611 81.5326 55.7202 79.3092 48.5635C79.2014 55.7613 81.2597 63.2592 85.3289 69.9133Z" fill="#010A2D"/>
<path fill-rule="evenodd" clip-rule="evenodd" d="M65.9836 69.9874C70.3413 62.9888 73.0798 55.3282 74.5926 47.8556C71.0584 54.1582 67.5026 60.7595 63.6395 67.1205C63.1019 68.0092 62.5587 68.8928 62.0081 69.772C58.3433 75.6139 54.5266 81.0098 49.9404 85.8305C55.8224 82.6197 60.8966 77.6069 64.8957 71.6632C65.2681 71.1107 65.6307 70.5519 65.9836 69.9874Z" fill="#010A2D"/>
<path fill-rule="evenodd" clip-rule="evenodd" d="M30.7956 69.6471C35.9196 76.2375 42.0735 81.6998 48.8454 85.5204C43.7501 80.0524 39.1203 74.5445 34.3113 68.4577C29.3005 62.1385 24.5271 55.7398 19.8018 49.5912C22.3212 56.5219 25.9656 63.4123 30.7956 69.6471Z" fill="#010A2D"/>
<path fill-rule="evenodd" clip-rule="evenodd" d="M10.7973 36.1261C10.2849 36.3538 9.79727 36.6379 9.34444 36.9744C8.19939 37.8284 7.32377 38.9834 6.81183 40.2945C6.29926 41.6135 6.17732 43.034 6.43484 44.3807C6.90998 46.8114 8.57907 48.7389 10.6422 49.5837C12.7761 50.445 15.0892 50.0605 16.6378 48.9194C14.8004 49.4037 12.8354 48.9783 11.5185 47.9783C10.2349 47.019 9.43047 45.4377 9.38151 43.9953C9.34559 43.1692 9.52366 42.3265 9.87513 41.6085C10.2229 40.8928 10.7642 40.2519 11.4019 39.7944C11.4596 39.7527 11.5185 39.7122 11.5784 39.6731C12.1773 39.2793 12.884 39.0132 13.5978 38.918C14.3847 38.8107 15.2338 38.9058 15.9987 39.1956C16.7703 39.4858 17.5026 39.9947 18.0655 40.6507C18.6365 41.3133 19.06 42.1623 19.249 43.0737C19.4423 43.9997 19.3973 45.0245 19.0907 45.9947C18.7783 46.9854 18.1849 47.9395 17.3606 48.7054C18.4077 48.2857 19.3816 47.5339 20.0946 46.5112C20.7933 45.5074 21.223 44.2701 21.2724 42.9519C21.3196 41.6528 20.9975 40.3193 20.3058 39.1332C19.6197 37.9603 18.5998 36.9767 17.3509 36.3247C16.109 35.6788 14.6939 35.3865 13.2716 35.4983C12.4161 35.5671 11.5793 35.7802 10.7973 36.1261Z" fill="#010A2D"/>
<path fill-rule="evenodd" clip-rule="evenodd" d="M76.9524 31.8689C74.7962 31.8165 72.6935 32.6366 71.1574 34.1394C69.9834 35.3006 69.2228 36.788 68.9567 38.3579C68.6907 39.946 68.9452 41.5425 69.6213 42.9023C70.3107 44.2837 71.4088 45.362 72.6726 46.0086C73.9654 46.6688 75.3905 46.8561 76.6657 46.6301C75.3985 46.3975 74.2436 45.8007 73.38 44.985C72.5336 44.1875 71.939 43.1585 71.6762 42.1078C71.4151 41.074 71.4588 39.9698 71.7733 39.0121C72.0816 38.0635 72.6714 37.1957 73.4091 36.5788C74.1428 35.9544 75.1094 35.5501 76.0854 35.4134C76.6172 35.3375 77.156 35.3406 77.6674 35.4344C79.1196 35.6775 80.5867 36.6971 81.3477 38.0495C82.1403 39.4184 82.3031 41.3421 81.6582 42.9707C81.002 44.6588 79.4199 46.1633 77.4385 46.7504C79.5231 46.8758 81.8279 45.8766 83.2526 43.8772C84.6254 41.9288 85.0123 39.2502 84.0573 36.8152C83.0983 34.4254 80.9658 32.5917 78.3539 32.03C77.8895 31.9344 77.4205 31.8812 76.9524 31.869V31.8689Z" fill="#010A2D"/>
<path fill-rule="evenodd" clip-rule="evenodd" d="M141.595 32.3866C140.282 31.7325 138.825 31.4049 137.36 31.4371C135.54 31.4804 133.786 32.078 132.342 33.1196C130.887 34.1722 129.811 35.6323 129.234 37.2571C128.455 39.4703 128.658 41.8503 129.636 43.7662C130.645 45.7333 132.411 47.0983 134.28 47.6178C132.665 46.5662 131.515 44.9251 131.083 43.2071C130.658 41.5349 130.892 39.7162 131.656 38.2956C132.219 37.2374 133.087 36.3374 134.086 35.7516C135.077 35.1676 136.249 34.8595 137.378 34.878C137.97 34.886 138.567 34.9839 139.138 35.1612C139.655 35.3205 140.152 35.5452 140.606 35.8293C141.563 36.425 142.379 37.318 142.893 38.3428C143.414 39.3732 143.654 40.5955 143.555 41.7843C143.457 42.9873 143.003 44.2117 142.252 45.2293C141.49 46.2652 140.394 47.1208 139.129 47.6248C137.836 48.1409 136.342 48.2982 134.882 48.031C136.202 48.7196 137.802 49.0215 139.423 48.7969C141.01 48.5757 142.573 47.8558 143.832 46.6863C145.071 45.5328 145.971 43.9851 146.352 42.2493C146.727 40.5305 146.578 38.6976 145.893 37.0193C145.209 35.3514 144.026 33.9091 142.5 32.9067C142.208 32.7156 141.906 32.542 141.595 32.3866Z" fill="#010A2D"/>
</svg>
