<svg width="127" height="127" viewBox="0 0 127 127" fill="none" xmlns="http://www.w3.org/2000/svg">
<g clip-path="url(#clip0)">
<path d="M32.135 97.1163L32.59 97.2929L55.7635 25.1456L102.245 82.6573L31.479 97.8107L31.5717 98.3285L32.0135 98.5535C32.0135 98.5535 32.1483 98.2365 32.2874 97.922C32.3581 97.7647 32.4288 97.6075 32.4818 97.4937C32.5061 97.4381 32.5282 97.3921 32.5415 97.3679L32.5017 97.3413L32.5392 97.3679L32.4995 97.3413L32.537 97.3679L32.2366 97.1574L32.5127 97.3994L32.537 97.3607L32.2366 97.1502L32.5127 97.3921L32.1593 97.0703L32.4531 97.455L32.5127 97.3921L32.1593 97.0703L32.4531 97.455L32.1615 97.0607L32.3824 97.5252C32.4134 97.5072 32.4423 97.4853 32.4686 97.4599L32.1615 97.0607L32.3824 97.5252L32.1615 97.0582V97.5833C32.2382 97.5823 32.3137 97.5624 32.3824 97.5252L32.1615 97.0582L31.8744 97.4816C31.9574 97.5492 32.0581 97.5857 32.1615 97.5857V97.0582L31.8744 97.4816L32.1593 97.0582L31.6955 97.1937C31.7234 97.3092 31.7866 97.4108 31.8744 97.4816L32.1593 97.0582L31.6955 97.1937L32.1549 97.0607H31.68C31.6795 97.1056 31.6847 97.1504 31.6955 97.1937L32.1549 97.0607H32.1284L31.6866 96.9615C31.6831 96.9944 31.6831 97.0277 31.6866 97.0607H32.1284L31.6866 96.9615L31.9627 97.0244L31.6932 96.9324V96.9615L31.9694 97.0244L31.6999 96.9324V96.9445L32.6099 97.2953L32.1549 97.1187L32.6099 97.2929L32.6298 97.2252L32.6431 97.1768C32.649 97.1384 32.6527 97.0996 32.6541 97.0607C32.6526 96.9858 32.6384 96.912 32.6121 96.8429C32.5771 96.7599 32.524 96.6877 32.4575 96.6324C32.3721 96.5618 32.2685 96.5228 32.1615 96.5211C32.0897 96.5205 32.0187 96.5378 31.9539 96.5719C31.903 96.5961 31.8571 96.6316 31.8191 96.676L31.7573 96.7558C31.7281 96.8019 31.7022 96.8504 31.68 96.901C31.5983 97.0679 31.4591 97.3607 31.3553 97.6268L31.1476 98.1107L30.7412 99.0543L104.094 83.3275L55.4101 23.0818L31.68 96.9421L32.59 97.2905L32.135 97.1163Z" fill="#1D1D1B"/>
<path d="M53.3051 107.676L53.4818 107.642L41.8564 31.6498L108.901 57.7805L53.2366 108.881L53.3537 109.033L53.5348 109.018C53.5348 109.018 53.5193 108.76 53.5039 108.464C53.4884 108.169 53.473 107.83 53.473 107.693V107.651H53.3912L53.4707 107.671V107.651H53.389L53.4685 107.671L53.3051 107.63L53.4531 107.714L53.4685 107.671L53.3051 107.63L53.4531 107.714L53.2962 107.625L53.4133 107.77L53.4531 107.714L53.2962 107.625L53.4133 107.77L53.294 107.622V107.818C53.3379 107.819 53.3805 107.802 53.4133 107.77L53.294 107.622L53.1571 107.748C53.1732 107.771 53.194 107.789 53.2178 107.801C53.2416 107.814 53.2678 107.819 53.294 107.818V107.622L53.1571 107.748L53.283 107.634L53.1284 107.693L53.1571 107.748L53.283 107.634L53.1284 107.693L53.2057 107.664L53.1262 107.685L53.2035 107.656L53.124 107.678V107.709L53.4796 107.642L53.3029 107.676L53.4796 107.642V107.579L53.4663 107.535L53.4398 107.489C53.4227 107.466 53.4011 107.448 53.3766 107.435C53.3522 107.423 53.3255 107.417 53.2985 107.417C53.2535 107.416 53.2099 107.434 53.177 107.468L53.1262 107.552C53.1185 107.578 53.114 107.605 53.1129 107.632V107.695C53.1129 108.012 53.1725 109.045 53.1725 109.047L53.1968 109.437L109.616 57.6426L41.397 31.0498L53.1262 107.707L53.4818 107.642L53.3051 107.676Z" fill="#1D1D1B"/>
<path d="M54.2037 102.101H54.2634L43.897 34.34L103.837 57.7052L54.2015 103.26L54.2413 103.31H54.3009C54.3009 103.31 54.2457 102.381 54.2479 102.123V102.074L54.2015 102.062L54.2435 102.086V102.074L54.1971 102.062L54.2391 102.086L54.186 102.057V102.12L54.2501 102.086L54.1971 102.057L54.1529 102.098L54.1971 102.123V102.057L54.1529 102.098L54.1883 102.067L54.1441 102.084V102.098L54.1794 102.067L54.1352 102.084V102.123L54.2545 102.101H54.1949H54.2545V102.052V102.033V102.016L54.2059 101.989L54.1529 102.028L54.1419 102.077V102.127C54.1419 102.398 54.1949 103.323 54.1949 103.323V103.453L104.076 57.6543L43.7446 34.1367L54.1441 102.125L54.2634 102.103L54.2037 102.101Z" fill="#1D1D1B"/>
<path d="M24.3352 76.4395L24.4567 76.5871L77.0017 25.3685L92.4749 101.452L23.3544 77.0153L23.2992 77.2041L23.403 77.3662C23.403 77.3662 23.6593 77.1629 23.9199 76.9621L24.28 76.6863L24.4015 76.5992L24.4324 76.5798L24.3904 76.483L24.4235 76.5847L24.3816 76.4879L24.4147 76.5895L24.3573 76.4177V76.5992H24.4147L24.3573 76.4274V76.4129L24.2513 76.5726C24.2818 76.5975 24.3192 76.6103 24.3573 76.6089V76.4129L24.2513 76.5726L24.3573 76.4129H24.1762C24.1768 76.444 24.1839 76.4745 24.1969 76.5022C24.21 76.5298 24.2285 76.5539 24.2513 76.5726L24.3573 76.4129L24.2004 76.3258C24.1882 76.3529 24.1814 76.3826 24.1806 76.4129H24.3573L24.2004 76.3258L24.3352 76.4008L24.2203 76.2919L24.2004 76.3258L24.3352 76.4008L24.2203 76.2919L24.2027 76.3088L24.4434 76.604L24.3219 76.4564L24.4434 76.604L24.4832 76.5629L24.5053 76.5339L24.5229 76.5024C24.5361 76.4739 24.5429 76.4424 24.5428 76.4105C24.5427 76.3792 24.5358 76.3485 24.5227 76.3208C24.5097 76.293 24.4908 76.269 24.4677 76.2508C24.4376 76.2246 24.4001 76.2109 24.3617 76.2121C24.3344 76.2109 24.3071 76.2167 24.2822 76.229L24.1806 76.2943C23.9199 76.4782 23.1888 77.054 23.1888 77.0565L22.8994 77.2839L92.9742 102.04L77.2226 24.6233L24.2093 76.2943L24.4501 76.5895L24.3352 76.4395Z" fill="#1D1D1B"/>
<path d="M19.5708 85.9388L19.6149 85.9823L74.7488 18.4054L102.232 105.307L18.4707 86.9186L18.4575 86.984L18.4994 87.0324L19.0539 86.4831C19.193 86.3476 19.3344 86.2097 19.4448 86.1081L19.5774 85.9847L19.6171 85.9533L19.5951 85.9097V85.9581H19.6171L19.5951 85.9146V85.8758L19.5531 85.9218L19.5951 85.9412V85.8758L19.5531 85.9218L19.5951 85.8758H19.5354L19.5531 85.9218L19.5951 85.8758H19.584L19.542 85.8492V85.8758H19.5906L19.5487 85.8492L19.5177 85.8904L19.6061 85.9775L19.5619 85.9339L19.6061 85.9775L19.6414 85.9339V85.917L19.6525 85.8758L19.6326 85.8274L19.5906 85.8081L19.5531 85.8202C19.4754 85.8834 19.4016 85.9521 19.3322 86.0258C18.9964 86.3428 18.4155 86.9235 18.4155 86.9235L18.3271 87.0106L102.415 105.474L74.7929 18.1514L19.5244 85.8976L19.6127 85.9847L19.5708 85.9388Z" fill="#1D1D1B"/>
<path d="M16.4076 88.3967L16.4628 88.3241L16.5026 88.2588L16.5357 88.1862C16.5615 88.1222 16.5743 88.0529 16.5733 87.9829C16.5736 87.9237 16.5646 87.8647 16.5468 87.8087C16.5067 87.6871 16.4284 87.585 16.3259 87.5208C16.2532 87.4755 16.1709 87.4522 16.0873 87.4531C16.0261 87.4519 15.9652 87.4642 15.9084 87.4894C15.8755 87.5043 15.8437 87.5221 15.8134 87.5426C15.7538 87.5862 15.7251 87.6152 15.6721 87.6587C15.5086 87.8087 15.2303 88.0797 14.9829 88.3217L14.5411 88.7669L13.8276 89.4709L105.603 109.625L75.4843 14.4009L15.6875 87.6926L16.4076 88.3967L16.0476 88.0531L16.4054 88.4039L75.1088 16.4357L104.145 108.227L14.9542 88.6411L14.8592 89.1588L15.1839 89.5484L15.7759 88.9629L16.1889 88.566L16.3215 88.4451L16.3369 88.4306L16.1823 88.1886L16.3148 88.4427L16.3369 88.4281L16.1823 88.1862L16.3148 88.4402L16.094 88.0313L16.2596 88.4669L16.3082 88.4402L16.0873 88.0313L16.253 88.4669L16.0719 87.9829V88.4983C16.1341 88.4995 16.1958 88.4863 16.253 88.4596L16.0719 87.9757L15.9283 88.479C15.9748 88.4943 16.0233 88.5016 16.0719 88.5007V87.9757L15.9283 88.479L16.0719 87.9757L15.6654 88.2564C15.7262 88.3624 15.8193 88.4413 15.9283 88.479L16.0719 87.9757L15.6654 88.2564L16.0719 87.9757H15.5903C15.5903 88.0752 15.6164 88.1726 15.6654 88.2564L16.0719 87.9757L15.6301 87.7773C15.6064 87.8402 15.5943 87.9076 15.5947 87.9757H16.0697L15.6279 87.7773L16.0365 87.9612L15.6698 87.6902C15.6544 87.7183 15.6404 87.7474 15.6279 87.7773L16.0365 87.9612L15.6698 87.6902L15.862 87.8329L15.6831 87.6708L15.6698 87.6902L15.862 87.8329L15.6831 87.6708L15.6721 87.6878L16.3899 88.3894" fill="#1D1D1B"/>
<path d="M19.9397 85.3918L19.8535 85.4959L19.9176 85.6169L20.0015 85.5128L19.9397 85.3918ZM20.8873 87.4533L20.9668 87.6057L21.1236 87.642L21.0441 87.4896L20.8873 87.4533ZM101.512 102.65L101.432 102.803L101.483 102.967L101.562 102.815L101.512 102.65ZM100.325 104.9L100.261 105.021L100.387 105.048L100.449 104.927L100.325 104.9Z" fill="#1D1D1B"/>
<path d="M14.7619 88.5371L14.6714 88.6266L15.281 89.7856L15.4379 89.8194L14.7619 88.5371ZM105.258 108.515L104.772 109.437L104.896 109.466L105.309 108.682L105.258 108.515Z" fill="#1D1D1B"/>
<path d="M19.206 109.86L19.8399 110.102L52.0897 9.71426L116.755 89.7274L18.3048 110.823L18.4329 111.549L19.0403 111.861C19.0403 111.861 19.2303 111.421 19.4247 110.983C19.5196 110.765 19.619 110.545 19.6919 110.388C19.7273 110.31 19.7582 110.245 19.7759 110.213V110.196L19.7207 110.16L19.7737 110.199L19.7184 110.163L19.7715 110.201L19.3496 109.904L19.7317 110.25L19.767 110.196L19.3496 109.904L19.7317 110.25L19.2391 109.804L19.65 110.339L19.7317 110.25L19.2391 109.804L19.65 110.339L19.2237 109.785L19.5307 110.429C19.5731 110.403 19.6131 110.373 19.65 110.339L19.2237 109.785L19.5307 110.429L19.2214 109.778V110.504C19.329 110.503 19.4349 110.475 19.5307 110.421L19.2214 109.771L18.8238 110.361C18.9391 110.454 19.0783 110.505 19.2214 110.506V109.78L18.8238 110.371L19.2214 109.783L18.5742 109.971C18.6133 110.132 18.7014 110.273 18.8238 110.371L19.2214 109.783L18.5742 109.971L19.2148 109.785H18.5522C18.5537 109.848 18.5612 109.91 18.5742 109.971L19.2148 109.785H19.1773L18.5654 109.645C18.5575 109.691 18.5531 109.738 18.5522 109.785H19.1773L18.5654 109.645L18.9498 109.732L18.5742 109.606V109.645L18.9586 109.732L18.5831 109.606V109.623L19.8488 110.107L19.2148 109.865L19.8488 110.107L19.8775 110.01L19.8929 109.942C19.9023 109.89 19.9074 109.836 19.9084 109.783C19.9086 109.678 19.8883 109.575 19.8488 109.48C19.8134 109.389 19.7614 109.308 19.6961 109.239C19.6308 109.171 19.5535 109.119 19.4689 109.084C19.3843 109.05 19.2943 109.035 19.2042 109.041C19.1142 109.046 19.0261 109.071 18.9453 109.115C18.8767 109.151 18.814 109.199 18.7598 109.258L18.6714 109.371C18.6327 109.436 18.5973 109.503 18.5654 109.572C18.4505 109.814 18.2716 110.211 18.1236 110.571C17.9756 110.932 17.8365 111.234 17.8365 111.234L17.271 112.548L119.322 90.6807L51.5706 6.87134L18.5742 109.616L19.8399 110.1L19.206 109.86Z" fill="#1D1D1B"/>
<path d="M48.6575 124.549L48.9049 124.503L32.7292 18.7706L126.004 55.1479L48.5515 126.228L48.7127 126.439L48.9645 126.422C48.9645 126.422 48.9446 126.061 48.9225 125.65C48.9005 125.239 48.8806 124.769 48.8806 124.576V124.513H48.7657L48.8762 124.542V124.522H48.7613L48.8717 124.551L48.6509 124.496L48.8563 124.612L48.8762 124.551L48.6553 124.496L48.8607 124.612L48.6398 124.486L48.8033 124.689L48.8585 124.612L48.6376 124.486L48.8011 124.689L48.6354 124.484V124.76C48.6965 124.759 48.7552 124.734 48.8011 124.689L48.6354 124.484L48.4432 124.658C48.4666 124.689 48.496 124.714 48.5292 124.731C48.5624 124.748 48.5987 124.757 48.6354 124.757V124.467L48.4432 124.641L48.6177 124.481L48.3968 124.564L48.4366 124.641L48.6111 124.481L48.3902 124.564L48.4984 124.522L48.3858 124.554L48.494 124.513L48.3814 124.544V124.585L48.8762 124.493L48.6288 124.539L48.8762 124.493L48.8607 124.404L48.8408 124.346L48.8033 124.28C48.78 124.249 48.7504 124.223 48.7167 124.205C48.683 124.188 48.6462 124.179 48.6089 124.179C48.5463 124.179 48.486 124.204 48.4388 124.249L48.3681 124.37C48.3574 124.406 48.3514 124.443 48.3504 124.481V124.588C48.3504 125.028 48.4366 126.465 48.4366 126.47L48.4675 127.012L127 54.9422L32.0908 17.9456L48.4101 124.588L48.9049 124.496L48.6575 124.549Z" fill="#1D1D1B"/>
<path d="M49.9096 116.794L49.9913 116.78L35.5695 22.5183L118.97 55.0243L49.9162 118.415L49.9714 118.486H50.0554C50.0554 118.486 49.9803 117.191 49.9803 116.831V116.761L49.914 116.744L49.9736 116.777V116.761L49.9074 116.744L49.967 116.777L49.8941 116.736V116.826L49.967 116.777L49.8941 116.736L49.8301 116.792L49.8941 116.826V116.736L49.8301 116.792L49.8786 116.748L49.819 116.773L49.8301 116.792L49.8786 116.748L49.819 116.773L49.8301 116.826L49.9935 116.794L49.9118 116.809L49.9935 116.794L49.9825 116.729V116.7L49.9692 116.676L49.9029 116.642L49.8256 116.693L49.8124 116.761V116.831C49.8124 117.208 49.8875 118.495 49.8875 118.495L49.8985 118.677L119.302 54.9735L35.3574 22.2424L49.8323 116.811L49.9957 116.78L49.9096 116.794Z" fill="#1D1D1B"/>
<path d="M8.35588 81.0971L8.52376 81.3027L81.6402 10.0409L103.17 115.892L7.00184 81.8931L6.92453 82.1544L7.07252 82.377L7.7882 81.8181C7.96933 81.6777 8.15267 81.5374 8.29183 81.4358C8.3603 81.3826 8.41994 81.3414 8.4597 81.3124L8.50167 81.2858L8.43982 81.1527L8.48842 81.2906H8.50167L8.43982 81.1576L8.48842 81.2955L8.40669 81.0535V81.3076L8.48842 81.2906L8.40669 81.0487V81.0366L8.2609 81.2567C8.30332 81.2906 8.35424 81.3092 8.40669 81.31V81.0366L8.2609 81.2567L8.40669 81.0366H8.15709C8.15785 81.0795 8.16761 81.1217 8.18561 81.1599C8.20361 81.1981 8.22937 81.2312 8.2609 81.2567L8.40669 81.0366L8.1858 80.9132C8.16849 80.9516 8.15942 80.9938 8.15929 81.0366H8.40448L8.18359 80.9132L8.37135 81.0172L8.2101 80.8672L8.18359 80.9132L8.37135 81.0172L8.2101 80.8672L8.1858 80.8914L8.52155 81.3027L8.35368 81.0971L8.52155 81.3027L8.57677 81.2447L8.6077 81.2035L8.632 81.1624C8.65058 81.1227 8.66042 81.0788 8.66071 81.0342C8.66046 80.9904 8.65095 80.9473 8.63294 80.9083C8.61492 80.8692 8.58889 80.8353 8.55689 80.8091C8.51348 80.7739 8.46072 80.7552 8.40669 80.7559C8.36949 80.7559 8.33268 80.7641 8.29845 80.7801L8.15709 80.8696C7.79262 81.1261 6.77653 81.9294 6.77432 81.9318L6.37451 82.2463L103.848 116.712L81.9406 9.00781L8.18801 80.889L8.52597 81.3027L8.35588 81.0971Z" fill="#1D1D1B"/>
<path d="M1.7167 94.31L1.78076 94.3705L78.4822 0.355668L116.727 121.254L0.196986 95.6625L0.179318 95.752L0.236747 95.8198L1.01648 95.0697C1.21087 94.8786 1.40746 94.6899 1.55987 94.5471C1.63497 94.4745 1.69903 94.4165 1.74542 94.3753L1.80064 94.3318H1.81169L1.78076 94.2737V94.339H1.81169L1.78076 94.281V94.2568L1.72554 94.3221L1.78076 94.3463V94.2568L1.72554 94.3221L1.78076 94.2568H1.69903L1.72554 94.3221L1.78076 94.2568H1.7653L1.70787 94.2205V94.2568H1.77413L1.7167 94.2205L1.67252 94.2761L1.79843 94.3995L1.73437 94.339L1.79843 94.3995L1.84482 94.339L1.86028 94.3124L1.87574 94.2568L1.84924 94.189L1.7896 94.1624L1.73879 94.1793C1.62585 94.2679 1.51745 94.3632 1.41409 94.4648C0.94801 94.9076 0.141764 95.7133 0.141764 95.7133L0.0180664 95.8343L116.983 121.498L78.5484 0L1.65485 94.2471L1.78076 94.3705L1.7167 94.31Z" fill="#1D1D1B"/>
<path d="M3.66683 96.6111L3.88772 96.6594L3.77506 96.449L3.55417 96.4006L3.66683 96.6111ZM2.12061 93.6762L2.20896 93.8431L2.32603 93.7004L2.23988 93.5334L2.12061 93.6762Z" fill="#1D1D1B"/>
</g>
<defs>
<clipPath id="clip0">
<rect width="127" height="127" fill="white"/>
</clipPath>
</defs>
</svg>
