<svg width="200" height="200" viewBox="0 0 200 200" fill="none" xmlns="http://www.w3.org/2000/svg">
<g opacity="0.5" clip-path="url(#clip0)">
<g opacity="0.7">
<g opacity="0.7">
<path opacity="0.7" d="M22.2471 25.356L79.9913 200.002L199.149 51.8498L22.2471 25.356Z" fill="#B0DEED"/>
</g>
</g>
<g opacity="0.7">
<g opacity="0.7">
<path opacity="0.7" d="M124.43 31.4065L59.7512 50.3213L43.4111 118.078L91.7457 166.923L156.424 148.008L172.766 80.2507L124.43 31.4065Z" fill="#B0DEED"/>
</g>
</g>
<g opacity="0.7">
<g opacity="0.7">
<path opacity="0.7" d="M108.136 56.6968L79.4248 73.8095L79.5439 108.243L108.372 125.568L137.083 108.455L136.964 74.0197L108.136 56.6968Z" fill="#B0DEED"/>
</g>
</g>
<path d="M122.35 23.3456L46.0053 48.5845L29.1871 129.995L88.7172 186.164L165.062 160.925L181.878 79.5151L122.35 23.3456ZM111.135 0.757324L0.716309 161.324L199.343 175.344L111.135 0.757324Z" stroke="#C01466" stroke-width="4" stroke-miterlimit="10"/>
</g>
<defs>
<clipPath id="clip0">
<rect width="200" height="200" fill="white"/>
</clipPath>
</defs>
</svg>
