<svg width="419" height="383" viewBox="0 0 419 383" fill="none" xmlns="http://www.w3.org/2000/svg">
<g clip-path="url(#clip0)">
<path d="M223.834 281.006L223.967 280.82L115.609 201.495L194.781 93.295L302.954 172.487L223.648 280.872L223.834 281.006L223.967 280.82L223.834 281.006L224.019 281.139L303.592 172.39L194.685 92.6641L114.978 201.599L223.878 281.325L224.019 281.139L223.834 281.006Z" fill="#1D1D1B"/>
<path d="M224.063 282.52L224.204 282.342L114.095 201.732L194.543 91.7809L304.475 172.25L223.885 282.387L224.063 282.52L224.204 282.342L224.063 282.52L224.249 282.654L305.106 172.153L194.447 91.1426L113.457 201.829L224.115 282.839L224.249 282.654L224.063 282.52Z" fill="#1D1D1B"/>
<path d="M224.502 285.333L224.568 285.244L111.127 202.192L194.084 88.8114L307.444 171.789L224.412 285.266L224.502 285.333L224.568 285.244L224.502 285.333L224.591 285.4L307.755 171.744L194.039 88.4922L110.808 202.236L224.524 285.489L224.591 285.4L224.502 285.333Z" fill="#1D1D1B"/>
<path d="M242.14 276.27L242.185 276.166L120.18 219.806L176.481 97.8668L298.383 154.182L242.036 276.218L242.14 276.27L242.185 276.166L242.14 276.27L242.244 276.314L298.687 154.071L176.37 97.5625L119.875 219.91L242.192 276.418L242.244 276.314L242.14 276.27Z" fill="#1D1D1B"/>
<path d="M241.614 274.83L241.658 274.734L121.612 219.272L177.008 99.2998L296.951 154.71L241.51 274.786L241.614 274.83L241.658 274.734L241.614 274.83L241.718 274.882L297.247 154.598L176.897 99.0029L121.315 219.383L241.666 274.986L241.718 274.882L241.614 274.83Z" fill="#1D1D1B"/>
<path d="M241.109 273.464L241.25 273.16L123.282 218.663L177.617 100.97L295.288 155.318L240.805 273.323L241.109 273.464L241.25 273.16L241.109 273.464L241.413 273.605L296.186 154.992L177.29 100.064L122.376 218.99L241.272 273.917L241.413 273.605L241.109 273.464Z" fill="#1D1D1B"/>
<path d="M145.039 257.142L145.15 257.134L139.266 122.837L273.419 116.958L279.296 251.144L145.032 257.031L145.039 257.142L145.15 257.134L145.039 257.142V257.253L279.534 251.36L273.634 116.721L139.028 122.622L144.928 257.261L145.039 257.253V257.142Z" fill="#1D1D1B"/>
<path d="M221.28 166.764V165.858H197.059L184.688 187.288L197.059 208.717H221.8L234.17 187.288L221.8 165.858H221.28V166.764L220.494 167.217L232.078 187.288L220.754 206.913H198.105L186.781 187.288L198.105 167.67H221.28V166.764L220.494 167.217L221.28 166.764Z" fill="#1D1D1B"/>
<path d="M216.947 174.269V174.157H201.853L194.276 187.288L201.853 200.418H217.006L224.59 187.288L217.006 174.157H216.947V174.269L216.843 174.328L224.331 187.288L216.88 200.196H201.979L194.536 187.288L201.979 174.387H216.947V174.269L216.843 174.328L216.947 174.269Z" fill="#1D1D1B"/>
<path d="M218.03 172.391V172.279H200.762L192.102 187.288L200.762 202.304H218.097L226.757 187.288L218.097 172.279H218.03V172.391L217.934 172.45L226.497 187.288L217.964 202.074H200.896L192.362 187.288L200.896 172.502H218.03V172.391L217.934 172.45L218.03 172.391Z" fill="#1D1D1B"/>
<path d="M218.69 171.24V171.129H200.101L190.773 187.288L200.101 203.454H218.757L228.085 187.288L218.757 171.129H218.69V171.24L218.594 171.3L227.825 187.288L218.631 203.224H200.235L191.033 187.288L200.228 171.352H218.69V171.24L218.594 171.3L218.69 171.24Z" fill="#1D1D1B"/>
<path d="M219.195 170.379V170.268H199.604L189.779 187.288L199.604 204.315H219.255L229.087 187.288L219.255 170.268H219.195V170.379L219.091 170.431L228.827 187.288L219.129 204.085H199.731L190.039 187.288L199.731 170.49H219.195V170.379L219.091 170.431L219.195 170.379Z" fill="#1D1D1B"/>
<path d="M224.798 160.67V160.559H194.002L178.574 187.287L194.002 214.024H224.857L240.292 187.287L224.857 160.559H224.798V160.67L224.694 160.729L240.025 187.287L224.731 213.794H194.128L178.833 187.287L194.128 160.781H224.798V160.67L224.694 160.729L224.798 160.67Z" fill="#1D1D1B"/>
<path d="M227.017 156.825V156.714H191.783L174.129 187.288L191.783 217.869H227.084L244.73 187.288L227.084 156.714H227.017V156.825L226.92 156.877L244.471 187.288L226.95 217.639H191.909L174.389 187.288L191.909 156.937H227.017V156.825L226.92 156.877L227.017 156.825Z" fill="#1D1D1B"/>
<path d="M227.61 155.794V155.683H191.182L172.934 187.288L191.182 218.901H227.677L245.925 187.288L227.677 155.683H227.61V155.794L227.514 155.846L245.665 187.288L227.544 218.678H191.315L173.201 187.288L191.315 155.905H227.61V155.794L227.514 155.846L227.61 155.794Z" fill="#1D1D1B"/>
<path d="M226.876 153.166L226.869 153.054L188.533 155.006L171.035 189.247L191.924 221.528L230.327 219.576L247.825 185.335L226.936 153.047L226.869 153.054L226.876 153.166L226.78 153.225L247.565 185.343L230.186 219.353L192.043 221.298L171.294 189.232L188.681 155.229L226.884 153.277L226.876 153.166L226.78 153.225L226.876 153.166Z" fill="#1D1D1B"/>
<path d="M215.455 176.851V176.732H203.337L197.245 187.287L203.337 197.842H215.522L221.614 187.287L215.522 176.732H215.455V176.851L215.359 176.903L221.355 187.287L215.388 197.62H203.471L197.504 187.287L203.471 176.963H215.455V176.851L215.359 176.903L215.455 176.851Z" fill="#1D1D1B"/>
<path d="M228.018 167.432L228.122 166.994L201.385 160.759L182.44 180.993L190.484 207.521L217.481 213.816L236.419 193.582L228.375 167.053L228.122 166.994L228.018 167.432L227.588 167.565L235.402 193.344L217.177 212.814L191.196 206.764L183.457 181.23L201.682 161.761L227.915 167.877L228.018 167.432L227.588 167.565L228.018 167.432Z" fill="#1D1D1B"/>
<path d="M228.954 160.285L228.968 160.173L195.76 156.759L176.162 183.866L189.831 214.395L223.099 217.825L242.697 190.717L229.028 160.181L228.968 160.173L228.954 160.285L228.85 160.336L242.437 190.688L222.995 217.58L189.987 214.188L176.422 183.896L195.864 156.996L228.939 160.403L228.954 160.285L228.85 160.336L228.954 160.285Z" fill="#1D1D1B"/>
<path d="M230.237 151.244V151.125H188.555L167.688 187.288L188.555 223.451H230.304L251.179 187.288L230.304 151.125H230.237V151.244L230.141 151.296L250.912 187.288L230.171 223.228H188.688L167.947 187.288L188.688 151.355H230.237V151.244L230.141 151.296L230.237 151.244Z" fill="#1D1D1B"/>
<path d="M230.942 150.019V149.907H187.85L166.27 187.288L187.85 224.675H231.009L252.589 187.288L231.009 149.907H230.942V150.019L230.846 150.078L252.321 187.288L230.875 224.445H187.983L166.537 187.288L187.983 150.13H230.942V150.019L230.846 150.078L230.942 150.019Z" fill="#1D1D1B"/>
<path d="M232.1 148.015V147.903H186.7L163.962 187.288L186.7 226.68H232.167L254.897 187.288L232.167 147.903H232.1V148.015L232.004 148.074L254.637 187.288L232.033 226.45H186.826L164.222 187.288L186.826 148.126H232.1V148.015L232.004 148.074L232.1 148.015Z" fill="#1D1D1B"/>
<path d="M229.139 153.144V153.032H189.653L169.884 187.288L189.653 221.55H229.206L248.982 187.288L229.206 153.032H229.139V153.144L229.042 153.203L248.715 187.288L229.072 221.32H189.786L170.144 187.288L189.786 153.255H229.139V153.144L229.042 153.203L229.139 153.144Z" fill="#1D1D1B"/>
<path d="M237.822 138.105V137.986H180.971L152.52 187.287L180.971 236.588H237.888L266.347 187.287L237.888 137.986H237.822V138.105L237.725 138.157L266.08 187.287L237.755 236.366H181.104L152.779 187.287L181.104 138.216H237.822V138.105L237.725 138.157L237.822 138.105Z" fill="#1D1D1B"/>
<path d="M239.877 134.535V134.424H178.916L148.401 187.288L178.916 240.152H239.944L270.458 187.288L239.944 134.424H239.877V134.535L239.781 134.595L270.199 187.288L239.818 239.929H179.049L148.661 187.288L179.049 134.654H239.877V134.535L239.781 134.595L239.877 134.535Z" fill="#1D1D1B"/>
<path d="M147.236 240.924L148.09 241.228L191.576 117.56L278.814 216.125L145.982 242.104L146.153 242.995L146.969 243.381L147.489 242.297C147.622 242.03 147.748 241.763 147.852 241.555C147.956 241.347 147.941 241.377 147.964 241.339L147.889 241.295L147.964 241.339L147.889 241.295L147.964 241.339L147.4 240.976L147.919 241.406L147.964 241.339L147.4 240.976L147.919 241.406L147.251 240.857L147.808 241.518L147.919 241.406L147.251 240.857L147.808 241.518L147.236 240.835L147.644 241.621C147.703 241.595 147.758 241.56 147.808 241.518L147.236 240.835L147.644 241.621L147.229 240.827V241.725C147.374 241.729 147.518 241.693 147.644 241.621L147.229 240.827L146.695 241.57C146.849 241.685 147.036 241.748 147.229 241.748V240.842L146.695 241.584L147.229 240.842L146.361 241.072C146.412 241.269 146.53 241.442 146.695 241.562L147.229 240.82L146.361 241.05L147.221 240.82H146.324C146.331 240.897 146.343 240.974 146.361 241.05L147.221 240.82H147.177L146.353 240.649C146.347 240.706 146.347 240.763 146.353 240.82H147.177L146.353 240.649L146.873 240.753L146.361 240.597V240.649L146.88 240.753L146.368 240.597L148.082 241.198L147.229 240.894L148.082 241.198V241.08V240.991C148.089 240.926 148.089 240.862 148.082 240.798C148.086 240.67 148.061 240.543 148.008 240.426C147.944 240.283 147.844 240.157 147.719 240.063C147.56 239.95 147.371 239.888 147.177 239.885C147.043 239.884 146.911 239.914 146.791 239.974C146.697 240.018 146.612 240.078 146.539 240.152L146.42 240.293C146.366 240.371 146.316 240.453 146.272 240.538C146.123 240.827 145.878 241.325 145.663 241.77L145.277 242.586L144.535 244.205L282.235 217.305L190.893 114.049L146.368 240.627L148.075 241.228L147.236 240.924Z" fill="#1D1D1B"/>
<path d="M186.959 259.02L187.293 258.968L165.476 128.723L291.303 173.511L186.818 261.098L187.041 261.358H187.375C187.375 261.358 187.375 260.913 187.323 260.408C187.271 259.903 187.263 259.324 187.263 259.087V259.005H187.115H187.263H187.115H187.263L186.959 258.938L187.234 259.079V259.005L186.93 258.938L187.204 259.079L186.907 258.931L187.13 259.176L187.204 259.079L186.907 258.931L187.13 259.176L186.907 258.923V259.265C186.989 259.261 187.068 259.23 187.13 259.176L186.907 258.923L186.648 259.139C186.677 259.18 186.716 259.213 186.761 259.235C186.807 259.257 186.857 259.267 186.907 259.265V258.923L186.648 259.139L186.885 258.946L186.588 259.05L186.648 259.139L186.885 258.946L186.588 259.05L186.737 258.998H186.588L186.737 258.946H186.588V258.998L187.256 258.886L186.922 258.938L187.256 258.879V258.775V258.701L187.204 258.619C187.172 258.581 187.132 258.55 187.088 258.529C187.043 258.507 186.994 258.495 186.944 258.493C186.86 258.495 186.778 258.526 186.714 258.582L186.618 258.73C186.607 258.774 186.607 258.82 186.618 258.864V258.975C186.618 259.517 186.729 261.284 186.729 261.291L186.774 261.959L292.624 173.274L164.615 127.691L186.625 259.072L187.293 258.953L186.959 259.02Z" fill="#1D1D1B"/>
<path d="M188.652 249.468H188.763L169.306 133.326L281.805 173.371L188.644 251.449L188.719 251.531H188.83C188.83 251.531 188.734 249.965 188.734 249.497V249.416H188.644L188.726 249.46H188.637L188.719 249.505L188.622 249.453V249.564L188.719 249.505L188.622 249.453L188.533 249.527L188.622 249.564V249.453L188.533 249.527L188.6 249.468H188.518L188.585 249.408H188.503V249.475L188.726 249.438H188.615H188.726V249.356V249.319L188.637 249.275L188.533 249.341V249.423V249.512C188.533 249.972 188.637 251.561 188.637 251.561V251.783L282.235 173.289L169.024 132.984L188.541 249.52L188.763 249.482L188.652 249.468Z" fill="#1D1D1B"/>
<path d="M132.595 205.488L132.818 205.748L231.455 117.96L260.5 248.353L130.77 206.475L130.666 206.794L130.859 207.069L131.831 206.379L132.506 205.911L132.736 205.762L132.788 205.725L132.706 205.562L132.766 205.733L132.684 205.57L132.743 205.74L132.64 205.443V205.755H132.743L132.64 205.458L132.439 205.733C132.498 205.774 132.568 205.795 132.64 205.792V205.428L132.439 205.703L132.64 205.428H132.335C132.336 205.482 132.349 205.535 132.374 205.582C132.398 205.63 132.433 205.671 132.476 205.703L132.677 205.428L132.38 205.28C132.359 205.327 132.346 205.377 132.343 205.428H132.677L132.38 205.28L132.632 205.406L132.417 205.221V205.28L132.669 205.406L132.454 205.221L132.907 205.733L132.684 205.473L132.907 205.733L132.981 205.659L133.025 205.607V205.555C133.055 205.508 133.07 205.454 133.07 205.399C133.07 205.345 133.058 205.292 133.033 205.244C133.009 205.196 132.973 205.155 132.929 205.124C132.872 205.08 132.801 205.056 132.729 205.057C132.68 205.047 132.629 205.047 132.58 205.057L132.387 205.169C131.897 205.48 130.525 206.475 130.525 206.475L129.983 206.868L261.457 249.363L231.863 116.684L132.335 205.235L132.788 205.748L132.595 205.488Z" fill="#1D1D1B"/>
<path d="M123.638 221.758L123.72 221.833L227.195 106.04L278.792 254.975L121.582 223.436V223.547L121.664 223.629L122.703 222.694C122.963 222.456 123.23 222.219 123.445 222.048L123.697 221.833L123.764 221.781L123.727 221.706V221.758H123.764L123.727 221.684L123.653 221.766H123.727V221.654L123.653 221.736L123.727 221.654H123.616V221.736L123.69 221.654L123.616 221.61V221.654H123.705L123.631 221.61L123.571 221.677L123.734 221.825L123.653 221.751L123.734 221.825L123.801 221.751V221.684L123.764 221.603H123.682H123.616C123.541 221.647 123.393 221.773 123.178 221.951C122.547 222.501 121.456 223.495 121.456 223.495L121.293 223.644L279.103 255.294L227.321 105.587L123.556 221.692L123.72 221.84L123.638 221.758Z" fill="#1D1D1B"/>
<path d="M117.034 225.381L117.709 225.982L227.885 102.663L282.384 259.97L114.985 226.398L114.807 227.289L115.416 227.957L116.529 226.954C116.811 226.702 117.093 226.45 117.308 226.272L117.553 226.064L117.264 225.656L117.516 226.093H117.553L117.264 225.685L117.516 226.123L117.108 225.418L117.419 226.16L117.516 226.116L117.108 225.411L117.419 226.153L117.078 225.329V226.212C117.195 226.213 117.311 226.19 117.419 226.145L117.078 225.322L116.811 226.183C116.897 226.212 116.987 226.227 117.078 226.227V225.322L116.811 226.183L117.078 225.322L116.336 225.804C116.453 225.984 116.628 226.118 116.833 226.183L117.1 225.322L116.358 225.804L117.1 225.322H116.202C116.2 225.492 116.247 225.659 116.336 225.804L117.078 225.322L116.254 224.98C116.208 225.088 116.185 225.204 116.188 225.322H117.078L116.254 224.98L116.996 225.299L116.314 224.832C116.284 224.879 116.259 224.928 116.24 224.98L116.982 225.299L116.299 224.832L116.663 225.077L116.329 224.802L116.692 225.047L116.358 224.772L117.709 225.975L117.034 225.373L117.716 225.975L117.82 225.849L117.894 225.737L117.954 225.611C118.002 225.501 118.024 225.382 118.021 225.262C118.021 225.161 118.006 225.061 117.976 224.965C117.901 224.757 117.753 224.583 117.56 224.475C117.425 224.397 117.272 224.356 117.115 224.357C117.001 224.359 116.889 224.379 116.781 224.416C116.718 224.44 116.658 224.473 116.603 224.512C116.51 224.573 116.421 224.64 116.336 224.713C116.032 224.965 115.505 225.455 115.045 225.849C114.585 226.242 114.199 226.591 114.199 226.591L112.878 227.793L285.122 262.338L228.59 99.1592L116.366 224.772L117.716 225.982L117.034 225.381Z" fill="#1D1D1B"/>
<path d="M249.598 134.521L249.613 134.409L183.776 125.992L143.525 178.864L169.186 240.167L235.091 248.592L275.333 195.713L249.672 134.417L249.613 134.409L249.598 134.521L249.494 134.565L275.074 195.683L234.987 248.347L169.342 239.959L143.785 178.901L183.872 126.23L249.583 134.632L249.598 134.521L249.494 134.565L249.598 134.521Z" fill="#1D1D1B"/>
<path d="M265.322 90.4596V90.1182H153.343L97.2563 187.288L153.343 284.457H265.515L321.602 187.288L265.515 90.1182H265.322V90.4596L265.026 90.6303L320.822 187.288L265.122 283.782H153.736L98.0355 187.288L153.736 90.801H265.322V90.4596L265.026 90.6303L265.322 90.4596Z" fill="#1D1D1B"/>
<path d="M261.776 96.5986H205.103L205.415 96.8287H261.65L273.152 116.751H273.404L261.776 96.5986ZM261.612 96.7693L261.716 96.71L261.612 96.7693ZM204.725 96.5986H201.897L202.202 96.8287H205.059L204.725 96.5986ZM201.126 96.5986H200.057L200.369 96.8287H201.437L201.126 96.5986ZM199.293 96.5986H192.362L192.198 96.8287H199.619L199.293 96.5986ZM191.805 96.5986H191.018L190.855 96.8287H191.642L191.805 96.5986ZM190.462 96.5986H188.391L188.221 96.8287H190.291L190.462 96.5986ZM188.109 96.5986H157.083L142.138 122.489H142.405L157.209 96.8362H187.946L188.109 96.5986Z" fill="#1D1D1B"/>
<path d="M191.805 96.5986L191.642 96.8287H192.199L192.369 96.5986H191.805ZM199.293 96.5986L199.597 96.8287H200.339L200.028 96.5986H199.293Z" fill="#1D1D1B"/>
<path d="M190.462 96.5986L190.291 96.8287H190.855L191.018 96.5986H190.462ZM201.125 96.5986L201.437 96.8287H202.179L201.867 96.5986H201.125Z" fill="#1D1D1B"/>
<path d="M188.11 96.5986L187.939 96.8287H188.221L188.392 96.5986H188.11ZM204.725 96.5986L205.029 96.8287H205.415L205.103 96.5986H204.725Z" fill="#1D1D1B"/>
<path d="M273.419 116.966H273.278L273.434 117.233L273.419 116.966ZM273.656 117.174V117.664L293.218 151.555L293.574 151.726L273.656 117.174ZM293.44 151.897L294.182 153.181L294.531 153.344L293.789 152.06L293.44 151.897ZM294.375 153.522L294.872 154.391L295.229 154.554L294.731 153.686L294.375 153.522ZM295.859 155.667L295.741 155.92L296.097 156.528L296.216 156.276L295.859 155.667ZM296.349 156.521L296.238 156.773L296.757 157.679L296.876 157.427L296.349 156.521ZM297.01 157.664L296.898 157.916L302.783 168.115L303.236 168.449L297.01 157.664ZM303.065 168.605L306.033 173.719L306.182 173.519L303.532 168.932L303.065 168.605ZM306.286 173.734L306.145 173.934L313.855 187.295L279.637 246.565L279.734 246.854L314.144 187.295L306.286 173.734Z" fill="#1D1D1B"/>
<path d="M302.798 168.115L303.08 168.605L303.532 168.932L303.251 168.449L302.798 168.115ZM306.182 173.519L306.033 173.719L306.159 173.935L306.3 173.734L306.182 173.519Z" fill="#1D1D1B"/>
<path d="M293.24 151.556L293.44 151.897L293.789 152.06L293.596 151.726L293.24 151.556ZM296.891 157.427L296.772 157.679L296.913 157.917L297.024 157.664L296.891 157.427Z" fill="#1D1D1B"/>
<path d="M294.182 153.181L294.375 153.522L294.731 153.685L294.531 153.344L294.182 153.181ZM296.23 156.276L296.112 156.528L296.253 156.773L296.364 156.521L296.23 156.276Z" fill="#1D1D1B"/>
<path d="M294.873 154.383L295.756 155.919L295.874 155.667L295.229 154.546L294.873 154.383Z" fill="#1D1D1B"/>
<path d="M142.271 122.711H142.004L139.459 127.12V127.543L142.271 122.711ZM139.244 127.491L104.729 187.295L112.239 200.292L112.38 200.092L104.997 187.295L139.266 127.914L139.244 127.491ZM112.529 200.3L112.38 200.5L114.978 204.991L115.423 205.317L112.529 200.3ZM115.252 205.495L121.538 216.384L121.656 216.132L115.72 205.83L115.252 205.495ZM121.79 216.377L121.679 216.622L122.198 217.535L122.317 217.283L121.79 216.377ZM122.458 217.52L122.339 217.773L122.465 217.988L122.621 217.81L122.458 217.52Z" fill="#1D1D1B"/>
<path d="M112.38 200.092L112.232 200.292L112.358 200.507L112.506 200.307L112.38 200.092ZM114.948 204.998L115.23 205.481L115.683 205.815L115.401 205.325L114.948 204.998Z" fill="#1D1D1B"/>
<path d="M121.516 216.37L121.657 216.607L121.768 216.355L121.634 216.117L121.516 216.37Z" fill="#1D1D1B"/>
<path d="M122.176 217.513L122.317 217.751L122.435 217.498L122.294 217.261L122.176 217.513Z" fill="#1D1D1B"/>
<path d="M123.49 219.531L123.393 219.643L123.772 220.296L124.128 220.459L123.623 219.591L123.49 219.531ZM123.964 220.637L124.18 221.008L124.343 220.83L123.964 220.637Z" fill="#1D1D1B"/>
<path d="M123.964 220.607L124.321 220.778L124.128 220.437L123.771 220.273L123.964 220.607Z" fill="#1D1D1B"/>
<path d="M123.489 219.509L123.623 219.569L123.549 219.442L123.489 219.509Z" fill="#1D1D1B"/>
<path d="M124.462 221.016L124.298 221.194L124.706 221.899L125.063 222.062L124.462 221.016ZM124.907 222.24L126.116 224.341L126.413 224.4L125.263 222.404L124.907 222.24Z" fill="#1D1D1B"/>
<path d="M124.899 222.233L125.255 222.396L125.062 222.062L124.706 221.892L124.899 222.233Z" fill="#1D1D1B"/>
<path d="M126.272 224.608L128.914 229.196L129.211 229.255L126.562 224.668L126.272 224.608ZM130.124 231.289L144.951 256.904V256.414L130.48 231.341L130.124 231.289ZM278.458 248.65L277.449 250.395L277.545 250.677L278.525 248.925L278.458 248.65ZM277.3 250.654L276.952 251.256H277.219L277.397 250.944L277.3 250.654ZM277.085 251.478H276.818L275.223 254.24L275.453 254.284L277.085 251.478ZM275.104 254.447L273.004 258.077L273.241 258.129L275.334 254.492L275.104 254.447ZM145.136 256.83V257.023H145.233L145.136 256.83ZM145.374 257.238H145.114L157.084 277.97H214.276L213.964 277.747H157.21L145.374 257.238ZM272.046 259.732L261.657 277.754H230.193L230.03 277.977H261.784L272.291 259.784L272.046 259.732ZM229.904 277.754H227.833L227.67 277.977H229.741L229.904 277.754ZM227.277 277.754H226.49L226.327 277.977H227.069L227.277 277.754ZM225.934 277.754H219.774L220.086 277.977H225.763L225.934 277.754ZM219.01 277.754H217.941L218.246 277.977H219.322L219.01 277.754ZM217.177 277.754H214.342L214.654 277.977H217.481L217.177 277.754Z" fill="#1D1D1B"/>
<path d="M219.01 277.762L219.321 277.984H220.064L219.759 277.762H219.01ZM225.933 277.762L225.763 277.984H226.327L226.49 277.762H225.933Z" fill="#1D1D1B"/>
<path d="M217.177 277.762L217.481 277.984H218.223L217.919 277.762H217.177ZM227.276 277.762L227.106 277.984H227.67L227.833 277.762H227.276Z" fill="#1D1D1B"/>
<path d="M213.964 277.762L214.276 277.984H214.654L214.35 277.762H213.964ZM229.904 277.762L229.74 277.984H230.022L230.186 277.762H229.904Z" fill="#1D1D1B"/>
<path d="M273.404 116.735H273.152L273.278 116.958H273.419V117.233L273.664 117.656V117.166L273.404 116.735ZM142.405 122.48H142.138L142.004 122.718H142.272L142.405 122.48ZM139.437 127.134L139.222 127.498V127.921L139.429 127.558L139.437 127.134ZM277.196 251.241H276.929L276.796 251.478H277.063L277.196 251.241ZM144.869 256.437V256.926L145.069 257.275H145.329L145.195 257.053H145.099V256.867L144.869 256.437Z" fill="#1D1D1B"/>
<path d="M124.343 220.809L124.172 221.016L124.291 221.224L124.454 221.046L124.343 220.809ZM126.117 224.342L126.272 224.609L126.562 224.668L126.413 224.401L126.117 224.342ZM277.449 250.388L277.3 250.648L277.397 250.93L277.545 250.67L277.449 250.388ZM275.223 254.248L275.104 254.455L275.334 254.5L275.453 254.292L275.223 254.248Z" fill="#1D1D1B"/>
<path d="M122.599 217.795L122.443 217.973L123.393 219.621L123.489 219.51L123.549 219.443L122.599 217.795ZM128.921 229.181L130.123 231.267L130.42 231.326L129.211 229.241L128.921 229.181ZM279.652 246.55L278.458 248.628L278.554 248.911L279.749 246.84L279.652 246.55ZM272.974 258.07L272.016 259.725L272.254 259.777L273.211 258.122L272.974 258.07Z" fill="#1D1D1B"/>
<path d="M267.245 87.1338V87.0225H151.555L93.6802 187.287L151.555 287.559H267.304L325.179 187.287L267.304 87.0225H267.245V87.1338L267.141 87.1932L324.919 187.287L267.178 287.329H151.681L93.9399 187.287L151.681 87.2451H267.245V87.1338L267.141 87.1932L267.245 87.1338Z" fill="#1D1D1B"/>
<path d="M268.202 85.4795H150.664L91.8916 187.296L114.458 226.383L114.629 226.227L92.1513 187.296L150.776 85.7022H268.024L326.648 187.296L284.461 260.468L284.558 260.757L326.96 187.273L268.202 85.4795ZM268.039 85.6428L268.135 85.5908L268.039 85.6428ZM115.601 228.365L150.664 289.112H268.202L283.786 262.101L283.548 262.049L268.061 288.882H150.813L115.935 228.424L115.601 228.365Z" fill="#1D1D1B"/>
<path d="M114.629 226.213L114.458 226.369L115.601 228.351L115.898 228.41L114.629 226.213ZM284.461 260.468L283.549 262.049L283.786 262.101L284.528 260.758L284.461 260.468Z" fill="#1D1D1B"/>
<path d="M270.213 81.9834H148.661L87.8623 187.296L148.661 292.6H270.213L331.004 187.296L270.213 81.9834ZM270.05 82.1541L270.154 82.0947L270.05 82.1541ZM148.772 292.378L88.122 187.296L148.772 82.2135H270.087L330.737 187.296L270.087 292.378H148.772Z" fill="#1D1D1B"/>
<path d="M276.566 70.983V70.8643H142.227L75.0317 187.288L142.227 303.712H276.632L343.835 187.288L276.632 70.8643H276.566V70.983L276.469 71.035L343.568 187.288L276.499 303.489H142.361L75.2915 187.288L142.361 71.0944H276.566V70.983L276.469 71.035L276.566 70.983Z" fill="#1D1D1B"/>
<path d="M277.671 69.0752H141.195L72.9688 187.295L141.24 305.515H277.671L345.905 187.295L277.671 69.0752ZM277.508 69.2459L277.604 69.1865L277.508 69.2459ZM141.322 305.285L73.2136 187.266L141.322 69.2459H277.538L345.646 187.266L277.538 305.285H141.322Z" fill="#1D1D1B"/>
<path d="M280.009 65.0146H138.851L68.2715 187.295L138.851 309.568H280.009L350.588 187.295L280.009 65.0146ZM279.846 65.1854L279.942 65.126L279.846 65.1854ZM139.014 309.345L68.5164 187.295L139.014 65.2447H279.883L350.328 187.295L279.883 309.345H139.014Z" fill="#1D1D1B"/>
<path d="M281.055 63.2041V63.0928H137.737L66.0522 187.288L137.737 311.491H281.121L352.806 187.288L281.121 63.0928H281.055V63.2041L280.958 63.2561L352.547 187.288L280.988 311.261H137.871L66.312 187.288L137.871 63.3155H281.055V63.2041L280.958 63.2561L281.055 63.2041Z" fill="#1D1D1B"/>
<path d="M282.235 61.1768H136.632L63.8413 187.295L136.632 313.412H282.235L355.033 187.295L282.235 61.1768ZM282.072 61.3475L282.168 61.2881L282.072 61.3475ZM136.788 313.182L64.1233 187.295L136.788 61.4291H282.094L354.758 187.324L282.094 313.212L136.788 313.182Z" fill="#1D1D1B"/>
<path d="M284.721 56.8496H134.138L58.8691 187.295L134.138 317.74H284.721L360.02 187.295L284.721 56.8496ZM284.558 57.0203L284.661 56.9609L284.558 57.0203ZM134.272 317.51L59.1066 187.295L134.272 57.0723H284.595L359.752 187.295L284.595 317.51H134.272Z" fill="#1D1D1B"/>
<path d="M124.231 186.545H124.676C124.673 167.067 131.422 148.191 143.773 133.132C156.124 118.074 173.313 107.765 192.412 103.962C211.51 100.16 231.336 103.099 248.51 112.279C265.685 121.459 279.146 136.311 286.6 154.306C294.053 172.3 295.038 192.323 289.387 210.963C283.735 229.602 271.797 245.705 255.606 256.527C239.416 267.349 219.974 272.221 200.595 270.312C181.216 268.403 163.098 259.832 149.328 246.06C141.504 238.251 135.299 228.974 131.068 218.761C126.838 208.548 124.666 197.6 124.676 186.545H123.778C123.778 203.372 128.767 219.821 138.114 233.813C147.46 247.804 160.745 258.708 176.287 265.148C191.83 271.587 208.932 273.271 225.432 269.988C241.932 266.704 257.087 258.601 268.982 246.702C280.878 234.802 288.978 219.642 292.259 203.138C295.54 186.634 293.855 169.528 287.416 153.982C280.977 138.436 270.074 125.149 256.085 115.801C242.097 106.454 225.651 101.465 208.828 101.467C186.271 101.469 164.638 110.433 148.688 126.388C132.739 142.343 123.778 163.982 123.778 186.545H124.231Z" fill="#1D1D1B"/>
<path d="M126.049 186.545H126.161C126.159 167.413 132.79 148.872 144.924 134.082C157.058 119.292 173.943 109.167 192.703 105.434C211.463 101.7 230.936 104.589 247.806 113.607C264.675 122.625 277.896 137.216 285.217 154.891C292.537 172.567 293.503 192.235 287.951 210.543C282.399 228.852 270.672 244.669 254.768 255.298C238.864 265.927 219.767 270.712 200.732 268.837C181.696 266.961 163.9 258.542 150.375 245.013C142.687 237.343 136.59 228.23 132.435 218.196C128.279 208.162 126.147 197.406 126.161 186.545H125.938C125.938 202.945 130.8 218.977 139.909 232.613C149.018 246.249 161.966 256.876 177.114 263.152C192.262 269.428 208.93 271.069 225.011 267.869C241.092 264.669 255.863 256.771 267.456 245.174C279.049 233.577 286.943 218.802 290.141 202.717C293.339 186.632 291.696 169.96 285.421 154.809C279.145 139.657 268.519 126.708 254.886 117.598C241.252 108.487 225.224 103.625 208.828 103.627C186.844 103.629 165.76 112.366 150.216 127.916C134.671 143.466 125.938 164.555 125.938 186.545H126.049Z" fill="#1D1D1B"/>
<path d="M97.5609 186.545H97.6722C97.6675 160.816 106.582 135.882 122.897 115.991C139.212 96.0991 161.918 82.4818 187.146 77.459C212.374 72.4361 238.562 76.3185 261.249 88.4445C283.935 100.571 301.716 120.19 311.562 143.96C321.408 167.729 322.709 194.178 315.243 218.8C307.778 243.421 292.008 264.692 270.621 278.987C249.234 293.282 223.553 299.717 197.954 297.195C172.356 294.674 148.423 283.352 130.235 265.158C119.897 254.847 111.698 242.593 106.11 229.102C100.522 215.611 97.6543 201.149 97.6722 186.545H97.457C97.457 208.581 103.99 230.122 116.229 248.444C128.469 266.766 145.866 281.046 166.219 289.479C186.573 297.911 208.969 300.117 230.576 295.818C252.183 291.518 272.03 280.906 287.607 265.324C303.185 249.742 313.793 229.889 318.09 208.277C322.387 186.664 320.18 164.262 311.748 143.904C303.317 123.546 289.039 106.146 270.72 93.9048C252.402 81.6634 230.866 75.1304 208.836 75.1318C194.209 75.1318 179.725 78.0137 166.211 83.6128C152.698 89.212 140.419 97.4188 130.076 107.765C119.734 118.11 111.53 130.393 105.933 143.91C100.336 157.427 97.4561 171.915 97.457 186.545H97.5609Z" fill="#1D1D1B"/>
<path d="M74.0371 189.707H74.1484C74.1464 157.912 85.1665 127.099 105.331 102.52C125.495 77.9406 153.557 61.1152 184.733 54.9107C215.91 48.7062 248.272 53.5065 276.307 68.4936C304.342 83.4807 326.314 107.727 338.48 137.102C350.645 166.477 352.252 199.162 343.025 229.589C333.799 260.015 314.31 286.301 287.88 303.966C261.45 321.631 229.714 329.583 198.079 326.467C166.444 323.351 136.869 309.359 114.391 286.877C101.614 274.131 91.4806 258.985 84.5743 242.309C77.668 225.634 74.1248 207.757 74.1484 189.707H73.9258C73.9248 207.783 77.4836 225.683 84.3988 242.383C91.3141 259.083 101.45 274.258 114.229 287.039C127.008 299.821 142.178 309.96 158.874 316.877C175.57 323.794 193.465 327.353 211.537 327.352C287.541 327.352 349.155 265.745 349.155 189.707C349.155 113.67 287.563 52.0547 211.537 52.0547C135.511 52.0547 73.9258 113.662 73.9258 189.707H74.0371Z" fill="#1D1D1B"/>
<path d="M229.533 318.527L229.718 318.275L78.9724 207.915L189.119 57.3843L339.613 167.551L229.28 318.341L229.533 318.527L229.718 318.275L229.533 318.527L229.793 318.713L340.496 167.417L188.986 56.501L78.0894 208.049L229.607 318.965L229.793 318.713L229.533 318.527Z" fill="#1D1D1B"/>
<path d="M229.859 320.635L230.044 320.382L76.8645 208.241L188.792 55.2684L341.727 167.224L229.607 320.449L229.859 320.635L230.044 320.382L229.859 320.635L230.119 320.82L342.603 167.09L188.651 54.3926L75.9814 208.375L229.933 321.08L230.119 320.82L229.859 320.635Z" fill="#1D1D1B"/>
<path d="M230.468 324.547L230.564 324.42L72.7313 208.88L188.154 51.1416L345.853 166.586L230.341 324.458L230.468 324.547L230.564 324.42L230.468 324.547L230.594 324.643L346.291 166.519L188.087 50.6963L72.2935 208.947L230.505 324.769L230.594 324.643L230.468 324.547Z" fill="#1D1D1B"/>
<path d="M255.008 311.936L255.075 311.795L85.3316 233.382L163.658 63.7379L333.253 142.084L254.86 311.869L255.008 311.936L255.075 311.795L255.008 311.936L255.149 312.002L333.676 141.935L163.502 63.3223L84.916 233.538L255.082 312.144L255.149 312.002L255.008 311.936Z" fill="#1D1D1B"/>
<path d="M254.274 309.939L254.34 309.798L87.3282 232.648L164.393 65.735L331.257 142.819L254.125 309.872L254.274 309.939L254.34 309.798L254.274 309.939L254.415 310.006L331.672 142.67L164.237 65.3193L86.9126 232.796L254.348 310.147L254.415 310.006L254.274 309.939Z" fill="#1D1D1B"/>
<path d="M253.568 308.039L253.769 307.609L89.6433 231.794L165.246 68.0581L328.941 143.672L253.146 307.839L253.568 308.039L253.769 307.609L253.568 308.039L253.999 308.232L330.196 143.212L164.786 66.8037L88.3892 232.254L253.799 308.663L253.999 308.232L253.568 308.039Z" fill="#1D1D1B"/>
<path d="M119.912 285.326L120.068 285.319L111.891 98.4839L298.523 90.3041L306.701 276.983L119.905 285.17L119.912 285.326L120.068 285.319L119.912 285.326L119.92 285.482L307.028 277.287L298.82 89.9775L111.557 98.187L119.764 285.489L119.92 285.482L119.912 285.326Z" fill="#1D1D1B"/>
<path d="M225.985 159.594V158.332H192.287L175.079 188.149L192.287 217.965H226.705L243.914 188.149L226.705 158.332H225.985V159.594L224.894 160.217L241.012 188.149L225.258 215.442H193.742L177.988 188.149L193.742 160.848H225.985V159.594L224.894 160.217L225.985 159.594Z" fill="#1D1D1B"/>
<path d="M219.952 170.038V169.882H198.952L188.414 188.149L198.952 206.416H220.041L230.586 188.149L220.041 169.882H219.952V170.038L219.819 170.119L230.223 188.149L219.863 206.104H199.137L188.778 188.149L199.137 170.194H219.952V170.038L219.819 170.119L219.952 170.038Z" fill="#1D1D1B"/>
<path d="M221.466 167.418V167.262H197.445L185.386 188.149L197.445 209.036H221.555L233.607 188.149L221.555 167.262H221.466V167.418L221.325 167.499L233.243 188.149L221.37 208.717H197.623L185.75 188.149L197.623 167.573H221.466V167.418L221.325 167.499L221.466 167.418Z" fill="#1D1D1B"/>
<path d="M222.386 165.822V165.666H196.518L183.539 188.149L196.518 210.632H222.475L235.454 188.149L222.475 165.666H222.386V165.822L222.253 165.896L235.091 188.149L222.297 210.321H196.703L183.902 188.149L196.703 165.978H222.386V165.822L222.253 165.896L222.386 165.822Z" fill="#1D1D1B"/>
<path d="M223.076 164.619V164.463H195.827L182.158 188.149L195.827 211.834H223.172L236.842 188.149L223.172 164.463H223.076V164.619L222.942 164.7L236.478 188.149L222.987 211.515H196.005L182.521 188.149L196.005 164.775H223.076V164.619L222.942 164.7L223.076 164.619Z" fill="#1D1D1B"/>
<path d="M230.875 151.117V150.961H188.035L166.567 188.148L188.035 225.336H230.964L252.433 188.148L230.964 150.961H230.875V151.117L230.734 151.191L252.069 188.148L230.779 225.024H188.213L166.931 188.148L188.213 151.273H230.875V151.117L230.734 151.191L230.875 151.117Z" fill="#1D1D1B"/>
<path d="M233.962 145.766V145.603H184.941L160.385 188.149L184.941 230.688H234.051L258.607 188.149L234.051 145.603H233.962V145.766L233.829 145.84L258.243 188.149L233.873 230.376H185.126L160.749 188.149L185.126 145.922H233.962V145.766L233.829 145.84L233.962 145.766Z" fill="#1D1D1B"/>
<path d="M234.794 144.326V144.17H184.117L158.731 188.149L184.117 232.128H234.883L260.27 188.149L234.883 144.17H234.794V144.326L234.653 144.407L259.906 188.149L234.705 231.809H184.296L159.095 188.149L184.296 144.482H234.794V144.326L234.653 144.407L234.794 144.326Z" fill="#1D1D1B"/>
<path d="M233.77 140.673L233.762 140.517L180.429 143.234L156.074 190.872L185.149 235.787L238.571 233.062L262.919 185.424L233.851 140.51L233.762 140.517L233.77 140.673L233.636 140.755L262.555 185.439L238.371 232.758L185.312 235.46L156.438 190.85L180.63 143.538L233.777 140.829L233.77 140.673L233.636 140.755L233.77 140.673Z" fill="#1D1D1B"/>
<path d="M217.881 173.623V173.467H201.021L192.547 188.149L201.021 202.831H217.978L226.452 188.149L217.978 173.467H217.881V173.623L217.748 173.697L226.089 188.149L217.792 202.519H201.207L192.91 188.149L201.207 173.779H217.881V173.623L217.748 173.697L217.881 173.623Z" fill="#1D1D1B"/>
<path d="M235.358 160.529L235.499 159.913L198.298 151.243L171.947 179.397L183.145 216.302L220.694 225.054L247.053 196.9L235.855 159.994L235.499 159.913L235.358 160.529L234.757 160.707L245.636 196.573L220.271 223.658L184.14 215.241L173.365 179.724L198.721 152.631L235.217 161.138L235.358 160.529L234.757 160.707L235.358 160.529Z" fill="#1D1D1B"/>
<path d="M236.656 150.583L236.679 150.427L190.477 145.669L163.213 183.383L182.232 225.863L228.516 230.621L255.787 192.914L236.768 150.434L236.679 150.427L236.656 150.583L236.515 150.65L255.424 192.877L228.367 230.294L182.448 225.566L163.577 183.42L190.625 146.003L236.642 150.739L236.656 150.583L236.515 150.65L236.656 150.583Z" fill="#1D1D1B"/>
<path d="M238.445 137.994V137.838H180.458L151.421 188.148L180.458 238.452H238.534L267.579 188.148L238.534 137.838H238.445V137.994L238.311 138.075L267.215 188.148L238.355 238.14H180.644L151.785 188.148L180.644 138.157H238.445V137.994L238.311 138.075L238.445 137.994Z" fill="#1D1D1B"/>
<path d="M239.425 136.295V136.139H179.479L149.462 188.149L179.479 240.159H239.521L269.538 188.149L239.521 136.139H239.425V136.295L239.291 136.376L269.175 188.149L239.336 239.84H179.658L149.826 188.149L179.658 136.458H239.425V136.295L239.291 136.376L239.425 136.295Z" fill="#1D1D1B"/>
<path d="M241.035 133.51V133.354H177.869L146.242 188.148L177.869 242.942H241.131L272.759 188.148L241.131 133.354H241.035V133.51L240.901 133.585L272.395 188.148L240.946 242.63H178.055L146.605 188.148L178.055 133.666H241.035V133.51L240.901 133.585L241.035 133.51Z" fill="#1D1D1B"/>
<path d="M236.916 140.644V140.488H181.987L154.479 188.149L181.987 235.81H237.013L264.521 188.149L237.013 140.488H236.916V140.644L236.782 140.726L264.158 188.149L236.827 235.498H182.173L154.842 188.149L182.173 140.8H236.916V140.644L236.782 140.726L236.916 140.644Z" fill="#1D1D1B"/>
<path d="M248.997 119.72V119.557H169.906L130.324 188.149L169.906 256.734H249.086L288.676 188.149L249.086 119.557H248.997V119.72L248.863 119.794L288.312 188.149L248.908 256.422H170.092L130.68 188.149L170.092 119.876H248.997V119.72L248.863 119.794L248.997 119.72Z" fill="#1D1D1B"/>
<path d="M251.862 114.761V114.605H167.05L124.595 188.149L167.05 261.692H251.951L294.405 188.149L251.951 114.605H251.862V114.761L251.721 114.836L294.042 188.149L251.765 261.38H167.228L124.959 188.149L167.228 114.917H251.862V114.761L251.721 114.836L251.862 114.761Z" fill="#1D1D1B"/>
<path d="M122.97 262.769L124.157 263.184L184.659 91.1206L306.026 228.268L121.248 264.424L121.486 265.656L122.629 266.191C122.629 266.191 122.985 265.448 123.371 264.706C123.549 264.327 123.734 263.964 123.875 263.682L124.031 263.385L123.927 263.325L124.031 263.392L123.927 263.333L124.031 263.4L123.244 262.895L123.987 263.489L124.053 263.4L123.267 262.895L124.009 263.489L123.081 262.746L123.823 263.659L123.979 263.511L123.052 262.769L123.794 263.682L122.992 262.732L123.571 263.838C123.652 263.797 123.727 263.744 123.794 263.682L122.992 262.732L123.571 263.838L122.992 262.724V263.979C123.193 263.974 123.391 263.926 123.571 263.838L122.992 262.724L122.25 263.741C122.466 263.899 122.725 263.985 122.992 263.986V262.724L122.25 263.741L122.992 262.732L121.775 263.051C121.849 263.327 122.014 263.57 122.243 263.741L122.985 262.732L121.768 263.051L122.97 262.732H121.723C121.73 262.839 121.744 262.946 121.768 263.051L122.97 262.732H122.896L121.753 262.494C121.745 262.573 121.745 262.653 121.753 262.732H122.925L121.783 262.494L122.525 262.643L121.82 262.427V262.494L122.562 262.643L121.857 262.427L124.231 263.259L123.044 262.843L124.231 263.259L124.283 263.095V262.977C124.29 262.885 124.29 262.793 124.283 262.702C124.283 262.523 124.245 262.346 124.172 262.182C124.086 261.983 123.947 261.812 123.771 261.685C123.557 261.525 123.297 261.44 123.029 261.44C122.842 261.437 122.657 261.478 122.488 261.559C122.357 261.623 122.237 261.705 122.131 261.804L121.968 262.004C121.894 262.113 121.827 262.227 121.768 262.346C121.553 262.746 121.219 263.437 120.922 264.053C120.625 264.669 120.38 265.188 120.38 265.196L119.319 267.423L310.827 229.924L183.709 86.2588L121.783 262.353L124.157 263.184L122.97 262.769Z" fill="#1D1D1B"/>
<path d="M178.24 287.939L178.707 287.865L148.349 106.664L323.405 169.014L178.047 290.789L178.344 291.153H178.819C178.819 291.153 178.781 290.537 178.737 289.824C178.692 289.112 178.663 288.34 178.663 287.984V287.88H178.447L178.655 287.924H178.44L178.648 287.969L178.225 287.88L178.611 288.073L178.648 287.969L178.225 287.88L178.611 288.073L178.195 287.865L178.507 288.206L178.611 288.073L178.195 287.865L178.507 288.206L178.195 287.857V288.325C178.252 288.327 178.309 288.317 178.363 288.297C178.416 288.277 178.465 288.246 178.507 288.206L178.195 287.857L177.832 288.162C177.878 288.212 177.934 288.252 177.997 288.28C178.059 288.308 178.127 288.323 178.195 288.325V287.82L177.832 288.125L178.165 287.85L177.757 287.991L177.832 288.125L178.165 287.85L177.757 287.991L177.965 287.917L177.757 287.976L177.965 287.902L177.757 287.961V288.028L178.692 287.872L178.225 287.946L178.692 287.872V287.716L178.655 287.62L178.588 287.501C178.542 287.448 178.485 287.405 178.421 287.376C178.357 287.346 178.288 287.331 178.217 287.33C178.101 287.333 177.989 287.375 177.898 287.449L177.765 287.657C177.755 287.721 177.755 287.786 177.765 287.85V287.991C177.765 288.733 177.928 291.212 177.928 291.22L177.987 292.148L325.275 168.643L147.176 105.224L177.802 288.006L178.737 287.85L178.24 287.939Z" fill="#1D1D1B"/>
<path d="M180.57 274.652H180.726L153.677 113.076L310.182 168.746L180.57 277.428L180.674 277.547H180.83C180.83 277.547 180.689 275.32 180.689 274.711V274.6H180.57L180.682 274.659H180.563L180.674 274.719L180.533 274.645V274.8L180.674 274.719L180.533 274.645L180.415 274.741L180.533 274.8V274.645L180.415 274.741L180.511 274.667L180.4 274.704V274.741L180.496 274.667L180.385 274.704V274.793L180.697 274.741H180.541H180.697V274.63V274.585V274.541L180.57 274.481L180.429 274.57V274.689V274.808C180.429 275.454 180.57 277.658 180.57 277.658V277.97L310.805 168.672L153.284 112.594L180.437 274.674L180.748 274.622L180.57 274.652Z" fill="#1D1D1B"/>
<path d="M102.6 213.468L102.919 213.824L240.137 91.692L280.543 273.101L100.062 214.833L99.9134 215.286L100.195 215.665C100.195 215.665 100.856 215.182 101.539 214.707L102.481 214.046L102.8 213.839L102.874 213.794L102.756 213.564L102.852 213.802L102.733 213.571L102.83 213.809L102.674 213.401V213.839H102.83L102.674 213.43L102.399 213.809C102.48 213.866 102.576 213.897 102.674 213.898V213.43L102.399 213.809L102.674 213.43H102.206C102.208 213.504 102.226 213.576 102.26 213.642C102.293 213.707 102.341 213.764 102.399 213.809L102.674 213.43L102.266 213.215C102.229 213.281 102.211 213.355 102.214 213.43H102.674L102.266 213.215L102.615 213.401L102.31 213.141L102.266 213.215L102.615 213.401L102.31 213.141L102.266 213.185L102.897 213.891L102.577 213.534L102.897 213.891L103 213.787L103.06 213.72L103.104 213.646C103.136 213.578 103.154 213.505 103.156 213.43C103.155 213.356 103.137 213.283 103.103 213.216C103.07 213.149 103.022 213.091 102.963 213.044C102.882 212.984 102.783 212.953 102.681 212.955C102.61 212.955 102.54 212.968 102.474 212.992L102.214 213.148C101.531 213.586 99.624 214.967 99.6166 214.967L98.8745 215.516L281.819 274.578L240.678 89.918L102.258 213.134L102.889 213.839L102.6 213.468Z" fill="#1D1D1B"/>
<path d="M90.1401 236.114L90.2588 236.218L234.222 75.0877L305.981 282.298L87.2905 238.437L87.2534 238.586L87.3647 238.705C87.3647 238.705 88.1068 238.051 88.8117 237.398L89.8284 236.5L90.1772 236.211L90.281 236.129L90.2217 236.025V236.136H90.281L90.2217 236.033V235.988L90.1178 236.099L90.2217 236.144V235.988L90.1178 236.099L90.2217 235.988H90.0733L90.1178 236.099L90.2217 235.988L90.1178 235.929V235.988H90.2365L90.1326 235.929L90.0436 236.025L90.281 236.233L90.1623 236.129L90.281 236.233L90.3701 236.129V236.084V235.988L90.3182 235.877L90.2068 235.832H90.1104C89.8984 235.986 89.6953 236.152 89.5019 236.329C88.6262 237.072 87.1124 238.467 87.1124 238.467L86.8823 238.675L306.434 282.706L234.304 74.4717L90.0362 236.01L90.2662 236.218L90.1401 236.114Z" fill="#1D1D1B"/>
<path d="M80.9608 241.139L81.8958 241.978L235.18 70.4112L310.99 289.26L78.1112 242.542L77.8589 243.774L78.7049 244.709L80.2558 243.314C80.6417 242.965 81.035 242.616 81.3318 242.364L81.6732 242.074H81.7177L81.3096 241.495L81.6583 242.104H81.7177L81.3096 241.525L81.6583 242.134L81.0943 241.161L81.5322 242.2L81.6583 242.134L81.0943 241.161L81.5322 242.2L81.0572 241.057V242.297C81.2201 242.294 81.3809 242.261 81.5322 242.2L81.0572 241.057L80.6788 242.252C80.8016 242.29 80.929 242.31 81.0572 242.312V241.057L80.6788 242.252L81.0572 241.057L79.9961 241.725C80.1556 241.975 80.397 242.161 80.6788 242.252L81.0572 241.057L79.9961 241.725L81.0572 241.057H79.8031C79.8003 241.294 79.8674 241.527 79.9961 241.725L81.0572 241.057L79.907 240.582C79.8422 240.732 79.8118 240.894 79.818 241.057H81.0572L79.907 240.582L80.9682 241.02L80.0183 240.315C79.9713 240.379 79.9338 240.449 79.907 240.523L80.9682 240.961L80.0183 240.315L80.5229 240.657L80.0554 240.271L80.0183 240.315L80.5229 240.657L80.0554 240.271L80.0183 240.308L81.8958 241.985L80.9608 241.146L81.9032 241.978L82.0442 241.807L82.1481 241.659L82.2372 241.48C82.2997 241.327 82.3325 241.164 82.3336 240.998C82.3336 240.856 82.3085 240.715 82.2594 240.582C82.1605 240.292 81.9602 240.047 81.6954 239.892C81.5035 239.789 81.2899 239.733 81.0721 239.729C80.9122 239.73 80.7538 239.76 80.6046 239.818C80.5203 239.854 80.4385 239.897 80.3597 239.944C80.229 240.028 80.1049 240.123 79.9887 240.226C79.5583 240.582 78.831 241.228 78.1928 241.8L77.0129 242.868L75.1948 244.539L314.827 292.593L236.167 65.542L80.0183 240.315L81.9032 241.985L80.9608 241.139Z" fill="#1D1D1B"/>
<path d="M265.382 114.731L265.397 114.576L173.802 102.87L117.812 176.428L153.506 261.707L245.19 273.427L301.18 199.869L265.486 114.59L265.397 114.576L265.382 114.731L265.234 114.791L300.824 199.824L245.057 273.093L153.729 261.417L118.176 176.473L173.943 103.204L265.36 114.887L265.382 114.731L265.234 114.791L265.382 114.731Z" fill="#1D1D1B"/>
<path d="M287.259 53.435V52.96H131.467L53.437 188.148L131.467 323.336H287.526L365.563 188.148L287.526 52.96H287.259V53.435L286.85 53.6725L364.472 188.148L286.984 322.386H132.016L54.5279 188.148L132.016 53.9101H287.259V53.435L286.85 53.6725L287.259 53.435Z" fill="#1D1D1B"/>
<path d="M282.331 61.9785H203.486L203.916 62.2903H282.146L298.145 90.0063H298.501L282.331 61.9785ZM282.101 62.2086L282.235 62.1344L282.101 62.2086ZM202.951 61.9785H199.011L199.441 62.2903H203.382L202.951 61.9785ZM197.95 61.9785H196.466L196.896 62.2903H198.38L197.95 61.9785ZM195.39 61.9785H185.765L185.535 62.2903H195.827L195.39 61.9785ZM185 61.9785H183.91L183.68 62.2903H184.77L185 61.9785ZM183.13 61.9785H180.251L180.021 62.2903H182.9L183.13 61.9785ZM179.858 61.9785H136.669L115.891 97.9931H116.269L136.869 62.3051H179.606L179.858 61.9785Z" fill="#1D1D1B"/>
<path d="M184.978 61.9785L184.748 62.2903H185.527L185.757 61.9785H184.978ZM195.367 61.9785L195.798 62.2903H196.896L196.465 61.9785H195.367Z" fill="#1D1D1B"/>
<path d="M183.108 61.9785L182.878 62.2903H183.657L183.887 61.9785H183.108ZM197.95 61.9785L198.38 62.2903H199.441L199.011 61.9785H197.95Z" fill="#1D1D1B"/>
<path d="M179.828 61.9785L179.598 62.2903H179.991L180.221 61.9785H179.828ZM202.943 61.9785L203.374 62.2903H203.908L203.478 61.9785H202.943Z" fill="#1D1D1B"/>
<path d="M298.56 90.3037H298.36L298.575 90.6748L298.56 90.3037ZM298.887 90.6006V91.2761L326.106 138.439L326.603 138.662L298.887 90.6006ZM326.41 138.907L327.442 140.696L327.932 140.926L326.9 139.137L326.41 138.907ZM327.709 141.171L328.407 142.373L328.904 142.604L328.206 141.401L327.709 141.171ZM329.802 144.14L329.638 144.489L330.128 145.335L330.292 144.986L329.802 144.14ZM330.47 145.305L330.306 145.654L331.048 146.916L331.212 146.567L330.47 145.305ZM331.39 146.901L331.227 147.25L339.389 161.442L340.02 161.902L331.39 146.901ZM339.805 162.118L343.916 169.236L344.116 168.961L340.406 162.578L339.805 162.118ZM344.295 169.258L344.087 169.533L354.817 188.089L307.213 270.555L307.354 270.948L355.181 188.089L344.295 169.258Z" fill="#1D1D1B"/>
<path d="M339.375 161.472L339.761 162.147L340.392 162.607L340.006 161.932L339.375 161.472ZM344.072 168.991L343.872 169.265L344.043 169.562L344.25 169.288L344.072 168.991Z" fill="#1D1D1B"/>
<path d="M326.1 138.439L326.374 138.907L326.864 139.137L326.597 138.662L326.1 138.439ZM331.175 146.604L331.012 146.953L331.205 147.287L331.368 146.938L331.175 146.604Z" fill="#1D1D1B"/>
<path d="M327.405 140.695L327.672 141.17L328.17 141.4L327.895 140.925L327.405 140.695ZM330.255 145L330.092 145.349L330.285 145.683L330.47 145.305L330.255 145Z" fill="#1D1D1B"/>
<path d="M328.37 142.373L329.602 144.503L329.765 144.154L328.867 142.603L328.37 142.373Z" fill="#1D1D1B"/>
<path d="M116.069 98.3057H115.69L112.151 104.481V105.068L116.069 98.3057ZM111.854 104.986L63.8413 188.149L74.2824 206.238L74.4827 205.956L64.2049 188.142L111.884 105.543L111.854 104.986ZM74.6534 206.253L74.453 206.535L78.0595 212.777L78.6903 213.245L74.6534 206.253ZM78.4454 213.453L87.1945 228.602L87.3504 228.254L79.0762 213.92L78.4454 213.453ZM87.5433 228.588L87.3875 228.936L88.1296 230.198L88.2854 229.849L87.5433 228.588ZM88.4635 230.183L88.3077 230.532L88.4783 230.829L88.701 230.584L88.4635 230.183Z" fill="#1D1D1B"/>
<path d="M74.4528 205.956L74.2524 206.238L74.4231 206.535L74.6235 206.253L74.4528 205.956ZM78.0296 212.777L78.4155 213.453L79.0463 213.921L78.6604 213.245L78.0296 212.777Z" fill="#1D1D1B"/>
<path d="M87.1943 228.602L87.3799 228.936L87.5431 228.587L87.3502 228.253L87.1943 228.602Z" fill="#1D1D1B"/>
<path d="M88.1143 230.198L88.3072 230.532L88.463 230.183L88.2701 229.842L88.1143 230.198Z" fill="#1D1D1B"/>
<path d="M89.9397 232.974L89.8062 233.13L90.3256 234.035L90.8228 234.265L90.1252 233.055L89.9397 232.974ZM90.6002 234.51L90.9044 235.03L91.1196 234.785V234.733L90.6002 234.51Z" fill="#1D1D1B"/>
<path d="M90.6002 234.503L91.0974 234.733L90.8229 234.258L90.3257 234.035L90.6002 234.503Z" fill="#1D1D1B"/>
<path d="M89.9399 232.967L90.1255 233.056L90.0216 232.878L89.9399 232.967Z" fill="#1D1D1B"/>
<path d="M91.2905 235.067L91.0679 235.32L91.6318 236.292L92.129 236.522L91.2905 235.067ZM91.9064 236.767L93.5983 239.699L94.0065 239.781L92.3962 236.997L91.9064 236.767Z" fill="#1D1D1B"/>
<path d="M91.9069 236.767L92.3967 236.997L92.1295 236.522L91.6323 236.292L91.9069 236.767Z" fill="#1D1D1B"/>
<path d="M93.8062 240.062L97.5165 246.446L97.9321 246.528L94.2217 240.144L93.8062 240.062ZM99.164 249.348L119.742 284.977V284.294L99.6092 249.408L99.164 249.348ZM305.529 273.501L304.126 275.943L304.26 276.337L305.662 273.902L305.529 273.501ZM303.918 276.292L303.436 277.131H303.807L304.052 276.701L303.918 276.292ZM303.622 277.435H303.251L301.024 281.28L301.343 281.347L303.622 277.435ZM300.861 281.585L297.945 286.639L298.271 286.706L301.188 281.651L300.861 281.585ZM120.054 284.91V285.17H120.195L120.054 284.91ZM120.38 285.467H120.024L136.669 314.311H216.234L215.804 313.999H136.854L120.38 285.467ZM296.616 288.948L282.146 314.014H238.363L238.133 314.326H282.316L296.928 289.007L296.616 288.948ZM237.992 314.014H235.113L234.883 314.326H237.762L237.992 314.014ZM234.334 314.014H233.258L233.028 314.326H234.118L234.334 314.014ZM232.464 314.014H223.893L224.323 314.326H232.226L232.464 314.014ZM222.817 314.014H221.332L221.763 314.326H223.247L222.817 314.014ZM220.256 314.014H216.323L216.754 314.326H220.687L220.256 314.014Z" fill="#1D1D1B"/>
<path d="M222.869 314.007L223.299 314.326H224.353L223.922 314.007H222.869ZM232.516 314.007L232.286 314.326H233.065L233.295 314.007H232.516Z" fill="#1D1D1B"/>
<path d="M220.271 314.007L220.702 314.326H221.77L221.34 314.007H220.271ZM234.327 314.007L234.096 314.326H234.876L235.106 314.007H234.327Z" fill="#1D1D1B"/>
<path d="M215.804 314.007L216.234 314.326H216.768L216.338 314.007H215.804ZM237.984 314.007L237.754 314.326H238.148L238.378 314.007H237.984Z" fill="#1D1D1B"/>
<path d="M298.502 89.9922H298.146L298.324 90.3039H298.524V90.6899L298.865 91.2763V90.6008L298.502 89.9922ZM116.255 97.9789H115.876L115.691 98.3055H116.069L116.255 97.9789ZM112.151 104.481L111.854 104.986V105.572L112.143 105.068L112.151 104.481ZM303.808 277.117H303.437L303.251 277.436H303.622L303.808 277.117ZM119.72 284.317V284.999L120.002 285.482H120.358L120.18 285.178H120.039V284.91L119.72 284.317Z" fill="#1D1D1B"/>
<path d="M91.12 234.785L90.9048 235.03L91.068 235.32L91.2907 235.067L91.12 234.785ZM93.5985 239.699L93.8063 240.063L94.2145 240.144L94.0067 239.781L93.5985 239.699ZM304.126 275.944L303.919 276.3L304.052 276.693L304.26 276.337L304.126 275.944ZM301.032 281.303L300.861 281.592L301.188 281.659L301.358 281.37L301.032 281.303Z" fill="#1D1D1B"/>
<path d="M88.7011 230.584L88.4785 230.829L89.7994 233.13L89.9404 232.974L90.0369 232.892L88.7011 230.584ZM97.4577 246.446L99.1348 249.348L99.5503 249.43L97.8732 246.528L97.4577 246.446ZM307.162 270.614L305.499 273.502L305.633 273.895L307.303 271.008L307.162 270.614ZM297.915 286.64L296.587 288.941L296.914 289.007L298.242 286.706L297.915 286.64Z" fill="#1D1D1B"/>
<path d="M289.923 48.8108V48.6475H128.98L48.4575 188.148L128.98 327.649H290.019L370.535 188.148L290.019 48.6475H289.923V48.8108L289.789 48.885L370.171 188.148L289.833 327.33H129.159L48.8211 188.148L129.159 48.9666H289.923V48.8108L289.789 48.885L289.923 48.8108Z" fill="#1D1D1B"/>
<path d="M291.258 46.5029H127.741L45.979 188.149L77.3689 242.542C77.4431 242.483 77.5174 242.408 77.6064 242.327L46.3426 188.141L127.919 46.8147H291.08L372.657 188.149L313.892 289.958L314.033 290.351L373.021 188.149L291.258 46.5029ZM291.036 46.7405L291.169 46.6588L291.036 46.7405ZM78.9644 245.296L127.741 329.802H291.258L312.949 292.222L312.623 292.155L291.103 329.483H127.919L79.3726 245.377L78.9644 245.296Z" fill="#1D1D1B"/>
<path d="M77.6061 242.319C77.5171 242.401 77.4429 242.475 77.3687 242.535L78.9641 245.296L79.3723 245.377L77.6061 242.319ZM313.891 289.958L312.622 292.185L312.949 292.251L314.032 290.381L313.891 289.958Z" fill="#1D1D1B"/>
<path d="M294.064 41.6406H124.914L40.3174 188.148L124.914 334.656H294.064L378.661 188.148L294.064 41.6406ZM293.841 41.8782L293.975 41.7965L293.841 41.8782ZM125.115 334.33L40.7329 188.104L125.115 41.8782H293.886L378.267 188.104L293.886 334.33H125.115Z" fill="#1D1D1B"/>
<path d="M302.902 26.3356V26.1797H116.009L22.5146 188.149L116.009 350.118H302.991L396.478 188.149L302.991 26.1797H302.902V26.3356L302.761 26.4098L396.114 188.149L302.805 349.806H116.187L22.8783 188.149L116.187 26.4914H302.902V26.3356L302.761 26.4098L302.902 26.3356Z" fill="#1D1D1B"/>
<path d="M304.43 23.6777H114.562L19.6353 188.148L114.562 352.619H304.43L399.364 188.148L304.43 23.6777ZM304.208 23.9153L304.341 23.8336L304.208 23.9153ZM114.747 352.307L19.9989 188.148L114.747 23.9969H304.252L399.001 188.148L304.252 352.307H114.747Z" fill="#1D1D1B"/>
<path d="M307.688 18.0371H111.312L13.1196 188.149L111.312 358.268H307.688L405.88 188.149L307.688 18.0371ZM307.465 18.2746L307.599 18.193L307.465 18.2746ZM111.49 357.949L13.4832 188.149L111.49 18.3785H307.51L405.516 188.149L307.51 357.949H111.49Z" fill="#1D1D1B"/>
<path d="M309.143 15.5133V15.3574H109.761L10.0254 188.149L109.761 360.94H309.232L408.967 188.149L309.232 15.3574H309.143V15.5133L309.009 15.5949L408.603 188.149L309.053 360.621H109.946L10.389 188.149L109.946 15.6692H309.143V15.5133L309.009 15.5949L309.143 15.5133Z" fill="#1D1D1B"/>
<path d="M310.775 12.6924H108.188L6.92383 188.148L108.225 363.604H310.813L412.047 188.148L310.775 12.6924ZM310.545 12.9299L310.686 12.8557L310.545 12.9299ZM108.403 363.278L7.31713 188.104L108.403 12.9299H310.59L411.683 188.104L310.59 363.278H108.403Z" fill="#1D1D1B"/>
<path d="M314.248 6.67285H104.752L0 188.149L104.752 369.624H314.248L419 188.149L314.248 6.67285ZM314.018 6.91038L314.159 6.82873L314.018 6.91038ZM104.93 369.313L0.363623 188.149L104.93 6.99202H314.07L418.636 188.149L314.07 369.313H104.93Z" fill="#1D1D1B"/>
<path d="M90.9633 187.109H91.5941C91.5923 160.016 100.983 133.76 118.165 112.815C135.348 91.8704 159.259 77.5331 185.825 72.246C212.391 66.959 239.969 71.0494 263.858 83.8202C287.747 96.591 306.469 117.252 316.836 142.283C327.203 167.314 328.571 195.166 320.709 221.093C312.847 247.02 296.24 269.418 273.719 284.471C251.197 299.524 224.154 306.3 197.197 303.644C170.241 300.989 145.039 289.067 125.886 269.909C114.998 259.048 106.363 246.142 100.478 231.932C94.5932 217.723 91.574 202.49 91.5941 187.109H90.3325C90.3325 210.519 97.2726 233.403 110.275 252.867C123.278 272.332 141.758 287.502 163.381 296.461C185.003 305.419 208.796 307.763 231.75 303.196C254.704 298.629 275.789 287.356 292.338 270.803C308.887 254.25 320.157 233.16 324.723 210.2C329.288 187.241 326.945 163.442 317.989 141.814C309.033 120.187 293.866 101.701 274.406 88.6955C254.947 75.6898 232.068 68.748 208.664 68.748C177.281 68.748 147.183 81.2182 124.991 103.415C102.8 125.612 90.3325 155.718 90.3325 187.109H90.9633Z" fill="#1D1D1B"/>
<path d="M93.4937 187.11H93.6496C93.6473 160.492 102.872 134.697 119.753 114.12C136.633 93.5423 160.125 79.4563 186.225 74.2616C212.324 69.067 239.417 73.0851 262.887 85.6314C286.357 98.1776 304.751 118.476 314.936 143.067C325.121 167.658 326.466 195.021 318.743 220.493C311.019 245.965 294.704 267.97 272.578 282.759C250.452 297.548 223.884 304.206 197.4 301.597C170.917 298.989 146.157 287.276 127.34 268.454C116.643 257.785 108.159 245.106 102.377 231.146C96.5954 217.186 93.6294 202.22 93.6496 187.11H93.3379C93.3379 209.925 100.102 232.228 112.774 251.198C125.446 270.168 143.458 284.953 164.531 293.684C185.604 302.415 208.792 304.699 231.163 300.248C253.535 295.797 274.084 284.811 290.212 268.678C306.341 252.546 317.325 231.991 321.775 209.615C326.225 187.238 323.941 164.044 315.212 142.965C306.483 121.887 291.702 103.871 272.736 91.1957C253.771 78.5203 231.474 71.7549 208.664 71.7549C178.078 71.7549 148.744 83.9083 127.116 105.542C105.488 127.175 93.3379 156.516 93.3379 187.11H93.4937Z" fill="#1D1D1B"/>
<path d="M53.8668 187.11H54.0226C54.0274 151.321 66.4385 116.641 89.1411 88.9796C111.844 61.3181 143.433 42.3862 178.526 35.4101C213.62 28.4339 250.046 33.845 281.598 50.7214C313.15 67.5979 337.875 94.8953 351.561 127.962C365.247 161.03 367.046 197.82 356.652 232.066C346.259 266.311 324.315 295.892 294.56 315.768C264.806 335.644 229.082 344.586 193.475 341.069C157.869 337.552 124.583 321.795 99.2894 296.482C84.9131 282.133 73.5132 265.084 65.7448 246.314C57.9765 227.544 53.9928 207.424 54.0226 187.11H53.6738C53.6738 272.707 123.058 342.101 208.635 342.101C294.211 342.101 363.588 272.707 363.588 187.11C363.588 101.512 294.241 32.1104 208.664 32.1104C123.088 32.1104 53.6738 101.512 53.6738 187.11H53.8668Z" fill="#1D1D1B"/>
<path d="M21.1339 191.504H21.2897C21.286 147.266 36.6176 104.396 64.672 70.1983C92.7265 36.0003 131.768 12.5904 175.144 3.95736C218.52 -4.67567 263.547 2.00239 302.552 22.8537C341.557 43.7049 372.128 77.4392 389.054 118.308C405.981 159.178 408.216 204.653 395.379 246.986C382.543 289.319 355.428 325.89 318.656 350.468C281.883 375.046 237.728 386.11 193.715 381.774C149.701 377.439 108.552 357.972 77.2795 326.692C59.5019 308.96 45.4034 287.888 35.7947 264.688C26.186 241.487 21.2565 216.616 21.2897 191.504H20.978C20.978 297.269 106.696 383.007 212.434 383.007C318.173 383.007 403.891 297.269 403.891 191.504C403.891 85.7387 318.181 0 212.434 0C106.688 0 20.978 85.7387 20.978 191.504H21.1339Z" fill="#1D1D1B"/>
</g>
<defs>
<clipPath id="clip0">
<rect width="419" height="383" fill="white"/>
</clipPath>
</defs>
</svg>
