<svg width="168" height="129" viewBox="0 0 168 129" fill="none" xmlns="http://www.w3.org/2000/svg">
<g opacity="0.8">
<g opacity="0.8">
<path opacity="0.8" d="M109.33 0H36.4457L0 59.4102L36.4457 118.814H109.33L145.776 59.4102L109.33 0Z" fill="#C01466"/>
</g>
</g>
<path d="M79.4907 84.8325C79.4907 76.9978 81.9594 69.339 86.5845 62.8247C91.2096 56.3104 97.7835 51.2331 105.475 48.2349C113.166 45.2366 121.629 44.4522 129.794 45.9807C137.959 47.5091 145.459 51.2819 151.346 56.8219C157.233 62.3619 161.242 69.4202 162.866 77.1044C164.49 84.7886 163.656 92.7534 160.47 99.9918C157.285 107.23 151.89 113.417 144.968 117.77C138.046 122.122 129.908 124.446 121.583 124.446C110.419 124.446 99.7129 120.272 91.8192 112.843C83.9254 105.414 79.4907 95.3385 79.4907 84.8325V84.8325Z" stroke="#010A2D" stroke-width="8" stroke-miterlimit="10"/>
</svg>
