<svg width="139" height="144" viewBox="0 0 139 144" fill="none" xmlns="http://www.w3.org/2000/svg">
<path fill-rule="evenodd" clip-rule="evenodd" d="M74.1275 134.475C53.0439 134.795 29.1658 135.391 8.10835 137.036C8.66649 94.5007 9.30478 60.1828 7.06052 2.00605C14.263 1.78098 60.1535 3.30699 68.0439 2.27847C60.102 1.84684 13.3414 -0.303664 4.55304 0.0362686C4.95811 43.2526 3.92661 92.8123 0 143.231C20.4639 142.376 41.304 141.482 61.9525 141.012C87.8938 140.41 113.521 140.474 138.367 142.091C135.913 91.6108 134.635 43.2445 134.18 0.718596C125.32 0.758048 75.963 1.4231 68.0439 2.27847C75.966 2.92052 124.453 2.90553 131.683 2.76855C127.185 48.0928 134.063 95.5138 131.175 136.452C113.3 137.334 91.5796 134.22 74.1275 134.475Z" fill="#C01466"/>
<path fill-rule="evenodd" clip-rule="evenodd" d="M98.1944 14.3305C97.3421 13.2391 96.3899 12.2112 95.3362 11.2721C93.6399 9.76466 91.6982 8.52123 89.5994 7.5981C87.3555 6.61543 84.9791 6.00255 82.5905 5.69876C76.326 5.24858 70.1491 6.49977 64.498 8.23833C65.057 12.0285 65.5664 15.7262 65.9304 19.3727C66.2702 21.8485 66.4987 24.3216 66.58 26.7919C66.6485 28.8595 66.6109 30.9461 66.5657 33.0095C66.5158 35.2785 66.4778 37.517 66.534 39.752C66.7407 37.5224 67.024 35.3142 67.308 33.0606C67.5669 31.0067 67.808 28.9197 67.9307 26.8096C68.0766 24.2892 68.0558 21.7476 67.9018 19.198C67.5604 15.8148 66.9366 12.5117 66.1672 9.25456C71.5028 8.1952 76.9569 7.73285 82.0983 8.88615C84.1943 9.21022 86.2377 9.7743 88.1102 10.6328C89.8609 11.4315 91.4851 12.4934 92.9007 13.7622C93.0153 13.8645 93.1285 13.9682 93.2405 14.0733C94.5569 15.3076 95.6998 16.7367 96.6771 18.274C97.8457 20.1123 98.7715 22.1169 99.5264 24.1949C101.677 28.944 102.758 34.0995 103.343 39.3449C99.2073 38.687 95.0415 38.1907 90.7989 38.0046C87.7025 37.9895 84.628 38.0958 81.5866 38.3824C79.2095 38.6068 76.8644 38.9492 74.5575 39.3402C72.2348 39.7338 70.0193 40.1451 67.7237 40.5031C70.0336 40.394 72.3179 40.2063 74.6486 40.036C76.9747 39.8663 79.3211 39.7342 81.6619 39.7075C84.6644 39.6726 87.678 39.7947 90.7127 40.0126C95.2709 40.1436 99.8892 40.3828 104.623 40.6512C104.696 34.9024 104.336 28.9327 102.806 23.1488C102.035 20.8717 101.033 18.6337 99.7257 16.5283C99.2571 15.7739 98.7469 15.039 98.1943 14.3305H98.1944Z" fill="#C01466"/>
<path fill-rule="evenodd" clip-rule="evenodd" d="M47.2394 62.109C49.6329 64.3747 52.4265 66.2437 55.4749 67.6055C60.1101 69.6741 65.2611 70.5384 70.2864 70.1338C75.3658 69.7231 80.2342 68.0236 84.3134 65.3217C88.4647 62.5705 91.7383 58.823 93.8124 54.6311C95.7547 50.7043 96.6298 46.4308 96.4645 42.3033C96.1343 46.4194 94.8193 50.4718 92.6318 54.0337C90.2944 57.8408 86.9475 61.0961 82.9959 63.3761C79.109 65.6203 74.6146 66.932 70.0817 67.1321C65.5917 67.3319 61.0306 66.4418 56.9862 64.5707C55.2745 63.7796 53.6496 62.8103 52.1463 61.6909C50.1056 60.1735 48.2878 58.3791 46.7803 56.3774C44.1511 52.8896 42.4442 48.7449 41.8726 44.4784C41.2935 40.1681 41.8684 35.7019 43.5098 31.6467C45.1786 27.5209 47.959 23.7978 51.484 20.9313C55.0969 17.9924 59.4991 15.9443 64.1356 15.0082C59.4079 15.4341 54.6741 17.0698 50.6001 19.8402C46.6196 22.5481 43.3222 26.3072 41.2096 30.7112C39.1311 35.0472 38.2339 39.9438 38.7 44.8053C39.1638 49.6236 40.9603 54.3283 43.9003 58.3305C44.8939 59.6821 46.0132 60.9468 47.2394 62.109Z" fill="#C01466"/>
<path fill-rule="evenodd" clip-rule="evenodd" d="M24.0408 99.0042C24.0594 109.592 24.4315 120.088 25.1385 129.971C27.2131 120.754 26.6409 109.45 26.631 99.4306C26.6124 88.8427 26.631 78.2489 24.9476 69.636C24.3378 79.0478 24.0309 88.985 24.0408 99.0042Z" fill="#C01466"/>
<path fill-rule="evenodd" clip-rule="evenodd" d="M24.647 130.163H24.647C57.3389 130.537 88.8931 130.733 119.262 130.004C88.8151 129.253 59.1405 127.205 26.6858 129.22C35.0533 118.289 50.3117 101.073 50.3117 101.073L66.9943 112.691C74.0163 105.774 81.1607 99.638 88.041 92.8156C88.041 92.8156 95.5911 97.0305 95.5661 97.0114C101.198 91.7501 106.656 86.5486 111.918 81.4013C106.408 86.2896 95.4643 94.6193 95.4643 94.6193C95.4387 94.5991 87.7349 90.1186 87.7093 90.0984C80.8041 96.6827 73.7487 103.021 66.7123 109.776C61.0513 105.657 55.4335 101.881 49.7271 97.7591L49.7271 97.759C40.8154 109.216 33.5751 118.611 24.647 130.163Z" fill="#C01466"/>
</svg>
