<svg width="450" height="412" viewBox="0 0 450 412" fill="none" xmlns="http://www.w3.org/2000/svg">
<path d="M292.601 0L0 336.57L450 411.491L292.601 0Z" fill="#B0DEED"/>
<path d="M224.972 20.9866L121.812 318.968L442.267 255.717L224.972 20.9866Z" fill="#010A2D"/>
<g opacity="0.8">
<g opacity="0.8">
<path opacity="0.8" d="M254.296 96.3215H153.174L102.609 180.382L153.174 264.435H254.296L304.861 180.382L254.296 96.3215Z" fill="#C01466"/>
</g>
</g>
<path d="M212.896 216.353C212.896 205.268 216.321 194.431 222.738 185.214C229.155 175.996 238.276 168.812 248.947 164.57C259.618 160.328 271.36 159.218 282.688 161.381C294.016 163.543 304.422 168.882 312.589 176.72C320.756 184.559 326.318 194.546 328.572 205.418C330.825 216.291 329.669 227.561 325.248 237.802C320.828 248.044 313.343 256.798 303.74 262.957C294.136 269.115 282.845 272.403 271.295 272.403C255.806 272.403 240.952 266.497 230.001 255.986C219.049 245.475 212.896 231.218 212.896 216.353V216.353Z" stroke="#010A2D" stroke-width="8" stroke-miterlimit="10"/>
</svg>
