<svg width="254" height="211" viewBox="0 0 254 211" fill="none" xmlns="http://www.w3.org/2000/svg">
<path d="M97.3542 0L23 210.599L253.973 165.896L97.3542 0Z" fill="#010A2D"/>
<g opacity="0.8">
<g opacity="0.8">
<path opacity="0.8" d="M109.33 53H36.4457L0 112.41L36.4457 171.814H109.33L145.776 112.41L109.33 53Z" fill="#C01466"/>
</g>
</g>
<path d="M79.4907 137.833C79.4907 129.998 81.9594 122.339 86.5845 115.825C91.2096 109.31 97.7835 104.233 105.475 101.235C113.166 98.2366 121.629 97.4522 129.794 98.9807C137.959 100.509 145.459 104.282 151.346 109.822C157.233 115.362 161.242 122.42 162.866 130.104C164.49 137.789 163.656 145.753 160.47 152.992C157.285 160.23 151.89 166.417 144.968 170.77C138.046 175.122 129.908 177.446 121.583 177.446C110.419 177.446 99.7129 173.272 91.8192 165.843C83.9254 158.414 79.4907 148.339 79.4907 137.833V137.833Z" stroke="#010A2D" stroke-width="8" stroke-miterlimit="10"/>
</svg>
