<svg width="146" height="104" viewBox="0 0 146 104" fill="none" xmlns="http://www.w3.org/2000/svg">
<path fill-rule="evenodd" clip-rule="evenodd" d="M104.414 100.814C106.313 102.108 108.447 102.887 110.647 103.087C113.548 103.343 116.42 102.577 118.882 100.941C121.361 99.2868 123.299 96.8286 124.48 93.9747C126.139 89.9392 126.148 85.4242 124.805 81.6997C123.415 77.8745 120.694 75.1587 117.772 74.0731C120.094 76.3417 121.521 79.5597 121.809 82.6519C122.099 85.6601 121.346 88.7473 119.931 90.9427C118.92 92.5304 117.523 93.7972 116.03 94.5308C114.549 95.2653 112.861 95.5367 111.304 95.3106C110.563 95.2063 109.823 94.9861 109.118 94.6672C108.34 94.3188 107.601 93.8488 106.944 93.276C105.687 92.1888 104.636 90.6391 104.011 88.9216C103.377 87.1945 103.132 85.1616 103.359 83.2074C103.583 81.2293 104.311 79.2078 105.459 77.535C106.624 75.8315 108.282 74.4165 110.193 73.5978C112.145 72.7589 114.413 72.5263 116.647 73.0411C114.732 71.6001 112.315 70.7911 109.77 70.9264C107.276 71.0616 104.739 72.0967 102.597 74.009C100.49 75.8964 98.8507 78.5541 97.9957 81.6605C97.1542 84.737 97.117 88.1077 97.9516 91.3064C98.7871 94.4852 100.44 97.3346 102.711 99.4522C103.251 99.954 103.821 100.409 104.414 100.814H104.414Z" fill="#B0DEED"/>
<path fill-rule="evenodd" clip-rule="evenodd" d="M17.4113 100.459C19.311 101.752 21.4443 102.532 23.6444 102.732C26.5457 102.988 29.4181 102.221 31.8801 100.585C34.3587 98.9312 36.2964 96.473 37.4776 93.6191C39.1363 89.5835 39.1458 85.0686 37.8024 81.3441C36.4124 77.5188 33.6916 74.8031 30.7702 73.7175C33.0921 75.9861 34.5187 79.2041 34.8063 82.2962C35.0969 85.3044 34.3435 88.3917 32.9284 90.5871C31.9176 92.1749 30.521 93.4416 29.0273 94.1753C27.5462 94.9098 25.859 95.1812 24.3018 94.9551C23.5602 94.8509 22.8203 94.6306 22.1152 94.3117C21.338 93.9633 20.5983 93.4933 19.9416 92.9205C18.6851 91.8332 17.6337 90.2836 17.0089 88.5661C16.3744 86.8389 16.13 84.806 16.3561 82.8518C16.5801 80.8736 17.3087 78.8522 18.4569 77.1794C19.6216 75.4758 21.2799 74.0609 23.1903 73.2421C25.1424 72.4032 27.4108 72.1707 29.6448 72.6855C27.7297 71.2445 25.3128 70.4354 22.7674 70.5707C20.2732 70.7059 17.7362 71.7409 15.5947 73.6533C13.4875 75.5408 11.8483 78.1984 10.9933 81.3049C10.1517 84.3814 10.1145 87.7521 10.9491 90.9509C11.7846 94.1296 13.4378 96.9791 15.7086 99.0967C16.249 99.5985 16.8182 100.053 17.4113 100.459H17.4113Z" fill="#B0DEED"/>
<path fill-rule="evenodd" clip-rule="evenodd" d="M2.4661 53.3982C2.12448 65.0517 1.33677 76.3399 0 86.6864C3.25043 87.7065 6.35008 88.4115 9.25005 88.6967C6.60848 87.3122 4.08407 86.308 1.61775 85.5757C4.45595 75.0058 6.5275 64.3837 7.30893 53.6773C8.3928 38.5594 6.81297 24.1789 2.078 10.751C2.65145 24.4978 2.9128 38.8267 2.4661 53.3982Z" fill="#B0DEED"/>
<path fill-rule="evenodd" clip-rule="evenodd" d="M50.2639 0.000529702C35.3804 -0.0172203 19.9637 0.411554 5.8042 1.2219C19.0844 5.029 33.361 7.0461 47.9332 7.17263C63.328 7.27708 78.4288 5.26828 92.4329 1.52343C78.8452 0.496733 64.4856 0.0456047 50.2639 0.000529702Z" fill="#B0DEED"/>
<path fill-rule="evenodd" clip-rule="evenodd" d="M95.6666 42.9862C95.7337 29.8259 94.589 16.7702 92.2894 4.46863C90.0838 16.1501 88.9098 28.4928 88.8197 40.9458C88.7523 54.106 89.8966 67.1616 92.1959 79.4633C94.4018 67.7819 95.5762 55.4393 95.6666 42.9862Z" fill="#B0DEED"/>
<path fill-rule="evenodd" clip-rule="evenodd" d="M68.6942 87.3972C68.9314 87.4022 69.1686 87.4067 69.4058 87.4115C78.1722 87.5811 87.0375 87.4554 95.7185 86.1898C87.8791 82.3957 79.267 79.8532 70.2621 79.5113C70.0337 79.5033 69.8052 79.497 69.5766 79.4918C60.2415 79.2832 51.038 81.6057 43.3228 86.5445C52.969 86.7376 58.9809 87.1597 68.6942 87.3972V87.3972Z" fill="#B0DEED"/>
<path fill-rule="evenodd" clip-rule="evenodd" d="M47.8623 53.2159C33.3431 53.4421 19.1112 56.0299 5.91992 59.9082C18.8721 61.283 32.2941 61.4521 45.7988 61.1807C51.2692 61.0585 56.8002 60.8624 62.2182 60.6453C67.2268 60.4437 72.082 60.2561 76.9871 60.2548C80.5295 60.2518 84.0959 60.3771 87.604 60.5379C84.3376 59.0302 80.9311 57.7089 77.3868 56.6789C72.5181 55.2645 67.4936 54.3717 62.4026 53.8484C57.582 53.352 52.7239 53.1512 47.8623 53.2159Z" fill="#B0DEED"/>
<path fill-rule="evenodd" clip-rule="evenodd" d="M124.444 43.5226C125.027 44.9871 125.866 46.4512 127.021 47.7849C127.848 48.6858 128.812 49.4092 129.875 49.9204C131.109 50.4662 132.346 50.7411 133.529 50.7915C134.634 50.7411 135.613 50.7374 136.4 50.9713C136.871 51.0916 137.36 51.3461 137.83 51.6859C138.554 51.6236 139.701 52.3144 141.709 52.7245C139.221 57.6656 137.899 63.1659 137.947 68.8157C138.519 74.098 140.02 79.2975 141.833 84.4062C137.963 84.9309 134.012 85.7746 129.915 87.0425C134.148 86.9063 138.618 86.3473 143.276 85.469C142.351 80.2672 142.054 74.5969 142.753 68.8918C142.898 62.8712 143.968 56.6973 145.764 50.9167C144.758 49.8455 143.555 47.7171 141.56 45.4731C140.568 44.645 139.435 43.989 138.192 43.56C136.551 43.0168 134.981 42.8806 133.572 42.9702C133.145 42.9163 132.775 42.8237 132.52 42.6497C132.241 42.5126 131.967 42.2987 131.735 42.0433C131.731 42.0395 131.727 42.0353 131.722 42.0313C131.151 41.5043 130.74 40.3901 130.298 39.0735C129.804 37.4335 129.544 35.5476 129.314 33.5227C129.072 31.2828 128.936 28.9508 128.79 26.5596C128.647 24.1868 128.505 21.7554 128.25 19.2759C128.035 17.1119 127.713 14.8261 127.084 12.5269C126.637 10.6982 125.774 8.69903 124.289 7.00866C123.585 6.25393 122.75 5.67458 121.83 5.308C120.807 4.92453 119.806 4.8146 118.882 4.90383C112.569 5.54888 106.365 6.37431 100.277 7.43009C98.7337 7.69756 97.2016 7.97926 95.6792 8.28226C95.2968 8.35836 94.9154 8.43576 94.5348 8.51534C94.4392 8.53534 94.3438 8.55543 94.2484 8.57573C94.216 8.58273 94.1836 8.58948 94.1511 8.59673L124.444 43.5226ZM94.1511 8.60523C94.1479 8.54243 94.1439 8.47963 94.1406 8.41686C94.1439 8.47941 94.1479 8.5419 94.1511 8.6044V8.60523ZM94.1511 8.59667L94.2498 8.60266C94.3466 8.60841 94.4433 8.61466 94.5402 8.62091C94.926 8.64541 95.3117 8.67106 95.6983 8.69696C97.2466 8.80094 98.7732 8.9083 100.334 9.0159C106.434 9.43635 112.705 9.83806 118.97 10.1589C119.43 10.2138 119.828 10.3131 120.093 10.5023C120.325 10.6462 120.544 10.8733 120.719 11.1301C121.219 11.7194 121.457 12.8639 121.768 14.2025H121.768C122.096 15.918 122.189 17.8017 122.269 19.8207C122.348 22.0972 122.344 24.4293 122.372 26.8473C122.398 29.2641 122.449 31.7588 122.646 34.3186C122.81 36.6015 123.125 39.032 123.799 41.514C123.964 42.1751 124.177 42.8488 124.444 43.5228" fill="#B0DEED"/>
<path fill-rule="evenodd" clip-rule="evenodd" d="M111.051 27.4018C111.254 25.5181 111.219 23.5684 110.905 21.6463C110.185 17.4036 108.131 13.8469 105.347 11.5408C105.265 15.2875 104.993 19.0089 104.685 22.0038C104.579 23.126 104.431 24.5269 104.319 25.6786C104.203 26.9567 104.1 28.2435 104.029 29.6019C103.919 31.6699 103.782 34.1717 104.126 36.6781C104.249 37.6509 104.473 38.7106 104.887 39.6398C105.245 40.4635 105.804 41.1397 106.426 41.4492C106.329 40.692 106.487 40.0028 106.699 39.4232C106.943 38.7232 107.315 38.0792 107.662 37.3689C108.602 35.4863 109.593 33.6044 110.29 31.1781C110.645 29.9694 110.904 28.7062 111.051 27.4018Z" fill="#B0DEED"/>
<path fill-rule="evenodd" clip-rule="evenodd" d="M118.776 37.2824C118.562 37.211 118.343 37.1476 118.121 37.0928C116.555 36.6798 114.662 36.8648 112.984 37.855C111.105 39.0303 110.137 41.0483 110.07 43.0781C111.757 42.8709 113.137 43.1628 113.949 43.6484C114.858 44.0566 115.383 44.4717 116.467 44.7657C116.5 44.775 116.532 44.7849 116.565 44.7942C118.605 45.357 122.122 45.8332 125.446 44.2623C123.72 40.9832 122.058 38.4103 118.776 37.2824Z" fill="#B0DEED"/>
<path fill-rule="evenodd" clip-rule="evenodd" d="M133.276 63.1005C133.21 61.9244 133.073 60.7404 132.848 59.3469C134.863 59.5206 136.826 59.056 139.398 57.0794C136.664 55.5705 133.202 55.5366 129.66 56.1068C129.678 57.8777 129.761 59.8055 129.896 61.7517C130.146 65.2619 130.564 68.7959 131.079 71.559C133.746 71.2839 136.1 70.5275 137.758 68.9232C135.778 68.0743 134.384 68.062 133.175 68.5193C133.312 66.3636 133.362 64.7338 133.276 63.1005Z" fill="#B0DEED"/>
</svg>
