<svg width="308" height="296" viewBox="0 0 308 296" fill="none" xmlns="http://www.w3.org/2000/svg">
<g opacity="0.7">
<g opacity="0.7">
<path opacity="0.7" d="M36.519 39.9882L123.734 295.499L303.707 78.7491L36.519 39.9882Z" fill="#B0DEED"/>
</g>
</g>
<g opacity="0.7">
<g opacity="0.7">
<path opacity="0.7" d="M190.852 48.8402L93.1639 76.5129L68.4844 175.643L141.487 247.103L239.176 219.43L263.858 120.3L190.852 48.8402Z" fill="#B0DEED"/>
</g>
</g>
<g opacity="0.7">
<g opacity="0.7">
<path opacity="0.7" d="M166.243 85.8406L122.879 110.877L123.059 161.254L166.6 186.6L209.963 161.564L209.784 111.184L166.243 85.8406Z" fill="#B0DEED"/>
</g>
</g>
<path d="M187.711 37.0472L72.403 73.9722L47.0013 193.077L136.914 275.254L252.222 238.329L277.621 119.224L187.711 37.0472ZM170.773 4L4 238.912L304 259.424L170.773 4Z" stroke="#C01466" stroke-width="4" stroke-miterlimit="10"/>
</svg>
