<svg width="263" height="241" viewBox="0 0 263 241" fill="none" xmlns="http://www.w3.org/2000/svg">
<path d="M30.5332 167.314L30.3457 167.483L31.6082 169.673L31.933 169.737L30.5332 167.314ZM217.938 205.067L216.932 206.81L217.188 206.864L218.043 205.383L217.938 205.067Z" fill="#1D1D1B"/>
<path d="M39.7368 207.61L41.0496 208.067L107.835 18.3578L241.747 169.564L37.8705 209.43L38.1358 210.801L39.3937 211.391C39.3937 211.391 39.7871 210.559 40.1896 209.731C40.3863 209.32 40.5922 208.904 40.7431 208.607C40.8163 208.46 40.8803 208.337 40.9169 208.277V208.245L40.8026 208.177L40.9124 208.25L40.798 208.181L40.9078 208.255L40.0341 207.692L40.8255 208.346L40.8986 208.245L40.0341 207.692L40.8255 208.346L39.8054 207.505L40.6562 208.515L40.8255 208.346L39.8054 207.505L40.6562 208.515L39.7734 207.468L40.4092 208.684C40.4971 208.637 40.5799 208.58 40.6562 208.515L39.7734 207.468L40.4092 208.684L39.7688 207.454V208.826C39.9915 208.825 40.2107 208.771 40.4092 208.671L39.7688 207.441L38.9454 208.556C39.1842 208.732 39.4723 208.828 39.7688 208.831V207.459L38.9454 208.575L39.7688 207.464L38.4285 207.82C38.5094 208.123 38.6919 208.39 38.9454 208.575L39.7688 207.464L38.4285 207.82L39.7551 207.468H38.3828C38.3861 207.587 38.4014 207.705 38.4285 207.82L39.7551 207.468H39.6773L38.4102 207.203C38.3939 207.29 38.3847 207.379 38.3828 207.468H39.6773L38.4102 207.203L39.2062 207.368L38.4285 207.13V207.203L39.2244 207.368L38.4468 207.13V207.162L41.0679 208.076L39.7551 207.619L41.0679 208.076L41.1274 207.893L41.1594 207.765C41.1787 207.666 41.1894 207.565 41.1914 207.464C41.1918 207.266 41.1497 207.071 41.0679 206.892C40.9946 206.72 40.887 206.566 40.7517 206.437C40.6164 206.308 40.4563 206.209 40.2812 206.144C40.1061 206.079 39.9196 206.051 39.7332 206.061C39.5467 206.071 39.3643 206.119 39.197 206.202C39.0549 206.27 38.9251 206.361 38.8128 206.471L38.6298 206.686C38.5496 206.809 38.4763 206.935 38.4102 207.066C38.1724 207.523 37.8018 208.273 37.4954 208.954C37.1889 209.635 36.9007 210.207 36.9007 210.207L35.7297 212.69L247.063 171.365L106.76 12.9854L38.4285 207.148L41.0496 208.062L39.7368 207.61Z" fill="#1D1D1B"/>
<path d="M100.726 235.368L101.238 235.281L67.7407 35.4718L260.9 104.216L100.506 238.541L100.84 238.939L101.362 238.907C101.362 238.907 101.321 238.226 101.275 237.449C101.229 236.671 101.188 235.784 101.188 235.418V235.3H100.95L101.179 235.354V235.318H100.941L101.17 235.373L100.712 235.268L101.138 235.487L101.179 235.373L100.721 235.268L101.147 235.487L100.689 235.249L101.028 235.633L101.142 235.487L100.685 235.249L101.023 235.633L100.68 235.245V235.766C100.807 235.764 100.928 235.717 101.023 235.633L100.68 235.245L100.282 235.574C100.331 235.632 100.392 235.68 100.46 235.712C100.529 235.744 100.604 235.761 100.68 235.761V235.213L100.282 235.542L100.644 235.24L100.186 235.396L100.269 235.542L100.63 235.24L100.173 235.396L100.397 235.318L100.163 235.377L100.388 235.3L100.154 235.359V235.437L101.179 235.263L100.667 235.35L101.179 235.263L101.147 235.094L101.106 234.984L101.028 234.861C100.98 234.8 100.918 234.752 100.849 234.718C100.779 234.685 100.703 234.668 100.625 234.669C100.496 234.669 100.371 234.716 100.273 234.801L100.127 235.03C100.105 235.098 100.092 235.169 100.09 235.24V235.441C100.09 236.273 100.269 238.989 100.269 238.999L100.333 240.023L262.963 103.828L66.4187 33.9126L100.214 235.441L101.238 235.268L100.726 235.368Z" fill="#1D1D1B"/>
<path d="M103.32 220.714L103.489 220.687L73.6233 42.5544L246.336 103.983L103.333 223.778L103.448 223.91H103.622C103.622 223.91 103.466 221.464 103.466 220.783V220.65L103.329 220.618L103.452 220.682V220.65L103.315 220.618L103.439 220.682L103.288 220.604V220.774L103.439 220.682L103.288 220.604L103.155 220.71L103.288 220.774V220.604L103.155 220.71L103.256 220.627L103.132 220.673L103.155 220.71L103.256 220.627L103.132 220.673L103.155 220.774L103.494 220.714L103.324 220.742L103.494 220.714L103.471 220.591V220.536L103.443 220.49L103.306 220.426L103.146 220.522L103.118 220.65V220.783C103.118 221.496 103.274 223.928 103.274 223.928L103.297 224.271L247.022 103.887L73.1841 42.0332L103.16 220.746L103.498 220.687L103.32 220.714Z" fill="#1D1D1B"/>
<path d="M17.2678 153.254L17.6154 153.643L169.03 18.9748L213.615 219.008L14.4637 154.758L14.3036 155.252L14.6101 155.673L16.0922 154.617C16.4673 154.351 16.8469 154.086 17.1351 153.894C17.2769 153.794 17.4004 153.716 17.4828 153.661L17.5697 153.611L17.4416 153.359L17.5422 153.62H17.5697L17.4416 153.368L17.5422 153.629L17.373 153.172V153.652L17.5422 153.62L17.373 153.163V153.14L17.0711 153.556C17.1589 153.62 17.2644 153.655 17.373 153.656V153.14L17.0711 153.556L17.373 153.14H16.8561C16.8577 153.221 16.8779 153.301 16.9151 153.373C16.9524 153.445 17.0058 153.508 17.0711 153.556L17.373 153.14L16.9156 152.907C16.8797 152.979 16.8609 153.059 16.8607 153.14H17.3684L16.911 152.907L17.2998 153.103L16.9659 152.82L16.911 152.907L17.2998 153.103L16.9659 152.82L16.9156 152.865L17.6108 153.643L17.2632 153.254L17.6108 153.643L17.7252 153.533L17.7892 153.455L17.8396 153.378C17.8781 153.303 17.8984 153.22 17.899 153.135C17.8985 153.053 17.8788 152.971 17.8415 152.897C17.8042 152.824 17.7503 152.759 17.684 152.71C17.5941 152.643 17.4849 152.608 17.373 152.609C17.296 152.609 17.2197 152.625 17.1488 152.655L16.8561 152.824C16.1013 153.309 13.9971 154.827 13.9926 154.832L13.1646 155.426L215.02 220.558L169.652 17.0225L16.9201 152.861L17.62 153.643L17.2678 153.254Z" fill="#1D1D1B"/>
<path d="M3.51765 178.224L3.6503 178.338L162.489 0.672129L241.688 229.141L0.370518 180.78L0.33393 180.949L0.452859 181.077L2.06759 179.659C2.47013 179.298 2.87725 178.941 3.19287 178.672C3.3484 178.535 3.48105 178.425 3.57711 178.347L3.69147 178.265H3.71434L3.6503 178.155V178.279H3.71434L3.6503 178.169V178.123L3.53595 178.247L3.6503 178.292V178.123L3.53595 178.247L3.6503 178.123H3.48105L3.53595 178.247L3.6503 178.123H3.61828L3.49935 178.054V178.123H3.63658L3.51765 178.054L3.42616 178.16L3.68689 178.393L3.55424 178.279L3.68689 178.393L3.78296 178.279L3.81498 178.228L3.847 178.123L3.79211 177.995L3.6686 177.945L3.56339 177.977C3.32951 178.144 3.10503 178.324 2.89097 178.516C1.92579 179.353 0.25616 180.876 0.25616 180.876L0 181.104L242.219 229.603L162.626 0L3.38957 178.105L3.6503 178.338L3.51765 178.224Z" fill="#1D1D1B"/>
</svg>
