<svg width="263" height="241" viewBox="0 0 263 241" fill="none" xmlns="http://www.w3.org/2000/svg">
<path d="M30.5332 167.314L30.3457 167.484L31.6082 169.674L31.933 169.738L30.5332 167.314ZM217.938 205.068L216.932 206.81L217.188 206.865L218.043 205.383L217.938 205.068Z" fill="#1D1D1B"/>
<path d="M39.7366 207.61L41.0494 208.067L107.834 18.3578L241.747 169.564L37.8703 209.43L38.1356 210.801L39.3935 211.391C39.3935 211.391 39.7869 210.559 40.1894 209.731C40.3861 209.32 40.592 208.904 40.7429 208.607C40.8161 208.46 40.8802 208.337 40.9168 208.277V208.245L40.8024 208.177L40.9122 208.25L40.7978 208.181L40.9076 208.255L40.0339 207.692L40.8253 208.346L40.8985 208.245L40.0339 207.692L40.8253 208.346L39.8052 207.505L40.656 208.515L40.8253 208.346L39.8052 207.505L40.656 208.515L39.7732 207.468L40.409 208.684C40.4969 208.637 40.5797 208.58 40.656 208.515L39.7732 207.468L40.409 208.684L39.7686 207.454V208.826C39.9913 208.825 40.2105 208.771 40.409 208.671L39.7686 207.441L38.9452 208.556C39.184 208.732 39.4721 208.828 39.7686 208.831V207.459L38.9452 208.575L39.7686 207.464L38.4283 207.82C38.5092 208.123 38.6917 208.39 38.9452 208.575L39.7686 207.464L38.4283 207.82L39.7549 207.468H38.3826C38.3859 207.587 38.4012 207.705 38.4283 207.82L39.7549 207.468H39.6771L38.41 207.203C38.3937 207.29 38.3846 207.379 38.3826 207.468H39.6771L38.41 207.203L39.206 207.368L38.4283 207.13V207.203L39.2243 207.368L38.4466 207.13V207.162L41.0677 208.076L39.7549 207.619L41.0677 208.076L41.1272 207.893L41.1592 207.765C41.1785 207.666 41.1892 207.565 41.1912 207.464C41.1916 207.266 41.1495 207.071 41.0677 206.892C40.9944 206.72 40.8868 206.566 40.7515 206.437C40.6163 206.308 40.4562 206.209 40.281 206.144C40.1059 206.079 39.9194 206.051 39.733 206.061C39.5466 206.071 39.3641 206.119 39.1968 206.202C39.0548 206.27 38.9249 206.361 38.8126 206.471L38.6296 206.686C38.5494 206.809 38.4761 206.935 38.41 207.066C38.1722 207.523 37.8017 208.273 37.4952 208.954C37.1887 209.635 36.9005 210.207 36.9005 210.207L35.7295 212.69L247.063 171.365L106.759 12.9854L38.4283 207.148L41.0494 208.062L39.7366 207.61Z" fill="#1D1D1B"/>
<path d="M100.726 235.369L101.239 235.282L67.7409 35.4722L260.9 104.217L100.507 238.542L100.841 238.94L101.362 238.908C101.362 238.908 101.321 238.226 101.275 237.449C101.229 236.672 101.188 235.785 101.188 235.419V235.3H100.95L101.179 235.355V235.318H100.941L101.17 235.373L100.713 235.268L101.138 235.487L101.179 235.373L100.722 235.268L101.147 235.487L100.69 235.25L101.028 235.634L101.143 235.487L100.685 235.25L101.024 235.634L100.681 235.245V235.766C100.807 235.765 100.929 235.717 101.024 235.634L100.681 235.245L100.283 235.574C100.331 235.633 100.392 235.68 100.461 235.713C100.529 235.745 100.604 235.762 100.681 235.762V235.213L100.283 235.542L100.644 235.241L100.187 235.396L100.269 235.542L100.63 235.241L100.173 235.396L100.397 235.318L100.164 235.378L100.388 235.3L100.154 235.359V235.437L101.179 235.263L100.667 235.35L101.179 235.263L101.147 235.094L101.106 234.985L101.028 234.861C100.98 234.801 100.919 234.752 100.849 234.719C100.779 234.686 100.703 234.669 100.626 234.669C100.496 234.67 100.371 234.717 100.273 234.802L100.127 235.03C100.105 235.098 100.092 235.169 100.09 235.241V235.442C100.09 236.274 100.269 238.99 100.269 238.999L100.333 240.023L262.963 103.828L66.4189 33.9131L100.214 235.442L101.239 235.268L100.726 235.369Z" fill="#1D1D1B"/>
<path d="M103.32 220.714L103.489 220.687L73.6232 42.5544L246.335 103.983L103.333 223.778L103.448 223.91H103.622C103.622 223.91 103.466 221.464 103.466 220.783V220.65L103.329 220.618L103.452 220.682V220.65L103.315 220.618L103.439 220.682L103.288 220.604V220.774L103.439 220.682L103.288 220.604L103.155 220.71L103.288 220.774V220.604L103.155 220.71L103.256 220.627L103.132 220.673L103.155 220.71L103.256 220.627L103.132 220.673L103.155 220.774L103.493 220.714L103.324 220.742L103.493 220.714L103.471 220.591V220.536L103.443 220.49L103.306 220.426L103.146 220.522L103.118 220.65V220.783C103.118 221.496 103.274 223.928 103.274 223.928L103.297 224.271L247.022 103.887L73.1841 42.0332L103.16 220.746L103.498 220.687L103.32 220.714Z" fill="#1D1D1B"/>
<path d="M17.2677 153.254L17.6154 153.643L169.03 18.9748L213.615 219.008L14.4637 154.758L14.3036 155.252L14.61 155.673L16.0921 154.617C16.4672 154.351 16.8469 154.086 17.1351 153.894C17.2769 153.794 17.4004 153.716 17.4827 153.661L17.5696 153.611L17.4415 153.359L17.5422 153.62H17.5696L17.4415 153.368L17.5422 153.629L17.3729 153.172V153.652L17.5422 153.62L17.3729 153.163V153.14L17.071 153.556C17.1588 153.62 17.2643 153.655 17.3729 153.656V153.14L17.071 153.556L17.3729 153.14H16.856C16.8576 153.221 16.8778 153.301 16.9151 153.373C16.9524 153.445 17.0057 153.508 17.071 153.556L17.3729 153.14L16.9155 152.907C16.8796 152.979 16.8609 153.059 16.8606 153.14H17.3683L16.9109 152.907L17.2997 153.103L16.9658 152.82L16.9109 152.907L17.2997 153.103L16.9658 152.82L16.9155 152.865L17.6108 153.643L17.2631 153.254L17.6108 153.643L17.7251 153.533L17.7892 153.455L17.8395 153.378C17.878 153.303 17.8984 153.22 17.899 153.135C17.8984 153.053 17.8787 152.971 17.8414 152.897C17.8041 152.824 17.7502 152.759 17.684 152.71C17.5941 152.643 17.4848 152.608 17.3729 152.609C17.2959 152.609 17.2196 152.625 17.1488 152.655L16.856 152.824C16.1013 153.309 13.9971 154.827 13.9925 154.832L13.1646 155.426L215.02 220.558L169.652 17.0225L16.9201 152.861L17.6199 153.643L17.2677 153.254Z" fill="#1D1D1B"/>
<path d="M3.51765 178.224L3.6503 178.338L162.489 0.672129L241.688 229.141L0.370518 180.78L0.33393 180.949L0.452859 181.077L2.06759 179.659C2.47013 179.298 2.87725 178.941 3.19287 178.672C3.3484 178.535 3.48105 178.425 3.57711 178.347L3.69147 178.265H3.71434L3.6503 178.155V178.279H3.71434L3.6503 178.169V178.123L3.53595 178.247L3.6503 178.292V178.123L3.53595 178.247L3.6503 178.123H3.48105L3.53595 178.247L3.6503 178.123H3.61828L3.49935 178.054V178.123H3.63658L3.51765 178.054L3.42616 178.16L3.68689 178.393L3.55424 178.279L3.68689 178.393L3.78296 178.279L3.81498 178.228L3.847 178.123L3.79211 177.995L3.6686 177.945L3.56339 177.977C3.32951 178.144 3.10503 178.324 2.89097 178.516C1.92579 179.353 0.25616 180.876 0.25616 180.876L0 181.104L242.219 229.603L162.626 0L3.38957 178.105L3.6503 178.338L3.51765 178.224Z" fill="#1D1D1B"/>
</svg>
