<svg width="96" height="96" viewBox="0 0 96 96" fill="none" xmlns="http://www.w3.org/2000/svg">
<g clip-path="url(#clip0)">
<path d="M16.429 24.7107L57.8422 91.2413L95.8831 25.1779L16.429 24.7107Z" fill="#B0DEED"/>
<path d="M16.2485 36.612L61.636 71.0403L68.7065 16.8605L16.2485 36.612Z" fill="#010A2D"/>
<g opacity="0.8">
<g opacity="0.8">
<path opacity="0.8" d="M30.823 36.6177L25.1651 52.4932L36.7681 65.5751L54.0279 62.7795L59.6857 46.9041L48.0843 33.8227L30.823 36.6177Z" fill="#C01466"/>
</g>
</g>
<path d="M49.1147 50.4617C47.2114 49.7835 45.5426 48.5827 44.3191 47.0113C43.0957 45.4399 42.3726 43.5684 42.2413 41.6335C42.11 39.6987 42.5764 37.7873 43.5815 36.1412C44.5867 34.495 46.0854 33.188 47.8881 32.3854C49.6909 31.5829 51.7168 31.3207 53.7095 31.6322C55.7022 31.9437 57.5724 32.8149 59.0835 34.1355C60.5945 35.456 61.6786 37.1668 62.1987 39.0513C62.7187 40.9359 62.6514 42.9096 62.0051 44.723C61.1385 47.1545 59.2936 49.1252 56.8761 50.2014C54.4587 51.2777 51.6668 51.3713 49.1147 50.4617V50.4617Z" stroke="#010A2D" stroke-width="8" stroke-miterlimit="10"/>
</g>
<defs>
<clipPath id="clip0">
<rect width="75" height="75" fill="white" transform="translate(0.0576172 70.6475) rotate(-70.3845)"/>
</clipPath>
</defs>
</svg>
